<?xml version="1.0" encoding="UTF-8" standalone="no"?>
<!DOCTYPE svg PUBLIC "-//W3C//DTD SVG 1.1//EN"
 "http://www.w3.org/Graphics/SVG/1.1/DTD/svg11.dtd">
<!-- Generated by graphviz version 2.50.0 (0)
 -->
<!-- Title: Graphical Class Hierarchy Pages: 1 -->
<svg width="426pt" height="241pt"
 viewBox="0.00 0.00 426.00 240.66" xmlns="http://www.w3.org/2000/svg" xmlns:xlink="http://www.w3.org/1999/xlink">
<g id="graph0" class="graph" transform="scale(1 1) rotate(0) translate(4 236.66)">
<title>Graphical Class Hierarchy</title>
<polygon fill="white" stroke="transparent" points="-4,4 -4,-236.66 422,-236.66 422,4 -4,4"/>
<!-- Node0 -->
<g id="node1" class="node">
<title>Node0</title>
<g id="a_node1"><a xlink:href="interfaceChannelList.html" target="_top" xlink:title=" ">
<polygon fill="white" stroke="black" points="0,-213.16 0,-232.16 74,-232.16 74,-213.16 0,-213.16"/>
<text text-anchor="middle" x="37" y="-220.16" font-family="Helvetica,sans-Serif" font-size="10.00">ChannelList</text>
</a>
</g>
</g>
<!-- Node1 -->
<g id="node2" class="node">
<title>Node1</title>
<g id="a_node2"><a xlink:href="classGlgChildGui.html" target="_top" xlink:title=" ">
<polygon fill="white" stroke="black" points="131,-213.16 131,-232.16 205,-232.16 205,-213.16 131,-213.16"/>
<text text-anchor="middle" x="168" y="-220.16" font-family="Helvetica,sans-Serif" font-size="10.00">GlgChildGui</text>
</a>
</g>
</g>
<!-- Node0&#45;&gt;Node1 -->
<g id="edge1" class="edge">
<title>Node0&#45;&gt;Node1</title>
<path fill="none" stroke="midnightblue" d="M84.58,-222.66C99.87,-222.66 116.61,-222.66 131,-222.66"/>
<polygon fill="midnightblue" stroke="midnightblue" points="84.28,-219.16 74.28,-222.66 84.28,-226.16 84.28,-219.16"/>
</g>
<!-- Node2 -->
<g id="node3" class="node">
<title>Node2</title>
<g id="a_node3"><a xlink:href="classGlgGui.html" target="_top" xlink:title=" ">
<polygon fill="white" stroke="black" points="143,-175.16 143,-194.16 193,-194.16 193,-175.16 143,-175.16"/>
<text text-anchor="middle" x="168" y="-182.16" font-family="Helvetica,sans-Serif" font-size="10.00">GlgGui</text>
</a>
</g>
</g>
<!-- Node0&#45;&gt;Node2 -->
<g id="edge2" class="edge">
<title>Node0&#45;&gt;Node2</title>
<path fill="none" stroke="midnightblue" d="M80.36,-210.18C101,-204.1 125.08,-197.01 142.6,-191.84"/>
<polygon fill="midnightblue" stroke="midnightblue" points="79.16,-206.89 70.55,-213.07 81.13,-213.6 79.16,-206.89"/>
</g>
<!-- Node7 -->
<g id="node4" class="node">
<title>Node7</title>
<g id="a_node4"><a xlink:href="interfaceDataTypes.html" target="_top" xlink:title=" ">
<polygon fill="white" stroke="black" points="3,-61.16 3,-80.16 71,-80.16 71,-61.16 3,-61.16"/>
<text text-anchor="middle" x="37" y="-68.16" font-family="Helvetica,sans-Serif" font-size="10.00">DataTypes</text>
</a>
</g>
</g>
<!-- Node7&#45;&gt;Node2 -->
<g id="edge8" class="edge">
<title>Node7&#45;&gt;Node2</title>
<path fill="none" stroke="midnightblue" d="M56.69,-87.18C84.01,-111.31 133.97,-155.47 156.03,-174.96"/>
<polygon fill="midnightblue" stroke="midnightblue" points="58.81,-84.38 49,-80.38 54.17,-89.62 58.81,-84.38"/>
</g>
<!-- Node8 -->
<g id="node5" class="node">
<title>Node8</title>
<g id="a_node5"><a xlink:href="classDataElement.html" target="_top" xlink:title=" ">
<polygon fill="white" stroke="black" points="128,-23.16 128,-42.16 208,-42.16 208,-23.16 128,-23.16"/>
<text text-anchor="middle" x="168" y="-30.16" font-family="Helvetica,sans-Serif" font-size="10.00">DataElement</text>
</a>
</g>
</g>
<!-- Node7&#45;&gt;Node8 -->
<g id="edge3" class="edge">
<title>Node7&#45;&gt;Node8</title>
<path fill="none" stroke="midnightblue" d="M80.55,-58.12C98.1,-52.95 118.11,-47.06 134.46,-42.24"/>
<polygon fill="midnightblue" stroke="midnightblue" points="79.16,-54.89 70.55,-61.07 81.13,-61.6 79.16,-54.89"/>
</g>
<!-- Node9 -->
<g id="node6" class="node">
<title>Node9</title>
<g id="a_node6"><a xlink:href="classDataManager.html" target="_top" xlink:title=" ">
<polygon fill="white" stroke="black" points="126.5,-61.16 126.5,-80.16 209.5,-80.16 209.5,-61.16 126.5,-61.16"/>
<text text-anchor="middle" x="168" y="-68.16" font-family="Helvetica,sans-Serif" font-size="10.00">DataManager</text>
</a>
</g>
</g>
<!-- Node7&#45;&gt;Node9 -->
<g id="edge4" class="edge">
<title>Node7&#45;&gt;Node9</title>
<path fill="none" stroke="midnightblue" d="M81.39,-70.66C95.82,-70.66 111.82,-70.66 126.05,-70.66"/>
<polygon fill="midnightblue" stroke="midnightblue" points="81.22,-67.16 71.22,-70.66 81.22,-74.16 81.22,-67.16"/>
</g>
<!-- Node10 -->
<g id="node7" class="node">
<title>Node10</title>
<g id="a_node7"><a xlink:href="classDevice.html" target="_top" xlink:title=" ">
<polygon fill="white" stroke="black" points="262,-61.16 262,-80.16 312,-80.16 312,-61.16 262,-61.16"/>
<text text-anchor="middle" x="287" y="-68.16" font-family="Helvetica,sans-Serif" font-size="10.00">Device</text>
</a>
</g>
</g>
<!-- Node7&#45;&gt;Node10 -->
<g id="edge7" class="edge">
<title>Node7&#45;&gt;Node10</title>
<path fill="none" stroke="midnightblue" d="M53.07,-53.6C66.45,-39.85 87.34,-21.54 110,-13.66 158.69,3.28 178.12,5.46 226,-13.66 250.02,-23.25 269.92,-47.53 279.63,-61.11"/>
<polygon fill="midnightblue" stroke="midnightblue" points="50.37,-51.37 46.1,-61.06 55.49,-56.14 50.37,-51.37"/>
</g>
<!-- Node12 -->
<g id="node9" class="node">
<title>Node12</title>
<g id="a_node9"><a xlink:href="classModbusSlaveThread.html" target="_top" xlink:title=" ">
<polygon fill="white" stroke="black" points="110,-99.16 110,-118.16 226,-118.16 226,-99.16 110,-99.16"/>
<text text-anchor="middle" x="168" y="-106.16" font-family="Helvetica,sans-Serif" font-size="10.00">ModbusSlaveThread</text>
</a>
</g>
</g>
<!-- Node7&#45;&gt;Node12 -->
<g id="edge9" class="edge">
<title>Node7&#45;&gt;Node12</title>
<path fill="none" stroke="midnightblue" d="M80.55,-83.19C98.1,-88.36 118.11,-94.26 134.46,-99.07"/>
<polygon fill="midnightblue" stroke="midnightblue" points="81.13,-79.72 70.55,-80.25 79.16,-86.43 81.13,-79.72"/>
</g>
<!-- Node9&#45;&gt;Node10 -->
<g id="edge5" class="edge">
<title>Node9&#45;&gt;Node10</title>
<path fill="none" stroke="midnightblue" d="M219.59,-70.66C234.27,-70.66 249.61,-70.66 261.85,-70.66"/>
<polygon fill="midnightblue" stroke="midnightblue" points="219.59,-67.16 209.59,-70.66 219.59,-74.16 219.59,-67.16"/>
</g>
<!-- Node11 -->
<g id="node8" class="node">
<title>Node11</title>
<g id="a_node8"><a xlink:href="classControllino.html" target="_top" xlink:title=" ">
<polygon fill="white" stroke="black" points="348,-61.16 348,-80.16 418,-80.16 418,-61.16 348,-61.16"/>
<text text-anchor="middle" x="383" y="-68.16" font-family="Helvetica,sans-Serif" font-size="10.00">Controllino</text>
</a>
</g>
</g>
<!-- Node10&#45;&gt;Node11 -->
<g id="edge6" class="edge">
<title>Node10&#45;&gt;Node11</title>
<path fill="none" stroke="midnightblue" d="M322.38,-70.66C330.72,-70.66 339.63,-70.66 347.96,-70.66"/>
<polygon fill="midnightblue" stroke="midnightblue" points="322.21,-67.16 312.21,-70.66 322.21,-74.16 322.21,-67.16"/>
</g>
<!-- Node19 -->
<g id="node10" class="node">
<title>Node19</title>
<g id="a_node10"><a xlink:title=" ">
<polygon fill="white" stroke="#bfbfbf" points="6,-137.16 6,-156.16 68,-156.16 68,-137.16 6,-137.16"/>
<text text-anchor="middle" x="37" y="-144.16" font-family="Helvetica,sans-Serif" font-size="10.00">Runnable</text>
</a>
</g>
</g>
<!-- Node19&#45;&gt;Node1 -->
<g id="edge11" class="edge">
<title>Node19&#45;&gt;Node1</title>
<path fill="none" stroke="midnightblue" d="M67.6,-161.24C69.82,-162.65 71.98,-164.13 74,-165.66 92.53,-179.72 90.38,-191.16 110,-203.66 116.33,-207.69 123.62,-210.96 130.81,-213.57"/>
<polygon fill="midnightblue" stroke="midnightblue" points="69.3,-158.18 58.89,-156.2 65.79,-164.24 69.3,-158.18"/>
</g>
<!-- Node19&#45;&gt;Node2 -->
<g id="edge12" class="edge">
<title>Node19&#45;&gt;Node2</title>
<path fill="none" stroke="midnightblue" d="M78,-158.44C99.28,-164.71 124.74,-172.21 142.97,-177.58"/>
<polygon fill="midnightblue" stroke="midnightblue" points="78.83,-155.04 68.24,-155.57 76.85,-161.75 78.83,-155.04"/>
</g>
<!-- Node19&#45;&gt;Node10 -->
<g id="edge10" class="edge">
<title>Node19&#45;&gt;Node10</title>
<path fill="none" stroke="midnightblue" d="M78.24,-149.92C117.7,-151.47 178.65,-149.39 226,-127.66 249.24,-116.99 269.17,-93.6 279.16,-80.34"/>
<polygon fill="midnightblue" stroke="midnightblue" points="78.37,-146.42 68.21,-149.43 78.02,-153.41 78.37,-146.42"/>
</g>
<!-- Node19&#45;&gt;Node12 -->
<g id="edge13" class="edge">
<title>Node19&#45;&gt;Node12</title>
<path fill="none" stroke="midnightblue" d="M78.01,-134.87C96.23,-129.51 117.51,-123.24 134.69,-118.18"/>
<polygon fill="midnightblue" stroke="midnightblue" points="76.85,-131.57 68.24,-137.75 78.83,-138.28 76.85,-131.57"/>
</g>
<!-- Node26 -->
<g id="node11" class="node">
<title>Node26</title>
<g id="a_node11"><a xlink:title=" ">
<polygon fill="white" stroke="#bfbfbf" points="12,-175.16 12,-194.16 62,-194.16 62,-175.16 12,-175.16"/>
<text text-anchor="middle" x="37" y="-182.16" font-family="Helvetica,sans-Serif" font-size="10.00">JFrame</text>
</a>
</g>
</g>
<!-- Node26&#45;&gt;Node1 -->
<g id="edge14" class="edge">
<title>Node26&#45;&gt;Node1</title>
<path fill="none" stroke="midnightblue" d="M71.91,-194.65C91.28,-200.35 115.44,-207.47 134.56,-213.1"/>
<polygon fill="midnightblue" stroke="midnightblue" points="72.85,-191.27 62.26,-191.81 70.87,-197.99 72.85,-191.27"/>
</g>
<!-- Node26&#45;&gt;Node2 -->
<g id="edge15" class="edge">
<title>Node26&#45;&gt;Node2</title>
<path fill="none" stroke="midnightblue" d="M72.31,-184.66C94.54,-184.66 122.97,-184.66 142.84,-184.66"/>
<polygon fill="midnightblue" stroke="midnightblue" points="72.26,-181.16 62.26,-184.66 72.26,-188.16 72.26,-181.16"/>
</g>
</g>
</svg>
