<?xml version="1.0" encoding="UTF-8" standalone="no"?>
<!DOCTYPE svg PUBLIC "-//W3C//DTD SVG 1.1//EN"
 "http://www.w3.org/Graphics/SVG/1.1/DTD/svg11.dtd">
<!-- Generated by graphviz version 2.50.0 (0)
 -->
<!-- Title: DataTypes Pages: 1 -->
<svg width="430pt" height="196pt"
 viewBox="0.00 0.00 430.00 196.00" xmlns="http://www.w3.org/2000/svg" xmlns:xlink="http://www.w3.org/1999/xlink">
<g id="graph0" class="graph" transform="scale(1 1) rotate(0) translate(4 192)">
<title>DataTypes</title>
<polygon fill="white" stroke="transparent" points="-4,4 -4,-192 426,-192 426,4 -4,4"/>
<!-- Node1 -->
<g id="node1" class="node">
<title>Node1</title>
<g id="a_node1"><a xlink:title=" ">
<polygon fill="#bfbfbf" stroke="black" points="176,-168.5 176,-187.5 244,-187.5 244,-168.5 176,-168.5"/>
<text text-anchor="middle" x="210" y="-175.5" font-family="Helvetica,sans-Serif" font-size="10.00">DataTypes</text>
</a>
</g>
</g>
<!-- Node2 -->
<g id="node2" class="node">
<title>Node2</title>
<g id="a_node2"><a xlink:href="classDataElement.html" target="_top" xlink:title=" ">
<polygon fill="white" stroke="black" points="0,-112.5 0,-131.5 80,-131.5 80,-112.5 0,-112.5"/>
<text text-anchor="middle" x="40" y="-119.5" font-family="Helvetica,sans-Serif" font-size="10.00">DataElement</text>
</a>
</g>
</g>
<!-- Node1&#45;&gt;Node2 -->
<g id="edge1" class="edge">
<title>Node1&#45;&gt;Node2</title>
<path fill="none" stroke="midnightblue" d="M173.18,-165.3C141.15,-155.13 95.48,-140.62 66.81,-131.52"/>
<polygon fill="midnightblue" stroke="midnightblue" points="172.47,-168.75 183.06,-168.44 174.59,-162.08 172.47,-168.75"/>
</g>
<!-- Node3 -->
<g id="node3" class="node">
<title>Node3</title>
<g id="a_node3"><a xlink:href="classDataManager.html" target="_top" xlink:title=" ">
<polygon fill="white" stroke="black" points="98.5,-112.5 98.5,-131.5 181.5,-131.5 181.5,-112.5 98.5,-112.5"/>
<text text-anchor="middle" x="140" y="-119.5" font-family="Helvetica,sans-Serif" font-size="10.00">DataManager</text>
</a>
</g>
</g>
<!-- Node1&#45;&gt;Node3 -->
<g id="edge2" class="edge">
<title>Node1&#45;&gt;Node3</title>
<path fill="none" stroke="midnightblue" d="M190.69,-162.1C178.09,-152.38 162.07,-140.03 151.45,-131.83"/>
<polygon fill="midnightblue" stroke="midnightblue" points="188.7,-164.99 198.75,-168.32 192.97,-159.44 188.7,-164.99"/>
</g>
<!-- Node4 -->
<g id="node4" class="node">
<title>Node4</title>
<g id="a_node4"><a xlink:href="classDevice.html" target="_top" xlink:title=" ">
<polygon fill="white" stroke="black" points="150,-56.5 150,-75.5 200,-75.5 200,-56.5 150,-56.5"/>
<text text-anchor="middle" x="175" y="-63.5" font-family="Helvetica,sans-Serif" font-size="10.00">Device</text>
</a>
</g>
</g>
<!-- Node1&#45;&gt;Node4 -->
<g id="edge5" class="edge">
<title>Node1&#45;&gt;Node4</title>
<path fill="none" stroke="midnightblue" d="M204.88,-158.44C201.21,-145.39 196.03,-127.56 191,-112 186.86,-99.22 181.56,-84.59 178.21,-75.58"/>
<polygon fill="midnightblue" stroke="midnightblue" points="201.52,-159.43 207.58,-168.12 208.26,-157.55 201.52,-159.43"/>
</g>
<!-- Node6 -->
<g id="node6" class="node">
<title>Node6</title>
<g id="a_node6"><a xlink:href="classGlgGui.html" target="_top" xlink:title=" ">
<polygon fill="white" stroke="black" points="238,-112.5 238,-131.5 288,-131.5 288,-112.5 238,-112.5"/>
<text text-anchor="middle" x="263" y="-119.5" font-family="Helvetica,sans-Serif" font-size="10.00">GlgGui</text>
</a>
</g>
</g>
<!-- Node1&#45;&gt;Node6 -->
<g id="edge6" class="edge">
<title>Node1&#45;&gt;Node6</title>
<path fill="none" stroke="midnightblue" d="M225.98,-160.72C235.32,-151.2 246.75,-139.56 254.41,-131.75"/>
<polygon fill="midnightblue" stroke="midnightblue" points="223.26,-158.49 218.75,-168.08 228.25,-163.4 223.26,-158.49"/>
</g>
<!-- Node7 -->
<g id="node7" class="node">
<title>Node7</title>
<g id="a_node7"><a xlink:href="classModbusSlaveThread.html" target="_top" xlink:title=" ">
<polygon fill="white" stroke="black" points="306,-112.5 306,-131.5 422,-131.5 422,-112.5 306,-112.5"/>
<text text-anchor="middle" x="364" y="-119.5" font-family="Helvetica,sans-Serif" font-size="10.00">ModbusSlaveThread</text>
</a>
</g>
</g>
<!-- Node1&#45;&gt;Node7 -->
<g id="edge7" class="edge">
<title>Node1&#45;&gt;Node7</title>
<path fill="none" stroke="midnightblue" d="M244.11,-165.04C273.09,-154.88 313.96,-140.55 339.71,-131.52"/>
<polygon fill="midnightblue" stroke="midnightblue" points="242.68,-161.83 234.4,-168.44 245,-168.44 242.68,-161.83"/>
</g>
<!-- Node3&#45;&gt;Node4 -->
<g id="edge3" class="edge">
<title>Node3&#45;&gt;Node4</title>
<path fill="none" stroke="midnightblue" d="M151.3,-103.57C157.32,-94.27 164.47,-83.25 169.33,-75.75"/>
<polygon fill="midnightblue" stroke="midnightblue" points="148.28,-101.79 145.78,-112.08 154.16,-105.6 148.28,-101.79"/>
</g>
<!-- Node5 -->
<g id="node5" class="node">
<title>Node5</title>
<g id="a_node5"><a xlink:href="classControllino.html" target="_top" xlink:title=" ">
<polygon fill="white" stroke="black" points="140,-0.5 140,-19.5 210,-19.5 210,-0.5 140,-0.5"/>
<text text-anchor="middle" x="175" y="-7.5" font-family="Helvetica,sans-Serif" font-size="10.00">Controllino</text>
</a>
</g>
</g>
<!-- Node4&#45;&gt;Node5 -->
<g id="edge4" class="edge">
<title>Node4&#45;&gt;Node5</title>
<path fill="none" stroke="midnightblue" d="M175,-45.8C175,-36.91 175,-26.78 175,-19.75"/>
<polygon fill="midnightblue" stroke="midnightblue" points="171.5,-46.08 175,-56.08 178.5,-46.08 171.5,-46.08"/>
</g>
</g>
</svg>
