<?xml version="1.0" encoding="UTF-8" standalone="no"?>
<!DOCTYPE svg PUBLIC "-//W3C//DTD SVG 1.1//EN"
 "http://www.w3.org/Graphics/SVG/1.1/DTD/svg11.dtd">
<!-- Generated by graphviz version 2.50.0 (0)
 -->
<!-- Title: Device Pages: 1 -->
<svg width="430pt" height="332pt"
 viewBox="0.00 0.00 430.00 332.00" xmlns="http://www.w3.org/2000/svg" xmlns:xlink="http://www.w3.org/1999/xlink">
<g id="graph0" class="graph" transform="scale(1 1) rotate(0) translate(4 328)">
<title>Device</title>
<!-- Node1 -->
<g id="node1" class="node">
<title>Node1</title>
<g id="a_node1"><a xlink:title=" ">
<polygon fill="#bfbfbf" stroke="black" points="223,-152.5 223,-171.5 273,-171.5 273,-152.5 223,-152.5"/>
<text text-anchor="middle" x="248" y="-159.5" font-family="Helvetica,sans-Serif" font-size="10.00">Device</text>
</a>
</g>
</g>
<!-- Node5 -->
<g id="node5" class="node">
<title>Node5</title>
<g id="a_node5"><a xlink:href="classControllino.html" target="_top" xlink:title=" ">
<polygon fill="none" stroke="black" points="330.5,-304.5 330.5,-323.5 400.5,-323.5 400.5,-304.5 330.5,-304.5"/>
<text text-anchor="middle" x="365.5" y="-311.5" font-family="Helvetica,sans-Serif" font-size="10.00">Controllino</text>
</a>
</g>
</g>
<!-- Node1&#45;&gt;Node5 -->
<g id="edge5" class="edge">
<title>Node1&#45;&gt;Node5</title>
<path fill="none" stroke="midnightblue" d="M252.7,-181.62C259.14,-210.44 275.1,-264.14 309,-295 315.03,-300.48 322.7,-304.4 330.42,-307.18"/>
<polygon fill="midnightblue" stroke="midnightblue" points="256.08,-180.65 250.62,-171.57 249.22,-182.07 256.08,-180.65"/>
</g>
<!-- Node6 -->
<g id="node6" class="node">
<title>Node6</title>
<g id="a_node6"><a xlink:href="classIonicAgilentDual.html" target="_top" xlink:title=" ">
<polygon fill="none" stroke="black" points="317,-266.5 317,-285.5 414,-285.5 414,-266.5 317,-266.5"/>
<text text-anchor="middle" x="365.5" y="-273.5" font-family="Helvetica,sans-Serif" font-size="10.00">IonicAgilentDual</text>
</a>
</g>
</g>
<!-- Node1&#45;&gt;Node6 -->
<g id="edge6" class="edge">
<title>Node1&#45;&gt;Node6</title>
<path fill="none" stroke="midnightblue" d="M256.35,-180.92C265.57,-202.29 283.35,-236.73 309,-257 313.87,-260.85 319.58,-263.95 325.44,-266.43"/>
<polygon fill="midnightblue" stroke="midnightblue" points="259.55,-179.51 252.51,-171.59 253.08,-182.17 259.55,-179.51"/>
</g>
<!-- Node7 -->
<g id="node7" class="node">
<title>Node7</title>
<g id="a_node7"><a xlink:href="classMaxiGauge.html" target="_top" xlink:title=" ">
<polygon fill="none" stroke="black" points="329.5,-228.5 329.5,-247.5 401.5,-247.5 401.5,-228.5 329.5,-228.5"/>
<text text-anchor="middle" x="365.5" y="-235.5" font-family="Helvetica,sans-Serif" font-size="10.00">MaxiGauge</text>
</a>
</g>
</g>
<!-- Node1&#45;&gt;Node7 -->
<g id="edge7" class="edge">
<title>Node1&#45;&gt;Node7</title>
<path fill="none" stroke="midnightblue" d="M263.54,-179.36C274.83,-191.88 291.46,-208.37 309,-219 315.27,-222.8 322.41,-225.97 329.42,-228.55"/>
<polygon fill="midnightblue" stroke="midnightblue" points="266.16,-177.04 256.94,-171.81 260.89,-181.64 266.16,-177.04"/>
</g>
<!-- Node8 -->
<g id="node8" class="node">
<title>Node8</title>
<g id="a_node8"><a xlink:href="classRgaPfeifferQms200.html" target="_top" xlink:title=" ">
<polygon fill="none" stroke="black" points="310,-190.5 310,-209.5 421,-209.5 421,-190.5 310,-190.5"/>
<text text-anchor="middle" x="365.5" y="-197.5" font-family="Helvetica,sans-Serif" font-size="10.00">RgaPfeifferQms200</text>
</a>
</g>
</g>
<!-- Node1&#45;&gt;Node8 -->
<g id="edge8" class="edge">
<title>Node1&#45;&gt;Node8</title>
<path fill="none" stroke="midnightblue" d="M283.09,-173.22C299.72,-178.69 319.51,-185.2 335.41,-190.43"/>
<polygon fill="midnightblue" stroke="midnightblue" points="283.81,-169.77 273.21,-169.97 281.62,-176.42 283.81,-169.77"/>
</g>
<!-- Node9 -->
<g id="node9" class="node">
<title>Node9</title>
<g id="a_node9"><a xlink:href="classTitaneVarianTSP__22.html" target="_top" xlink:title=" ">
<polygon fill="none" stroke="black" points="309,-152.5 309,-171.5 422,-171.5 422,-152.5 309,-152.5"/>
<text text-anchor="middle" x="365.5" y="-159.5" font-family="Helvetica,sans-Serif" font-size="10.00">TitaneVarianTSP_22</text>
</a>
</g>
</g>
<!-- Node1&#45;&gt;Node9 -->
<g id="edge9" class="edge">
<title>Node1&#45;&gt;Node9</title>
<path fill="none" stroke="midnightblue" d="M283.32,-162C291.39,-162 300.18,-162 308.92,-162"/>
<polygon fill="midnightblue" stroke="midnightblue" points="283.21,-158.5 273.21,-162 283.21,-165.5 283.21,-158.5"/>
</g>
<!-- Node10 -->
<g id="node10" class="node">
<title>Node10</title>
<g id="a_node10"><a xlink:href="classTitaneVarianTSP__32.html" target="_top" xlink:title=" ">
<polygon fill="none" stroke="black" points="309,-114.5 309,-133.5 422,-133.5 422,-114.5 309,-114.5"/>
<text text-anchor="middle" x="365.5" y="-121.5" font-family="Helvetica,sans-Serif" font-size="10.00">TitaneVarianTSP_32</text>
</a>
</g>
</g>
<!-- Node1&#45;&gt;Node10 -->
<g id="edge10" class="edge">
<title>Node1&#45;&gt;Node10</title>
<path fill="none" stroke="midnightblue" d="M283.09,-150.78C299.72,-145.31 319.51,-138.8 335.41,-133.57"/>
<polygon fill="midnightblue" stroke="midnightblue" points="281.62,-147.58 273.21,-154.03 283.81,-154.23 281.62,-147.58"/>
</g>
<!-- Node11 -->
<g id="node11" class="node">
<title>Node11</title>
<g id="a_node11"><a xlink:href="classTurboPfeifferDCU.html" target="_top" xlink:title=" ">
<polygon fill="none" stroke="black" points="315.5,-76.5 315.5,-95.5 415.5,-95.5 415.5,-76.5 315.5,-76.5"/>
<text text-anchor="middle" x="365.5" y="-83.5" font-family="Helvetica,sans-Serif" font-size="10.00">TurboPfeifferDCU</text>
</a>
</g>
</g>
<!-- Node1&#45;&gt;Node11 -->
<g id="edge11" class="edge">
<title>Node1&#45;&gt;Node11</title>
<path fill="none" stroke="midnightblue" d="M263.54,-144.64C274.83,-132.12 291.46,-115.63 309,-105 315.18,-101.25 322.21,-98.12 329.13,-95.56"/>
<polygon fill="midnightblue" stroke="midnightblue" points="260.89,-142.36 256.94,-152.19 266.16,-146.96 260.89,-142.36"/>
</g>
<!-- Node12 -->
<g id="node12" class="node">
<title>Node12</title>
<g id="a_node12"><a xlink:href="classTurboVarianV81AG.html" target="_top" xlink:title=" ">
<polygon fill="none" stroke="black" points="312,-38.5 312,-57.5 419,-57.5 419,-38.5 312,-38.5"/>
<text text-anchor="middle" x="365.5" y="-45.5" font-family="Helvetica,sans-Serif" font-size="10.00">TurboVarianV81AG</text>
</a>
</g>
</g>
<!-- Node1&#45;&gt;Node12 -->
<g id="edge12" class="edge">
<title>Node1&#45;&gt;Node12</title>
<path fill="none" stroke="midnightblue" d="M256.35,-143.08C265.57,-121.71 283.35,-87.27 309,-67 313.87,-63.15 319.58,-60.05 325.44,-57.57"/>
<polygon fill="midnightblue" stroke="midnightblue" points="253.08,-141.83 252.51,-152.41 259.55,-144.49 253.08,-141.83"/>
</g>
<!-- Node13 -->
<g id="node13" class="node">
<title>Node13</title>
<g id="a_node13"><a xlink:href="classXGSGauge.html" target="_top" xlink:title=" ">
<polygon fill="none" stroke="black" points="331.5,-0.5 331.5,-19.5 399.5,-19.5 399.5,-0.5 331.5,-0.5"/>
<text text-anchor="middle" x="365.5" y="-7.5" font-family="Helvetica,sans-Serif" font-size="10.00">XGSGauge</text>
</a>
</g>
</g>
<!-- Node1&#45;&gt;Node13 -->
<g id="edge13" class="edge">
<title>Node1&#45;&gt;Node13</title>
<path fill="none" stroke="midnightblue" d="M252.7,-142.38C259.14,-113.56 275.1,-59.86 309,-29 315.25,-23.31 323.28,-19.31 331.28,-16.51"/>
<polygon fill="midnightblue" stroke="midnightblue" points="249.22,-141.93 250.62,-152.43 256.08,-143.35 249.22,-141.93"/>
</g>
<!-- Node2 -->
<g id="node2" class="node">
<title>Node2</title>
<g id="a_node2"><a xlink:href="classDataManager.html" target="_top" xlink:title=" ">
<polygon fill="none" stroke="black" points="104,-152.5 104,-171.5 187,-171.5 187,-152.5 104,-152.5"/>
<text text-anchor="middle" x="145.5" y="-159.5" font-family="Helvetica,sans-Serif" font-size="10.00">DataManager</text>
</a>
</g>
</g>
<!-- Node2&#45;&gt;Node1 -->
<g id="edge1" class="edge">
<title>Node2&#45;&gt;Node1</title>
<path fill="none" stroke="midnightblue" d="M197.12,-162C206.06,-162 214.98,-162 222.75,-162"/>
<polygon fill="midnightblue" stroke="midnightblue" points="197.09,-158.5 187.09,-162 197.09,-165.5 197.09,-158.5"/>
</g>
<!-- Node3 -->
<g id="node3" class="node">
<title>Node3</title>
<g id="a_node3"><a xlink:href="interfaceDataTypes.html" target="_top" xlink:title=" ">
<polygon fill="none" stroke="black" points="0,-171.5 0,-190.5 68,-190.5 68,-171.5 0,-171.5"/>
<text text-anchor="middle" x="34" y="-178.5" font-family="Helvetica,sans-Serif" font-size="10.00">DataTypes</text>
</a>
</g>
</g>
<!-- Node3&#45;&gt;Node1 -->
<g id="edge4" class="edge">
<title>Node3&#45;&gt;Node1</title>
<path fill="none" stroke="midnightblue" d="M78.45,-184.51C108.99,-186.12 150.72,-186.61 187,-181 199.09,-179.13 212.09,-175.26 222.88,-171.5"/>
<polygon fill="midnightblue" stroke="midnightblue" points="78.32,-180.99 68.13,-183.9 77.91,-187.98 78.32,-180.99"/>
</g>
<!-- Node3&#45;&gt;Node2 -->
<g id="edge2" class="edge">
<title>Node3&#45;&gt;Node2</title>
<path fill="none" stroke="midnightblue" d="M78.17,-173.51C86.59,-172.05 95.39,-170.52 103.72,-169.08"/>
<polygon fill="midnightblue" stroke="midnightblue" points="77.41,-170.09 68.15,-175.25 78.6,-176.99 77.41,-170.09"/>
</g>
<!-- Node4 -->
<g id="node4" class="node">
<title>Node4</title>
<g id="a_node4"><a xlink:title=" ">
<polygon fill="none" stroke="#bfbfbf" points="114.5,-114.5 114.5,-133.5 176.5,-133.5 176.5,-114.5 114.5,-114.5"/>
<text text-anchor="middle" x="145.5" y="-121.5" font-family="Helvetica,sans-Serif" font-size="10.00">Runnable</text>
</a>
</g>
</g>
<!-- Node4&#45;&gt;Node1 -->
<g id="edge3" class="edge">
<title>Node4&#45;&gt;Node1</title>
<path fill="none" stroke="midnightblue" d="M181.42,-137.2C195.03,-142.35 210.31,-148.13 222.69,-152.81"/>
<polygon fill="midnightblue" stroke="midnightblue" points="182.45,-133.85 171.86,-133.59 179.98,-140.4 182.45,-133.85"/>
</g>
</g>
</svg>
