<?xml version="1.0" encoding="UTF-8" standalone="no"?>
<!DOCTYPE svg PUBLIC "-//W3C//DTD SVG 1.1//EN"
 "http://www.w3.org/Graphics/SVG/1.1/DTD/svg11.dtd">
<!-- Generated by graphviz version 2.50.0 (0)
 -->
<!-- Title: GlgChildGui Pages: 1 -->
<svg width="365pt" height="370pt"
 viewBox="0.00 0.00 365.00 370.00" xmlns="http://www.w3.org/2000/svg" xmlns:xlink="http://www.w3.org/1999/xlink">
<g id="graph0" class="graph" transform="scale(1 1) rotate(0) translate(4 366)">
<title>GlgChildGui</title>
<!-- Node1 -->
<g id="node1" class="node">
<title>Node1</title>
<g id="a_node1"><a xlink:title=" ">
<polygon fill="#bfbfbf" stroke="black" points="110,-171.5 110,-190.5 184,-190.5 184,-171.5 110,-171.5"/>
<text text-anchor="middle" x="147" y="-178.5" font-family="Helvetica,sans-Serif" font-size="10.00">GlgChildGui</text>
</a>
</g>
</g>
<!-- Node5 -->
<g id="node5" class="node">
<title>Node5</title>
<g id="a_node5"><a xlink:href="classGlgDryGui.html" target="_top" xlink:title=" ">
<polygon fill="none" stroke="black" points="255,-342.5 255,-361.5 322,-361.5 322,-342.5 255,-342.5"/>
<text text-anchor="middle" x="288.5" y="-349.5" font-family="Helvetica,sans-Serif" font-size="10.00">GlgDryGui</text>
</a>
</g>
</g>
<!-- Node1&#45;&gt;Node5 -->
<g id="edge4" class="edge">
<title>Node1&#45;&gt;Node5</title>
<path fill="none" stroke="midnightblue" d="M151.79,-200.52C159.1,-232.93 178.3,-297.77 220,-333 229.77,-341.25 242.88,-345.93 254.94,-348.58"/>
<polygon fill="midnightblue" stroke="midnightblue" points="155.16,-199.57 149.68,-190.51 148.31,-201.01 155.16,-199.57"/>
</g>
<!-- Node6 -->
<g id="node6" class="node">
<title>Node6</title>
<g id="a_node6"><a xlink:href="classGlgGaugeGui.html" target="_top" xlink:title=" ">
<polygon fill="none" stroke="black" points="248,-304.5 248,-323.5 329,-323.5 329,-304.5 248,-304.5"/>
<text text-anchor="middle" x="288.5" y="-311.5" font-family="Helvetica,sans-Serif" font-size="10.00">GlgGaugeGui</text>
</a>
</g>
</g>
<!-- Node1&#45;&gt;Node6 -->
<g id="edge5" class="edge">
<title>Node1&#45;&gt;Node6</title>
<path fill="none" stroke="midnightblue" d="M155.05,-200.28C165.36,-225.78 187,-270.38 220,-295 228.1,-301.04 238.04,-305.16 247.78,-307.97"/>
<polygon fill="midnightblue" stroke="midnightblue" points="158.19,-198.7 151.32,-190.63 151.66,-201.22 158.19,-198.7"/>
</g>
<!-- Node7 -->
<g id="node7" class="node">
<title>Node7</title>
<g id="a_node7"><a xlink:href="classGlgIonicGui.html" target="_top" xlink:title=" ">
<polygon fill="none" stroke="black" points="252,-266.5 252,-285.5 325,-285.5 325,-266.5 252,-266.5"/>
<text text-anchor="middle" x="288.5" y="-273.5" font-family="Helvetica,sans-Serif" font-size="10.00">GlgIonicGui</text>
</a>
</g>
</g>
<!-- Node1&#45;&gt;Node7 -->
<g id="edge6" class="edge">
<title>Node1&#45;&gt;Node7</title>
<path fill="none" stroke="midnightblue" d="M160.46,-198.95C173.41,-216.28 195.23,-242.04 220,-257 229.59,-262.79 241,-266.87 251.69,-269.73"/>
<polygon fill="midnightblue" stroke="midnightblue" points="163.23,-196.8 154.53,-190.76 157.56,-200.91 163.23,-196.8"/>
</g>
<!-- Node8 -->
<g id="node8" class="node">
<title>Node8</title>
<g id="a_node8"><a xlink:href="classGlgRGAGui.html" target="_top" xlink:title=" ">
<polygon fill="none" stroke="black" points="253,-228.5 253,-247.5 324,-247.5 324,-228.5 253,-228.5"/>
<text text-anchor="middle" x="288.5" y="-235.5" font-family="Helvetica,sans-Serif" font-size="10.00">GlgRGAGui</text>
</a>
</g>
</g>
<!-- Node1&#45;&gt;Node8 -->
<g id="edge7" class="edge">
<title>Node1&#45;&gt;Node8</title>
<path fill="none" stroke="midnightblue" d="M172.6,-195.65C186.24,-203.33 203.68,-212.48 220,-219 230.4,-223.15 242.04,-226.78 252.69,-229.71"/>
<polygon fill="midnightblue" stroke="midnightblue" points="174.25,-192.56 163.83,-190.61 170.76,-198.63 174.25,-192.56"/>
</g>
<!-- Node9 -->
<g id="node9" class="node">
<title>Node9</title>
<g id="a_node9"><a xlink:href="classGlgTitane__22Gui.html" target="_top" xlink:title=" ">
<polygon fill="none" stroke="black" points="239.5,-190.5 239.5,-209.5 337.5,-209.5 337.5,-190.5 239.5,-190.5"/>
<text text-anchor="middle" x="288.5" y="-197.5" font-family="Helvetica,sans-Serif" font-size="10.00">GlgTitane_22Gui</text>
</a>
</g>
</g>
<!-- Node1&#45;&gt;Node9 -->
<g id="edge8" class="edge">
<title>Node1&#45;&gt;Node9</title>
<path fill="none" stroke="midnightblue" d="M194.47,-187.33C208.88,-189.29 224.79,-191.46 239.31,-193.44"/>
<polygon fill="midnightblue" stroke="midnightblue" points="194.67,-183.82 184.29,-185.94 193.72,-190.76 194.67,-183.82"/>
</g>
<!-- Node10 -->
<g id="node10" class="node">
<title>Node10</title>
<g id="a_node10"><a xlink:href="classGlgTitane__32Gui.html" target="_top" xlink:title=" ">
<polygon fill="none" stroke="black" points="239.5,-152.5 239.5,-171.5 337.5,-171.5 337.5,-152.5 239.5,-152.5"/>
<text text-anchor="middle" x="288.5" y="-159.5" font-family="Helvetica,sans-Serif" font-size="10.00">GlgTitane_32Gui</text>
</a>
</g>
</g>
<!-- Node1&#45;&gt;Node10 -->
<g id="edge9" class="edge">
<title>Node1&#45;&gt;Node10</title>
<path fill="none" stroke="midnightblue" d="M194.47,-174.67C208.88,-172.71 224.79,-170.54 239.31,-168.56"/>
<polygon fill="midnightblue" stroke="midnightblue" points="193.72,-171.24 184.29,-176.06 194.67,-178.18 193.72,-171.24"/>
</g>
<!-- Node11 -->
<g id="node11" class="node">
<title>Node11</title>
<g id="a_node11"><a xlink:href="classGlgTubeStatusDetailsGui.html" target="_top" xlink:title=" ">
<polygon fill="none" stroke="black" points="220,-114.5 220,-133.5 357,-133.5 357,-114.5 220,-114.5"/>
<text text-anchor="middle" x="288.5" y="-121.5" font-family="Helvetica,sans-Serif" font-size="10.00">GlgTubeStatusDetailsGui</text>
</a>
</g>
</g>
<!-- Node1&#45;&gt;Node11 -->
<g id="edge10" class="edge">
<title>Node1&#45;&gt;Node11</title>
<path fill="none" stroke="midnightblue" d="M172.6,-166.35C186.24,-158.67 203.68,-149.52 220,-143 228.93,-139.43 238.78,-136.26 248.13,-133.57"/>
<polygon fill="midnightblue" stroke="midnightblue" points="170.76,-163.37 163.83,-171.39 174.25,-169.44 170.76,-163.37"/>
</g>
<!-- Node12 -->
<g id="node12" class="node">
<title>Node12</title>
<g id="a_node12"><a xlink:href="classGlgTurboGui.html" target="_top" xlink:title=" ">
<polygon fill="none" stroke="black" points="250.5,-76.5 250.5,-95.5 326.5,-95.5 326.5,-76.5 250.5,-76.5"/>
<text text-anchor="middle" x="288.5" y="-83.5" font-family="Helvetica,sans-Serif" font-size="10.00">GlgTurboGui</text>
</a>
</g>
</g>
<!-- Node1&#45;&gt;Node12 -->
<g id="edge11" class="edge">
<title>Node1&#45;&gt;Node12</title>
<path fill="none" stroke="midnightblue" d="M160.46,-163.05C173.41,-145.72 195.23,-119.96 220,-105 229.17,-99.46 240.01,-95.48 250.29,-92.65"/>
<polygon fill="midnightblue" stroke="midnightblue" points="157.56,-161.09 154.53,-171.24 163.23,-165.2 157.56,-161.09"/>
</g>
<!-- Node13 -->
<g id="node13" class="node">
<title>Node13</title>
<g id="a_node13"><a xlink:href="classGlgValveGui.html" target="_top" xlink:title=" ">
<polygon fill="none" stroke="black" points="250,-38.5 250,-57.5 327,-57.5 327,-38.5 250,-38.5"/>
<text text-anchor="middle" x="288.5" y="-45.5" font-family="Helvetica,sans-Serif" font-size="10.00">GlgValveGui</text>
</a>
</g>
</g>
<!-- Node1&#45;&gt;Node13 -->
<g id="edge12" class="edge">
<title>Node1&#45;&gt;Node13</title>
<path fill="none" stroke="midnightblue" d="M155.05,-161.72C165.36,-136.22 187,-91.62 220,-67 228.68,-60.52 239.49,-56.25 249.89,-53.44"/>
<polygon fill="midnightblue" stroke="midnightblue" points="151.66,-160.78 151.32,-171.37 158.19,-163.3 151.66,-160.78"/>
</g>
<!-- Node14 -->
<g id="node14" class="node">
<title>Node14</title>
<g id="a_node14"><a xlink:href="classGlgXGSGaugeGui.html" target="_top" xlink:title=" ">
<polygon fill="none" stroke="black" points="238,-0.5 238,-19.5 339,-19.5 339,-0.5 238,-0.5"/>
<text text-anchor="middle" x="288.5" y="-7.5" font-family="Helvetica,sans-Serif" font-size="10.00">GlgXGSGaugeGui</text>
</a>
</g>
</g>
<!-- Node1&#45;&gt;Node14 -->
<g id="edge13" class="edge">
<title>Node1&#45;&gt;Node14</title>
<path fill="none" stroke="midnightblue" d="M151.79,-161.48C159.1,-129.07 178.3,-64.23 220,-29 225.21,-24.6 231.37,-21.22 237.81,-18.61"/>
<polygon fill="midnightblue" stroke="midnightblue" points="148.31,-160.99 149.68,-171.49 155.16,-162.43 148.31,-160.99"/>
</g>
<!-- Node2 -->
<g id="node2" class="node">
<title>Node2</title>
<g id="a_node2"><a xlink:title=" ">
<polygon fill="none" stroke="#bfbfbf" points="12,-209.5 12,-228.5 62,-228.5 62,-209.5 12,-209.5"/>
<text text-anchor="middle" x="37" y="-216.5" font-family="Helvetica,sans-Serif" font-size="10.00">JFrame</text>
</a>
</g>
</g>
<!-- Node2&#45;&gt;Node1 -->
<g id="edge1" class="edge">
<title>Node2&#45;&gt;Node1</title>
<path fill="none" stroke="midnightblue" d="M71.77,-207.12C86.91,-201.79 104.53,-195.59 118.8,-190.57"/>
<polygon fill="midnightblue" stroke="midnightblue" points="70.51,-203.85 62.24,-210.47 72.83,-210.45 70.51,-203.85"/>
</g>
<!-- Node3 -->
<g id="node3" class="node">
<title>Node3</title>
<g id="a_node3"><a xlink:href="interfaceChannelList.html" target="_top" xlink:title=" ">
<polygon fill="none" stroke="black" points="0,-171.5 0,-190.5 74,-190.5 74,-171.5 0,-171.5"/>
<text text-anchor="middle" x="37" y="-178.5" font-family="Helvetica,sans-Serif" font-size="10.00">ChannelList</text>
</a>
</g>
</g>
<!-- Node3&#45;&gt;Node1 -->
<g id="edge2" class="edge">
<title>Node3&#45;&gt;Node1</title>
<path fill="none" stroke="midnightblue" d="M84.39,-181C92.84,-181 101.54,-181 109.65,-181"/>
<polygon fill="midnightblue" stroke="midnightblue" points="84.26,-177.5 74.26,-181 84.26,-184.5 84.26,-177.5"/>
</g>
<!-- Node4 -->
<g id="node4" class="node">
<title>Node4</title>
<g id="a_node4"><a xlink:title=" ">
<polygon fill="none" stroke="#bfbfbf" points="6,-133.5 6,-152.5 68,-152.5 68,-133.5 6,-133.5"/>
<text text-anchor="middle" x="37" y="-140.5" font-family="Helvetica,sans-Serif" font-size="10.00">Runnable</text>
</a>
</g>
</g>
<!-- Node4&#45;&gt;Node1 -->
<g id="edge3" class="edge">
<title>Node4&#45;&gt;Node1</title>
<path fill="none" stroke="midnightblue" d="M74.87,-155.97C89.26,-161.03 105.45,-166.73 118.76,-171.41"/>
<polygon fill="midnightblue" stroke="midnightblue" points="75.85,-152.61 65.25,-152.59 73.52,-159.21 75.85,-152.61"/>
</g>
</g>
</svg>
