<?xml version="1.0" encoding="UTF-8" standalone="no"?>
<!DOCTYPE svg PUBLIC "-//W3C//DTD SVG 1.1//EN"
 "http://www.w3.org/Graphics/SVG/1.1/DTD/svg11.dtd">
<!-- Generated by graphviz version 2.50.0 (0)
 -->
<!-- Title: TitaneVarianTSP_22 Pages: 1 -->
<svg width="255pt" height="196pt"
 viewBox="0.00 0.00 254.50 196.00" xmlns="http://www.w3.org/2000/svg" xmlns:xlink="http://www.w3.org/1999/xlink">
<g id="graph0" class="graph" transform="scale(1 1) rotate(0) translate(4 192)">
<title>TitaneVarianTSP_22</title>
<!-- Node1 -->
<g id="node1" class="node">
<title>Node1</title>
<g id="a_node1"><a xlink:title=" ">
<polygon fill="#bfbfbf" stroke="black" points="0,-0.5 0,-19.5 113,-19.5 113,-0.5 0,-0.5"/>
<text text-anchor="middle" x="56.5" y="-7.5" font-family="Helvetica,sans-Serif" font-size="10.00">TitaneVarianTSP_22</text>
</a>
</g>
</g>
<!-- Node2 -->
<g id="node2" class="node">
<title>Node2</title>
<g id="a_node2"><a xlink:href="classDevice.html" target="_top" xlink:title=" ">
<polygon fill="none" stroke="black" points="71.5,-56.5 71.5,-75.5 121.5,-75.5 121.5,-56.5 71.5,-56.5"/>
<text text-anchor="middle" x="96.5" y="-63.5" font-family="Helvetica,sans-Serif" font-size="10.00">Device</text>
</a>
</g>
</g>
<!-- Node2&#45;&gt;Node1 -->
<g id="edge1" class="edge">
<title>Node2&#45;&gt;Node1</title>
<path fill="none" stroke="midnightblue" d="M83.8,-47.86C76.87,-38.5 68.59,-27.33 62.98,-19.75"/>
<polygon fill="midnightblue" stroke="midnightblue" points="81.13,-50.13 89.89,-56.08 86.75,-45.96 81.13,-50.13"/>
</g>
<!-- Node3 -->
<g id="node3" class="node">
<title>Node3</title>
<g id="a_node3"><a xlink:href="classDataManager.html" target="_top" xlink:title=" ">
<polygon fill="none" stroke="black" points="83,-112.5 83,-131.5 166,-131.5 166,-112.5 83,-112.5"/>
<text text-anchor="middle" x="124.5" y="-119.5" font-family="Helvetica,sans-Serif" font-size="10.00">DataManager</text>
</a>
</g>
</g>
<!-- Node3&#45;&gt;Node2 -->
<g id="edge2" class="edge">
<title>Node3&#45;&gt;Node2</title>
<path fill="none" stroke="midnightblue" d="M115.16,-102.98C110.41,-93.82 104.84,-83.09 101.04,-75.75"/>
<polygon fill="midnightblue" stroke="midnightblue" points="112.17,-104.82 119.88,-112.08 118.38,-101.59 112.17,-104.82"/>
</g>
<!-- Node4 -->
<g id="node4" class="node">
<title>Node4</title>
<g id="a_node4"><a xlink:href="interfaceDataTypes.html" target="_top" xlink:title=" ">
<polygon fill="none" stroke="black" points="20.5,-168.5 20.5,-187.5 88.5,-187.5 88.5,-168.5 20.5,-168.5"/>
<text text-anchor="middle" x="54.5" y="-175.5" font-family="Helvetica,sans-Serif" font-size="10.00">DataTypes</text>
</a>
</g>
</g>
<!-- Node4&#45;&gt;Node1 -->
<g id="edge6" class="edge">
<title>Node4&#45;&gt;Node1</title>
<path fill="none" stroke="midnightblue" d="M54.73,-157.93C55.16,-121.92 56.09,-45.23 56.4,-19.57"/>
<polygon fill="midnightblue" stroke="midnightblue" points="51.23,-158.03 54.61,-168.08 58.23,-158.12 51.23,-158.03"/>
</g>
<!-- Node4&#45;&gt;Node2 -->
<g id="edge5" class="edge">
<title>Node4&#45;&gt;Node2</title>
<path fill="none" stroke="midnightblue" d="M58.88,-158.65C62.26,-145.46 67.39,-127.36 73.5,-112 78.69,-98.96 86.37,-84.64 91.41,-75.74"/>
<polygon fill="midnightblue" stroke="midnightblue" points="55.47,-157.87 56.46,-168.41 62.26,-159.55 55.47,-157.87"/>
</g>
<!-- Node4&#45;&gt;Node3 -->
<g id="edge3" class="edge">
<title>Node4&#45;&gt;Node3</title>
<path fill="none" stroke="midnightblue" d="M73.81,-162.1C86.41,-152.38 102.43,-140.03 113.05,-131.83"/>
<polygon fill="midnightblue" stroke="midnightblue" points="71.53,-159.44 65.75,-168.32 75.8,-164.99 71.53,-159.44"/>
</g>
<!-- Node5 -->
<g id="node5" class="node">
<title>Node5</title>
<g id="a_node5"><a xlink:title=" ">
<polygon fill="none" stroke="#bfbfbf" points="184.5,-112.5 184.5,-131.5 246.5,-131.5 246.5,-112.5 184.5,-112.5"/>
<text text-anchor="middle" x="215.5" y="-119.5" font-family="Helvetica,sans-Serif" font-size="10.00">Runnable</text>
</a>
</g>
</g>
<!-- Node5&#45;&gt;Node2 -->
<g id="edge4" class="edge">
<title>Node5&#45;&gt;Node2</title>
<path fill="none" stroke="midnightblue" d="M187.36,-108.23C165.1,-98.13 134.64,-84.31 115.27,-75.52"/>
<polygon fill="midnightblue" stroke="midnightblue" points="186.09,-111.5 196.64,-112.44 188.98,-105.12 186.09,-111.5"/>
</g>
</g>
</svg>
