<?xml version="1.0" encoding="UTF-8" standalone="no"?>
<!DOCTYPE svg PUBLIC "-//W3C//DTD SVG 1.1//EN"
 "http://www.w3.org/Graphics/SVG/1.1/DTD/svg11.dtd">
<!-- Generated by graphviz version 2.50.0 (0)
 -->
<!-- Title: Graphical Class Hierarchy Pages: 1 -->
<svg width="309pt" height="382pt"
 viewBox="0.00 0.00 309.00 382.00" xmlns="http://www.w3.org/2000/svg" xmlns:xlink="http://www.w3.org/1999/xlink">
<g id="graph0" class="graph" transform="scale(1 1) rotate(0) translate(4 378)">
<title>Graphical Class Hierarchy</title>
<polygon fill="white" stroke="transparent" points="-4,4 -4,-378 305,-378 305,4 -4,4"/>
<!-- Node32 -->
<g id="node1" class="node">
<title>Node32</title>
<g id="a_node1"><a xlink:title=" ">
<polygon fill="white" stroke="#bfbfbf" points="0,-183.5 0,-202.5 97,-202.5 97,-183.5 0,-183.5"/>
<text text-anchor="middle" x="48.5" y="-190.5" font-family="Helvetica,sans-Serif" font-size="10.00">GlgInputListener</text>
</a>
</g>
</g>
<!-- Node0 -->
<g id="node2" class="node">
<title>Node0</title>
<g id="a_node2"><a xlink:href="classGlgDryGui_1_1InputListener.html" target="_top" xlink:title=" ">
<polygon fill="white" stroke="black" points="150,-354.5 150,-373.5 284,-373.5 284,-354.5 150,-354.5"/>
<text text-anchor="middle" x="217" y="-361.5" font-family="Helvetica,sans-Serif" font-size="10.00">GlgDryGui.InputListener</text>
</a>
</g>
</g>
<!-- Node32&#45;&gt;Node0 -->
<g id="edge1" class="edge">
<title>Node32&#45;&gt;Node0</title>
<path fill="none" stroke="midnightblue" d="M54.52,-212.37C64.03,-245.06 87.88,-310.93 133,-345 138.07,-348.83 143.78,-351.91 149.77,-354.38"/>
<polygon fill="midnightblue" stroke="midnightblue" points="57.87,-211.36 51.83,-202.65 51.12,-213.23 57.87,-211.36"/>
</g>
<!-- Node34 -->
<g id="node3" class="node">
<title>Node34</title>
<g id="a_node3"><a xlink:href="classGlgGaugeGui_1_1InputListener.html" target="_top" xlink:title=" ">
<polygon fill="white" stroke="black" points="143,-316.5 143,-335.5 291,-335.5 291,-316.5 143,-316.5"/>
<text text-anchor="middle" x="217" y="-323.5" font-family="Helvetica,sans-Serif" font-size="10.00">GlgGaugeGui.InputListener</text>
</a>
</g>
</g>
<!-- Node32&#45;&gt;Node34 -->
<g id="edge2" class="edge">
<title>Node32&#45;&gt;Node34</title>
<path fill="none" stroke="midnightblue" d="M57.99,-211.86C70.56,-237.55 96.63,-283.08 133,-307 138.93,-310.9 145.55,-314 152.4,-316.48"/>
<polygon fill="midnightblue" stroke="midnightblue" points="61.13,-210.32 53.7,-202.77 54.8,-213.31 61.13,-210.32"/>
</g>
<!-- Node35 -->
<g id="node4" class="node">
<title>Node35</title>
<g id="a_node4"><a xlink:href="classGlgIonicGui_1_1InputListener.html" target="_top" xlink:title=" ">
<polygon fill="white" stroke="black" points="147,-278.5 147,-297.5 287,-297.5 287,-278.5 147,-278.5"/>
<text text-anchor="middle" x="217" y="-285.5" font-family="Helvetica,sans-Serif" font-size="10.00">GlgIonicGui.InputListener</text>
</a>
</g>
</g>
<!-- Node32&#45;&gt;Node35 -->
<g id="edge3" class="edge">
<title>Node32&#45;&gt;Node35</title>
<path fill="none" stroke="midnightblue" d="M63.75,-210.41C79.04,-227.9 104.93,-254.33 133,-269 140.47,-272.9 148.72,-276.01 157.05,-278.48"/>
<polygon fill="midnightblue" stroke="midnightblue" points="66.28,-207.98 57.13,-202.62 60.94,-212.51 66.28,-207.98"/>
</g>
<!-- Node36 -->
<g id="node5" class="node">
<title>Node36</title>
<g id="a_node5"><a xlink:href="classGlgRGAGui_1_1InputListener.html" target="_top" xlink:title=" ">
<polygon fill="white" stroke="black" points="148.5,-240.5 148.5,-259.5 285.5,-259.5 285.5,-240.5 148.5,-240.5"/>
<text text-anchor="middle" x="217" y="-247.5" font-family="Helvetica,sans-Serif" font-size="10.00">GlgRGAGui.InputListener</text>
</a>
</g>
</g>
<!-- Node32&#45;&gt;Node36 -->
<g id="edge4" class="edge">
<title>Node32&#45;&gt;Node36</title>
<path fill="none" stroke="midnightblue" d="M76.94,-207.19C92.97,-215.04 113.76,-224.49 133,-231 143.78,-234.65 155.59,-237.82 166.83,-240.47"/>
<polygon fill="midnightblue" stroke="midnightblue" points="78.15,-203.88 67.64,-202.55 75.02,-210.14 78.15,-203.88"/>
</g>
<!-- Node37 -->
<g id="node6" class="node">
<title>Node37</title>
<g id="a_node6"><a xlink:href="classGlgTitane__22Gui_1_1InputListener.html" target="_top" xlink:title=" ">
<polygon fill="white" stroke="black" points="135,-202.5 135,-221.5 299,-221.5 299,-202.5 135,-202.5"/>
<text text-anchor="middle" x="217" y="-209.5" font-family="Helvetica,sans-Serif" font-size="10.00">GlgTitane_22Gui.InputListener</text>
</a>
</g>
</g>
<!-- Node32&#45;&gt;Node37 -->
<g id="edge5" class="edge">
<title>Node32&#45;&gt;Node37</title>
<path fill="none" stroke="midnightblue" d="M107.44,-199.61C116.34,-200.63 125.66,-201.69 134.95,-202.75"/>
<polygon fill="midnightblue" stroke="midnightblue" points="107.54,-196.1 97.21,-198.44 106.75,-203.06 107.54,-196.1"/>
</g>
<!-- Node38 -->
<g id="node7" class="node">
<title>Node38</title>
<g id="a_node7"><a xlink:href="classGlgTitane__32Gui_1_1InputListener.html" target="_top" xlink:title=" ">
<polygon fill="white" stroke="black" points="135,-164.5 135,-183.5 299,-183.5 299,-164.5 135,-164.5"/>
<text text-anchor="middle" x="217" y="-171.5" font-family="Helvetica,sans-Serif" font-size="10.00">GlgTitane_32Gui.InputListener</text>
</a>
</g>
</g>
<!-- Node32&#45;&gt;Node38 -->
<g id="edge6" class="edge">
<title>Node32&#45;&gt;Node38</title>
<path fill="none" stroke="midnightblue" d="M107.44,-186.39C116.34,-185.37 125.66,-184.31 134.95,-183.25"/>
<polygon fill="midnightblue" stroke="midnightblue" points="106.75,-182.94 97.21,-187.56 107.54,-189.9 106.75,-182.94"/>
</g>
<!-- Node39 -->
<g id="node8" class="node">
<title>Node39</title>
<g id="a_node8"><a xlink:href="classGlgTubeStatusDetailsGui_1_1InputListener.html" target="_top" xlink:title=" ">
<polygon fill="white" stroke="black" points="147,-115 147,-145 287,-145 287,-115 147,-115"/>
<text text-anchor="start" x="155" y="-133" font-family="Helvetica,sans-Serif" font-size="10.00">GlgTubeStatusDetailsGui.</text>
<text text-anchor="middle" x="217" y="-122" font-family="Helvetica,sans-Serif" font-size="10.00">InputListener</text>
</a>
</g>
</g>
<!-- Node32&#45;&gt;Node39 -->
<g id="edge7" class="edge">
<title>Node32&#45;&gt;Node39</title>
<path fill="none" stroke="midnightblue" d="M78.06,-178.85C94.01,-171.24 114.36,-162.01 133,-155 142.3,-151.5 152.32,-148.15 162.07,-145.09"/>
<polygon fill="midnightblue" stroke="midnightblue" points="76.24,-175.84 68.76,-183.34 79.28,-182.14 76.24,-175.84"/>
</g>
<!-- Node40 -->
<g id="node9" class="node">
<title>Node40</title>
<g id="a_node9"><a xlink:href="classGlgTurboGui_1_1InputListener.html" target="_top" xlink:title=" ">
<polygon fill="white" stroke="black" points="145.5,-76.5 145.5,-95.5 288.5,-95.5 288.5,-76.5 145.5,-76.5"/>
<text text-anchor="middle" x="217" y="-83.5" font-family="Helvetica,sans-Serif" font-size="10.00">GlgTurboGui.InputListener</text>
</a>
</g>
</g>
<!-- Node32&#45;&gt;Node40 -->
<g id="edge8" class="edge">
<title>Node32&#45;&gt;Node40</title>
<path fill="none" stroke="midnightblue" d="M61.67,-175.21C76.27,-155.27 102.61,-123.45 133,-106 140.58,-101.65 149.08,-98.24 157.67,-95.57"/>
<polygon fill="midnightblue" stroke="midnightblue" points="58.76,-173.26 55.82,-183.44 64.46,-177.32 58.76,-173.26"/>
</g>
<!-- Node41 -->
<g id="node10" class="node">
<title>Node41</title>
<g id="a_node10"><a xlink:href="classGlgValveGui_1_1InputListener.html" target="_top" xlink:title=" ">
<polygon fill="white" stroke="black" points="145.5,-38.5 145.5,-57.5 288.5,-57.5 288.5,-38.5 145.5,-38.5"/>
<text text-anchor="middle" x="217" y="-45.5" font-family="Helvetica,sans-Serif" font-size="10.00">GlgValveGui.InputListener</text>
</a>
</g>
</g>
<!-- Node32&#45;&gt;Node41 -->
<g id="edge9" class="edge">
<title>Node32&#45;&gt;Node41</title>
<path fill="none" stroke="midnightblue" d="M56.76,-173.8C68.4,-145.76 93.96,-94.01 133,-67 138.59,-63.13 144.85,-60.04 151.36,-57.57"/>
<polygon fill="midnightblue" stroke="midnightblue" points="53.44,-172.7 52.99,-183.29 59.94,-175.29 53.44,-172.7"/>
</g>
<!-- Node42 -->
<g id="node11" class="node">
<title>Node42</title>
<g id="a_node11"><a xlink:href="classGlgXGSGaugeGui_1_1InputListener.html" target="_top" xlink:title=" ">
<polygon fill="white" stroke="black" points="133,-0.5 133,-19.5 301,-19.5 301,-0.5 133,-0.5"/>
<text text-anchor="middle" x="217" y="-7.5" font-family="Helvetica,sans-Serif" font-size="10.00">GlgXGSGaugeGui.InputListener</text>
</a>
</g>
</g>
<!-- Node32&#45;&gt;Node42 -->
<g id="edge10" class="edge">
<title>Node32&#45;&gt;Node42</title>
<path fill="none" stroke="midnightblue" d="M53.69,-173.58C62.23,-138.89 85.04,-66.41 133,-29 137.9,-25.18 143.42,-22.1 149.23,-19.63"/>
<polygon fill="midnightblue" stroke="midnightblue" points="50.26,-172.89 51.41,-183.42 57.08,-174.47 50.26,-172.89"/>
</g>
</g>
</svg>
