<?xml version="1.0" encoding="UTF-8" standalone="no"?>
<!DOCTYPE svg PUBLIC "-//W3C//DTD SVG 1.1//EN"
 "http://www.w3.org/Graphics/SVG/1.1/DTD/svg11.dtd">
<!-- Generated by graphviz version 2.50.0 (0)
 -->
<!-- Title: Graphical Class Hierarchy Pages: 1 -->
<svg width="556pt" height="522pt"
 viewBox="0.00 0.00 556.00 522.00" xmlns="http://www.w3.org/2000/svg" xmlns:xlink="http://www.w3.org/1999/xlink">
<g id="graph0" class="graph" transform="scale(1 1) rotate(0) translate(4 518)">
<title>Graphical Class Hierarchy</title>
<!-- Node0 -->
<g id="node1" class="node">
<title>Node0</title>
<g id="a_node1"><a xlink:href="interfaceChannelList.html" target="_top" xlink:title=" ">
<polygon fill="none" stroke="black" points="0,-340.5 0,-359.5 74,-359.5 74,-340.5 0,-340.5"/>
<text text-anchor="middle" x="37" y="-347.5" font-family="Helvetica,sans-Serif" font-size="10.00">ChannelList</text>
</a>
</g>
</g>
<!-- Node1 -->
<g id="node2" class="node">
<title>Node1</title>
<g id="a_node2"><a xlink:href="classGlgChildGui.html" target="_top" xlink:title=" ">
<polygon fill="none" stroke="black" points="131,-302.5 131,-321.5 205,-321.5 205,-302.5 131,-302.5"/>
<text text-anchor="middle" x="168" y="-309.5" font-family="Helvetica,sans-Serif" font-size="10.00">GlgChildGui</text>
</a>
</g>
</g>
<!-- Node0&#45;&gt;Node1 -->
<g id="edge1" class="edge">
<title>Node0&#45;&gt;Node1</title>
<path fill="none" stroke="midnightblue" d="M80.55,-337.46C98.1,-332.3 118.11,-326.4 134.46,-321.59"/>
<polygon fill="midnightblue" stroke="midnightblue" points="79.16,-334.23 70.55,-340.41 81.13,-340.94 79.16,-334.23"/>
</g>
<!-- Node12 -->
<g id="node13" class="node">
<title>Node12</title>
<g id="a_node13"><a xlink:href="classGlgGui.html" target="_top" xlink:title=" ">
<polygon fill="none" stroke="black" points="143,-340.5 143,-359.5 193,-359.5 193,-340.5 143,-340.5"/>
<text text-anchor="middle" x="168" y="-347.5" font-family="Helvetica,sans-Serif" font-size="10.00">GlgGui</text>
</a>
</g>
</g>
<!-- Node0&#45;&gt;Node12 -->
<g id="edge12" class="edge">
<title>Node0&#45;&gt;Node12</title>
<path fill="none" stroke="midnightblue" d="M84.35,-350C104.12,-350 126.37,-350 142.8,-350"/>
<polygon fill="midnightblue" stroke="midnightblue" points="84.28,-346.5 74.28,-350 84.28,-353.5 84.28,-346.5"/>
</g>
<!-- Node2 -->
<g id="node3" class="node">
<title>Node2</title>
<g id="a_node3"><a xlink:href="classGlgDryGui.html" target="_top" xlink:title=" ">
<polygon fill="none" stroke="black" points="297,-152.5 297,-171.5 364,-171.5 364,-152.5 297,-152.5"/>
<text text-anchor="middle" x="330.5" y="-159.5" font-family="Helvetica,sans-Serif" font-size="10.00">GlgDryGui</text>
</a>
</g>
</g>
<!-- Node1&#45;&gt;Node2 -->
<g id="edge2" class="edge">
<title>Node1&#45;&gt;Node2</title>
<path fill="none" stroke="midnightblue" d="M193.3,-296.5C204.41,-288.47 217.06,-277.86 226,-266 250.7,-233.25 231.22,-208.12 262,-181 271.59,-172.55 284.67,-167.83 296.76,-165.21"/>
<polygon fill="midnightblue" stroke="midnightblue" points="191.06,-293.8 184.82,-302.37 195.04,-299.56 191.06,-293.8"/>
</g>
<!-- Node3 -->
<g id="node4" class="node">
<title>Node3</title>
<g id="a_node4"><a xlink:href="classGlgGaugeGui.html" target="_top" xlink:title=" ">
<polygon fill="none" stroke="black" points="290,-494.5 290,-513.5 371,-513.5 371,-494.5 290,-494.5"/>
<text text-anchor="middle" x="330.5" y="-501.5" font-family="Helvetica,sans-Serif" font-size="10.00">GlgGaugeGui</text>
</a>
</g>
</g>
<!-- Node1&#45;&gt;Node3 -->
<g id="edge3" class="edge">
<title>Node1&#45;&gt;Node3</title>
<path fill="none" stroke="midnightblue" d="M214.36,-322.08C218.7,-324.46 222.7,-327.38 226,-331 273.36,-382.94 213.42,-434.2 262,-485 269.32,-492.65 279.46,-497.3 289.66,-500.1"/>
<polygon fill="midnightblue" stroke="midnightblue" points="215.66,-318.83 205.1,-317.96 212.81,-325.22 215.66,-318.83"/>
</g>
<!-- Node4 -->
<g id="node5" class="node">
<title>Node4</title>
<g id="a_node5"><a xlink:href="classGlgIonicGui.html" target="_top" xlink:title=" ">
<polygon fill="none" stroke="black" points="294,-456.5 294,-475.5 367,-475.5 367,-456.5 294,-456.5"/>
<text text-anchor="middle" x="330.5" y="-463.5" font-family="Helvetica,sans-Serif" font-size="10.00">GlgIonicGui</text>
</a>
</g>
</g>
<!-- Node1&#45;&gt;Node4 -->
<g id="edge4" class="edge">
<title>Node1&#45;&gt;Node4</title>
<path fill="none" stroke="midnightblue" d="M214.28,-322.41C218.6,-324.72 222.62,-327.55 226,-331 263.77,-369.57 223.33,-409.34 262,-447 270.55,-455.32 282.44,-460.06 293.87,-462.73"/>
<polygon fill="midnightblue" stroke="midnightblue" points="215.65,-319.2 205.09,-318.35 212.82,-325.6 215.65,-319.2"/>
</g>
<!-- Node5 -->
<g id="node6" class="node">
<title>Node5</title>
<g id="a_node6"><a xlink:href="classGlgRGAGui.html" target="_top" xlink:title=" ">
<polygon fill="none" stroke="black" points="295,-418.5 295,-437.5 366,-437.5 366,-418.5 295,-418.5"/>
<text text-anchor="middle" x="330.5" y="-425.5" font-family="Helvetica,sans-Serif" font-size="10.00">GlgRGAGui</text>
</a>
</g>
</g>
<!-- Node1&#45;&gt;Node5 -->
<g id="edge5" class="edge">
<title>Node1&#45;&gt;Node5</title>
<path fill="none" stroke="midnightblue" d="M214.51,-323.22C218.66,-325.38 222.58,-327.94 226,-331 254.45,-356.46 232.96,-384.22 262,-409 271.17,-416.82 283.34,-421.44 294.82,-424.15"/>
<polygon fill="midnightblue" stroke="midnightblue" points="215.72,-319.93 205.15,-319.13 212.91,-326.34 215.72,-319.93"/>
</g>
<!-- Node6 -->
<g id="node7" class="node">
<title>Node6</title>
<g id="a_node7"><a xlink:href="classGlgTitane__22Gui.html" target="_top" xlink:title=" ">
<polygon fill="none" stroke="black" points="281.5,-380.5 281.5,-399.5 379.5,-399.5 379.5,-380.5 281.5,-380.5"/>
<text text-anchor="middle" x="330.5" y="-387.5" font-family="Helvetica,sans-Serif" font-size="10.00">GlgTitane_22Gui</text>
</a>
</g>
</g>
<!-- Node1&#45;&gt;Node6 -->
<g id="edge6" class="edge">
<title>Node1&#45;&gt;Node6</title>
<path fill="none" stroke="midnightblue" d="M214.66,-324.8C218.62,-326.63 222.47,-328.69 226,-331 246.01,-344.1 241.69,-358.37 262,-371 268.2,-374.86 275.21,-377.95 282.29,-380.42"/>
<polygon fill="midnightblue" stroke="midnightblue" points="215.85,-321.51 205.27,-320.96 213.2,-327.99 215.85,-321.51"/>
</g>
<!-- Node7 -->
<g id="node8" class="node">
<title>Node7</title>
<g id="a_node8"><a xlink:href="classGlgTitane__32Gui.html" target="_top" xlink:title=" ">
<polygon fill="none" stroke="black" points="281.5,-342.5 281.5,-361.5 379.5,-361.5 379.5,-342.5 281.5,-342.5"/>
<text text-anchor="middle" x="330.5" y="-349.5" font-family="Helvetica,sans-Serif" font-size="10.00">GlgTitane_32Gui</text>
</a>
</g>
</g>
<!-- Node1&#45;&gt;Node7 -->
<g id="edge7" class="edge">
<title>Node1&#45;&gt;Node7</title>
<path fill="none" stroke="midnightblue" d="M215.03,-323.47C239.21,-329.5 268.47,-336.79 291.36,-342.5"/>
<polygon fill="midnightblue" stroke="midnightblue" points="215.57,-320 205.02,-320.98 213.88,-326.79 215.57,-320"/>
</g>
<!-- Node8 -->
<g id="node9" class="node">
<title>Node8</title>
<g id="a_node9"><a xlink:href="classGlgTubeStatusDetailsGui.html" target="_top" xlink:title=" ">
<polygon fill="none" stroke="black" points="262,-304.5 262,-323.5 399,-323.5 399,-304.5 262,-304.5"/>
<text text-anchor="middle" x="330.5" y="-311.5" font-family="Helvetica,sans-Serif" font-size="10.00">GlgTubeStatusDetailsGui</text>
</a>
</g>
</g>
<!-- Node1&#45;&gt;Node8 -->
<g id="edge8" class="edge">
<title>Node1&#45;&gt;Node8</title>
<path fill="none" stroke="midnightblue" d="M215.27,-312.58C229.84,-312.76 246.25,-312.96 261.99,-313.16"/>
<polygon fill="midnightblue" stroke="midnightblue" points="215.06,-309.07 205.02,-312.45 214.97,-316.07 215.06,-309.07"/>
</g>
<!-- Node9 -->
<g id="node10" class="node">
<title>Node9</title>
<g id="a_node10"><a xlink:href="classGlgTurboGui.html" target="_top" xlink:title=" ">
<polygon fill="none" stroke="black" points="292.5,-266.5 292.5,-285.5 368.5,-285.5 368.5,-266.5 292.5,-266.5"/>
<text text-anchor="middle" x="330.5" y="-273.5" font-family="Helvetica,sans-Serif" font-size="10.00">GlgTurboGui</text>
</a>
</g>
</g>
<!-- Node1&#45;&gt;Node9 -->
<g id="edge9" class="edge">
<title>Node1&#45;&gt;Node9</title>
<path fill="none" stroke="midnightblue" d="M214.85,-301.71C239.46,-296.2 269.38,-289.48 292.49,-284.3"/>
<polygon fill="midnightblue" stroke="midnightblue" points="214.01,-298.32 205.02,-303.92 215.54,-305.15 214.01,-298.32"/>
</g>
<!-- Node10 -->
<g id="node11" class="node">
<title>Node10</title>
<g id="a_node11"><a xlink:href="classGlgValveGui.html" target="_top" xlink:title=" ">
<polygon fill="none" stroke="black" points="292,-228.5 292,-247.5 369,-247.5 369,-228.5 292,-228.5"/>
<text text-anchor="middle" x="330.5" y="-235.5" font-family="Helvetica,sans-Serif" font-size="10.00">GlgValveGui</text>
</a>
</g>
</g>
<!-- Node1&#45;&gt;Node10 -->
<g id="edge10" class="edge">
<title>Node1&#45;&gt;Node10</title>
<path fill="none" stroke="midnightblue" d="M191.06,-296.72C209.38,-284.59 236.48,-267.92 262,-257 271.4,-252.98 281.9,-249.55 291.77,-246.76"/>
<polygon fill="midnightblue" stroke="midnightblue" points="188.92,-293.94 182.58,-302.43 192.83,-299.75 188.92,-293.94"/>
</g>
<!-- Node11 -->
<g id="node12" class="node">
<title>Node11</title>
<g id="a_node12"><a xlink:href="classGlgXGSGaugeGui.html" target="_top" xlink:title=" ">
<polygon fill="none" stroke="black" points="280,-190.5 280,-209.5 381,-209.5 381,-190.5 280,-190.5"/>
<text text-anchor="middle" x="330.5" y="-197.5" font-family="Helvetica,sans-Serif" font-size="10.00">GlgXGSGaugeGui</text>
</a>
</g>
</g>
<!-- Node1&#45;&gt;Node11 -->
<g id="edge11" class="edge">
<title>Node1&#45;&gt;Node11</title>
<path fill="none" stroke="midnightblue" d="M191.17,-296.08C202.17,-287.71 215.35,-276.92 226,-266 244.37,-247.16 240.22,-233.77 262,-219 267.74,-215.11 274.28,-212 280.96,-209.53"/>
<polygon fill="midnightblue" stroke="midnightblue" points="188.83,-293.46 182.9,-302.25 193.01,-299.08 188.83,-293.46"/>
</g>
<!-- Node17 -->
<g id="node14" class="node">
<title>Node17</title>
<g id="a_node14"><a xlink:href="interfaceDataTypes.html" target="_top" xlink:title=" ">
<polygon fill="none" stroke="black" points="3,-95.5 3,-114.5 71,-114.5 71,-95.5 3,-95.5"/>
<text text-anchor="middle" x="37" y="-102.5" font-family="Helvetica,sans-Serif" font-size="10.00">DataTypes</text>
</a>
</g>
</g>
<!-- Node18 -->
<g id="node15" class="node">
<title>Node18</title>
<g id="a_node15"><a xlink:href="classDataElement.html" target="_top" xlink:title=" ">
<polygon fill="none" stroke="black" points="128,-152.5 128,-171.5 208,-171.5 208,-152.5 128,-152.5"/>
<text text-anchor="middle" x="168" y="-159.5" font-family="Helvetica,sans-Serif" font-size="10.00">DataElement</text>
</a>
</g>
</g>
<!-- Node17&#45;&gt;Node18 -->
<g id="edge13" class="edge">
<title>Node17&#45;&gt;Node18</title>
<path fill="none" stroke="midnightblue" d="M63,-119.49C76.63,-127.06 93.95,-136.14 110,-143 118.06,-146.44 126.96,-149.67 135.3,-152.46"/>
<polygon fill="midnightblue" stroke="midnightblue" points="64.64,-116.4 54.21,-114.54 61.21,-122.5 64.64,-116.4"/>
</g>
<!-- Node19 -->
<g id="node16" class="node">
<title>Node19</title>
<g id="a_node16"><a xlink:href="classDataManager.html" target="_top" xlink:title=" ">
<polygon fill="none" stroke="black" points="126.5,-114.5 126.5,-133.5 209.5,-133.5 209.5,-114.5 126.5,-114.5"/>
<text text-anchor="middle" x="168" y="-121.5" font-family="Helvetica,sans-Serif" font-size="10.00">DataManager</text>
</a>
</g>
</g>
<!-- Node17&#45;&gt;Node19 -->
<g id="edge14" class="edge">
<title>Node17&#45;&gt;Node19</title>
<path fill="none" stroke="midnightblue" d="M81.39,-111.39C95.82,-113.52 111.82,-115.87 126.05,-117.97"/>
<polygon fill="midnightblue" stroke="midnightblue" points="81.62,-107.89 71.22,-109.89 80.6,-114.81 81.62,-107.89"/>
</g>
<!-- Node20 -->
<g id="node17" class="node">
<title>Node20</title>
<g id="a_node17"><a xlink:href="classDevice.html" target="_top" xlink:title=" ">
<polygon fill="none" stroke="black" points="305.5,-114.5 305.5,-133.5 355.5,-133.5 355.5,-114.5 305.5,-114.5"/>
<text text-anchor="middle" x="330.5" y="-121.5" font-family="Helvetica,sans-Serif" font-size="10.00">Device</text>
</a>
</g>
</g>
<!-- Node17&#45;&gt;Node20 -->
<g id="edge25" class="edge">
<title>Node17&#45;&gt;Node20</title>
<path fill="none" stroke="midnightblue" d="M81.27,-102.78C119.44,-101.35 176.53,-100.5 226,-105 253.47,-107.5 284.55,-113.66 305.41,-118.3"/>
<polygon fill="midnightblue" stroke="midnightblue" points="80.87,-99.29 71.02,-103.19 81.16,-106.29 80.87,-99.29"/>
</g>
<!-- Node25 -->
<g id="node22" class="node">
<title>Node25</title>
<g id="a_node22"><a xlink:href="classTitaneVarianTSP__22.html" target="_top" xlink:title=" ">
<polygon fill="none" stroke="black" points="435,-38.5 435,-57.5 548,-57.5 548,-38.5 435,-38.5"/>
<text text-anchor="middle" x="491.5" y="-45.5" font-family="Helvetica,sans-Serif" font-size="10.00">TitaneVarianTSP_22</text>
</a>
</g>
</g>
<!-- Node17&#45;&gt;Node25 -->
<g id="edge27" class="edge">
<title>Node17&#45;&gt;Node25</title>
<path fill="none" stroke="midnightblue" d="M81.32,-99.54C163.85,-89.15 343.56,-66.51 434.86,-55.01"/>
<polygon fill="midnightblue" stroke="midnightblue" points="80.76,-96.09 71.27,-100.81 81.63,-103.03 80.76,-96.09"/>
</g>
<!-- Node26 -->
<g id="node23" class="node">
<title>Node26</title>
<g id="a_node23"><a xlink:href="classTitaneVarianTSP__32.html" target="_top" xlink:title=" ">
<polygon fill="none" stroke="black" points="435,-0.5 435,-19.5 548,-19.5 548,-0.5 435,-0.5"/>
<text text-anchor="middle" x="491.5" y="-7.5" font-family="Helvetica,sans-Serif" font-size="10.00">TitaneVarianTSP_32</text>
</a>
</g>
</g>
<!-- Node17&#45;&gt;Node26 -->
<g id="edge28" class="edge">
<title>Node17&#45;&gt;Node26</title>
<path fill="none" stroke="midnightblue" d="M68.9,-91.44C81.47,-86.34 96.24,-80.85 110,-77 223.37,-45.31 360.12,-25.58 434.92,-16.31"/>
<polygon fill="midnightblue" stroke="midnightblue" points="67.25,-88.34 59.36,-95.41 69.94,-94.8 67.25,-88.34"/>
</g>
<!-- Node30 -->
<g id="node27" class="node">
<title>Node30</title>
<g id="a_node27"><a xlink:href="classModbusSlaveThread.html" target="_top" xlink:title=" ">
<polygon fill="none" stroke="black" points="110,-199.5 110,-218.5 226,-218.5 226,-199.5 110,-199.5"/>
<text text-anchor="middle" x="168" y="-206.5" font-family="Helvetica,sans-Serif" font-size="10.00">ModbusSlaveThread</text>
</a>
</g>
</g>
<!-- Node17&#45;&gt;Node30 -->
<g id="edge26" class="edge">
<title>Node17&#45;&gt;Node30</title>
<path fill="none" stroke="midnightblue" d="M51.74,-122.82C65.23,-139.43 87.06,-164.12 110,-181 120.03,-188.39 132.32,-194.71 142.91,-199.46"/>
<polygon fill="midnightblue" stroke="midnightblue" points="54.45,-120.6 45.49,-114.95 48.97,-124.96 54.45,-120.6"/>
</g>
<!-- Node19&#45;&gt;Node20 -->
<g id="edge15" class="edge">
<title>Node19&#45;&gt;Node20</title>
<path fill="none" stroke="midnightblue" d="M219.76,-124C248.43,-124 282.92,-124 305.48,-124"/>
<polygon fill="midnightblue" stroke="midnightblue" points="219.5,-120.5 209.5,-124 219.5,-127.5 219.5,-120.5"/>
</g>
<!-- Node21 -->
<g id="node18" class="node">
<title>Node21</title>
<g id="a_node18"><a xlink:href="classControllino.html" target="_top" xlink:title=" ">
<polygon fill="none" stroke="black" points="456.5,-76.5 456.5,-95.5 526.5,-95.5 526.5,-76.5 456.5,-76.5"/>
<text text-anchor="middle" x="491.5" y="-83.5" font-family="Helvetica,sans-Serif" font-size="10.00">Controllino</text>
</a>
</g>
</g>
<!-- Node20&#45;&gt;Node21 -->
<g id="edge16" class="edge">
<title>Node20&#45;&gt;Node21</title>
<path fill="none" stroke="midnightblue" d="M365.73,-115.82C392.52,-109.42 429.61,-100.55 456.37,-94.16"/>
<polygon fill="midnightblue" stroke="midnightblue" points="364.56,-112.5 355.65,-118.23 366.19,-119.31 364.56,-112.5"/>
</g>
<!-- Node22 -->
<g id="node19" class="node">
<title>Node22</title>
<g id="a_node19"><a xlink:href="classIonicAgilentDual.html" target="_top" xlink:title=" ">
<polygon fill="none" stroke="black" points="443,-304.5 443,-323.5 540,-323.5 540,-304.5 443,-304.5"/>
<text text-anchor="middle" x="491.5" y="-311.5" font-family="Helvetica,sans-Serif" font-size="10.00">IonicAgilentDual</text>
</a>
</g>
</g>
<!-- Node20&#45;&gt;Node22 -->
<g id="edge17" class="edge">
<title>Node20&#45;&gt;Node22</title>
<path fill="none" stroke="midnightblue" d="M365.4,-126.48C377.48,-129.02 390.24,-133.87 399,-143 447.05,-193.11 388.35,-243.58 435,-295 438.49,-298.85 442.79,-301.92 447.44,-304.36"/>
<polygon fill="midnightblue" stroke="midnightblue" points="365.95,-123.03 355.51,-124.85 364.81,-129.93 365.95,-123.03"/>
</g>
<!-- Node23 -->
<g id="node20" class="node">
<title>Node23</title>
<g id="a_node20"><a xlink:href="classMaxiGauge.html" target="_top" xlink:title=" ">
<polygon fill="none" stroke="black" points="455.5,-266.5 455.5,-285.5 527.5,-285.5 527.5,-266.5 455.5,-266.5"/>
<text text-anchor="middle" x="491.5" y="-273.5" font-family="Helvetica,sans-Serif" font-size="10.00">MaxiGauge</text>
</a>
</g>
</g>
<!-- Node20&#45;&gt;Node23 -->
<g id="edge18" class="edge">
<title>Node20&#45;&gt;Node23</title>
<path fill="none" stroke="midnightblue" d="M365.68,-126.97C377.53,-129.58 390.07,-134.35 399,-143 437.16,-179.97 397.88,-218.98 435,-257 440.55,-262.68 447.87,-266.67 455.37,-269.46"/>
<polygon fill="midnightblue" stroke="midnightblue" points="366,-123.47 355.55,-125.18 364.79,-130.36 366,-123.47"/>
</g>
<!-- Node24 -->
<g id="node21" class="node">
<title>Node24</title>
<g id="a_node21"><a xlink:href="classRgaPfeifferQms200.html" target="_top" xlink:title=" ">
<polygon fill="none" stroke="black" points="436,-228.5 436,-247.5 547,-247.5 547,-228.5 436,-228.5"/>
<text text-anchor="middle" x="491.5" y="-235.5" font-family="Helvetica,sans-Serif" font-size="10.00">RgaPfeifferQms200</text>
</a>
</g>
</g>
<!-- Node20&#45;&gt;Node24 -->
<g id="edge19" class="edge">
<title>Node20&#45;&gt;Node24</title>
<path fill="none" stroke="midnightblue" d="M365.6,-127.77C377.23,-130.48 389.65,-135.1 399,-143 427.55,-167.12 407.13,-194.1 435,-219 439.33,-222.87 444.48,-225.95 449.88,-228.42"/>
<polygon fill="midnightblue" stroke="midnightblue" points="366.15,-124.31 355.67,-125.86 364.83,-131.19 366.15,-124.31"/>
</g>
<!-- Node20&#45;&gt;Node25 -->
<g id="edge20" class="edge">
<title>Node20&#45;&gt;Node25</title>
<path fill="none" stroke="midnightblue" d="M355.56,-109.19C376.15,-96.89 406.86,-79.45 435,-67 442.82,-63.54 451.49,-60.3 459.6,-57.52"/>
<polygon fill="midnightblue" stroke="midnightblue" points="353.6,-106.28 346.85,-114.44 357.22,-112.27 353.6,-106.28"/>
</g>
<!-- Node20&#45;&gt;Node26 -->
<g id="edge21" class="edge">
<title>Node20&#45;&gt;Node26</title>
<path fill="none" stroke="midnightblue" d="M346.21,-106.68C364.9,-85.65 399.09,-50.34 435,-29 441.3,-25.25 448.45,-22.11 455.47,-19.53"/>
<polygon fill="midnightblue" stroke="midnightblue" points="343.55,-104.4 339.61,-114.24 348.83,-109 343.55,-104.4"/>
</g>
<!-- Node27 -->
<g id="node24" class="node">
<title>Node27</title>
<g id="a_node24"><a xlink:href="classTurboPfeifferDCU.html" target="_top" xlink:title=" ">
<polygon fill="none" stroke="black" points="441.5,-190.5 441.5,-209.5 541.5,-209.5 541.5,-190.5 441.5,-190.5"/>
<text text-anchor="middle" x="491.5" y="-197.5" font-family="Helvetica,sans-Serif" font-size="10.00">TurboPfeifferDCU</text>
</a>
</g>
</g>
<!-- Node20&#45;&gt;Node27 -->
<g id="edge22" class="edge">
<title>Node20&#45;&gt;Node27</title>
<path fill="none" stroke="midnightblue" d="M365.49,-129.8C376.69,-132.67 388.87,-136.88 399,-143 418.91,-155.03 415.43,-168.42 435,-181 440.91,-184.8 447.67,-187.93 454.39,-190.48"/>
<polygon fill="midnightblue" stroke="midnightblue" points="366.09,-126.34 355.56,-127.52 364.53,-133.17 366.09,-126.34"/>
</g>
<!-- Node28 -->
<g id="node25" class="node">
<title>Node28</title>
<g id="a_node25"><a xlink:href="classTurboVarianV81AG.html" target="_top" xlink:title=" ">
<polygon fill="none" stroke="black" points="438,-152.5 438,-171.5 545,-171.5 545,-152.5 438,-152.5"/>
<text text-anchor="middle" x="491.5" y="-159.5" font-family="Helvetica,sans-Serif" font-size="10.00">TurboVarianV81AG</text>
</a>
</g>
</g>
<!-- Node20&#45;&gt;Node28 -->
<g id="edge23" class="edge">
<title>Node20&#45;&gt;Node28</title>
<path fill="none" stroke="midnightblue" d="M365.4,-132.1C390.36,-138.07 424.38,-146.2 450.64,-152.47"/>
<polygon fill="midnightblue" stroke="midnightblue" points="366.19,-128.69 355.65,-129.77 364.56,-135.5 366.19,-128.69"/>
</g>
<!-- Node29 -->
<g id="node26" class="node">
<title>Node29</title>
<g id="a_node26"><a xlink:href="classXGSGauge.html" target="_top" xlink:title=" ">
<polygon fill="none" stroke="black" points="457.5,-114.5 457.5,-133.5 525.5,-133.5 525.5,-114.5 457.5,-114.5"/>
<text text-anchor="middle" x="491.5" y="-121.5" font-family="Helvetica,sans-Serif" font-size="10.00">XGSGauge</text>
</a>
</g>
</g>
<!-- Node20&#45;&gt;Node29 -->
<g id="edge24" class="edge">
<title>Node20&#45;&gt;Node29</title>
<path fill="none" stroke="midnightblue" d="M365.83,-124C392.91,-124 430.46,-124 457.25,-124"/>
<polygon fill="midnightblue" stroke="midnightblue" points="365.65,-120.5 355.65,-124 365.65,-127.5 365.65,-120.5"/>
</g>
<!-- Node47 -->
<g id="node28" class="node">
<title>Node47</title>
<g id="a_node28"><a xlink:title=" ">
<polygon fill="none" stroke="#bfbfbf" points="6,-245.5 6,-264.5 68,-264.5 68,-245.5 6,-245.5"/>
<text text-anchor="middle" x="37" y="-252.5" font-family="Helvetica,sans-Serif" font-size="10.00">Runnable</text>
</a>
</g>
</g>
<!-- Node47&#45;&gt;Node1 -->
<g id="edge30" class="edge">
<title>Node47&#45;&gt;Node1</title>
<path fill="none" stroke="midnightblue" d="M68.82,-268.62C92.42,-279.05 124.38,-293.17 145.34,-302.43"/>
<polygon fill="midnightblue" stroke="midnightblue" points="70.15,-265.38 59.59,-264.54 67.32,-271.78 70.15,-265.38"/>
</g>
<!-- Node47&#45;&gt;Node12 -->
<g id="edge31" class="edge">
<title>Node47&#45;&gt;Node12</title>
<path fill="none" stroke="midnightblue" d="M54.22,-272.14C75.42,-294.53 109.89,-330.93 110,-331 119.94,-337.33 132.21,-341.78 142.82,-344.76"/>
<polygon fill="midnightblue" stroke="midnightblue" points="56.52,-269.47 47.1,-264.61 51.43,-274.28 56.52,-269.47"/>
</g>
<!-- Node47&#45;&gt;Node20 -->
<g id="edge29" class="edge">
<title>Node47&#45;&gt;Node20</title>
<path fill="none" stroke="midnightblue" d="M78.12,-259.93C119.44,-262.76 183.62,-260.65 226,-228 258.5,-202.96 231.22,-170.12 262,-143 273.97,-132.46 291.36,-127.73 305.5,-125.62"/>
<polygon fill="midnightblue" stroke="midnightblue" points="78.39,-256.44 68.13,-259.11 77.82,-263.41 78.39,-256.44"/>
</g>
<!-- Node47&#45;&gt;Node30 -->
<g id="edge32" class="edge">
<title>Node47&#45;&gt;Node30</title>
<path fill="none" stroke="midnightblue" d="M74.28,-242.06C95.26,-234.58 121.2,-225.33 140.31,-218.52"/>
<polygon fill="midnightblue" stroke="midnightblue" points="72.97,-238.81 64.73,-245.47 75.32,-245.41 72.97,-238.81"/>
</g>
<!-- Node55 -->
<g id="node29" class="node">
<title>Node55</title>
<g id="a_node29"><a xlink:title=" ">
<polygon fill="none" stroke="#bfbfbf" points="12,-302.5 12,-321.5 62,-321.5 62,-302.5 12,-302.5"/>
<text text-anchor="middle" x="37" y="-309.5" font-family="Helvetica,sans-Serif" font-size="10.00">JFrame</text>
</a>
</g>
</g>
<!-- Node55&#45;&gt;Node1 -->
<g id="edge33" class="edge">
<title>Node55&#45;&gt;Node1</title>
<path fill="none" stroke="midnightblue" d="M72.33,-312C90.33,-312 112.36,-312 130.65,-312"/>
<polygon fill="midnightblue" stroke="midnightblue" points="72.26,-308.5 62.26,-312 72.26,-315.5 72.26,-308.5"/>
</g>
<!-- Node55&#45;&gt;Node12 -->
<g id="edge34" class="edge">
<title>Node55&#45;&gt;Node12</title>
<path fill="none" stroke="midnightblue" d="M72,-322.02C94.29,-328.58 122.88,-337 142.84,-342.88"/>
<polygon fill="midnightblue" stroke="midnightblue" points="72.85,-318.62 62.26,-319.15 70.87,-325.33 72.85,-318.62"/>
</g>
</g>
</svg>
