<?xml version="1.0" encoding="UTF-8" standalone="no"?>
<!DOCTYPE svg PUBLIC "-//W3C//DTD SVG 1.1//EN"
 "http://www.w3.org/Graphics/SVG/1.1/DTD/svg11.dtd">
<!-- Generated by graphviz version 2.50.0 (0)
 -->
<!-- Title: DataTypes Pages: 1 -->
<svg width="463pt" height="370pt"
 viewBox="0.00 0.00 463.00 370.00" xmlns="http://www.w3.org/2000/svg" xmlns:xlink="http://www.w3.org/1999/xlink">
<g id="graph0" class="graph" transform="scale(1 1) rotate(0) translate(4 366)">
<title>DataTypes</title>
<polygon fill="white" stroke="transparent" points="-4,4 -4,-366 459,-366 459,4 -4,4"/>
<!-- Node1 -->
<g id="node1" class="node">
<title>Node1</title>
<g id="a_node1"><a xlink:title=" ">
<polygon fill="#bfbfbf" stroke="black" points="0,-95.5 0,-114.5 68,-114.5 68,-95.5 0,-95.5"/>
<text text-anchor="middle" x="34" y="-102.5" font-family="Helvetica,sans-Serif" font-size="10.00">DataTypes</text>
</a>
</g>
</g>
<!-- Node2 -->
<g id="node2" class="node">
<title>Node2</title>
<g id="a_node2"><a xlink:href="classDataElement.html" target="_top" xlink:title=" ">
<polygon fill="white" stroke="black" points="122,-190.5 122,-209.5 202,-209.5 202,-190.5 122,-190.5"/>
<text text-anchor="middle" x="162" y="-197.5" font-family="Helvetica,sans-Serif" font-size="10.00">DataElement</text>
</a>
</g>
</g>
<!-- Node1&#45;&gt;Node2 -->
<g id="edge1" class="edge">
<title>Node1&#45;&gt;Node2</title>
<path fill="none" stroke="midnightblue" d="M48.83,-122.86C61.73,-138.54 82.2,-161.12 104,-176 112.51,-181.81 122.66,-186.64 132.01,-190.41"/>
<polygon fill="midnightblue" stroke="midnightblue" points="51.47,-120.56 42.49,-114.95 46.01,-124.94 51.47,-120.56"/>
</g>
<!-- Node3 -->
<g id="node3" class="node">
<title>Node3</title>
<g id="a_node3"><a xlink:href="classDataManager.html" target="_top" xlink:title=" ">
<polygon fill="white" stroke="black" points="120.5,-114.5 120.5,-133.5 203.5,-133.5 203.5,-114.5 120.5,-114.5"/>
<text text-anchor="middle" x="162" y="-121.5" font-family="Helvetica,sans-Serif" font-size="10.00">DataManager</text>
</a>
</g>
</g>
<!-- Node1&#45;&gt;Node3 -->
<g id="edge2" class="edge">
<title>Node1&#45;&gt;Node3</title>
<path fill="none" stroke="midnightblue" d="M78.25,-111.52C91.93,-113.58 106.99,-115.86 120.47,-117.89"/>
<polygon fill="midnightblue" stroke="midnightblue" points="78.52,-108.02 68.11,-109.99 77.47,-114.94 78.52,-108.02"/>
</g>
<!-- Node4 -->
<g id="node4" class="node">
<title>Node4</title>
<g id="a_node4"><a xlink:href="classDevice.html" target="_top" xlink:title=" ">
<polygon fill="white" stroke="black" points="256,-152.5 256,-171.5 306,-171.5 306,-152.5 256,-152.5"/>
<text text-anchor="middle" x="281" y="-159.5" font-family="Helvetica,sans-Serif" font-size="10.00">Device</text>
</a>
</g>
</g>
<!-- Node1&#45;&gt;Node4 -->
<g id="edge13" class="edge">
<title>Node1&#45;&gt;Node4</title>
<path fill="none" stroke="midnightblue" d="M57.24,-120.22C70.29,-128.36 87.42,-137.77 104,-143 156.32,-159.5 221.25,-162.23 255.76,-162.37"/>
<polygon fill="midnightblue" stroke="midnightblue" points="58.83,-117.08 48.53,-114.59 55.03,-122.95 58.83,-117.08"/>
</g>
<!-- Node9 -->
<g id="node9" class="node">
<title>Node9</title>
<g id="a_node9"><a xlink:href="classTitaneVarianTSP__22.html" target="_top" xlink:title=" ">
<polygon fill="white" stroke="black" points="342,-76.5 342,-95.5 455,-95.5 455,-76.5 342,-76.5"/>
<text text-anchor="middle" x="398.5" y="-83.5" font-family="Helvetica,sans-Serif" font-size="10.00">TitaneVarianTSP_22</text>
</a>
</g>
</g>
<!-- Node1&#45;&gt;Node9 -->
<g id="edge15" class="edge">
<title>Node1&#45;&gt;Node9</title>
<path fill="none" stroke="midnightblue" d="M78.15,-102.74C143.91,-99.29 269.17,-92.73 341.73,-88.92"/>
<polygon fill="midnightblue" stroke="midnightblue" points="77.93,-99.24 68.13,-103.26 78.3,-106.24 77.93,-99.24"/>
</g>
<!-- Node10 -->
<g id="node10" class="node">
<title>Node10</title>
<g id="a_node10"><a xlink:href="classTitaneVarianTSP__32.html" target="_top" xlink:title=" ">
<polygon fill="white" stroke="black" points="342,-38.5 342,-57.5 455,-57.5 455,-38.5 342,-38.5"/>
<text text-anchor="middle" x="398.5" y="-45.5" font-family="Helvetica,sans-Serif" font-size="10.00">TitaneVarianTSP_32</text>
</a>
</g>
</g>
<!-- Node1&#45;&gt;Node10 -->
<g id="edge16" class="edge">
<title>Node1&#45;&gt;Node10</title>
<path fill="none" stroke="midnightblue" d="M78.1,-95.88C86.67,-94.17 95.61,-92.47 104,-91 186.57,-76.59 282.77,-63.12 341.91,-55.22"/>
<polygon fill="midnightblue" stroke="midnightblue" points="77.38,-92.45 68.27,-97.87 78.77,-99.31 77.38,-92.45"/>
</g>
<!-- Node14 -->
<g id="node14" class="node">
<title>Node14</title>
<g id="a_node14"><a xlink:href="classModbusSlaveThread.html" target="_top" xlink:title=" ">
<polygon fill="white" stroke="black" points="104,-0.5 104,-19.5 220,-19.5 220,-0.5 104,-0.5"/>
<text text-anchor="middle" x="162" y="-7.5" font-family="Helvetica,sans-Serif" font-size="10.00">ModbusSlaveThread</text>
</a>
</g>
</g>
<!-- Node1&#45;&gt;Node14 -->
<g id="edge14" class="edge">
<title>Node1&#45;&gt;Node14</title>
<path fill="none" stroke="midnightblue" d="M48.83,-87.14C61.73,-71.46 82.2,-48.88 104,-34 112.51,-28.19 122.66,-23.36 132.01,-19.59"/>
<polygon fill="midnightblue" stroke="midnightblue" points="46.01,-85.06 42.49,-95.05 51.47,-89.44 46.01,-85.06"/>
</g>
<!-- Node3&#45;&gt;Node4 -->
<g id="edge3" class="edge">
<title>Node3&#45;&gt;Node4</title>
<path fill="none" stroke="midnightblue" d="M202.1,-136.7C219.94,-142.49 240.48,-149.17 256,-154.2"/>
<polygon fill="midnightblue" stroke="midnightblue" points="203.12,-133.35 192.52,-133.59 200.95,-140.01 203.12,-133.35"/>
</g>
<!-- Node5 -->
<g id="node5" class="node">
<title>Node5</title>
<g id="a_node5"><a xlink:href="classControllino.html" target="_top" xlink:title=" ">
<polygon fill="white" stroke="black" points="363.5,-114.5 363.5,-133.5 433.5,-133.5 433.5,-114.5 363.5,-114.5"/>
<text text-anchor="middle" x="398.5" y="-121.5" font-family="Helvetica,sans-Serif" font-size="10.00">Controllino</text>
</a>
</g>
</g>
<!-- Node4&#45;&gt;Node5 -->
<g id="edge4" class="edge">
<title>Node4&#45;&gt;Node5</title>
<path fill="none" stroke="midnightblue" d="M316.09,-150.78C332.72,-145.31 352.51,-138.8 368.41,-133.57"/>
<polygon fill="midnightblue" stroke="midnightblue" points="314.62,-147.58 306.21,-154.03 316.81,-154.23 314.62,-147.58"/>
</g>
<!-- Node6 -->
<g id="node6" class="node">
<title>Node6</title>
<g id="a_node6"><a xlink:href="classIonicAgilentDual.html" target="_top" xlink:title=" ">
<polygon fill="white" stroke="black" points="350,-342.5 350,-361.5 447,-361.5 447,-342.5 350,-342.5"/>
<text text-anchor="middle" x="398.5" y="-349.5" font-family="Helvetica,sans-Serif" font-size="10.00">IonicAgilentDual</text>
</a>
</g>
</g>
<!-- Node4&#45;&gt;Node6 -->
<g id="edge5" class="edge">
<title>Node4&#45;&gt;Node6</title>
<path fill="none" stroke="midnightblue" d="M283.42,-181.62C287.02,-216.79 299.48,-290.8 342,-333 345.9,-336.87 350.63,-339.96 355.66,-342.42"/>
<polygon fill="midnightblue" stroke="midnightblue" points="286.91,-181.31 282.54,-171.66 279.94,-181.93 286.91,-181.31"/>
</g>
<!-- Node7 -->
<g id="node7" class="node">
<title>Node7</title>
<g id="a_node7"><a xlink:href="classMaxiGauge.html" target="_top" xlink:title=" ">
<polygon fill="white" stroke="black" points="362.5,-304.5 362.5,-323.5 434.5,-323.5 434.5,-304.5 362.5,-304.5"/>
<text text-anchor="middle" x="398.5" y="-311.5" font-family="Helvetica,sans-Serif" font-size="10.00">MaxiGauge</text>
</a>
</g>
</g>
<!-- Node4&#45;&gt;Node7 -->
<g id="edge6" class="edge">
<title>Node4&#45;&gt;Node7</title>
<path fill="none" stroke="midnightblue" d="M285.7,-181.62C292.14,-210.44 308.1,-264.14 342,-295 347.72,-300.21 354.94,-304 362.26,-306.76"/>
<polygon fill="midnightblue" stroke="midnightblue" points="289.08,-180.65 283.62,-171.57 282.22,-182.07 289.08,-180.65"/>
</g>
<!-- Node8 -->
<g id="node8" class="node">
<title>Node8</title>
<g id="a_node8"><a xlink:href="classRgaPfeifferQms200.html" target="_top" xlink:title=" ">
<polygon fill="white" stroke="black" points="343,-266.5 343,-285.5 454,-285.5 454,-266.5 343,-266.5"/>
<text text-anchor="middle" x="398.5" y="-273.5" font-family="Helvetica,sans-Serif" font-size="10.00">RgaPfeifferQms200</text>
</a>
</g>
</g>
<!-- Node4&#45;&gt;Node8 -->
<g id="edge7" class="edge">
<title>Node4&#45;&gt;Node8</title>
<path fill="none" stroke="midnightblue" d="M289.35,-180.92C298.57,-202.29 316.35,-236.73 342,-257 346.87,-260.85 352.58,-263.95 358.44,-266.43"/>
<polygon fill="midnightblue" stroke="midnightblue" points="292.55,-179.51 285.51,-171.59 286.08,-182.17 292.55,-179.51"/>
</g>
<!-- Node4&#45;&gt;Node9 -->
<g id="edge8" class="edge">
<title>Node4&#45;&gt;Node9</title>
<path fill="none" stroke="midnightblue" d="M296.54,-144.64C307.83,-132.12 324.46,-115.63 342,-105 348.18,-101.25 355.21,-98.12 362.13,-95.56"/>
<polygon fill="midnightblue" stroke="midnightblue" points="293.89,-142.36 289.94,-152.19 299.16,-146.96 293.89,-142.36"/>
</g>
<!-- Node4&#45;&gt;Node10 -->
<g id="edge9" class="edge">
<title>Node4&#45;&gt;Node10</title>
<path fill="none" stroke="midnightblue" d="M289.35,-143.08C298.57,-121.71 316.35,-87.27 342,-67 346.87,-63.15 352.58,-60.05 358.44,-57.57"/>
<polygon fill="midnightblue" stroke="midnightblue" points="286.08,-141.83 285.51,-152.41 292.55,-144.49 286.08,-141.83"/>
</g>
<!-- Node11 -->
<g id="node11" class="node">
<title>Node11</title>
<g id="a_node11"><a xlink:href="classTurboPfeifferDCU.html" target="_top" xlink:title=" ">
<polygon fill="white" stroke="black" points="348.5,-228.5 348.5,-247.5 448.5,-247.5 448.5,-228.5 348.5,-228.5"/>
<text text-anchor="middle" x="398.5" y="-235.5" font-family="Helvetica,sans-Serif" font-size="10.00">TurboPfeifferDCU</text>
</a>
</g>
</g>
<!-- Node4&#45;&gt;Node11 -->
<g id="edge10" class="edge">
<title>Node4&#45;&gt;Node11</title>
<path fill="none" stroke="midnightblue" d="M296.54,-179.36C307.83,-191.88 324.46,-208.37 342,-219 348.18,-222.75 355.21,-225.88 362.13,-228.44"/>
<polygon fill="midnightblue" stroke="midnightblue" points="299.16,-177.04 289.94,-171.81 293.89,-181.64 299.16,-177.04"/>
</g>
<!-- Node12 -->
<g id="node12" class="node">
<title>Node12</title>
<g id="a_node12"><a xlink:href="classTurboVarianV81AG.html" target="_top" xlink:title=" ">
<polygon fill="white" stroke="black" points="345,-190.5 345,-209.5 452,-209.5 452,-190.5 345,-190.5"/>
<text text-anchor="middle" x="398.5" y="-197.5" font-family="Helvetica,sans-Serif" font-size="10.00">TurboVarianV81AG</text>
</a>
</g>
</g>
<!-- Node4&#45;&gt;Node12 -->
<g id="edge11" class="edge">
<title>Node4&#45;&gt;Node12</title>
<path fill="none" stroke="midnightblue" d="M316.09,-173.22C332.72,-178.69 352.51,-185.2 368.41,-190.43"/>
<polygon fill="midnightblue" stroke="midnightblue" points="316.81,-169.77 306.21,-169.97 314.62,-176.42 316.81,-169.77"/>
</g>
<!-- Node13 -->
<g id="node13" class="node">
<title>Node13</title>
<g id="a_node13"><a xlink:href="classXGSGauge.html" target="_top" xlink:title=" ">
<polygon fill="white" stroke="black" points="364.5,-152.5 364.5,-171.5 432.5,-171.5 432.5,-152.5 364.5,-152.5"/>
<text text-anchor="middle" x="398.5" y="-159.5" font-family="Helvetica,sans-Serif" font-size="10.00">XGSGauge</text>
</a>
</g>
</g>
<!-- Node4&#45;&gt;Node13 -->
<g id="edge12" class="edge">
<title>Node4&#45;&gt;Node13</title>
<path fill="none" stroke="midnightblue" d="M316.65,-162C331.69,-162 349.23,-162 364.12,-162"/>
<polygon fill="midnightblue" stroke="midnightblue" points="316.21,-158.5 306.21,-162 316.21,-165.5 316.21,-158.5"/>
</g>
</g>
</svg>
