<?xml version="1.0" encoding="UTF-8" standalone="no"?>
<!DOCTYPE svg PUBLIC "-//W3C//DTD SVG 1.1//EN"
 "http://www.w3.org/Graphics/SVG/1.1/DTD/svg11.dtd">
<!-- Generated by graphviz version 2.50.0 (0)
 -->
<!-- Title: GlgChildGui Pages: 1 -->
<svg width="360pt" height="446pt"
 viewBox="0.00 0.00 360.00 446.00" xmlns="http://www.w3.org/2000/svg" xmlns:xlink="http://www.w3.org/1999/xlink">
<g id="graph0" class="graph" transform="scale(1 1) rotate(0) translate(4 442)">
<title>GlgChildGui</title>
<polygon fill="white" stroke="transparent" points="-4,4 -4,-442 356,-442 356,4 -4,4"/>
<!-- Node1 -->
<g id="node1" class="node">
<title>Node1</title>
<g id="a_node1"><a xlink:title=" ">
<polygon fill="#bfbfbf" stroke="black" points="110,-209.5 110,-228.5 184,-228.5 184,-209.5 110,-209.5"/>
<text text-anchor="middle" x="147" y="-216.5" font-family="Helvetica,sans-Serif" font-size="10.00">GlgChildGui</text>
</a>
</g>
</g>
<!-- Node5 -->
<g id="node5" class="node">
<title>Node5</title>
<g id="a_node5"><a xlink:href="classGlgDryGui.html" target="_top" xlink:title=" ">
<polygon fill="white" stroke="black" points="252.5,-418.5 252.5,-437.5 319.5,-437.5 319.5,-418.5 252.5,-418.5"/>
<text text-anchor="middle" x="286" y="-425.5" font-family="Helvetica,sans-Serif" font-size="10.00">GlgDryGui</text>
</a>
</g>
</g>
<!-- Node1&#45;&gt;Node5 -->
<g id="edge4" class="edge">
<title>Node1&#45;&gt;Node5</title>
<path fill="none" stroke="midnightblue" d="M149.79,-238.9C154.33,-277.43 169.78,-362.54 220,-409 228.8,-417.14 240.91,-421.81 252.29,-424.49"/>
<polygon fill="midnightblue" stroke="midnightblue" points="153.23,-238.11 148.7,-228.53 146.26,-238.83 153.23,-238.11"/>
</g>
<!-- Node6 -->
<g id="node6" class="node">
<title>Node6</title>
<g id="a_node6"><a xlink:href="classGlgGaugeGui.html" target="_top" xlink:title=" ">
<polygon fill="white" stroke="black" points="245.5,-380.5 245.5,-399.5 326.5,-399.5 326.5,-380.5 245.5,-380.5"/>
<text text-anchor="middle" x="286" y="-387.5" font-family="Helvetica,sans-Serif" font-size="10.00">GlgGaugeGui</text>
</a>
</g>
</g>
<!-- Node1&#45;&gt;Node6 -->
<g id="edge5" class="edge">
<title>Node1&#45;&gt;Node6</title>
<path fill="none" stroke="midnightblue" d="M151.93,-238.94C159.38,-271.44 178.67,-335.73 220,-371 227.15,-377.11 236.19,-381.25 245.22,-384.06"/>
<polygon fill="midnightblue" stroke="midnightblue" points="155.29,-237.91 149.77,-228.87 148.45,-239.38 155.29,-237.91"/>
</g>
<!-- Node7 -->
<g id="node7" class="node">
<title>Node7</title>
<g id="a_node7"><a xlink:href="classGlgIonicGui.html" target="_top" xlink:title=" ">
<polygon fill="white" stroke="black" points="249.5,-342.5 249.5,-361.5 322.5,-361.5 322.5,-342.5 249.5,-342.5"/>
<text text-anchor="middle" x="286" y="-349.5" font-family="Helvetica,sans-Serif" font-size="10.00">GlgIonicGui</text>
</a>
</g>
</g>
<!-- Node1&#45;&gt;Node7 -->
<g id="edge6" class="edge">
<title>Node1&#45;&gt;Node7</title>
<path fill="none" stroke="midnightblue" d="M155.08,-238.23C165.44,-263.68 187.12,-308.22 220,-333 228.54,-339.44 239.23,-343.7 249.45,-346.52"/>
<polygon fill="midnightblue" stroke="midnightblue" points="158.23,-236.65 151.34,-228.6 151.7,-239.19 158.23,-236.65"/>
</g>
<!-- Node8 -->
<g id="node8" class="node">
<title>Node8</title>
<g id="a_node8"><a xlink:href="classGlgRGAGui.html" target="_top" xlink:title=" ">
<polygon fill="white" stroke="black" points="250.5,-304.5 250.5,-323.5 321.5,-323.5 321.5,-304.5 250.5,-304.5"/>
<text text-anchor="middle" x="286" y="-311.5" font-family="Helvetica,sans-Serif" font-size="10.00">GlgRGAGui</text>
</a>
</g>
</g>
<!-- Node1&#45;&gt;Node8 -->
<g id="edge7" class="edge">
<title>Node1&#45;&gt;Node8</title>
<path fill="none" stroke="midnightblue" d="M160.5,-236.9C173.47,-254.19 195.3,-279.91 220,-295 229.13,-300.58 239.98,-304.59 250.18,-307.45"/>
<polygon fill="midnightblue" stroke="midnightblue" points="163.26,-234.75 154.55,-228.73 157.6,-238.87 163.26,-234.75"/>
</g>
<!-- Node9 -->
<g id="node9" class="node">
<title>Node9</title>
<g id="a_node9"><a xlink:href="classGlgSqzStatusDetailsGui.html" target="_top" xlink:title=" ">
<polygon fill="white" stroke="black" points="220,-266.5 220,-285.5 352,-285.5 352,-266.5 220,-266.5"/>
<text text-anchor="middle" x="286" y="-273.5" font-family="Helvetica,sans-Serif" font-size="10.00">GlgSqzStatusDetailsGui</text>
</a>
</g>
</g>
<!-- Node1&#45;&gt;Node9 -->
<g id="edge8" class="edge">
<title>Node1&#45;&gt;Node9</title>
<path fill="none" stroke="midnightblue" d="M172.63,-233.58C186.27,-241.25 203.72,-250.4 220,-257 228.72,-260.53 238.33,-263.71 247.44,-266.42"/>
<polygon fill="midnightblue" stroke="midnightblue" points="174.27,-230.49 163.85,-228.56 170.79,-236.57 174.27,-230.49"/>
</g>
<!-- Node10 -->
<g id="node10" class="node">
<title>Node10</title>
<g id="a_node10"><a xlink:href="classGlgSqzTempGui.html" target="_top" xlink:title=" ">
<polygon fill="white" stroke="black" points="239.5,-228.5 239.5,-247.5 332.5,-247.5 332.5,-228.5 239.5,-228.5"/>
<text text-anchor="middle" x="286" y="-235.5" font-family="Helvetica,sans-Serif" font-size="10.00">GlgSqzTempGui</text>
</a>
</g>
</g>
<!-- Node1&#45;&gt;Node10 -->
<g id="edge9" class="edge">
<title>Node1&#45;&gt;Node10</title>
<path fill="none" stroke="midnightblue" d="M194.59,-225.46C209.06,-227.47 224.99,-229.68 239.39,-231.67"/>
<polygon fill="midnightblue" stroke="midnightblue" points="194.74,-221.95 184.35,-224.04 193.78,-228.88 194.74,-221.95"/>
</g>
<!-- Node11 -->
<g id="node11" class="node">
<title>Node11</title>
<g id="a_node11"><a xlink:href="classGlgSqzVacuumGui.html" target="_top" xlink:title=" ">
<polygon fill="white" stroke="black" points="233,-190.5 233,-209.5 339,-209.5 339,-190.5 233,-190.5"/>
<text text-anchor="middle" x="286" y="-197.5" font-family="Helvetica,sans-Serif" font-size="10.00">GlgSqzVacuumGui</text>
</a>
</g>
</g>
<!-- Node1&#45;&gt;Node11 -->
<g id="edge10" class="edge">
<title>Node1&#45;&gt;Node11</title>
<path fill="none" stroke="midnightblue" d="M194.41,-212.56C206.74,-210.85 220.13,-209 232.74,-207.25"/>
<polygon fill="midnightblue" stroke="midnightblue" points="193.78,-209.12 184.35,-213.96 194.74,-216.05 193.78,-209.12"/>
</g>
<!-- Node12 -->
<g id="node12" class="node">
<title>Node12</title>
<g id="a_node12"><a xlink:href="classGlgTitane__22Gui.html" target="_top" xlink:title=" ">
<polygon fill="white" stroke="black" points="237,-152.5 237,-171.5 335,-171.5 335,-152.5 237,-152.5"/>
<text text-anchor="middle" x="286" y="-159.5" font-family="Helvetica,sans-Serif" font-size="10.00">GlgTitane_22Gui</text>
</a>
</g>
</g>
<!-- Node1&#45;&gt;Node12 -->
<g id="edge11" class="edge">
<title>Node1&#45;&gt;Node12</title>
<path fill="none" stroke="midnightblue" d="M172.63,-204.42C186.27,-196.75 203.72,-187.6 220,-181 228.72,-177.47 238.33,-174.29 247.44,-171.58"/>
<polygon fill="midnightblue" stroke="midnightblue" points="170.79,-201.43 163.85,-209.44 174.27,-207.51 170.79,-201.43"/>
</g>
<!-- Node13 -->
<g id="node13" class="node">
<title>Node13</title>
<g id="a_node13"><a xlink:href="classGlgTitane__32Gui.html" target="_top" xlink:title=" ">
<polygon fill="white" stroke="black" points="237,-114.5 237,-133.5 335,-133.5 335,-114.5 237,-114.5"/>
<text text-anchor="middle" x="286" y="-121.5" font-family="Helvetica,sans-Serif" font-size="10.00">GlgTitane_32Gui</text>
</a>
</g>
</g>
<!-- Node1&#45;&gt;Node13 -->
<g id="edge12" class="edge">
<title>Node1&#45;&gt;Node13</title>
<path fill="none" stroke="midnightblue" d="M160.5,-201.1C173.47,-183.81 195.3,-158.09 220,-143 226.32,-139.14 233.47,-136.03 240.65,-133.53"/>
<polygon fill="midnightblue" stroke="midnightblue" points="157.6,-199.13 154.55,-209.27 163.26,-203.25 157.6,-199.13"/>
</g>
<!-- Node14 -->
<g id="node14" class="node">
<title>Node14</title>
<g id="a_node14"><a xlink:href="classGlgTurboGui.html" target="_top" xlink:title=" ">
<polygon fill="white" stroke="black" points="248,-76.5 248,-95.5 324,-95.5 324,-76.5 248,-76.5"/>
<text text-anchor="middle" x="286" y="-83.5" font-family="Helvetica,sans-Serif" font-size="10.00">GlgTurboGui</text>
</a>
</g>
</g>
<!-- Node1&#45;&gt;Node14 -->
<g id="edge13" class="edge">
<title>Node1&#45;&gt;Node14</title>
<path fill="none" stroke="midnightblue" d="M155.08,-199.77C165.44,-174.32 187.12,-129.78 220,-105 228.07,-98.91 238.06,-94.77 247.76,-91.96"/>
<polygon fill="midnightblue" stroke="midnightblue" points="151.7,-198.81 151.34,-209.4 158.23,-201.35 151.7,-198.81"/>
</g>
<!-- Node15 -->
<g id="node15" class="node">
<title>Node15</title>
<g id="a_node15"><a xlink:href="classGlgValveGui.html" target="_top" xlink:title=" ">
<polygon fill="white" stroke="black" points="247.5,-38.5 247.5,-57.5 324.5,-57.5 324.5,-38.5 247.5,-38.5"/>
<text text-anchor="middle" x="286" y="-45.5" font-family="Helvetica,sans-Serif" font-size="10.00">GlgValveGui</text>
</a>
</g>
</g>
<!-- Node1&#45;&gt;Node15 -->
<g id="edge14" class="edge">
<title>Node1&#45;&gt;Node15</title>
<path fill="none" stroke="midnightblue" d="M151.93,-199.06C159.38,-166.56 178.67,-102.27 220,-67 227.69,-60.44 237.55,-56.14 247.25,-53.33"/>
<polygon fill="midnightblue" stroke="midnightblue" points="148.45,-198.62 149.77,-209.13 155.29,-200.09 148.45,-198.62"/>
</g>
<!-- Node16 -->
<g id="node16" class="node">
<title>Node16</title>
<g id="a_node16"><a xlink:href="classGlgXGSGaugeGui.html" target="_top" xlink:title=" ">
<polygon fill="white" stroke="black" points="235.5,-0.5 235.5,-19.5 336.5,-19.5 336.5,-0.5 235.5,-0.5"/>
<text text-anchor="middle" x="286" y="-7.5" font-family="Helvetica,sans-Serif" font-size="10.00">GlgXGSGaugeGui</text>
</a>
</g>
</g>
<!-- Node1&#45;&gt;Node16 -->
<g id="edge15" class="edge">
<title>Node1&#45;&gt;Node16</title>
<path fill="none" stroke="midnightblue" d="M149.79,-199.1C154.33,-160.57 169.78,-75.46 220,-29 224.4,-24.93 229.63,-21.72 235.18,-19.21"/>
<polygon fill="midnightblue" stroke="midnightblue" points="146.26,-199.17 148.7,-209.47 153.23,-199.89 146.26,-199.17"/>
</g>
<!-- Node2 -->
<g id="node2" class="node">
<title>Node2</title>
<g id="a_node2"><a xlink:title=" ">
<polygon fill="white" stroke="#bfbfbf" points="12,-247.5 12,-266.5 62,-266.5 62,-247.5 12,-247.5"/>
<text text-anchor="middle" x="37" y="-254.5" font-family="Helvetica,sans-Serif" font-size="10.00">JFrame</text>
</a>
</g>
</g>
<!-- Node2&#45;&gt;Node1 -->
<g id="edge1" class="edge">
<title>Node2&#45;&gt;Node1</title>
<path fill="none" stroke="midnightblue" d="M71.77,-245.12C86.91,-239.79 104.53,-233.59 118.8,-228.57"/>
<polygon fill="midnightblue" stroke="midnightblue" points="70.51,-241.85 62.24,-248.47 72.83,-248.45 70.51,-241.85"/>
</g>
<!-- Node3 -->
<g id="node3" class="node">
<title>Node3</title>
<g id="a_node3"><a xlink:href="interfaceChannelList.html" target="_top" xlink:title=" ">
<polygon fill="white" stroke="black" points="0,-209.5 0,-228.5 74,-228.5 74,-209.5 0,-209.5"/>
<text text-anchor="middle" x="37" y="-216.5" font-family="Helvetica,sans-Serif" font-size="10.00">ChannelList</text>
</a>
</g>
</g>
<!-- Node3&#45;&gt;Node1 -->
<g id="edge2" class="edge">
<title>Node3&#45;&gt;Node1</title>
<path fill="none" stroke="midnightblue" d="M84.39,-219C92.84,-219 101.54,-219 109.65,-219"/>
<polygon fill="midnightblue" stroke="midnightblue" points="84.26,-215.5 74.26,-219 84.26,-222.5 84.26,-215.5"/>
</g>
<!-- Node4 -->
<g id="node4" class="node">
<title>Node4</title>
<g id="a_node4"><a xlink:title=" ">
<polygon fill="white" stroke="#bfbfbf" points="6,-171.5 6,-190.5 68,-190.5 68,-171.5 6,-171.5"/>
<text text-anchor="middle" x="37" y="-178.5" font-family="Helvetica,sans-Serif" font-size="10.00">Runnable</text>
</a>
</g>
</g>
<!-- Node4&#45;&gt;Node1 -->
<g id="edge3" class="edge">
<title>Node4&#45;&gt;Node1</title>
<path fill="none" stroke="midnightblue" d="M74.87,-193.97C89.26,-199.03 105.45,-204.73 118.76,-209.41"/>
<polygon fill="midnightblue" stroke="midnightblue" points="75.85,-190.61 65.25,-190.59 73.52,-197.21 75.85,-190.61"/>
</g>
</g>
</svg>
