<?xml version="1.0" encoding="UTF-8" standalone="no"?>
<!DOCTYPE svg PUBLIC "-//W3C//DTD SVG 1.1//EN"
 "http://www.w3.org/Graphics/SVG/1.1/DTD/svg11.dtd">
<!-- Generated by graphviz version 2.50.0 (0)
 -->
<!-- Title: DataManager Pages: 1 -->
<svg width="417pt" height="256pt"
 viewBox="0.00 0.00 417.00 256.00" xmlns="http://www.w3.org/2000/svg" xmlns:xlink="http://www.w3.org/1999/xlink">
<g id="graph0" class="graph" transform="scale(1 1) rotate(0) translate(4 252)">
<title>DataManager</title>
<!-- Node1 -->
<g id="node1" class="node">
<title>Node1</title>
<g id="a_node1"><a xlink:title=" ">
<polygon fill="#bfbfbf" stroke="black" points="104,-114.5 104,-133.5 187,-133.5 187,-114.5 104,-114.5"/>
<text text-anchor="middle" x="145.5" y="-121.5" font-family="Helvetica,sans-Serif" font-size="10.00">DataManager</text>
</a>
</g>
</g>
<!-- Node3 -->
<g id="node3" class="node">
<title>Node3</title>
<g id="a_node3"><a xlink:href="classDevice.html" target="_top" xlink:title=" ">
<polygon fill="none" stroke="black" points="223,-114.5 223,-133.5 273,-133.5 273,-114.5 223,-114.5"/>
<text text-anchor="middle" x="248" y="-121.5" font-family="Helvetica,sans-Serif" font-size="10.00">Device</text>
</a>
</g>
</g>
<!-- Node1&#45;&gt;Node3 -->
<g id="edge2" class="edge">
<title>Node1&#45;&gt;Node3</title>
<path fill="none" stroke="midnightblue" d="M197.12,-124C206.06,-124 214.98,-124 222.75,-124"/>
<polygon fill="midnightblue" stroke="midnightblue" points="197.09,-120.5 187.09,-124 197.09,-127.5 197.09,-120.5"/>
</g>
<!-- Node2 -->
<g id="node2" class="node">
<title>Node2</title>
<g id="a_node2"><a xlink:href="interfaceDataTypes.html" target="_top" xlink:title=" ">
<polygon fill="none" stroke="black" points="0,-114.5 0,-133.5 68,-133.5 68,-114.5 0,-114.5"/>
<text text-anchor="middle" x="34" y="-121.5" font-family="Helvetica,sans-Serif" font-size="10.00">DataTypes</text>
</a>
</g>
</g>
<!-- Node2&#45;&gt;Node1 -->
<g id="edge1" class="edge">
<title>Node2&#45;&gt;Node1</title>
<path fill="none" stroke="midnightblue" d="M78.17,-124C86.59,-124 95.39,-124 103.72,-124"/>
<polygon fill="midnightblue" stroke="midnightblue" points="78.15,-120.5 68.15,-124 78.15,-127.5 78.15,-120.5"/>
</g>
<!-- Node4 -->
<g id="node4" class="node">
<title>Node4</title>
<g id="a_node4"><a xlink:href="classControllino__1.html" target="_top" xlink:title=" ">
<polygon fill="none" stroke="black" points="318.5,-228.5 318.5,-247.5 399.5,-247.5 399.5,-228.5 318.5,-228.5"/>
<text text-anchor="middle" x="359" y="-235.5" font-family="Helvetica,sans-Serif" font-size="10.00">Controllino_1</text>
</a>
</g>
</g>
<!-- Node3&#45;&gt;Node4 -->
<g id="edge3" class="edge">
<title>Node3&#45;&gt;Node4</title>
<path fill="none" stroke="midnightblue" d="M256.64,-143.06C266.04,-164.29 283.89,-198.33 309,-219 313.65,-222.83 319.16,-225.94 324.77,-228.46"/>
<polygon fill="midnightblue" stroke="midnightblue" points="259.83,-141.63 252.71,-133.79 253.39,-144.36 259.83,-141.63"/>
</g>
<!-- Node5 -->
<g id="node5" class="node">
<title>Node5</title>
<g id="a_node5"><a xlink:href="classControllino__2.html" target="_top" xlink:title=" ">
<polygon fill="none" stroke="black" points="318.5,-190.5 318.5,-209.5 399.5,-209.5 399.5,-190.5 318.5,-190.5"/>
<text text-anchor="middle" x="359" y="-197.5" font-family="Helvetica,sans-Serif" font-size="10.00">Controllino_2</text>
</a>
</g>
</g>
<!-- Node3&#45;&gt;Node5 -->
<g id="edge4" class="edge">
<title>Node3&#45;&gt;Node5</title>
<path fill="none" stroke="midnightblue" d="M263.67,-141.15C275.02,-153.57 291.68,-170.02 309,-181 314.78,-184.66 321.38,-187.81 327.82,-190.43"/>
<polygon fill="midnightblue" stroke="midnightblue" points="266.28,-138.83 257.02,-133.68 261.05,-143.48 266.28,-138.83"/>
</g>
<!-- Node6 -->
<g id="node6" class="node">
<title>Node6</title>
<g id="a_node6"><a xlink:href="classControllino__3.html" target="_top" xlink:title=" ">
<polygon fill="none" stroke="black" points="318.5,-152.5 318.5,-171.5 399.5,-171.5 399.5,-152.5 318.5,-152.5"/>
<text text-anchor="middle" x="359" y="-159.5" font-family="Helvetica,sans-Serif" font-size="10.00">Controllino_3</text>
</a>
</g>
</g>
<!-- Node3&#45;&gt;Node6 -->
<g id="edge5" class="edge">
<title>Node3&#45;&gt;Node6</title>
<path fill="none" stroke="midnightblue" d="M282.81,-135.79C298.11,-141.12 315.95,-147.34 330.42,-152.38"/>
<polygon fill="midnightblue" stroke="midnightblue" points="283.79,-132.42 273.19,-132.43 281.48,-139.03 283.79,-132.42"/>
</g>
<!-- Node7 -->
<g id="node7" class="node">
<title>Node7</title>
<g id="a_node7"><a xlink:href="classMaxiGauge.html" target="_top" xlink:title=" ">
<polygon fill="none" stroke="black" points="323,-114.5 323,-133.5 395,-133.5 395,-114.5 323,-114.5"/>
<text text-anchor="middle" x="359" y="-121.5" font-family="Helvetica,sans-Serif" font-size="10.00">MaxiGauge</text>
</a>
</g>
</g>
<!-- Node3&#45;&gt;Node7 -->
<g id="edge6" class="edge">
<title>Node3&#45;&gt;Node7</title>
<path fill="none" stroke="midnightblue" d="M283.28,-124C295.83,-124 310.06,-124 322.7,-124"/>
<polygon fill="midnightblue" stroke="midnightblue" points="283.19,-120.5 273.19,-124 283.19,-127.5 283.19,-120.5"/>
</g>
<!-- Node8 -->
<g id="node8" class="node">
<title>Node8</title>
<g id="a_node8"><a xlink:href="classTCMuxShield.html" target="_top" xlink:title=" ">
<polygon fill="none" stroke="black" points="319,-76.5 319,-95.5 399,-95.5 399,-76.5 319,-76.5"/>
<text text-anchor="middle" x="359" y="-83.5" font-family="Helvetica,sans-Serif" font-size="10.00">TCMuxShield</text>
</a>
</g>
</g>
<!-- Node3&#45;&gt;Node8 -->
<g id="edge7" class="edge">
<title>Node3&#45;&gt;Node8</title>
<path fill="none" stroke="midnightblue" d="M282.81,-112.21C298.11,-106.88 315.95,-100.66 330.42,-95.62"/>
<polygon fill="midnightblue" stroke="midnightblue" points="281.48,-108.97 273.19,-115.57 283.79,-115.58 281.48,-108.97"/>
</g>
<!-- Node9 -->
<g id="node9" class="node">
<title>Node9</title>
<g id="a_node9"><a xlink:href="classTurboPfeifferDCU.html" target="_top" xlink:title=" ">
<polygon fill="none" stroke="black" points="309,-38.5 309,-57.5 409,-57.5 409,-38.5 309,-38.5"/>
<text text-anchor="middle" x="359" y="-45.5" font-family="Helvetica,sans-Serif" font-size="10.00">TurboPfeifferDCU</text>
</a>
</g>
</g>
<!-- Node3&#45;&gt;Node9 -->
<g id="edge8" class="edge">
<title>Node3&#45;&gt;Node9</title>
<path fill="none" stroke="midnightblue" d="M263.67,-106.85C275.02,-94.43 291.68,-77.98 309,-67 314.78,-63.34 321.38,-60.19 327.82,-57.57"/>
<polygon fill="midnightblue" stroke="midnightblue" points="261.05,-104.52 257.02,-114.32 266.28,-109.17 261.05,-104.52"/>
</g>
<!-- Node10 -->
<g id="node10" class="node">
<title>Node10</title>
<g id="a_node10"><a xlink:href="classVacuum.html" target="_top" xlink:title=" ">
<polygon fill="none" stroke="black" points="331,-0.5 331,-19.5 387,-19.5 387,-0.5 331,-0.5"/>
<text text-anchor="middle" x="359" y="-7.5" font-family="Helvetica,sans-Serif" font-size="10.00">Vacuum</text>
</a>
</g>
</g>
<!-- Node3&#45;&gt;Node10 -->
<g id="edge9" class="edge">
<title>Node3&#45;&gt;Node10</title>
<path fill="none" stroke="midnightblue" d="M256.64,-104.94C266.04,-83.71 283.89,-49.67 309,-29 315.34,-23.78 323.28,-19.88 330.91,-17.02"/>
<polygon fill="midnightblue" stroke="midnightblue" points="253.39,-103.64 252.71,-114.21 259.83,-106.37 253.39,-103.64"/>
</g>
</g>
</svg>
