<?xml version="1.0" encoding="UTF-8" standalone="no"?>
<!DOCTYPE svg PUBLIC "-//W3C//DTD SVG 1.1//EN"
 "http://www.w3.org/Graphics/SVG/1.1/DTD/svg11.dtd">
<!-- Generated by graphviz version 2.50.0 (0)
 -->
<!-- Title: Graphical Class Hierarchy Pages: 1 -->
<svg width="538pt" height="598pt"
 viewBox="0.00 0.00 538.00 598.00" xmlns="http://www.w3.org/2000/svg" xmlns:xlink="http://www.w3.org/1999/xlink">
<g id="graph0" class="graph" transform="scale(1 1) rotate(0) translate(4 594)">
<title>Graphical Class Hierarchy</title>
<!-- Node0 -->
<g id="node1" class="node">
<title>Node0</title>
<g id="a_node1"><a xlink:href="interfaceChannelList.html" target="_top" xlink:title=" ">
<polygon fill="none" stroke="black" points="0,-370.5 0,-389.5 74,-389.5 74,-370.5 0,-370.5"/>
<text text-anchor="middle" x="37" y="-377.5" font-family="Helvetica,sans-Serif" font-size="10.00">ChannelList</text>
</a>
</g>
</g>
<!-- Node1 -->
<g id="node2" class="node">
<title>Node1</title>
<g id="a_node2"><a xlink:href="classGlgChildGui.html" target="_top" xlink:title=" ">
<polygon fill="none" stroke="black" points="131,-332.5 131,-351.5 205,-351.5 205,-332.5 131,-332.5"/>
<text text-anchor="middle" x="168" y="-339.5" font-family="Helvetica,sans-Serif" font-size="10.00">GlgChildGui</text>
</a>
</g>
</g>
<!-- Node0&#45;&gt;Node1 -->
<g id="edge1" class="edge">
<title>Node0&#45;&gt;Node1</title>
<path fill="none" stroke="midnightblue" d="M80.55,-367.46C98.1,-362.3 118.11,-356.4 134.46,-351.59"/>
<polygon fill="midnightblue" stroke="midnightblue" points="79.16,-364.23 70.55,-370.41 81.13,-370.94 79.16,-364.23"/>
</g>
<!-- Node14 -->
<g id="node15" class="node">
<title>Node14</title>
<g id="a_node15"><a xlink:href="classGlgGui.html" target="_top" xlink:title=" ">
<polygon fill="none" stroke="black" points="143,-370.5 143,-389.5 193,-389.5 193,-370.5 143,-370.5"/>
<text text-anchor="middle" x="168" y="-377.5" font-family="Helvetica,sans-Serif" font-size="10.00">GlgGui</text>
</a>
</g>
</g>
<!-- Node0&#45;&gt;Node14 -->
<g id="edge14" class="edge">
<title>Node0&#45;&gt;Node14</title>
<path fill="none" stroke="midnightblue" d="M84.35,-380C104.12,-380 126.37,-380 142.8,-380"/>
<polygon fill="midnightblue" stroke="midnightblue" points="84.28,-376.5 74.28,-380 84.28,-383.5 84.28,-376.5"/>
</g>
<!-- Node2 -->
<g id="node3" class="node">
<title>Node2</title>
<g id="a_node3"><a xlink:href="classGlgDryGui.html" target="_top" xlink:title=" ">
<polygon fill="none" stroke="black" points="294.5,-456.5 294.5,-475.5 361.5,-475.5 361.5,-456.5 294.5,-456.5"/>
<text text-anchor="middle" x="328" y="-463.5" font-family="Helvetica,sans-Serif" font-size="10.00">GlgDryGui</text>
</a>
</g>
</g>
<!-- Node1&#45;&gt;Node2 -->
<g id="edge2" class="edge">
<title>Node1&#45;&gt;Node2</title>
<path fill="none" stroke="midnightblue" d="M214.62,-353.1C218.76,-355.28 222.64,-357.88 226,-361 256.37,-389.19 231.11,-419.39 262,-447 270.94,-454.99 283.08,-459.63 294.44,-462.32"/>
<polygon fill="midnightblue" stroke="midnightblue" points="215.85,-349.81 205.29,-348.97 213.03,-356.22 215.85,-349.81"/>
</g>
<!-- Node3 -->
<g id="node4" class="node">
<title>Node3</title>
<g id="a_node4"><a xlink:href="classGlgGaugeGui.html" target="_top" xlink:title=" ">
<polygon fill="none" stroke="black" points="287.5,-418.5 287.5,-437.5 368.5,-437.5 368.5,-418.5 287.5,-418.5"/>
<text text-anchor="middle" x="328" y="-425.5" font-family="Helvetica,sans-Serif" font-size="10.00">GlgGaugeGui</text>
</a>
</g>
</g>
<!-- Node1&#45;&gt;Node3 -->
<g id="edge3" class="edge">
<title>Node1&#45;&gt;Node3</title>
<path fill="none" stroke="midnightblue" d="M214.72,-354.39C218.7,-356.31 222.53,-358.5 226,-361 247.63,-376.59 240.08,-393.81 262,-409 269.54,-414.22 278.52,-418.03 287.36,-420.79"/>
<polygon fill="midnightblue" stroke="midnightblue" points="215.84,-351.07 205.27,-350.42 213.13,-357.52 215.84,-351.07"/>
</g>
<!-- Node4 -->
<g id="node5" class="node">
<title>Node4</title>
<g id="a_node5"><a xlink:href="classGlgIonicGui.html" target="_top" xlink:title=" ">
<polygon fill="none" stroke="black" points="291.5,-380.5 291.5,-399.5 364.5,-399.5 364.5,-380.5 291.5,-380.5"/>
<text text-anchor="middle" x="328" y="-387.5" font-family="Helvetica,sans-Serif" font-size="10.00">GlgIonicGui</text>
</a>
</g>
</g>
<!-- Node1&#45;&gt;Node4 -->
<g id="edge4" class="edge">
<title>Node1&#45;&gt;Node4</title>
<path fill="none" stroke="midnightblue" d="M208.93,-354.62C225.35,-359.77 244.57,-365.74 262,-371 272.35,-374.13 283.66,-377.46 293.9,-380.45"/>
<polygon fill="midnightblue" stroke="midnightblue" points="209.7,-351.2 199.11,-351.54 207.61,-357.88 209.7,-351.2"/>
</g>
<!-- Node5 -->
<g id="node6" class="node">
<title>Node5</title>
<g id="a_node6"><a xlink:href="classGlgRGAGui.html" target="_top" xlink:title=" ">
<polygon fill="none" stroke="black" points="292.5,-342.5 292.5,-361.5 363.5,-361.5 363.5,-342.5 292.5,-342.5"/>
<text text-anchor="middle" x="328" y="-349.5" font-family="Helvetica,sans-Serif" font-size="10.00">GlgRGAGui</text>
</a>
</g>
</g>
<!-- Node1&#45;&gt;Node5 -->
<g id="edge5" class="edge">
<title>Node1&#45;&gt;Node5</title>
<path fill="none" stroke="midnightblue" d="M215.44,-344.94C240.02,-346.5 269.71,-348.37 292.28,-349.8"/>
<polygon fill="midnightblue" stroke="midnightblue" points="215.45,-341.43 205.25,-344.29 215.01,-348.42 215.45,-341.43"/>
</g>
<!-- Node6 -->
<g id="node7" class="node">
<title>Node6</title>
<g id="a_node7"><a xlink:href="classGlgSqzStatusDetailsGui.html" target="_top" xlink:title=" ">
<polygon fill="none" stroke="black" points="262,-304.5 262,-323.5 394,-323.5 394,-304.5 262,-304.5"/>
<text text-anchor="middle" x="328" y="-311.5" font-family="Helvetica,sans-Serif" font-size="10.00">GlgSqzStatusDetailsGui</text>
</a>
</g>
</g>
<!-- Node1&#45;&gt;Node6 -->
<g id="edge6" class="edge">
<title>Node1&#45;&gt;Node6</title>
<path fill="none" stroke="midnightblue" d="M215.3,-333.8C233.45,-330.58 254.41,-326.86 273.23,-323.53"/>
<polygon fill="midnightblue" stroke="midnightblue" points="214.48,-330.38 205.25,-335.58 215.71,-337.28 214.48,-330.38"/>
</g>
<!-- Node7 -->
<g id="node8" class="node">
<title>Node7</title>
<g id="a_node8"><a xlink:href="classGlgSqzTempGui.html" target="_top" xlink:title=" ">
<polygon fill="none" stroke="black" points="281.5,-266.5 281.5,-285.5 374.5,-285.5 374.5,-266.5 281.5,-266.5"/>
<text text-anchor="middle" x="328" y="-273.5" font-family="Helvetica,sans-Serif" font-size="10.00">GlgSqzTempGui</text>
</a>
</g>
</g>
<!-- Node1&#45;&gt;Node7 -->
<g id="edge7" class="edge">
<title>Node1&#45;&gt;Node7</title>
<path fill="none" stroke="midnightblue" d="M203.64,-328.53C211.12,-325.31 218.91,-321.72 226,-318 242.81,-309.17 244.71,-302.85 262,-295 270.03,-291.35 278.93,-288.21 287.51,-285.59"/>
<polygon fill="midnightblue" stroke="midnightblue" points="202.28,-325.3 194.4,-332.39 204.97,-331.76 202.28,-325.3"/>
</g>
<!-- Node8 -->
<g id="node9" class="node">
<title>Node8</title>
<g id="a_node9"><a xlink:href="classGlgSqzVacuumGui.html" target="_top" xlink:title=" ">
<polygon fill="none" stroke="black" points="275,-228.5 275,-247.5 381,-247.5 381,-228.5 275,-228.5"/>
<text text-anchor="middle" x="328" y="-235.5" font-family="Helvetica,sans-Serif" font-size="10.00">GlgSqzVacuumGui</text>
</a>
</g>
</g>
<!-- Node1&#45;&gt;Node8 -->
<g id="edge8" class="edge">
<title>Node1&#45;&gt;Node8</title>
<path fill="none" stroke="midnightblue" d="M210.8,-328.15C216.25,-325.3 221.49,-321.94 226,-318 249.71,-297.29 237.15,-276.33 262,-257 267.01,-253.1 272.8,-250 278.82,-247.54"/>
<polygon fill="midnightblue" stroke="midnightblue" points="209.11,-325.07 201.53,-332.47 212.07,-331.41 209.11,-325.07"/>
</g>
<!-- Node9 -->
<g id="node10" class="node">
<title>Node9</title>
<g id="a_node10"><a xlink:href="classGlgTitane__22Gui.html" target="_top" xlink:title=" ">
<polygon fill="none" stroke="black" points="279,-190.5 279,-209.5 377,-209.5 377,-190.5 279,-190.5"/>
<text text-anchor="middle" x="328" y="-197.5" font-family="Helvetica,sans-Serif" font-size="10.00">GlgTitane_22Gui</text>
</a>
</g>
</g>
<!-- Node1&#45;&gt;Node9 -->
<g id="edge9" class="edge">
<title>Node1&#45;&gt;Node9</title>
<path fill="none" stroke="midnightblue" d="M213.49,-327.74C218.09,-325.01 222.39,-321.79 226,-318 258.27,-284.08 227.85,-251.02 262,-219 266.8,-214.5 272.61,-211.05 278.76,-208.42"/>
<polygon fill="midnightblue" stroke="midnightblue" points="211.7,-324.72 204.38,-332.39 214.88,-330.96 211.7,-324.72"/>
</g>
<!-- Node10 -->
<g id="node11" class="node">
<title>Node10</title>
<g id="a_node11"><a xlink:href="classGlgTitane__32Gui.html" target="_top" xlink:title=" ">
<polygon fill="none" stroke="black" points="279,-152.5 279,-171.5 377,-171.5 377,-152.5 279,-152.5"/>
<text text-anchor="middle" x="328" y="-159.5" font-family="Helvetica,sans-Serif" font-size="10.00">GlgTitane_32Gui</text>
</a>
</g>
</g>
<!-- Node1&#45;&gt;Node10 -->
<g id="edge10" class="edge">
<title>Node1&#45;&gt;Node10</title>
<path fill="none" stroke="midnightblue" d="M214.01,-327.95C218.48,-325.19 222.61,-321.9 226,-318 267.26,-270.45 218.1,-226.12 262,-181 266.67,-176.2 272.49,-172.59 278.7,-169.89"/>
<polygon fill="midnightblue" stroke="midnightblue" points="212.32,-324.88 205.09,-332.63 215.57,-331.08 212.32,-324.88"/>
</g>
<!-- Node11 -->
<g id="node12" class="node">
<title>Node11</title>
<g id="a_node12"><a xlink:href="classGlgTurboGui.html" target="_top" xlink:title=" ">
<polygon fill="none" stroke="black" points="290,-570.5 290,-589.5 366,-589.5 366,-570.5 290,-570.5"/>
<text text-anchor="middle" x="328" y="-577.5" font-family="Helvetica,sans-Serif" font-size="10.00">GlgTurboGui</text>
</a>
</g>
</g>
<!-- Node1&#45;&gt;Node11 -->
<g id="edge11" class="edge">
<title>Node1&#45;&gt;Node11</title>
<path fill="none" stroke="midnightblue" d="M214.39,-351.83C218.75,-354.24 222.76,-357.25 226,-361 285.12,-429.28 201.62,-493.83 262,-561 269.15,-568.96 279.43,-573.66 289.71,-576.41"/>
<polygon fill="midnightblue" stroke="midnightblue" points="215.59,-348.53 205.03,-347.65 212.74,-354.92 215.59,-348.53"/>
</g>
<!-- Node12 -->
<g id="node13" class="node">
<title>Node12</title>
<g id="a_node13"><a xlink:href="classGlgValveGui.html" target="_top" xlink:title=" ">
<polygon fill="none" stroke="black" points="289.5,-532.5 289.5,-551.5 366.5,-551.5 366.5,-532.5 289.5,-532.5"/>
<text text-anchor="middle" x="328" y="-539.5" font-family="Helvetica,sans-Serif" font-size="10.00">GlgValveGui</text>
</a>
</g>
</g>
<!-- Node1&#45;&gt;Node12 -->
<g id="edge12" class="edge">
<title>Node1&#45;&gt;Node12</title>
<path fill="none" stroke="midnightblue" d="M214.4,-352.05C218.73,-354.43 222.72,-357.37 226,-361 275.4,-415.77 211.59,-469.16 262,-523 269.15,-530.64 279.19,-535.26 289.24,-538.04"/>
<polygon fill="midnightblue" stroke="midnightblue" points="215.71,-348.8 205.15,-347.91 212.85,-355.19 215.71,-348.8"/>
</g>
<!-- Node13 -->
<g id="node14" class="node">
<title>Node13</title>
<g id="a_node14"><a xlink:href="classGlgXGSGaugeGui.html" target="_top" xlink:title=" ">
<polygon fill="none" stroke="black" points="277.5,-494.5 277.5,-513.5 378.5,-513.5 378.5,-494.5 277.5,-494.5"/>
<text text-anchor="middle" x="328" y="-501.5" font-family="Helvetica,sans-Serif" font-size="10.00">GlgXGSGaugeGui</text>
</a>
</g>
</g>
<!-- Node1&#45;&gt;Node13 -->
<g id="edge13" class="edge">
<title>Node1&#45;&gt;Node13</title>
<path fill="none" stroke="midnightblue" d="M214.34,-352.35C218.65,-354.67 222.65,-357.52 226,-361 265.78,-402.37 221.46,-444.38 262,-485 266.32,-489.33 271.57,-492.68 277.18,-495.28"/>
<polygon fill="midnightblue" stroke="midnightblue" points="215.73,-349.14 205.17,-348.28 212.89,-355.54 215.73,-349.14"/>
</g>
<!-- Node19 -->
<g id="node16" class="node">
<title>Node19</title>
<g id="a_node16"><a xlink:href="interfaceDataTypes.html" target="_top" xlink:title=" ">
<polygon fill="none" stroke="black" points="3,-171.5 3,-190.5 71,-190.5 71,-171.5 3,-171.5"/>
<text text-anchor="middle" x="37" y="-178.5" font-family="Helvetica,sans-Serif" font-size="10.00">DataTypes</text>
</a>
</g>
</g>
<!-- Node20 -->
<g id="node17" class="node">
<title>Node20</title>
<g id="a_node17"><a xlink:href="classDataElement.html" target="_top" xlink:title=" ">
<polygon fill="none" stroke="black" points="128,-152.5 128,-171.5 208,-171.5 208,-152.5 128,-152.5"/>
<text text-anchor="middle" x="168" y="-159.5" font-family="Helvetica,sans-Serif" font-size="10.00">DataElement</text>
</a>
</g>
</g>
<!-- Node19&#45;&gt;Node20 -->
<g id="edge15" class="edge">
<title>Node19&#45;&gt;Node20</title>
<path fill="none" stroke="midnightblue" d="M81.33,-174.62C96.41,-172.4 113.22,-169.92 127.93,-167.75"/>
<polygon fill="midnightblue" stroke="midnightblue" points="80.6,-171.19 71.22,-176.11 81.62,-178.11 80.6,-171.19"/>
</g>
<!-- Node21 -->
<g id="node18" class="node">
<title>Node21</title>
<g id="a_node18"><a xlink:href="classDataManager.html" target="_top" xlink:title=" ">
<polygon fill="none" stroke="black" points="126.5,-114.5 126.5,-133.5 209.5,-133.5 209.5,-114.5 126.5,-114.5"/>
<text text-anchor="middle" x="168" y="-121.5" font-family="Helvetica,sans-Serif" font-size="10.00">DataManager</text>
</a>
</g>
</g>
<!-- Node19&#45;&gt;Node21 -->
<g id="edge16" class="edge">
<title>Node19&#45;&gt;Node21</title>
<path fill="none" stroke="midnightblue" d="M63,-166.51C76.63,-158.94 93.95,-149.86 110,-143 118.06,-139.56 126.96,-136.33 135.3,-133.54"/>
<polygon fill="midnightblue" stroke="midnightblue" points="61.21,-163.5 54.21,-171.46 64.64,-169.6 61.21,-163.5"/>
</g>
<!-- Node22 -->
<g id="node19" class="node">
<title>Node22</title>
<g id="a_node19"><a xlink:href="classDevice.html" target="_top" xlink:title=" ">
<polygon fill="none" stroke="black" points="303,-114.5 303,-133.5 353,-133.5 353,-114.5 303,-114.5"/>
<text text-anchor="middle" x="328" y="-121.5" font-family="Helvetica,sans-Serif" font-size="10.00">Device</text>
</a>
</g>
</g>
<!-- Node19&#45;&gt;Node22 -->
<g id="edge25" class="edge">
<title>Node19&#45;&gt;Node22</title>
<path fill="none" stroke="midnightblue" d="M81.24,-190.37C120.66,-196.79 179.62,-200.95 226,-181 247.37,-171.81 242.15,-155.13 262,-143 274.44,-135.4 290.08,-130.7 302.9,-127.88"/>
<polygon fill="midnightblue" stroke="midnightblue" points="81.62,-186.89 71.17,-188.62 80.42,-193.78 81.62,-186.89"/>
</g>
<!-- Node30 -->
<g id="node27" class="node">
<title>Node30</title>
<g id="a_node27"><a xlink:href="classModbusSlaveThread.html" target="_top" xlink:title=" ">
<polygon fill="none" stroke="black" points="110,-247.5 110,-266.5 226,-266.5 226,-247.5 110,-247.5"/>
<text text-anchor="middle" x="168" y="-254.5" font-family="Helvetica,sans-Serif" font-size="10.00">ModbusSlaveThread</text>
</a>
</g>
</g>
<!-- Node19&#45;&gt;Node30 -->
<g id="edge26" class="edge">
<title>Node19&#45;&gt;Node30</title>
<path fill="none" stroke="midnightblue" d="M63.21,-195.86C89.15,-211.13 128.77,-234.47 150.79,-247.45"/>
<polygon fill="midnightblue" stroke="midnightblue" points="64.73,-192.69 54.34,-190.63 61.18,-198.72 64.73,-192.69"/>
</g>
<!-- Node21&#45;&gt;Node22 -->
<g id="edge17" class="edge">
<title>Node21&#45;&gt;Node22</title>
<path fill="none" stroke="midnightblue" d="M220.02,-124C247.74,-124 280.74,-124 302.69,-124"/>
<polygon fill="midnightblue" stroke="midnightblue" points="219.69,-120.5 209.69,-124 219.69,-127.5 219.69,-120.5"/>
</g>
<!-- Node23 -->
<g id="node20" class="node">
<title>Node23</title>
<g id="a_node20"><a xlink:href="classControllino__1.html" target="_top" xlink:title=" ">
<polygon fill="none" stroke="black" points="439.5,-228.5 439.5,-247.5 520.5,-247.5 520.5,-228.5 439.5,-228.5"/>
<text text-anchor="middle" x="480" y="-235.5" font-family="Helvetica,sans-Serif" font-size="10.00">Controllino_1</text>
</a>
</g>
</g>
<!-- Node22&#45;&gt;Node23 -->
<g id="edge18" class="edge">
<title>Node22&#45;&gt;Node23</title>
<path fill="none" stroke="midnightblue" d="M363.29,-128.38C374.07,-131.15 385.39,-135.66 394,-143 422.43,-167.26 402.63,-193.55 430,-219 434.14,-222.85 439.15,-225.95 444.37,-228.44"/>
<polygon fill="midnightblue" stroke="midnightblue" points="363.74,-124.9 353.23,-126.23 362.27,-131.74 363.74,-124.9"/>
</g>
<!-- Node24 -->
<g id="node21" class="node">
<title>Node24</title>
<g id="a_node21"><a xlink:href="classControllino__2.html" target="_top" xlink:title=" ">
<polygon fill="none" stroke="black" points="439.5,-190.5 439.5,-209.5 520.5,-209.5 520.5,-190.5 439.5,-190.5"/>
<text text-anchor="middle" x="480" y="-197.5" font-family="Helvetica,sans-Serif" font-size="10.00">Controllino_2</text>
</a>
</g>
</g>
<!-- Node22&#45;&gt;Node24 -->
<g id="edge19" class="edge">
<title>Node22&#45;&gt;Node24</title>
<path fill="none" stroke="midnightblue" d="M362.83,-130.28C373.31,-133.15 384.57,-137.24 394,-143 413.85,-155.13 410.68,-168.03 430,-181 435.53,-184.71 441.89,-187.85 448.16,-190.44"/>
<polygon fill="midnightblue" stroke="midnightblue" points="363.65,-126.88 353.1,-127.88 361.97,-133.67 363.65,-126.88"/>
</g>
<!-- Node25 -->
<g id="node22" class="node">
<title>Node25</title>
<g id="a_node22"><a xlink:href="classControllino__3.html" target="_top" xlink:title=" ">
<polygon fill="none" stroke="black" points="439.5,-152.5 439.5,-171.5 520.5,-171.5 520.5,-152.5 439.5,-152.5"/>
<text text-anchor="middle" x="480" y="-159.5" font-family="Helvetica,sans-Serif" font-size="10.00">Controllino_3</text>
</a>
</g>
</g>
<!-- Node22&#45;&gt;Node25 -->
<g id="edge20" class="edge">
<title>Node22&#45;&gt;Node25</title>
<path fill="none" stroke="midnightblue" d="M362.92,-132.59C386.3,-138.52 417.37,-146.39 441.49,-152.5"/>
<polygon fill="midnightblue" stroke="midnightblue" points="363.65,-129.17 353.1,-130.11 361.93,-135.95 363.65,-129.17"/>
</g>
<!-- Node26 -->
<g id="node23" class="node">
<title>Node26</title>
<g id="a_node23"><a xlink:href="classMaxiGauge.html" target="_top" xlink:title=" ">
<polygon fill="none" stroke="black" points="444,-114.5 444,-133.5 516,-133.5 516,-114.5 444,-114.5"/>
<text text-anchor="middle" x="480" y="-121.5" font-family="Helvetica,sans-Serif" font-size="10.00">MaxiGauge</text>
</a>
</g>
</g>
<!-- Node22&#45;&gt;Node26 -->
<g id="edge21" class="edge">
<title>Node22&#45;&gt;Node26</title>
<path fill="none" stroke="midnightblue" d="M363.21,-124C387.3,-124 419.46,-124 443.77,-124"/>
<polygon fill="midnightblue" stroke="midnightblue" points="363.1,-120.5 353.1,-124 363.1,-127.5 363.1,-120.5"/>
</g>
<!-- Node27 -->
<g id="node24" class="node">
<title>Node27</title>
<g id="a_node24"><a xlink:href="classTCMuxShield.html" target="_top" xlink:title=" ">
<polygon fill="none" stroke="black" points="440,-76.5 440,-95.5 520,-95.5 520,-76.5 440,-76.5"/>
<text text-anchor="middle" x="480" y="-83.5" font-family="Helvetica,sans-Serif" font-size="10.00">TCMuxShield</text>
</a>
</g>
</g>
<!-- Node22&#45;&gt;Node27 -->
<g id="edge22" class="edge">
<title>Node22&#45;&gt;Node27</title>
<path fill="none" stroke="midnightblue" d="M362.92,-115.41C386.3,-109.48 417.37,-101.61 441.49,-95.5"/>
<polygon fill="midnightblue" stroke="midnightblue" points="361.93,-112.05 353.1,-117.89 363.65,-118.83 361.93,-112.05"/>
</g>
<!-- Node28 -->
<g id="node25" class="node">
<title>Node28</title>
<g id="a_node25"><a xlink:href="classTurboPfeifferDCU.html" target="_top" xlink:title=" ">
<polygon fill="none" stroke="black" points="430,-38.5 430,-57.5 530,-57.5 530,-38.5 430,-38.5"/>
<text text-anchor="middle" x="480" y="-45.5" font-family="Helvetica,sans-Serif" font-size="10.00">TurboPfeifferDCU</text>
</a>
</g>
</g>
<!-- Node22&#45;&gt;Node28 -->
<g id="edge23" class="edge">
<title>Node22&#45;&gt;Node28</title>
<path fill="none" stroke="midnightblue" d="M353.18,-109.05C373.32,-96.91 402.97,-79.78 430,-67 437.09,-63.64 444.95,-60.4 452.26,-57.57"/>
<polygon fill="midnightblue" stroke="midnightblue" points="351.1,-106.21 344.38,-114.4 354.74,-112.2 351.1,-106.21"/>
</g>
<!-- Node29 -->
<g id="node26" class="node">
<title>Node29</title>
<g id="a_node26"><a xlink:href="classVacuum.html" target="_top" xlink:title=" ">
<polygon fill="none" stroke="black" points="452,-0.5 452,-19.5 508,-19.5 508,-0.5 452,-0.5"/>
<text text-anchor="middle" x="480" y="-7.5" font-family="Helvetica,sans-Serif" font-size="10.00">Vacuum</text>
</a>
</g>
</g>
<!-- Node22&#45;&gt;Node29 -->
<g id="edge24" class="edge">
<title>Node22&#45;&gt;Node29</title>
<path fill="none" stroke="midnightblue" d="M343.65,-106.61C362,-85.76 395.28,-50.88 430,-29 436.72,-24.77 444.53,-21.22 451.91,-18.37"/>
<polygon fill="midnightblue" stroke="midnightblue" points="340.84,-104.51 336.95,-114.36 346.14,-109.09 340.84,-104.51"/>
</g>
<!-- Node49 -->
<g id="node28" class="node">
<title>Node49</title>
<g id="a_node28"><a xlink:title=" ">
<polygon fill="none" stroke="#bfbfbf" points="6,-294.5 6,-313.5 68,-313.5 68,-294.5 6,-294.5"/>
<text text-anchor="middle" x="37" y="-301.5" font-family="Helvetica,sans-Serif" font-size="10.00">Runnable</text>
</a>
</g>
</g>
<!-- Node49&#45;&gt;Node1 -->
<g id="edge28" class="edge">
<title>Node49&#45;&gt;Node1</title>
<path fill="none" stroke="midnightblue" d="M78.01,-315.78C96.23,-321.15 117.51,-327.42 134.69,-332.48"/>
<polygon fill="midnightblue" stroke="midnightblue" points="78.83,-312.38 68.24,-312.91 76.85,-319.09 78.83,-312.38"/>
</g>
<!-- Node49&#45;&gt;Node14 -->
<g id="edge29" class="edge">
<title>Node49&#45;&gt;Node14</title>
<path fill="none" stroke="midnightblue" d="M67.6,-318.59C69.82,-319.99 71.98,-321.47 74,-323 92.53,-337.06 90.38,-348.5 110,-361 119.94,-367.33 132.21,-371.78 142.82,-374.76"/>
<polygon fill="midnightblue" stroke="midnightblue" points="69.3,-315.53 58.89,-313.55 65.79,-321.58 69.3,-315.53"/>
</g>
<!-- Node49&#45;&gt;Node22 -->
<g id="edge27" class="edge">
<title>Node49&#45;&gt;Node22</title>
<path fill="none" stroke="midnightblue" d="M78.36,-309.74C120.45,-313.33 185.77,-311.79 226,-276 271.75,-235.29 219.13,-186.73 262,-143 272.62,-132.17 289.04,-127.43 302.72,-125.39"/>
<polygon fill="midnightblue" stroke="midnightblue" points="78.49,-306.24 68.19,-308.74 77.8,-313.21 78.49,-306.24"/>
</g>
<!-- Node49&#45;&gt;Node30 -->
<g id="edge30" class="edge">
<title>Node49&#45;&gt;Node30</title>
<path fill="none" stroke="midnightblue" d="M73.71,-290.99C94.86,-283.28 121.2,-273.69 140.49,-266.66"/>
<polygon fill="midnightblue" stroke="midnightblue" points="72.3,-287.78 64.11,-294.49 74.7,-294.35 72.3,-287.78"/>
</g>
<!-- Node58 -->
<g id="node29" class="node">
<title>Node58</title>
<g id="a_node29"><a xlink:title=" ">
<polygon fill="none" stroke="#bfbfbf" points="12,-332.5 12,-351.5 62,-351.5 62,-332.5 12,-332.5"/>
<text text-anchor="middle" x="37" y="-339.5" font-family="Helvetica,sans-Serif" font-size="10.00">JFrame</text>
</a>
</g>
</g>
<!-- Node58&#45;&gt;Node1 -->
<g id="edge31" class="edge">
<title>Node58&#45;&gt;Node1</title>
<path fill="none" stroke="midnightblue" d="M72.33,-342C90.33,-342 112.36,-342 130.65,-342"/>
<polygon fill="midnightblue" stroke="midnightblue" points="72.26,-338.5 62.26,-342 72.26,-345.5 72.26,-338.5"/>
</g>
<!-- Node58&#45;&gt;Node14 -->
<g id="edge32" class="edge">
<title>Node58&#45;&gt;Node14</title>
<path fill="none" stroke="midnightblue" d="M72,-352.02C94.29,-358.58 122.88,-367 142.84,-372.88"/>
<polygon fill="midnightblue" stroke="midnightblue" points="72.85,-348.62 62.26,-349.15 70.87,-355.33 72.85,-348.62"/>
</g>
</g>
</svg>
