<?xml version="1.0" encoding="UTF-8" standalone="no"?>
<!DOCTYPE svg PUBLIC "-//W3C//DTD SVG 1.1//EN"
 "http://www.w3.org/Graphics/SVG/1.1/DTD/svg11.dtd">
<!-- Generated by graphviz version 2.50.0 (0)
 -->
<!-- Title: Graphical Class Hierarchy Pages: 1 -->
<svg width="314pt" height="458pt"
 viewBox="0.00 0.00 314.00 458.00" xmlns="http://www.w3.org/2000/svg" xmlns:xlink="http://www.w3.org/1999/xlink">
<g id="graph0" class="graph" transform="scale(1 1) rotate(0) translate(4 454)">
<title>Graphical Class Hierarchy</title>
<polygon fill="white" stroke="transparent" points="-4,4 -4,-454 310,-454 310,4 -4,4"/>
<!-- Node32 -->
<g id="node1" class="node">
<title>Node32</title>
<g id="a_node1"><a xlink:title=" ">
<polygon fill="white" stroke="#bfbfbf" points="0,-209.5 0,-228.5 97,-228.5 97,-209.5 0,-209.5"/>
<text text-anchor="middle" x="48.5" y="-216.5" font-family="Helvetica,sans-Serif" font-size="10.00">GlgInputListener</text>
</a>
</g>
</g>
<!-- Node0 -->
<g id="node2" class="node">
<title>Node0</title>
<g id="a_node2"><a xlink:href="classGlgDryGui_1_1InputListener.html" target="_top" xlink:title=" ">
<polygon fill="white" stroke="black" points="152.5,-430.5 152.5,-449.5 286.5,-449.5 286.5,-430.5 152.5,-430.5"/>
<text text-anchor="middle" x="219.5" y="-437.5" font-family="Helvetica,sans-Serif" font-size="10.00">GlgDryGui.InputListener</text>
</a>
</g>
</g>
<!-- Node32&#45;&gt;Node0 -->
<g id="edge1" class="edge">
<title>Node32&#45;&gt;Node0</title>
<path fill="none" stroke="midnightblue" d="M51.68,-238.88C57.26,-279.67 75.9,-373.03 133,-421 138.7,-425.79 145.36,-429.45 152.39,-432.22"/>
<polygon fill="midnightblue" stroke="midnightblue" points="55.14,-238.34 50.43,-228.85 48.19,-239.2 55.14,-238.34"/>
</g>
<!-- Node34 -->
<g id="node3" class="node">
<title>Node34</title>
<g id="a_node3"><a xlink:href="classGlgGaugeGui_1_1InputListener.html" target="_top" xlink:title=" ">
<polygon fill="white" stroke="black" points="145.5,-392.5 145.5,-411.5 293.5,-411.5 293.5,-392.5 145.5,-392.5"/>
<text text-anchor="middle" x="219.5" y="-399.5" font-family="Helvetica,sans-Serif" font-size="10.00">GlgGaugeGui.InputListener</text>
</a>
</g>
</g>
<!-- Node32&#45;&gt;Node34 -->
<g id="edge2" class="edge">
<title>Node32&#45;&gt;Node34</title>
<path fill="none" stroke="midnightblue" d="M53.67,-238.45C62.17,-273.19 84.92,-345.74 133,-383 137.93,-386.82 143.47,-389.9 149.3,-392.39"/>
<polygon fill="midnightblue" stroke="midnightblue" points="57.05,-237.55 51.39,-228.59 50.23,-239.12 57.05,-237.55"/>
</g>
<!-- Node35 -->
<g id="node4" class="node">
<title>Node35</title>
<g id="a_node4"><a xlink:href="classGlgIonicGui_1_1InputListener.html" target="_top" xlink:title=" ">
<polygon fill="white" stroke="black" points="149.5,-354.5 149.5,-373.5 289.5,-373.5 289.5,-354.5 149.5,-354.5"/>
<text text-anchor="middle" x="219.5" y="-361.5" font-family="Helvetica,sans-Serif" font-size="10.00">GlgIonicGui.InputListener</text>
</a>
</g>
</g>
<!-- Node32&#45;&gt;Node35 -->
<g id="edge3" class="edge">
<title>Node32&#45;&gt;Node35</title>
<path fill="none" stroke="midnightblue" d="M56.74,-238.23C68.35,-266.31 93.88,-318.11 133,-345 138.64,-348.88 144.94,-351.98 151.49,-354.45"/>
<polygon fill="midnightblue" stroke="midnightblue" points="59.92,-236.74 52.97,-228.73 53.41,-239.32 59.92,-236.74"/>
</g>
<!-- Node36 -->
<g id="node5" class="node">
<title>Node36</title>
<g id="a_node5"><a xlink:href="classGlgRGAGui_1_1InputListener.html" target="_top" xlink:title=" ">
<polygon fill="white" stroke="black" points="151,-316.5 151,-335.5 288,-335.5 288,-316.5 151,-316.5"/>
<text text-anchor="middle" x="219.5" y="-323.5" font-family="Helvetica,sans-Serif" font-size="10.00">GlgRGAGui.InputListener</text>
</a>
</g>
</g>
<!-- Node32&#45;&gt;Node36 -->
<g id="edge4" class="edge">
<title>Node32&#45;&gt;Node36</title>
<path fill="none" stroke="midnightblue" d="M61.57,-237.1C76.07,-257.36 102.33,-289.63 133,-307 139.88,-310.9 147.49,-313.99 155.26,-316.45"/>
<polygon fill="midnightblue" stroke="midnightblue" points="64.33,-234.95 55.76,-228.73 58.58,-238.94 64.33,-234.95"/>
</g>
<!-- Node37 -->
<g id="node6" class="node">
<title>Node37</title>
<g id="a_node6"><a xlink:href="classGlgSqzStatusDetailsGui_1_1InputListener.html" target="_top" xlink:title=" ">
<polygon fill="white" stroke="black" points="139.5,-267 139.5,-297 299.5,-297 299.5,-267 139.5,-267"/>
<text text-anchor="start" x="147.5" y="-285" font-family="Helvetica,sans-Serif" font-size="10.00">GlgSqzStatusDetailsGui.Input</text>
<text text-anchor="middle" x="219.5" y="-274" font-family="Helvetica,sans-Serif" font-size="10.00">Listener</text>
</a>
</g>
</g>
<!-- Node32&#45;&gt;Node37 -->
<g id="edge5" class="edge">
<title>Node32&#45;&gt;Node37</title>
<path fill="none" stroke="midnightblue" d="M77.72,-233.06C93.71,-240.71 114.21,-250.02 133,-257 142.42,-260.5 152.57,-263.84 162.47,-266.86"/>
<polygon fill="midnightblue" stroke="midnightblue" points="78.93,-229.76 68.41,-228.54 75.88,-236.06 78.93,-229.76"/>
</g>
<!-- Node38 -->
<g id="node7" class="node">
<title>Node38</title>
<g id="a_node7"><a xlink:href="classGlgSqzTempGui_1_1InputListener.html" target="_top" xlink:title=" ">
<polygon fill="white" stroke="black" points="139.5,-228.5 139.5,-247.5 299.5,-247.5 299.5,-228.5 139.5,-228.5"/>
<text text-anchor="middle" x="219.5" y="-235.5" font-family="Helvetica,sans-Serif" font-size="10.00">GlgSqzTempGui.InputListener</text>
</a>
</g>
</g>
<!-- Node32&#45;&gt;Node38 -->
<g id="edge6" class="edge">
<title>Node32&#45;&gt;Node38</title>
<path fill="none" stroke="midnightblue" d="M107.16,-225.48C117.53,-226.65 128.5,-227.88 139.35,-229.1"/>
<polygon fill="midnightblue" stroke="midnightblue" points="107.35,-221.98 97.03,-224.34 106.57,-228.94 107.35,-221.98"/>
</g>
<!-- Node39 -->
<g id="node8" class="node">
<title>Node39</title>
<g id="a_node8"><a xlink:href="classGlgSqzVacuumGui_1_1InputListener.html" target="_top" xlink:title=" ">
<polygon fill="white" stroke="black" points="133,-190.5 133,-209.5 306,-209.5 306,-190.5 133,-190.5"/>
<text text-anchor="middle" x="219.5" y="-197.5" font-family="Helvetica,sans-Serif" font-size="10.00">GlgSqzVacuumGui.InputListener</text>
</a>
</g>
</g>
<!-- Node32&#45;&gt;Node39 -->
<g id="edge7" class="edge">
<title>Node32&#45;&gt;Node39</title>
<path fill="none" stroke="midnightblue" d="M106.99,-212.54C115.67,-211.56 124.77,-210.54 133.87,-209.51"/>
<polygon fill="midnightblue" stroke="midnightblue" points="106.57,-209.06 97.03,-213.66 107.35,-216.02 106.57,-209.06"/>
</g>
<!-- Node40 -->
<g id="node9" class="node">
<title>Node40</title>
<g id="a_node9"><a xlink:href="classGlgTitane__22Gui_1_1InputListener.html" target="_top" xlink:title=" ">
<polygon fill="white" stroke="black" points="137.5,-152.5 137.5,-171.5 301.5,-171.5 301.5,-152.5 137.5,-152.5"/>
<text text-anchor="middle" x="219.5" y="-159.5" font-family="Helvetica,sans-Serif" font-size="10.00">GlgTitane_22Gui.InputListener</text>
</a>
</g>
</g>
<!-- Node32&#45;&gt;Node40 -->
<g id="edge8" class="edge">
<title>Node32&#45;&gt;Node40</title>
<path fill="none" stroke="midnightblue" d="M76.93,-204.76C92.94,-196.9 113.74,-187.44 133,-181 143.96,-177.33 155.95,-174.17 167.39,-171.53"/>
<polygon fill="midnightblue" stroke="midnightblue" points="75,-201.81 67.63,-209.42 78.14,-208.07 75,-201.81"/>
</g>
<!-- Node41 -->
<g id="node10" class="node">
<title>Node41</title>
<g id="a_node10"><a xlink:href="classGlgTitane__32Gui_1_1InputListener.html" target="_top" xlink:title=" ">
<polygon fill="white" stroke="black" points="137.5,-114.5 137.5,-133.5 301.5,-133.5 301.5,-114.5 137.5,-114.5"/>
<text text-anchor="middle" x="219.5" y="-121.5" font-family="Helvetica,sans-Serif" font-size="10.00">GlgTitane_32Gui.InputListener</text>
</a>
</g>
</g>
<!-- Node32&#45;&gt;Node41 -->
<g id="edge9" class="edge">
<title>Node32&#45;&gt;Node41</title>
<path fill="none" stroke="midnightblue" d="M63.73,-201.56C79,-184.03 104.89,-157.58 133,-143 140.42,-139.15 148.6,-136.08 156.87,-133.62"/>
<polygon fill="midnightblue" stroke="midnightblue" points="60.92,-199.46 57.12,-209.35 66.26,-203.99 60.92,-199.46"/>
</g>
<!-- Node42 -->
<g id="node11" class="node">
<title>Node42</title>
<g id="a_node11"><a xlink:href="classGlgTurboGui_1_1InputListener.html" target="_top" xlink:title=" ">
<polygon fill="white" stroke="black" points="148,-76.5 148,-95.5 291,-95.5 291,-76.5 148,-76.5"/>
<text text-anchor="middle" x="219.5" y="-83.5" font-family="Helvetica,sans-Serif" font-size="10.00">GlgTurboGui.InputListener</text>
</a>
</g>
</g>
<!-- Node32&#45;&gt;Node42 -->
<g id="edge10" class="edge">
<title>Node32&#45;&gt;Node42</title>
<path fill="none" stroke="midnightblue" d="M57.97,-200.11C70.52,-174.38 96.55,-128.81 133,-105 138.86,-101.17 145.37,-98.11 152.11,-95.66"/>
<polygon fill="midnightblue" stroke="midnightblue" points="54.78,-198.67 53.69,-209.21 61.11,-201.65 54.78,-198.67"/>
</g>
<!-- Node43 -->
<g id="node12" class="node">
<title>Node43</title>
<g id="a_node12"><a xlink:href="classGlgValveGui_1_1InputListener.html" target="_top" xlink:title=" ">
<polygon fill="white" stroke="black" points="148,-38.5 148,-57.5 291,-57.5 291,-38.5 148,-38.5"/>
<text text-anchor="middle" x="219.5" y="-45.5" font-family="Helvetica,sans-Serif" font-size="10.00">GlgValveGui.InputListener</text>
</a>
</g>
</g>
<!-- Node32&#45;&gt;Node43 -->
<g id="edge11" class="edge">
<title>Node32&#45;&gt;Node43</title>
<path fill="none" stroke="midnightblue" d="M54.49,-199.59C63.97,-166.86 87.77,-100.92 133,-67 138.11,-63.17 143.84,-60.08 149.86,-57.6"/>
<polygon fill="midnightblue" stroke="midnightblue" points="51.09,-198.76 51.82,-209.33 57.84,-200.61 51.09,-198.76"/>
</g>
<!-- Node44 -->
<g id="node13" class="node">
<title>Node44</title>
<g id="a_node13"><a xlink:href="classGlgXGSGaugeGui_1_1InputListener.html" target="_top" xlink:title=" ">
<polygon fill="white" stroke="black" points="135.5,-0.5 135.5,-19.5 303.5,-19.5 303.5,-0.5 135.5,-0.5"/>
<text text-anchor="middle" x="219.5" y="-7.5" font-family="Helvetica,sans-Serif" font-size="10.00">GlgXGSGaugeGui.InputListener</text>
</a>
</g>
</g>
<!-- Node32&#45;&gt;Node44 -->
<g id="edge12" class="edge">
<title>Node32&#45;&gt;Node44</title>
<path fill="none" stroke="midnightblue" d="M52.24,-199.24C58.73,-160.29 78.77,-73.55 133,-29 137.7,-25.14 143.02,-22.02 148.65,-19.51"/>
<polygon fill="midnightblue" stroke="midnightblue" points="48.75,-198.87 50.69,-209.29 55.67,-199.94 48.75,-198.87"/>
</g>
</g>
</svg>
