<?xml version="1.0" encoding="UTF-8" standalone="no"?>
<!DOCTYPE svg PUBLIC "-//W3C//DTD SVG 1.1//EN"
 "http://www.w3.org/Graphics/SVG/1.1/DTD/svg11.dtd">
<!-- Generated by graphviz version 2.50.0 (0)
 -->
<!-- Title: Graphical Class Hierarchy Pages: 1 -->
<svg width="444pt" height="218pt"
 viewBox="0.00 0.00 444.00 218.00" xmlns="http://www.w3.org/2000/svg" xmlns:xlink="http://www.w3.org/1999/xlink">
<g id="graph0" class="graph" transform="scale(1 1) rotate(0) translate(4 214)">
<title>Graphical Class Hierarchy</title>
<!-- Node0 -->
<g id="node1" class="node">
<title>Node0</title>
<g id="a_node1"><a xlink:href="interfaceChannelList.html" target="_top" xlink:title=" ">
<polygon fill="none" stroke="black" points="108.5,-190.5 108.5,-209.5 182.5,-209.5 182.5,-190.5 108.5,-190.5"/>
<text text-anchor="middle" x="145.5" y="-197.5" font-family="Helvetica,sans-Serif" font-size="10.00">ChannelList</text>
</a>
</g>
</g>
<!-- Node1 -->
<g id="node2" class="node">
<title>Node1</title>
<g id="a_node2"><a xlink:href="classGlgChildGui.html" target="_top" xlink:title=" ">
<polygon fill="none" stroke="black" points="223,-133.5 223,-152.5 297,-152.5 297,-133.5 223,-133.5"/>
<text text-anchor="middle" x="260" y="-140.5" font-family="Helvetica,sans-Serif" font-size="10.00">GlgChildGui</text>
</a>
</g>
</g>
<!-- Node0&#45;&gt;Node1 -->
<g id="edge1" class="edge">
<title>Node0&#45;&gt;Node1</title>
<path fill="none" stroke="midnightblue" d="M176.69,-186.03C180.18,-184.36 183.68,-182.66 187,-181 187.68,-180.66 219.57,-163.82 240.68,-152.67"/>
<polygon fill="midnightblue" stroke="midnightblue" points="175.15,-182.88 167.61,-190.33 178.15,-189.21 175.15,-182.88"/>
</g>
<!-- Node2 -->
<g id="node3" class="node">
<title>Node2</title>
<g id="a_node3"><a xlink:href="classGlgGui.html" target="_top" xlink:title=" ">
<polygon fill="none" stroke="black" points="235,-171.5 235,-190.5 285,-190.5 285,-171.5 235,-171.5"/>
<text text-anchor="middle" x="260" y="-178.5" font-family="Helvetica,sans-Serif" font-size="10.00">GlgGui</text>
</a>
</g>
</g>
<!-- Node0&#45;&gt;Node2 -->
<g id="edge2" class="edge">
<title>Node0&#45;&gt;Node2</title>
<path fill="none" stroke="midnightblue" d="M192.99,-192.15C207.4,-189.71 222.69,-187.13 234.92,-185.07"/>
<polygon fill="midnightblue" stroke="midnightblue" points="191.99,-188.77 182.71,-193.88 193.16,-195.67 191.99,-188.77"/>
</g>
<!-- Node5 -->
<g id="node4" class="node">
<title>Node5</title>
<g id="a_node4"><a xlink:href="interfaceDataTypes.html" target="_top" xlink:title=" ">
<polygon fill="none" stroke="black" points="0,-38.5 0,-57.5 68,-57.5 68,-38.5 0,-38.5"/>
<text text-anchor="middle" x="34" y="-45.5" font-family="Helvetica,sans-Serif" font-size="10.00">DataTypes</text>
</a>
</g>
</g>
<!-- Node6 -->
<g id="node5" class="node">
<title>Node6</title>
<g id="a_node5"><a xlink:href="classDataElement.html" target="_top" xlink:title=" ">
<polygon fill="none" stroke="black" points="105.5,-0.5 105.5,-19.5 185.5,-19.5 185.5,-0.5 105.5,-0.5"/>
<text text-anchor="middle" x="145.5" y="-7.5" font-family="Helvetica,sans-Serif" font-size="10.00">DataElement</text>
</a>
</g>
</g>
<!-- Node5&#45;&gt;Node6 -->
<g id="edge3" class="edge">
<title>Node5&#45;&gt;Node6</title>
<path fill="none" stroke="midnightblue" d="M72.38,-35.03C86.97,-29.97 103.39,-24.27 116.88,-19.59"/>
<polygon fill="midnightblue" stroke="midnightblue" points="70.93,-31.83 62.63,-38.41 73.23,-38.44 70.93,-31.83"/>
</g>
<!-- Node7 -->
<g id="node6" class="node">
<title>Node7</title>
<g id="a_node6"><a xlink:href="classDataManager.html" target="_top" xlink:title=" ">
<polygon fill="none" stroke="black" points="104,-38.5 104,-57.5 187,-57.5 187,-38.5 104,-38.5"/>
<text text-anchor="middle" x="145.5" y="-45.5" font-family="Helvetica,sans-Serif" font-size="10.00">DataManager</text>
</a>
</g>
</g>
<!-- Node5&#45;&gt;Node7 -->
<g id="edge4" class="edge">
<title>Node5&#45;&gt;Node7</title>
<path fill="none" stroke="midnightblue" d="M78.17,-48C86.59,-48 95.39,-48 103.72,-48"/>
<polygon fill="midnightblue" stroke="midnightblue" points="78.15,-44.5 68.15,-48 78.15,-51.5 78.15,-44.5"/>
</g>
<!-- Node8 -->
<g id="node7" class="node">
<title>Node8</title>
<g id="a_node7"><a xlink:href="classDevice.html" target="_top" xlink:title=" ">
<polygon fill="none" stroke="black" points="235,-76.5 235,-95.5 285,-95.5 285,-76.5 235,-76.5"/>
<text text-anchor="middle" x="260" y="-83.5" font-family="Helvetica,sans-Serif" font-size="10.00">Device</text>
</a>
</g>
</g>
<!-- Node5&#45;&gt;Node8 -->
<g id="edge8" class="edge">
<title>Node5&#45;&gt;Node8</title>
<path fill="none" stroke="midnightblue" d="M75.76,-60.29C84.99,-62.77 94.78,-65.18 104,-67 149.88,-76.08 204.3,-81.55 234.93,-84.15"/>
<polygon fill="midnightblue" stroke="midnightblue" points="76.6,-56.89 66.03,-57.59 74.73,-63.63 76.6,-56.89"/>
</g>
<!-- Node7&#45;&gt;Node8 -->
<g id="edge5" class="edge">
<title>Node7&#45;&gt;Node8</title>
<path fill="none" stroke="midnightblue" d="M184.37,-60.79C201.03,-66.42 220.12,-72.87 234.81,-77.83"/>
<polygon fill="midnightblue" stroke="midnightblue" points="185.48,-57.47 174.89,-57.59 183.24,-64.11 185.48,-57.47"/>
</g>
<!-- Node9 -->
<g id="node8" class="node">
<title>Node9</title>
<g id="a_node8"><a xlink:href="classSupervisorClient.html" target="_top" xlink:title=" ">
<polygon fill="none" stroke="black" points="336,-95.5 336,-114.5 433,-114.5 433,-95.5 336,-95.5"/>
<text text-anchor="middle" x="384.5" y="-102.5" font-family="Helvetica,sans-Serif" font-size="10.00">SupervisorClient</text>
</a>
</g>
</g>
<!-- Node8&#45;&gt;Node9 -->
<g id="edge6" class="edge">
<title>Node8&#45;&gt;Node9</title>
<path fill="none" stroke="midnightblue" d="M295.24,-91.31C307.8,-93.26 322.25,-95.5 335.78,-97.6"/>
<polygon fill="midnightblue" stroke="midnightblue" points="295.62,-87.83 285.2,-89.75 294.55,-94.75 295.62,-87.83"/>
</g>
<!-- Node10 -->
<g id="node9" class="node">
<title>Node10</title>
<g id="a_node9"><a xlink:href="classSupervisorClient2.html" target="_top" xlink:title=" ">
<polygon fill="none" stroke="black" points="333,-57.5 333,-76.5 436,-76.5 436,-57.5 333,-57.5"/>
<text text-anchor="middle" x="384.5" y="-64.5" font-family="Helvetica,sans-Serif" font-size="10.00">SupervisorClient2</text>
</a>
</g>
</g>
<!-- Node8&#45;&gt;Node10 -->
<g id="edge7" class="edge">
<title>Node8&#45;&gt;Node10</title>
<path fill="none" stroke="midnightblue" d="M295.34,-80.67C306.94,-78.87 320.15,-76.83 332.75,-74.87"/>
<polygon fill="midnightblue" stroke="midnightblue" points="294.55,-77.25 285.2,-82.25 295.62,-84.17 294.55,-77.25"/>
</g>
<!-- Node14 -->
<g id="node10" class="node">
<title>Node14</title>
<g id="a_node10"><a xlink:title=" ">
<polygon fill="none" stroke="#bfbfbf" points="114.5,-114.5 114.5,-133.5 176.5,-133.5 176.5,-114.5 114.5,-114.5"/>
<text text-anchor="middle" x="145.5" y="-121.5" font-family="Helvetica,sans-Serif" font-size="10.00">Runnable</text>
</a>
</g>
</g>
<!-- Node14&#45;&gt;Node1 -->
<g id="edge10" class="edge">
<title>Node14&#45;&gt;Node1</title>
<path fill="none" stroke="midnightblue" d="M186.67,-130.78C198.45,-132.77 211.24,-134.93 222.76,-136.88"/>
<polygon fill="midnightblue" stroke="midnightblue" points="187.09,-127.31 176.65,-129.09 185.93,-134.21 187.09,-127.31"/>
</g>
<!-- Node14&#45;&gt;Node2 -->
<g id="edge11" class="edge">
<title>Node14&#45;&gt;Node2</title>
<path fill="none" stroke="midnightblue" d="M176.69,-137.97C180.18,-139.64 183.68,-141.34 187,-143 187.68,-143.34 219.57,-160.18 240.68,-171.33"/>
<polygon fill="midnightblue" stroke="midnightblue" points="178.15,-134.79 167.61,-133.67 175.15,-141.12 178.15,-134.79"/>
</g>
<!-- Node14&#45;&gt;Node8 -->
<g id="edge9" class="edge">
<title>Node14&#45;&gt;Node8</title>
<path fill="none" stroke="midnightblue" d="M184.37,-111.21C201.03,-105.58 220.12,-99.13 234.81,-94.17"/>
<polygon fill="midnightblue" stroke="midnightblue" points="183.24,-107.89 174.89,-114.41 185.48,-114.53 183.24,-107.89"/>
</g>
<!-- Node15 -->
<g id="node11" class="node">
<title>Node15</title>
<g id="a_node11"><a xlink:title=" ">
<polygon fill="none" stroke="#bfbfbf" points="120.5,-152.5 120.5,-171.5 170.5,-171.5 170.5,-152.5 120.5,-152.5"/>
<text text-anchor="middle" x="145.5" y="-159.5" font-family="Helvetica,sans-Serif" font-size="10.00">JFrame</text>
</a>
</g>
</g>
<!-- Node15&#45;&gt;Node1 -->
<g id="edge12" class="edge">
<title>Node15&#45;&gt;Node1</title>
<path fill="none" stroke="midnightblue" d="M180.84,-156.2C194.17,-153.95 209.44,-151.37 222.93,-149.09"/>
<polygon fill="midnightblue" stroke="midnightblue" points="179.91,-152.81 170.63,-157.92 181.08,-159.71 179.91,-152.81"/>
</g>
<!-- Node15&#45;&gt;Node2 -->
<g id="edge13" class="edge">
<title>Node15&#45;&gt;Node2</title>
<path fill="none" stroke="midnightblue" d="M180.5,-167.74C198.05,-170.71 219.05,-174.25 234.91,-176.93"/>
<polygon fill="midnightblue" stroke="midnightblue" points="181.08,-164.29 170.63,-166.08 179.91,-171.19 181.08,-164.29"/>
</g>
</g>
</svg>
