<?xml version="1.0" encoding="UTF-8" standalone="no"?>
<!DOCTYPE svg PUBLIC "-//W3C//DTD SVG 1.1//EN"
 "http://www.w3.org/Graphics/SVG/1.1/DTD/svg11.dtd">
<!-- Generated by graphviz version 2.50.0 (0)
 -->
<!-- Title: Device Pages: 1 -->
<svg width="236pt" height="196pt"
 viewBox="0.00 0.00 236.00 196.00" xmlns="http://www.w3.org/2000/svg" xmlns:xlink="http://www.w3.org/1999/xlink">
<g id="graph0" class="graph" transform="scale(1 1) rotate(0) translate(4 192)">
<title>Device</title>
<!-- Node1 -->
<g id="node1" class="node">
<title>Node1</title>
<g id="a_node1"><a xlink:title=" ">
<polygon fill="#bfbfbf" stroke="black" points="81,-56.5 81,-75.5 131,-75.5 131,-56.5 81,-56.5"/>
<text text-anchor="middle" x="106" y="-63.5" font-family="Helvetica,sans-Serif" font-size="10.00">Device</text>
</a>
</g>
</g>
<!-- Node5 -->
<g id="node5" class="node">
<title>Node5</title>
<g id="a_node5"><a xlink:href="classDS2438.html" target="_top" xlink:title=" ">
<polygon fill="none" stroke="black" points="0,-0.5 0,-19.5 54,-19.5 54,-0.5 0,-0.5"/>
<text text-anchor="middle" x="27" y="-7.5" font-family="Helvetica,sans-Serif" font-size="10.00">DS2438</text>
</a>
</g>
</g>
<!-- Node1&#45;&gt;Node5 -->
<g id="edge5" class="edge">
<title>Node1&#45;&gt;Node5</title>
<path fill="none" stroke="midnightblue" d="M84.97,-50.62C70.53,-40.76 51.86,-27.99 39.66,-19.65"/>
<polygon fill="midnightblue" stroke="midnightblue" points="83.08,-53.57 93.31,-56.32 87.03,-47.79 83.08,-53.57"/>
</g>
<!-- Node6 -->
<g id="node6" class="node">
<title>Node6</title>
<g id="a_node6"><a xlink:href="classIntesisBox.html" target="_top" xlink:title=" ">
<polygon fill="none" stroke="black" points="72,-0.5 72,-19.5 140,-19.5 140,-0.5 72,-0.5"/>
<text text-anchor="middle" x="106" y="-7.5" font-family="Helvetica,sans-Serif" font-size="10.00">IntesisBox</text>
</a>
</g>
</g>
<!-- Node1&#45;&gt;Node6 -->
<g id="edge6" class="edge">
<title>Node1&#45;&gt;Node6</title>
<path fill="none" stroke="midnightblue" d="M106,-45.8C106,-36.91 106,-26.78 106,-19.75"/>
<polygon fill="midnightblue" stroke="midnightblue" points="102.5,-46.08 106,-56.08 109.5,-46.08 102.5,-46.08"/>
</g>
<!-- Node7 -->
<g id="node7" class="node">
<title>Node7</title>
<g id="a_node7"><a xlink:href="classPWM.html" target="_top" xlink:title=" ">
<polygon fill="none" stroke="black" points="158.5,-0.5 158.5,-19.5 199.5,-19.5 199.5,-0.5 158.5,-0.5"/>
<text text-anchor="middle" x="179" y="-7.5" font-family="Helvetica,sans-Serif" font-size="10.00">PWM</text>
</a>
</g>
</g>
<!-- Node1&#45;&gt;Node7 -->
<g id="edge7" class="edge">
<title>Node1&#45;&gt;Node7</title>
<path fill="none" stroke="midnightblue" d="M126.14,-50.1C139.28,-40.38 155.98,-28.03 167.06,-19.83"/>
<polygon fill="midnightblue" stroke="midnightblue" points="123.69,-47.56 117.73,-56.32 127.85,-53.19 123.69,-47.56"/>
</g>
<!-- Node2 -->
<g id="node2" class="node">
<title>Node2</title>
<g id="a_node2"><a xlink:href="classDataManager.html" target="_top" xlink:title=" ">
<polygon fill="none" stroke="black" points="64.5,-112.5 64.5,-131.5 147.5,-131.5 147.5,-112.5 64.5,-112.5"/>
<text text-anchor="middle" x="106" y="-119.5" font-family="Helvetica,sans-Serif" font-size="10.00">DataManager</text>
</a>
</g>
</g>
<!-- Node2&#45;&gt;Node1 -->
<g id="edge1" class="edge">
<title>Node2&#45;&gt;Node1</title>
<path fill="none" stroke="midnightblue" d="M106,-101.8C106,-92.91 106,-82.78 106,-75.75"/>
<polygon fill="midnightblue" stroke="midnightblue" points="102.5,-102.08 106,-112.08 109.5,-102.08 102.5,-102.08"/>
</g>
<!-- Node3 -->
<g id="node3" class="node">
<title>Node3</title>
<g id="a_node3"><a xlink:href="interfaceDataTypes.html" target="_top" xlink:title=" ">
<polygon fill="none" stroke="black" points="37,-168.5 37,-187.5 105,-187.5 105,-168.5 37,-168.5"/>
<text text-anchor="middle" x="71" y="-175.5" font-family="Helvetica,sans-Serif" font-size="10.00">DataTypes</text>
</a>
</g>
</g>
<!-- Node3&#45;&gt;Node1 -->
<g id="edge4" class="edge">
<title>Node3&#45;&gt;Node1</title>
<path fill="none" stroke="midnightblue" d="M60.46,-159.16C53.99,-145.77 48.14,-127.19 55,-112 62.19,-96.07 78.11,-83.52 90.27,-75.76"/>
<polygon fill="midnightblue" stroke="midnightblue" points="57.53,-161.09 65.33,-168.26 63.7,-157.79 57.53,-161.09"/>
</g>
<!-- Node3&#45;&gt;Node2 -->
<g id="edge2" class="edge">
<title>Node3&#45;&gt;Node2</title>
<path fill="none" stroke="midnightblue" d="M82.3,-159.57C88.32,-150.27 95.47,-139.25 100.33,-131.75"/>
<polygon fill="midnightblue" stroke="midnightblue" points="79.28,-157.79 76.78,-168.08 85.16,-161.6 79.28,-157.79"/>
</g>
<!-- Node4 -->
<g id="node4" class="node">
<title>Node4</title>
<g id="a_node4"><a xlink:title=" ">
<polygon fill="none" stroke="#bfbfbf" points="166,-112.5 166,-131.5 228,-131.5 228,-112.5 166,-112.5"/>
<text text-anchor="middle" x="197" y="-119.5" font-family="Helvetica,sans-Serif" font-size="10.00">Runnable</text>
</a>
</g>
</g>
<!-- Node4&#45;&gt;Node1 -->
<g id="edge3" class="edge">
<title>Node4&#45;&gt;Node1</title>
<path fill="none" stroke="midnightblue" d="M173.71,-107.18C156.96,-97.24 134.9,-84.15 120.58,-75.65"/>
<polygon fill="midnightblue" stroke="midnightblue" points="171.99,-110.23 182.38,-112.32 175.57,-104.21 171.99,-110.23"/>
</g>
</g>
</svg>
