<?xml version="1.0" encoding="UTF-8" standalone="no"?>
<!DOCTYPE svg PUBLIC "-//W3C//DTD SVG 1.1//EN"
 "http://www.w3.org/Graphics/SVG/1.1/DTD/svg11.dtd">
<!-- Generated by graphviz version 2.50.0 (0)
 -->
<!-- Title: Device Pages: 1 -->
<svg width="419pt" height="196pt"
 viewBox="0.00 0.00 418.50 196.00" xmlns="http://www.w3.org/2000/svg" xmlns:xlink="http://www.w3.org/1999/xlink">
<g id="graph0" class="graph" transform="scale(1 1) rotate(0) translate(4 192)">
<title>Device</title>
<polygon fill="white" stroke="transparent" points="-4,4 -4,-192 414.5,-192 414.5,4 -4,4"/>
<!-- Node1 -->
<g id="node1" class="node">
<title>Node1</title>
<g id="a_node1"><a xlink:title=" ">
<polygon fill="#bfbfbf" stroke="black" points="172.5,-56.5 172.5,-75.5 222.5,-75.5 222.5,-56.5 172.5,-56.5"/>
<text text-anchor="middle" x="197.5" y="-63.5" font-family="Helvetica,sans-Serif" font-size="10.00">Device</text>
</a>
</g>
</g>
<!-- Node5 -->
<g id="node5" class="node">
<title>Node5</title>
<g id="a_node5"><a xlink:href="classControllino__1.html" target="_top" xlink:title=" ">
<polygon fill="white" stroke="black" points="0,-0.5 0,-19.5 81,-19.5 81,-0.5 0,-0.5"/>
<text text-anchor="middle" x="40.5" y="-7.5" font-family="Helvetica,sans-Serif" font-size="10.00">Controllino_1</text>
</a>
</g>
</g>
<!-- Node1&#45;&gt;Node5 -->
<g id="edge5" class="edge">
<title>Node1&#45;&gt;Node5</title>
<path fill="none" stroke="midnightblue" d="M163.11,-53.17C133.55,-43 91.63,-28.59 65.26,-19.52"/>
<polygon fill="midnightblue" stroke="midnightblue" points="162.03,-56.5 172.62,-56.44 164.3,-49.88 162.03,-56.5"/>
</g>
<!-- Node6 -->
<g id="node6" class="node">
<title>Node6</title>
<g id="a_node6"><a xlink:href="classControllino__3.html" target="_top" xlink:title=" ">
<polygon fill="white" stroke="black" points="99,-0.5 99,-19.5 180,-19.5 180,-0.5 99,-0.5"/>
<text text-anchor="middle" x="139.5" y="-7.5" font-family="Helvetica,sans-Serif" font-size="10.00">Controllino_3</text>
</a>
</g>
</g>
<!-- Node1&#45;&gt;Node6 -->
<g id="edge6" class="edge">
<title>Node1&#45;&gt;Node6</title>
<path fill="none" stroke="midnightblue" d="M180.59,-49.25C170.3,-39.67 157.53,-27.79 148.99,-19.83"/>
<polygon fill="midnightblue" stroke="midnightblue" points="178.48,-52.07 188.18,-56.32 183.25,-46.95 178.48,-52.07"/>
</g>
<!-- Node7 -->
<g id="node7" class="node">
<title>Node7</title>
<g id="a_node7"><a xlink:href="classPCounterMasterRTU.html" target="_top" xlink:title=" ">
<polygon fill="white" stroke="black" points="198.5,-0.5 198.5,-19.5 312.5,-19.5 312.5,-0.5 198.5,-0.5"/>
<text text-anchor="middle" x="255.5" y="-7.5" font-family="Helvetica,sans-Serif" font-size="10.00">PCounterMasterRTU</text>
</a>
</g>
</g>
<!-- Node1&#45;&gt;Node7 -->
<g id="edge7" class="edge">
<title>Node1&#45;&gt;Node7</title>
<path fill="none" stroke="midnightblue" d="M214.41,-49.25C224.7,-39.67 237.47,-27.79 246.01,-19.83"/>
<polygon fill="midnightblue" stroke="midnightblue" points="211.75,-46.95 206.82,-56.32 216.52,-52.07 211.75,-46.95"/>
</g>
<!-- Node8 -->
<g id="node8" class="node">
<title>Node8</title>
<g id="a_node8"><a xlink:href="classTCMuxShield.html" target="_top" xlink:title=" ">
<polygon fill="white" stroke="black" points="330.5,-0.5 330.5,-19.5 410.5,-19.5 410.5,-0.5 330.5,-0.5"/>
<text text-anchor="middle" x="370.5" y="-7.5" font-family="Helvetica,sans-Serif" font-size="10.00">TCMuxShield</text>
</a>
</g>
</g>
<!-- Node1&#45;&gt;Node8 -->
<g id="edge8" class="edge">
<title>Node1&#45;&gt;Node8</title>
<path fill="none" stroke="midnightblue" d="M232.24,-54.16C264.86,-43.97 313.01,-28.95 343.03,-19.58"/>
<polygon fill="midnightblue" stroke="midnightblue" points="231.16,-50.83 222.66,-57.15 233.24,-57.51 231.16,-50.83"/>
</g>
<!-- Node2 -->
<g id="node2" class="node">
<title>Node2</title>
<g id="a_node2"><a xlink:href="classDataManager.html" target="_top" xlink:title=" ">
<polygon fill="white" stroke="black" points="156,-112.5 156,-131.5 239,-131.5 239,-112.5 156,-112.5"/>
<text text-anchor="middle" x="197.5" y="-119.5" font-family="Helvetica,sans-Serif" font-size="10.00">DataManager</text>
</a>
</g>
</g>
<!-- Node2&#45;&gt;Node1 -->
<g id="edge1" class="edge">
<title>Node2&#45;&gt;Node1</title>
<path fill="none" stroke="midnightblue" d="M197.5,-101.8C197.5,-92.91 197.5,-82.78 197.5,-75.75"/>
<polygon fill="midnightblue" stroke="midnightblue" points="194,-102.08 197.5,-112.08 201,-102.08 194,-102.08"/>
</g>
<!-- Node3 -->
<g id="node3" class="node">
<title>Node3</title>
<g id="a_node3"><a xlink:href="interfaceDataTypes.html" target="_top" xlink:title=" ">
<polygon fill="white" stroke="black" points="128.5,-168.5 128.5,-187.5 196.5,-187.5 196.5,-168.5 128.5,-168.5"/>
<text text-anchor="middle" x="162.5" y="-175.5" font-family="Helvetica,sans-Serif" font-size="10.00">DataTypes</text>
</a>
</g>
</g>
<!-- Node3&#45;&gt;Node1 -->
<g id="edge4" class="edge">
<title>Node3&#45;&gt;Node1</title>
<path fill="none" stroke="midnightblue" d="M151.96,-159.16C145.49,-145.77 139.64,-127.19 146.5,-112 153.69,-96.07 169.61,-83.52 181.77,-75.76"/>
<polygon fill="midnightblue" stroke="midnightblue" points="149.03,-161.09 156.83,-168.26 155.2,-157.79 149.03,-161.09"/>
</g>
<!-- Node3&#45;&gt;Node2 -->
<g id="edge2" class="edge">
<title>Node3&#45;&gt;Node2</title>
<path fill="none" stroke="midnightblue" d="M173.8,-159.57C179.82,-150.27 186.97,-139.25 191.83,-131.75"/>
<polygon fill="midnightblue" stroke="midnightblue" points="170.78,-157.79 168.28,-168.08 176.66,-161.6 170.78,-157.79"/>
</g>
<!-- Node4 -->
<g id="node4" class="node">
<title>Node4</title>
<g id="a_node4"><a xlink:title=" ">
<polygon fill="white" stroke="#bfbfbf" points="257.5,-112.5 257.5,-131.5 319.5,-131.5 319.5,-112.5 257.5,-112.5"/>
<text text-anchor="middle" x="288.5" y="-119.5" font-family="Helvetica,sans-Serif" font-size="10.00">Runnable</text>
</a>
</g>
</g>
<!-- Node4&#45;&gt;Node1 -->
<g id="edge3" class="edge">
<title>Node4&#45;&gt;Node1</title>
<path fill="none" stroke="midnightblue" d="M265.21,-107.18C248.46,-97.24 226.4,-84.15 212.08,-75.65"/>
<polygon fill="midnightblue" stroke="midnightblue" points="263.49,-110.23 273.88,-112.32 267.07,-104.21 263.49,-110.23"/>
</g>
</g>
</svg>
