<?xml version="1.0" encoding="UTF-8" standalone="no"?>
<!DOCTYPE svg PUBLIC "-//W3C//DTD SVG 1.1//EN"
 "http://www.w3.org/Graphics/SVG/1.1/DTD/svg11.dtd">
<!-- Generated by graphviz version 2.50.0 (0)
 -->
<!-- Title: Graphical Class Hierarchy Pages: 1 -->
<svg width="579pt" height="332pt"
 viewBox="0.00 0.00 579.00 332.00" xmlns="http://www.w3.org/2000/svg" xmlns:xlink="http://www.w3.org/1999/xlink">
<g id="graph0" class="graph" transform="scale(1 1) rotate(0) translate(4 328)">
<title>Graphical Class Hierarchy</title>
<!-- Node0 -->
<g id="node1" class="node">
<title>Node0</title>
<g id="a_node1"><a xlink:href="interfaceChannelList.html" target="_top" xlink:title=" ">
<polygon fill="none" stroke="black" points="0,-266.5 0,-285.5 74,-285.5 74,-266.5 0,-266.5"/>
<text text-anchor="middle" x="37" y="-273.5" font-family="Helvetica,sans-Serif" font-size="10.00">ChannelList</text>
</a>
</g>
</g>
<!-- Node1 -->
<g id="node2" class="node">
<title>Node1</title>
<g id="a_node2"><a xlink:href="classGlgChildGui.html" target="_top" xlink:title=" ">
<polygon fill="none" stroke="black" points="131,-266.5 131,-285.5 205,-285.5 205,-266.5 131,-266.5"/>
<text text-anchor="middle" x="168" y="-273.5" font-family="Helvetica,sans-Serif" font-size="10.00">GlgChildGui</text>
</a>
</g>
</g>
<!-- Node0&#45;&gt;Node1 -->
<g id="edge1" class="edge">
<title>Node0&#45;&gt;Node1</title>
<path fill="none" stroke="midnightblue" d="M84.58,-276C99.87,-276 116.61,-276 131,-276"/>
<polygon fill="midnightblue" stroke="midnightblue" points="84.28,-272.5 74.28,-276 84.28,-279.5 84.28,-272.5"/>
</g>
<!-- Node5 -->
<g id="node6" class="node">
<title>Node5</title>
<g id="a_node6"><a xlink:href="classGlgGui.html" target="_top" xlink:title=" ">
<polygon fill="none" stroke="black" points="143,-228.5 143,-247.5 193,-247.5 193,-228.5 143,-228.5"/>
<text text-anchor="middle" x="168" y="-235.5" font-family="Helvetica,sans-Serif" font-size="10.00">GlgGui</text>
</a>
</g>
</g>
<!-- Node0&#45;&gt;Node5 -->
<g id="edge5" class="edge">
<title>Node0&#45;&gt;Node5</title>
<path fill="none" stroke="midnightblue" d="M80.36,-263.52C101,-257.44 125.08,-250.35 142.6,-245.19"/>
<polygon fill="midnightblue" stroke="midnightblue" points="79.16,-260.23 70.55,-266.41 81.13,-266.94 79.16,-260.23"/>
</g>
<!-- Node2 -->
<g id="node3" class="node">
<title>Node2</title>
<g id="a_node3"><a xlink:href="classGlgPCounter2Gui.html" target="_top" xlink:title=" ">
<polygon fill="none" stroke="black" points="291.5,-304.5 291.5,-323.5 391.5,-323.5 391.5,-304.5 291.5,-304.5"/>
<text text-anchor="middle" x="341.5" y="-311.5" font-family="Helvetica,sans-Serif" font-size="10.00">GlgPCounter2Gui</text>
</a>
</g>
</g>
<!-- Node1&#45;&gt;Node2 -->
<g id="edge2" class="edge">
<title>Node1&#45;&gt;Node2</title>
<path fill="none" stroke="midnightblue" d="M215.22,-286.24C240.82,-291.91 272.45,-298.92 297.51,-304.48"/>
<polygon fill="midnightblue" stroke="midnightblue" points="215.89,-282.81 205.37,-284.06 214.38,-289.64 215.89,-282.81"/>
</g>
<!-- Node3 -->
<g id="node4" class="node">
<title>Node3</title>
<g id="a_node4"><a xlink:href="classGlgPCounterStatusDetailsGui.html" target="_top" xlink:title=" ">
<polygon fill="none" stroke="black" points="262,-266.5 262,-285.5 421,-285.5 421,-266.5 262,-266.5"/>
<text text-anchor="middle" x="341.5" y="-273.5" font-family="Helvetica,sans-Serif" font-size="10.00">GlgPCounterStatusDetailsGui</text>
</a>
</g>
</g>
<!-- Node1&#45;&gt;Node3 -->
<g id="edge3" class="edge">
<title>Node1&#45;&gt;Node3</title>
<path fill="none" stroke="midnightblue" d="M215.44,-276C229.77,-276 245.97,-276 261.84,-276"/>
<polygon fill="midnightblue" stroke="midnightblue" points="215.37,-272.5 205.37,-276 215.37,-279.5 215.37,-272.5"/>
</g>
<!-- Node4 -->
<g id="node5" class="node">
<title>Node4</title>
<g id="a_node5"><a xlink:href="classGlgPCounterTempGui.html" target="_top" xlink:title=" ">
<polygon fill="none" stroke="black" points="281.5,-228.5 281.5,-247.5 401.5,-247.5 401.5,-228.5 281.5,-228.5"/>
<text text-anchor="middle" x="341.5" y="-235.5" font-family="Helvetica,sans-Serif" font-size="10.00">GlgPCounterTempGui</text>
</a>
</g>
</g>
<!-- Node1&#45;&gt;Node4 -->
<g id="edge4" class="edge">
<title>Node1&#45;&gt;Node4</title>
<path fill="none" stroke="midnightblue" d="M215.22,-265.76C240.82,-260.09 272.45,-253.08 297.51,-247.52"/>
<polygon fill="midnightblue" stroke="midnightblue" points="214.38,-262.36 205.37,-267.94 215.89,-269.19 214.38,-262.36"/>
</g>
<!-- Node10 -->
<g id="node7" class="node">
<title>Node10</title>
<g id="a_node7"><a xlink:href="interfaceDataTypes.html" target="_top" xlink:title=" ">
<polygon fill="none" stroke="black" points="3,-114.5 3,-133.5 71,-133.5 71,-114.5 3,-114.5"/>
<text text-anchor="middle" x="37" y="-121.5" font-family="Helvetica,sans-Serif" font-size="10.00">DataTypes</text>
</a>
</g>
</g>
<!-- Node10&#45;&gt;Node1 -->
<g id="edge14" class="edge">
<title>Node10&#45;&gt;Node1</title>
<path fill="none" stroke="midnightblue" d="M50.3,-142.22C57.54,-153.25 66.68,-167.7 74,-181 92.01,-213.75 82.03,-232.21 110,-257 115.93,-262.26 123.37,-266.07 130.89,-268.83"/>
<polygon fill="midnightblue" stroke="midnightblue" points="53.2,-140.26 44.75,-133.87 47.37,-144.13 53.2,-140.26"/>
</g>
<!-- Node10&#45;&gt;Node5 -->
<g id="edge15" class="edge">
<title>Node10&#45;&gt;Node5</title>
<path fill="none" stroke="midnightblue" d="M56.69,-140.52C84.01,-164.66 133.97,-208.81 156.03,-228.31"/>
<polygon fill="midnightblue" stroke="midnightblue" points="58.81,-137.72 49,-133.72 54.17,-142.96 58.81,-137.72"/>
</g>
<!-- Node11 -->
<g id="node8" class="node">
<title>Node11</title>
<g id="a_node8"><a xlink:href="classDataElement.html" target="_top" xlink:title=" ">
<polygon fill="none" stroke="black" points="128,-38.5 128,-57.5 208,-57.5 208,-38.5 128,-38.5"/>
<text text-anchor="middle" x="168" y="-45.5" font-family="Helvetica,sans-Serif" font-size="10.00">DataElement</text>
</a>
</g>
</g>
<!-- Node10&#45;&gt;Node11 -->
<g id="edge6" class="edge">
<title>Node10&#45;&gt;Node11</title>
<path fill="none" stroke="midnightblue" d="M57.62,-107.95C71.66,-96.95 91.3,-82.51 110,-72 119.73,-66.53 130.97,-61.54 140.87,-57.55"/>
<polygon fill="midnightblue" stroke="midnightblue" points="55.31,-105.32 49.67,-114.29 59.67,-110.8 55.31,-105.32"/>
</g>
<!-- Node12 -->
<g id="node9" class="node">
<title>Node12</title>
<g id="a_node9"><a xlink:href="classDataManager.html" target="_top" xlink:title=" ">
<polygon fill="none" stroke="black" points="126.5,-0.5 126.5,-19.5 209.5,-19.5 209.5,-0.5 126.5,-0.5"/>
<text text-anchor="middle" x="168" y="-7.5" font-family="Helvetica,sans-Serif" font-size="10.00">DataManager</text>
</a>
</g>
</g>
<!-- Node10&#45;&gt;Node12 -->
<g id="edge7" class="edge">
<title>Node10&#45;&gt;Node12</title>
<path fill="none" stroke="midnightblue" d="M47.59,-105.35C59.48,-83.98 81.69,-49.3 110,-29 115.34,-25.17 121.5,-22.08 127.76,-19.59"/>
<polygon fill="midnightblue" stroke="midnightblue" points="44.38,-103.93 42.73,-114.39 50.54,-107.24 44.38,-103.93"/>
</g>
<!-- Node13 -->
<g id="node10" class="node">
<title>Node13</title>
<g id="a_node10"><a xlink:href="classDevice.html" target="_top" xlink:title=" ">
<polygon fill="none" stroke="black" points="316.5,-76.5 316.5,-95.5 366.5,-95.5 366.5,-76.5 316.5,-76.5"/>
<text text-anchor="middle" x="341.5" y="-83.5" font-family="Helvetica,sans-Serif" font-size="10.00">Device</text>
</a>
</g>
</g>
<!-- Node10&#45;&gt;Node13 -->
<g id="edge13" class="edge">
<title>Node10&#45;&gt;Node13</title>
<path fill="none" stroke="midnightblue" d="M79.04,-111.84C89.09,-109.23 99.87,-106.74 110,-105 184.6,-92.19 274.31,-87.94 316.43,-86.59"/>
<polygon fill="midnightblue" stroke="midnightblue" points="78.03,-108.49 69.28,-114.46 79.85,-115.25 78.03,-108.49"/>
</g>
<!-- Node18 -->
<g id="node15" class="node">
<title>Node18</title>
<g id="a_node15"><a xlink:href="classModbusSlaveThread.html" target="_top" xlink:title=" ">
<polygon fill="none" stroke="black" points="110,-152.5 110,-171.5 226,-171.5 226,-152.5 110,-152.5"/>
<text text-anchor="middle" x="168" y="-159.5" font-family="Helvetica,sans-Serif" font-size="10.00">ModbusSlaveThread</text>
</a>
</g>
</g>
<!-- Node10&#45;&gt;Node18 -->
<g id="edge16" class="edge">
<title>Node10&#45;&gt;Node18</title>
<path fill="none" stroke="midnightblue" d="M80.55,-136.54C98.1,-141.7 118.11,-147.6 134.46,-152.41"/>
<polygon fill="midnightblue" stroke="midnightblue" points="81.13,-133.06 70.55,-133.59 79.16,-139.77 81.13,-133.06"/>
</g>
<!-- Node19 -->
<g id="node16" class="node">
<title>Node19</title>
<g id="a_node16"><a xlink:href="classOperation.html" target="_top" xlink:title=" ">
<polygon fill="none" stroke="black" points="135.5,-114.5 135.5,-133.5 200.5,-133.5 200.5,-114.5 135.5,-114.5"/>
<text text-anchor="middle" x="168" y="-121.5" font-family="Helvetica,sans-Serif" font-size="10.00">Operation</text>
</a>
</g>
</g>
<!-- Node10&#45;&gt;Node19 -->
<g id="edge17" class="edge">
<title>Node10&#45;&gt;Node19</title>
<path fill="none" stroke="midnightblue" d="M81.29,-124C98.94,-124 118.97,-124 135.23,-124"/>
<polygon fill="midnightblue" stroke="midnightblue" points="81.22,-120.5 71.22,-124 81.22,-127.5 81.22,-120.5"/>
</g>
<!-- Node12&#45;&gt;Node13 -->
<g id="edge8" class="edge">
<title>Node12&#45;&gt;Node13</title>
<path fill="none" stroke="midnightblue" d="M210.01,-22.9C215.43,-24.83 220.88,-26.88 226,-29 261.3,-43.59 300.85,-64.3 323.01,-76.33"/>
<polygon fill="midnightblue" stroke="midnightblue" points="210.95,-19.52 200.35,-19.57 208.67,-26.14 210.95,-19.52"/>
</g>
<!-- Node14 -->
<g id="node11" class="node">
<title>Node14</title>
<g id="a_node11"><a xlink:href="classControllino__1.html" target="_top" xlink:title=" ">
<polygon fill="none" stroke="black" points="473.5,-133.5 473.5,-152.5 554.5,-152.5 554.5,-133.5 473.5,-133.5"/>
<text text-anchor="middle" x="514" y="-140.5" font-family="Helvetica,sans-Serif" font-size="10.00">Controllino_1</text>
</a>
</g>
</g>
<!-- Node13&#45;&gt;Node14 -->
<g id="edge9" class="edge">
<title>Node13&#45;&gt;Node14</title>
<path fill="none" stroke="midnightblue" d="M376.27,-97.29C407.92,-107.87 454.7,-123.51 484.51,-133.48"/>
<polygon fill="midnightblue" stroke="midnightblue" points="377.16,-93.9 366.57,-94.05 374.94,-100.54 377.16,-93.9"/>
</g>
<!-- Node15 -->
<g id="node12" class="node">
<title>Node15</title>
<g id="a_node12"><a xlink:href="classControllino__3.html" target="_top" xlink:title=" ">
<polygon fill="none" stroke="black" points="473.5,-95.5 473.5,-114.5 554.5,-114.5 554.5,-95.5 473.5,-95.5"/>
<text text-anchor="middle" x="514" y="-102.5" font-family="Helvetica,sans-Serif" font-size="10.00">Controllino_3</text>
</a>
</g>
</g>
<!-- Node13&#45;&gt;Node15 -->
<g id="edge10" class="edge">
<title>Node13&#45;&gt;Node15</title>
<path fill="none" stroke="midnightblue" d="M376.64,-89.81C404.54,-92.91 444,-97.31 473.3,-100.58"/>
<polygon fill="midnightblue" stroke="midnightblue" points="376.89,-86.31 366.57,-88.68 376.12,-93.27 376.89,-86.31"/>
</g>
<!-- Node16 -->
<g id="node13" class="node">
<title>Node16</title>
<g id="a_node13"><a xlink:href="classPCounterMasterRTU.html" target="_top" xlink:title=" ">
<polygon fill="none" stroke="black" points="457,-57.5 457,-76.5 571,-76.5 571,-57.5 457,-57.5"/>
<text text-anchor="middle" x="514" y="-64.5" font-family="Helvetica,sans-Serif" font-size="10.00">PCounterMasterRTU</text>
</a>
</g>
</g>
<!-- Node13&#45;&gt;Node16 -->
<g id="edge11" class="edge">
<title>Node13&#45;&gt;Node16</title>
<path fill="none" stroke="midnightblue" d="M376.81,-82.18C399.68,-79.63 430.28,-76.22 456.69,-73.28"/>
<polygon fill="midnightblue" stroke="midnightblue" points="376.12,-78.73 366.57,-83.32 376.89,-85.69 376.12,-78.73"/>
</g>
<!-- Node17 -->
<g id="node14" class="node">
<title>Node17</title>
<g id="a_node14"><a xlink:href="classTCMuxShield.html" target="_top" xlink:title=" ">
<polygon fill="none" stroke="black" points="474,-19.5 474,-38.5 554,-38.5 554,-19.5 474,-19.5"/>
<text text-anchor="middle" x="514" y="-26.5" font-family="Helvetica,sans-Serif" font-size="10.00">TCMuxShield</text>
</a>
</g>
</g>
<!-- Node13&#45;&gt;Node17 -->
<g id="edge12" class="edge">
<title>Node13&#45;&gt;Node17</title>
<path fill="none" stroke="midnightblue" d="M376.27,-74.71C407.92,-64.13 454.7,-48.49 484.51,-38.52"/>
<polygon fill="midnightblue" stroke="midnightblue" points="374.94,-71.46 366.57,-77.95 377.16,-78.1 374.94,-71.46"/>
</g>
<!-- Node30 -->
<g id="node17" class="node">
<title>Node30</title>
<g id="a_node17"><a xlink:title=" ">
<polygon fill="none" stroke="#bfbfbf" points="6,-190.5 6,-209.5 68,-209.5 68,-190.5 6,-190.5"/>
<text text-anchor="middle" x="37" y="-197.5" font-family="Helvetica,sans-Serif" font-size="10.00">Runnable</text>
</a>
</g>
</g>
<!-- Node30&#45;&gt;Node1 -->
<g id="edge19" class="edge">
<title>Node30&#45;&gt;Node1</title>
<path fill="none" stroke="midnightblue" d="M67.6,-214.59C69.82,-215.99 71.98,-217.47 74,-219 92.53,-233.06 90.38,-244.5 110,-257 116.33,-261.03 123.62,-264.3 130.81,-266.92"/>
<polygon fill="midnightblue" stroke="midnightblue" points="69.3,-211.53 58.89,-209.55 65.79,-217.58 69.3,-211.53"/>
</g>
<!-- Node30&#45;&gt;Node5 -->
<g id="edge20" class="edge">
<title>Node30&#45;&gt;Node5</title>
<path fill="none" stroke="midnightblue" d="M78,-211.78C99.28,-218.05 124.74,-225.55 142.97,-230.92"/>
<polygon fill="midnightblue" stroke="midnightblue" points="78.83,-208.38 68.24,-208.91 76.85,-215.09 78.83,-208.38"/>
</g>
<!-- Node30&#45;&gt;Node13 -->
<g id="edge18" class="edge">
<title>Node30&#45;&gt;Node13</title>
<path fill="none" stroke="midnightblue" d="M78.53,-202.58C117.77,-203.57 178.19,-201.03 226,-181 272.93,-161.34 315.44,-115.68 332.54,-95.68"/>
<polygon fill="midnightblue" stroke="midnightblue" points="78.41,-199.08 68.3,-202.23 78.17,-206.07 78.41,-199.08"/>
</g>
<!-- Node30&#45;&gt;Node18 -->
<g id="edge21" class="edge">
<title>Node30&#45;&gt;Node18</title>
<path fill="none" stroke="midnightblue" d="M78.01,-188.22C96.23,-182.85 117.51,-176.58 134.69,-171.52"/>
<polygon fill="midnightblue" stroke="midnightblue" points="76.85,-184.91 68.24,-191.09 78.83,-191.62 76.85,-184.91"/>
</g>
<!-- Node30&#45;&gt;Node19 -->
<g id="edge22" class="edge">
<title>Node30&#45;&gt;Node19</title>
<path fill="none" stroke="midnightblue" d="M55.27,-183.46C69.14,-170.93 89.6,-154.03 110,-143 117.89,-138.73 126.91,-135.19 135.42,-132.36"/>
<polygon fill="midnightblue" stroke="midnightblue" points="52.88,-180.9 47.92,-190.26 57.64,-186.04 52.88,-180.9"/>
</g>
<!-- Node39 -->
<g id="node18" class="node">
<title>Node39</title>
<g id="a_node18"><a xlink:title=" ">
<polygon fill="none" stroke="#bfbfbf" points="12,-228.5 12,-247.5 62,-247.5 62,-228.5 12,-228.5"/>
<text text-anchor="middle" x="37" y="-235.5" font-family="Helvetica,sans-Serif" font-size="10.00">JFrame</text>
</a>
</g>
</g>
<!-- Node39&#45;&gt;Node1 -->
<g id="edge23" class="edge">
<title>Node39&#45;&gt;Node1</title>
<path fill="none" stroke="midnightblue" d="M71.91,-247.99C91.28,-253.69 115.44,-260.81 134.56,-266.44"/>
<polygon fill="midnightblue" stroke="midnightblue" points="72.85,-244.62 62.26,-245.15 70.87,-251.33 72.85,-244.62"/>
</g>
<!-- Node39&#45;&gt;Node5 -->
<g id="edge24" class="edge">
<title>Node39&#45;&gt;Node5</title>
<path fill="none" stroke="midnightblue" d="M72.31,-238C94.54,-238 122.97,-238 142.84,-238"/>
<polygon fill="midnightblue" stroke="midnightblue" points="72.26,-234.5 62.26,-238 72.26,-241.5 72.26,-234.5"/>
</g>
</g>
</svg>
