<?xml version="1.0" encoding="UTF-8" standalone="no"?>
<!DOCTYPE svg PUBLIC "-//W3C//DTD SVG 1.1//EN"
 "http://www.w3.org/Graphics/SVG/1.1/DTD/svg11.dtd">
<!-- Generated by graphviz version 2.50.0 (0)
 -->
<!-- Title: DataTypes Pages: 1 -->
<svg width="665pt" height="196pt"
 viewBox="0.00 0.00 664.50 196.00" xmlns="http://www.w3.org/2000/svg" xmlns:xlink="http://www.w3.org/1999/xlink">
<g id="graph0" class="graph" transform="scale(1 1) rotate(0) translate(4 192)">
<title>DataTypes</title>
<polygon fill="white" stroke="transparent" points="-4,4 -4,-192 660.5,-192 660.5,4 -4,4"/>
<!-- Node1 -->
<g id="node1" class="node">
<title>Node1</title>
<g id="a_node1"><a xlink:title=" ">
<polygon fill="#bfbfbf" stroke="black" points="298.5,-168.5 298.5,-187.5 366.5,-187.5 366.5,-168.5 298.5,-168.5"/>
<text text-anchor="middle" x="332.5" y="-175.5" font-family="Helvetica,sans-Serif" font-size="10.00">DataTypes</text>
</a>
</g>
</g>
<!-- Node2 -->
<g id="node2" class="node">
<title>Node2</title>
<g id="a_node2"><a xlink:href="classDataElement.html" target="_top" xlink:title=" ">
<polygon fill="white" stroke="black" points="57.5,-112.5 57.5,-131.5 137.5,-131.5 137.5,-112.5 57.5,-112.5"/>
<text text-anchor="middle" x="97.5" y="-119.5" font-family="Helvetica,sans-Serif" font-size="10.00">DataElement</text>
</a>
</g>
</g>
<!-- Node1&#45;&gt;Node2 -->
<g id="edge1" class="edge">
<title>Node1&#45;&gt;Node2</title>
<path fill="none" stroke="midnightblue" d="M288.42,-166.87C244.11,-156.69 176.56,-141.17 134.82,-131.58"/>
<polygon fill="midnightblue" stroke="midnightblue" points="287.8,-170.32 298.33,-169.15 289.37,-163.5 287.8,-170.32"/>
</g>
<!-- Node3 -->
<g id="node3" class="node">
<title>Node3</title>
<g id="a_node3"><a xlink:href="classDataManager.html" target="_top" xlink:title=" ">
<polygon fill="white" stroke="black" points="156,-112.5 156,-131.5 239,-131.5 239,-112.5 156,-112.5"/>
<text text-anchor="middle" x="197.5" y="-119.5" font-family="Helvetica,sans-Serif" font-size="10.00">DataManager</text>
</a>
</g>
</g>
<!-- Node1&#45;&gt;Node3 -->
<g id="edge2" class="edge">
<title>Node1&#45;&gt;Node3</title>
<path fill="none" stroke="midnightblue" d="M301.59,-164.64C276.26,-154.5 241.07,-140.43 218.79,-131.52"/>
<polygon fill="midnightblue" stroke="midnightblue" points="300.52,-167.98 311.11,-168.44 303.12,-161.48 300.52,-167.98"/>
</g>
<!-- Node4 -->
<g id="node4" class="node">
<title>Node4</title>
<g id="a_node4"><a xlink:href="classDevice.html" target="_top" xlink:title=" ">
<polygon fill="white" stroke="black" points="172.5,-56.5 172.5,-75.5 222.5,-75.5 222.5,-56.5 172.5,-56.5"/>
<text text-anchor="middle" x="197.5" y="-63.5" font-family="Helvetica,sans-Serif" font-size="10.00">Device</text>
</a>
</g>
</g>
<!-- Node1&#45;&gt;Node4 -->
<g id="edge8" class="edge">
<title>Node1&#45;&gt;Node4</title>
<path fill="none" stroke="midnightblue" d="M313.86,-161.82C285.11,-138.39 230.87,-94.19 208.04,-75.59"/>
<polygon fill="midnightblue" stroke="midnightblue" points="311.94,-164.77 321.91,-168.37 316.37,-159.34 311.94,-164.77"/>
</g>
<!-- Node9 -->
<g id="node9" class="node">
<title>Node9</title>
<g id="a_node9"><a xlink:href="classGlgChildGui.html" target="_top" xlink:title=" ">
<polygon fill="white" stroke="black" points="295.5,-112.5 295.5,-131.5 369.5,-131.5 369.5,-112.5 295.5,-112.5"/>
<text text-anchor="middle" x="332.5" y="-119.5" font-family="Helvetica,sans-Serif" font-size="10.00">GlgChildGui</text>
</a>
</g>
</g>
<!-- Node1&#45;&gt;Node9 -->
<g id="edge9" class="edge">
<title>Node1&#45;&gt;Node9</title>
<path fill="none" stroke="midnightblue" d="M332.5,-157.8C332.5,-148.91 332.5,-138.78 332.5,-131.75"/>
<polygon fill="midnightblue" stroke="midnightblue" points="329,-158.08 332.5,-168.08 336,-158.08 329,-158.08"/>
</g>
<!-- Node13 -->
<g id="node13" class="node">
<title>Node13</title>
<g id="a_node13"><a xlink:href="classGlgGui.html" target="_top" xlink:title=" ">
<polygon fill="white" stroke="black" points="387.5,-112.5 387.5,-131.5 437.5,-131.5 437.5,-112.5 387.5,-112.5"/>
<text text-anchor="middle" x="412.5" y="-119.5" font-family="Helvetica,sans-Serif" font-size="10.00">GlgGui</text>
</a>
</g>
</g>
<!-- Node1&#45;&gt;Node13 -->
<g id="edge13" class="edge">
<title>Node1&#45;&gt;Node13</title>
<path fill="none" stroke="midnightblue" d="M353.8,-162.62C368.42,-152.76 387.33,-139.99 399.68,-131.65"/>
<polygon fill="midnightblue" stroke="midnightblue" points="351.68,-159.83 345.35,-168.32 355.6,-165.63 351.68,-159.83"/>
</g>
<!-- Node14 -->
<g id="node14" class="node">
<title>Node14</title>
<g id="a_node14"><a xlink:href="classModbusSlaveThread.html" target="_top" xlink:title=" ">
<polygon fill="white" stroke="black" points="455.5,-112.5 455.5,-131.5 571.5,-131.5 571.5,-112.5 455.5,-112.5"/>
<text text-anchor="middle" x="513.5" y="-119.5" font-family="Helvetica,sans-Serif" font-size="10.00">ModbusSlaveThread</text>
</a>
</g>
</g>
<!-- Node1&#45;&gt;Node14 -->
<g id="edge14" class="edge">
<title>Node1&#45;&gt;Node14</title>
<path fill="none" stroke="midnightblue" d="M370.82,-165.57C404.96,-155.38 454.16,-140.7 484.95,-131.52"/>
<polygon fill="midnightblue" stroke="midnightblue" points="369.76,-162.23 361.18,-168.44 371.76,-168.94 369.76,-162.23"/>
</g>
<!-- Node15 -->
<g id="node15" class="node">
<title>Node15</title>
<g id="a_node15"><a xlink:href="classOperation.html" target="_top" xlink:title=" ">
<polygon fill="white" stroke="black" points="590,-112.5 590,-131.5 655,-131.5 655,-112.5 590,-112.5"/>
<text text-anchor="middle" x="622.5" y="-119.5" font-family="Helvetica,sans-Serif" font-size="10.00">Operation</text>
</a>
</g>
</g>
<!-- Node1&#45;&gt;Node15 -->
<g id="edge15" class="edge">
<title>Node1&#45;&gt;Node15</title>
<path fill="none" stroke="midnightblue" d="M376.74,-169.41C426.41,-160.78 509.36,-146.07 580.5,-132 583.57,-131.39 586.77,-130.74 589.96,-130.08"/>
<polygon fill="midnightblue" stroke="midnightblue" points="375.92,-166 366.66,-171.15 377.11,-172.89 375.92,-166"/>
</g>
<!-- Node3&#45;&gt;Node4 -->
<g id="edge3" class="edge">
<title>Node3&#45;&gt;Node4</title>
<path fill="none" stroke="midnightblue" d="M197.5,-101.8C197.5,-92.91 197.5,-82.78 197.5,-75.75"/>
<polygon fill="midnightblue" stroke="midnightblue" points="194,-102.08 197.5,-112.08 201,-102.08 194,-102.08"/>
</g>
<!-- Node5 -->
<g id="node5" class="node">
<title>Node5</title>
<g id="a_node5"><a xlink:href="classControllino__1.html" target="_top" xlink:title=" ">
<polygon fill="white" stroke="black" points="0,-0.5 0,-19.5 81,-19.5 81,-0.5 0,-0.5"/>
<text text-anchor="middle" x="40.5" y="-7.5" font-family="Helvetica,sans-Serif" font-size="10.00">Controllino_1</text>
</a>
</g>
</g>
<!-- Node4&#45;&gt;Node5 -->
<g id="edge4" class="edge">
<title>Node4&#45;&gt;Node5</title>
<path fill="none" stroke="midnightblue" d="M163.11,-53.17C133.55,-43 91.63,-28.59 65.26,-19.52"/>
<polygon fill="midnightblue" stroke="midnightblue" points="162.03,-56.5 172.62,-56.44 164.3,-49.88 162.03,-56.5"/>
</g>
<!-- Node6 -->
<g id="node6" class="node">
<title>Node6</title>
<g id="a_node6"><a xlink:href="classControllino__3.html" target="_top" xlink:title=" ">
<polygon fill="white" stroke="black" points="99,-0.5 99,-19.5 180,-19.5 180,-0.5 99,-0.5"/>
<text text-anchor="middle" x="139.5" y="-7.5" font-family="Helvetica,sans-Serif" font-size="10.00">Controllino_3</text>
</a>
</g>
</g>
<!-- Node4&#45;&gt;Node6 -->
<g id="edge5" class="edge">
<title>Node4&#45;&gt;Node6</title>
<path fill="none" stroke="midnightblue" d="M180.59,-49.25C170.3,-39.67 157.53,-27.79 148.99,-19.83"/>
<polygon fill="midnightblue" stroke="midnightblue" points="178.48,-52.07 188.18,-56.32 183.25,-46.95 178.48,-52.07"/>
</g>
<!-- Node7 -->
<g id="node7" class="node">
<title>Node7</title>
<g id="a_node7"><a xlink:href="classPCounterMasterRTU.html" target="_top" xlink:title=" ">
<polygon fill="white" stroke="black" points="198.5,-0.5 198.5,-19.5 312.5,-19.5 312.5,-0.5 198.5,-0.5"/>
<text text-anchor="middle" x="255.5" y="-7.5" font-family="Helvetica,sans-Serif" font-size="10.00">PCounterMasterRTU</text>
</a>
</g>
</g>
<!-- Node4&#45;&gt;Node7 -->
<g id="edge6" class="edge">
<title>Node4&#45;&gt;Node7</title>
<path fill="none" stroke="midnightblue" d="M214.41,-49.25C224.7,-39.67 237.47,-27.79 246.01,-19.83"/>
<polygon fill="midnightblue" stroke="midnightblue" points="211.75,-46.95 206.82,-56.32 216.52,-52.07 211.75,-46.95"/>
</g>
<!-- Node8 -->
<g id="node8" class="node">
<title>Node8</title>
<g id="a_node8"><a xlink:href="classTCMuxShield.html" target="_top" xlink:title=" ">
<polygon fill="white" stroke="black" points="330.5,-0.5 330.5,-19.5 410.5,-19.5 410.5,-0.5 330.5,-0.5"/>
<text text-anchor="middle" x="370.5" y="-7.5" font-family="Helvetica,sans-Serif" font-size="10.00">TCMuxShield</text>
</a>
</g>
</g>
<!-- Node4&#45;&gt;Node8 -->
<g id="edge7" class="edge">
<title>Node4&#45;&gt;Node8</title>
<path fill="none" stroke="midnightblue" d="M232.24,-54.16C264.86,-43.97 313.01,-28.95 343.03,-19.58"/>
<polygon fill="midnightblue" stroke="midnightblue" points="231.16,-50.83 222.66,-57.15 233.24,-57.51 231.16,-50.83"/>
</g>
<!-- Node10 -->
<g id="node10" class="node">
<title>Node10</title>
<g id="a_node10"><a xlink:href="classGlgPCounter2Gui.html" target="_top" xlink:title=" ">
<polygon fill="white" stroke="black" points="240.5,-56.5 240.5,-75.5 340.5,-75.5 340.5,-56.5 240.5,-56.5"/>
<text text-anchor="middle" x="290.5" y="-63.5" font-family="Helvetica,sans-Serif" font-size="10.00">GlgPCounter2Gui</text>
</a>
</g>
</g>
<!-- Node9&#45;&gt;Node10 -->
<g id="edge10" class="edge">
<title>Node9&#45;&gt;Node10</title>
<path fill="none" stroke="midnightblue" d="M319.39,-104.14C312.07,-94.74 303.26,-83.4 297.31,-75.75"/>
<polygon fill="midnightblue" stroke="midnightblue" points="316.66,-106.34 325.56,-112.08 322.19,-102.04 316.66,-106.34"/>
</g>
<!-- Node11 -->
<g id="node11" class="node">
<title>Node11</title>
<g id="a_node11"><a xlink:href="classGlgPCounterStatusDetailsGui.html" target="_top" xlink:title=" ">
<polygon fill="white" stroke="black" points="359,-56.5 359,-75.5 518,-75.5 518,-56.5 359,-56.5"/>
<text text-anchor="middle" x="438.5" y="-63.5" font-family="Helvetica,sans-Serif" font-size="10.00">GlgPCounterStatusDetailsGui</text>
</a>
</g>
</g>
<!-- Node9&#45;&gt;Node11 -->
<g id="edge11" class="edge">
<title>Node9&#45;&gt;Node11</title>
<path fill="none" stroke="midnightblue" d="M358.56,-107.73C378.18,-97.73 404.53,-84.31 421.51,-75.65"/>
<polygon fill="midnightblue" stroke="midnightblue" points="356.85,-104.67 349.53,-112.32 360.03,-110.9 356.85,-104.67"/>
</g>
<!-- Node12 -->
<g id="node12" class="node">
<title>Node12</title>
<g id="a_node12"><a xlink:href="classGlgPCounterTempGui.html" target="_top" xlink:title=" ">
<polygon fill="white" stroke="black" points="536.5,-56.5 536.5,-75.5 656.5,-75.5 656.5,-56.5 536.5,-56.5"/>
<text text-anchor="middle" x="596.5" y="-63.5" font-family="Helvetica,sans-Serif" font-size="10.00">GlgPCounterTempGui</text>
</a>
</g>
</g>
<!-- Node9&#45;&gt;Node12 -->
<g id="edge12" class="edge">
<title>Node9&#45;&gt;Node12</title>
<path fill="none" stroke="midnightblue" d="M379.63,-111.36C429.36,-101.19 506.99,-85.31 554.63,-75.56"/>
<polygon fill="midnightblue" stroke="midnightblue" points="378.86,-107.94 369.76,-113.38 380.26,-114.8 378.86,-107.94"/>
</g>
</g>
</svg>
