<?xml version="1.0" encoding="UTF-8" standalone="no"?>
<!DOCTYPE svg PUBLIC "-//W3C//DTD SVG 1.1//EN"
 "http://www.w3.org/Graphics/SVG/1.1/DTD/svg11.dtd">
<!-- Generated by graphviz version 2.50.0 (0)
 -->
<!-- Title: Device Pages: 1 -->
<svg width="318pt" height="196pt"
 viewBox="0.00 0.00 317.50 196.00" xmlns="http://www.w3.org/2000/svg" xmlns:xlink="http://www.w3.org/1999/xlink">
<g id="graph0" class="graph" transform="scale(1 1) rotate(0) translate(4 192)">
<title>Device</title>
<polygon fill="white" stroke="transparent" points="-4,4 -4,-192 313.5,-192 313.5,4 -4,4"/>
<!-- Node1 -->
<g id="node1" class="node">
<title>Node1</title>
<g id="a_node1"><a xlink:title=" ">
<polygon fill="#bfbfbf" stroke="black" points="130.5,-56.5 130.5,-75.5 180.5,-75.5 180.5,-56.5 130.5,-56.5"/>
<text text-anchor="middle" x="155.5" y="-63.5" font-family="Helvetica,sans-Serif" font-size="10.00">Device</text>
</a>
</g>
</g>
<!-- Node5 -->
<g id="node5" class="node">
<title>Node5</title>
<g id="a_node5"><a xlink:href="classControllino__3.html" target="_top" xlink:title=" ">
<polygon fill="white" stroke="black" points="0,-0.5 0,-19.5 81,-19.5 81,-0.5 0,-0.5"/>
<text text-anchor="middle" x="40.5" y="-7.5" font-family="Helvetica,sans-Serif" font-size="10.00">Controllino_3</text>
</a>
</g>
</g>
<!-- Node1&#45;&gt;Node5 -->
<g id="edge5" class="edge">
<title>Node1&#45;&gt;Node5</title>
<path fill="none" stroke="midnightblue" d="M128.02,-52.1C106.53,-42.01 77.28,-28.27 58.64,-19.52"/>
<polygon fill="midnightblue" stroke="midnightblue" points="126.74,-55.36 137.28,-56.44 129.71,-49.02 126.74,-55.36"/>
</g>
<!-- Node6 -->
<g id="node6" class="node">
<title>Node6</title>
<g id="a_node6"><a xlink:href="classRgaHidenHal201RC.html" target="_top" xlink:title=" ">
<polygon fill="white" stroke="black" points="99.5,-0.5 99.5,-19.5 211.5,-19.5 211.5,-0.5 99.5,-0.5"/>
<text text-anchor="middle" x="155.5" y="-7.5" font-family="Helvetica,sans-Serif" font-size="10.00">RgaHidenHal201RC</text>
</a>
</g>
</g>
<!-- Node1&#45;&gt;Node6 -->
<g id="edge6" class="edge">
<title>Node1&#45;&gt;Node6</title>
<path fill="none" stroke="midnightblue" d="M155.5,-45.8C155.5,-36.91 155.5,-26.78 155.5,-19.75"/>
<polygon fill="midnightblue" stroke="midnightblue" points="152,-46.08 155.5,-56.08 159,-46.08 152,-46.08"/>
</g>
<!-- Node7 -->
<g id="node7" class="node">
<title>Node7</title>
<g id="a_node7"><a xlink:href="classTCMuxShield.html" target="_top" xlink:title=" ">
<polygon fill="white" stroke="black" points="229.5,-0.5 229.5,-19.5 309.5,-19.5 309.5,-0.5 229.5,-0.5"/>
<text text-anchor="middle" x="269.5" y="-7.5" font-family="Helvetica,sans-Serif" font-size="10.00">TCMuxShield</text>
</a>
</g>
</g>
<!-- Node1&#45;&gt;Node7 -->
<g id="edge7" class="edge">
<title>Node1&#45;&gt;Node7</title>
<path fill="none" stroke="midnightblue" d="M182.74,-52.1C204.04,-42.01 233.04,-28.27 251.52,-19.52"/>
<polygon fill="midnightblue" stroke="midnightblue" points="181.1,-49 173.56,-56.44 184.1,-55.33 181.1,-49"/>
</g>
<!-- Node2 -->
<g id="node2" class="node">
<title>Node2</title>
<g id="a_node2"><a xlink:href="classDataManager.html" target="_top" xlink:title=" ">
<polygon fill="white" stroke="black" points="114,-112.5 114,-131.5 197,-131.5 197,-112.5 114,-112.5"/>
<text text-anchor="middle" x="155.5" y="-119.5" font-family="Helvetica,sans-Serif" font-size="10.00">DataManager</text>
</a>
</g>
</g>
<!-- Node2&#45;&gt;Node1 -->
<g id="edge1" class="edge">
<title>Node2&#45;&gt;Node1</title>
<path fill="none" stroke="midnightblue" d="M155.5,-101.8C155.5,-92.91 155.5,-82.78 155.5,-75.75"/>
<polygon fill="midnightblue" stroke="midnightblue" points="152,-102.08 155.5,-112.08 159,-102.08 152,-102.08"/>
</g>
<!-- Node3 -->
<g id="node3" class="node">
<title>Node3</title>
<g id="a_node3"><a xlink:href="interfaceDataTypes.html" target="_top" xlink:title=" ">
<polygon fill="white" stroke="black" points="86.5,-168.5 86.5,-187.5 154.5,-187.5 154.5,-168.5 86.5,-168.5"/>
<text text-anchor="middle" x="120.5" y="-175.5" font-family="Helvetica,sans-Serif" font-size="10.00">DataTypes</text>
</a>
</g>
</g>
<!-- Node3&#45;&gt;Node1 -->
<g id="edge4" class="edge">
<title>Node3&#45;&gt;Node1</title>
<path fill="none" stroke="midnightblue" d="M109.96,-159.16C103.49,-145.77 97.64,-127.19 104.5,-112 111.69,-96.07 127.61,-83.52 139.77,-75.76"/>
<polygon fill="midnightblue" stroke="midnightblue" points="107.03,-161.09 114.83,-168.26 113.2,-157.79 107.03,-161.09"/>
</g>
<!-- Node3&#45;&gt;Node2 -->
<g id="edge2" class="edge">
<title>Node3&#45;&gt;Node2</title>
<path fill="none" stroke="midnightblue" d="M131.8,-159.57C137.82,-150.27 144.97,-139.25 149.83,-131.75"/>
<polygon fill="midnightblue" stroke="midnightblue" points="128.78,-157.79 126.28,-168.08 134.66,-161.6 128.78,-157.79"/>
</g>
<!-- Node4 -->
<g id="node4" class="node">
<title>Node4</title>
<g id="a_node4"><a xlink:title=" ">
<polygon fill="white" stroke="#bfbfbf" points="215.5,-112.5 215.5,-131.5 277.5,-131.5 277.5,-112.5 215.5,-112.5"/>
<text text-anchor="middle" x="246.5" y="-119.5" font-family="Helvetica,sans-Serif" font-size="10.00">Runnable</text>
</a>
</g>
</g>
<!-- Node4&#45;&gt;Node1 -->
<g id="edge3" class="edge">
<title>Node4&#45;&gt;Node1</title>
<path fill="none" stroke="midnightblue" d="M223.21,-107.18C206.46,-97.24 184.4,-84.15 170.08,-75.65"/>
<polygon fill="midnightblue" stroke="midnightblue" points="221.49,-110.23 231.88,-112.32 225.07,-104.21 221.49,-110.23"/>
</g>
</g>
</svg>
