<?xml version="1.0" encoding="UTF-8" standalone="no"?>
<!DOCTYPE svg PUBLIC "-//W3C//DTD SVG 1.1//EN"
 "http://www.w3.org/Graphics/SVG/1.1/DTD/svg11.dtd">
<!-- Generated by graphviz version 2.50.0 (0)
 -->
<!-- Title: DataManager Pages: 1 -->
<svg width="318pt" height="196pt"
 viewBox="0.00 0.00 317.50 196.00" xmlns="http://www.w3.org/2000/svg" xmlns:xlink="http://www.w3.org/1999/xlink">
<g id="graph0" class="graph" transform="scale(1 1) rotate(0) translate(4 192)">
<title>DataManager</title>
<!-- Node1 -->
<g id="node1" class="node">
<title>Node1</title>
<g id="a_node1"><a xlink:title=" ">
<polygon fill="#bfbfbf" stroke="black" points="114,-112.5 114,-131.5 197,-131.5 197,-112.5 114,-112.5"/>
<text text-anchor="middle" x="155.5" y="-119.5" font-family="Helvetica,sans-Serif" font-size="10.00">DataManager</text>
</a>
</g>
</g>
<!-- Node3 -->
<g id="node3" class="node">
<title>Node3</title>
<g id="a_node3"><a xlink:href="classDevice.html" target="_top" xlink:title=" ">
<polygon fill="none" stroke="black" points="130.5,-56.5 130.5,-75.5 180.5,-75.5 180.5,-56.5 130.5,-56.5"/>
<text text-anchor="middle" x="155.5" y="-63.5" font-family="Helvetica,sans-Serif" font-size="10.00">Device</text>
</a>
</g>
</g>
<!-- Node1&#45;&gt;Node3 -->
<g id="edge2" class="edge">
<title>Node1&#45;&gt;Node3</title>
<path fill="none" stroke="midnightblue" d="M155.5,-101.8C155.5,-92.91 155.5,-82.78 155.5,-75.75"/>
<polygon fill="midnightblue" stroke="midnightblue" points="152,-102.08 155.5,-112.08 159,-102.08 152,-102.08"/>
</g>
<!-- Node2 -->
<g id="node2" class="node">
<title>Node2</title>
<g id="a_node2"><a xlink:href="interfaceDataTypes.html" target="_top" xlink:title=" ">
<polygon fill="none" stroke="black" points="121.5,-168.5 121.5,-187.5 189.5,-187.5 189.5,-168.5 121.5,-168.5"/>
<text text-anchor="middle" x="155.5" y="-175.5" font-family="Helvetica,sans-Serif" font-size="10.00">DataTypes</text>
</a>
</g>
</g>
<!-- Node2&#45;&gt;Node1 -->
<g id="edge1" class="edge">
<title>Node2&#45;&gt;Node1</title>
<path fill="none" stroke="midnightblue" d="M155.5,-157.8C155.5,-148.91 155.5,-138.78 155.5,-131.75"/>
<polygon fill="midnightblue" stroke="midnightblue" points="152,-158.08 155.5,-168.08 159,-158.08 152,-158.08"/>
</g>
<!-- Node4 -->
<g id="node4" class="node">
<title>Node4</title>
<g id="a_node4"><a xlink:href="classControllino__3.html" target="_top" xlink:title=" ">
<polygon fill="none" stroke="black" points="0,-0.5 0,-19.5 81,-19.5 81,-0.5 0,-0.5"/>
<text text-anchor="middle" x="40.5" y="-7.5" font-family="Helvetica,sans-Serif" font-size="10.00">Controllino_3</text>
</a>
</g>
</g>
<!-- Node3&#45;&gt;Node4 -->
<g id="edge3" class="edge">
<title>Node3&#45;&gt;Node4</title>
<path fill="none" stroke="midnightblue" d="M128.02,-52.1C106.53,-42.01 77.28,-28.27 58.64,-19.52"/>
<polygon fill="midnightblue" stroke="midnightblue" points="126.74,-55.36 137.28,-56.44 129.71,-49.02 126.74,-55.36"/>
</g>
<!-- Node5 -->
<g id="node5" class="node">
<title>Node5</title>
<g id="a_node5"><a xlink:href="classRgaHidenHal201RC.html" target="_top" xlink:title=" ">
<polygon fill="none" stroke="black" points="99.5,-0.5 99.5,-19.5 211.5,-19.5 211.5,-0.5 99.5,-0.5"/>
<text text-anchor="middle" x="155.5" y="-7.5" font-family="Helvetica,sans-Serif" font-size="10.00">RgaHidenHal201RC</text>
</a>
</g>
</g>
<!-- Node3&#45;&gt;Node5 -->
<g id="edge4" class="edge">
<title>Node3&#45;&gt;Node5</title>
<path fill="none" stroke="midnightblue" d="M155.5,-45.8C155.5,-36.91 155.5,-26.78 155.5,-19.75"/>
<polygon fill="midnightblue" stroke="midnightblue" points="152,-46.08 155.5,-56.08 159,-46.08 152,-46.08"/>
</g>
<!-- Node6 -->
<g id="node6" class="node">
<title>Node6</title>
<g id="a_node6"><a xlink:href="classTCMuxShield.html" target="_top" xlink:title=" ">
<polygon fill="none" stroke="black" points="229.5,-0.5 229.5,-19.5 309.5,-19.5 309.5,-0.5 229.5,-0.5"/>
<text text-anchor="middle" x="269.5" y="-7.5" font-family="Helvetica,sans-Serif" font-size="10.00">TCMuxShield</text>
</a>
</g>
</g>
<!-- Node3&#45;&gt;Node6 -->
<g id="edge5" class="edge">
<title>Node3&#45;&gt;Node6</title>
<path fill="none" stroke="midnightblue" d="M182.74,-52.1C204.04,-42.01 233.04,-28.27 251.52,-19.52"/>
<polygon fill="midnightblue" stroke="midnightblue" points="181.1,-49 173.56,-56.44 184.1,-55.33 181.1,-49"/>
</g>
</g>
</svg>
