<?xml version="1.0" encoding="UTF-8" standalone="no"?>
<!DOCTYPE svg PUBLIC "-//W3C//DTD SVG 1.1//EN"
 "http://www.w3.org/Graphics/SVG/1.1/DTD/svg11.dtd">
<!-- Generated by graphviz version 2.50.0 (0)
 -->
<!-- Title: GlgChildGui Pages: 1 -->
<svg width="351pt" height="140pt"
 viewBox="0.00 0.00 351.00 140.00" xmlns="http://www.w3.org/2000/svg" xmlns:xlink="http://www.w3.org/1999/xlink">
<g id="graph0" class="graph" transform="scale(1 1) rotate(0) translate(4 136)">
<title>GlgChildGui</title>
<!-- Node1 -->
<g id="node1" class="node">
<title>Node1</title>
<g id="a_node1"><a xlink:title=" ">
<polygon fill="#bfbfbf" stroke="black" points="125.5,-56.5 125.5,-75.5 199.5,-75.5 199.5,-56.5 125.5,-56.5"/>
<text text-anchor="middle" x="162.5" y="-63.5" font-family="Helvetica,sans-Serif" font-size="10.00">GlgChildGui</text>
</a>
</g>
</g>
<!-- Node5 -->
<g id="node5" class="node">
<title>Node5</title>
<g id="a_node5"><a xlink:href="classGlgRGA3Gui.html" target="_top" xlink:title=" ">
<polygon fill="none" stroke="black" points="0,-0.5 0,-19.5 77,-19.5 77,-0.5 0,-0.5"/>
<text text-anchor="middle" x="38.5" y="-7.5" font-family="Helvetica,sans-Serif" font-size="10.00">GlgRGA3Gui</text>
</a>
</g>
</g>
<!-- Node1&#45;&gt;Node5 -->
<g id="edge4" class="edge">
<title>Node1&#45;&gt;Node5</title>
<path fill="none" stroke="midnightblue" d="M133.49,-52.37C110.27,-42.26 78.34,-28.35 58.06,-19.52"/>
<polygon fill="midnightblue" stroke="midnightblue" points="132.29,-55.66 142.85,-56.44 135.08,-49.24 132.29,-55.66"/>
</g>
<!-- Node6 -->
<g id="node6" class="node">
<title>Node6</title>
<g id="a_node6"><a xlink:href="classGlgRgaStatusDetailsGui.html" target="_top" xlink:title=" ">
<polygon fill="none" stroke="black" points="95.5,-0.5 95.5,-19.5 229.5,-19.5 229.5,-0.5 95.5,-0.5"/>
<text text-anchor="middle" x="162.5" y="-7.5" font-family="Helvetica,sans-Serif" font-size="10.00">GlgRgaStatusDetailsGui</text>
</a>
</g>
</g>
<!-- Node1&#45;&gt;Node6 -->
<g id="edge5" class="edge">
<title>Node1&#45;&gt;Node6</title>
<path fill="none" stroke="midnightblue" d="M162.5,-45.8C162.5,-36.91 162.5,-26.78 162.5,-19.75"/>
<polygon fill="midnightblue" stroke="midnightblue" points="159,-46.08 162.5,-56.08 166,-46.08 159,-46.08"/>
</g>
<!-- Node7 -->
<g id="node7" class="node">
<title>Node7</title>
<g id="a_node7"><a xlink:href="classGlgRgaTempGui.html" target="_top" xlink:title=" ">
<polygon fill="none" stroke="black" points="248,-0.5 248,-19.5 343,-19.5 343,-0.5 248,-0.5"/>
<text text-anchor="middle" x="295.5" y="-7.5" font-family="Helvetica,sans-Serif" font-size="10.00">GlgRgaTempGui</text>
</a>
</g>
</g>
<!-- Node1&#45;&gt;Node7 -->
<g id="edge6" class="edge">
<title>Node1&#45;&gt;Node7</title>
<path fill="none" stroke="midnightblue" d="M192.95,-52.64C217.91,-42.5 252.58,-28.43 274.52,-19.52"/>
<polygon fill="midnightblue" stroke="midnightblue" points="191.52,-49.44 183.57,-56.44 194.16,-55.92 191.52,-49.44"/>
</g>
<!-- Node2 -->
<g id="node2" class="node">
<title>Node2</title>
<g id="a_node2"><a xlink:title=" ">
<polygon fill="none" stroke="#bfbfbf" points="57.5,-112.5 57.5,-131.5 107.5,-131.5 107.5,-112.5 57.5,-112.5"/>
<text text-anchor="middle" x="82.5" y="-119.5" font-family="Helvetica,sans-Serif" font-size="10.00">JFrame</text>
</a>
</g>
</g>
<!-- Node2&#45;&gt;Node1 -->
<g id="edge1" class="edge">
<title>Node2&#45;&gt;Node1</title>
<path fill="none" stroke="midnightblue" d="M103.8,-106.62C118.42,-96.76 137.33,-83.99 149.68,-75.65"/>
<polygon fill="midnightblue" stroke="midnightblue" points="101.68,-103.83 95.35,-112.32 105.6,-109.63 101.68,-103.83"/>
</g>
<!-- Node3 -->
<g id="node3" class="node">
<title>Node3</title>
<g id="a_node3"><a xlink:href="interfaceChannelList.html" target="_top" xlink:title=" ">
<polygon fill="none" stroke="black" points="125.5,-112.5 125.5,-131.5 199.5,-131.5 199.5,-112.5 125.5,-112.5"/>
<text text-anchor="middle" x="162.5" y="-119.5" font-family="Helvetica,sans-Serif" font-size="10.00">ChannelList</text>
</a>
</g>
</g>
<!-- Node3&#45;&gt;Node1 -->
<g id="edge2" class="edge">
<title>Node3&#45;&gt;Node1</title>
<path fill="none" stroke="midnightblue" d="M162.5,-101.8C162.5,-92.91 162.5,-82.78 162.5,-75.75"/>
<polygon fill="midnightblue" stroke="midnightblue" points="159,-102.08 162.5,-112.08 166,-102.08 159,-102.08"/>
</g>
<!-- Node4 -->
<g id="node4" class="node">
<title>Node4</title>
<g id="a_node4"><a xlink:title=" ">
<polygon fill="none" stroke="#bfbfbf" points="217.5,-112.5 217.5,-131.5 279.5,-131.5 279.5,-112.5 217.5,-112.5"/>
<text text-anchor="middle" x="248.5" y="-119.5" font-family="Helvetica,sans-Serif" font-size="10.00">Runnable</text>
</a>
</g>
</g>
<!-- Node4&#45;&gt;Node1 -->
<g id="edge3" class="edge">
<title>Node4&#45;&gt;Node1</title>
<path fill="none" stroke="midnightblue" d="M226.05,-106.9C210.28,-97 189.69,-84.07 176.28,-75.65"/>
<polygon fill="midnightblue" stroke="midnightblue" points="224.35,-109.97 234.68,-112.32 228.07,-104.04 224.35,-109.97"/>
</g>
</g>
</svg>
