<?xml version="1.0" encoding="UTF-8" standalone="no"?>
<!DOCTYPE svg PUBLIC "-//W3C//DTD SVG 1.1//EN"
 "http://www.w3.org/Graphics/SVG/1.1/DTD/svg11.dtd">
<!-- Generated by graphviz version 2.50.0 (0)
 -->
<!-- Title: Graphical Class Hierarchy Pages: 1 -->
<svg width="552pt" height="256pt"
 viewBox="0.00 0.00 552.00 256.00" xmlns="http://www.w3.org/2000/svg" xmlns:xlink="http://www.w3.org/1999/xlink">
<g id="graph0" class="graph" transform="scale(1 1) rotate(0) translate(4 252)">
<title>Graphical Class Hierarchy</title>
<polygon fill="white" stroke="transparent" points="-4,4 -4,-252 548,-252 548,4 -4,4"/>
<!-- Node0 -->
<g id="node1" class="node">
<title>Node0</title>
<g id="a_node1"><a xlink:href="interfaceChannelList.html" target="_top" xlink:title=" ">
<polygon fill="white" stroke="black" points="0,-228.5 0,-247.5 74,-247.5 74,-228.5 0,-228.5"/>
<text text-anchor="middle" x="37" y="-235.5" font-family="Helvetica,sans-Serif" font-size="10.00">ChannelList</text>
</a>
</g>
</g>
<!-- Node1 -->
<g id="node2" class="node">
<title>Node1</title>
<g id="a_node2"><a xlink:href="classGlgChildGui.html" target="_top" xlink:title=" ">
<polygon fill="white" stroke="black" points="131,-190.5 131,-209.5 205,-209.5 205,-190.5 131,-190.5"/>
<text text-anchor="middle" x="168" y="-197.5" font-family="Helvetica,sans-Serif" font-size="10.00">GlgChildGui</text>
</a>
</g>
</g>
<!-- Node0&#45;&gt;Node1 -->
<g id="edge1" class="edge">
<title>Node0&#45;&gt;Node1</title>
<path fill="none" stroke="midnightblue" d="M80.55,-225.46C98.1,-220.3 118.11,-214.4 134.46,-209.59"/>
<polygon fill="midnightblue" stroke="midnightblue" points="79.16,-222.23 70.55,-228.41 81.13,-228.94 79.16,-222.23"/>
</g>
<!-- Node5 -->
<g id="node6" class="node">
<title>Node5</title>
<g id="a_node6"><a xlink:href="classGlgGui.html" target="_top" xlink:title=" ">
<polygon fill="white" stroke="black" points="143,-228.5 143,-247.5 193,-247.5 193,-228.5 143,-228.5"/>
<text text-anchor="middle" x="168" y="-235.5" font-family="Helvetica,sans-Serif" font-size="10.00">GlgGui</text>
</a>
</g>
</g>
<!-- Node0&#45;&gt;Node5 -->
<g id="edge5" class="edge">
<title>Node0&#45;&gt;Node5</title>
<path fill="none" stroke="midnightblue" d="M84.35,-238C104.12,-238 126.37,-238 142.8,-238"/>
<polygon fill="midnightblue" stroke="midnightblue" points="84.28,-234.5 74.28,-238 84.28,-241.5 84.28,-234.5"/>
</g>
<!-- Node2 -->
<g id="node3" class="node">
<title>Node2</title>
<g id="a_node3"><a xlink:href="classGlgRGA3Gui.html" target="_top" xlink:title=" ">
<polygon fill="white" stroke="black" points="290.5,-228.5 290.5,-247.5 367.5,-247.5 367.5,-228.5 290.5,-228.5"/>
<text text-anchor="middle" x="329" y="-235.5" font-family="Helvetica,sans-Serif" font-size="10.00">GlgRGA3Gui</text>
</a>
</g>
</g>
<!-- Node1&#45;&gt;Node2 -->
<g id="edge2" class="edge">
<title>Node1&#45;&gt;Node2</title>
<path fill="none" stroke="midnightblue" d="M215,-210.99C238.93,-216.71 267.83,-223.62 290.4,-229.01"/>
<polygon fill="midnightblue" stroke="midnightblue" points="215.62,-207.54 205.08,-208.62 213.99,-214.35 215.62,-207.54"/>
</g>
<!-- Node3 -->
<g id="node4" class="node">
<title>Node3</title>
<g id="a_node4"><a xlink:href="classGlgRgaStatusDetailsGui.html" target="_top" xlink:title=" ">
<polygon fill="white" stroke="black" points="262,-190.5 262,-209.5 396,-209.5 396,-190.5 262,-190.5"/>
<text text-anchor="middle" x="329" y="-197.5" font-family="Helvetica,sans-Serif" font-size="10.00">GlgRgaStatusDetailsGui</text>
</a>
</g>
</g>
<!-- Node1&#45;&gt;Node3 -->
<g id="edge3" class="edge">
<title>Node1&#45;&gt;Node3</title>
<path fill="none" stroke="midnightblue" d="M215.29,-200C229.81,-200 246.12,-200 261.73,-200"/>
<polygon fill="midnightblue" stroke="midnightblue" points="215.08,-196.5 205.08,-200 215.08,-203.5 215.08,-196.5"/>
</g>
<!-- Node4 -->
<g id="node5" class="node">
<title>Node4</title>
<g id="a_node5"><a xlink:href="classGlgRgaTempGui.html" target="_top" xlink:title=" ">
<polygon fill="white" stroke="black" points="281.5,-152.5 281.5,-171.5 376.5,-171.5 376.5,-152.5 281.5,-152.5"/>
<text text-anchor="middle" x="329" y="-159.5" font-family="Helvetica,sans-Serif" font-size="10.00">GlgRgaTempGui</text>
</a>
</g>
</g>
<!-- Node1&#45;&gt;Node4 -->
<g id="edge4" class="edge">
<title>Node1&#45;&gt;Node4</title>
<path fill="none" stroke="midnightblue" d="M215.02,-189C238.16,-183.47 265.94,-176.83 288.16,-171.52"/>
<polygon fill="midnightblue" stroke="midnightblue" points="213.99,-185.65 205.08,-191.38 215.62,-192.46 213.99,-185.65"/>
</g>
<!-- Node10 -->
<g id="node7" class="node">
<title>Node10</title>
<g id="a_node7"><a xlink:href="interfaceDataTypes.html" target="_top" xlink:title=" ">
<polygon fill="white" stroke="black" points="3,-57.5 3,-76.5 71,-76.5 71,-57.5 3,-57.5"/>
<text text-anchor="middle" x="37" y="-64.5" font-family="Helvetica,sans-Serif" font-size="10.00">DataTypes</text>
</a>
</g>
</g>
<!-- Node11 -->
<g id="node8" class="node">
<title>Node11</title>
<g id="a_node8"><a xlink:href="classDataElement.html" target="_top" xlink:title=" ">
<polygon fill="white" stroke="black" points="128,-38.5 128,-57.5 208,-57.5 208,-38.5 128,-38.5"/>
<text text-anchor="middle" x="168" y="-45.5" font-family="Helvetica,sans-Serif" font-size="10.00">DataElement</text>
</a>
</g>
</g>
<!-- Node10&#45;&gt;Node11 -->
<g id="edge6" class="edge">
<title>Node10&#45;&gt;Node11</title>
<path fill="none" stroke="midnightblue" d="M81.33,-60.62C96.41,-58.4 113.22,-55.92 127.93,-53.75"/>
<polygon fill="midnightblue" stroke="midnightblue" points="80.6,-57.19 71.22,-62.11 81.62,-64.11 80.6,-57.19"/>
</g>
<!-- Node12 -->
<g id="node9" class="node">
<title>Node12</title>
<g id="a_node9"><a xlink:href="classDataManager.html" target="_top" xlink:title=" ">
<polygon fill="white" stroke="black" points="126.5,-0.5 126.5,-19.5 209.5,-19.5 209.5,-0.5 126.5,-0.5"/>
<text text-anchor="middle" x="168" y="-7.5" font-family="Helvetica,sans-Serif" font-size="10.00">DataManager</text>
</a>
</g>
</g>
<!-- Node10&#45;&gt;Node12 -->
<g id="edge7" class="edge">
<title>Node10&#45;&gt;Node12</title>
<path fill="none" stroke="midnightblue" d="M63,-52.51C76.63,-44.94 93.95,-35.86 110,-29 118.06,-25.56 126.96,-22.33 135.3,-19.54"/>
<polygon fill="midnightblue" stroke="midnightblue" points="61.21,-49.5 54.21,-57.46 64.64,-55.6 61.21,-49.5"/>
</g>
<!-- Node13 -->
<g id="node10" class="node">
<title>Node13</title>
<g id="a_node10"><a xlink:href="classDevice.html" target="_top" xlink:title=" ">
<polygon fill="white" stroke="black" points="304,-76.5 304,-95.5 354,-95.5 354,-76.5 304,-76.5"/>
<text text-anchor="middle" x="329" y="-83.5" font-family="Helvetica,sans-Serif" font-size="10.00">Device</text>
</a>
</g>
</g>
<!-- Node10&#45;&gt;Node13 -->
<g id="edge12" class="edge">
<title>Node10&#45;&gt;Node13</title>
<path fill="none" stroke="midnightblue" d="M81.5,-69.85C143.45,-73.91 254.99,-81.22 303.9,-84.42"/>
<polygon fill="midnightblue" stroke="midnightblue" points="81.47,-66.34 71.27,-69.18 81.02,-73.33 81.47,-66.34"/>
</g>
<!-- Node17 -->
<g id="node14" class="node">
<title>Node17</title>
<g id="a_node14"><a xlink:href="classModbusSlaveThread.html" target="_top" xlink:title=" ">
<polygon fill="white" stroke="black" points="110,-114.5 110,-133.5 226,-133.5 226,-114.5 110,-114.5"/>
<text text-anchor="middle" x="168" y="-121.5" font-family="Helvetica,sans-Serif" font-size="10.00">ModbusSlaveThread</text>
</a>
</g>
</g>
<!-- Node10&#45;&gt;Node17 -->
<g id="edge13" class="edge">
<title>Node10&#45;&gt;Node17</title>
<path fill="none" stroke="midnightblue" d="M67.76,-80.89C80.7,-86.87 96.06,-93.87 110,-100 121.11,-104.88 133.51,-110.13 143.91,-114.47"/>
<polygon fill="midnightblue" stroke="midnightblue" points="68.95,-77.59 58.41,-76.56 66.01,-83.94 68.95,-77.59"/>
</g>
<!-- Node12&#45;&gt;Node13 -->
<g id="edge8" class="edge">
<title>Node12&#45;&gt;Node13</title>
<path fill="none" stroke="midnightblue" d="M210.88,-22.95C216.03,-24.84 221.17,-26.87 226,-29 258.11,-43.17 293.4,-64.22 312.91,-76.38"/>
<polygon fill="midnightblue" stroke="midnightblue" points="211.65,-19.52 201.06,-19.51 209.34,-26.12 211.65,-19.52"/>
</g>
<!-- Node14 -->
<g id="node11" class="node">
<title>Node14</title>
<g id="a_node11"><a xlink:href="classControllino__3.html" target="_top" xlink:title=" ">
<polygon fill="white" stroke="black" points="447.5,-114.5 447.5,-133.5 528.5,-133.5 528.5,-114.5 447.5,-114.5"/>
<text text-anchor="middle" x="488" y="-121.5" font-family="Helvetica,sans-Serif" font-size="10.00">Controllino_3</text>
</a>
</g>
</g>
<!-- Node13&#45;&gt;Node14 -->
<g id="edge9" class="edge">
<title>Node13&#45;&gt;Node14</title>
<path fill="none" stroke="midnightblue" d="M364.13,-94.26C388.67,-100.2 421.83,-108.23 447.51,-114.44"/>
<polygon fill="midnightblue" stroke="midnightblue" points="364.73,-90.8 354.19,-91.85 363.08,-97.61 364.73,-90.8"/>
</g>
<!-- Node15 -->
<g id="node12" class="node">
<title>Node15</title>
<g id="a_node12"><a xlink:href="classRgaHidenHal201RC.html" target="_top" xlink:title=" ">
<polygon fill="white" stroke="black" points="432,-76.5 432,-95.5 544,-95.5 544,-76.5 432,-76.5"/>
<text text-anchor="middle" x="488" y="-83.5" font-family="Helvetica,sans-Serif" font-size="10.00">RgaHidenHal201RC</text>
</a>
</g>
</g>
<!-- Node13&#45;&gt;Node15 -->
<g id="edge10" class="edge">
<title>Node13&#45;&gt;Node15</title>
<path fill="none" stroke="midnightblue" d="M364.26,-86C384.02,-86 409.35,-86 431.85,-86"/>
<polygon fill="midnightblue" stroke="midnightblue" points="364.19,-82.5 354.19,-86 364.19,-89.5 364.19,-82.5"/>
</g>
<!-- Node16 -->
<g id="node13" class="node">
<title>Node16</title>
<g id="a_node13"><a xlink:href="classTCMuxShield.html" target="_top" xlink:title=" ">
<polygon fill="white" stroke="black" points="448,-38.5 448,-57.5 528,-57.5 528,-38.5 448,-38.5"/>
<text text-anchor="middle" x="488" y="-45.5" font-family="Helvetica,sans-Serif" font-size="10.00">TCMuxShield</text>
</a>
</g>
</g>
<!-- Node13&#45;&gt;Node16 -->
<g id="edge11" class="edge">
<title>Node13&#45;&gt;Node16</title>
<path fill="none" stroke="midnightblue" d="M364.17,-77.73C388.8,-71.77 422.1,-63.71 447.81,-57.48"/>
<polygon fill="midnightblue" stroke="midnightblue" points="363.08,-74.39 354.19,-80.15 364.73,-81.2 363.08,-74.39"/>
</g>
<!-- Node27 -->
<g id="node15" class="node">
<title>Node27</title>
<g id="a_node15"><a xlink:title=" ">
<polygon fill="white" stroke="#bfbfbf" points="6,-152.5 6,-171.5 68,-171.5 68,-152.5 6,-152.5"/>
<text text-anchor="middle" x="37" y="-159.5" font-family="Helvetica,sans-Serif" font-size="10.00">Runnable</text>
</a>
</g>
</g>
<!-- Node27&#45;&gt;Node1 -->
<g id="edge15" class="edge">
<title>Node27&#45;&gt;Node1</title>
<path fill="none" stroke="midnightblue" d="M78.01,-173.78C96.23,-179.15 117.51,-185.42 134.69,-190.48"/>
<polygon fill="midnightblue" stroke="midnightblue" points="78.83,-170.38 68.24,-170.91 76.85,-177.09 78.83,-170.38"/>
</g>
<!-- Node27&#45;&gt;Node5 -->
<g id="edge16" class="edge">
<title>Node27&#45;&gt;Node5</title>
<path fill="none" stroke="midnightblue" d="M67.6,-176.59C69.82,-177.99 71.98,-179.47 74,-181 92.53,-195.06 90.38,-206.5 110,-219 119.94,-225.33 132.21,-229.78 142.82,-232.76"/>
<polygon fill="midnightblue" stroke="midnightblue" points="69.3,-173.53 58.89,-171.55 65.79,-179.58 69.3,-173.53"/>
</g>
<!-- Node27&#45;&gt;Node13 -->
<g id="edge14" class="edge">
<title>Node27&#45;&gt;Node13</title>
<path fill="none" stroke="midnightblue" d="M78.4,-162.62C117.13,-162.12 176.81,-158.5 226,-143 260.44,-132.15 296.3,-108.83 314.95,-95.63"/>
<polygon fill="midnightblue" stroke="midnightblue" points="78.04,-159.12 68.06,-162.68 78.08,-166.12 78.04,-159.12"/>
</g>
<!-- Node27&#45;&gt;Node17 -->
<g id="edge17" class="edge">
<title>Node27&#45;&gt;Node17</title>
<path fill="none" stroke="midnightblue" d="M78.01,-150.22C96.23,-144.85 117.51,-138.58 134.69,-133.52"/>
<polygon fill="midnightblue" stroke="midnightblue" points="76.85,-146.91 68.24,-153.09 78.83,-153.62 76.85,-146.91"/>
</g>
<!-- Node35 -->
<g id="node16" class="node">
<title>Node35</title>
<g id="a_node16"><a xlink:title=" ">
<polygon fill="white" stroke="#bfbfbf" points="12,-190.5 12,-209.5 62,-209.5 62,-190.5 12,-190.5"/>
<text text-anchor="middle" x="37" y="-197.5" font-family="Helvetica,sans-Serif" font-size="10.00">JFrame</text>
</a>
</g>
</g>
<!-- Node35&#45;&gt;Node1 -->
<g id="edge18" class="edge">
<title>Node35&#45;&gt;Node1</title>
<path fill="none" stroke="midnightblue" d="M72.33,-200C90.33,-200 112.36,-200 130.65,-200"/>
<polygon fill="midnightblue" stroke="midnightblue" points="72.26,-196.5 62.26,-200 72.26,-203.5 72.26,-196.5"/>
</g>
<!-- Node35&#45;&gt;Node5 -->
<g id="edge19" class="edge">
<title>Node35&#45;&gt;Node5</title>
<path fill="none" stroke="midnightblue" d="M72,-210.02C94.29,-216.58 122.88,-225 142.84,-230.88"/>
<polygon fill="midnightblue" stroke="midnightblue" points="72.85,-206.62 62.26,-207.15 70.87,-213.33 72.85,-206.62"/>
</g>
</g>
</svg>
