<?xml version="1.0" encoding="UTF-8" standalone="no"?>
<!DOCTYPE svg PUBLIC "-//W3C//DTD SVG 1.1//EN"
 "http://www.w3.org/Graphics/SVG/1.1/DTD/svg11.dtd">
<!-- Generated by graphviz version 2.50.0 (0)
 -->
<!-- Title: Graphical Class Hierarchy Pages: 1 -->
<svg width="302pt" height="116pt"
 viewBox="0.00 0.00 302.00 116.00" xmlns="http://www.w3.org/2000/svg" xmlns:xlink="http://www.w3.org/1999/xlink">
<g id="graph0" class="graph" transform="scale(1 1) rotate(0) translate(4 112)">
<title>Graphical Class Hierarchy</title>
<!-- Node19 -->
<g id="node1" class="node">
<title>Node19</title>
<g id="a_node1"><a xlink:title=" ">
<polygon fill="none" stroke="#bfbfbf" points="0,-44.5 0,-63.5 97,-63.5 97,-44.5 0,-44.5"/>
<text text-anchor="middle" x="48.5" y="-51.5" font-family="Helvetica,sans-Serif" font-size="10.00">GlgInputListener</text>
</a>
</g>
</g>
<!-- Node0 -->
<g id="node2" class="node">
<title>Node0</title>
<g id="a_node2"><a xlink:href="classGlgRGA3Gui_1_1InputListener.html" target="_top" xlink:title=" ">
<polygon fill="none" stroke="black" points="142,-88.5 142,-107.5 285,-107.5 285,-88.5 142,-88.5"/>
<text text-anchor="middle" x="213.5" y="-95.5" font-family="Helvetica,sans-Serif" font-size="10.00">GlgRGA3Gui.InputListener</text>
</a>
</g>
</g>
<!-- Node19&#45;&gt;Node0 -->
<g id="edge1" class="edge">
<title>Node19&#45;&gt;Node0</title>
<path fill="none" stroke="midnightblue" d="M89.56,-66.49C103.29,-70.64 118.77,-75.17 133,-79 145.2,-82.28 158.52,-85.58 170.72,-88.48"/>
<polygon fill="midnightblue" stroke="midnightblue" points="90.51,-63.12 79.92,-63.56 88.47,-69.82 90.51,-63.12"/>
</g>
<!-- Node21 -->
<g id="node3" class="node">
<title>Node21</title>
<g id="a_node3"><a xlink:href="classGlgRgaStatusDetailsGui_1_1InputListener.html" target="_top" xlink:title=" ">
<polygon fill="none" stroke="black" points="133,-39 133,-69 294,-69 294,-39 133,-39"/>
<text text-anchor="start" x="141" y="-57" font-family="Helvetica,sans-Serif" font-size="10.00">GlgRgaStatusDetailsGui.Input</text>
<text text-anchor="middle" x="213.5" y="-46" font-family="Helvetica,sans-Serif" font-size="10.00">Listener</text>
</a>
</g>
</g>
<!-- Node19&#45;&gt;Node21 -->
<g id="edge2" class="edge">
<title>Node19&#45;&gt;Node21</title>
<path fill="none" stroke="midnightblue" d="M107.1,-54C115.48,-54 124.24,-54 132.96,-54"/>
<polygon fill="midnightblue" stroke="midnightblue" points="107.08,-50.5 97.08,-54 107.08,-57.5 107.08,-50.5"/>
</g>
<!-- Node22 -->
<g id="node4" class="node">
<title>Node22</title>
<g id="a_node4"><a xlink:href="classGlgRgaTempGui_1_1InputListener.html" target="_top" xlink:title=" ">
<polygon fill="none" stroke="black" points="133,-0.5 133,-19.5 294,-19.5 294,-0.5 133,-0.5"/>
<text text-anchor="middle" x="213.5" y="-7.5" font-family="Helvetica,sans-Serif" font-size="10.00">GlgRgaTempGui.InputListener</text>
</a>
</g>
</g>
<!-- Node19&#45;&gt;Node22 -->
<g id="edge3" class="edge">
<title>Node19&#45;&gt;Node22</title>
<path fill="none" stroke="midnightblue" d="M91.71,-41.57C104.91,-37.76 119.54,-33.63 133,-30 146.19,-26.45 160.67,-22.74 173.61,-19.51"/>
<polygon fill="midnightblue" stroke="midnightblue" points="90.58,-38.26 81.95,-44.4 92.53,-44.98 90.58,-38.26"/>
</g>
</g>
</svg>
