<?xml version="1.0" encoding="UTF-8" standalone="no"?>
<!DOCTYPE svg PUBLIC "-//W3C//DTD SVG 1.1//EN"
 "http://www.w3.org/Graphics/SVG/1.1/DTD/svg11.dtd">
<!-- Generated by graphviz version 2.50.0 (0)
 -->
<!-- Title: ChannelList Pages: 1 -->
<svg width="351pt" height="140pt"
 viewBox="0.00 0.00 351.00 140.00" xmlns="http://www.w3.org/2000/svg" xmlns:xlink="http://www.w3.org/1999/xlink">
<g id="graph0" class="graph" transform="scale(1 1) rotate(0) translate(4 136)">
<title>ChannelList</title>
<polygon fill="white" stroke="transparent" points="-4,4 -4,-136 347,-136 347,4 -4,4"/>
<!-- Node1 -->
<g id="node1" class="node">
<title>Node1</title>
<g id="a_node1"><a xlink:title=" ">
<polygon fill="#bfbfbf" stroke="black" points="165.5,-112.5 165.5,-131.5 239.5,-131.5 239.5,-112.5 165.5,-112.5"/>
<text text-anchor="middle" x="202.5" y="-119.5" font-family="Helvetica,sans-Serif" font-size="10.00">ChannelList</text>
</a>
</g>
</g>
<!-- Node2 -->
<g id="node2" class="node">
<title>Node2</title>
<g id="a_node2"><a xlink:href="classGlgChildGui.html" target="_top" xlink:title=" ">
<polygon fill="white" stroke="black" points="125.5,-56.5 125.5,-75.5 199.5,-75.5 199.5,-56.5 125.5,-56.5"/>
<text text-anchor="middle" x="162.5" y="-63.5" font-family="Helvetica,sans-Serif" font-size="10.00">GlgChildGui</text>
</a>
</g>
</g>
<!-- Node1&#45;&gt;Node2 -->
<g id="edge1" class="edge">
<title>Node1&#45;&gt;Node2</title>
<path fill="none" stroke="midnightblue" d="M189.8,-103.86C182.87,-94.5 174.59,-83.33 168.98,-75.75"/>
<polygon fill="midnightblue" stroke="midnightblue" points="187.13,-106.13 195.89,-112.08 192.75,-101.96 187.13,-106.13"/>
</g>
<!-- Node6 -->
<g id="node6" class="node">
<title>Node6</title>
<g id="a_node6"><a xlink:href="classGlgGui.html" target="_top" xlink:title=" ">
<polygon fill="white" stroke="black" points="217.5,-56.5 217.5,-75.5 267.5,-75.5 267.5,-56.5 217.5,-56.5"/>
<text text-anchor="middle" x="242.5" y="-63.5" font-family="Helvetica,sans-Serif" font-size="10.00">GlgGui</text>
</a>
</g>
</g>
<!-- Node1&#45;&gt;Node6 -->
<g id="edge5" class="edge">
<title>Node1&#45;&gt;Node6</title>
<path fill="none" stroke="midnightblue" d="M215.2,-103.86C222.13,-94.5 230.41,-83.33 236.02,-75.75"/>
<polygon fill="midnightblue" stroke="midnightblue" points="212.25,-101.96 209.11,-112.08 217.87,-106.13 212.25,-101.96"/>
</g>
<!-- Node3 -->
<g id="node3" class="node">
<title>Node3</title>
<g id="a_node3"><a xlink:href="classGlgRGA3Gui.html" target="_top" xlink:title=" ">
<polygon fill="white" stroke="black" points="0,-0.5 0,-19.5 77,-19.5 77,-0.5 0,-0.5"/>
<text text-anchor="middle" x="38.5" y="-7.5" font-family="Helvetica,sans-Serif" font-size="10.00">GlgRGA3Gui</text>
</a>
</g>
</g>
<!-- Node2&#45;&gt;Node3 -->
<g id="edge2" class="edge">
<title>Node2&#45;&gt;Node3</title>
<path fill="none" stroke="midnightblue" d="M133.49,-52.37C110.27,-42.26 78.34,-28.35 58.06,-19.52"/>
<polygon fill="midnightblue" stroke="midnightblue" points="132.29,-55.66 142.85,-56.44 135.08,-49.24 132.29,-55.66"/>
</g>
<!-- Node4 -->
<g id="node4" class="node">
<title>Node4</title>
<g id="a_node4"><a xlink:href="classGlgRgaStatusDetailsGui.html" target="_top" xlink:title=" ">
<polygon fill="white" stroke="black" points="95.5,-0.5 95.5,-19.5 229.5,-19.5 229.5,-0.5 95.5,-0.5"/>
<text text-anchor="middle" x="162.5" y="-7.5" font-family="Helvetica,sans-Serif" font-size="10.00">GlgRgaStatusDetailsGui</text>
</a>
</g>
</g>
<!-- Node2&#45;&gt;Node4 -->
<g id="edge3" class="edge">
<title>Node2&#45;&gt;Node4</title>
<path fill="none" stroke="midnightblue" d="M162.5,-45.8C162.5,-36.91 162.5,-26.78 162.5,-19.75"/>
<polygon fill="midnightblue" stroke="midnightblue" points="159,-46.08 162.5,-56.08 166,-46.08 159,-46.08"/>
</g>
<!-- Node5 -->
<g id="node5" class="node">
<title>Node5</title>
<g id="a_node5"><a xlink:href="classGlgRgaTempGui.html" target="_top" xlink:title=" ">
<polygon fill="white" stroke="black" points="248,-0.5 248,-19.5 343,-19.5 343,-0.5 248,-0.5"/>
<text text-anchor="middle" x="295.5" y="-7.5" font-family="Helvetica,sans-Serif" font-size="10.00">GlgRgaTempGui</text>
</a>
</g>
</g>
<!-- Node2&#45;&gt;Node5 -->
<g id="edge4" class="edge">
<title>Node2&#45;&gt;Node5</title>
<path fill="none" stroke="midnightblue" d="M192.95,-52.64C217.91,-42.5 252.58,-28.43 274.52,-19.52"/>
<polygon fill="midnightblue" stroke="midnightblue" points="191.52,-49.44 183.57,-56.44 194.16,-55.92 191.52,-49.44"/>
</g>
</g>
</svg>
