<?xml version="1.0" encoding="UTF-8" standalone="no"?>
<!DOCTYPE svg PUBLIC "-//W3C//DTD SVG 1.1//EN"
 "http://www.w3.org/Graphics/SVG/1.1/DTD/svg11.dtd">
<!-- Generated by graphviz version 2.50.0 (0)
 -->
<!-- Title: Device Pages: 1 -->
<svg width="417pt" height="294pt"
 viewBox="0.00 0.00 417.00 294.00" xmlns="http://www.w3.org/2000/svg" xmlns:xlink="http://www.w3.org/1999/xlink">
<g id="graph0" class="graph" transform="scale(1 1) rotate(0) translate(4 290)">
<title>Device</title>
<!-- Node1 -->
<g id="node1" class="node">
<title>Node1</title>
<g id="a_node1"><a xlink:title=" ">
<polygon fill="#bfbfbf" stroke="black" points="223,-133.5 223,-152.5 273,-152.5 273,-133.5 223,-133.5"/>
<text text-anchor="middle" x="248" y="-140.5" font-family="Helvetica,sans-Serif" font-size="10.00">Device</text>
</a>
</g>
</g>
<!-- Node5 -->
<g id="node5" class="node">
<title>Node5</title>
<g id="a_node5"><a xlink:href="classControllino__1.html" target="_top" xlink:title=" ">
<polygon fill="none" stroke="black" points="318.5,-266.5 318.5,-285.5 399.5,-285.5 399.5,-266.5 318.5,-266.5"/>
<text text-anchor="middle" x="359" y="-273.5" font-family="Helvetica,sans-Serif" font-size="10.00">Controllino_1</text>
</a>
</g>
</g>
<!-- Node1&#45;&gt;Node5 -->
<g id="edge5" class="edge">
<title>Node1&#45;&gt;Node5</title>
<path fill="none" stroke="midnightblue" d="M254.55,-162.53C262.63,-187.64 279.92,-231.07 309,-257 313.29,-260.83 318.44,-263.92 323.76,-266.41"/>
<polygon fill="midnightblue" stroke="midnightblue" points="257.82,-161.25 251.56,-152.71 251.13,-163.29 257.82,-161.25"/>
</g>
<!-- Node6 -->
<g id="node6" class="node">
<title>Node6</title>
<g id="a_node6"><a xlink:href="classControllino__2.html" target="_top" xlink:title=" ">
<polygon fill="none" stroke="black" points="318.5,-228.5 318.5,-247.5 399.5,-247.5 399.5,-228.5 318.5,-228.5"/>
<text text-anchor="middle" x="359" y="-235.5" font-family="Helvetica,sans-Serif" font-size="10.00">Controllino_2</text>
</a>
</g>
</g>
<!-- Node1&#45;&gt;Node6 -->
<g id="edge6" class="edge">
<title>Node1&#45;&gt;Node6</title>
<path fill="none" stroke="midnightblue" d="M259.59,-161.49C270.17,-178.5 287.86,-203.39 309,-219 314.14,-222.79 320.13,-225.93 326.12,-228.49"/>
<polygon fill="midnightblue" stroke="midnightblue" points="262.36,-159.3 254.22,-152.52 256.35,-162.89 262.36,-159.3"/>
</g>
<!-- Node7 -->
<g id="node7" class="node">
<title>Node7</title>
<g id="a_node7"><a xlink:href="classMaxiGauge.html" target="_top" xlink:title=" ">
<polygon fill="none" stroke="black" points="323,-190.5 323,-209.5 395,-209.5 395,-190.5 323,-190.5"/>
<text text-anchor="middle" x="359" y="-197.5" font-family="Helvetica,sans-Serif" font-size="10.00">MaxiGauge</text>
</a>
</g>
</g>
<!-- Node1&#45;&gt;Node7 -->
<g id="edge7" class="edge">
<title>Node1&#45;&gt;Node7</title>
<path fill="none" stroke="midnightblue" d="M270.97,-158.37C282.07,-165.75 295.93,-174.4 309,-181 315.84,-184.45 323.47,-187.68 330.63,-190.47"/>
<polygon fill="midnightblue" stroke="midnightblue" points="272.62,-155.25 262.38,-152.54 268.69,-161.05 272.62,-155.25"/>
</g>
<!-- Node8 -->
<g id="node8" class="node">
<title>Node8</title>
<g id="a_node8"><a xlink:href="classMksRotor.html" target="_top" xlink:title=" ">
<polygon fill="none" stroke="black" points="327.5,-152.5 327.5,-171.5 390.5,-171.5 390.5,-152.5 327.5,-152.5"/>
<text text-anchor="middle" x="359" y="-159.5" font-family="Helvetica,sans-Serif" font-size="10.00">MksRotor</text>
</a>
</g>
</g>
<!-- Node1&#45;&gt;Node8 -->
<g id="edge8" class="edge">
<title>Node1&#45;&gt;Node8</title>
<path fill="none" stroke="midnightblue" d="M283.45,-149.01C297.49,-151.45 313.59,-154.26 327.23,-156.64"/>
<polygon fill="midnightblue" stroke="midnightblue" points="283.64,-145.49 273.19,-147.22 282.44,-152.38 283.64,-145.49"/>
</g>
<!-- Node9 -->
<g id="node9" class="node">
<title>Node9</title>
<g id="a_node9"><a xlink:href="classSicem.html" target="_top" xlink:title=" ">
<polygon fill="none" stroke="black" points="335.5,-114.5 335.5,-133.5 382.5,-133.5 382.5,-114.5 335.5,-114.5"/>
<text text-anchor="middle" x="359" y="-121.5" font-family="Helvetica,sans-Serif" font-size="10.00">Sicem</text>
</a>
</g>
</g>
<!-- Node1&#45;&gt;Node9 -->
<g id="edge9" class="edge">
<title>Node1&#45;&gt;Node9</title>
<path fill="none" stroke="midnightblue" d="M283.3,-137.02C300.29,-134.06 320.32,-130.57 335.37,-127.95"/>
<polygon fill="midnightblue" stroke="midnightblue" points="282.44,-133.62 273.19,-138.78 283.64,-140.51 282.44,-133.62"/>
</g>
<!-- Node10 -->
<g id="node10" class="node">
<title>Node10</title>
<g id="a_node10"><a xlink:href="classTCMuxShield.html" target="_top" xlink:title=" ">
<polygon fill="none" stroke="black" points="319,-76.5 319,-95.5 399,-95.5 399,-76.5 319,-76.5"/>
<text text-anchor="middle" x="359" y="-83.5" font-family="Helvetica,sans-Serif" font-size="10.00">TCMuxShield</text>
</a>
</g>
</g>
<!-- Node1&#45;&gt;Node10 -->
<g id="edge10" class="edge">
<title>Node1&#45;&gt;Node10</title>
<path fill="none" stroke="midnightblue" d="M270.97,-127.63C282.07,-120.25 295.93,-111.6 309,-105 315.84,-101.55 323.47,-98.32 330.63,-95.53"/>
<polygon fill="midnightblue" stroke="midnightblue" points="268.69,-124.95 262.38,-133.46 272.62,-130.75 268.69,-124.95"/>
</g>
<!-- Node11 -->
<g id="node11" class="node">
<title>Node11</title>
<g id="a_node11"><a xlink:href="classTurboPfeifferDCU.html" target="_top" xlink:title=" ">
<polygon fill="none" stroke="black" points="309,-38.5 309,-57.5 409,-57.5 409,-38.5 309,-38.5"/>
<text text-anchor="middle" x="359" y="-45.5" font-family="Helvetica,sans-Serif" font-size="10.00">TurboPfeifferDCU</text>
</a>
</g>
</g>
<!-- Node1&#45;&gt;Node11 -->
<g id="edge11" class="edge">
<title>Node1&#45;&gt;Node11</title>
<path fill="none" stroke="midnightblue" d="M259.59,-124.51C270.17,-107.5 287.86,-82.61 309,-67 314.14,-63.21 320.13,-60.07 326.12,-57.51"/>
<polygon fill="midnightblue" stroke="midnightblue" points="256.35,-123.11 254.22,-133.48 262.36,-126.7 256.35,-123.11"/>
</g>
<!-- Node12 -->
<g id="node12" class="node">
<title>Node12</title>
<g id="a_node12"><a xlink:href="classXGSGauge.html" target="_top" xlink:title=" ">
<polygon fill="none" stroke="black" points="325,-0.5 325,-19.5 393,-19.5 393,-0.5 325,-0.5"/>
<text text-anchor="middle" x="359" y="-7.5" font-family="Helvetica,sans-Serif" font-size="10.00">XGSGauge</text>
</a>
</g>
</g>
<!-- Node1&#45;&gt;Node12 -->
<g id="edge12" class="edge">
<title>Node1&#45;&gt;Node12</title>
<path fill="none" stroke="midnightblue" d="M254.55,-123.47C262.63,-98.36 279.92,-54.93 309,-29 313.56,-24.93 319.09,-21.69 324.77,-19.12"/>
<polygon fill="midnightblue" stroke="midnightblue" points="251.13,-122.71 251.56,-133.29 257.82,-124.75 251.13,-122.71"/>
</g>
<!-- Node2 -->
<g id="node2" class="node">
<title>Node2</title>
<g id="a_node2"><a xlink:href="classDataManager.html" target="_top" xlink:title=" ">
<polygon fill="none" stroke="black" points="104,-133.5 104,-152.5 187,-152.5 187,-133.5 104,-133.5"/>
<text text-anchor="middle" x="145.5" y="-140.5" font-family="Helvetica,sans-Serif" font-size="10.00">DataManager</text>
</a>
</g>
</g>
<!-- Node2&#45;&gt;Node1 -->
<g id="edge1" class="edge">
<title>Node2&#45;&gt;Node1</title>
<path fill="none" stroke="midnightblue" d="M197.12,-143C206.06,-143 214.98,-143 222.75,-143"/>
<polygon fill="midnightblue" stroke="midnightblue" points="197.09,-139.5 187.09,-143 197.09,-146.5 197.09,-139.5"/>
</g>
<!-- Node3 -->
<g id="node3" class="node">
<title>Node3</title>
<g id="a_node3"><a xlink:href="interfaceDataTypes.html" target="_top" xlink:title=" ">
<polygon fill="none" stroke="black" points="0,-152.5 0,-171.5 68,-171.5 68,-152.5 0,-152.5"/>
<text text-anchor="middle" x="34" y="-159.5" font-family="Helvetica,sans-Serif" font-size="10.00">DataTypes</text>
</a>
</g>
</g>
<!-- Node3&#45;&gt;Node1 -->
<g id="edge4" class="edge">
<title>Node3&#45;&gt;Node1</title>
<path fill="none" stroke="midnightblue" d="M78.45,-165.51C108.99,-167.12 150.72,-167.61 187,-162 199.09,-160.13 212.09,-156.26 222.88,-152.5"/>
<polygon fill="midnightblue" stroke="midnightblue" points="78.32,-161.99 68.13,-164.9 77.91,-168.98 78.32,-161.99"/>
</g>
<!-- Node3&#45;&gt;Node2 -->
<g id="edge2" class="edge">
<title>Node3&#45;&gt;Node2</title>
<path fill="none" stroke="midnightblue" d="M78.17,-154.51C86.59,-153.05 95.39,-151.52 103.72,-150.08"/>
<polygon fill="midnightblue" stroke="midnightblue" points="77.41,-151.09 68.15,-156.25 78.6,-157.99 77.41,-151.09"/>
</g>
<!-- Node4 -->
<g id="node4" class="node">
<title>Node4</title>
<g id="a_node4"><a xlink:title=" ">
<polygon fill="none" stroke="#bfbfbf" points="114.5,-95.5 114.5,-114.5 176.5,-114.5 176.5,-95.5 114.5,-95.5"/>
<text text-anchor="middle" x="145.5" y="-102.5" font-family="Helvetica,sans-Serif" font-size="10.00">Runnable</text>
</a>
</g>
</g>
<!-- Node4&#45;&gt;Node1 -->
<g id="edge3" class="edge">
<title>Node4&#45;&gt;Node1</title>
<path fill="none" stroke="midnightblue" d="M181.42,-118.2C195.03,-123.35 210.31,-129.13 222.69,-133.81"/>
<polygon fill="midnightblue" stroke="midnightblue" points="182.45,-114.85 171.86,-114.59 179.98,-121.4 182.45,-114.85"/>
</g>
</g>
</svg>
