<?xml version="1.0" encoding="UTF-8" standalone="no"?>
<!DOCTYPE svg PUBLIC "-//W3C//DTD SVG 1.1//EN"
 "http://www.w3.org/Graphics/SVG/1.1/DTD/svg11.dtd">
<!-- Generated by graphviz version 2.50.0 (0)
 -->
<!-- Title: Graphical Class Hierarchy Pages: 1 -->
<svg width="576pt" height="655pt"
 viewBox="0.00 0.00 576.00 655.00" xmlns="http://www.w3.org/2000/svg" xmlns:xlink="http://www.w3.org/1999/xlink">
<g id="graph0" class="graph" transform="scale(1 1) rotate(0) translate(4 651)">
<title>Graphical Class Hierarchy</title>
<polygon fill="white" stroke="transparent" points="-4,4 -4,-651 572,-651 572,4 -4,4"/>
<!-- Node0 -->
<g id="node1" class="node">
<title>Node0</title>
<g id="a_node1"><a xlink:href="interfaceChannelList.html" target="_top" xlink:title=" ">
<polygon fill="white" stroke="black" points="0,-380.5 0,-399.5 74,-399.5 74,-380.5 0,-380.5"/>
<text text-anchor="middle" x="37" y="-387.5" font-family="Helvetica,sans-Serif" font-size="10.00">ChannelList</text>
</a>
</g>
</g>
<!-- Node1 -->
<g id="node2" class="node">
<title>Node1</title>
<g id="a_node2"><a xlink:href="classGlgChildGui.html" target="_top" xlink:title=" ">
<polygon fill="white" stroke="black" points="131,-418.5 131,-437.5 205,-437.5 205,-418.5 131,-418.5"/>
<text text-anchor="middle" x="168" y="-425.5" font-family="Helvetica,sans-Serif" font-size="10.00">GlgChildGui</text>
</a>
</g>
</g>
<!-- Node0&#45;&gt;Node1 -->
<g id="edge1" class="edge">
<title>Node0&#45;&gt;Node1</title>
<path fill="none" stroke="midnightblue" d="M80.55,-402.54C98.1,-407.7 118.11,-413.6 134.46,-418.41"/>
<polygon fill="midnightblue" stroke="midnightblue" points="81.13,-399.06 70.55,-399.59 79.16,-405.77 81.13,-399.06"/>
</g>
<!-- Node13 -->
<g id="node14" class="node">
<title>Node13</title>
<g id="a_node14"><a xlink:href="classGlgGui.html" target="_top" xlink:title=" ">
<polygon fill="white" stroke="black" points="143,-380.5 143,-399.5 193,-399.5 193,-380.5 143,-380.5"/>
<text text-anchor="middle" x="168" y="-387.5" font-family="Helvetica,sans-Serif" font-size="10.00">GlgGui</text>
</a>
</g>
</g>
<!-- Node0&#45;&gt;Node13 -->
<g id="edge13" class="edge">
<title>Node0&#45;&gt;Node13</title>
<path fill="none" stroke="midnightblue" d="M84.35,-390C104.12,-390 126.37,-390 142.8,-390"/>
<polygon fill="midnightblue" stroke="midnightblue" points="84.28,-386.5 74.28,-390 84.28,-393.5 84.28,-386.5"/>
</g>
<!-- Node2 -->
<g id="node3" class="node">
<title>Node2</title>
<g id="a_node3"><a xlink:href="classGlgDryGui.html" target="_top" xlink:title=" ">
<polygon fill="white" stroke="black" points="313.5,-513.5 313.5,-532.5 380.5,-532.5 380.5,-513.5 313.5,-513.5"/>
<text text-anchor="middle" x="347" y="-520.5" font-family="Helvetica,sans-Serif" font-size="10.00">GlgDryGui</text>
</a>
</g>
</g>
<!-- Node1&#45;&gt;Node2 -->
<g id="edge2" class="edge">
<title>Node1&#45;&gt;Node2</title>
<path fill="none" stroke="midnightblue" d="M184.8,-444.89C202.09,-462.35 231.45,-489.1 262,-504 277.99,-511.8 297.27,-516.45 313.32,-519.2"/>
<polygon fill="midnightblue" stroke="midnightblue" points="187.21,-442.35 177.74,-437.6 182.18,-447.22 187.21,-442.35"/>
</g>
<!-- Node3 -->
<g id="node4" class="node">
<title>Node3</title>
<g id="a_node4"><a xlink:href="classGlgGaugeGui.html" target="_top" xlink:title=" ">
<polygon fill="white" stroke="black" points="306.5,-475.5 306.5,-494.5 387.5,-494.5 387.5,-475.5 306.5,-475.5"/>
<text text-anchor="middle" x="347" y="-482.5" font-family="Helvetica,sans-Serif" font-size="10.00">GlgGaugeGui</text>
</a>
</g>
</g>
<!-- Node1&#45;&gt;Node3 -->
<g id="edge3" class="edge">
<title>Node1&#45;&gt;Node3</title>
<path fill="none" stroke="midnightblue" d="M199.07,-441.77C217.06,-449.63 240.52,-459.23 262,-466 276.26,-470.49 292.2,-474.37 306.33,-477.44"/>
<polygon fill="midnightblue" stroke="midnightblue" points="200.25,-438.46 189.69,-437.61 197.41,-444.86 200.25,-438.46"/>
</g>
<!-- Node4 -->
<g id="node5" class="node">
<title>Node4</title>
<g id="a_node5"><a xlink:href="classGlgIonicGui.html" target="_top" xlink:title=" ">
<polygon fill="white" stroke="black" points="310.5,-437.5 310.5,-456.5 383.5,-456.5 383.5,-437.5 310.5,-437.5"/>
<text text-anchor="middle" x="347" y="-444.5" font-family="Helvetica,sans-Serif" font-size="10.00">GlgIonicGui</text>
</a>
</g>
</g>
<!-- Node1&#45;&gt;Node4 -->
<g id="edge4" class="edge">
<title>Node1&#45;&gt;Node4</title>
<path fill="none" stroke="midnightblue" d="M215.38,-432.98C245.1,-436.17 283.07,-440.24 310.41,-443.18"/>
<polygon fill="midnightblue" stroke="midnightblue" points="215.56,-429.48 205.25,-431.89 214.81,-436.44 215.56,-429.48"/>
</g>
<!-- Node5 -->
<g id="node6" class="node">
<title>Node5</title>
<g id="a_node6"><a xlink:href="classGlgRGA3Gui.html" target="_top" xlink:title=" ">
<polygon fill="white" stroke="black" points="308.5,-399.5 308.5,-418.5 385.5,-418.5 385.5,-399.5 308.5,-399.5"/>
<text text-anchor="middle" x="347" y="-406.5" font-family="Helvetica,sans-Serif" font-size="10.00">GlgRGA3Gui</text>
</a>
</g>
</g>
<!-- Node1&#45;&gt;Node5 -->
<g id="edge5" class="edge">
<title>Node1&#45;&gt;Node5</title>
<path fill="none" stroke="midnightblue" d="M215.52,-423.01C244.45,-419.9 281.17,-415.96 308.28,-413.05"/>
<polygon fill="midnightblue" stroke="midnightblue" points="214.81,-419.56 205.25,-424.11 215.56,-426.52 214.81,-419.56"/>
</g>
<!-- Node6 -->
<g id="node7" class="node">
<title>Node6</title>
<g id="a_node7"><a xlink:href="classGlgTCMuxTempGui.html" target="_top" xlink:title=" ">
<polygon fill="white" stroke="black" points="292.5,-361.5 292.5,-380.5 401.5,-380.5 401.5,-361.5 292.5,-361.5"/>
<text text-anchor="middle" x="347" y="-368.5" font-family="Helvetica,sans-Serif" font-size="10.00">GlgTCMuxTempGui</text>
</a>
</g>
</g>
<!-- Node1&#45;&gt;Node6 -->
<g id="edge6" class="edge">
<title>Node1&#45;&gt;Node6</title>
<path fill="none" stroke="midnightblue" d="M210.24,-415.15C215.6,-413.22 220.96,-411.15 226,-409 242.64,-401.89 245.03,-396.27 262,-390 272.1,-386.27 283.16,-383.13 293.85,-380.55"/>
<polygon fill="midnightblue" stroke="midnightblue" points="209.01,-411.87 200.7,-418.46 211.3,-418.49 209.01,-411.87"/>
</g>
<!-- Node7 -->
<g id="node8" class="node">
<title>Node7</title>
<g id="a_node8"><a xlink:href="classGlgTitane__22Gui.html" target="_top" xlink:title=" ">
<polygon fill="white" stroke="black" points="298,-323.5 298,-342.5 396,-342.5 396,-323.5 298,-323.5"/>
<text text-anchor="middle" x="347" y="-330.5" font-family="Helvetica,sans-Serif" font-size="10.00">GlgTitane_22Gui</text>
</a>
</g>
</g>
<!-- Node1&#45;&gt;Node7 -->
<g id="edge7" class="edge">
<title>Node1&#45;&gt;Node7</title>
<path fill="none" stroke="midnightblue" d="M214.78,-415.98C218.77,-413.99 222.58,-411.68 226,-409 249.59,-390.52 237.53,-369.29 262,-352 272.5,-344.58 285.43,-340 297.96,-337.19"/>
<polygon fill="midnightblue" stroke="midnightblue" points="213.06,-412.91 205.25,-420.06 215.82,-419.34 213.06,-412.91"/>
</g>
<!-- Node8 -->
<g id="node9" class="node">
<title>Node8</title>
<g id="a_node9"><a xlink:href="classGlgTitane__32Gui.html" target="_top" xlink:title=" ">
<polygon fill="white" stroke="black" points="298,-285.5 298,-304.5 396,-304.5 396,-285.5 298,-285.5"/>
<text text-anchor="middle" x="347" y="-292.5" font-family="Helvetica,sans-Serif" font-size="10.00">GlgTitane_32Gui</text>
</a>
</g>
</g>
<!-- Node1&#45;&gt;Node8 -->
<g id="edge8" class="edge">
<title>Node1&#45;&gt;Node8</title>
<path fill="none" stroke="midnightblue" d="M214.57,-417.11C218.74,-414.89 222.65,-412.22 226,-409 258.57,-377.73 227.92,-343.62 262,-314 271.93,-305.37 284.96,-300.43 297.78,-297.66"/>
<polygon fill="midnightblue" stroke="midnightblue" points="212.86,-414.04 205.13,-421.28 215.7,-420.44 212.86,-414.04"/>
</g>
<!-- Node9 -->
<g id="node10" class="node">
<title>Node9</title>
<g id="a_node10"><a xlink:href="classGlgTube1500wStatusDetailsGui.html" target="_top" xlink:title=" ">
<polygon fill="white" stroke="black" points="262,-247.5 262,-266.5 432,-266.5 432,-247.5 262,-247.5"/>
<text text-anchor="middle" x="347" y="-254.5" font-family="Helvetica,sans-Serif" font-size="10.00">GlgTube1500wStatusDetailsGui</text>
</a>
</g>
</g>
<!-- Node1&#45;&gt;Node9 -->
<g id="edge9" class="edge">
<title>Node1&#45;&gt;Node9</title>
<path fill="none" stroke="midnightblue" d="M214.4,-417.71C218.7,-415.38 222.68,-412.51 226,-409 268.04,-364.47 217.8,-318.39 262,-276 265.99,-272.17 270.59,-269.05 275.52,-266.52"/>
<polygon fill="midnightblue" stroke="midnightblue" points="212.95,-414.52 205.25,-421.8 215.81,-420.92 212.95,-414.52"/>
</g>
<!-- Node10 -->
<g id="node11" class="node">
<title>Node10</title>
<g id="a_node11"><a xlink:href="classGlgTurboGui.html" target="_top" xlink:title=" ">
<polygon fill="white" stroke="black" points="309,-627.5 309,-646.5 385,-646.5 385,-627.5 309,-627.5"/>
<text text-anchor="middle" x="347" y="-634.5" font-family="Helvetica,sans-Serif" font-size="10.00">GlgTurboGui</text>
</a>
</g>
</g>
<!-- Node1&#45;&gt;Node10 -->
<g id="edge10" class="edge">
<title>Node1&#45;&gt;Node10</title>
<path fill="none" stroke="midnightblue" d="M172.79,-447.79C181.33,-486.79 205.89,-573.63 262,-618 275.14,-628.39 292.86,-633.32 308.63,-635.59"/>
<polygon fill="midnightblue" stroke="midnightblue" points="176.16,-446.82 170.71,-437.73 169.3,-448.23 176.16,-446.82"/>
</g>
<!-- Node11 -->
<g id="node12" class="node">
<title>Node11</title>
<g id="a_node12"><a xlink:href="classGlgValveGui.html" target="_top" xlink:title=" ">
<polygon fill="white" stroke="black" points="308.5,-589.5 308.5,-608.5 385.5,-608.5 385.5,-589.5 308.5,-589.5"/>
<text text-anchor="middle" x="347" y="-596.5" font-family="Helvetica,sans-Serif" font-size="10.00">GlgValveGui</text>
</a>
</g>
</g>
<!-- Node1&#45;&gt;Node11 -->
<g id="edge11" class="edge">
<title>Node1&#45;&gt;Node11</title>
<path fill="none" stroke="midnightblue" d="M175.24,-447.42C186.8,-480.18 214.79,-546.15 262,-580 275.37,-589.58 292.75,-594.44 308.24,-596.86"/>
<polygon fill="midnightblue" stroke="midnightblue" points="178.46,-446.03 171.94,-437.68 171.83,-448.27 178.46,-446.03"/>
</g>
<!-- Node12 -->
<g id="node13" class="node">
<title>Node12</title>
<g id="a_node13"><a xlink:href="classGlgXGSGaugeGui.html" target="_top" xlink:title=" ">
<polygon fill="white" stroke="black" points="296.5,-551.5 296.5,-570.5 397.5,-570.5 397.5,-551.5 296.5,-551.5"/>
<text text-anchor="middle" x="347" y="-558.5" font-family="Helvetica,sans-Serif" font-size="10.00">GlgXGSGaugeGui</text>
</a>
</g>
</g>
<!-- Node1&#45;&gt;Node12 -->
<g id="edge12" class="edge">
<title>Node1&#45;&gt;Node12</title>
<path fill="none" stroke="midnightblue" d="M179.01,-446.87C193.67,-472.58 223.47,-518.14 262,-542 272.3,-548.38 284.49,-552.62 296.34,-555.44"/>
<polygon fill="midnightblue" stroke="midnightblue" points="181.89,-444.84 173.99,-437.78 175.76,-448.23 181.89,-444.84"/>
</g>
<!-- Node18 -->
<g id="node15" class="node">
<title>Node18</title>
<g id="a_node15"><a xlink:href="interfaceDataTypes.html" target="_top" xlink:title=" ">
<polygon fill="white" stroke="black" points="3,-285.5 3,-304.5 71,-304.5 71,-285.5 3,-285.5"/>
<text text-anchor="middle" x="37" y="-292.5" font-family="Helvetica,sans-Serif" font-size="10.00">DataTypes</text>
</a>
</g>
</g>
<!-- Node18&#45;&gt;Node13 -->
<g id="edge26" class="edge">
<title>Node18&#45;&gt;Node13</title>
<path fill="none" stroke="midnightblue" d="M50.62,-312.7C63.69,-329.84 85.59,-355.45 110,-371 119.94,-377.33 132.21,-381.78 142.82,-384.76"/>
<polygon fill="midnightblue" stroke="midnightblue" points="53.39,-310.56 44.62,-304.61 47.76,-314.73 53.39,-310.56"/>
</g>
<!-- Node19 -->
<g id="node16" class="node">
<title>Node19</title>
<g id="a_node16"><a xlink:href="classDataElement.html" target="_top" xlink:title=" ">
<polygon fill="white" stroke="black" points="128,-342.5 128,-361.5 208,-361.5 208,-342.5 128,-342.5"/>
<text text-anchor="middle" x="168" y="-349.5" font-family="Helvetica,sans-Serif" font-size="10.00">DataElement</text>
</a>
</g>
</g>
<!-- Node18&#45;&gt;Node19 -->
<g id="edge14" class="edge">
<title>Node18&#45;&gt;Node19</title>
<path fill="none" stroke="midnightblue" d="M67.76,-308.89C80.7,-314.87 96.06,-321.87 110,-328 121.11,-332.88 133.51,-338.13 143.91,-342.47"/>
<polygon fill="midnightblue" stroke="midnightblue" points="68.95,-305.59 58.41,-304.56 66.01,-311.94 68.95,-305.59"/>
</g>
<!-- Node20 -->
<g id="node17" class="node">
<title>Node20</title>
<g id="a_node17"><a xlink:href="classDataManager.html" target="_top" xlink:title=" ">
<polygon fill="white" stroke="black" points="126.5,-266.5 126.5,-285.5 209.5,-285.5 209.5,-266.5 126.5,-266.5"/>
<text text-anchor="middle" x="168" y="-273.5" font-family="Helvetica,sans-Serif" font-size="10.00">DataManager</text>
</a>
</g>
</g>
<!-- Node18&#45;&gt;Node20 -->
<g id="edge15" class="edge">
<title>Node18&#45;&gt;Node20</title>
<path fill="none" stroke="midnightblue" d="M81.39,-288.61C95.82,-286.48 111.82,-284.13 126.05,-282.03"/>
<polygon fill="midnightblue" stroke="midnightblue" points="80.6,-285.19 71.22,-290.11 81.62,-292.11 80.6,-285.19"/>
</g>
<!-- Node21 -->
<g id="node18" class="node">
<title>Node21</title>
<g id="a_node18"><a xlink:href="classDevice.html" target="_top" xlink:title=" ">
<polygon fill="white" stroke="black" points="322,-209.5 322,-228.5 372,-228.5 372,-209.5 322,-209.5"/>
<text text-anchor="middle" x="347" y="-216.5" font-family="Helvetica,sans-Serif" font-size="10.00">Device</text>
</a>
</g>
</g>
<!-- Node18&#45;&gt;Node21 -->
<g id="edge25" class="edge">
<title>Node18&#45;&gt;Node21</title>
<path fill="none" stroke="midnightblue" d="M81.29,-306.26C121.41,-314.21 181.43,-319.57 226,-295 252.24,-280.54 237.53,-255.29 262,-238 279.59,-225.58 303.97,-221.12 321.93,-219.6"/>
<polygon fill="midnightblue" stroke="midnightblue" points="81.8,-302.79 71.29,-304.15 80.35,-309.64 81.8,-302.79"/>
</g>
<!-- Node30 -->
<g id="node27" class="node">
<title>Node30</title>
<g id="a_node27"><a xlink:href="classModbusSlaveThread.html" target="_top" xlink:title=" ">
<polygon fill="white" stroke="black" points="110,-228.5 110,-247.5 226,-247.5 226,-228.5 110,-228.5"/>
<text text-anchor="middle" x="168" y="-235.5" font-family="Helvetica,sans-Serif" font-size="10.00">ModbusSlaveThread</text>
</a>
</g>
</g>
<!-- Node18&#45;&gt;Node30 -->
<g id="edge27" class="edge">
<title>Node18&#45;&gt;Node30</title>
<path fill="none" stroke="midnightblue" d="M63,-280.51C76.63,-272.94 93.95,-263.86 110,-257 118.06,-253.56 126.96,-250.33 135.3,-247.54"/>
<polygon fill="midnightblue" stroke="midnightblue" points="61.21,-277.5 54.21,-285.46 64.64,-283.6 61.21,-277.5"/>
</g>
<!-- Node31 -->
<g id="node28" class="node">
<title>Node31</title>
<g id="a_node28"><a xlink:href="classOperation.html" target="_top" xlink:title=" ">
<polygon fill="white" stroke="black" points="135.5,-190.5 135.5,-209.5 200.5,-209.5 200.5,-190.5 135.5,-190.5"/>
<text text-anchor="middle" x="168" y="-197.5" font-family="Helvetica,sans-Serif" font-size="10.00">Operation</text>
</a>
</g>
</g>
<!-- Node18&#45;&gt;Node31 -->
<g id="edge28" class="edge">
<title>Node18&#45;&gt;Node31</title>
<path fill="none" stroke="midnightblue" d="M50.62,-277.3C63.69,-260.16 85.59,-234.55 110,-219 117.65,-214.13 126.69,-210.37 135.28,-207.53"/>
<polygon fill="midnightblue" stroke="midnightblue" points="47.76,-275.27 44.62,-285.39 53.39,-279.44 47.76,-275.27"/>
</g>
<!-- Node20&#45;&gt;Node21 -->
<g id="edge16" class="edge">
<title>Node20&#45;&gt;Node21</title>
<path fill="none" stroke="midnightblue" d="M210.24,-263.15C215.6,-261.22 220.96,-259.15 226,-257 242.64,-249.89 245.03,-244.27 262,-238 281.63,-230.74 304.92,-225.74 321.98,-222.7"/>
<polygon fill="midnightblue" stroke="midnightblue" points="209.01,-259.87 200.7,-266.46 211.3,-266.49 209.01,-259.87"/>
</g>
<!-- Node22 -->
<g id="node19" class="node">
<title>Node22</title>
<g id="a_node19"><a xlink:href="classControllino__1.html" target="_top" xlink:title=" ">
<polygon fill="white" stroke="black" points="477.5,-342.5 477.5,-361.5 558.5,-361.5 558.5,-342.5 477.5,-342.5"/>
<text text-anchor="middle" x="518" y="-349.5" font-family="Helvetica,sans-Serif" font-size="10.00">Controllino_1</text>
</a>
</g>
</g>
<!-- Node21&#45;&gt;Node22 -->
<g id="edge17" class="edge">
<title>Node21&#45;&gt;Node22</title>
<path fill="none" stroke="midnightblue" d="M382.09,-219.38C398.86,-221.25 418.36,-226.14 432,-238 466.08,-267.62 436.2,-300.95 468,-333 471.86,-336.89 476.6,-339.99 481.59,-342.48"/>
<polygon fill="midnightblue" stroke="midnightblue" points="382.32,-215.89 372.07,-218.58 381.76,-222.87 382.32,-215.89"/>
</g>
<!-- Node23 -->
<g id="node20" class="node">
<title>Node23</title>
<g id="a_node20"><a xlink:href="classControllino__2.html" target="_top" xlink:title=" ">
<polygon fill="white" stroke="black" points="477.5,-304.5 477.5,-323.5 558.5,-323.5 558.5,-304.5 477.5,-304.5"/>
<text text-anchor="middle" x="518" y="-311.5" font-family="Helvetica,sans-Serif" font-size="10.00">Controllino_2</text>
</a>
</g>
</g>
<!-- Node21&#45;&gt;Node23 -->
<g id="edge18" class="edge">
<title>Node21&#45;&gt;Node23</title>
<path fill="none" stroke="midnightblue" d="M382.3,-220.73C398.58,-222.98 417.57,-227.81 432,-238 456.47,-255.29 444.87,-275.96 468,-295 472.65,-298.83 478.16,-301.94 483.77,-304.46"/>
<polygon fill="midnightblue" stroke="midnightblue" points="382.39,-217.22 372.07,-219.6 381.62,-224.18 382.39,-217.22"/>
</g>
<!-- Node24 -->
<g id="node21" class="node">
<title>Node24</title>
<g id="a_node21"><a xlink:href="classMaxiGauge.html" target="_top" xlink:title=" ">
<polygon fill="white" stroke="black" points="482,-266.5 482,-285.5 554,-285.5 554,-266.5 482,-266.5"/>
<text text-anchor="middle" x="518" y="-273.5" font-family="Helvetica,sans-Serif" font-size="10.00">MaxiGauge</text>
</a>
</g>
</g>
<!-- Node21&#45;&gt;Node24 -->
<g id="edge19" class="edge">
<title>Node21&#45;&gt;Node24</title>
<path fill="none" stroke="midnightblue" d="M382.21,-224.62C397.69,-227.7 416.05,-232.1 432,-238 448.97,-244.27 451.54,-249.49 468,-257 475.31,-260.33 483.38,-263.62 490.83,-266.5"/>
<polygon fill="midnightblue" stroke="midnightblue" points="382.49,-221.11 372.02,-222.7 381.2,-227.99 382.49,-221.11"/>
</g>
<!-- Node25 -->
<g id="node22" class="node">
<title>Node25</title>
<g id="a_node22"><a xlink:href="classMksRotor.html" target="_top" xlink:title=" ">
<polygon fill="white" stroke="black" points="486.5,-228.5 486.5,-247.5 549.5,-247.5 549.5,-228.5 486.5,-228.5"/>
<text text-anchor="middle" x="518" y="-235.5" font-family="Helvetica,sans-Serif" font-size="10.00">MksRotor</text>
</a>
</g>
</g>
<!-- Node21&#45;&gt;Node25 -->
<g id="edge20" class="edge">
<title>Node21&#45;&gt;Node25</title>
<path fill="none" stroke="midnightblue" d="M382.38,-222.86C412.84,-226.29 456.92,-231.25 486.24,-234.54"/>
<polygon fill="midnightblue" stroke="midnightblue" points="382.54,-219.36 372.21,-221.72 381.76,-226.32 382.54,-219.36"/>
</g>
<!-- Node26 -->
<g id="node23" class="node">
<title>Node26</title>
<g id="a_node23"><a xlink:href="classSicem.html" target="_top" xlink:title=" ">
<polygon fill="white" stroke="black" points="494.5,-190.5 494.5,-209.5 541.5,-209.5 541.5,-190.5 494.5,-190.5"/>
<text text-anchor="middle" x="518" y="-197.5" font-family="Helvetica,sans-Serif" font-size="10.00">Sicem</text>
</a>
</g>
</g>
<!-- Node21&#45;&gt;Node26 -->
<g id="edge21" class="edge">
<title>Node21&#45;&gt;Node26</title>
<path fill="none" stroke="midnightblue" d="M382.46,-215.13C415.92,-211.36 465.76,-205.76 494.45,-202.54"/>
<polygon fill="midnightblue" stroke="midnightblue" points="381.76,-211.68 372.21,-216.28 382.54,-218.64 381.76,-211.68"/>
</g>
<!-- Node27 -->
<g id="node24" class="node">
<title>Node27</title>
<g id="a_node24"><a xlink:href="classTCMuxShield.html" target="_top" xlink:title=" ">
<polygon fill="white" stroke="black" points="478,-152.5 478,-171.5 558,-171.5 558,-152.5 478,-152.5"/>
<text text-anchor="middle" x="518" y="-159.5" font-family="Helvetica,sans-Serif" font-size="10.00">TCMuxShield</text>
</a>
</g>
</g>
<!-- Node21&#45;&gt;Node27 -->
<g id="edge22" class="edge">
<title>Node21&#45;&gt;Node27</title>
<path fill="none" stroke="midnightblue" d="M381.82,-207.59C413.13,-197.03 459.15,-181.51 488.6,-171.58"/>
<polygon fill="midnightblue" stroke="midnightblue" points="380.57,-204.32 372.21,-210.83 382.81,-210.95 380.57,-204.32"/>
</g>
<!-- Node28 -->
<g id="node25" class="node">
<title>Node28</title>
<g id="a_node25"><a xlink:href="classTurboPfeifferDCU.html" target="_top" xlink:title=" ">
<polygon fill="white" stroke="black" points="468,-114.5 468,-133.5 568,-133.5 568,-114.5 468,-114.5"/>
<text text-anchor="middle" x="518" y="-121.5" font-family="Helvetica,sans-Serif" font-size="10.00">TurboPfeifferDCU</text>
</a>
</g>
</g>
<!-- Node21&#45;&gt;Node28 -->
<g id="edge23" class="edge">
<title>Node21&#45;&gt;Node28</title>
<path fill="none" stroke="midnightblue" d="M369.35,-203.68C392.78,-187.3 431.88,-161.22 468,-143 474.84,-139.55 482.47,-136.32 489.63,-133.53"/>
<polygon fill="midnightblue" stroke="midnightblue" points="367.33,-200.82 361.17,-209.45 371.36,-206.54 367.33,-200.82"/>
</g>
<!-- Node29 -->
<g id="node26" class="node">
<title>Node29</title>
<g id="a_node26"><a xlink:href="classXGSGauge.html" target="_top" xlink:title=" ">
<polygon fill="white" stroke="black" points="484,-76.5 484,-95.5 552,-95.5 552,-76.5 484,-76.5"/>
<text text-anchor="middle" x="518" y="-83.5" font-family="Helvetica,sans-Serif" font-size="10.00">XGSGauge</text>
</a>
</g>
</g>
<!-- Node21&#45;&gt;Node29 -->
<g id="edge24" class="edge">
<title>Node21&#45;&gt;Node29</title>
<path fill="none" stroke="midnightblue" d="M362.28,-201.7C383.24,-177.25 424.58,-132.52 468,-105 473.78,-101.34 480.38,-98.19 486.82,-95.57"/>
<polygon fill="midnightblue" stroke="midnightblue" points="359.52,-199.54 355.75,-209.44 364.87,-204.05 359.52,-199.54"/>
</g>
<!-- Node50 -->
<g id="node29" class="node">
<title>Node50</title>
<g id="a_node29"><a xlink:title=" ">
<polygon fill="white" stroke="#bfbfbf" points="6,-190.5 6,-209.5 68,-209.5 68,-190.5 6,-190.5"/>
<text text-anchor="middle" x="37" y="-197.5" font-family="Helvetica,sans-Serif" font-size="10.00">Runnable</text>
</a>
</g>
</g>
<!-- Node50&#45;&gt;Node1 -->
<g id="edge32" class="edge">
<title>Node50&#45;&gt;Node1</title>
<path fill="none" stroke="midnightblue" d="M48.1,-218.88C55.92,-234.02 66.61,-255.97 74,-276 95.19,-333.45 67.96,-364.47 110,-409 115.59,-414.92 123.06,-418.99 130.75,-421.8"/>
<polygon fill="midnightblue" stroke="midnightblue" points="50.98,-216.83 43.23,-209.6 44.78,-220.08 50.98,-216.83"/>
</g>
<!-- Node50&#45;&gt;Node13 -->
<g id="edge33" class="edge">
<title>Node50&#45;&gt;Node13</title>
<path fill="none" stroke="midnightblue" d="M47.57,-219.09C55.08,-234.35 65.64,-256.35 74,-276 91.68,-317.55 77.43,-339.73 110,-371 118.88,-379.53 131.68,-384.23 142.91,-386.82"/>
<polygon fill="midnightblue" stroke="midnightblue" points="50.5,-217.12 42.91,-209.72 44.23,-220.24 50.5,-217.12"/>
</g>
<!-- Node50&#45;&gt;Node21 -->
<g id="edge29" class="edge">
<title>Node50&#45;&gt;Node21</title>
<path fill="none" stroke="midnightblue" d="M76.92,-187.77C87.54,-184.98 99.12,-182.41 110,-181 161.13,-174.37 175.05,-173.13 226,-181 260.77,-186.37 299.27,-200.02 323.05,-209.4"/>
<polygon fill="midnightblue" stroke="midnightblue" points="75.79,-184.45 67.09,-190.5 77.66,-191.2 75.79,-184.45"/>
</g>
<!-- Node50&#45;&gt;Node30 -->
<g id="edge34" class="edge">
<title>Node50&#45;&gt;Node30</title>
<path fill="none" stroke="midnightblue" d="M78.01,-211.78C96.23,-217.15 117.51,-223.42 134.69,-228.48"/>
<polygon fill="midnightblue" stroke="midnightblue" points="78.83,-208.38 68.24,-208.91 76.85,-215.09 78.83,-208.38"/>
</g>
<!-- Node50&#45;&gt;Node31 -->
<g id="edge35" class="edge">
<title>Node50&#45;&gt;Node31</title>
<path fill="none" stroke="midnightblue" d="M78.34,-200C96.64,-200 117.99,-200 135.14,-200"/>
<polygon fill="midnightblue" stroke="midnightblue" points="78.24,-196.5 68.24,-200 78.24,-203.5 78.24,-196.5"/>
</g>
<!-- Node51 -->
<g id="node30" class="node">
<title>Node51</title>
<g id="a_node30"><a xlink:href="classDialogStart.html" target="_top" xlink:title=" ">
<polygon fill="white" stroke="black" points="132.5,-114.5 132.5,-133.5 203.5,-133.5 203.5,-114.5 132.5,-114.5"/>
<text text-anchor="middle" x="168" y="-121.5" font-family="Helvetica,sans-Serif" font-size="10.00">DialogStart</text>
</a>
</g>
</g>
<!-- Node50&#45;&gt;Node51 -->
<g id="edge30" class="edge">
<title>Node50&#45;&gt;Node51</title>
<path fill="none" stroke="midnightblue" d="M57.62,-183.95C71.66,-172.95 91.3,-158.51 110,-148 119.73,-142.53 130.97,-137.54 140.87,-133.55"/>
<polygon fill="midnightblue" stroke="midnightblue" points="55.31,-181.32 49.67,-190.29 59.67,-186.8 55.31,-181.32"/>
</g>
<!-- Node52 -->
<g id="node31" class="node">
<title>Node52</title>
<g id="a_node31"><a xlink:href="classDialogStop.html" target="_top" xlink:title=" ">
<polygon fill="white" stroke="black" points="133,-76.5 133,-95.5 203,-95.5 203,-76.5 133,-76.5"/>
<text text-anchor="middle" x="168" y="-83.5" font-family="Helvetica,sans-Serif" font-size="10.00">DialogStop</text>
</a>
</g>
</g>
<!-- Node50&#45;&gt;Node52 -->
<g id="edge31" class="edge">
<title>Node50&#45;&gt;Node52</title>
<path fill="none" stroke="midnightblue" d="M47.59,-181.35C59.48,-159.98 81.69,-125.3 110,-105 116.78,-100.14 124.89,-96.46 132.84,-93.7"/>
<polygon fill="midnightblue" stroke="midnightblue" points="44.38,-179.93 42.73,-190.39 50.54,-183.24 44.38,-179.93"/>
</g>
<!-- Node59 -->
<g id="node32" class="node">
<title>Node59</title>
<g id="a_node32"><a xlink:title=" ">
<polygon fill="white" stroke="#bfbfbf" points="11.5,-57.5 11.5,-76.5 62.5,-76.5 62.5,-57.5 11.5,-57.5"/>
<text text-anchor="middle" x="37" y="-64.5" font-family="Helvetica,sans-Serif" font-size="10.00">JDialog</text>
</a>
</g>
</g>
<!-- Node59&#45;&gt;Node51 -->
<g id="edge38" class="edge">
<title>Node59&#45;&gt;Node51</title>
<path fill="none" stroke="midnightblue" d="M63,-81.49C76.63,-89.06 93.95,-98.14 110,-105 118.06,-108.44 126.96,-111.67 135.3,-114.46"/>
<polygon fill="midnightblue" stroke="midnightblue" points="64.64,-78.4 54.21,-76.54 61.21,-84.5 64.64,-78.4"/>
</g>
<!-- Node59&#45;&gt;Node52 -->
<g id="edge39" class="edge">
<title>Node59&#45;&gt;Node52</title>
<path fill="none" stroke="midnightblue" d="M72.7,-72.11C91.34,-74.86 114.22,-78.23 132.78,-80.96"/>
<polygon fill="midnightblue" stroke="midnightblue" points="72.97,-68.61 62.57,-70.62 71.95,-75.54 72.97,-68.61"/>
</g>
<!-- Node60 -->
<g id="node33" class="node">
<title>Node60</title>
<g id="a_node33"><a xlink:href="classDialogOp.html" target="_top" xlink:title=" ">
<polygon fill="white" stroke="black" points="137,-38.5 137,-57.5 199,-57.5 199,-38.5 137,-38.5"/>
<text text-anchor="middle" x="168" y="-45.5" font-family="Helvetica,sans-Serif" font-size="10.00">DialogOp</text>
</a>
</g>
</g>
<!-- Node59&#45;&gt;Node60 -->
<g id="edge36" class="edge">
<title>Node59&#45;&gt;Node60</title>
<path fill="none" stroke="midnightblue" d="M72.51,-61.92C92.48,-58.98 117.38,-55.31 136.61,-52.48"/>
<polygon fill="midnightblue" stroke="midnightblue" points="71.95,-58.46 62.57,-63.38 72.97,-65.39 71.95,-58.46"/>
</g>
<!-- Node61 -->
<g id="node34" class="node">
<title>Node61</title>
<g id="a_node34"><a xlink:href="classDialogSetPoint.html" target="_top" xlink:title=" ">
<polygon fill="white" stroke="black" points="123.5,-0.5 123.5,-19.5 212.5,-19.5 212.5,-0.5 123.5,-0.5"/>
<text text-anchor="middle" x="168" y="-7.5" font-family="Helvetica,sans-Serif" font-size="10.00">DialogSetPoint</text>
</a>
</g>
</g>
<!-- Node59&#45;&gt;Node61 -->
<g id="edge37" class="edge">
<title>Node59&#45;&gt;Node61</title>
<path fill="none" stroke="midnightblue" d="M63,-52.51C76.63,-44.94 93.95,-35.86 110,-29 118.06,-25.56 126.96,-22.33 135.3,-19.54"/>
<polygon fill="midnightblue" stroke="midnightblue" points="61.21,-49.5 54.21,-57.46 64.64,-55.6 61.21,-49.5"/>
</g>
<!-- Node62 -->
<g id="node35" class="node">
<title>Node62</title>
<g id="a_node35"><a xlink:title=" ">
<polygon fill="white" stroke="#bfbfbf" points="12,-418.5 12,-437.5 62,-437.5 62,-418.5 12,-418.5"/>
<text text-anchor="middle" x="37" y="-425.5" font-family="Helvetica,sans-Serif" font-size="10.00">JFrame</text>
</a>
</g>
</g>
<!-- Node62&#45;&gt;Node1 -->
<g id="edge40" class="edge">
<title>Node62&#45;&gt;Node1</title>
<path fill="none" stroke="midnightblue" d="M72.33,-428C90.33,-428 112.36,-428 130.65,-428"/>
<polygon fill="midnightblue" stroke="midnightblue" points="72.26,-424.5 62.26,-428 72.26,-431.5 72.26,-424.5"/>
</g>
<!-- Node62&#45;&gt;Node13 -->
<g id="edge41" class="edge">
<title>Node62&#45;&gt;Node13</title>
<path fill="none" stroke="midnightblue" d="M72,-417.98C94.29,-411.42 122.88,-403 142.84,-397.12"/>
<polygon fill="midnightblue" stroke="midnightblue" points="70.87,-414.67 62.26,-420.85 72.85,-421.38 70.87,-414.67"/>
</g>
</g>
</svg>
