<?xml version="1.0" encoding="UTF-8" standalone="no"?>
<!DOCTYPE svg PUBLIC "-//W3C//DTD SVG 1.1//EN"
 "http://www.w3.org/Graphics/SVG/1.1/DTD/svg11.dtd">
<!-- Generated by graphviz version 2.50.0 (0)
 -->
<!-- Title: Graphical Class Hierarchy Pages: 1 -->
<svg width="258pt" height="66pt"
 viewBox="0.00 0.00 258.00 66.00" xmlns="http://www.w3.org/2000/svg" xmlns:xlink="http://www.w3.org/1999/xlink">
<g id="graph0" class="graph" transform="scale(1 1) rotate(0) translate(4 62)">
<title>Graphical Class Hierarchy</title>
<!-- Node54 -->
<g id="node1" class="node">
<title>Node54</title>
<g id="a_node1"><a xlink:title=" ">
<polygon fill="none" stroke="#bfbfbf" points="0,-38.5 0,-57.5 86,-57.5 86,-38.5 0,-38.5"/>
<text text-anchor="middle" x="43" y="-45.5" font-family="Helvetica,sans-Serif" font-size="10.00">ActionListener</text>
</a>
</g>
</g>
<!-- Node0 -->
<g id="node2" class="node">
<title>Node0</title>
<g id="a_node2"><a xlink:href="classDialogOp_1_1Keypad.html" target="_top" xlink:title=" ">
<polygon fill="none" stroke="black" points="135.5,-38.5 135.5,-57.5 236.5,-57.5 236.5,-38.5 135.5,-38.5"/>
<text text-anchor="middle" x="186" y="-45.5" font-family="Helvetica,sans-Serif" font-size="10.00">DialogOp.Keypad</text>
</a>
</g>
</g>
<!-- Node54&#45;&gt;Node0 -->
<g id="edge1" class="edge">
<title>Node54&#45;&gt;Node0</title>
<path fill="none" stroke="midnightblue" d="M96.31,-48C109.06,-48 122.66,-48 135.28,-48"/>
<polygon fill="midnightblue" stroke="midnightblue" points="96.3,-44.5 86.3,-48 96.3,-51.5 96.3,-44.5"/>
</g>
<!-- Node56 -->
<g id="node3" class="node">
<title>Node56</title>
<g id="a_node3"><a xlink:href="classDialogSetPoint_1_1Keypad.html" target="_top" xlink:title=" ">
<polygon fill="none" stroke="black" points="122,-0.5 122,-19.5 250,-19.5 250,-0.5 122,-0.5"/>
<text text-anchor="middle" x="186" y="-7.5" font-family="Helvetica,sans-Serif" font-size="10.00">DialogSetPoint.Keypad</text>
</a>
</g>
</g>
<!-- Node54&#45;&gt;Node56 -->
<g id="edge2" class="edge">
<title>Node54&#45;&gt;Node56</title>
<path fill="none" stroke="midnightblue" d="M89.44,-35.75C108.87,-30.52 131.23,-24.49 149.43,-19.59"/>
<polygon fill="midnightblue" stroke="midnightblue" points="88.32,-32.43 79.58,-38.41 90.15,-39.19 88.32,-32.43"/>
</g>
<!-- Node63 -->
<g id="node4" class="node">
<title>Node63</title>
<g id="a_node4"><a xlink:title=" ">
<polygon fill="none" stroke="#bfbfbf" points="20,-0.5 20,-19.5 66,-19.5 66,-0.5 20,-0.5"/>
<text text-anchor="middle" x="43" y="-7.5" font-family="Helvetica,sans-Serif" font-size="10.00">JPanel</text>
</a>
</g>
</g>
<!-- Node63&#45;&gt;Node0 -->
<g id="edge3" class="edge">
<title>Node63&#45;&gt;Node0</title>
<path fill="none" stroke="midnightblue" d="M75.87,-18.59C97.83,-24.51 127.02,-32.38 149.69,-38.48"/>
<polygon fill="midnightblue" stroke="midnightblue" points="76.6,-15.16 66.03,-15.94 74.78,-21.92 76.6,-15.16"/>
</g>
<!-- Node63&#45;&gt;Node56 -->
<g id="edge4" class="edge">
<title>Node63&#45;&gt;Node56</title>
<path fill="none" stroke="midnightblue" d="M76.24,-10C89.76,-10 105.98,-10 121.72,-10"/>
<polygon fill="midnightblue" stroke="midnightblue" points="76.03,-6.5 66.03,-10 76.03,-13.5 76.03,-6.5"/>
</g>
</g>
</svg>
