<?xml version="1.0" encoding="UTF-8" standalone="no"?>
<!DOCTYPE svg PUBLIC "-//W3C//DTD SVG 1.1//EN"
 "http://www.w3.org/Graphics/SVG/1.1/DTD/svg11.dtd">
<!-- Generated by graphviz version 2.50.0 (0)
 -->
<!-- Title: Graphical Class Hierarchy Pages: 1 -->
<svg width="317pt" height="420pt"
 viewBox="0.00 0.00 317.00 420.00" xmlns="http://www.w3.org/2000/svg" xmlns:xlink="http://www.w3.org/1999/xlink">
<g id="graph0" class="graph" transform="scale(1 1) rotate(0) translate(4 416)">
<title>Graphical Class Hierarchy</title>
<!-- Node33 -->
<g id="node1" class="node">
<title>Node33</title>
<g id="a_node1"><a xlink:title=" ">
<polygon fill="none" stroke="#bfbfbf" points="0,-202.5 0,-221.5 97,-221.5 97,-202.5 0,-202.5"/>
<text text-anchor="middle" x="48.5" y="-209.5" font-family="Helvetica,sans-Serif" font-size="10.00">GlgInputListener</text>
</a>
</g>
</g>
<!-- Node0 -->
<g id="node2" class="node">
<title>Node0</title>
<g id="a_node2"><a xlink:href="classGlgDryGui_1_1InputListener.html" target="_top" xlink:title=" ">
<polygon fill="none" stroke="black" points="154,-392.5 154,-411.5 288,-411.5 288,-392.5 154,-392.5"/>
<text text-anchor="middle" x="221" y="-399.5" font-family="Helvetica,sans-Serif" font-size="10.00">GlgDryGui.InputListener</text>
</a>
</g>
</g>
<!-- Node33&#45;&gt;Node0 -->
<g id="edge1" class="edge">
<title>Node33&#45;&gt;Node0</title>
<path fill="none" stroke="midnightblue" d="M53.28,-231.77C61.25,-267.78 83.3,-343.96 133,-383 139.2,-387.87 146.38,-391.55 153.91,-394.33"/>
<polygon fill="midnightblue" stroke="midnightblue" points="56.63,-230.67 51.17,-221.58 49.77,-232.09 56.63,-230.67"/>
</g>
<!-- Node35 -->
<g id="node3" class="node">
<title>Node35</title>
<g id="a_node3"><a xlink:href="classGlgGaugeGui_1_1InputListener.html" target="_top" xlink:title=" ">
<polygon fill="none" stroke="black" points="147,-354.5 147,-373.5 295,-373.5 295,-354.5 147,-354.5"/>
<text text-anchor="middle" x="221" y="-361.5" font-family="Helvetica,sans-Serif" font-size="10.00">GlgGaugeGui.InputListener</text>
</a>
</g>
</g>
<!-- Node33&#45;&gt;Node35 -->
<g id="edge2" class="edge">
<title>Node33&#45;&gt;Node35</title>
<path fill="none" stroke="midnightblue" d="M55.95,-231.05C66.92,-260.39 92.08,-316.24 133,-345 138.44,-348.82 144.51,-351.9 150.84,-354.37"/>
<polygon fill="midnightblue" stroke="midnightblue" points="59.22,-229.78 52.55,-221.54 52.63,-232.14 59.22,-229.78"/>
</g>
<!-- Node36 -->
<g id="node4" class="node">
<title>Node36</title>
<g id="a_node4"><a xlink:href="classGlgIonicGui_1_1InputListener.html" target="_top" xlink:title=" ">
<polygon fill="none" stroke="black" points="151,-316.5 151,-335.5 291,-335.5 291,-316.5 151,-316.5"/>
<text text-anchor="middle" x="221" y="-323.5" font-family="Helvetica,sans-Serif" font-size="10.00">GlgIonicGui.InputListener</text>
</a>
</g>
</g>
<!-- Node33&#45;&gt;Node36 -->
<g id="edge3" class="edge">
<title>Node33&#45;&gt;Node36</title>
<path fill="none" stroke="midnightblue" d="M60.37,-230.26C74.34,-252.07 100.7,-287.97 133,-307 139.53,-310.85 146.74,-313.91 154.14,-316.36"/>
<polygon fill="midnightblue" stroke="midnightblue" points="63.25,-228.26 55,-221.61 57.3,-231.95 63.25,-228.26"/>
</g>
<!-- Node37 -->
<g id="node5" class="node">
<title>Node37</title>
<g id="a_node5"><a xlink:href="classGlgRGA3Gui_1_1InputListener.html" target="_top" xlink:title=" ">
<polygon fill="none" stroke="black" points="149.5,-278.5 149.5,-297.5 292.5,-297.5 292.5,-278.5 149.5,-278.5"/>
<text text-anchor="middle" x="221" y="-285.5" font-family="Helvetica,sans-Serif" font-size="10.00">GlgRGA3Gui.InputListener</text>
</a>
</g>
</g>
<!-- Node33&#45;&gt;Node37 -->
<g id="edge4" class="edge">
<title>Node33&#45;&gt;Node37</title>
<path fill="none" stroke="midnightblue" d="M68.64,-228.25C84.8,-241.15 109.06,-258.68 133,-269 141.94,-272.86 151.76,-275.96 161.46,-278.46"/>
<polygon fill="midnightblue" stroke="midnightblue" points="70.51,-225.26 60.56,-221.64 66.08,-230.68 70.51,-225.26"/>
</g>
<!-- Node38 -->
<g id="node6" class="node">
<title>Node38</title>
<g id="a_node6"><a xlink:href="classGlgTCMuxTempGui_1_1InputListener.html" target="_top" xlink:title=" ">
<polygon fill="none" stroke="black" points="133,-240.5 133,-259.5 309,-259.5 309,-240.5 133,-240.5"/>
<text text-anchor="middle" x="221" y="-247.5" font-family="Helvetica,sans-Serif" font-size="10.00">GlgTCMuxTempGui.InputListener</text>
</a>
</g>
</g>
<!-- Node33&#45;&gt;Node38 -->
<g id="edge5" class="edge">
<title>Node33&#45;&gt;Node38</title>
<path fill="none" stroke="midnightblue" d="M101.05,-223.8C111.61,-226.2 122.66,-228.7 133,-231 146.88,-234.1 162.02,-237.42 175.72,-240.41"/>
<polygon fill="midnightblue" stroke="midnightblue" points="101.63,-220.35 91.11,-221.54 100.08,-227.17 101.63,-220.35"/>
</g>
<!-- Node39 -->
<g id="node7" class="node">
<title>Node39</title>
<g id="a_node7"><a xlink:href="classGlgTitane__22Gui_1_1InputListener.html" target="_top" xlink:title=" ">
<polygon fill="none" stroke="black" points="139,-202.5 139,-221.5 303,-221.5 303,-202.5 139,-202.5"/>
<text text-anchor="middle" x="221" y="-209.5" font-family="Helvetica,sans-Serif" font-size="10.00">GlgTitane_22Gui.InputListener</text>
</a>
</g>
</g>
<!-- Node33&#45;&gt;Node39 -->
<g id="edge6" class="edge">
<title>Node33&#45;&gt;Node39</title>
<path fill="none" stroke="midnightblue" d="M107.68,-212C117.73,-212 128.33,-212 138.85,-212"/>
<polygon fill="midnightblue" stroke="midnightblue" points="107.45,-208.5 97.45,-212 107.45,-215.5 107.45,-208.5"/>
</g>
<!-- Node40 -->
<g id="node8" class="node">
<title>Node40</title>
<g id="a_node8"><a xlink:href="classGlgTitane__32Gui_1_1InputListener.html" target="_top" xlink:title=" ">
<polygon fill="none" stroke="black" points="139,-164.5 139,-183.5 303,-183.5 303,-164.5 139,-164.5"/>
<text text-anchor="middle" x="221" y="-171.5" font-family="Helvetica,sans-Serif" font-size="10.00">GlgTitane_32Gui.InputListener</text>
</a>
</g>
</g>
<!-- Node33&#45;&gt;Node40 -->
<g id="edge7" class="edge">
<title>Node33&#45;&gt;Node40</title>
<path fill="none" stroke="midnightblue" d="M101.05,-200.2C111.61,-197.8 122.66,-195.3 133,-193 146.88,-189.9 162.02,-186.58 175.72,-183.59"/>
<polygon fill="midnightblue" stroke="midnightblue" points="100.08,-196.83 91.11,-202.46 101.63,-203.65 100.08,-196.83"/>
</g>
<!-- Node41 -->
<g id="node9" class="node">
<title>Node41</title>
<g id="a_node9"><a xlink:href="classGlgTube1500wStatusDetailsGui_1_1InputListener.html" target="_top" xlink:title=" ">
<polygon fill="none" stroke="black" points="144.5,-115 144.5,-145 297.5,-145 297.5,-115 144.5,-115"/>
<text text-anchor="start" x="152.5" y="-133" font-family="Helvetica,sans-Serif" font-size="10.00">GlgTube1500wStatusDetails</text>
<text text-anchor="middle" x="221" y="-122" font-family="Helvetica,sans-Serif" font-size="10.00">Gui.InputListener</text>
</a>
</g>
</g>
<!-- Node33&#45;&gt;Node41 -->
<g id="edge8" class="edge">
<title>Node33&#45;&gt;Node41</title>
<path fill="none" stroke="midnightblue" d="M69.11,-195.94C85.37,-183.29 109.55,-166.02 133,-155 140.96,-151.26 149.61,-147.95 158.25,-145.08"/>
<polygon fill="midnightblue" stroke="midnightblue" points="66.6,-193.46 60.94,-202.42 70.95,-198.94 66.6,-193.46"/>
</g>
<!-- Node42 -->
<g id="node10" class="node">
<title>Node42</title>
<g id="a_node10"><a xlink:href="classGlgTurboGui_1_1InputListener.html" target="_top" xlink:title=" ">
<polygon fill="none" stroke="black" points="149.5,-76.5 149.5,-95.5 292.5,-95.5 292.5,-76.5 149.5,-76.5"/>
<text text-anchor="middle" x="221" y="-83.5" font-family="Helvetica,sans-Serif" font-size="10.00">GlgTurboGui.InputListener</text>
</a>
</g>
</g>
<!-- Node33&#45;&gt;Node42 -->
<g id="edge9" class="edge">
<title>Node33&#45;&gt;Node42</title>
<path fill="none" stroke="midnightblue" d="M58.91,-193.43C72.1,-169.37 98.39,-127.93 133,-106 139.81,-101.69 147.44,-98.3 155.28,-95.64"/>
<polygon fill="midnightblue" stroke="midnightblue" points="55.81,-191.81 54.22,-202.29 61.99,-195.09 55.81,-191.81"/>
</g>
<!-- Node43 -->
<g id="node11" class="node">
<title>Node43</title>
<g id="a_node11"><a xlink:href="classGlgValveGui_1_1InputListener.html" target="_top" xlink:title=" ">
<polygon fill="none" stroke="black" points="149.5,-38.5 149.5,-57.5 292.5,-57.5 292.5,-38.5 149.5,-38.5"/>
<text text-anchor="middle" x="221" y="-45.5" font-family="Helvetica,sans-Serif" font-size="10.00">GlgValveGui.InputListener</text>
</a>
</g>
</g>
<!-- Node33&#45;&gt;Node43 -->
<g id="edge10" class="edge">
<title>Node33&#45;&gt;Node43</title>
<path fill="none" stroke="midnightblue" d="M55.02,-192.59C65.06,-161.03 89.38,-98.92 133,-67 138.24,-63.17 144.1,-60.08 150.24,-57.6"/>
<polygon fill="midnightblue" stroke="midnightblue" points="51.61,-191.8 52.06,-202.38 58.31,-193.82 51.61,-191.8"/>
</g>
<!-- Node44 -->
<g id="node12" class="node">
<title>Node44</title>
<g id="a_node12"><a xlink:href="classGlgXGSGaugeGui_1_1InputListener.html" target="_top" xlink:title=" ">
<polygon fill="none" stroke="black" points="137,-0.5 137,-19.5 305,-19.5 305,-0.5 137,-0.5"/>
<text text-anchor="middle" x="221" y="-7.5" font-family="Helvetica,sans-Serif" font-size="10.00">GlgXGSGaugeGui.InputListener</text>
</a>
</g>
</g>
<!-- Node33&#45;&gt;Node44 -->
<g id="edge11" class="edge">
<title>Node33&#45;&gt;Node44</title>
<path fill="none" stroke="midnightblue" d="M52.65,-191.91C59.72,-153.87 80.54,-71.33 133,-29 137.69,-25.21 142.97,-22.14 148.56,-19.65"/>
<polygon fill="midnightblue" stroke="midnightblue" points="49.12,-191.75 50.88,-202.2 56.02,-192.94 49.12,-191.75"/>
</g>
</g>
</svg>
