<?xml version="1.0" encoding="UTF-8" standalone="no"?>
<!DOCTYPE svg PUBLIC "-//W3C//DTD SVG 1.1//EN"
 "http://www.w3.org/Graphics/SVG/1.1/DTD/svg11.dtd">
<!-- Generated by graphviz version 2.50.0 (0)
 -->
<!-- Title: ChannelList Pages: 1 -->
<svg width="398pt" height="408pt"
 viewBox="0.00 0.00 398.00 408.00" xmlns="http://www.w3.org/2000/svg" xmlns:xlink="http://www.w3.org/1999/xlink">
<g id="graph0" class="graph" transform="scale(1 1) rotate(0) translate(4 404)">
<title>ChannelList</title>
<!-- Node1 -->
<g id="node1" class="node">
<title>Node1</title>
<g id="a_node1"><a xlink:title=" ">
<polygon fill="#bfbfbf" stroke="black" points="0,-171.5 0,-190.5 74,-190.5 74,-171.5 0,-171.5"/>
<text text-anchor="middle" x="37" y="-178.5" font-family="Helvetica,sans-Serif" font-size="10.00">ChannelList</text>
</a>
</g>
</g>
<!-- Node2 -->
<g id="node2" class="node">
<title>Node2</title>
<g id="a_node2"><a xlink:href="classGlgChildGui.html" target="_top" xlink:title=" ">
<polygon fill="none" stroke="black" points="110,-190.5 110,-209.5 184,-209.5 184,-190.5 110,-190.5"/>
<text text-anchor="middle" x="147" y="-197.5" font-family="Helvetica,sans-Serif" font-size="10.00">GlgChildGui</text>
</a>
</g>
</g>
<!-- Node1&#45;&gt;Node2 -->
<g id="edge1" class="edge">
<title>Node1&#45;&gt;Node2</title>
<path fill="none" stroke="midnightblue" d="M84.39,-189.16C92.84,-190.65 101.54,-192.18 109.65,-193.6"/>
<polygon fill="midnightblue" stroke="midnightblue" points="84.72,-185.67 74.26,-187.38 83.51,-192.56 84.72,-185.67"/>
</g>
<!-- Node14 -->
<g id="node14" class="node">
<title>Node14</title>
<g id="a_node14"><a xlink:href="classGlgGui.html" target="_top" xlink:title=" ">
<polygon fill="none" stroke="black" points="122,-152.5 122,-171.5 172,-171.5 172,-152.5 122,-152.5"/>
<text text-anchor="middle" x="147" y="-159.5" font-family="Helvetica,sans-Serif" font-size="10.00">GlgGui</text>
</a>
</g>
</g>
<!-- Node1&#45;&gt;Node14 -->
<g id="edge13" class="edge">
<title>Node1&#45;&gt;Node14</title>
<path fill="none" stroke="midnightblue" d="M84.43,-172.83C97.34,-170.56 110.84,-168.19 121.9,-166.24"/>
<polygon fill="midnightblue" stroke="midnightblue" points="83.51,-169.44 74.26,-174.62 84.72,-176.33 83.51,-169.44"/>
</g>
<!-- Node3 -->
<g id="node3" class="node">
<title>Node3</title>
<g id="a_node3"><a xlink:href="classGlgDryGui.html" target="_top" xlink:title=" ">
<polygon fill="none" stroke="black" points="271.5,-380.5 271.5,-399.5 338.5,-399.5 338.5,-380.5 271.5,-380.5"/>
<text text-anchor="middle" x="305" y="-387.5" font-family="Helvetica,sans-Serif" font-size="10.00">GlgDryGui</text>
</a>
</g>
</g>
<!-- Node2&#45;&gt;Node3 -->
<g id="edge2" class="edge">
<title>Node2&#45;&gt;Node3</title>
<path fill="none" stroke="midnightblue" d="M150.42,-219.67C155.92,-255.51 172.77,-331.43 220,-371 234.21,-382.91 254.36,-387.74 271.37,-389.55"/>
<polygon fill="midnightblue" stroke="midnightblue" points="153.86,-218.95 149.01,-209.53 146.92,-219.92 153.86,-218.95"/>
</g>
<!-- Node4 -->
<g id="node4" class="node">
<title>Node4</title>
<g id="a_node4"><a xlink:href="classGlgGaugeGui.html" target="_top" xlink:title=" ">
<polygon fill="none" stroke="black" points="264.5,-342.5 264.5,-361.5 345.5,-361.5 345.5,-342.5 264.5,-342.5"/>
<text text-anchor="middle" x="305" y="-349.5" font-family="Helvetica,sans-Serif" font-size="10.00">GlgGaugeGui</text>
</a>
</g>
</g>
<!-- Node2&#45;&gt;Node4 -->
<g id="edge3" class="edge">
<title>Node2&#45;&gt;Node4</title>
<path fill="none" stroke="midnightblue" d="M153.05,-219.79C161.64,-249.23 181.96,-304.17 220,-333 232.63,-342.57 249.2,-347.48 264.29,-349.93"/>
<polygon fill="midnightblue" stroke="midnightblue" points="156.35,-218.58 150.33,-209.86 149.6,-220.43 156.35,-218.58"/>
</g>
<!-- Node5 -->
<g id="node5" class="node">
<title>Node5</title>
<g id="a_node5"><a xlink:href="classGlgIonicGui.html" target="_top" xlink:title=" ">
<polygon fill="none" stroke="black" points="268.5,-304.5 268.5,-323.5 341.5,-323.5 341.5,-304.5 268.5,-304.5"/>
<text text-anchor="middle" x="305" y="-311.5" font-family="Helvetica,sans-Serif" font-size="10.00">GlgIonicGui</text>
</a>
</g>
</g>
<!-- Node2&#45;&gt;Node5 -->
<g id="edge4" class="edge">
<title>Node2&#45;&gt;Node5</title>
<path fill="none" stroke="midnightblue" d="M156.91,-218.52C168.39,-240.32 190.43,-275.95 220,-295 234.33,-304.23 252.55,-309.01 268.36,-311.47"/>
<polygon fill="midnightblue" stroke="midnightblue" points="160.03,-216.93 152.39,-209.59 153.78,-220.09 160.03,-216.93"/>
</g>
<!-- Node6 -->
<g id="node6" class="node">
<title>Node6</title>
<g id="a_node6"><a xlink:href="classGlgRGA3Gui.html" target="_top" xlink:title=" ">
<polygon fill="none" stroke="black" points="266.5,-266.5 266.5,-285.5 343.5,-285.5 343.5,-266.5 266.5,-266.5"/>
<text text-anchor="middle" x="305" y="-273.5" font-family="Helvetica,sans-Serif" font-size="10.00">GlgRGA3Gui</text>
</a>
</g>
</g>
<!-- Node2&#45;&gt;Node6 -->
<g id="edge5" class="edge">
<title>Node2&#45;&gt;Node6</title>
<path fill="none" stroke="midnightblue" d="M164.51,-216.67C178.22,-229.57 198.84,-246.88 220,-257 234.43,-263.9 251.48,-268.35 266.42,-271.2"/>
<polygon fill="midnightblue" stroke="midnightblue" points="166.9,-214.11 157.28,-209.67 162.03,-219.14 166.9,-214.11"/>
</g>
<!-- Node7 -->
<g id="node7" class="node">
<title>Node7</title>
<g id="a_node7"><a xlink:href="classGlgTCMuxTempGui.html" target="_top" xlink:title=" ">
<polygon fill="none" stroke="black" points="250.5,-228.5 250.5,-247.5 359.5,-247.5 359.5,-228.5 250.5,-228.5"/>
<text text-anchor="middle" x="305" y="-235.5" font-family="Helvetica,sans-Serif" font-size="10.00">GlgTCMuxTempGui</text>
</a>
</g>
</g>
<!-- Node2&#45;&gt;Node7 -->
<g id="edge6" class="edge">
<title>Node2&#45;&gt;Node7</title>
<path fill="none" stroke="midnightblue" d="M192.97,-212.13C201.91,-214.47 211.24,-216.85 220,-219 233.07,-222.2 247.33,-225.5 260.33,-228.43"/>
<polygon fill="midnightblue" stroke="midnightblue" points="193.65,-208.69 183.09,-209.53 191.87,-215.46 193.65,-208.69"/>
</g>
<!-- Node8 -->
<g id="node8" class="node">
<title>Node8</title>
<g id="a_node8"><a xlink:href="classGlgTitane__22Gui.html" target="_top" xlink:title=" ">
<polygon fill="none" stroke="black" points="256,-190.5 256,-209.5 354,-209.5 354,-190.5 256,-190.5"/>
<text text-anchor="middle" x="305" y="-197.5" font-family="Helvetica,sans-Serif" font-size="10.00">GlgTitane_22Gui</text>
</a>
</g>
</g>
<!-- Node2&#45;&gt;Node8 -->
<g id="edge7" class="edge">
<title>Node2&#45;&gt;Node8</title>
<path fill="none" stroke="midnightblue" d="M194.31,-200C213.72,-200 236.29,-200 255.9,-200"/>
<polygon fill="midnightblue" stroke="midnightblue" points="194.18,-196.5 184.18,-200 194.18,-203.5 194.18,-196.5"/>
</g>
<!-- Node9 -->
<g id="node9" class="node">
<title>Node9</title>
<g id="a_node9"><a xlink:href="classGlgTitane__32Gui.html" target="_top" xlink:title=" ">
<polygon fill="none" stroke="black" points="256,-152.5 256,-171.5 354,-171.5 354,-152.5 256,-152.5"/>
<text text-anchor="middle" x="305" y="-159.5" font-family="Helvetica,sans-Serif" font-size="10.00">GlgTitane_32Gui</text>
</a>
</g>
</g>
<!-- Node2&#45;&gt;Node9 -->
<g id="edge8" class="edge">
<title>Node2&#45;&gt;Node9</title>
<path fill="none" stroke="midnightblue" d="M192.97,-187.87C201.91,-185.53 211.24,-183.15 220,-181 233.07,-177.8 247.33,-174.5 260.33,-171.57"/>
<polygon fill="midnightblue" stroke="midnightblue" points="191.87,-184.54 183.09,-190.47 193.65,-191.31 191.87,-184.54"/>
</g>
<!-- Node10 -->
<g id="node10" class="node">
<title>Node10</title>
<g id="a_node10"><a xlink:href="classGlgTube1500wStatusDetailsGui.html" target="_top" xlink:title=" ">
<polygon fill="none" stroke="black" points="220,-114.5 220,-133.5 390,-133.5 390,-114.5 220,-114.5"/>
<text text-anchor="middle" x="305" y="-121.5" font-family="Helvetica,sans-Serif" font-size="10.00">GlgTube1500wStatusDetailsGui</text>
</a>
</g>
</g>
<!-- Node2&#45;&gt;Node10 -->
<g id="edge9" class="edge">
<title>Node2&#45;&gt;Node10</title>
<path fill="none" stroke="midnightblue" d="M177.6,-185.41C179.82,-184.01 181.98,-182.53 184,-181 202.53,-166.94 199.78,-154.51 220,-143 226.76,-139.15 234.23,-136.09 241.86,-133.64"/>
<polygon fill="midnightblue" stroke="midnightblue" points="175.79,-182.42 168.89,-190.45 179.3,-188.47 175.79,-182.42"/>
</g>
<!-- Node11 -->
<g id="node11" class="node">
<title>Node11</title>
<g id="a_node11"><a xlink:href="classGlgTurboGui.html" target="_top" xlink:title=" ">
<polygon fill="none" stroke="black" points="267,-76.5 267,-95.5 343,-95.5 343,-76.5 267,-76.5"/>
<text text-anchor="middle" x="305" y="-83.5" font-family="Helvetica,sans-Serif" font-size="10.00">GlgTurboGui</text>
</a>
</g>
</g>
<!-- Node2&#45;&gt;Node11 -->
<g id="edge10" class="edge">
<title>Node2&#45;&gt;Node11</title>
<path fill="none" stroke="midnightblue" d="M180.09,-184.59C181.48,-183.46 182.79,-182.26 184,-181 209.85,-154.01 190.83,-128.37 220,-105 233.19,-94.44 251.1,-89.5 266.99,-87.27"/>
<polygon fill="midnightblue" stroke="midnightblue" points="177.91,-181.84 171.6,-190.36 181.84,-187.63 177.91,-181.84"/>
</g>
<!-- Node12 -->
<g id="node12" class="node">
<title>Node12</title>
<g id="a_node12"><a xlink:href="classGlgValveGui.html" target="_top" xlink:title=" ">
<polygon fill="none" stroke="black" points="266.5,-38.5 266.5,-57.5 343.5,-57.5 343.5,-38.5 266.5,-38.5"/>
<text text-anchor="middle" x="305" y="-45.5" font-family="Helvetica,sans-Serif" font-size="10.00">GlgValveGui</text>
</a>
</g>
</g>
<!-- Node2&#45;&gt;Node12 -->
<g id="edge11" class="edge">
<title>Node2&#45;&gt;Node12</title>
<path fill="none" stroke="midnightblue" d="M180.77,-184.37C181.93,-183.31 183.01,-182.19 184,-181 218.05,-140.21 180.9,-102.97 220,-67 232.43,-55.56 250.26,-50.52 266.29,-48.46"/>
<polygon fill="midnightblue" stroke="midnightblue" points="178.39,-181.78 172.38,-190.5 182.52,-187.43 178.39,-181.78"/>
</g>
<!-- Node13 -->
<g id="node13" class="node">
<title>Node13</title>
<g id="a_node13"><a xlink:href="classGlgXGSGaugeGui.html" target="_top" xlink:title=" ">
<polygon fill="none" stroke="black" points="254.5,-0.5 254.5,-19.5 355.5,-19.5 355.5,-0.5 254.5,-0.5"/>
<text text-anchor="middle" x="305" y="-7.5" font-family="Helvetica,sans-Serif" font-size="10.00">GlgXGSGaugeGui</text>
</a>
</g>
</g>
<!-- Node2&#45;&gt;Node13 -->
<g id="edge12" class="edge">
<title>Node2&#45;&gt;Node13</title>
<path fill="none" stroke="midnightblue" d="M180.98,-184.37C182.07,-183.31 183.08,-182.19 184,-181 226.5,-126.11 170.66,-77.84 220,-29 229.14,-19.95 241.62,-14.84 254.16,-12.04"/>
<polygon fill="midnightblue" stroke="midnightblue" points="178.81,-181.62 172.97,-190.46 183.05,-187.19 178.81,-181.62"/>
</g>
</g>
</svg>
