<?xml version="1.0" encoding="UTF-8" standalone="no"?>
<!DOCTYPE svg PUBLIC "-//W3C//DTD SVG 1.1//EN"
 "http://www.w3.org/Graphics/SVG/1.1/DTD/svg11.dtd">
<!-- Generated by graphviz version 2.50.0 (0)
 -->
<!-- Title: DataTypes Pages: 1 -->
<svg width="450pt" height="294pt"
 viewBox="0.00 0.00 450.00 294.00" xmlns="http://www.w3.org/2000/svg" xmlns:xlink="http://www.w3.org/1999/xlink">
<g id="graph0" class="graph" transform="scale(1 1) rotate(0) translate(4 290)">
<title>DataTypes</title>
<polygon fill="white" stroke="transparent" points="-4,4 -4,-290 446,-290 446,4 -4,4"/>
<!-- Node1 -->
<g id="node1" class="node">
<title>Node1</title>
<g id="a_node1"><a xlink:title=" ">
<polygon fill="#bfbfbf" stroke="black" points="0,-95.5 0,-114.5 68,-114.5 68,-95.5 0,-95.5"/>
<text text-anchor="middle" x="34" y="-102.5" font-family="Helvetica,sans-Serif" font-size="10.00">DataTypes</text>
</a>
</g>
</g>
<!-- Node2 -->
<g id="node2" class="node">
<title>Node2</title>
<g id="a_node2"><a xlink:href="classDataElement.html" target="_top" xlink:title=" ">
<polygon fill="white" stroke="black" points="122,-190.5 122,-209.5 202,-209.5 202,-190.5 122,-190.5"/>
<text text-anchor="middle" x="162" y="-197.5" font-family="Helvetica,sans-Serif" font-size="10.00">DataElement</text>
</a>
</g>
</g>
<!-- Node1&#45;&gt;Node2 -->
<g id="edge1" class="edge">
<title>Node1&#45;&gt;Node2</title>
<path fill="none" stroke="midnightblue" d="M47.27,-123.2C59.71,-140.35 80.44,-165.64 104,-181 109.85,-184.82 116.55,-187.94 123.24,-190.46"/>
<polygon fill="midnightblue" stroke="midnightblue" points="49.86,-120.79 41.25,-114.62 44.14,-124.82 49.86,-120.79"/>
</g>
<!-- Node3 -->
<g id="node3" class="node">
<title>Node3</title>
<g id="a_node3"><a xlink:href="classDataManager.html" target="_top" xlink:title=" ">
<polygon fill="white" stroke="black" points="120.5,-152.5 120.5,-171.5 203.5,-171.5 203.5,-152.5 120.5,-152.5"/>
<text text-anchor="middle" x="162" y="-159.5" font-family="Helvetica,sans-Serif" font-size="10.00">DataManager</text>
</a>
</g>
</g>
<!-- Node1&#45;&gt;Node3 -->
<g id="edge2" class="edge">
<title>Node1&#45;&gt;Node3</title>
<path fill="none" stroke="midnightblue" d="M63.84,-119.17C76.15,-125.12 90.72,-132.03 104,-138 114.97,-142.93 127.25,-148.14 137.6,-152.44"/>
<polygon fill="midnightblue" stroke="midnightblue" points="65.04,-115.86 54.51,-114.64 61.98,-122.16 65.04,-115.86"/>
</g>
<!-- Node4 -->
<g id="node4" class="node">
<title>Node4</title>
<g id="a_node4"><a xlink:href="classDevice.html" target="_top" xlink:title=" ">
<polygon fill="white" stroke="black" points="256,-133.5 256,-152.5 306,-152.5 306,-133.5 256,-133.5"/>
<text text-anchor="middle" x="281" y="-140.5" font-family="Helvetica,sans-Serif" font-size="10.00">Device</text>
</a>
</g>
</g>
<!-- Node1&#45;&gt;Node4 -->
<g id="edge12" class="edge">
<title>Node1&#45;&gt;Node4</title>
<path fill="none" stroke="midnightblue" d="M78.24,-111.71C129.95,-119.73 214.7,-132.87 255.94,-139.27"/>
<polygon fill="midnightblue" stroke="midnightblue" points="78.46,-108.2 68.04,-110.12 77.39,-115.12 78.46,-108.2"/>
</g>
<!-- Node13 -->
<g id="node13" class="node">
<title>Node13</title>
<g id="a_node13"><a xlink:href="classGlgGui.html" target="_top" xlink:title=" ">
<polygon fill="white" stroke="black" points="137,-76.5 137,-95.5 187,-95.5 187,-76.5 137,-76.5"/>
<text text-anchor="middle" x="162" y="-83.5" font-family="Helvetica,sans-Serif" font-size="10.00">GlgGui</text>
</a>
</g>
</g>
<!-- Node1&#45;&gt;Node13 -->
<g id="edge13" class="edge">
<title>Node1&#45;&gt;Node13</title>
<path fill="none" stroke="midnightblue" d="M78.07,-98.51C97.72,-95.54 120.26,-92.14 136.87,-89.64"/>
<polygon fill="midnightblue" stroke="midnightblue" points="77.47,-95.06 68.11,-100.01 78.52,-101.98 77.47,-95.06"/>
</g>
<!-- Node14 -->
<g id="node14" class="node">
<title>Node14</title>
<g id="a_node14"><a xlink:href="classModbusSlaveThread.html" target="_top" xlink:title=" ">
<polygon fill="white" stroke="black" points="104,-38.5 104,-57.5 220,-57.5 220,-38.5 104,-38.5"/>
<text text-anchor="middle" x="162" y="-45.5" font-family="Helvetica,sans-Serif" font-size="10.00">ModbusSlaveThread</text>
</a>
</g>
</g>
<!-- Node1&#45;&gt;Node14 -->
<g id="edge14" class="edge">
<title>Node1&#45;&gt;Node14</title>
<path fill="none" stroke="midnightblue" d="M59.26,-90.22C72.24,-82.68 88.68,-73.71 104,-67 111.93,-63.53 120.71,-60.31 128.96,-57.55"/>
<polygon fill="midnightblue" stroke="midnightblue" points="57.31,-87.31 50.48,-95.41 60.87,-93.34 57.31,-87.31"/>
</g>
<!-- Node15 -->
<g id="node15" class="node">
<title>Node15</title>
<g id="a_node15"><a xlink:href="classOperation.html" target="_top" xlink:title=" ">
<polygon fill="white" stroke="black" points="129.5,-0.5 129.5,-19.5 194.5,-19.5 194.5,-0.5 129.5,-0.5"/>
<text text-anchor="middle" x="162" y="-7.5" font-family="Helvetica,sans-Serif" font-size="10.00">Operation</text>
</a>
</g>
</g>
<!-- Node1&#45;&gt;Node15 -->
<g id="edge15" class="edge">
<title>Node1&#45;&gt;Node15</title>
<path fill="none" stroke="midnightblue" d="M47.27,-86.8C59.71,-69.65 80.44,-44.36 104,-29 111.6,-24.04 120.62,-20.26 129.21,-17.43"/>
<polygon fill="midnightblue" stroke="midnightblue" points="44.14,-85.18 41.25,-95.38 49.86,-89.21 44.14,-85.18"/>
</g>
<!-- Node3&#45;&gt;Node4 -->
<g id="edge3" class="edge">
<title>Node3&#45;&gt;Node4</title>
<path fill="none" stroke="midnightblue" d="M213.59,-153.78C228.27,-151.4 243.61,-148.91 255.85,-146.92"/>
<polygon fill="midnightblue" stroke="midnightblue" points="212.9,-150.35 203.59,-155.41 214.02,-157.26 212.9,-150.35"/>
</g>
<!-- Node5 -->
<g id="node5" class="node">
<title>Node5</title>
<g id="a_node5"><a xlink:href="classControllino__1.html" target="_top" xlink:title=" ">
<polygon fill="white" stroke="black" points="351.5,-266.5 351.5,-285.5 432.5,-285.5 432.5,-266.5 351.5,-266.5"/>
<text text-anchor="middle" x="392" y="-273.5" font-family="Helvetica,sans-Serif" font-size="10.00">Controllino_1</text>
</a>
</g>
</g>
<!-- Node4&#45;&gt;Node5 -->
<g id="edge4" class="edge">
<title>Node4&#45;&gt;Node5</title>
<path fill="none" stroke="midnightblue" d="M287.55,-162.53C295.63,-187.64 312.92,-231.07 342,-257 346.29,-260.83 351.44,-263.92 356.76,-266.41"/>
<polygon fill="midnightblue" stroke="midnightblue" points="290.82,-161.25 284.56,-152.71 284.13,-163.29 290.82,-161.25"/>
</g>
<!-- Node6 -->
<g id="node6" class="node">
<title>Node6</title>
<g id="a_node6"><a xlink:href="classControllino__2.html" target="_top" xlink:title=" ">
<polygon fill="white" stroke="black" points="351.5,-228.5 351.5,-247.5 432.5,-247.5 432.5,-228.5 351.5,-228.5"/>
<text text-anchor="middle" x="392" y="-235.5" font-family="Helvetica,sans-Serif" font-size="10.00">Controllino_2</text>
</a>
</g>
</g>
<!-- Node4&#45;&gt;Node6 -->
<g id="edge5" class="edge">
<title>Node4&#45;&gt;Node6</title>
<path fill="none" stroke="midnightblue" d="M292.59,-161.49C303.17,-178.5 320.86,-203.39 342,-219 347.14,-222.79 353.13,-225.93 359.12,-228.49"/>
<polygon fill="midnightblue" stroke="midnightblue" points="295.36,-159.3 287.22,-152.52 289.35,-162.89 295.36,-159.3"/>
</g>
<!-- Node7 -->
<g id="node7" class="node">
<title>Node7</title>
<g id="a_node7"><a xlink:href="classMaxiGauge.html" target="_top" xlink:title=" ">
<polygon fill="white" stroke="black" points="356,-190.5 356,-209.5 428,-209.5 428,-190.5 356,-190.5"/>
<text text-anchor="middle" x="392" y="-197.5" font-family="Helvetica,sans-Serif" font-size="10.00">MaxiGauge</text>
</a>
</g>
</g>
<!-- Node4&#45;&gt;Node7 -->
<g id="edge6" class="edge">
<title>Node4&#45;&gt;Node7</title>
<path fill="none" stroke="midnightblue" d="M303.97,-158.37C315.07,-165.75 328.93,-174.4 342,-181 348.84,-184.45 356.47,-187.68 363.63,-190.47"/>
<polygon fill="midnightblue" stroke="midnightblue" points="305.62,-155.25 295.38,-152.54 301.69,-161.05 305.62,-155.25"/>
</g>
<!-- Node8 -->
<g id="node8" class="node">
<title>Node8</title>
<g id="a_node8"><a xlink:href="classMksRotor.html" target="_top" xlink:title=" ">
<polygon fill="white" stroke="black" points="360.5,-152.5 360.5,-171.5 423.5,-171.5 423.5,-152.5 360.5,-152.5"/>
<text text-anchor="middle" x="392" y="-159.5" font-family="Helvetica,sans-Serif" font-size="10.00">MksRotor</text>
</a>
</g>
</g>
<!-- Node4&#45;&gt;Node8 -->
<g id="edge7" class="edge">
<title>Node4&#45;&gt;Node8</title>
<path fill="none" stroke="midnightblue" d="M316.45,-149.01C330.49,-151.45 346.59,-154.26 360.23,-156.64"/>
<polygon fill="midnightblue" stroke="midnightblue" points="316.64,-145.49 306.19,-147.22 315.44,-152.38 316.64,-145.49"/>
</g>
<!-- Node9 -->
<g id="node9" class="node">
<title>Node9</title>
<g id="a_node9"><a xlink:href="classSicem.html" target="_top" xlink:title=" ">
<polygon fill="white" stroke="black" points="368.5,-114.5 368.5,-133.5 415.5,-133.5 415.5,-114.5 368.5,-114.5"/>
<text text-anchor="middle" x="392" y="-121.5" font-family="Helvetica,sans-Serif" font-size="10.00">Sicem</text>
</a>
</g>
</g>
<!-- Node4&#45;&gt;Node9 -->
<g id="edge8" class="edge">
<title>Node4&#45;&gt;Node9</title>
<path fill="none" stroke="midnightblue" d="M316.3,-137.02C333.29,-134.06 353.32,-130.57 368.37,-127.95"/>
<polygon fill="midnightblue" stroke="midnightblue" points="315.44,-133.62 306.19,-138.78 316.64,-140.51 315.44,-133.62"/>
</g>
<!-- Node10 -->
<g id="node10" class="node">
<title>Node10</title>
<g id="a_node10"><a xlink:href="classTCMuxShield.html" target="_top" xlink:title=" ">
<polygon fill="white" stroke="black" points="352,-76.5 352,-95.5 432,-95.5 432,-76.5 352,-76.5"/>
<text text-anchor="middle" x="392" y="-83.5" font-family="Helvetica,sans-Serif" font-size="10.00">TCMuxShield</text>
</a>
</g>
</g>
<!-- Node4&#45;&gt;Node10 -->
<g id="edge9" class="edge">
<title>Node4&#45;&gt;Node10</title>
<path fill="none" stroke="midnightblue" d="M303.97,-127.63C315.07,-120.25 328.93,-111.6 342,-105 348.84,-101.55 356.47,-98.32 363.63,-95.53"/>
<polygon fill="midnightblue" stroke="midnightblue" points="301.69,-124.95 295.38,-133.46 305.62,-130.75 301.69,-124.95"/>
</g>
<!-- Node11 -->
<g id="node11" class="node">
<title>Node11</title>
<g id="a_node11"><a xlink:href="classTurboPfeifferDCU.html" target="_top" xlink:title=" ">
<polygon fill="white" stroke="black" points="342,-38.5 342,-57.5 442,-57.5 442,-38.5 342,-38.5"/>
<text text-anchor="middle" x="392" y="-45.5" font-family="Helvetica,sans-Serif" font-size="10.00">TurboPfeifferDCU</text>
</a>
</g>
</g>
<!-- Node4&#45;&gt;Node11 -->
<g id="edge10" class="edge">
<title>Node4&#45;&gt;Node11</title>
<path fill="none" stroke="midnightblue" d="M292.59,-124.51C303.17,-107.5 320.86,-82.61 342,-67 347.14,-63.21 353.13,-60.07 359.12,-57.51"/>
<polygon fill="midnightblue" stroke="midnightblue" points="289.35,-123.11 287.22,-133.48 295.36,-126.7 289.35,-123.11"/>
</g>
<!-- Node12 -->
<g id="node12" class="node">
<title>Node12</title>
<g id="a_node12"><a xlink:href="classXGSGauge.html" target="_top" xlink:title=" ">
<polygon fill="white" stroke="black" points="358,-0.5 358,-19.5 426,-19.5 426,-0.5 358,-0.5"/>
<text text-anchor="middle" x="392" y="-7.5" font-family="Helvetica,sans-Serif" font-size="10.00">XGSGauge</text>
</a>
</g>
</g>
<!-- Node4&#45;&gt;Node12 -->
<g id="edge11" class="edge">
<title>Node4&#45;&gt;Node12</title>
<path fill="none" stroke="midnightblue" d="M287.55,-123.47C295.63,-98.36 312.92,-54.93 342,-29 346.56,-24.93 352.09,-21.69 357.77,-19.12"/>
<polygon fill="midnightblue" stroke="midnightblue" points="284.13,-122.71 284.56,-133.29 290.82,-124.75 284.13,-122.71"/>
</g>
</g>
</svg>
