<?xml version="1.0" encoding="UTF-8" standalone="no"?>
<!DOCTYPE svg PUBLIC "-//W3C//DTD SVG 1.1//EN"
 "http://www.w3.org/Graphics/SVG/1.1/DTD/svg11.dtd">
<!-- Generated by graphviz version 2.50.0 (0)
 -->
<!-- Title: GlgChildGui Pages: 1 -->
<svg width="392pt" height="370pt"
 viewBox="0.00 0.00 392.00 370.00" xmlns="http://www.w3.org/2000/svg" xmlns:xlink="http://www.w3.org/1999/xlink">
<g id="graph0" class="graph" transform="scale(1 1) rotate(0) translate(4 366)">
<title>GlgChildGui</title>
<polygon fill="white" stroke="transparent" points="-4,4 -4,-366 388,-366 388,4 -4,4"/>
<!-- Node1 -->
<g id="node1" class="node">
<title>Node1</title>
<g id="a_node1"><a xlink:title=" ">
<polygon fill="#bfbfbf" stroke="black" points="110,-171.5 110,-190.5 184,-190.5 184,-171.5 110,-171.5"/>
<text text-anchor="middle" x="147" y="-178.5" font-family="Helvetica,sans-Serif" font-size="10.00">GlgChildGui</text>
</a>
</g>
</g>
<!-- Node5 -->
<g id="node5" class="node">
<title>Node5</title>
<g id="a_node5"><a xlink:href="classGlgCryoIbDetStatusDetailsGui.html" target="_top" xlink:title=" ">
<polygon fill="white" stroke="black" points="220,-342.5 220,-361.5 384,-361.5 384,-342.5 220,-342.5"/>
<text text-anchor="middle" x="302" y="-349.5" font-family="Helvetica,sans-Serif" font-size="10.00">GlgCryoIbDetStatusDetailsGui</text>
</a>
</g>
</g>
<!-- Node1&#45;&gt;Node5 -->
<g id="edge4" class="edge">
<title>Node1&#45;&gt;Node5</title>
<path fill="none" stroke="midnightblue" d="M151.62,-200.72C158.69,-233.43 177.53,-298.7 220,-333 224.72,-336.81 230.07,-339.88 235.72,-342.36"/>
<polygon fill="midnightblue" stroke="midnightblue" points="154.99,-199.73 149.59,-190.61 148.13,-201.1 154.99,-199.73"/>
</g>
<!-- Node6 -->
<g id="node6" class="node">
<title>Node6</title>
<g id="a_node6"><a xlink:href="classGlgDryGui.html" target="_top" xlink:title=" ">
<polygon fill="white" stroke="black" points="268.5,-304.5 268.5,-323.5 335.5,-323.5 335.5,-304.5 268.5,-304.5"/>
<text text-anchor="middle" x="302" y="-311.5" font-family="Helvetica,sans-Serif" font-size="10.00">GlgDryGui</text>
</a>
</g>
</g>
<!-- Node1&#45;&gt;Node6 -->
<g id="edge5" class="edge">
<title>Node1&#45;&gt;Node6</title>
<path fill="none" stroke="midnightblue" d="M154.75,-200.15C164.84,-225.84 186.32,-271.01 220,-295 234,-304.97 252.49,-309.78 268.26,-312.07"/>
<polygon fill="midnightblue" stroke="midnightblue" points="158.02,-198.88 151.24,-190.74 151.46,-201.34 158.02,-198.88"/>
</g>
<!-- Node7 -->
<g id="node7" class="node">
<title>Node7</title>
<g id="a_node7"><a xlink:href="classGlgGaugeGui.html" target="_top" xlink:title=" ">
<polygon fill="white" stroke="black" points="261.5,-266.5 261.5,-285.5 342.5,-285.5 342.5,-266.5 261.5,-266.5"/>
<text text-anchor="middle" x="302" y="-273.5" font-family="Helvetica,sans-Serif" font-size="10.00">GlgGaugeGui</text>
</a>
</g>
</g>
<!-- Node1&#45;&gt;Node7 -->
<g id="edge6" class="edge">
<title>Node1&#45;&gt;Node7</title>
<path fill="none" stroke="midnightblue" d="M160.12,-198.91C172.94,-216.42 194.77,-242.51 220,-257 232.52,-264.19 247.62,-268.67 261.38,-271.45"/>
<polygon fill="midnightblue" stroke="midnightblue" points="162.9,-196.78 154.27,-190.64 157.19,-200.82 162.9,-196.78"/>
</g>
<!-- Node8 -->
<g id="node8" class="node">
<title>Node8</title>
<g id="a_node8"><a xlink:href="classGlgIonicGui.html" target="_top" xlink:title=" ">
<polygon fill="white" stroke="black" points="265.5,-228.5 265.5,-247.5 338.5,-247.5 338.5,-228.5 265.5,-228.5"/>
<text text-anchor="middle" x="302" y="-235.5" font-family="Helvetica,sans-Serif" font-size="10.00">GlgIonicGui</text>
</a>
</g>
</g>
<!-- Node1&#45;&gt;Node8 -->
<g id="edge7" class="edge">
<title>Node1&#45;&gt;Node8</title>
<path fill="none" stroke="midnightblue" d="M172.23,-195.78C185.86,-203.59 203.44,-212.8 220,-219 234.48,-224.42 251,-228.62 265.33,-231.69"/>
<polygon fill="midnightblue" stroke="midnightblue" points="173.87,-192.69 163.47,-190.66 170.34,-198.73 173.87,-192.69"/>
</g>
<!-- Node9 -->
<g id="node9" class="node">
<title>Node9</title>
<g id="a_node9"><a xlink:href="classGlgRGAGui.html" target="_top" xlink:title=" ">
<polygon fill="white" stroke="black" points="266.5,-190.5 266.5,-209.5 337.5,-209.5 337.5,-190.5 266.5,-190.5"/>
<text text-anchor="middle" x="302" y="-197.5" font-family="Helvetica,sans-Serif" font-size="10.00">GlgRGAGui</text>
</a>
</g>
</g>
<!-- Node1&#45;&gt;Node9 -->
<g id="edge8" class="edge">
<title>Node1&#45;&gt;Node9</title>
<path fill="none" stroke="midnightblue" d="M194.22,-186.74C217.39,-189.62 244.99,-193.04 266.32,-195.69"/>
<polygon fill="midnightblue" stroke="midnightblue" points="194.61,-183.26 184.26,-185.5 193.75,-190.21 194.61,-183.26"/>
</g>
<!-- Node10 -->
<g id="node10" class="node">
<title>Node10</title>
<g id="a_node10"><a xlink:href="classGlgTitane__22Gui.html" target="_top" xlink:title=" ">
<polygon fill="white" stroke="black" points="253,-152.5 253,-171.5 351,-171.5 351,-152.5 253,-152.5"/>
<text text-anchor="middle" x="302" y="-159.5" font-family="Helvetica,sans-Serif" font-size="10.00">GlgTitane_22Gui</text>
</a>
</g>
</g>
<!-- Node1&#45;&gt;Node10 -->
<g id="edge9" class="edge">
<title>Node1&#45;&gt;Node10</title>
<path fill="none" stroke="midnightblue" d="M194.23,-175.26C212.76,-172.96 234.12,-170.31 252.84,-167.98"/>
<polygon fill="midnightblue" stroke="midnightblue" points="193.75,-171.79 184.26,-176.5 194.61,-178.74 193.75,-171.79"/>
</g>
<!-- Node11 -->
<g id="node11" class="node">
<title>Node11</title>
<g id="a_node11"><a xlink:href="classGlgTitane__32Gui.html" target="_top" xlink:title=" ">
<polygon fill="white" stroke="black" points="253,-114.5 253,-133.5 351,-133.5 351,-114.5 253,-114.5"/>
<text text-anchor="middle" x="302" y="-121.5" font-family="Helvetica,sans-Serif" font-size="10.00">GlgTitane_32Gui</text>
</a>
</g>
</g>
<!-- Node1&#45;&gt;Node11 -->
<g id="edge10" class="edge">
<title>Node1&#45;&gt;Node11</title>
<path fill="none" stroke="midnightblue" d="M172.23,-166.22C185.86,-158.41 203.44,-149.2 220,-143 230.42,-139.1 241.9,-135.83 252.85,-133.16"/>
<polygon fill="midnightblue" stroke="midnightblue" points="170.34,-163.27 163.47,-171.34 173.87,-169.31 170.34,-163.27"/>
</g>
<!-- Node12 -->
<g id="node12" class="node">
<title>Node12</title>
<g id="a_node12"><a xlink:href="classGlgTurboGui.html" target="_top" xlink:title=" ">
<polygon fill="white" stroke="black" points="264,-76.5 264,-95.5 340,-95.5 340,-76.5 264,-76.5"/>
<text text-anchor="middle" x="302" y="-83.5" font-family="Helvetica,sans-Serif" font-size="10.00">GlgTurboGui</text>
</a>
</g>
</g>
<!-- Node1&#45;&gt;Node12 -->
<g id="edge11" class="edge">
<title>Node1&#45;&gt;Node12</title>
<path fill="none" stroke="midnightblue" d="M160.12,-163.09C172.94,-145.58 194.77,-119.49 220,-105 233.28,-97.37 249.45,-92.81 263.84,-90.07"/>
<polygon fill="midnightblue" stroke="midnightblue" points="157.19,-161.18 154.27,-171.36 162.9,-165.22 157.19,-161.18"/>
</g>
<!-- Node13 -->
<g id="node13" class="node">
<title>Node13</title>
<g id="a_node13"><a xlink:href="classGlgValveGui.html" target="_top" xlink:title=" ">
<polygon fill="white" stroke="black" points="263.5,-38.5 263.5,-57.5 340.5,-57.5 340.5,-38.5 263.5,-38.5"/>
<text text-anchor="middle" x="302" y="-45.5" font-family="Helvetica,sans-Serif" font-size="10.00">GlgValveGui</text>
</a>
</g>
</g>
<!-- Node1&#45;&gt;Node13 -->
<g id="edge12" class="edge">
<title>Node1&#45;&gt;Node13</title>
<path fill="none" stroke="midnightblue" d="M154.75,-161.85C164.84,-136.16 186.32,-90.99 220,-67 232.59,-58.03 248.8,-53.24 263.42,-50.7"/>
<polygon fill="midnightblue" stroke="midnightblue" points="151.46,-160.66 151.24,-171.26 158.02,-163.12 151.46,-160.66"/>
</g>
<!-- Node14 -->
<g id="node14" class="node">
<title>Node14</title>
<g id="a_node14"><a xlink:href="classGlgXGSGaugeGui.html" target="_top" xlink:title=" ">
<polygon fill="white" stroke="black" points="251.5,-0.5 251.5,-19.5 352.5,-19.5 352.5,-0.5 251.5,-0.5"/>
<text text-anchor="middle" x="302" y="-7.5" font-family="Helvetica,sans-Serif" font-size="10.00">GlgXGSGaugeGui</text>
</a>
</g>
</g>
<!-- Node1&#45;&gt;Node14 -->
<g id="edge13" class="edge">
<title>Node1&#45;&gt;Node14</title>
<path fill="none" stroke="midnightblue" d="M151.62,-161.28C158.69,-128.57 177.53,-63.3 220,-29 228.88,-21.83 239.99,-17.28 251.11,-14.41"/>
<polygon fill="midnightblue" stroke="midnightblue" points="148.13,-160.9 149.59,-171.39 154.99,-162.27 148.13,-160.9"/>
</g>
<!-- Node2 -->
<g id="node2" class="node">
<title>Node2</title>
<g id="a_node2"><a xlink:title=" ">
<polygon fill="white" stroke="#bfbfbf" points="12,-209.5 12,-228.5 62,-228.5 62,-209.5 12,-209.5"/>
<text text-anchor="middle" x="37" y="-216.5" font-family="Helvetica,sans-Serif" font-size="10.00">JFrame</text>
</a>
</g>
</g>
<!-- Node2&#45;&gt;Node1 -->
<g id="edge1" class="edge">
<title>Node2&#45;&gt;Node1</title>
<path fill="none" stroke="midnightblue" d="M71.77,-207.12C86.91,-201.79 104.53,-195.59 118.8,-190.57"/>
<polygon fill="midnightblue" stroke="midnightblue" points="70.51,-203.85 62.24,-210.47 72.83,-210.45 70.51,-203.85"/>
</g>
<!-- Node3 -->
<g id="node3" class="node">
<title>Node3</title>
<g id="a_node3"><a xlink:href="interfaceChannelList.html" target="_top" xlink:title=" ">
<polygon fill="white" stroke="black" points="0,-171.5 0,-190.5 74,-190.5 74,-171.5 0,-171.5"/>
<text text-anchor="middle" x="37" y="-178.5" font-family="Helvetica,sans-Serif" font-size="10.00">ChannelList</text>
</a>
</g>
</g>
<!-- Node3&#45;&gt;Node1 -->
<g id="edge2" class="edge">
<title>Node3&#45;&gt;Node1</title>
<path fill="none" stroke="midnightblue" d="M84.39,-181C92.84,-181 101.54,-181 109.65,-181"/>
<polygon fill="midnightblue" stroke="midnightblue" points="84.26,-177.5 74.26,-181 84.26,-184.5 84.26,-177.5"/>
</g>
<!-- Node4 -->
<g id="node4" class="node">
<title>Node4</title>
<g id="a_node4"><a xlink:title=" ">
<polygon fill="white" stroke="#bfbfbf" points="6,-133.5 6,-152.5 68,-152.5 68,-133.5 6,-133.5"/>
<text text-anchor="middle" x="37" y="-140.5" font-family="Helvetica,sans-Serif" font-size="10.00">Runnable</text>
</a>
</g>
</g>
<!-- Node4&#45;&gt;Node1 -->
<g id="edge3" class="edge">
<title>Node4&#45;&gt;Node1</title>
<path fill="none" stroke="midnightblue" d="M74.87,-155.97C89.26,-161.03 105.45,-166.73 118.76,-171.41"/>
<polygon fill="midnightblue" stroke="midnightblue" points="75.85,-152.61 65.25,-152.59 73.52,-159.21 75.85,-152.61"/>
</g>
</g>
</svg>
