<?xml version="1.0" encoding="UTF-8" standalone="no"?>
<!DOCTYPE svg PUBLIC "-//W3C//DTD SVG 1.1//EN"
 "http://www.w3.org/Graphics/SVG/1.1/DTD/svg11.dtd">
<!-- Generated by graphviz version 2.50.0 (0)
 -->
<!-- Title: DataManager Pages: 1 -->
<svg width="305pt" height="196pt"
 viewBox="0.00 0.00 305.00 196.00" xmlns="http://www.w3.org/2000/svg" xmlns:xlink="http://www.w3.org/1999/xlink">
<g id="graph0" class="graph" transform="scale(1 1) rotate(0) translate(4 192)">
<title>DataManager</title>
<!-- Node1 -->
<g id="node1" class="node">
<title>Node1</title>
<g id="a_node1"><a xlink:title=" ">
<polygon fill="#bfbfbf" stroke="black" points="94,-112.5 94,-131.5 177,-131.5 177,-112.5 94,-112.5"/>
<text text-anchor="middle" x="135.5" y="-119.5" font-family="Helvetica,sans-Serif" font-size="10.00">DataManager</text>
</a>
</g>
</g>
<!-- Node3 -->
<g id="node3" class="node">
<title>Node3</title>
<g id="a_node3"><a xlink:href="classDevice.html" target="_top" xlink:title=" ">
<polygon fill="none" stroke="black" points="110.5,-56.5 110.5,-75.5 160.5,-75.5 160.5,-56.5 110.5,-56.5"/>
<text text-anchor="middle" x="135.5" y="-63.5" font-family="Helvetica,sans-Serif" font-size="10.00">Device</text>
</a>
</g>
</g>
<!-- Node1&#45;&gt;Node3 -->
<g id="edge2" class="edge">
<title>Node1&#45;&gt;Node3</title>
<path fill="none" stroke="midnightblue" d="M135.5,-101.8C135.5,-92.91 135.5,-82.78 135.5,-75.75"/>
<polygon fill="midnightblue" stroke="midnightblue" points="132,-102.08 135.5,-112.08 139,-102.08 132,-102.08"/>
</g>
<!-- Node2 -->
<g id="node2" class="node">
<title>Node2</title>
<g id="a_node2"><a xlink:href="interfaceDataTypes.html" target="_top" xlink:title=" ">
<polygon fill="none" stroke="black" points="101.5,-168.5 101.5,-187.5 169.5,-187.5 169.5,-168.5 101.5,-168.5"/>
<text text-anchor="middle" x="135.5" y="-175.5" font-family="Helvetica,sans-Serif" font-size="10.00">DataTypes</text>
</a>
</g>
</g>
<!-- Node2&#45;&gt;Node1 -->
<g id="edge1" class="edge">
<title>Node2&#45;&gt;Node1</title>
<path fill="none" stroke="midnightblue" d="M135.5,-157.8C135.5,-148.91 135.5,-138.78 135.5,-131.75"/>
<polygon fill="midnightblue" stroke="midnightblue" points="132,-158.08 135.5,-168.08 139,-158.08 132,-158.08"/>
</g>
<!-- Node4 -->
<g id="node4" class="node">
<title>Node4</title>
<g id="a_node4"><a xlink:href="classControllino__1.html" target="_top" xlink:title=" ">
<polygon fill="none" stroke="black" points="0,-0.5 0,-19.5 81,-19.5 81,-0.5 0,-0.5"/>
<text text-anchor="middle" x="40.5" y="-7.5" font-family="Helvetica,sans-Serif" font-size="10.00">Controllino_1</text>
</a>
</g>
</g>
<!-- Node3&#45;&gt;Node4 -->
<g id="edge3" class="edge">
<title>Node3&#45;&gt;Node4</title>
<path fill="none" stroke="midnightblue" d="M111.18,-51.18C93.7,-41.24 70.67,-28.15 55.73,-19.65"/>
<polygon fill="midnightblue" stroke="midnightblue" points="109.81,-54.43 120.24,-56.32 113.27,-48.34 109.81,-54.43"/>
</g>
<!-- Node5 -->
<g id="node5" class="node">
<title>Node5</title>
<g id="a_node5"><a xlink:href="classMaxiGauge.html" target="_top" xlink:title=" ">
<polygon fill="none" stroke="black" points="99.5,-0.5 99.5,-19.5 171.5,-19.5 171.5,-0.5 99.5,-0.5"/>
<text text-anchor="middle" x="135.5" y="-7.5" font-family="Helvetica,sans-Serif" font-size="10.00">MaxiGauge</text>
</a>
</g>
</g>
<!-- Node3&#45;&gt;Node5 -->
<g id="edge4" class="edge">
<title>Node3&#45;&gt;Node5</title>
<path fill="none" stroke="midnightblue" d="M135.5,-45.8C135.5,-36.91 135.5,-26.78 135.5,-19.75"/>
<polygon fill="midnightblue" stroke="midnightblue" points="132,-46.08 135.5,-56.08 139,-46.08 132,-46.08"/>
</g>
<!-- Node6 -->
<g id="node6" class="node">
<title>Node6</title>
<g id="a_node6"><a xlink:href="classTurboVarianV81AG.html" target="_top" xlink:title=" ">
<polygon fill="none" stroke="black" points="190,-0.5 190,-19.5 297,-19.5 297,-0.5 190,-0.5"/>
<text text-anchor="middle" x="243.5" y="-7.5" font-family="Helvetica,sans-Serif" font-size="10.00">TurboVarianV81AG</text>
</a>
</g>
</g>
<!-- Node3&#45;&gt;Node6 -->
<g id="edge5" class="edge">
<title>Node3&#45;&gt;Node6</title>
<path fill="none" stroke="midnightblue" d="M162.05,-51.73C182.05,-41.73 208.89,-28.31 226.19,-19.65"/>
<polygon fill="midnightblue" stroke="midnightblue" points="160.23,-48.72 152.85,-56.32 163.36,-54.98 160.23,-48.72"/>
</g>
</g>
</svg>
