<?xml version="1.0" encoding="UTF-8" standalone="no"?>
<!DOCTYPE svg PUBLIC "-//W3C//DTD SVG 1.1//EN"
 "http://www.w3.org/Graphics/SVG/1.1/DTD/svg11.dtd">
<!-- Generated by graphviz version 2.50.0 (0)
 -->
<!-- Title: Graphical Class Hierarchy Pages: 1 -->
<svg width="577pt" height="446pt"
 viewBox="0.00 0.00 577.00 446.00" xmlns="http://www.w3.org/2000/svg" xmlns:xlink="http://www.w3.org/1999/xlink">
<g id="graph0" class="graph" transform="scale(1 1) rotate(0) translate(4 442)">
<title>Graphical Class Hierarchy</title>
<!-- Node0 -->
<g id="node1" class="node">
<title>Node0</title>
<g id="a_node1"><a xlink:href="interfaceChannelList.html" target="_top" xlink:title=" ">
<polygon fill="none" stroke="black" points="0,-266.5 0,-285.5 74,-285.5 74,-266.5 0,-266.5"/>
<text text-anchor="middle" x="37" y="-273.5" font-family="Helvetica,sans-Serif" font-size="10.00">ChannelList</text>
</a>
</g>
</g>
<!-- Node1 -->
<g id="node2" class="node">
<title>Node1</title>
<g id="a_node2"><a xlink:href="classGlgChildGui.html" target="_top" xlink:title=" ">
<polygon fill="none" stroke="black" points="131,-228.5 131,-247.5 205,-247.5 205,-228.5 131,-228.5"/>
<text text-anchor="middle" x="168" y="-235.5" font-family="Helvetica,sans-Serif" font-size="10.00">GlgChildGui</text>
</a>
</g>
</g>
<!-- Node0&#45;&gt;Node1 -->
<g id="edge1" class="edge">
<title>Node0&#45;&gt;Node1</title>
<path fill="none" stroke="midnightblue" d="M80.55,-263.46C98.1,-258.3 118.11,-252.4 134.46,-247.59"/>
<polygon fill="midnightblue" stroke="midnightblue" points="79.16,-260.23 70.55,-266.41 81.13,-266.94 79.16,-260.23"/>
</g>
<!-- Node12 -->
<g id="node13" class="node">
<title>Node12</title>
<g id="a_node13"><a xlink:href="classGlgGui.html" target="_top" xlink:title=" ">
<polygon fill="none" stroke="black" points="143,-266.5 143,-285.5 193,-285.5 193,-266.5 143,-266.5"/>
<text text-anchor="middle" x="168" y="-273.5" font-family="Helvetica,sans-Serif" font-size="10.00">GlgGui</text>
</a>
</g>
</g>
<!-- Node0&#45;&gt;Node12 -->
<g id="edge12" class="edge">
<title>Node0&#45;&gt;Node12</title>
<path fill="none" stroke="midnightblue" d="M84.35,-276C104.12,-276 126.37,-276 142.8,-276"/>
<polygon fill="midnightblue" stroke="midnightblue" points="84.28,-272.5 74.28,-276 84.28,-279.5 84.28,-272.5"/>
</g>
<!-- Node2 -->
<g id="node3" class="node">
<title>Node2</title>
<g id="a_node3"><a xlink:href="classGlgCryoIbDetStatusDetailsGui.html" target="_top" xlink:title=" ">
<polygon fill="none" stroke="black" points="262,-304.5 262,-323.5 426,-323.5 426,-304.5 262,-304.5"/>
<text text-anchor="middle" x="344" y="-311.5" font-family="Helvetica,sans-Serif" font-size="10.00">GlgCryoIbDetStatusDetailsGui</text>
</a>
</g>
</g>
<!-- Node1&#45;&gt;Node2 -->
<g id="edge2" class="edge">
<title>Node1&#45;&gt;Node2</title>
<path fill="none" stroke="midnightblue" d="M214.6,-250.9C218.57,-252.7 222.44,-254.73 226,-257 245.62,-269.5 241.83,-283.41 262,-295 268.76,-298.89 276.28,-301.98 283.92,-304.44"/>
<polygon fill="midnightblue" stroke="midnightblue" points="215.77,-247.6 205.19,-247.08 213.14,-254.09 215.77,-247.6"/>
</g>
<!-- Node3 -->
<g id="node4" class="node">
<title>Node3</title>
<g id="a_node4"><a xlink:href="classGlgDryGui.html" target="_top" xlink:title=" ">
<polygon fill="none" stroke="black" points="310.5,-266.5 310.5,-285.5 377.5,-285.5 377.5,-266.5 310.5,-266.5"/>
<text text-anchor="middle" x="344" y="-273.5" font-family="Helvetica,sans-Serif" font-size="10.00">GlgDryGui</text>
</a>
</g>
</g>
<!-- Node1&#45;&gt;Node3 -->
<g id="edge3" class="edge">
<title>Node1&#45;&gt;Node3</title>
<path fill="none" stroke="midnightblue" d="M214.87,-248.02C244.85,-254.57 283.3,-262.96 310.23,-268.84"/>
<polygon fill="midnightblue" stroke="midnightblue" points="215.57,-244.59 205.05,-245.87 214.08,-251.43 215.57,-244.59"/>
</g>
<!-- Node4 -->
<g id="node5" class="node">
<title>Node4</title>
<g id="a_node5"><a xlink:href="classGlgGaugeGui.html" target="_top" xlink:title=" ">
<polygon fill="none" stroke="black" points="303.5,-228.5 303.5,-247.5 384.5,-247.5 384.5,-228.5 303.5,-228.5"/>
<text text-anchor="middle" x="344" y="-235.5" font-family="Helvetica,sans-Serif" font-size="10.00">GlgGaugeGui</text>
</a>
</g>
</g>
<!-- Node1&#45;&gt;Node4 -->
<g id="edge4" class="edge">
<title>Node1&#45;&gt;Node4</title>
<path fill="none" stroke="midnightblue" d="M215.2,-238C242.66,-238 277.13,-238 303.35,-238"/>
<polygon fill="midnightblue" stroke="midnightblue" points="215.05,-234.5 205.05,-238 215.05,-241.5 215.05,-234.5"/>
</g>
<!-- Node5 -->
<g id="node6" class="node">
<title>Node5</title>
<g id="a_node6"><a xlink:href="classGlgIonicGui.html" target="_top" xlink:title=" ">
<polygon fill="none" stroke="black" points="307.5,-190.5 307.5,-209.5 380.5,-209.5 380.5,-190.5 307.5,-190.5"/>
<text text-anchor="middle" x="344" y="-197.5" font-family="Helvetica,sans-Serif" font-size="10.00">GlgIonicGui</text>
</a>
</g>
</g>
<!-- Node1&#45;&gt;Node5 -->
<g id="edge5" class="edge">
<title>Node1&#45;&gt;Node5</title>
<path fill="none" stroke="midnightblue" d="M214.92,-227.97C243.82,-221.66 280.57,-213.63 307.29,-207.8"/>
<polygon fill="midnightblue" stroke="midnightblue" points="214.08,-224.57 205.05,-230.13 215.57,-231.41 214.08,-224.57"/>
</g>
<!-- Node6 -->
<g id="node7" class="node">
<title>Node6</title>
<g id="a_node7"><a xlink:href="classGlgRGAGui.html" target="_top" xlink:title=" ">
<polygon fill="none" stroke="black" points="308.5,-152.5 308.5,-171.5 379.5,-171.5 379.5,-152.5 308.5,-152.5"/>
<text text-anchor="middle" x="344" y="-159.5" font-family="Helvetica,sans-Serif" font-size="10.00">GlgRGAGui</text>
</a>
</g>
</g>
<!-- Node1&#45;&gt;Node6 -->
<g id="edge6" class="edge">
<title>Node1&#45;&gt;Node6</title>
<path fill="none" stroke="midnightblue" d="M206.57,-224.36C213.25,-221.33 219.99,-217.86 226,-214 244.27,-202.28 242.81,-191.14 262,-181 276.18,-173.51 293.29,-168.94 308.12,-166.17"/>
<polygon fill="midnightblue" stroke="midnightblue" points="204.75,-221.33 196.92,-228.47 207.5,-227.77 204.75,-221.33"/>
</g>
<!-- Node7 -->
<g id="node8" class="node">
<title>Node7</title>
<g id="a_node8"><a xlink:href="classGlgTitane__22Gui.html" target="_top" xlink:title=" ">
<polygon fill="none" stroke="black" points="295,-114.5 295,-133.5 393,-133.5 393,-114.5 295,-114.5"/>
<text text-anchor="middle" x="344" y="-121.5" font-family="Helvetica,sans-Serif" font-size="10.00">GlgTitane_22Gui</text>
</a>
</g>
</g>
<!-- Node1&#45;&gt;Node7 -->
<g id="edge7" class="edge">
<title>Node1&#45;&gt;Node7</title>
<path fill="none" stroke="midnightblue" d="M211.97,-223.9C217.05,-221.12 221.88,-217.84 226,-214 251.89,-189.88 234.18,-164.86 262,-143 271.43,-135.59 283.26,-130.99 294.94,-128.16"/>
<polygon fill="midnightblue" stroke="midnightblue" points="210.17,-220.88 202.68,-228.38 213.21,-227.19 210.17,-220.88"/>
</g>
<!-- Node8 -->
<g id="node9" class="node">
<title>Node8</title>
<g id="a_node9"><a xlink:href="classGlgTitane__32Gui.html" target="_top" xlink:title=" ">
<polygon fill="none" stroke="black" points="295,-76.5 295,-95.5 393,-95.5 393,-76.5 295,-76.5"/>
<text text-anchor="middle" x="344" y="-83.5" font-family="Helvetica,sans-Serif" font-size="10.00">GlgTitane_32Gui</text>
</a>
</g>
</g>
<!-- Node1&#45;&gt;Node8 -->
<g id="edge8" class="edge">
<title>Node1&#45;&gt;Node8</title>
<path fill="none" stroke="midnightblue" d="M213.78,-223.74C218.29,-221.02 222.49,-217.8 226,-214 260.61,-176.52 224.36,-139.44 262,-105 271.06,-96.71 283.03,-91.83 294.98,-89.01"/>
<polygon fill="midnightblue" stroke="midnightblue" points="212.08,-220.67 204.81,-228.38 215.3,-226.89 212.08,-220.67"/>
</g>
<!-- Node9 -->
<g id="node10" class="node">
<title>Node9</title>
<g id="a_node10"><a xlink:href="classGlgTurboGui.html" target="_top" xlink:title=" ">
<polygon fill="none" stroke="black" points="306,-418.5 306,-437.5 382,-437.5 382,-418.5 306,-418.5"/>
<text text-anchor="middle" x="344" y="-425.5" font-family="Helvetica,sans-Serif" font-size="10.00">GlgTurboGui</text>
</a>
</g>
</g>
<!-- Node1&#45;&gt;Node9 -->
<g id="edge9" class="edge">
<title>Node1&#45;&gt;Node9</title>
<path fill="none" stroke="midnightblue" d="M214.35,-248.09C218.69,-250.46 222.7,-253.39 226,-257 272.85,-308.23 212.86,-359.96 262,-409 273.45,-420.43 290.39,-425.49 305.82,-427.57"/>
<polygon fill="midnightblue" stroke="midnightblue" points="215.65,-244.84 205.09,-243.97 212.8,-251.23 215.65,-244.84"/>
</g>
<!-- Node10 -->
<g id="node11" class="node">
<title>Node10</title>
<g id="a_node11"><a xlink:href="classGlgValveGui.html" target="_top" xlink:title=" ">
<polygon fill="none" stroke="black" points="305.5,-380.5 305.5,-399.5 382.5,-399.5 382.5,-380.5 305.5,-380.5"/>
<text text-anchor="middle" x="344" y="-387.5" font-family="Helvetica,sans-Serif" font-size="10.00">GlgValveGui</text>
</a>
</g>
</g>
<!-- Node1&#45;&gt;Node10 -->
<g id="edge10" class="edge">
<title>Node1&#45;&gt;Node10</title>
<path fill="none" stroke="midnightblue" d="M214.26,-248.43C218.58,-250.74 222.61,-253.56 226,-257 263.27,-294.87 223.04,-334.87 262,-371 273.65,-381.8 290.24,-386.83 305.38,-389.05"/>
<polygon fill="midnightblue" stroke="midnightblue" points="215.63,-245.21 205.07,-244.37 212.81,-251.61 215.63,-245.21"/>
</g>
<!-- Node11 -->
<g id="node12" class="node">
<title>Node11</title>
<g id="a_node12"><a xlink:href="classGlgXGSGaugeGui.html" target="_top" xlink:title=" ">
<polygon fill="none" stroke="black" points="293.5,-342.5 293.5,-361.5 394.5,-361.5 394.5,-342.5 293.5,-342.5"/>
<text text-anchor="middle" x="344" y="-349.5" font-family="Helvetica,sans-Serif" font-size="10.00">GlgXGSGaugeGui</text>
</a>
</g>
</g>
<!-- Node1&#45;&gt;Node11 -->
<g id="edge11" class="edge">
<title>Node1&#45;&gt;Node11</title>
<path fill="none" stroke="midnightblue" d="M214.48,-249.26C218.64,-251.4 222.57,-253.96 226,-257 253.97,-281.79 232.92,-309.52 262,-333 270.88,-340.17 281.99,-344.72 293.11,-347.59"/>
<polygon fill="midnightblue" stroke="midnightblue" points="215.68,-245.96 205.11,-245.17 212.88,-252.38 215.68,-245.96"/>
</g>
<!-- Node17 -->
<g id="node14" class="node">
<title>Node17</title>
<g id="a_node14"><a xlink:href="interfaceDataTypes.html" target="_top" xlink:title=" ">
<polygon fill="none" stroke="black" points="3,-95.5 3,-114.5 71,-114.5 71,-95.5 3,-95.5"/>
<text text-anchor="middle" x="37" y="-102.5" font-family="Helvetica,sans-Serif" font-size="10.00">DataTypes</text>
</a>
</g>
</g>
<!-- Node18 -->
<g id="node15" class="node">
<title>Node18</title>
<g id="a_node15"><a xlink:href="classDataElement.html" target="_top" xlink:title=" ">
<polygon fill="none" stroke="black" points="128,-76.5 128,-95.5 208,-95.5 208,-76.5 128,-76.5"/>
<text text-anchor="middle" x="168" y="-83.5" font-family="Helvetica,sans-Serif" font-size="10.00">DataElement</text>
</a>
</g>
</g>
<!-- Node17&#45;&gt;Node18 -->
<g id="edge13" class="edge">
<title>Node17&#45;&gt;Node18</title>
<path fill="none" stroke="midnightblue" d="M81.33,-98.62C96.41,-96.4 113.22,-93.92 127.93,-91.75"/>
<polygon fill="midnightblue" stroke="midnightblue" points="80.6,-95.19 71.22,-100.11 81.62,-102.11 80.6,-95.19"/>
</g>
<!-- Node19 -->
<g id="node16" class="node">
<title>Node19</title>
<g id="a_node16"><a xlink:href="classDataManager.html" target="_top" xlink:title=" ">
<polygon fill="none" stroke="black" points="126.5,-38.5 126.5,-57.5 209.5,-57.5 209.5,-38.5 126.5,-38.5"/>
<text text-anchor="middle" x="168" y="-45.5" font-family="Helvetica,sans-Serif" font-size="10.00">DataManager</text>
</a>
</g>
</g>
<!-- Node17&#45;&gt;Node19 -->
<g id="edge14" class="edge">
<title>Node17&#45;&gt;Node19</title>
<path fill="none" stroke="midnightblue" d="M63,-90.51C76.63,-82.94 93.95,-73.86 110,-67 118.06,-63.56 126.96,-60.33 135.3,-57.54"/>
<polygon fill="midnightblue" stroke="midnightblue" points="61.21,-87.5 54.21,-95.46 64.64,-93.6 61.21,-87.5"/>
</g>
<!-- Node20 -->
<g id="node17" class="node">
<title>Node20</title>
<g id="a_node17"><a xlink:href="classDevice.html" target="_top" xlink:title=" ">
<polygon fill="none" stroke="black" points="319,-38.5 319,-57.5 369,-57.5 369,-38.5 319,-38.5"/>
<text text-anchor="middle" x="344" y="-45.5" font-family="Helvetica,sans-Serif" font-size="10.00">Device</text>
</a>
</g>
</g>
<!-- Node17&#45;&gt;Node20 -->
<g id="edge19" class="edge">
<title>Node17&#45;&gt;Node20</title>
<path fill="none" stroke="midnightblue" d="M81.24,-114.37C120.66,-120.79 179.62,-124.95 226,-105 247.37,-95.81 241.83,-78.59 262,-67 279.53,-56.93 302.12,-52.19 318.98,-49.96"/>
<polygon fill="midnightblue" stroke="midnightblue" points="81.62,-110.89 71.17,-112.62 80.42,-117.78 81.62,-110.89"/>
</g>
<!-- Node24 -->
<g id="node21" class="node">
<title>Node24</title>
<g id="a_node21"><a xlink:href="classModbusSlaveThread.html" target="_top" xlink:title=" ">
<polygon fill="none" stroke="black" points="110,-152.5 110,-171.5 226,-171.5 226,-152.5 110,-152.5"/>
<text text-anchor="middle" x="168" y="-159.5" font-family="Helvetica,sans-Serif" font-size="10.00">ModbusSlaveThread</text>
</a>
</g>
</g>
<!-- Node17&#45;&gt;Node24 -->
<g id="edge20" class="edge">
<title>Node17&#45;&gt;Node24</title>
<path fill="none" stroke="midnightblue" d="M67.76,-118.89C80.7,-124.87 96.06,-131.87 110,-138 121.11,-142.88 133.51,-148.13 143.91,-152.47"/>
<polygon fill="midnightblue" stroke="midnightblue" points="68.95,-115.59 58.41,-114.56 66.01,-121.94 68.95,-115.59"/>
</g>
<!-- Node19&#45;&gt;Node20 -->
<g id="edge15" class="edge">
<title>Node19&#45;&gt;Node20</title>
<path fill="none" stroke="midnightblue" d="M220.03,-48C252.51,-48 293.12,-48 318.57,-48"/>
<polygon fill="midnightblue" stroke="midnightblue" points="219.8,-44.5 209.8,-48 219.8,-51.5 219.8,-44.5"/>
</g>
<!-- Node21 -->
<g id="node18" class="node">
<title>Node21</title>
<g id="a_node18"><a xlink:href="classControllino__1.html" target="_top" xlink:title=" ">
<polygon fill="none" stroke="black" points="475,-76.5 475,-95.5 556,-95.5 556,-76.5 475,-76.5"/>
<text text-anchor="middle" x="515.5" y="-83.5" font-family="Helvetica,sans-Serif" font-size="10.00">Controllino_1</text>
</a>
</g>
</g>
<!-- Node20&#45;&gt;Node21 -->
<g id="edge16" class="edge">
<title>Node20&#45;&gt;Node21</title>
<path fill="none" stroke="midnightblue" d="M379.29,-55.69C406.95,-61.89 445.89,-70.62 474.88,-77.12"/>
<polygon fill="midnightblue" stroke="midnightblue" points="379.81,-52.22 369.29,-53.44 378.28,-59.05 379.81,-52.22"/>
</g>
<!-- Node22 -->
<g id="node19" class="node">
<title>Node22</title>
<g id="a_node19"><a xlink:href="classMaxiGauge.html" target="_top" xlink:title=" ">
<polygon fill="none" stroke="black" points="479.5,-38.5 479.5,-57.5 551.5,-57.5 551.5,-38.5 479.5,-38.5"/>
<text text-anchor="middle" x="515.5" y="-45.5" font-family="Helvetica,sans-Serif" font-size="10.00">MaxiGauge</text>
</a>
</g>
</g>
<!-- Node20&#45;&gt;Node22 -->
<g id="edge17" class="edge">
<title>Node20&#45;&gt;Node22</title>
<path fill="none" stroke="midnightblue" d="M379.4,-48C408.51,-48 450.04,-48 479.36,-48"/>
<polygon fill="midnightblue" stroke="midnightblue" points="379.29,-44.5 369.29,-48 379.29,-51.5 379.29,-44.5"/>
</g>
<!-- Node23 -->
<g id="node20" class="node">
<title>Node23</title>
<g id="a_node20"><a xlink:href="classTurboVarianV81AG.html" target="_top" xlink:title=" ">
<polygon fill="none" stroke="black" points="462,-0.5 462,-19.5 569,-19.5 569,-0.5 462,-0.5"/>
<text text-anchor="middle" x="515.5" y="-7.5" font-family="Helvetica,sans-Serif" font-size="10.00">TurboVarianV81AG</text>
</a>
</g>
</g>
<!-- Node20&#45;&gt;Node23 -->
<g id="edge18" class="edge">
<title>Node20&#45;&gt;Node23</title>
<path fill="none" stroke="midnightblue" d="M379.33,-40.3C406.05,-34.31 443.29,-25.96 471.91,-19.55"/>
<polygon fill="midnightblue" stroke="midnightblue" points="378.28,-36.95 369.29,-42.56 379.81,-43.78 378.28,-36.95"/>
</g>
<!-- Node41 -->
<g id="node22" class="node">
<title>Node41</title>
<g id="a_node22"><a xlink:title=" ">
<polygon fill="none" stroke="#bfbfbf" points="6,-190.5 6,-209.5 68,-209.5 68,-190.5 6,-190.5"/>
<text text-anchor="middle" x="37" y="-197.5" font-family="Helvetica,sans-Serif" font-size="10.00">Runnable</text>
</a>
</g>
</g>
<!-- Node41&#45;&gt;Node1 -->
<g id="edge22" class="edge">
<title>Node41&#45;&gt;Node1</title>
<path fill="none" stroke="midnightblue" d="M78.01,-211.78C96.23,-217.15 117.51,-223.42 134.69,-228.48"/>
<polygon fill="midnightblue" stroke="midnightblue" points="78.83,-208.38 68.24,-208.91 76.85,-215.09 78.83,-208.38"/>
</g>
<!-- Node41&#45;&gt;Node12 -->
<g id="edge23" class="edge">
<title>Node41&#45;&gt;Node12</title>
<path fill="none" stroke="midnightblue" d="M67.6,-214.59C69.82,-215.99 71.98,-217.47 74,-219 92.53,-233.06 90.38,-244.5 110,-257 119.94,-263.33 132.21,-267.78 142.82,-270.76"/>
<polygon fill="midnightblue" stroke="midnightblue" points="69.3,-211.53 58.89,-209.55 65.79,-217.58 69.3,-211.53"/>
</g>
<!-- Node41&#45;&gt;Node20 -->
<g id="edge21" class="edge">
<title>Node41&#45;&gt;Node20</title>
<path fill="none" stroke="midnightblue" d="M78.2,-207.69C119.87,-213.22 184.59,-214.68 226,-181 267.22,-147.47 223.04,-103.13 262,-67 277.25,-52.86 300.97,-48.61 318.81,-47.61"/>
<polygon fill="midnightblue" stroke="midnightblue" points="78.54,-204.2 68.13,-206.21 77.52,-211.12 78.54,-204.2"/>
</g>
<!-- Node41&#45;&gt;Node24 -->
<g id="edge24" class="edge">
<title>Node41&#45;&gt;Node24</title>
<path fill="none" stroke="midnightblue" d="M78.01,-188.22C96.23,-182.85 117.51,-176.58 134.69,-171.52"/>
<polygon fill="midnightblue" stroke="midnightblue" points="76.85,-184.91 68.24,-191.09 78.83,-191.62 76.85,-184.91"/>
</g>
<!-- Node49 -->
<g id="node23" class="node">
<title>Node49</title>
<g id="a_node23"><a xlink:title=" ">
<polygon fill="none" stroke="#bfbfbf" points="12,-228.5 12,-247.5 62,-247.5 62,-228.5 12,-228.5"/>
<text text-anchor="middle" x="37" y="-235.5" font-family="Helvetica,sans-Serif" font-size="10.00">JFrame</text>
</a>
</g>
</g>
<!-- Node49&#45;&gt;Node1 -->
<g id="edge25" class="edge">
<title>Node49&#45;&gt;Node1</title>
<path fill="none" stroke="midnightblue" d="M72.33,-238C90.33,-238 112.36,-238 130.65,-238"/>
<polygon fill="midnightblue" stroke="midnightblue" points="72.26,-234.5 62.26,-238 72.26,-241.5 72.26,-234.5"/>
</g>
<!-- Node49&#45;&gt;Node12 -->
<g id="edge26" class="edge">
<title>Node49&#45;&gt;Node12</title>
<path fill="none" stroke="midnightblue" d="M72,-248.02C94.29,-254.58 122.88,-263 142.84,-268.88"/>
<polygon fill="midnightblue" stroke="midnightblue" points="72.85,-244.62 62.26,-245.15 70.87,-251.33 72.85,-244.62"/>
</g>
</g>
</svg>
