<?xml version="1.0" encoding="UTF-8" standalone="no"?>
<!DOCTYPE svg PUBLIC "-//W3C//DTD SVG 1.1//EN"
 "http://www.w3.org/Graphics/SVG/1.1/DTD/svg11.dtd">
<!-- Generated by graphviz version 2.50.0 (0)
 -->
<!-- Title: Graphical Class Hierarchy Pages: 1 -->
<svg width="309pt" height="382pt"
 viewBox="0.00 0.00 309.00 381.50" xmlns="http://www.w3.org/2000/svg" xmlns:xlink="http://www.w3.org/1999/xlink">
<g id="graph0" class="graph" transform="scale(1 1) rotate(0) translate(4 377.5)">
<title>Graphical Class Hierarchy</title>
<polygon fill="white" stroke="transparent" points="-4,4 -4,-377.5 305,-377.5 305,4 -4,4"/>
<!-- Node26 -->
<g id="node1" class="node">
<title>Node26</title>
<g id="a_node1"><a xlink:title=" ">
<polygon fill="white" stroke="#bfbfbf" points="0,-171.5 0,-190.5 97,-190.5 97,-171.5 0,-171.5"/>
<text text-anchor="middle" x="48.5" y="-178.5" font-family="Helvetica,sans-Serif" font-size="10.00">GlgInputListener</text>
</a>
</g>
</g>
<!-- Node0 -->
<g id="node2" class="node">
<title>Node0</title>
<g id="a_node2"><a xlink:href="classGlgCryoIbDetStatusDetailsGui_1_1InputListener.html" target="_top" xlink:title=" ">
<polygon fill="white" stroke="black" points="143.5,-343 143.5,-373 290.5,-373 290.5,-343 143.5,-343"/>
<text text-anchor="start" x="151.5" y="-361" font-family="Helvetica,sans-Serif" font-size="10.00">GlgCryoIbDetStatusDetails</text>
<text text-anchor="middle" x="217" y="-350" font-family="Helvetica,sans-Serif" font-size="10.00">Gui.InputListener</text>
</a>
</g>
</g>
<!-- Node26&#45;&gt;Node0 -->
<g id="edge1" class="edge">
<title>Node26&#45;&gt;Node0</title>
<path fill="none" stroke="midnightblue" d="M54.91,-200.52C64.89,-232.89 89.27,-297.6 133,-333 137.8,-336.88 143.18,-340.16 148.85,-342.93"/>
<polygon fill="midnightblue" stroke="midnightblue" points="58.25,-199.48 52.07,-190.87 51.54,-201.45 58.25,-199.48"/>
</g>
<!-- Node28 -->
<g id="node3" class="node">
<title>Node28</title>
<g id="a_node3"><a xlink:href="classGlgDryGui_1_1InputListener.html" target="_top" xlink:title=" ">
<polygon fill="white" stroke="black" points="150,-304.5 150,-323.5 284,-323.5 284,-304.5 150,-304.5"/>
<text text-anchor="middle" x="217" y="-311.5" font-family="Helvetica,sans-Serif" font-size="10.00">GlgDryGui.InputListener</text>
</a>
</g>
</g>
<!-- Node26&#45;&gt;Node28 -->
<g id="edge2" class="edge">
<title>Node26&#45;&gt;Node28</title>
<path fill="none" stroke="midnightblue" d="M57.99,-199.86C70.56,-225.55 96.63,-271.08 133,-295 138.93,-298.9 145.55,-302 152.4,-304.48"/>
<polygon fill="midnightblue" stroke="midnightblue" points="61.13,-198.32 53.7,-190.77 54.8,-201.31 61.13,-198.32"/>
</g>
<!-- Node29 -->
<g id="node4" class="node">
<title>Node29</title>
<g id="a_node4"><a xlink:href="classGlgGaugeGui_1_1InputListener.html" target="_top" xlink:title=" ">
<polygon fill="white" stroke="black" points="143,-266.5 143,-285.5 291,-285.5 291,-266.5 143,-266.5"/>
<text text-anchor="middle" x="217" y="-273.5" font-family="Helvetica,sans-Serif" font-size="10.00">GlgGaugeGui.InputListener</text>
</a>
</g>
</g>
<!-- Node26&#45;&gt;Node29 -->
<g id="edge3" class="edge">
<title>Node26&#45;&gt;Node29</title>
<path fill="none" stroke="midnightblue" d="M63.75,-198.41C79.04,-215.9 104.93,-242.33 133,-257 140.47,-260.9 148.72,-264.01 157.05,-266.48"/>
<polygon fill="midnightblue" stroke="midnightblue" points="66.28,-195.98 57.13,-190.62 60.94,-200.51 66.28,-195.98"/>
</g>
<!-- Node30 -->
<g id="node5" class="node">
<title>Node30</title>
<g id="a_node5"><a xlink:href="classGlgIonicGui_1_1InputListener.html" target="_top" xlink:title=" ">
<polygon fill="white" stroke="black" points="147,-228.5 147,-247.5 287,-247.5 287,-228.5 147,-228.5"/>
<text text-anchor="middle" x="217" y="-235.5" font-family="Helvetica,sans-Serif" font-size="10.00">GlgIonicGui.InputListener</text>
</a>
</g>
</g>
<!-- Node26&#45;&gt;Node30 -->
<g id="edge4" class="edge">
<title>Node26&#45;&gt;Node30</title>
<path fill="none" stroke="midnightblue" d="M76.94,-195.19C92.97,-203.04 113.76,-212.49 133,-219 143.78,-222.65 155.59,-225.82 166.83,-228.47"/>
<polygon fill="midnightblue" stroke="midnightblue" points="78.15,-191.88 67.64,-190.55 75.02,-198.14 78.15,-191.88"/>
</g>
<!-- Node31 -->
<g id="node6" class="node">
<title>Node31</title>
<g id="a_node6"><a xlink:href="classGlgRGAGui_1_1InputListener.html" target="_top" xlink:title=" ">
<polygon fill="white" stroke="black" points="148.5,-190.5 148.5,-209.5 285.5,-209.5 285.5,-190.5 148.5,-190.5"/>
<text text-anchor="middle" x="217" y="-197.5" font-family="Helvetica,sans-Serif" font-size="10.00">GlgRGAGui.InputListener</text>
</a>
</g>
</g>
<!-- Node26&#45;&gt;Node31 -->
<g id="edge5" class="edge">
<title>Node26&#45;&gt;Node31</title>
<path fill="none" stroke="midnightblue" d="M107.17,-187.58C120.48,-189.1 134.75,-190.73 148.43,-192.29"/>
<polygon fill="midnightblue" stroke="midnightblue" points="107.54,-184.1 97.21,-186.44 106.75,-191.06 107.54,-184.1"/>
</g>
<!-- Node32 -->
<g id="node7" class="node">
<title>Node32</title>
<g id="a_node7"><a xlink:href="classGlgTitane__22Gui_1_1InputListener.html" target="_top" xlink:title=" ">
<polygon fill="white" stroke="black" points="135,-152.5 135,-171.5 299,-171.5 299,-152.5 135,-152.5"/>
<text text-anchor="middle" x="217" y="-159.5" font-family="Helvetica,sans-Serif" font-size="10.00">GlgTitane_22Gui.InputListener</text>
</a>
</g>
</g>
<!-- Node26&#45;&gt;Node32 -->
<g id="edge6" class="edge">
<title>Node26&#45;&gt;Node32</title>
<path fill="none" stroke="midnightblue" d="M107.44,-174.39C116.34,-173.37 125.66,-172.31 134.95,-171.25"/>
<polygon fill="midnightblue" stroke="midnightblue" points="106.75,-170.94 97.21,-175.56 107.54,-177.9 106.75,-170.94"/>
</g>
<!-- Node33 -->
<g id="node8" class="node">
<title>Node33</title>
<g id="a_node8"><a xlink:href="classGlgTitane__32Gui_1_1InputListener.html" target="_top" xlink:title=" ">
<polygon fill="white" stroke="black" points="135,-114.5 135,-133.5 299,-133.5 299,-114.5 135,-114.5"/>
<text text-anchor="middle" x="217" y="-121.5" font-family="Helvetica,sans-Serif" font-size="10.00">GlgTitane_32Gui.InputListener</text>
</a>
</g>
</g>
<!-- Node26&#45;&gt;Node33 -->
<g id="edge7" class="edge">
<title>Node26&#45;&gt;Node33</title>
<path fill="none" stroke="midnightblue" d="M76.94,-166.81C92.97,-158.96 113.76,-149.51 133,-143 143.78,-139.35 155.59,-136.18 166.83,-133.53"/>
<polygon fill="midnightblue" stroke="midnightblue" points="75.02,-163.86 67.64,-171.45 78.15,-170.12 75.02,-163.86"/>
</g>
<!-- Node34 -->
<g id="node9" class="node">
<title>Node34</title>
<g id="a_node9"><a xlink:href="classGlgTurboGui_1_1InputListener.html" target="_top" xlink:title=" ">
<polygon fill="white" stroke="black" points="145.5,-76.5 145.5,-95.5 288.5,-95.5 288.5,-76.5 145.5,-76.5"/>
<text text-anchor="middle" x="217" y="-83.5" font-family="Helvetica,sans-Serif" font-size="10.00">GlgTurboGui.InputListener</text>
</a>
</g>
</g>
<!-- Node26&#45;&gt;Node34 -->
<g id="edge8" class="edge">
<title>Node26&#45;&gt;Node34</title>
<path fill="none" stroke="midnightblue" d="M63.75,-163.59C79.04,-146.1 104.93,-119.67 133,-105 140.47,-101.1 148.72,-97.99 157.05,-95.52"/>
<polygon fill="midnightblue" stroke="midnightblue" points="60.94,-161.49 57.13,-171.38 66.28,-166.02 60.94,-161.49"/>
</g>
<!-- Node35 -->
<g id="node10" class="node">
<title>Node35</title>
<g id="a_node10"><a xlink:href="classGlgValveGui_1_1InputListener.html" target="_top" xlink:title=" ">
<polygon fill="white" stroke="black" points="145.5,-38.5 145.5,-57.5 288.5,-57.5 288.5,-38.5 145.5,-38.5"/>
<text text-anchor="middle" x="217" y="-45.5" font-family="Helvetica,sans-Serif" font-size="10.00">GlgValveGui.InputListener</text>
</a>
</g>
</g>
<!-- Node26&#45;&gt;Node35 -->
<g id="edge9" class="edge">
<title>Node26&#45;&gt;Node35</title>
<path fill="none" stroke="midnightblue" d="M57.99,-162.14C70.56,-136.45 96.63,-90.92 133,-67 138.93,-63.1 145.55,-60 152.4,-57.52"/>
<polygon fill="midnightblue" stroke="midnightblue" points="54.8,-160.69 53.7,-171.23 61.13,-163.68 54.8,-160.69"/>
</g>
<!-- Node36 -->
<g id="node11" class="node">
<title>Node36</title>
<g id="a_node11"><a xlink:href="classGlgXGSGaugeGui_1_1InputListener.html" target="_top" xlink:title=" ">
<polygon fill="white" stroke="black" points="133,-0.5 133,-19.5 301,-19.5 301,-0.5 133,-0.5"/>
<text text-anchor="middle" x="217" y="-7.5" font-family="Helvetica,sans-Serif" font-size="10.00">GlgXGSGaugeGui.InputListener</text>
</a>
</g>
</g>
<!-- Node26&#45;&gt;Node36 -->
<g id="edge10" class="edge">
<title>Node26&#45;&gt;Node36</title>
<path fill="none" stroke="midnightblue" d="M54.52,-161.63C64.03,-128.94 87.88,-63.07 133,-29 138.07,-25.17 143.78,-22.09 149.77,-19.62"/>
<polygon fill="midnightblue" stroke="midnightblue" points="51.12,-160.77 51.83,-171.35 57.87,-162.64 51.12,-160.77"/>
</g>
</g>
</svg>
