<?xml version="1.0" encoding="UTF-8" standalone="no"?>
<!DOCTYPE svg PUBLIC "-//W3C//DTD SVG 1.1//EN"
 "http://www.w3.org/Graphics/SVG/1.1/DTD/svg11.dtd">
<!-- Generated by graphviz version 2.50.0 (0)
 -->
<!-- Title: ChannelList Pages: 1 -->
<svg width="392pt" height="370pt"
 viewBox="0.00 0.00 392.00 370.00" xmlns="http://www.w3.org/2000/svg" xmlns:xlink="http://www.w3.org/1999/xlink">
<g id="graph0" class="graph" transform="scale(1 1) rotate(0) translate(4 366)">
<title>ChannelList</title>
<polygon fill="white" stroke="transparent" points="-4,4 -4,-366 388,-366 388,4 -4,4"/>
<!-- Node1 -->
<g id="node1" class="node">
<title>Node1</title>
<g id="a_node1"><a xlink:title=" ">
<polygon fill="#bfbfbf" stroke="black" points="0,-152.5 0,-171.5 74,-171.5 74,-152.5 0,-152.5"/>
<text text-anchor="middle" x="37" y="-159.5" font-family="Helvetica,sans-Serif" font-size="10.00">ChannelList</text>
</a>
</g>
</g>
<!-- Node2 -->
<g id="node2" class="node">
<title>Node2</title>
<g id="a_node2"><a xlink:href="classGlgChildGui.html" target="_top" xlink:title=" ">
<polygon fill="white" stroke="black" points="110,-171.5 110,-190.5 184,-190.5 184,-171.5 110,-171.5"/>
<text text-anchor="middle" x="147" y="-178.5" font-family="Helvetica,sans-Serif" font-size="10.00">GlgChildGui</text>
</a>
</g>
</g>
<!-- Node1&#45;&gt;Node2 -->
<g id="edge1" class="edge">
<title>Node1&#45;&gt;Node2</title>
<path fill="none" stroke="midnightblue" d="M84.39,-170.16C92.84,-171.65 101.54,-173.18 109.65,-174.6"/>
<polygon fill="midnightblue" stroke="midnightblue" points="84.72,-166.67 74.26,-168.38 83.51,-173.56 84.72,-166.67"/>
</g>
<!-- Node13 -->
<g id="node13" class="node">
<title>Node13</title>
<g id="a_node13"><a xlink:href="classGlgGui.html" target="_top" xlink:title=" ">
<polygon fill="white" stroke="black" points="122,-133.5 122,-152.5 172,-152.5 172,-133.5 122,-133.5"/>
<text text-anchor="middle" x="147" y="-140.5" font-family="Helvetica,sans-Serif" font-size="10.00">GlgGui</text>
</a>
</g>
</g>
<!-- Node1&#45;&gt;Node13 -->
<g id="edge12" class="edge">
<title>Node1&#45;&gt;Node13</title>
<path fill="none" stroke="midnightblue" d="M84.43,-153.83C97.34,-151.56 110.84,-149.19 121.9,-147.24"/>
<polygon fill="midnightblue" stroke="midnightblue" points="83.51,-150.44 74.26,-155.62 84.72,-157.33 83.51,-150.44"/>
</g>
<!-- Node3 -->
<g id="node3" class="node">
<title>Node3</title>
<g id="a_node3"><a xlink:href="classGlgCryoIbDetStatusDetailsGui.html" target="_top" xlink:title=" ">
<polygon fill="white" stroke="black" points="220,-342.5 220,-361.5 384,-361.5 384,-342.5 220,-342.5"/>
<text text-anchor="middle" x="302" y="-349.5" font-family="Helvetica,sans-Serif" font-size="10.00">GlgCryoIbDetStatusDetailsGui</text>
</a>
</g>
</g>
<!-- Node2&#45;&gt;Node3 -->
<g id="edge2" class="edge">
<title>Node2&#45;&gt;Node3</title>
<path fill="none" stroke="midnightblue" d="M151.62,-200.72C158.69,-233.43 177.53,-298.7 220,-333 224.72,-336.81 230.07,-339.88 235.72,-342.36"/>
<polygon fill="midnightblue" stroke="midnightblue" points="154.99,-199.73 149.59,-190.61 148.13,-201.1 154.99,-199.73"/>
</g>
<!-- Node4 -->
<g id="node4" class="node">
<title>Node4</title>
<g id="a_node4"><a xlink:href="classGlgDryGui.html" target="_top" xlink:title=" ">
<polygon fill="white" stroke="black" points="268.5,-304.5 268.5,-323.5 335.5,-323.5 335.5,-304.5 268.5,-304.5"/>
<text text-anchor="middle" x="302" y="-311.5" font-family="Helvetica,sans-Serif" font-size="10.00">GlgDryGui</text>
</a>
</g>
</g>
<!-- Node2&#45;&gt;Node4 -->
<g id="edge3" class="edge">
<title>Node2&#45;&gt;Node4</title>
<path fill="none" stroke="midnightblue" d="M154.75,-200.15C164.84,-225.84 186.32,-271.01 220,-295 234,-304.97 252.49,-309.78 268.26,-312.07"/>
<polygon fill="midnightblue" stroke="midnightblue" points="158.02,-198.88 151.24,-190.74 151.46,-201.34 158.02,-198.88"/>
</g>
<!-- Node5 -->
<g id="node5" class="node">
<title>Node5</title>
<g id="a_node5"><a xlink:href="classGlgGaugeGui.html" target="_top" xlink:title=" ">
<polygon fill="white" stroke="black" points="261.5,-266.5 261.5,-285.5 342.5,-285.5 342.5,-266.5 261.5,-266.5"/>
<text text-anchor="middle" x="302" y="-273.5" font-family="Helvetica,sans-Serif" font-size="10.00">GlgGaugeGui</text>
</a>
</g>
</g>
<!-- Node2&#45;&gt;Node5 -->
<g id="edge4" class="edge">
<title>Node2&#45;&gt;Node5</title>
<path fill="none" stroke="midnightblue" d="M160.12,-198.91C172.94,-216.42 194.77,-242.51 220,-257 232.52,-264.19 247.62,-268.67 261.38,-271.45"/>
<polygon fill="midnightblue" stroke="midnightblue" points="162.9,-196.78 154.27,-190.64 157.19,-200.82 162.9,-196.78"/>
</g>
<!-- Node6 -->
<g id="node6" class="node">
<title>Node6</title>
<g id="a_node6"><a xlink:href="classGlgIonicGui.html" target="_top" xlink:title=" ">
<polygon fill="white" stroke="black" points="265.5,-228.5 265.5,-247.5 338.5,-247.5 338.5,-228.5 265.5,-228.5"/>
<text text-anchor="middle" x="302" y="-235.5" font-family="Helvetica,sans-Serif" font-size="10.00">GlgIonicGui</text>
</a>
</g>
</g>
<!-- Node2&#45;&gt;Node6 -->
<g id="edge5" class="edge">
<title>Node2&#45;&gt;Node6</title>
<path fill="none" stroke="midnightblue" d="M172.23,-195.78C185.86,-203.59 203.44,-212.8 220,-219 234.48,-224.42 251,-228.62 265.33,-231.69"/>
<polygon fill="midnightblue" stroke="midnightblue" points="173.87,-192.69 163.47,-190.66 170.34,-198.73 173.87,-192.69"/>
</g>
<!-- Node7 -->
<g id="node7" class="node">
<title>Node7</title>
<g id="a_node7"><a xlink:href="classGlgRGAGui.html" target="_top" xlink:title=" ">
<polygon fill="white" stroke="black" points="266.5,-190.5 266.5,-209.5 337.5,-209.5 337.5,-190.5 266.5,-190.5"/>
<text text-anchor="middle" x="302" y="-197.5" font-family="Helvetica,sans-Serif" font-size="10.00">GlgRGAGui</text>
</a>
</g>
</g>
<!-- Node2&#45;&gt;Node7 -->
<g id="edge6" class="edge">
<title>Node2&#45;&gt;Node7</title>
<path fill="none" stroke="midnightblue" d="M194.22,-186.74C217.39,-189.62 244.99,-193.04 266.32,-195.69"/>
<polygon fill="midnightblue" stroke="midnightblue" points="194.61,-183.26 184.26,-185.5 193.75,-190.21 194.61,-183.26"/>
</g>
<!-- Node8 -->
<g id="node8" class="node">
<title>Node8</title>
<g id="a_node8"><a xlink:href="classGlgTitane__22Gui.html" target="_top" xlink:title=" ">
<polygon fill="white" stroke="black" points="253,-152.5 253,-171.5 351,-171.5 351,-152.5 253,-152.5"/>
<text text-anchor="middle" x="302" y="-159.5" font-family="Helvetica,sans-Serif" font-size="10.00">GlgTitane_22Gui</text>
</a>
</g>
</g>
<!-- Node2&#45;&gt;Node8 -->
<g id="edge7" class="edge">
<title>Node2&#45;&gt;Node8</title>
<path fill="none" stroke="midnightblue" d="M194.23,-175.26C212.76,-172.96 234.12,-170.31 252.84,-167.98"/>
<polygon fill="midnightblue" stroke="midnightblue" points="193.75,-171.79 184.26,-176.5 194.61,-178.74 193.75,-171.79"/>
</g>
<!-- Node9 -->
<g id="node9" class="node">
<title>Node9</title>
<g id="a_node9"><a xlink:href="classGlgTitane__32Gui.html" target="_top" xlink:title=" ">
<polygon fill="white" stroke="black" points="253,-114.5 253,-133.5 351,-133.5 351,-114.5 253,-114.5"/>
<text text-anchor="middle" x="302" y="-121.5" font-family="Helvetica,sans-Serif" font-size="10.00">GlgTitane_32Gui</text>
</a>
</g>
</g>
<!-- Node2&#45;&gt;Node9 -->
<g id="edge8" class="edge">
<title>Node2&#45;&gt;Node9</title>
<path fill="none" stroke="midnightblue" d="M175.08,-166.7C195.43,-155.95 219.85,-143.06 220,-143 230.42,-139.1 241.9,-135.83 252.85,-133.16"/>
<polygon fill="midnightblue" stroke="midnightblue" points="173.32,-163.67 166.11,-171.43 176.59,-169.86 173.32,-163.67"/>
</g>
<!-- Node10 -->
<g id="node10" class="node">
<title>Node10</title>
<g id="a_node10"><a xlink:href="classGlgTurboGui.html" target="_top" xlink:title=" ">
<polygon fill="white" stroke="black" points="264,-76.5 264,-95.5 340,-95.5 340,-76.5 264,-76.5"/>
<text text-anchor="middle" x="302" y="-83.5" font-family="Helvetica,sans-Serif" font-size="10.00">GlgTurboGui</text>
</a>
</g>
</g>
<!-- Node2&#45;&gt;Node10 -->
<g id="edge9" class="edge">
<title>Node2&#45;&gt;Node10</title>
<path fill="none" stroke="midnightblue" d="M179.26,-165.89C180.93,-164.67 182.52,-163.37 184,-162 205.99,-141.65 195.6,-122.38 220,-105 232.71,-95.95 249.11,-91.15 263.83,-88.63"/>
<polygon fill="midnightblue" stroke="midnightblue" points="177.09,-163.13 170.52,-171.44 180.84,-169.04 177.09,-163.13"/>
</g>
<!-- Node11 -->
<g id="node11" class="node">
<title>Node11</title>
<g id="a_node11"><a xlink:href="classGlgValveGui.html" target="_top" xlink:title=" ">
<polygon fill="white" stroke="black" points="263.5,-38.5 263.5,-57.5 340.5,-57.5 340.5,-38.5 263.5,-38.5"/>
<text text-anchor="middle" x="302" y="-45.5" font-family="Helvetica,sans-Serif" font-size="10.00">GlgValveGui</text>
</a>
</g>
</g>
<!-- Node2&#45;&gt;Node11 -->
<g id="edge10" class="edge">
<title>Node2&#45;&gt;Node11</title>
<path fill="none" stroke="midnightblue" d="M180.69,-165.3C181.86,-164.26 182.98,-163.16 184,-162 213.9,-128.16 186.04,-96.76 220,-67 231.84,-56.62 248.28,-51.64 263.26,-49.34"/>
<polygon fill="midnightblue" stroke="midnightblue" points="178.31,-162.69 172.21,-171.36 182.38,-168.39 178.31,-162.69"/>
</g>
<!-- Node12 -->
<g id="node12" class="node">
<title>Node12</title>
<g id="a_node12"><a xlink:href="classGlgXGSGaugeGui.html" target="_top" xlink:title=" ">
<polygon fill="white" stroke="black" points="251.5,-0.5 251.5,-19.5 352.5,-19.5 352.5,-0.5 251.5,-0.5"/>
<text text-anchor="middle" x="302" y="-7.5" font-family="Helvetica,sans-Serif" font-size="10.00">GlgXGSGaugeGui</text>
</a>
</g>
</g>
<!-- Node2&#45;&gt;Node12 -->
<g id="edge11" class="edge">
<title>Node2&#45;&gt;Node12</title>
<path fill="none" stroke="midnightblue" d="M180.93,-165.33C182.03,-164.28 183.06,-163.17 184,-162 222.26,-114.18 175.97,-71.56 220,-29 228.52,-20.77 239.89,-15.86 251.41,-12.99"/>
<polygon fill="midnightblue" stroke="midnightblue" points="178.77,-162.58 172.87,-171.38 182.97,-168.17 178.77,-162.58"/>
</g>
</g>
</svg>
