<?xml version="1.0" encoding="UTF-8" standalone="no"?>
<!DOCTYPE svg PUBLIC "-//W3C//DTD SVG 1.1//EN"
 "http://www.w3.org/Graphics/SVG/1.1/DTD/svg11.dtd">
<!-- Generated by graphviz version 2.50.0 (0)
 -->
<!-- Title: GlgChildGui Pages: 1 -->
<svg width="360pt" height="408pt"
 viewBox="0.00 0.00 360.00 408.00" xmlns="http://www.w3.org/2000/svg" xmlns:xlink="http://www.w3.org/1999/xlink">
<g id="graph0" class="graph" transform="scale(1 1) rotate(0) translate(4 404)">
<title>GlgChildGui</title>
<polygon fill="white" stroke="transparent" points="-4,4 -4,-404 356,-404 356,4 -4,4"/>
<!-- Node1 -->
<g id="node1" class="node">
<title>Node1</title>
<g id="a_node1"><a xlink:title=" ">
<polygon fill="#bfbfbf" stroke="black" points="110,-190.5 110,-209.5 184,-209.5 184,-190.5 110,-190.5"/>
<text text-anchor="middle" x="147" y="-197.5" font-family="Helvetica,sans-Serif" font-size="10.00">GlgChildGui</text>
</a>
</g>
</g>
<!-- Node5 -->
<g id="node5" class="node">
<title>Node5</title>
<g id="a_node5"><a xlink:href="classGlgDryGui.html" target="_top" xlink:title=" ">
<polygon fill="white" stroke="black" points="252.5,-380.5 252.5,-399.5 319.5,-399.5 319.5,-380.5 252.5,-380.5"/>
<text text-anchor="middle" x="286" y="-387.5" font-family="Helvetica,sans-Serif" font-size="10.00">GlgDryGui</text>
</a>
</g>
</g>
<!-- Node1&#45;&gt;Node5 -->
<g id="edge4" class="edge">
<title>Node1&#45;&gt;Node5</title>
<path fill="none" stroke="midnightblue" d="M150.74,-219.89C156.72,-255.49 174.23,-330.18 220,-371 228.95,-378.98 241.09,-383.62 252.45,-386.31"/>
<polygon fill="midnightblue" stroke="midnightblue" points="154.17,-219.15 149.19,-209.8 147.25,-220.22 154.17,-219.15"/>
</g>
<!-- Node6 -->
<g id="node6" class="node">
<title>Node6</title>
<g id="a_node6"><a xlink:href="classGlgGaugeGui.html" target="_top" xlink:title=" ">
<polygon fill="white" stroke="black" points="245.5,-342.5 245.5,-361.5 326.5,-361.5 326.5,-342.5 245.5,-342.5"/>
<text text-anchor="middle" x="286" y="-349.5" font-family="Helvetica,sans-Serif" font-size="10.00">GlgGaugeGui</text>
</a>
</g>
</g>
<!-- Node1&#45;&gt;Node6 -->
<g id="edge5" class="edge">
<title>Node1&#45;&gt;Node6</title>
<path fill="none" stroke="midnightblue" d="M153.28,-219.49C162.17,-248.55 182.87,-303.01 220,-333 227.32,-338.91 236.41,-342.98 245.45,-345.79"/>
<polygon fill="midnightblue" stroke="midnightblue" points="156.59,-218.34 150.45,-209.71 149.87,-220.28 156.59,-218.34"/>
</g>
<!-- Node7 -->
<g id="node7" class="node">
<title>Node7</title>
<g id="a_node7"><a xlink:href="classGlgIonicGui.html" target="_top" xlink:title=" ">
<polygon fill="white" stroke="black" points="249.5,-304.5 249.5,-323.5 322.5,-323.5 322.5,-304.5 249.5,-304.5"/>
<text text-anchor="middle" x="286" y="-311.5" font-family="Helvetica,sans-Serif" font-size="10.00">GlgIonicGui</text>
</a>
</g>
</g>
<!-- Node1&#45;&gt;Node7 -->
<g id="edge6" class="edge">
<title>Node1&#45;&gt;Node7</title>
<path fill="none" stroke="midnightblue" d="M157.45,-218.84C169.22,-240.38 191.31,-275.23 220,-295 228.71,-301 239.33,-305.13 249.44,-307.97"/>
<polygon fill="midnightblue" stroke="midnightblue" points="160.41,-216.93 152.66,-209.71 154.21,-220.19 160.41,-216.93"/>
</g>
<!-- Node8 -->
<g id="node8" class="node">
<title>Node8</title>
<g id="a_node8"><a xlink:href="classGlgRGAGui.html" target="_top" xlink:title=" ">
<polygon fill="white" stroke="black" points="250.5,-266.5 250.5,-285.5 321.5,-285.5 321.5,-266.5 250.5,-266.5"/>
<text text-anchor="middle" x="286" y="-273.5" font-family="Helvetica,sans-Serif" font-size="10.00">GlgRGAGui</text>
</a>
</g>
</g>
<!-- Node1&#45;&gt;Node8 -->
<g id="edge7" class="edge">
<title>Node1&#45;&gt;Node8</title>
<path fill="none" stroke="midnightblue" d="M165.16,-216.75C178.96,-229.4 199.4,-246.35 220,-257 229.4,-261.86 240.22,-265.65 250.31,-268.52"/>
<polygon fill="midnightblue" stroke="midnightblue" points="167.53,-214.18 157.84,-209.88 162.73,-219.28 167.53,-214.18"/>
</g>
<!-- Node9 -->
<g id="node9" class="node">
<title>Node9</title>
<g id="a_node9"><a xlink:href="classGlgSqzStatusDetailsGui.html" target="_top" xlink:title=" ">
<polygon fill="white" stroke="black" points="220,-228.5 220,-247.5 352,-247.5 352,-228.5 220,-228.5"/>
<text text-anchor="middle" x="286" y="-235.5" font-family="Helvetica,sans-Serif" font-size="10.00">GlgSqzStatusDetailsGui</text>
</a>
</g>
</g>
<!-- Node1&#45;&gt;Node9 -->
<g id="edge8" class="edge">
<title>Node1&#45;&gt;Node9</title>
<path fill="none" stroke="midnightblue" d="M192.41,-212.32C211.23,-217.54 232.84,-223.53 250.44,-228.41"/>
<polygon fill="midnightblue" stroke="midnightblue" points="193.14,-208.89 182.57,-209.59 191.27,-215.63 193.14,-208.89"/>
</g>
<!-- Node10 -->
<g id="node10" class="node">
<title>Node10</title>
<g id="a_node10"><a xlink:href="classGlgSqzTempGui.html" target="_top" xlink:title=" ">
<polygon fill="white" stroke="black" points="239.5,-190.5 239.5,-209.5 332.5,-209.5 332.5,-190.5 239.5,-190.5"/>
<text text-anchor="middle" x="286" y="-197.5" font-family="Helvetica,sans-Serif" font-size="10.00">GlgSqzTempGui</text>
</a>
</g>
</g>
<!-- Node1&#45;&gt;Node10 -->
<g id="edge9" class="edge">
<title>Node1&#45;&gt;Node10</title>
<path fill="none" stroke="midnightblue" d="M194.59,-200C209.06,-200 224.99,-200 239.39,-200"/>
<polygon fill="midnightblue" stroke="midnightblue" points="194.35,-196.5 184.35,-200 194.35,-203.5 194.35,-196.5"/>
</g>
<!-- Node11 -->
<g id="node11" class="node">
<title>Node11</title>
<g id="a_node11"><a xlink:href="classGlgTitane__22Gui.html" target="_top" xlink:title=" ">
<polygon fill="white" stroke="black" points="237,-152.5 237,-171.5 335,-171.5 335,-152.5 237,-152.5"/>
<text text-anchor="middle" x="286" y="-159.5" font-family="Helvetica,sans-Serif" font-size="10.00">GlgTitane_22Gui</text>
</a>
</g>
</g>
<!-- Node1&#45;&gt;Node11 -->
<g id="edge10" class="edge">
<title>Node1&#45;&gt;Node11</title>
<path fill="none" stroke="midnightblue" d="M192.41,-187.68C211.23,-182.46 232.84,-176.47 250.44,-171.59"/>
<polygon fill="midnightblue" stroke="midnightblue" points="191.27,-184.37 182.57,-190.41 193.14,-191.11 191.27,-184.37"/>
</g>
<!-- Node12 -->
<g id="node12" class="node">
<title>Node12</title>
<g id="a_node12"><a xlink:href="classGlgTitane__32Gui.html" target="_top" xlink:title=" ">
<polygon fill="white" stroke="black" points="237,-114.5 237,-133.5 335,-133.5 335,-114.5 237,-114.5"/>
<text text-anchor="middle" x="286" y="-121.5" font-family="Helvetica,sans-Serif" font-size="10.00">GlgTitane_32Gui</text>
</a>
</g>
</g>
<!-- Node1&#45;&gt;Node12 -->
<g id="edge11" class="edge">
<title>Node1&#45;&gt;Node12</title>
<path fill="none" stroke="midnightblue" d="M165.16,-183.25C178.96,-170.6 199.4,-153.65 220,-143 227.31,-139.22 235.48,-136.09 243.5,-133.53"/>
<polygon fill="midnightblue" stroke="midnightblue" points="162.73,-180.72 157.84,-190.12 167.53,-185.82 162.73,-180.72"/>
</g>
<!-- Node13 -->
<g id="node13" class="node">
<title>Node13</title>
<g id="a_node13"><a xlink:href="classGlgTurboGui.html" target="_top" xlink:title=" ">
<polygon fill="white" stroke="black" points="248,-76.5 248,-95.5 324,-95.5 324,-76.5 248,-76.5"/>
<text text-anchor="middle" x="286" y="-83.5" font-family="Helvetica,sans-Serif" font-size="10.00">GlgTurboGui</text>
</a>
</g>
</g>
<!-- Node1&#45;&gt;Node13 -->
<g id="edge12" class="edge">
<title>Node1&#45;&gt;Node13</title>
<path fill="none" stroke="midnightblue" d="M157.45,-181.16C169.22,-159.62 191.31,-124.77 220,-105 228.23,-99.33 238.16,-95.33 247.75,-92.52"/>
<polygon fill="midnightblue" stroke="midnightblue" points="154.21,-179.81 152.66,-190.29 160.41,-183.07 154.21,-179.81"/>
</g>
<!-- Node14 -->
<g id="node14" class="node">
<title>Node14</title>
<g id="a_node14"><a xlink:href="classGlgValveGui.html" target="_top" xlink:title=" ">
<polygon fill="white" stroke="black" points="247.5,-38.5 247.5,-57.5 324.5,-57.5 324.5,-38.5 247.5,-38.5"/>
<text text-anchor="middle" x="286" y="-45.5" font-family="Helvetica,sans-Serif" font-size="10.00">GlgValveGui</text>
</a>
</g>
</g>
<!-- Node1&#45;&gt;Node14 -->
<g id="edge13" class="edge">
<title>Node1&#45;&gt;Node14</title>
<path fill="none" stroke="midnightblue" d="M153.28,-180.51C162.17,-151.45 182.87,-96.99 220,-67 227.87,-60.65 237.78,-56.42 247.48,-53.6"/>
<polygon fill="midnightblue" stroke="midnightblue" points="149.87,-179.72 150.45,-190.29 156.59,-181.66 149.87,-179.72"/>
</g>
<!-- Node15 -->
<g id="node15" class="node">
<title>Node15</title>
<g id="a_node15"><a xlink:href="classGlgXGSGaugeGui.html" target="_top" xlink:title=" ">
<polygon fill="white" stroke="black" points="235.5,-0.5 235.5,-19.5 336.5,-19.5 336.5,-0.5 235.5,-0.5"/>
<text text-anchor="middle" x="286" y="-7.5" font-family="Helvetica,sans-Serif" font-size="10.00">GlgXGSGaugeGui</text>
</a>
</g>
</g>
<!-- Node1&#45;&gt;Node15 -->
<g id="edge14" class="edge">
<title>Node1&#45;&gt;Node15</title>
<path fill="none" stroke="midnightblue" d="M150.74,-180.11C156.72,-144.51 174.23,-69.82 220,-29 224.47,-25.01 229.75,-21.85 235.32,-19.36"/>
<polygon fill="midnightblue" stroke="midnightblue" points="147.25,-179.78 149.19,-190.2 154.17,-180.85 147.25,-179.78"/>
</g>
<!-- Node2 -->
<g id="node2" class="node">
<title>Node2</title>
<g id="a_node2"><a xlink:title=" ">
<polygon fill="white" stroke="#bfbfbf" points="12,-228.5 12,-247.5 62,-247.5 62,-228.5 12,-228.5"/>
<text text-anchor="middle" x="37" y="-235.5" font-family="Helvetica,sans-Serif" font-size="10.00">JFrame</text>
</a>
</g>
</g>
<!-- Node2&#45;&gt;Node1 -->
<g id="edge1" class="edge">
<title>Node2&#45;&gt;Node1</title>
<path fill="none" stroke="midnightblue" d="M71.77,-226.12C86.91,-220.79 104.53,-214.59 118.8,-209.57"/>
<polygon fill="midnightblue" stroke="midnightblue" points="70.51,-222.85 62.24,-229.47 72.83,-229.45 70.51,-222.85"/>
</g>
<!-- Node3 -->
<g id="node3" class="node">
<title>Node3</title>
<g id="a_node3"><a xlink:href="interfaceChannelList.html" target="_top" xlink:title=" ">
<polygon fill="white" stroke="black" points="0,-190.5 0,-209.5 74,-209.5 74,-190.5 0,-190.5"/>
<text text-anchor="middle" x="37" y="-197.5" font-family="Helvetica,sans-Serif" font-size="10.00">ChannelList</text>
</a>
</g>
</g>
<!-- Node3&#45;&gt;Node1 -->
<g id="edge2" class="edge">
<title>Node3&#45;&gt;Node1</title>
<path fill="none" stroke="midnightblue" d="M84.39,-200C92.84,-200 101.54,-200 109.65,-200"/>
<polygon fill="midnightblue" stroke="midnightblue" points="84.26,-196.5 74.26,-200 84.26,-203.5 84.26,-196.5"/>
</g>
<!-- Node4 -->
<g id="node4" class="node">
<title>Node4</title>
<g id="a_node4"><a xlink:title=" ">
<polygon fill="white" stroke="#bfbfbf" points="6,-152.5 6,-171.5 68,-171.5 68,-152.5 6,-152.5"/>
<text text-anchor="middle" x="37" y="-159.5" font-family="Helvetica,sans-Serif" font-size="10.00">Runnable</text>
</a>
</g>
</g>
<!-- Node4&#45;&gt;Node1 -->
<g id="edge3" class="edge">
<title>Node4&#45;&gt;Node1</title>
<path fill="none" stroke="midnightblue" d="M74.87,-174.97C89.26,-180.03 105.45,-185.73 118.76,-190.41"/>
<polygon fill="midnightblue" stroke="midnightblue" points="75.85,-171.61 65.25,-171.59 73.52,-178.21 75.85,-171.61"/>
</g>
</g>
</svg>
