<?xml version="1.0" encoding="UTF-8" standalone="no"?>
<!DOCTYPE svg PUBLIC "-//W3C//DTD SVG 1.1//EN"
 "http://www.w3.org/Graphics/SVG/1.1/DTD/svg11.dtd">
<!-- Generated by graphviz version 2.50.0 (0)
 -->
<!-- Title: ChannelList Pages: 1 -->
<svg width="360pt" height="408pt"
 viewBox="0.00 0.00 360.00 408.00" xmlns="http://www.w3.org/2000/svg" xmlns:xlink="http://www.w3.org/1999/xlink">
<g id="graph0" class="graph" transform="scale(1 1) rotate(0) translate(4 404)">
<title>ChannelList</title>
<polygon fill="white" stroke="transparent" points="-4,4 -4,-404 356,-404 356,4 -4,4"/>
<!-- Node1 -->
<g id="node1" class="node">
<title>Node1</title>
<g id="a_node1"><a xlink:title=" ">
<polygon fill="#bfbfbf" stroke="black" points="0,-171.5 0,-190.5 74,-190.5 74,-171.5 0,-171.5"/>
<text text-anchor="middle" x="37" y="-178.5" font-family="Helvetica,sans-Serif" font-size="10.00">ChannelList</text>
</a>
</g>
</g>
<!-- Node2 -->
<g id="node2" class="node">
<title>Node2</title>
<g id="a_node2"><a xlink:href="classGlgChildGui.html" target="_top" xlink:title=" ">
<polygon fill="white" stroke="black" points="110,-190.5 110,-209.5 184,-209.5 184,-190.5 110,-190.5"/>
<text text-anchor="middle" x="147" y="-197.5" font-family="Helvetica,sans-Serif" font-size="10.00">GlgChildGui</text>
</a>
</g>
</g>
<!-- Node1&#45;&gt;Node2 -->
<g id="edge1" class="edge">
<title>Node1&#45;&gt;Node2</title>
<path fill="none" stroke="midnightblue" d="M84.39,-189.16C92.84,-190.65 101.54,-192.18 109.65,-193.6"/>
<polygon fill="midnightblue" stroke="midnightblue" points="84.72,-185.67 74.26,-187.38 83.51,-192.56 84.72,-185.67"/>
</g>
<!-- Node14 -->
<g id="node14" class="node">
<title>Node14</title>
<g id="a_node14"><a xlink:href="classGlgGui.html" target="_top" xlink:title=" ">
<polygon fill="white" stroke="black" points="122,-152.5 122,-171.5 172,-171.5 172,-152.5 122,-152.5"/>
<text text-anchor="middle" x="147" y="-159.5" font-family="Helvetica,sans-Serif" font-size="10.00">GlgGui</text>
</a>
</g>
</g>
<!-- Node1&#45;&gt;Node14 -->
<g id="edge13" class="edge">
<title>Node1&#45;&gt;Node14</title>
<path fill="none" stroke="midnightblue" d="M84.43,-172.83C97.34,-170.56 110.84,-168.19 121.9,-166.24"/>
<polygon fill="midnightblue" stroke="midnightblue" points="83.51,-169.44 74.26,-174.62 84.72,-176.33 83.51,-169.44"/>
</g>
<!-- Node3 -->
<g id="node3" class="node">
<title>Node3</title>
<g id="a_node3"><a xlink:href="classGlgDryGui.html" target="_top" xlink:title=" ">
<polygon fill="white" stroke="black" points="252.5,-380.5 252.5,-399.5 319.5,-399.5 319.5,-380.5 252.5,-380.5"/>
<text text-anchor="middle" x="286" y="-387.5" font-family="Helvetica,sans-Serif" font-size="10.00">GlgDryGui</text>
</a>
</g>
</g>
<!-- Node2&#45;&gt;Node3 -->
<g id="edge2" class="edge">
<title>Node2&#45;&gt;Node3</title>
<path fill="none" stroke="midnightblue" d="M150.74,-219.89C156.72,-255.49 174.23,-330.18 220,-371 228.95,-378.98 241.09,-383.62 252.45,-386.31"/>
<polygon fill="midnightblue" stroke="midnightblue" points="154.17,-219.15 149.19,-209.8 147.25,-220.22 154.17,-219.15"/>
</g>
<!-- Node4 -->
<g id="node4" class="node">
<title>Node4</title>
<g id="a_node4"><a xlink:href="classGlgGaugeGui.html" target="_top" xlink:title=" ">
<polygon fill="white" stroke="black" points="245.5,-342.5 245.5,-361.5 326.5,-361.5 326.5,-342.5 245.5,-342.5"/>
<text text-anchor="middle" x="286" y="-349.5" font-family="Helvetica,sans-Serif" font-size="10.00">GlgGaugeGui</text>
</a>
</g>
</g>
<!-- Node2&#45;&gt;Node4 -->
<g id="edge3" class="edge">
<title>Node2&#45;&gt;Node4</title>
<path fill="none" stroke="midnightblue" d="M153.28,-219.49C162.17,-248.55 182.87,-303.01 220,-333 227.32,-338.91 236.41,-342.98 245.45,-345.79"/>
<polygon fill="midnightblue" stroke="midnightblue" points="156.59,-218.34 150.45,-209.71 149.87,-220.28 156.59,-218.34"/>
</g>
<!-- Node5 -->
<g id="node5" class="node">
<title>Node5</title>
<g id="a_node5"><a xlink:href="classGlgIonicGui.html" target="_top" xlink:title=" ">
<polygon fill="white" stroke="black" points="249.5,-304.5 249.5,-323.5 322.5,-323.5 322.5,-304.5 249.5,-304.5"/>
<text text-anchor="middle" x="286" y="-311.5" font-family="Helvetica,sans-Serif" font-size="10.00">GlgIonicGui</text>
</a>
</g>
</g>
<!-- Node2&#45;&gt;Node5 -->
<g id="edge4" class="edge">
<title>Node2&#45;&gt;Node5</title>
<path fill="none" stroke="midnightblue" d="M157.45,-218.84C169.22,-240.38 191.31,-275.23 220,-295 228.71,-301 239.33,-305.13 249.44,-307.97"/>
<polygon fill="midnightblue" stroke="midnightblue" points="160.41,-216.93 152.66,-209.71 154.21,-220.19 160.41,-216.93"/>
</g>
<!-- Node6 -->
<g id="node6" class="node">
<title>Node6</title>
<g id="a_node6"><a xlink:href="classGlgRGAGui.html" target="_top" xlink:title=" ">
<polygon fill="white" stroke="black" points="250.5,-266.5 250.5,-285.5 321.5,-285.5 321.5,-266.5 250.5,-266.5"/>
<text text-anchor="middle" x="286" y="-273.5" font-family="Helvetica,sans-Serif" font-size="10.00">GlgRGAGui</text>
</a>
</g>
</g>
<!-- Node2&#45;&gt;Node6 -->
<g id="edge5" class="edge">
<title>Node2&#45;&gt;Node6</title>
<path fill="none" stroke="midnightblue" d="M165.16,-216.75C178.96,-229.4 199.4,-246.35 220,-257 229.4,-261.86 240.22,-265.65 250.31,-268.52"/>
<polygon fill="midnightblue" stroke="midnightblue" points="167.53,-214.18 157.84,-209.88 162.73,-219.28 167.53,-214.18"/>
</g>
<!-- Node7 -->
<g id="node7" class="node">
<title>Node7</title>
<g id="a_node7"><a xlink:href="classGlgSqzStatusDetailsGui.html" target="_top" xlink:title=" ">
<polygon fill="white" stroke="black" points="220,-228.5 220,-247.5 352,-247.5 352,-228.5 220,-228.5"/>
<text text-anchor="middle" x="286" y="-235.5" font-family="Helvetica,sans-Serif" font-size="10.00">GlgSqzStatusDetailsGui</text>
</a>
</g>
</g>
<!-- Node2&#45;&gt;Node7 -->
<g id="edge6" class="edge">
<title>Node2&#45;&gt;Node7</title>
<path fill="none" stroke="midnightblue" d="M192.41,-212.32C211.23,-217.54 232.84,-223.53 250.44,-228.41"/>
<polygon fill="midnightblue" stroke="midnightblue" points="193.14,-208.89 182.57,-209.59 191.27,-215.63 193.14,-208.89"/>
</g>
<!-- Node8 -->
<g id="node8" class="node">
<title>Node8</title>
<g id="a_node8"><a xlink:href="classGlgSqzTempGui.html" target="_top" xlink:title=" ">
<polygon fill="white" stroke="black" points="239.5,-190.5 239.5,-209.5 332.5,-209.5 332.5,-190.5 239.5,-190.5"/>
<text text-anchor="middle" x="286" y="-197.5" font-family="Helvetica,sans-Serif" font-size="10.00">GlgSqzTempGui</text>
</a>
</g>
</g>
<!-- Node2&#45;&gt;Node8 -->
<g id="edge7" class="edge">
<title>Node2&#45;&gt;Node8</title>
<path fill="none" stroke="midnightblue" d="M194.59,-200C209.06,-200 224.99,-200 239.39,-200"/>
<polygon fill="midnightblue" stroke="midnightblue" points="194.35,-196.5 184.35,-200 194.35,-203.5 194.35,-196.5"/>
</g>
<!-- Node9 -->
<g id="node9" class="node">
<title>Node9</title>
<g id="a_node9"><a xlink:href="classGlgTitane__22Gui.html" target="_top" xlink:title=" ">
<polygon fill="white" stroke="black" points="237,-152.5 237,-171.5 335,-171.5 335,-152.5 237,-152.5"/>
<text text-anchor="middle" x="286" y="-159.5" font-family="Helvetica,sans-Serif" font-size="10.00">GlgTitane_22Gui</text>
</a>
</g>
</g>
<!-- Node2&#45;&gt;Node9 -->
<g id="edge8" class="edge">
<title>Node2&#45;&gt;Node9</title>
<path fill="none" stroke="midnightblue" d="M192.41,-187.68C211.23,-182.46 232.84,-176.47 250.44,-171.59"/>
<polygon fill="midnightblue" stroke="midnightblue" points="191.27,-184.37 182.57,-190.41 193.14,-191.11 191.27,-184.37"/>
</g>
<!-- Node10 -->
<g id="node10" class="node">
<title>Node10</title>
<g id="a_node10"><a xlink:href="classGlgTitane__32Gui.html" target="_top" xlink:title=" ">
<polygon fill="white" stroke="black" points="237,-114.5 237,-133.5 335,-133.5 335,-114.5 237,-114.5"/>
<text text-anchor="middle" x="286" y="-121.5" font-family="Helvetica,sans-Serif" font-size="10.00">GlgTitane_32Gui</text>
</a>
</g>
</g>
<!-- Node2&#45;&gt;Node10 -->
<g id="edge9" class="edge">
<title>Node2&#45;&gt;Node10</title>
<path fill="none" stroke="midnightblue" d="M177.6,-185.41C179.82,-184.01 181.98,-182.53 184,-181 202.53,-166.94 200.15,-155.13 220,-143 226.32,-139.14 233.47,-136.03 240.65,-133.53"/>
<polygon fill="midnightblue" stroke="midnightblue" points="175.79,-182.42 168.89,-190.45 179.3,-188.47 175.79,-182.42"/>
</g>
<!-- Node11 -->
<g id="node11" class="node">
<title>Node11</title>
<g id="a_node11"><a xlink:href="classGlgTurboGui.html" target="_top" xlink:title=" ">
<polygon fill="white" stroke="black" points="248,-76.5 248,-95.5 324,-95.5 324,-76.5 248,-76.5"/>
<text text-anchor="middle" x="286" y="-83.5" font-family="Helvetica,sans-Serif" font-size="10.00">GlgTurboGui</text>
</a>
</g>
</g>
<!-- Node2&#45;&gt;Node11 -->
<g id="edge10" class="edge">
<title>Node2&#45;&gt;Node11</title>
<path fill="none" stroke="midnightblue" d="M180.09,-184.59C181.48,-183.46 182.79,-182.26 184,-181 209.85,-154.01 191.57,-129.26 220,-105 227.87,-98.28 238.01,-93.94 247.93,-91.13"/>
<polygon fill="midnightblue" stroke="midnightblue" points="177.91,-181.84 171.6,-190.36 181.84,-187.63 177.91,-181.84"/>
</g>
<!-- Node12 -->
<g id="node12" class="node">
<title>Node12</title>
<g id="a_node12"><a xlink:href="classGlgValveGui.html" target="_top" xlink:title=" ">
<polygon fill="white" stroke="black" points="247.5,-38.5 247.5,-57.5 324.5,-57.5 324.5,-38.5 247.5,-38.5"/>
<text text-anchor="middle" x="286" y="-45.5" font-family="Helvetica,sans-Serif" font-size="10.00">GlgValveGui</text>
</a>
</g>
</g>
<!-- Node2&#45;&gt;Node12 -->
<g id="edge11" class="edge">
<title>Node2&#45;&gt;Node12</title>
<path fill="none" stroke="midnightblue" d="M180.77,-184.37C181.93,-183.31 183.01,-182.19 184,-181 218.05,-140.21 182.03,-104.16 220,-67 227.39,-59.76 237.39,-55.26 247.31,-52.46"/>
<polygon fill="midnightblue" stroke="midnightblue" points="178.39,-181.78 172.38,-190.5 182.52,-187.43 178.39,-181.78"/>
</g>
<!-- Node13 -->
<g id="node13" class="node">
<title>Node13</title>
<g id="a_node13"><a xlink:href="classGlgXGSGaugeGui.html" target="_top" xlink:title=" ">
<polygon fill="white" stroke="black" points="235.5,-0.5 235.5,-19.5 336.5,-19.5 336.5,-0.5 235.5,-0.5"/>
<text text-anchor="middle" x="286" y="-7.5" font-family="Helvetica,sans-Serif" font-size="10.00">GlgXGSGaugeGui</text>
</a>
</g>
</g>
<!-- Node2&#45;&gt;Node13 -->
<g id="edge12" class="edge">
<title>Node2&#45;&gt;Node13</title>
<path fill="none" stroke="midnightblue" d="M180.98,-184.37C182.07,-183.31 183.08,-182.19 184,-181 226.5,-126.11 172.2,-79.35 220,-29 224.29,-24.48 229.59,-21.02 235.3,-18.37"/>
<polygon fill="midnightblue" stroke="midnightblue" points="178.81,-181.62 172.97,-190.46 183.05,-187.19 178.81,-181.62"/>
</g>
</g>
</svg>
