<?xml version="1.0" encoding="UTF-8" standalone="no"?>
<!DOCTYPE svg PUBLIC "-//W3C//DTD SVG 1.1//EN"
 "http://www.w3.org/Graphics/SVG/1.1/DTD/svg11.dtd">
<!-- Generated by graphviz version 2.50.0 (0)
 -->
<!-- Title: Graphical Class Hierarchy Pages: 1 -->
<svg width="309pt" height="420pt"
 viewBox="0.00 0.00 309.00 420.00" xmlns="http://www.w3.org/2000/svg" xmlns:xlink="http://www.w3.org/1999/xlink">
<g id="graph0" class="graph" transform="scale(1 1) rotate(0) translate(4 416)">
<title>Graphical Class Hierarchy</title>
<!-- Node31 -->
<g id="node1" class="node">
<title>Node31</title>
<g id="a_node1"><a xlink:title=" ">
<polygon fill="none" stroke="#bfbfbf" points="0,-190.5 0,-209.5 97,-209.5 97,-190.5 0,-190.5"/>
<text text-anchor="middle" x="48.5" y="-197.5" font-family="Helvetica,sans-Serif" font-size="10.00">GlgInputListener</text>
</a>
</g>
</g>
<!-- Node0 -->
<g id="node2" class="node">
<title>Node0</title>
<g id="a_node2"><a xlink:href="classGlgDryGui_1_1InputListener.html" target="_top" xlink:title=" ">
<polygon fill="none" stroke="black" points="150,-392.5 150,-411.5 284,-411.5 284,-392.5 150,-392.5"/>
<text text-anchor="middle" x="217" y="-399.5" font-family="Helvetica,sans-Serif" font-size="10.00">GlgDryGui.InputListener</text>
</a>
</g>
</g>
<!-- Node31&#45;&gt;Node0 -->
<g id="edge1" class="edge">
<title>Node31&#45;&gt;Node0</title>
<path fill="none" stroke="midnightblue" d="M52.69,-220.04C59.82,-258 80.75,-340.41 133,-383 138.04,-387.11 143.8,-390.37 149.89,-392.95"/>
<polygon fill="midnightblue" stroke="midnightblue" points="56.06,-219.03 50.9,-209.78 49.17,-220.23 56.06,-219.03"/>
</g>
<!-- Node33 -->
<g id="node3" class="node">
<title>Node33</title>
<g id="a_node3"><a xlink:href="classGlgGaugeGui_1_1InputListener.html" target="_top" xlink:title=" ">
<polygon fill="none" stroke="black" points="143,-354.5 143,-373.5 291,-373.5 291,-354.5 143,-354.5"/>
<text text-anchor="middle" x="217" y="-361.5" font-family="Helvetica,sans-Serif" font-size="10.00">GlgGaugeGui.InputListener</text>
</a>
</g>
</g>
<!-- Node31&#45;&gt;Node33 -->
<g id="edge2" class="edge">
<title>Node31&#45;&gt;Node33</title>
<path fill="none" stroke="midnightblue" d="M55.06,-219.36C65.15,-250.85 89.54,-312.87 133,-345 138.23,-348.87 144.11,-351.97 150.27,-354.45"/>
<polygon fill="midnightblue" stroke="midnightblue" points="58.35,-218.14 52.08,-209.59 51.65,-220.18 58.35,-218.14"/>
</g>
<!-- Node34 -->
<g id="node4" class="node">
<title>Node34</title>
<g id="a_node4"><a xlink:href="classGlgIonicGui_1_1InputListener.html" target="_top" xlink:title=" ">
<polygon fill="none" stroke="black" points="147,-316.5 147,-335.5 287,-335.5 287,-316.5 147,-316.5"/>
<text text-anchor="middle" x="217" y="-323.5" font-family="Helvetica,sans-Serif" font-size="10.00">GlgIonicGui.InputListener</text>
</a>
</g>
</g>
<!-- Node31&#45;&gt;Node34 -->
<g id="edge3" class="edge">
<title>Node31&#45;&gt;Node34</title>
<path fill="none" stroke="midnightblue" d="M58.86,-218.75C71.99,-243.04 98.23,-284.88 133,-307 139.11,-310.89 145.92,-313.98 152.95,-316.45"/>
<polygon fill="midnightblue" stroke="midnightblue" points="61.92,-217.05 54.19,-209.81 55.72,-220.29 61.92,-217.05"/>
</g>
<!-- Node35 -->
<g id="node5" class="node">
<title>Node35</title>
<g id="a_node5"><a xlink:href="classGlgLinkStatusDetailsGui_1_1InputListener.html" target="_top" xlink:title=" ">
<polygon fill="none" stroke="black" points="148,-267 148,-297 286,-297 286,-267 148,-267"/>
<text text-anchor="start" x="156" y="-285" font-family="Helvetica,sans-Serif" font-size="10.00">GlgLinkStatusDetailsGui.</text>
<text text-anchor="middle" x="217" y="-274" font-family="Helvetica,sans-Serif" font-size="10.00">InputListener</text>
</a>
</g>
</g>
<!-- Node31&#45;&gt;Node35 -->
<g id="edge4" class="edge">
<title>Node31&#45;&gt;Node35</title>
<path fill="none" stroke="midnightblue" d="M69.14,-215.98C85.43,-228.58 109.62,-245.83 133,-257 140.74,-260.7 149.15,-263.99 157.54,-266.87"/>
<polygon fill="midnightblue" stroke="midnightblue" points="70.98,-212.98 60.96,-209.53 66.65,-218.47 70.98,-212.98"/>
</g>
<!-- Node36 -->
<g id="node6" class="node">
<title>Node36</title>
<g id="a_node6"><a xlink:href="classGlgLinkTempGui_1_1InputListener.html" target="_top" xlink:title=" ">
<polygon fill="none" stroke="black" points="135.5,-228.5 135.5,-247.5 298.5,-247.5 298.5,-228.5 135.5,-228.5"/>
<text text-anchor="middle" x="217" y="-235.5" font-family="Helvetica,sans-Serif" font-size="10.00">GlgLinkTempGui.InputListener</text>
</a>
</g>
</g>
<!-- Node31&#45;&gt;Node36 -->
<g id="edge5" class="edge">
<title>Node31&#45;&gt;Node36</title>
<path fill="none" stroke="midnightblue" d="M101.31,-211.82C124.78,-217.18 152.17,-223.43 174.29,-228.48"/>
<polygon fill="midnightblue" stroke="midnightblue" points="102.04,-208.4 91.51,-209.59 100.49,-215.23 102.04,-208.4"/>
</g>
<!-- Node37 -->
<g id="node7" class="node">
<title>Node37</title>
<g id="a_node7"><a xlink:href="classGlgRGAGui_1_1InputListener.html" target="_top" xlink:title=" ">
<polygon fill="none" stroke="black" points="148.5,-190.5 148.5,-209.5 285.5,-209.5 285.5,-190.5 148.5,-190.5"/>
<text text-anchor="middle" x="217" y="-197.5" font-family="Helvetica,sans-Serif" font-size="10.00">GlgRGAGui.InputListener</text>
</a>
</g>
</g>
<!-- Node31&#45;&gt;Node37 -->
<g id="edge6" class="edge">
<title>Node31&#45;&gt;Node37</title>
<path fill="none" stroke="midnightblue" d="M107.56,-200C120.76,-200 134.88,-200 148.43,-200"/>
<polygon fill="midnightblue" stroke="midnightblue" points="107.21,-196.5 97.21,-200 107.21,-203.5 107.21,-196.5"/>
</g>
<!-- Node38 -->
<g id="node8" class="node">
<title>Node38</title>
<g id="a_node8"><a xlink:href="classGlgTitane__22Gui_1_1InputListener.html" target="_top" xlink:title=" ">
<polygon fill="none" stroke="black" points="135,-152.5 135,-171.5 299,-171.5 299,-152.5 135,-152.5"/>
<text text-anchor="middle" x="217" y="-159.5" font-family="Helvetica,sans-Serif" font-size="10.00">GlgTitane_22Gui.InputListener</text>
</a>
</g>
</g>
<!-- Node31&#45;&gt;Node38 -->
<g id="edge7" class="edge">
<title>Node31&#45;&gt;Node38</title>
<path fill="none" stroke="midnightblue" d="M101.31,-188.18C124.78,-182.82 152.17,-176.57 174.29,-171.52"/>
<polygon fill="midnightblue" stroke="midnightblue" points="100.49,-184.77 91.51,-190.41 102.04,-191.6 100.49,-184.77"/>
</g>
<!-- Node39 -->
<g id="node9" class="node">
<title>Node39</title>
<g id="a_node9"><a xlink:href="classGlgTitane__32Gui_1_1InputListener.html" target="_top" xlink:title=" ">
<polygon fill="none" stroke="black" points="135,-114.5 135,-133.5 299,-133.5 299,-114.5 135,-114.5"/>
<text text-anchor="middle" x="217" y="-121.5" font-family="Helvetica,sans-Serif" font-size="10.00">GlgTitane_32Gui.InputListener</text>
</a>
</g>
</g>
<!-- Node31&#45;&gt;Node39 -->
<g id="edge8" class="edge">
<title>Node31&#45;&gt;Node39</title>
<path fill="none" stroke="midnightblue" d="M68.67,-183.81C84.84,-170.95 109.12,-153.44 133,-143 141.8,-139.15 151.49,-136.03 161.04,-133.52"/>
<polygon fill="midnightblue" stroke="midnightblue" points="66.12,-181.38 60.57,-190.4 70.54,-186.8 66.12,-181.38"/>
</g>
<!-- Node40 -->
<g id="node10" class="node">
<title>Node40</title>
<g id="a_node10"><a xlink:href="classGlgTurboGui_1_1InputListener.html" target="_top" xlink:title=" ">
<polygon fill="none" stroke="black" points="145.5,-76.5 145.5,-95.5 288.5,-95.5 288.5,-76.5 145.5,-76.5"/>
<text text-anchor="middle" x="217" y="-83.5" font-family="Helvetica,sans-Serif" font-size="10.00">GlgTurboGui.InputListener</text>
</a>
</g>
</g>
<!-- Node31&#45;&gt;Node40 -->
<g id="edge9" class="edge">
<title>Node31&#45;&gt;Node40</title>
<path fill="none" stroke="midnightblue" d="M60.4,-181.79C74.41,-160.04 100.79,-124.19 133,-105 139.48,-101.14 146.67,-98.07 154.03,-95.61"/>
<polygon fill="midnightblue" stroke="midnightblue" points="57.34,-180.08 55.02,-190.42 63.28,-183.79 57.34,-180.08"/>
</g>
<!-- Node41 -->
<g id="node11" class="node">
<title>Node41</title>
<g id="a_node11"><a xlink:href="classGlgValveGui_1_1InputListener.html" target="_top" xlink:title=" ">
<polygon fill="none" stroke="black" points="145.5,-38.5 145.5,-57.5 288.5,-57.5 288.5,-38.5 145.5,-38.5"/>
<text text-anchor="middle" x="217" y="-45.5" font-family="Helvetica,sans-Serif" font-size="10.00">GlgValveGui.InputListener</text>
</a>
</g>
</g>
<!-- Node31&#45;&gt;Node41 -->
<g id="edge10" class="edge">
<title>Node31&#45;&gt;Node41</title>
<path fill="none" stroke="midnightblue" d="M55.99,-181C67,-151.73 92.22,-95.97 133,-67 138.42,-63.15 144.5,-60.06 150.84,-57.59"/>
<polygon fill="midnightblue" stroke="midnightblue" points="52.67,-179.89 52.57,-190.48 59.25,-182.26 52.67,-179.89"/>
</g>
<!-- Node42 -->
<g id="node12" class="node">
<title>Node42</title>
<g id="a_node12"><a xlink:href="classGlgXGSGaugeGui_1_1InputListener.html" target="_top" xlink:title=" ">
<polygon fill="none" stroke="black" points="133,-0.5 133,-19.5 301,-19.5 301,-0.5 133,-0.5"/>
<text text-anchor="middle" x="217" y="-7.5" font-family="Helvetica,sans-Serif" font-size="10.00">GlgXGSGaugeGui.InputListener</text>
</a>
</g>
</g>
<!-- Node31&#45;&gt;Node42 -->
<g id="edge11" class="edge">
<title>Node31&#45;&gt;Node42</title>
<path fill="none" stroke="midnightblue" d="M53.32,-180.28C61.35,-144.34 83.49,-68.29 133,-29 137.86,-25.14 143.37,-22.04 149.16,-19.54"/>
<polygon fill="midnightblue" stroke="midnightblue" points="49.81,-179.94 51.19,-190.44 56.67,-181.37 49.81,-179.94"/>
</g>
</g>
</svg>
