<?xml version="1.0" encoding="UTF-8" standalone="no"?>
<!DOCTYPE svg PUBLIC "-//W3C//DTD SVG 1.1//EN"
 "http://www.w3.org/Graphics/SVG/1.1/DTD/svg11.dtd">
<!-- Generated by graphviz version 2.50.0 (0)
 -->
<!-- Title: ChannelList Pages: 1 -->
<svg width="363pt" height="408pt"
 viewBox="0.00 0.00 363.00 408.00" xmlns="http://www.w3.org/2000/svg" xmlns:xlink="http://www.w3.org/1999/xlink">
<g id="graph0" class="graph" transform="scale(1 1) rotate(0) translate(4 404)">
<title>ChannelList</title>
<!-- Node1 -->
<g id="node1" class="node">
<title>Node1</title>
<g id="a_node1"><a xlink:title=" ">
<polygon fill="#bfbfbf" stroke="black" points="0,-171.5 0,-190.5 74,-190.5 74,-171.5 0,-171.5"/>
<text text-anchor="middle" x="37" y="-178.5" font-family="Helvetica,sans-Serif" font-size="10.00">ChannelList</text>
</a>
</g>
</g>
<!-- Node2 -->
<g id="node2" class="node">
<title>Node2</title>
<g id="a_node2"><a xlink:href="classGlgChildGui.html" target="_top" xlink:title=" ">
<polygon fill="none" stroke="black" points="110,-190.5 110,-209.5 184,-209.5 184,-190.5 110,-190.5"/>
<text text-anchor="middle" x="147" y="-197.5" font-family="Helvetica,sans-Serif" font-size="10.00">GlgChildGui</text>
</a>
</g>
</g>
<!-- Node1&#45;&gt;Node2 -->
<g id="edge1" class="edge">
<title>Node1&#45;&gt;Node2</title>
<path fill="none" stroke="midnightblue" d="M84.39,-189.16C92.84,-190.65 101.54,-192.18 109.65,-193.6"/>
<polygon fill="midnightblue" stroke="midnightblue" points="84.72,-185.67 74.26,-187.38 83.51,-192.56 84.72,-185.67"/>
</g>
<!-- Node14 -->
<g id="node14" class="node">
<title>Node14</title>
<g id="a_node14"><a xlink:href="classGlgGui.html" target="_top" xlink:title=" ">
<polygon fill="none" stroke="black" points="122,-152.5 122,-171.5 172,-171.5 172,-152.5 122,-152.5"/>
<text text-anchor="middle" x="147" y="-159.5" font-family="Helvetica,sans-Serif" font-size="10.00">GlgGui</text>
</a>
</g>
</g>
<!-- Node1&#45;&gt;Node14 -->
<g id="edge13" class="edge">
<title>Node1&#45;&gt;Node14</title>
<path fill="none" stroke="midnightblue" d="M84.43,-172.83C97.34,-170.56 110.84,-168.19 121.9,-166.24"/>
<polygon fill="midnightblue" stroke="midnightblue" points="83.51,-169.44 74.26,-174.62 84.72,-176.33 83.51,-169.44"/>
</g>
<!-- Node3 -->
<g id="node3" class="node">
<title>Node3</title>
<g id="a_node3"><a xlink:href="classGlgDryGui.html" target="_top" xlink:title=" ">
<polygon fill="none" stroke="black" points="254,-380.5 254,-399.5 321,-399.5 321,-380.5 254,-380.5"/>
<text text-anchor="middle" x="287.5" y="-387.5" font-family="Helvetica,sans-Serif" font-size="10.00">GlgDryGui</text>
</a>
</g>
</g>
<!-- Node2&#45;&gt;Node3 -->
<g id="edge2" class="edge">
<title>Node2&#45;&gt;Node3</title>
<path fill="none" stroke="midnightblue" d="M150.72,-219.92C156.65,-255.56 174.11,-330.32 220,-371 229.34,-379.28 242.07,-383.97 253.89,-386.62"/>
<polygon fill="midnightblue" stroke="midnightblue" points="154.15,-219.17 149.18,-209.81 147.23,-220.23 154.15,-219.17"/>
</g>
<!-- Node4 -->
<g id="node4" class="node">
<title>Node4</title>
<g id="a_node4"><a xlink:href="classGlgGaugeGui.html" target="_top" xlink:title=" ">
<polygon fill="none" stroke="black" points="247,-342.5 247,-361.5 328,-361.5 328,-342.5 247,-342.5"/>
<text text-anchor="middle" x="287.5" y="-349.5" font-family="Helvetica,sans-Serif" font-size="10.00">GlgGaugeGui</text>
</a>
</g>
</g>
<!-- Node2&#45;&gt;Node4 -->
<g id="edge3" class="edge">
<title>Node2&#45;&gt;Node4</title>
<path fill="none" stroke="midnightblue" d="M153.26,-219.52C162.12,-248.62 182.78,-303.12 220,-333 227.68,-339.16 237.26,-343.33 246.74,-346.14"/>
<polygon fill="midnightblue" stroke="midnightblue" points="156.57,-218.36 150.44,-209.72 149.84,-220.3 156.57,-218.36"/>
</g>
<!-- Node5 -->
<g id="node5" class="node">
<title>Node5</title>
<g id="a_node5"><a xlink:href="classGlgIonicGui.html" target="_top" xlink:title=" ">
<polygon fill="none" stroke="black" points="251,-304.5 251,-323.5 324,-323.5 324,-304.5 251,-304.5"/>
<text text-anchor="middle" x="287.5" y="-311.5" font-family="Helvetica,sans-Serif" font-size="10.00">GlgIonicGui</text>
</a>
</g>
</g>
<!-- Node2&#45;&gt;Node5 -->
<g id="edge4" class="edge">
<title>Node2&#45;&gt;Node5</title>
<path fill="none" stroke="midnightblue" d="M157.43,-218.87C169.18,-240.44 191.25,-275.32 220,-295 229.12,-301.24 240.27,-305.45 250.82,-308.28"/>
<polygon fill="midnightblue" stroke="midnightblue" points="160.39,-216.96 152.64,-209.73 154.19,-220.21 160.39,-216.96"/>
</g>
<!-- Node6 -->
<g id="node6" class="node">
<title>Node6</title>
<g id="a_node6"><a xlink:href="classGlgLinkStatusDetailsGui.html" target="_top" xlink:title=" ">
<polygon fill="none" stroke="black" points="220,-266.5 220,-285.5 355,-285.5 355,-266.5 220,-266.5"/>
<text text-anchor="middle" x="287.5" y="-273.5" font-family="Helvetica,sans-Serif" font-size="10.00">GlgLinkStatusDetailsGui</text>
</a>
</g>
</g>
<!-- Node2&#45;&gt;Node6 -->
<g id="edge5" class="edge">
<title>Node2&#45;&gt;Node6</title>
<path fill="none" stroke="midnightblue" d="M165.14,-216.79C178.94,-229.46 199.37,-246.42 220,-257 227.37,-260.78 235.6,-263.9 243.69,-266.45"/>
<polygon fill="midnightblue" stroke="midnightblue" points="167.51,-214.21 157.83,-209.9 162.71,-219.31 167.51,-214.21"/>
</g>
<!-- Node7 -->
<g id="node7" class="node">
<title>Node7</title>
<g id="a_node7"><a xlink:href="classGlgLinkTempGui.html" target="_top" xlink:title=" ">
<polygon fill="none" stroke="black" points="239.5,-228.5 239.5,-247.5 335.5,-247.5 335.5,-228.5 239.5,-228.5"/>
<text text-anchor="middle" x="287.5" y="-235.5" font-family="Helvetica,sans-Serif" font-size="10.00">GlgLinkTempGui</text>
</a>
</g>
</g>
<!-- Node2&#45;&gt;Node7 -->
<g id="edge6" class="edge">
<title>Node2&#45;&gt;Node7</title>
<path fill="none" stroke="midnightblue" d="M192.63,-212.25C211.72,-217.48 233.68,-223.51 251.56,-228.41"/>
<polygon fill="midnightblue" stroke="midnightblue" points="193.52,-208.86 182.95,-209.59 191.67,-215.61 193.52,-208.86"/>
</g>
<!-- Node8 -->
<g id="node8" class="node">
<title>Node8</title>
<g id="a_node8"><a xlink:href="classGlgRGAGui.html" target="_top" xlink:title=" ">
<polygon fill="none" stroke="black" points="252,-190.5 252,-209.5 323,-209.5 323,-190.5 252,-190.5"/>
<text text-anchor="middle" x="287.5" y="-197.5" font-family="Helvetica,sans-Serif" font-size="10.00">GlgRGAGui</text>
</a>
</g>
</g>
<!-- Node2&#45;&gt;Node8 -->
<g id="edge7" class="edge">
<title>Node2&#45;&gt;Node8</title>
<path fill="none" stroke="midnightblue" d="M194.14,-200C212.89,-200 234.19,-200 251.61,-200"/>
<polygon fill="midnightblue" stroke="midnightblue" points="194.03,-196.5 184.03,-200 194.03,-203.5 194.03,-196.5"/>
</g>
<!-- Node9 -->
<g id="node9" class="node">
<title>Node9</title>
<g id="a_node9"><a xlink:href="classGlgTitane__22Gui.html" target="_top" xlink:title=" ">
<polygon fill="none" stroke="black" points="238.5,-152.5 238.5,-171.5 336.5,-171.5 336.5,-152.5 238.5,-152.5"/>
<text text-anchor="middle" x="287.5" y="-159.5" font-family="Helvetica,sans-Serif" font-size="10.00">GlgTitane_22Gui</text>
</a>
</g>
</g>
<!-- Node2&#45;&gt;Node9 -->
<g id="edge8" class="edge">
<title>Node2&#45;&gt;Node9</title>
<path fill="none" stroke="midnightblue" d="M192.63,-187.75C211.72,-182.52 233.68,-176.49 251.56,-171.59"/>
<polygon fill="midnightblue" stroke="midnightblue" points="191.67,-184.39 182.95,-190.41 193.52,-191.14 191.67,-184.39"/>
</g>
<!-- Node10 -->
<g id="node10" class="node">
<title>Node10</title>
<g id="a_node10"><a xlink:href="classGlgTitane__32Gui.html" target="_top" xlink:title=" ">
<polygon fill="none" stroke="black" points="238.5,-114.5 238.5,-133.5 336.5,-133.5 336.5,-114.5 238.5,-114.5"/>
<text text-anchor="middle" x="287.5" y="-121.5" font-family="Helvetica,sans-Serif" font-size="10.00">GlgTitane_32Gui</text>
</a>
</g>
</g>
<!-- Node2&#45;&gt;Node10 -->
<g id="edge9" class="edge">
<title>Node2&#45;&gt;Node10</title>
<path fill="none" stroke="midnightblue" d="M177.6,-185.41C179.82,-184.01 181.98,-182.53 184,-181 202.53,-166.94 200.11,-155.07 220,-143 226.36,-139.14 233.55,-136.03 240.78,-133.54"/>
<polygon fill="midnightblue" stroke="midnightblue" points="175.79,-182.42 168.89,-190.45 179.3,-188.47 175.79,-182.42"/>
</g>
<!-- Node11 -->
<g id="node11" class="node">
<title>Node11</title>
<g id="a_node11"><a xlink:href="classGlgTurboGui.html" target="_top" xlink:title=" ">
<polygon fill="none" stroke="black" points="249.5,-76.5 249.5,-95.5 325.5,-95.5 325.5,-76.5 249.5,-76.5"/>
<text text-anchor="middle" x="287.5" y="-83.5" font-family="Helvetica,sans-Serif" font-size="10.00">GlgTurboGui</text>
</a>
</g>
</g>
<!-- Node2&#45;&gt;Node11 -->
<g id="edge10" class="edge">
<title>Node2&#45;&gt;Node11</title>
<path fill="none" stroke="midnightblue" d="M180.09,-184.59C181.48,-183.46 182.79,-182.26 184,-181 209.85,-154.01 191.49,-129.17 220,-105 228.24,-98.01 238.91,-93.59 249.27,-90.79"/>
<polygon fill="midnightblue" stroke="midnightblue" points="177.91,-181.84 171.6,-190.36 181.84,-187.63 177.91,-181.84"/>
</g>
<!-- Node12 -->
<g id="node12" class="node">
<title>Node12</title>
<g id="a_node12"><a xlink:href="classGlgValveGui.html" target="_top" xlink:title=" ">
<polygon fill="none" stroke="black" points="249,-38.5 249,-57.5 326,-57.5 326,-38.5 249,-38.5"/>
<text text-anchor="middle" x="287.5" y="-45.5" font-family="Helvetica,sans-Serif" font-size="10.00">GlgValveGui</text>
</a>
</g>
</g>
<!-- Node2&#45;&gt;Node12 -->
<g id="edge11" class="edge">
<title>Node2&#45;&gt;Node12</title>
<path fill="none" stroke="midnightblue" d="M180.77,-184.37C181.93,-183.31 183.01,-182.19 184,-181 218.05,-140.21 181.91,-104.05 220,-67 227.83,-59.38 238.5,-54.78 249,-52.01"/>
<polygon fill="midnightblue" stroke="midnightblue" points="178.39,-181.78 172.38,-190.5 182.52,-187.43 178.39,-181.78"/>
</g>
<!-- Node13 -->
<g id="node13" class="node">
<title>Node13</title>
<g id="a_node13"><a xlink:href="classGlgXGSGaugeGui.html" target="_top" xlink:title=" ">
<polygon fill="none" stroke="black" points="237,-0.5 237,-19.5 338,-19.5 338,-0.5 237,-0.5"/>
<text text-anchor="middle" x="287.5" y="-7.5" font-family="Helvetica,sans-Serif" font-size="10.00">GlgXGSGaugeGui</text>
</a>
</g>
</g>
<!-- Node2&#45;&gt;Node13 -->
<g id="edge12" class="edge">
<title>Node2&#45;&gt;Node13</title>
<path fill="none" stroke="midnightblue" d="M180.98,-184.37C182.07,-183.31 183.08,-182.19 184,-181 226.5,-126.11 172.05,-79.2 220,-29 224.73,-24.05 230.65,-20.36 236.99,-17.62"/>
<polygon fill="midnightblue" stroke="midnightblue" points="178.81,-181.62 172.97,-190.46 183.05,-187.19 178.81,-181.62"/>
</g>
</g>
</svg>
