<?xml version="1.0" encoding="UTF-8" standalone="no"?>
<!DOCTYPE svg PUBLIC "-//W3C//DTD SVG 1.1//EN"
 "http://www.w3.org/Graphics/SVG/1.1/DTD/svg11.dtd">
<!-- Generated by graphviz version 2.50.0 (0)
 -->
<!-- Title: DataTypes Pages: 1 -->
<svg width="450pt" height="256pt"
 viewBox="0.00 0.00 450.00 256.00" xmlns="http://www.w3.org/2000/svg" xmlns:xlink="http://www.w3.org/1999/xlink">
<g id="graph0" class="graph" transform="scale(1 1) rotate(0) translate(4 252)">
<title>DataTypes</title>
<!-- Node1 -->
<g id="node1" class="node">
<title>Node1</title>
<g id="a_node1"><a xlink:title=" ">
<polygon fill="#bfbfbf" stroke="black" points="0,-114.5 0,-133.5 68,-133.5 68,-114.5 0,-114.5"/>
<text text-anchor="middle" x="34" y="-121.5" font-family="Helvetica,sans-Serif" font-size="10.00">DataTypes</text>
</a>
</g>
</g>
<!-- Node2 -->
<g id="node2" class="node">
<title>Node2</title>
<g id="a_node2"><a xlink:href="classDataElement.html" target="_top" xlink:title=" ">
<polygon fill="none" stroke="black" points="122,-171.5 122,-190.5 202,-190.5 202,-171.5 122,-171.5"/>
<text text-anchor="middle" x="162" y="-178.5" font-family="Helvetica,sans-Serif" font-size="10.00">DataElement</text>
</a>
</g>
</g>
<!-- Node1&#45;&gt;Node2 -->
<g id="edge1" class="edge">
<title>Node1&#45;&gt;Node2</title>
<path fill="none" stroke="midnightblue" d="M59.26,-138.78C72.24,-146.32 88.68,-155.29 104,-162 111.93,-165.47 120.71,-168.69 128.96,-171.45"/>
<polygon fill="midnightblue" stroke="midnightblue" points="60.87,-135.66 50.48,-133.59 57.31,-141.69 60.87,-135.66"/>
</g>
<!-- Node3 -->
<g id="node3" class="node">
<title>Node3</title>
<g id="a_node3"><a xlink:href="classDataManager.html" target="_top" xlink:title=" ">
<polygon fill="none" stroke="black" points="120.5,-133.5 120.5,-152.5 203.5,-152.5 203.5,-133.5 120.5,-133.5"/>
<text text-anchor="middle" x="162" y="-140.5" font-family="Helvetica,sans-Serif" font-size="10.00">DataManager</text>
</a>
</g>
</g>
<!-- Node1&#45;&gt;Node3 -->
<g id="edge2" class="edge">
<title>Node1&#45;&gt;Node3</title>
<path fill="none" stroke="midnightblue" d="M78.25,-130.52C91.93,-132.58 106.99,-134.86 120.47,-136.89"/>
<polygon fill="midnightblue" stroke="midnightblue" points="78.52,-127.02 68.11,-128.99 77.47,-133.94 78.52,-127.02"/>
</g>
<!-- Node4 -->
<g id="node4" class="node">
<title>Node4</title>
<g id="a_node4"><a xlink:href="classDevice.html" target="_top" xlink:title=" ">
<polygon fill="none" stroke="black" points="256,-114.5 256,-133.5 306,-133.5 306,-114.5 256,-114.5"/>
<text text-anchor="middle" x="281" y="-121.5" font-family="Helvetica,sans-Serif" font-size="10.00">Device</text>
</a>
</g>
</g>
<!-- Node1&#45;&gt;Node4 -->
<g id="edge11" class="edge">
<title>Node1&#45;&gt;Node4</title>
<path fill="none" stroke="midnightblue" d="M78.24,-124C129.95,-124 214.7,-124 255.94,-124"/>
<polygon fill="midnightblue" stroke="midnightblue" points="78.04,-120.5 68.04,-124 78.04,-127.5 78.04,-120.5"/>
</g>
<!-- Node12 -->
<g id="node12" class="node">
<title>Node12</title>
<g id="a_node12"><a xlink:href="classModbusSlaveThread.html" target="_top" xlink:title=" ">
<polygon fill="none" stroke="black" points="104,-57.5 104,-76.5 220,-76.5 220,-57.5 104,-57.5"/>
<text text-anchor="middle" x="162" y="-64.5" font-family="Helvetica,sans-Serif" font-size="10.00">ModbusSlaveThread</text>
</a>
</g>
</g>
<!-- Node1&#45;&gt;Node12 -->
<g id="edge12" class="edge">
<title>Node1&#45;&gt;Node12</title>
<path fill="none" stroke="midnightblue" d="M63.84,-109.83C76.15,-103.88 90.72,-96.97 104,-91 114.97,-86.07 127.25,-80.86 137.6,-76.56"/>
<polygon fill="midnightblue" stroke="midnightblue" points="61.98,-106.84 54.51,-114.36 65.04,-113.14 61.98,-106.84"/>
</g>
<!-- Node3&#45;&gt;Node4 -->
<g id="edge3" class="edge">
<title>Node3&#45;&gt;Node4</title>
<path fill="none" stroke="midnightblue" d="M213.59,-134.78C228.27,-132.4 243.61,-129.91 255.85,-127.92"/>
<polygon fill="midnightblue" stroke="midnightblue" points="212.9,-131.35 203.59,-136.41 214.02,-138.26 212.9,-131.35"/>
</g>
<!-- Node5 -->
<g id="node5" class="node">
<title>Node5</title>
<g id="a_node5"><a xlink:href="classControllino__1.html" target="_top" xlink:title=" ">
<polygon fill="none" stroke="black" points="351.5,-228.5 351.5,-247.5 432.5,-247.5 432.5,-228.5 351.5,-228.5"/>
<text text-anchor="middle" x="392" y="-235.5" font-family="Helvetica,sans-Serif" font-size="10.00">Controllino_1</text>
</a>
</g>
</g>
<!-- Node4&#45;&gt;Node5 -->
<g id="edge4" class="edge">
<title>Node4&#45;&gt;Node5</title>
<path fill="none" stroke="midnightblue" d="M289.64,-143.06C299.04,-164.29 316.89,-198.33 342,-219 346.65,-222.83 352.16,-225.94 357.77,-228.46"/>
<polygon fill="midnightblue" stroke="midnightblue" points="292.83,-141.63 285.71,-133.79 286.39,-144.36 292.83,-141.63"/>
</g>
<!-- Node6 -->
<g id="node6" class="node">
<title>Node6</title>
<g id="a_node6"><a xlink:href="classControllino__2.html" target="_top" xlink:title=" ">
<polygon fill="none" stroke="black" points="351.5,-190.5 351.5,-209.5 432.5,-209.5 432.5,-190.5 351.5,-190.5"/>
<text text-anchor="middle" x="392" y="-197.5" font-family="Helvetica,sans-Serif" font-size="10.00">Controllino_2</text>
</a>
</g>
</g>
<!-- Node4&#45;&gt;Node6 -->
<g id="edge5" class="edge">
<title>Node4&#45;&gt;Node6</title>
<path fill="none" stroke="midnightblue" d="M296.67,-141.15C308.02,-153.57 324.68,-170.02 342,-181 347.78,-184.66 354.38,-187.81 360.82,-190.43"/>
<polygon fill="midnightblue" stroke="midnightblue" points="299.28,-138.83 290.02,-133.68 294.05,-143.48 299.28,-138.83"/>
</g>
<!-- Node7 -->
<g id="node7" class="node">
<title>Node7</title>
<g id="a_node7"><a xlink:href="classControllino__3.html" target="_top" xlink:title=" ">
<polygon fill="none" stroke="black" points="351.5,-152.5 351.5,-171.5 432.5,-171.5 432.5,-152.5 351.5,-152.5"/>
<text text-anchor="middle" x="392" y="-159.5" font-family="Helvetica,sans-Serif" font-size="10.00">Controllino_3</text>
</a>
</g>
</g>
<!-- Node4&#45;&gt;Node7 -->
<g id="edge6" class="edge">
<title>Node4&#45;&gt;Node7</title>
<path fill="none" stroke="midnightblue" d="M315.81,-135.79C331.11,-141.12 348.95,-147.34 363.42,-152.38"/>
<polygon fill="midnightblue" stroke="midnightblue" points="316.79,-132.42 306.19,-132.43 314.48,-139.03 316.79,-132.42"/>
</g>
<!-- Node8 -->
<g id="node8" class="node">
<title>Node8</title>
<g id="a_node8"><a xlink:href="classMaxiGauge.html" target="_top" xlink:title=" ">
<polygon fill="none" stroke="black" points="356,-114.5 356,-133.5 428,-133.5 428,-114.5 356,-114.5"/>
<text text-anchor="middle" x="392" y="-121.5" font-family="Helvetica,sans-Serif" font-size="10.00">MaxiGauge</text>
</a>
</g>
</g>
<!-- Node4&#45;&gt;Node8 -->
<g id="edge7" class="edge">
<title>Node4&#45;&gt;Node8</title>
<path fill="none" stroke="midnightblue" d="M316.28,-124C328.83,-124 343.06,-124 355.7,-124"/>
<polygon fill="midnightblue" stroke="midnightblue" points="316.19,-120.5 306.19,-124 316.19,-127.5 316.19,-120.5"/>
</g>
<!-- Node9 -->
<g id="node9" class="node">
<title>Node9</title>
<g id="a_node9"><a xlink:href="classSupervisorClient.html" target="_top" xlink:title=" ">
<polygon fill="none" stroke="black" points="343.5,-76.5 343.5,-95.5 440.5,-95.5 440.5,-76.5 343.5,-76.5"/>
<text text-anchor="middle" x="392" y="-83.5" font-family="Helvetica,sans-Serif" font-size="10.00">SupervisorClient</text>
</a>
</g>
</g>
<!-- Node4&#45;&gt;Node9 -->
<g id="edge8" class="edge">
<title>Node4&#45;&gt;Node9</title>
<path fill="none" stroke="midnightblue" d="M315.81,-112.21C331.11,-106.88 348.95,-100.66 363.42,-95.62"/>
<polygon fill="midnightblue" stroke="midnightblue" points="314.48,-108.97 306.19,-115.57 316.79,-115.58 314.48,-108.97"/>
</g>
<!-- Node10 -->
<g id="node10" class="node">
<title>Node10</title>
<g id="a_node10"><a xlink:href="classTCMuxShield.html" target="_top" xlink:title=" ">
<polygon fill="none" stroke="black" points="352,-38.5 352,-57.5 432,-57.5 432,-38.5 352,-38.5"/>
<text text-anchor="middle" x="392" y="-45.5" font-family="Helvetica,sans-Serif" font-size="10.00">TCMuxShield</text>
</a>
</g>
</g>
<!-- Node4&#45;&gt;Node10 -->
<g id="edge9" class="edge">
<title>Node4&#45;&gt;Node10</title>
<path fill="none" stroke="midnightblue" d="M296.67,-106.85C308.02,-94.43 324.68,-77.98 342,-67 347.78,-63.34 354.38,-60.19 360.82,-57.57"/>
<polygon fill="midnightblue" stroke="midnightblue" points="294.05,-104.52 290.02,-114.32 299.28,-109.17 294.05,-104.52"/>
</g>
<!-- Node11 -->
<g id="node11" class="node">
<title>Node11</title>
<g id="a_node11"><a xlink:href="classTurboPfeifferDCU.html" target="_top" xlink:title=" ">
<polygon fill="none" stroke="black" points="342,-0.5 342,-19.5 442,-19.5 442,-0.5 342,-0.5"/>
<text text-anchor="middle" x="392" y="-7.5" font-family="Helvetica,sans-Serif" font-size="10.00">TurboPfeifferDCU</text>
</a>
</g>
</g>
<!-- Node4&#45;&gt;Node11 -->
<g id="edge10" class="edge">
<title>Node4&#45;&gt;Node11</title>
<path fill="none" stroke="midnightblue" d="M289.64,-104.94C299.04,-83.71 316.89,-49.67 342,-29 346.65,-25.17 352.16,-22.06 357.77,-19.54"/>
<polygon fill="midnightblue" stroke="midnightblue" points="286.39,-103.64 285.71,-114.21 292.83,-106.37 286.39,-103.64"/>
</g>
</g>
</svg>
