<?xml version="1.0" encoding="UTF-8" standalone="no"?>
<!DOCTYPE svg PUBLIC "-//W3C//DTD SVG 1.1//EN"
 "http://www.w3.org/Graphics/SVG/1.1/DTD/svg11.dtd">
<!-- Generated by graphviz version 2.50.0 (0)
 -->
<!-- Title: DataManager Pages: 1 -->
<svg width="429pt" height="294pt"
 viewBox="0.00 0.00 429.00 294.00" xmlns="http://www.w3.org/2000/svg" xmlns:xlink="http://www.w3.org/1999/xlink">
<g id="graph0" class="graph" transform="scale(1 1) rotate(0) translate(4 290)">
<title>DataManager</title>
<!-- Node1 -->
<g id="node1" class="node">
<title>Node1</title>
<g id="a_node1"><a xlink:title=" ">
<polygon fill="#bfbfbf" stroke="black" points="104,-133.5 104,-152.5 187,-152.5 187,-133.5 104,-133.5"/>
<text text-anchor="middle" x="145.5" y="-140.5" font-family="Helvetica,sans-Serif" font-size="10.00">DataManager</text>
</a>
</g>
</g>
<!-- Node3 -->
<g id="node3" class="node">
<title>Node3</title>
<g id="a_node3"><a xlink:href="classDevice.html" target="_top" xlink:title=" ">
<polygon fill="none" stroke="black" points="223,-133.5 223,-152.5 273,-152.5 273,-133.5 223,-133.5"/>
<text text-anchor="middle" x="248" y="-140.5" font-family="Helvetica,sans-Serif" font-size="10.00">Device</text>
</a>
</g>
</g>
<!-- Node1&#45;&gt;Node3 -->
<g id="edge2" class="edge">
<title>Node1&#45;&gt;Node3</title>
<path fill="none" stroke="midnightblue" d="M197.12,-143C206.06,-143 214.98,-143 222.75,-143"/>
<polygon fill="midnightblue" stroke="midnightblue" points="197.09,-139.5 187.09,-143 197.09,-146.5 197.09,-139.5"/>
</g>
<!-- Node2 -->
<g id="node2" class="node">
<title>Node2</title>
<g id="a_node2"><a xlink:href="interfaceDataTypes.html" target="_top" xlink:title=" ">
<polygon fill="none" stroke="black" points="0,-133.5 0,-152.5 68,-152.5 68,-133.5 0,-133.5"/>
<text text-anchor="middle" x="34" y="-140.5" font-family="Helvetica,sans-Serif" font-size="10.00">DataTypes</text>
</a>
</g>
</g>
<!-- Node2&#45;&gt;Node1 -->
<g id="edge1" class="edge">
<title>Node2&#45;&gt;Node1</title>
<path fill="none" stroke="midnightblue" d="M78.17,-143C86.59,-143 95.39,-143 103.72,-143"/>
<polygon fill="midnightblue" stroke="midnightblue" points="78.15,-139.5 68.15,-143 78.15,-146.5 78.15,-139.5"/>
</g>
<!-- Node4 -->
<g id="node4" class="node">
<title>Node4</title>
<g id="a_node4"><a xlink:href="classControllino__1.html" target="_top" xlink:title=" ">
<polygon fill="none" stroke="black" points="324.5,-266.5 324.5,-285.5 405.5,-285.5 405.5,-266.5 324.5,-266.5"/>
<text text-anchor="middle" x="365" y="-273.5" font-family="Helvetica,sans-Serif" font-size="10.00">Controllino_1</text>
</a>
</g>
</g>
<!-- Node3&#45;&gt;Node4 -->
<g id="edge3" class="edge">
<title>Node3&#45;&gt;Node4</title>
<path fill="none" stroke="midnightblue" d="M254.41,-162.7C262.32,-187.98 279.44,-231.62 309,-257 313.52,-260.88 318.88,-263.99 324.45,-266.46"/>
<polygon fill="midnightblue" stroke="midnightblue" points="257.67,-161.4 251.49,-152.8 250.96,-163.38 257.67,-161.4"/>
</g>
<!-- Node5 -->
<g id="node5" class="node">
<title>Node5</title>
<g id="a_node5"><a xlink:href="classControllino__2.html" target="_top" xlink:title=" ">
<polygon fill="none" stroke="black" points="324.5,-228.5 324.5,-247.5 405.5,-247.5 405.5,-228.5 324.5,-228.5"/>
<text text-anchor="middle" x="365" y="-235.5" font-family="Helvetica,sans-Serif" font-size="10.00">Controllino_2</text>
</a>
</g>
</g>
<!-- Node3&#45;&gt;Node5 -->
<g id="edge4" class="edge">
<title>Node3&#45;&gt;Node5</title>
<path fill="none" stroke="midnightblue" d="M259.46,-161.67C269.94,-178.81 287.58,-203.78 309,-219 314.35,-222.8 320.53,-225.9 326.78,-228.4"/>
<polygon fill="midnightblue" stroke="midnightblue" points="262.23,-159.47 254.14,-152.62 256.19,-163.01 262.23,-159.47"/>
</g>
<!-- Node6 -->
<g id="node6" class="node">
<title>Node6</title>
<g id="a_node6"><a xlink:href="classControllino__3.html" target="_top" xlink:title=" ">
<polygon fill="none" stroke="black" points="324.5,-190.5 324.5,-209.5 405.5,-209.5 405.5,-190.5 324.5,-190.5"/>
<text text-anchor="middle" x="365" y="-197.5" font-family="Helvetica,sans-Serif" font-size="10.00">Controllino_3</text>
</a>
</g>
</g>
<!-- Node3&#45;&gt;Node6 -->
<g id="edge5" class="edge">
<title>Node3&#45;&gt;Node6</title>
<path fill="none" stroke="midnightblue" d="M270.87,-158.58C281.94,-166.01 295.81,-174.65 309,-181 316.37,-184.55 324.59,-187.75 332.37,-190.48"/>
<polygon fill="midnightblue" stroke="midnightblue" points="272.52,-155.47 262.3,-152.69 268.56,-161.24 272.52,-155.47"/>
</g>
<!-- Node7 -->
<g id="node7" class="node">
<title>Node7</title>
<g id="a_node7"><a xlink:href="classMaxiGauge.html" target="_top" xlink:title=" ">
<polygon fill="none" stroke="black" points="329,-152.5 329,-171.5 401,-171.5 401,-152.5 329,-152.5"/>
<text text-anchor="middle" x="365" y="-159.5" font-family="Helvetica,sans-Serif" font-size="10.00">MaxiGauge</text>
</a>
</g>
</g>
<!-- Node3&#45;&gt;Node7 -->
<g id="edge6" class="edge">
<title>Node3&#45;&gt;Node7</title>
<path fill="none" stroke="midnightblue" d="M283.07,-148.63C297.41,-151 314.09,-153.75 328.57,-156.15"/>
<polygon fill="midnightblue" stroke="midnightblue" points="283.54,-145.16 273.11,-146.98 282.4,-152.07 283.54,-145.16"/>
</g>
<!-- Node8 -->
<g id="node8" class="node">
<title>Node8</title>
<g id="a_node8"><a xlink:href="classRgaHidenHal201RC.html" target="_top" xlink:title=" ">
<polygon fill="none" stroke="black" points="309,-114.5 309,-133.5 421,-133.5 421,-114.5 309,-114.5"/>
<text text-anchor="middle" x="365" y="-121.5" font-family="Helvetica,sans-Serif" font-size="10.00">RgaHidenHal201RC</text>
</a>
</g>
</g>
<!-- Node3&#45;&gt;Node8 -->
<g id="edge7" class="edge">
<title>Node3&#45;&gt;Node8</title>
<path fill="none" stroke="midnightblue" d="M283.17,-137.35C291.2,-136.03 299.96,-134.58 308.66,-133.14"/>
<polygon fill="midnightblue" stroke="midnightblue" points="282.4,-133.93 273.11,-139.02 283.54,-140.84 282.4,-133.93"/>
</g>
<!-- Node9 -->
<g id="node9" class="node">
<title>Node9</title>
<g id="a_node9"><a xlink:href="classSupervisorClient.html" target="_top" xlink:title=" ">
<polygon fill="none" stroke="black" points="316.5,-76.5 316.5,-95.5 413.5,-95.5 413.5,-76.5 316.5,-76.5"/>
<text text-anchor="middle" x="365" y="-83.5" font-family="Helvetica,sans-Serif" font-size="10.00">SupervisorClient</text>
</a>
</g>
</g>
<!-- Node3&#45;&gt;Node9 -->
<g id="edge8" class="edge">
<title>Node3&#45;&gt;Node9</title>
<path fill="none" stroke="midnightblue" d="M270.87,-127.42C281.94,-119.99 295.81,-111.35 309,-105 316.37,-101.45 324.59,-98.25 332.37,-95.52"/>
<polygon fill="midnightblue" stroke="midnightblue" points="268.56,-124.76 262.3,-133.31 272.52,-130.53 268.56,-124.76"/>
</g>
<!-- Node10 -->
<g id="node10" class="node">
<title>Node10</title>
<g id="a_node10"><a xlink:href="classTCMuxShield.html" target="_top" xlink:title=" ">
<polygon fill="none" stroke="black" points="325,-38.5 325,-57.5 405,-57.5 405,-38.5 325,-38.5"/>
<text text-anchor="middle" x="365" y="-45.5" font-family="Helvetica,sans-Serif" font-size="10.00">TCMuxShield</text>
</a>
</g>
</g>
<!-- Node3&#45;&gt;Node10 -->
<g id="edge9" class="edge">
<title>Node3&#45;&gt;Node10</title>
<path fill="none" stroke="midnightblue" d="M259.46,-124.33C269.94,-107.19 287.58,-82.22 309,-67 314.35,-63.2 320.53,-60.1 326.78,-57.6"/>
<polygon fill="midnightblue" stroke="midnightblue" points="256.19,-122.99 254.14,-133.38 262.23,-126.53 256.19,-122.99"/>
</g>
<!-- Node11 -->
<g id="node11" class="node">
<title>Node11</title>
<g id="a_node11"><a xlink:href="classTurboPfeifferDCU.html" target="_top" xlink:title=" ">
<polygon fill="none" stroke="black" points="315,-0.5 315,-19.5 415,-19.5 415,-0.5 315,-0.5"/>
<text text-anchor="middle" x="365" y="-7.5" font-family="Helvetica,sans-Serif" font-size="10.00">TurboPfeifferDCU</text>
</a>
</g>
</g>
<!-- Node3&#45;&gt;Node11 -->
<g id="edge10" class="edge">
<title>Node3&#45;&gt;Node11</title>
<path fill="none" stroke="midnightblue" d="M254.41,-123.3C262.32,-98.02 279.44,-54.38 309,-29 313.52,-25.12 318.88,-22.01 324.45,-19.54"/>
<polygon fill="midnightblue" stroke="midnightblue" points="250.96,-122.62 251.49,-133.2 257.67,-124.6 250.96,-122.62"/>
</g>
</g>
</svg>
