<?xml version="1.0" encoding="UTF-8" standalone="no"?>
<!DOCTYPE svg PUBLIC "-//W3C//DTD SVG 1.1//EN"
 "http://www.w3.org/Graphics/SVG/1.1/DTD/svg11.dtd">
<!-- Generated by graphviz version 2.50.0 (0)
 -->
<!-- Title: GlgChildGui Pages: 1 -->
<svg width="363pt" height="408pt"
 viewBox="0.00 0.00 363.00 408.00" xmlns="http://www.w3.org/2000/svg" xmlns:xlink="http://www.w3.org/1999/xlink">
<g id="graph0" class="graph" transform="scale(1 1) rotate(0) translate(4 404)">
<title>GlgChildGui</title>
<!-- Node1 -->
<g id="node1" class="node">
<title>Node1</title>
<g id="a_node1"><a xlink:title=" ">
<polygon fill="#bfbfbf" stroke="black" points="110,-190.5 110,-209.5 184,-209.5 184,-190.5 110,-190.5"/>
<text text-anchor="middle" x="147" y="-197.5" font-family="Helvetica,sans-Serif" font-size="10.00">GlgChildGui</text>
</a>
</g>
</g>
<!-- Node5 -->
<g id="node5" class="node">
<title>Node5</title>
<g id="a_node5"><a xlink:href="classGlgDryGui.html" target="_top" xlink:title=" ">
<polygon fill="none" stroke="black" points="254,-380.5 254,-399.5 321,-399.5 321,-380.5 254,-380.5"/>
<text text-anchor="middle" x="287.5" y="-387.5" font-family="Helvetica,sans-Serif" font-size="10.00">GlgDryGui</text>
</a>
</g>
</g>
<!-- Node1&#45;&gt;Node5 -->
<g id="edge4" class="edge">
<title>Node1&#45;&gt;Node5</title>
<path fill="none" stroke="midnightblue" d="M150.72,-219.92C156.65,-255.56 174.11,-330.32 220,-371 229.34,-379.28 242.07,-383.97 253.89,-386.62"/>
<polygon fill="midnightblue" stroke="midnightblue" points="154.15,-219.17 149.18,-209.81 147.23,-220.23 154.15,-219.17"/>
</g>
<!-- Node6 -->
<g id="node6" class="node">
<title>Node6</title>
<g id="a_node6"><a xlink:href="classGlgGaugeGui.html" target="_top" xlink:title=" ">
<polygon fill="none" stroke="black" points="247,-342.5 247,-361.5 328,-361.5 328,-342.5 247,-342.5"/>
<text text-anchor="middle" x="287.5" y="-349.5" font-family="Helvetica,sans-Serif" font-size="10.00">GlgGaugeGui</text>
</a>
</g>
</g>
<!-- Node1&#45;&gt;Node6 -->
<g id="edge5" class="edge">
<title>Node1&#45;&gt;Node6</title>
<path fill="none" stroke="midnightblue" d="M153.26,-219.52C162.12,-248.62 182.78,-303.12 220,-333 227.68,-339.16 237.26,-343.33 246.74,-346.14"/>
<polygon fill="midnightblue" stroke="midnightblue" points="156.57,-218.36 150.44,-209.72 149.84,-220.3 156.57,-218.36"/>
</g>
<!-- Node7 -->
<g id="node7" class="node">
<title>Node7</title>
<g id="a_node7"><a xlink:href="classGlgIonicGui.html" target="_top" xlink:title=" ">
<polygon fill="none" stroke="black" points="251,-304.5 251,-323.5 324,-323.5 324,-304.5 251,-304.5"/>
<text text-anchor="middle" x="287.5" y="-311.5" font-family="Helvetica,sans-Serif" font-size="10.00">GlgIonicGui</text>
</a>
</g>
</g>
<!-- Node1&#45;&gt;Node7 -->
<g id="edge6" class="edge">
<title>Node1&#45;&gt;Node7</title>
<path fill="none" stroke="midnightblue" d="M157.43,-218.87C169.18,-240.44 191.25,-275.32 220,-295 229.12,-301.24 240.27,-305.45 250.82,-308.28"/>
<polygon fill="midnightblue" stroke="midnightblue" points="160.39,-216.96 152.64,-209.73 154.19,-220.21 160.39,-216.96"/>
</g>
<!-- Node8 -->
<g id="node8" class="node">
<title>Node8</title>
<g id="a_node8"><a xlink:href="classGlgLinkStatusDetailsGui.html" target="_top" xlink:title=" ">
<polygon fill="none" stroke="black" points="220,-266.5 220,-285.5 355,-285.5 355,-266.5 220,-266.5"/>
<text text-anchor="middle" x="287.5" y="-273.5" font-family="Helvetica,sans-Serif" font-size="10.00">GlgLinkStatusDetailsGui</text>
</a>
</g>
</g>
<!-- Node1&#45;&gt;Node8 -->
<g id="edge7" class="edge">
<title>Node1&#45;&gt;Node8</title>
<path fill="none" stroke="midnightblue" d="M165.14,-216.79C178.94,-229.46 199.37,-246.42 220,-257 227.37,-260.78 235.6,-263.9 243.69,-266.45"/>
<polygon fill="midnightblue" stroke="midnightblue" points="167.51,-214.21 157.83,-209.9 162.71,-219.31 167.51,-214.21"/>
</g>
<!-- Node9 -->
<g id="node9" class="node">
<title>Node9</title>
<g id="a_node9"><a xlink:href="classGlgLinkTempGui.html" target="_top" xlink:title=" ">
<polygon fill="none" stroke="black" points="239.5,-228.5 239.5,-247.5 335.5,-247.5 335.5,-228.5 239.5,-228.5"/>
<text text-anchor="middle" x="287.5" y="-235.5" font-family="Helvetica,sans-Serif" font-size="10.00">GlgLinkTempGui</text>
</a>
</g>
</g>
<!-- Node1&#45;&gt;Node9 -->
<g id="edge8" class="edge">
<title>Node1&#45;&gt;Node9</title>
<path fill="none" stroke="midnightblue" d="M192.63,-212.25C211.72,-217.48 233.68,-223.51 251.56,-228.41"/>
<polygon fill="midnightblue" stroke="midnightblue" points="193.52,-208.86 182.95,-209.59 191.67,-215.61 193.52,-208.86"/>
</g>
<!-- Node10 -->
<g id="node10" class="node">
<title>Node10</title>
<g id="a_node10"><a xlink:href="classGlgRGA3Gui.html" target="_top" xlink:title=" ">
<polygon fill="none" stroke="black" points="249,-190.5 249,-209.5 326,-209.5 326,-190.5 249,-190.5"/>
<text text-anchor="middle" x="287.5" y="-197.5" font-family="Helvetica,sans-Serif" font-size="10.00">GlgRGA3Gui</text>
</a>
</g>
</g>
<!-- Node1&#45;&gt;Node10 -->
<g id="edge9" class="edge">
<title>Node1&#45;&gt;Node10</title>
<path fill="none" stroke="midnightblue" d="M194.16,-200C211.88,-200 231.87,-200 248.72,-200"/>
<polygon fill="midnightblue" stroke="midnightblue" points="194.03,-196.5 184.03,-200 194.03,-203.5 194.03,-196.5"/>
</g>
<!-- Node11 -->
<g id="node11" class="node">
<title>Node11</title>
<g id="a_node11"><a xlink:href="classGlgTitane__22Gui.html" target="_top" xlink:title=" ">
<polygon fill="none" stroke="black" points="238.5,-152.5 238.5,-171.5 336.5,-171.5 336.5,-152.5 238.5,-152.5"/>
<text text-anchor="middle" x="287.5" y="-159.5" font-family="Helvetica,sans-Serif" font-size="10.00">GlgTitane_22Gui</text>
</a>
</g>
</g>
<!-- Node1&#45;&gt;Node11 -->
<g id="edge10" class="edge">
<title>Node1&#45;&gt;Node11</title>
<path fill="none" stroke="midnightblue" d="M192.63,-187.75C211.72,-182.52 233.68,-176.49 251.56,-171.59"/>
<polygon fill="midnightblue" stroke="midnightblue" points="191.67,-184.39 182.95,-190.41 193.52,-191.14 191.67,-184.39"/>
</g>
<!-- Node12 -->
<g id="node12" class="node">
<title>Node12</title>
<g id="a_node12"><a xlink:href="classGlgTitane__32Gui.html" target="_top" xlink:title=" ">
<polygon fill="none" stroke="black" points="238.5,-114.5 238.5,-133.5 336.5,-133.5 336.5,-114.5 238.5,-114.5"/>
<text text-anchor="middle" x="287.5" y="-121.5" font-family="Helvetica,sans-Serif" font-size="10.00">GlgTitane_32Gui</text>
</a>
</g>
</g>
<!-- Node1&#45;&gt;Node12 -->
<g id="edge11" class="edge">
<title>Node1&#45;&gt;Node12</title>
<path fill="none" stroke="midnightblue" d="M165.14,-183.21C178.94,-170.54 199.37,-153.58 220,-143 227.37,-139.22 235.6,-136.1 243.69,-133.55"/>
<polygon fill="midnightblue" stroke="midnightblue" points="162.71,-180.69 157.83,-190.1 167.51,-185.79 162.71,-180.69"/>
</g>
<!-- Node13 -->
<g id="node13" class="node">
<title>Node13</title>
<g id="a_node13"><a xlink:href="classGlgTurboGui.html" target="_top" xlink:title=" ">
<polygon fill="none" stroke="black" points="249.5,-76.5 249.5,-95.5 325.5,-95.5 325.5,-76.5 249.5,-76.5"/>
<text text-anchor="middle" x="287.5" y="-83.5" font-family="Helvetica,sans-Serif" font-size="10.00">GlgTurboGui</text>
</a>
</g>
</g>
<!-- Node1&#45;&gt;Node13 -->
<g id="edge12" class="edge">
<title>Node1&#45;&gt;Node13</title>
<path fill="none" stroke="midnightblue" d="M157.43,-181.13C169.18,-159.56 191.25,-124.68 220,-105 228.72,-99.03 239.3,-94.92 249.44,-92.1"/>
<polygon fill="midnightblue" stroke="midnightblue" points="154.19,-179.79 152.64,-190.27 160.39,-183.04 154.19,-179.79"/>
</g>
<!-- Node14 -->
<g id="node14" class="node">
<title>Node14</title>
<g id="a_node14"><a xlink:href="classGlgValveGui.html" target="_top" xlink:title=" ">
<polygon fill="none" stroke="black" points="249,-38.5 249,-57.5 326,-57.5 326,-38.5 249,-38.5"/>
<text text-anchor="middle" x="287.5" y="-45.5" font-family="Helvetica,sans-Serif" font-size="10.00">GlgValveGui</text>
</a>
</g>
</g>
<!-- Node1&#45;&gt;Node14 -->
<g id="edge13" class="edge">
<title>Node1&#45;&gt;Node14</title>
<path fill="none" stroke="midnightblue" d="M153.26,-180.48C162.12,-151.38 182.78,-96.88 220,-67 228.24,-60.39 238.67,-56.07 248.82,-53.26"/>
<polygon fill="midnightblue" stroke="midnightblue" points="149.84,-179.7 150.44,-190.28 156.57,-181.64 149.84,-179.7"/>
</g>
<!-- Node15 -->
<g id="node15" class="node">
<title>Node15</title>
<g id="a_node15"><a xlink:href="classGlgXGSGaugeGui.html" target="_top" xlink:title=" ">
<polygon fill="none" stroke="black" points="237,-0.5 237,-19.5 338,-19.5 338,-0.5 237,-0.5"/>
<text text-anchor="middle" x="287.5" y="-7.5" font-family="Helvetica,sans-Serif" font-size="10.00">GlgXGSGaugeGui</text>
</a>
</g>
</g>
<!-- Node1&#45;&gt;Node15 -->
<g id="edge14" class="edge">
<title>Node1&#45;&gt;Node15</title>
<path fill="none" stroke="midnightblue" d="M150.72,-180.08C156.65,-144.44 174.11,-69.68 220,-29 224.85,-24.7 230.62,-21.37 236.69,-18.79"/>
<polygon fill="midnightblue" stroke="midnightblue" points="147.23,-179.77 149.18,-190.19 154.15,-180.83 147.23,-179.77"/>
</g>
<!-- Node2 -->
<g id="node2" class="node">
<title>Node2</title>
<g id="a_node2"><a xlink:title=" ">
<polygon fill="none" stroke="#bfbfbf" points="12,-228.5 12,-247.5 62,-247.5 62,-228.5 12,-228.5"/>
<text text-anchor="middle" x="37" y="-235.5" font-family="Helvetica,sans-Serif" font-size="10.00">JFrame</text>
</a>
</g>
</g>
<!-- Node2&#45;&gt;Node1 -->
<g id="edge1" class="edge">
<title>Node2&#45;&gt;Node1</title>
<path fill="none" stroke="midnightblue" d="M71.77,-226.12C86.91,-220.79 104.53,-214.59 118.8,-209.57"/>
<polygon fill="midnightblue" stroke="midnightblue" points="70.51,-222.85 62.24,-229.47 72.83,-229.45 70.51,-222.85"/>
</g>
<!-- Node3 -->
<g id="node3" class="node">
<title>Node3</title>
<g id="a_node3"><a xlink:href="interfaceChannelList.html" target="_top" xlink:title=" ">
<polygon fill="none" stroke="black" points="0,-190.5 0,-209.5 74,-209.5 74,-190.5 0,-190.5"/>
<text text-anchor="middle" x="37" y="-197.5" font-family="Helvetica,sans-Serif" font-size="10.00">ChannelList</text>
</a>
</g>
</g>
<!-- Node3&#45;&gt;Node1 -->
<g id="edge2" class="edge">
<title>Node3&#45;&gt;Node1</title>
<path fill="none" stroke="midnightblue" d="M84.39,-200C92.84,-200 101.54,-200 109.65,-200"/>
<polygon fill="midnightblue" stroke="midnightblue" points="84.26,-196.5 74.26,-200 84.26,-203.5 84.26,-196.5"/>
</g>
<!-- Node4 -->
<g id="node4" class="node">
<title>Node4</title>
<g id="a_node4"><a xlink:title=" ">
<polygon fill="none" stroke="#bfbfbf" points="6,-152.5 6,-171.5 68,-171.5 68,-152.5 6,-152.5"/>
<text text-anchor="middle" x="37" y="-159.5" font-family="Helvetica,sans-Serif" font-size="10.00">Runnable</text>
</a>
</g>
</g>
<!-- Node4&#45;&gt;Node1 -->
<g id="edge3" class="edge">
<title>Node4&#45;&gt;Node1</title>
<path fill="none" stroke="midnightblue" d="M74.87,-174.97C89.26,-180.03 105.45,-185.73 118.76,-190.41"/>
<polygon fill="midnightblue" stroke="midnightblue" points="75.85,-171.61 65.25,-171.59 73.52,-178.21 75.85,-171.61"/>
</g>
</g>
</svg>
