<?xml version="1.0" encoding="UTF-8" standalone="no"?>
<!DOCTYPE svg PUBLIC "-//W3C//DTD SVG 1.1//EN"
 "http://www.w3.org/Graphics/SVG/1.1/DTD/svg11.dtd">
<!-- Generated by graphviz version 2.50.0 (0)
 -->
<!-- Title: Graphical Class Hierarchy Pages: 1 -->
<svg width="553pt" height="579pt"
 viewBox="0.00 0.00 553.00 579.00" xmlns="http://www.w3.org/2000/svg" xmlns:xlink="http://www.w3.org/1999/xlink">
<g id="graph0" class="graph" transform="scale(1 1) rotate(0) translate(4 575)">
<title>Graphical Class Hierarchy</title>
<polygon fill="white" stroke="transparent" points="-4,4 -4,-575 549,-575 549,4 -4,4"/>
<!-- Node0 -->
<g id="node1" class="node">
<title>Node0</title>
<g id="a_node1"><a xlink:href="interfaceChannelList.html" target="_top" xlink:title=" ">
<polygon fill="white" stroke="black" points="0,-361.5 0,-380.5 74,-380.5 74,-361.5 0,-361.5"/>
<text text-anchor="middle" x="37" y="-368.5" font-family="Helvetica,sans-Serif" font-size="10.00">ChannelList</text>
</a>
</g>
</g>
<!-- Node1 -->
<g id="node2" class="node">
<title>Node1</title>
<g id="a_node2"><a xlink:href="classGlgChildGui.html" target="_top" xlink:title=" ">
<polygon fill="white" stroke="black" points="131,-323.5 131,-342.5 205,-342.5 205,-323.5 131,-323.5"/>
<text text-anchor="middle" x="168" y="-330.5" font-family="Helvetica,sans-Serif" font-size="10.00">GlgChildGui</text>
</a>
</g>
</g>
<!-- Node0&#45;&gt;Node1 -->
<g id="edge1" class="edge">
<title>Node0&#45;&gt;Node1</title>
<path fill="none" stroke="midnightblue" d="M80.55,-358.46C98.1,-353.3 118.11,-347.4 134.46,-342.59"/>
<polygon fill="midnightblue" stroke="midnightblue" points="79.16,-355.23 70.55,-361.41 81.13,-361.94 79.16,-355.23"/>
</g>
<!-- Node13 -->
<g id="node14" class="node">
<title>Node13</title>
<g id="a_node14"><a xlink:href="classGlgGui.html" target="_top" xlink:title=" ">
<polygon fill="white" stroke="black" points="143,-361.5 143,-380.5 193,-380.5 193,-361.5 143,-361.5"/>
<text text-anchor="middle" x="168" y="-368.5" font-family="Helvetica,sans-Serif" font-size="10.00">GlgGui</text>
</a>
</g>
</g>
<!-- Node0&#45;&gt;Node13 -->
<g id="edge13" class="edge">
<title>Node0&#45;&gt;Node13</title>
<path fill="none" stroke="midnightblue" d="M84.35,-371C104.12,-371 126.37,-371 142.8,-371"/>
<polygon fill="midnightblue" stroke="midnightblue" points="84.28,-367.5 74.28,-371 84.28,-374.5 84.28,-367.5"/>
</g>
<!-- Node2 -->
<g id="node3" class="node">
<title>Node2</title>
<g id="a_node3"><a xlink:href="classGlgDryGui.html" target="_top" xlink:title=" ">
<polygon fill="white" stroke="black" points="296,-437.5 296,-456.5 363,-456.5 363,-437.5 296,-437.5"/>
<text text-anchor="middle" x="329.5" y="-444.5" font-family="Helvetica,sans-Serif" font-size="10.00">GlgDryGui</text>
</a>
</g>
</g>
<!-- Node1&#45;&gt;Node2 -->
<g id="edge2" class="edge">
<title>Node1&#45;&gt;Node2</title>
<path fill="none" stroke="midnightblue" d="M214.48,-344.26C218.64,-346.4 222.57,-348.96 226,-352 253.97,-376.79 233.49,-403.83 262,-428 271.43,-436 284.04,-440.64 295.74,-443.32"/>
<polygon fill="midnightblue" stroke="midnightblue" points="215.68,-340.96 205.11,-340.17 212.88,-347.38 215.68,-340.96"/>
</g>
<!-- Node3 -->
<g id="node4" class="node">
<title>Node3</title>
<g id="a_node4"><a xlink:href="classGlgGaugeGui.html" target="_top" xlink:title=" ">
<polygon fill="white" stroke="black" points="289,-399.5 289,-418.5 370,-418.5 370,-399.5 289,-399.5"/>
<text text-anchor="middle" x="329.5" y="-406.5" font-family="Helvetica,sans-Serif" font-size="10.00">GlgGaugeGui</text>
</a>
</g>
</g>
<!-- Node1&#45;&gt;Node3 -->
<g id="edge3" class="edge">
<title>Node1&#45;&gt;Node3</title>
<path fill="none" stroke="midnightblue" d="M214.6,-345.9C218.57,-347.7 222.44,-349.73 226,-352 245.62,-364.5 242.11,-377.93 262,-390 270.11,-394.92 279.55,-398.61 288.72,-401.37"/>
<polygon fill="midnightblue" stroke="midnightblue" points="215.77,-342.6 205.19,-342.08 213.14,-349.09 215.77,-342.6"/>
</g>
<!-- Node4 -->
<g id="node5" class="node">
<title>Node4</title>
<g id="a_node5"><a xlink:href="classGlgIonicGui.html" target="_top" xlink:title=" ">
<polygon fill="white" stroke="black" points="293,-361.5 293,-380.5 366,-380.5 366,-361.5 293,-361.5"/>
<text text-anchor="middle" x="329.5" y="-368.5" font-family="Helvetica,sans-Serif" font-size="10.00">GlgIonicGui</text>
</a>
</g>
</g>
<!-- Node1&#45;&gt;Node4 -->
<g id="edge4" class="edge">
<title>Node1&#45;&gt;Node4</title>
<path fill="none" stroke="midnightblue" d="M215.11,-343.99C239.92,-349.9 270.04,-357.07 293,-362.54"/>
<polygon fill="midnightblue" stroke="midnightblue" points="215.73,-340.54 205.19,-341.62 214.11,-347.35 215.73,-340.54"/>
</g>
<!-- Node5 -->
<g id="node6" class="node">
<title>Node5</title>
<g id="a_node6"><a xlink:href="classGlgLinkStatusDetailsGui.html" target="_top" xlink:title=" ">
<polygon fill="white" stroke="black" points="262,-323.5 262,-342.5 397,-342.5 397,-323.5 262,-323.5"/>
<text text-anchor="middle" x="329.5" y="-330.5" font-family="Helvetica,sans-Serif" font-size="10.00">GlgLinkStatusDetailsGui</text>
</a>
</g>
</g>
<!-- Node1&#45;&gt;Node5 -->
<g id="edge5" class="edge">
<title>Node1&#45;&gt;Node5</title>
<path fill="none" stroke="midnightblue" d="M215.38,-333C229.86,-333 246.12,-333 261.71,-333"/>
<polygon fill="midnightblue" stroke="midnightblue" points="215.19,-329.5 205.19,-333 215.19,-336.5 215.19,-329.5"/>
</g>
<!-- Node6 -->
<g id="node7" class="node">
<title>Node6</title>
<g id="a_node7"><a xlink:href="classGlgLinkTempGui.html" target="_top" xlink:title=" ">
<polygon fill="white" stroke="black" points="281.5,-285.5 281.5,-304.5 377.5,-304.5 377.5,-285.5 281.5,-285.5"/>
<text text-anchor="middle" x="329.5" y="-292.5" font-family="Helvetica,sans-Serif" font-size="10.00">GlgLinkTempGui</text>
</a>
</g>
</g>
<!-- Node1&#45;&gt;Node6 -->
<g id="edge6" class="edge">
<title>Node1&#45;&gt;Node6</title>
<path fill="none" stroke="midnightblue" d="M215.16,-322C238.38,-316.47 266.24,-309.83 288.53,-304.52"/>
<polygon fill="midnightblue" stroke="midnightblue" points="214.11,-318.65 205.19,-324.38 215.73,-325.46 214.11,-318.65"/>
</g>
<!-- Node7 -->
<g id="node8" class="node">
<title>Node7</title>
<g id="a_node8"><a xlink:href="classGlgRGA3Gui.html" target="_top" xlink:title=" ">
<polygon fill="white" stroke="black" points="291,-247.5 291,-266.5 368,-266.5 368,-247.5 291,-247.5"/>
<text text-anchor="middle" x="329.5" y="-254.5" font-family="Helvetica,sans-Serif" font-size="10.00">GlgRGA3Gui</text>
</a>
</g>
</g>
<!-- Node1&#45;&gt;Node7 -->
<g id="edge7" class="edge">
<title>Node1&#45;&gt;Node7</title>
<path fill="none" stroke="midnightblue" d="M206.57,-319.36C213.25,-316.33 219.99,-312.86 226,-309 244.27,-297.28 243.06,-286.6 262,-276 270.8,-271.08 280.99,-267.34 290.7,-264.54"/>
<polygon fill="midnightblue" stroke="midnightblue" points="204.75,-316.33 196.92,-323.47 207.5,-322.77 204.75,-316.33"/>
</g>
<!-- Node8 -->
<g id="node9" class="node">
<title>Node8</title>
<g id="a_node9"><a xlink:href="classGlgTitane__22Gui.html" target="_top" xlink:title=" ">
<polygon fill="white" stroke="black" points="280.5,-209.5 280.5,-228.5 378.5,-228.5 378.5,-209.5 280.5,-209.5"/>
<text text-anchor="middle" x="329.5" y="-216.5" font-family="Helvetica,sans-Serif" font-size="10.00">GlgTitane_22Gui</text>
</a>
</g>
</g>
<!-- Node1&#45;&gt;Node8 -->
<g id="edge8" class="edge">
<title>Node1&#45;&gt;Node8</title>
<path fill="none" stroke="midnightblue" d="M211.97,-318.9C217.05,-316.12 221.88,-312.84 226,-309 251.89,-284.88 234.71,-260.52 262,-238 267.37,-233.57 273.72,-230.17 280.33,-227.56"/>
<polygon fill="midnightblue" stroke="midnightblue" points="210.17,-315.88 202.68,-323.38 213.21,-322.19 210.17,-315.88"/>
</g>
<!-- Node9 -->
<g id="node10" class="node">
<title>Node9</title>
<g id="a_node10"><a xlink:href="classGlgTitane__32Gui.html" target="_top" xlink:title=" ">
<polygon fill="white" stroke="black" points="280.5,-171.5 280.5,-190.5 378.5,-190.5 378.5,-171.5 280.5,-171.5"/>
<text text-anchor="middle" x="329.5" y="-178.5" font-family="Helvetica,sans-Serif" font-size="10.00">GlgTitane_32Gui</text>
</a>
</g>
</g>
<!-- Node1&#45;&gt;Node9 -->
<g id="edge9" class="edge">
<title>Node1&#45;&gt;Node9</title>
<path fill="none" stroke="midnightblue" d="M213.78,-318.74C218.29,-316.02 222.49,-312.8 226,-309 260.61,-271.52 225.2,-235.33 262,-200 267.2,-195.01 273.61,-191.32 280.39,-188.58"/>
<polygon fill="midnightblue" stroke="midnightblue" points="212.08,-315.67 204.81,-323.38 215.3,-321.89 212.08,-315.67"/>
</g>
<!-- Node10 -->
<g id="node11" class="node">
<title>Node10</title>
<g id="a_node11"><a xlink:href="classGlgTurboGui.html" target="_top" xlink:title=" ">
<polygon fill="white" stroke="black" points="291.5,-551.5 291.5,-570.5 367.5,-570.5 367.5,-551.5 291.5,-551.5"/>
<text text-anchor="middle" x="329.5" y="-558.5" font-family="Helvetica,sans-Serif" font-size="10.00">GlgTurboGui</text>
</a>
</g>
</g>
<!-- Node1&#45;&gt;Node10 -->
<g id="edge10" class="edge">
<title>Node1&#45;&gt;Node10</title>
<path fill="none" stroke="midnightblue" d="M214.52,-342.95C218.83,-345.34 222.78,-348.32 226,-352 282.55,-416.72 204.05,-478.52 262,-542 269.61,-550.34 280.6,-555.11 291.46,-557.82"/>
<polygon fill="midnightblue" stroke="midnightblue" points="215.84,-339.71 205.29,-338.79 212.97,-346.09 215.84,-339.71"/>
</g>
<!-- Node11 -->
<g id="node12" class="node">
<title>Node11</title>
<g id="a_node12"><a xlink:href="classGlgValveGui.html" target="_top" xlink:title=" ">
<polygon fill="white" stroke="black" points="291,-513.5 291,-532.5 368,-532.5 368,-513.5 291,-513.5"/>
<text text-anchor="middle" x="329.5" y="-520.5" font-family="Helvetica,sans-Serif" font-size="10.00">GlgValveGui</text>
</a>
</g>
</g>
<!-- Node1&#45;&gt;Node11 -->
<g id="edge11" class="edge">
<title>Node1&#45;&gt;Node11</title>
<path fill="none" stroke="midnightblue" d="M214.35,-343.09C218.69,-345.46 222.7,-348.39 226,-352 272.85,-403.23 214.05,-453.8 262,-504 269.63,-511.99 280.36,-516.69 290.99,-519.43"/>
<polygon fill="midnightblue" stroke="midnightblue" points="215.65,-339.84 205.09,-338.97 212.8,-346.23 215.65,-339.84"/>
</g>
<!-- Node12 -->
<g id="node13" class="node">
<title>Node12</title>
<g id="a_node13"><a xlink:href="classGlgXGSGaugeGui.html" target="_top" xlink:title=" ">
<polygon fill="white" stroke="black" points="279,-475.5 279,-494.5 380,-494.5 380,-475.5 279,-475.5"/>
<text text-anchor="middle" x="329.5" y="-482.5" font-family="Helvetica,sans-Serif" font-size="10.00">GlgXGSGaugeGui</text>
</a>
</g>
</g>
<!-- Node1&#45;&gt;Node12 -->
<g id="edge12" class="edge">
<title>Node1&#45;&gt;Node12</title>
<path fill="none" stroke="midnightblue" d="M214.26,-343.43C218.58,-345.74 222.61,-348.56 226,-352 263.27,-389.87 223.91,-428.95 262,-466 266.82,-470.69 272.71,-474.24 278.98,-476.91"/>
<polygon fill="midnightblue" stroke="midnightblue" points="215.63,-340.21 205.07,-339.37 212.81,-346.61 215.63,-340.21"/>
</g>
<!-- Node18 -->
<g id="node15" class="node">
<title>Node18</title>
<g id="a_node15"><a xlink:href="interfaceDataTypes.html" target="_top" xlink:title=" ">
<polygon fill="white" stroke="black" points="3,-190.5 3,-209.5 71,-209.5 71,-190.5 3,-190.5"/>
<text text-anchor="middle" x="37" y="-197.5" font-family="Helvetica,sans-Serif" font-size="10.00">DataTypes</text>
</a>
</g>
</g>
<!-- Node19 -->
<g id="node16" class="node">
<title>Node19</title>
<g id="a_node16"><a xlink:href="classDataElement.html" target="_top" xlink:title=" ">
<polygon fill="white" stroke="black" points="128,-171.5 128,-190.5 208,-190.5 208,-171.5 128,-171.5"/>
<text text-anchor="middle" x="168" y="-178.5" font-family="Helvetica,sans-Serif" font-size="10.00">DataElement</text>
</a>
</g>
</g>
<!-- Node18&#45;&gt;Node19 -->
<g id="edge14" class="edge">
<title>Node18&#45;&gt;Node19</title>
<path fill="none" stroke="midnightblue" d="M81.33,-193.62C96.41,-191.4 113.22,-188.92 127.93,-186.75"/>
<polygon fill="midnightblue" stroke="midnightblue" points="80.6,-190.19 71.22,-195.11 81.62,-197.11 80.6,-190.19"/>
</g>
<!-- Node20 -->
<g id="node17" class="node">
<title>Node20</title>
<g id="a_node17"><a xlink:href="classDataManager.html" target="_top" xlink:title=" ">
<polygon fill="white" stroke="black" points="126.5,-133.5 126.5,-152.5 209.5,-152.5 209.5,-133.5 126.5,-133.5"/>
<text text-anchor="middle" x="168" y="-140.5" font-family="Helvetica,sans-Serif" font-size="10.00">DataManager</text>
</a>
</g>
</g>
<!-- Node18&#45;&gt;Node20 -->
<g id="edge15" class="edge">
<title>Node18&#45;&gt;Node20</title>
<path fill="none" stroke="midnightblue" d="M63,-185.51C76.63,-177.94 93.95,-168.86 110,-162 118.06,-158.56 126.96,-155.33 135.3,-152.54"/>
<polygon fill="midnightblue" stroke="midnightblue" points="61.21,-182.5 54.21,-190.46 64.64,-188.6 61.21,-182.5"/>
</g>
<!-- Node21 -->
<g id="node18" class="node">
<title>Node21</title>
<g id="a_node18"><a xlink:href="classDevice.html" target="_top" xlink:title=" ">
<polygon fill="white" stroke="black" points="304.5,-133.5 304.5,-152.5 354.5,-152.5 354.5,-133.5 304.5,-133.5"/>
<text text-anchor="middle" x="329.5" y="-140.5" font-family="Helvetica,sans-Serif" font-size="10.00">Device</text>
</a>
</g>
</g>
<!-- Node18&#45;&gt;Node21 -->
<g id="edge25" class="edge">
<title>Node18&#45;&gt;Node21</title>
<path fill="none" stroke="midnightblue" d="M81.24,-209.37C120.66,-215.79 179.62,-219.95 226,-200 247.37,-190.81 242.11,-174.07 262,-162 274.93,-154.15 291.25,-149.43 304.48,-146.65"/>
<polygon fill="midnightblue" stroke="midnightblue" points="81.62,-205.89 71.17,-207.62 80.42,-212.78 81.62,-205.89"/>
</g>
<!-- Node30 -->
<g id="node27" class="node">
<title>Node30</title>
<g id="a_node27"><a xlink:href="classModbusSlaveThread.html" target="_top" xlink:title=" ">
<polygon fill="white" stroke="black" points="110,-247.5 110,-266.5 226,-266.5 226,-247.5 110,-247.5"/>
<text text-anchor="middle" x="168" y="-254.5" font-family="Helvetica,sans-Serif" font-size="10.00">ModbusSlaveThread</text>
</a>
</g>
</g>
<!-- Node18&#45;&gt;Node30 -->
<g id="edge26" class="edge">
<title>Node18&#45;&gt;Node30</title>
<path fill="none" stroke="midnightblue" d="M67.76,-213.89C80.7,-219.87 96.06,-226.87 110,-233 121.11,-237.88 133.51,-243.13 143.91,-247.47"/>
<polygon fill="midnightblue" stroke="midnightblue" points="68.95,-210.59 58.41,-209.56 66.01,-216.94 68.95,-210.59"/>
</g>
<!-- Node20&#45;&gt;Node21 -->
<g id="edge16" class="edge">
<title>Node20&#45;&gt;Node21</title>
<path fill="none" stroke="midnightblue" d="M219.79,-143C248.06,-143 281.95,-143 304.29,-143"/>
<polygon fill="midnightblue" stroke="midnightblue" points="219.66,-139.5 209.66,-143 219.66,-146.5 219.66,-139.5"/>
</g>
<!-- Node22 -->
<g id="node19" class="node">
<title>Node22</title>
<g id="a_node19"><a xlink:href="classControllino__1.html" target="_top" xlink:title=" ">
<polygon fill="white" stroke="black" points="448.5,-266.5 448.5,-285.5 529.5,-285.5 529.5,-266.5 448.5,-266.5"/>
<text text-anchor="middle" x="489" y="-273.5" font-family="Helvetica,sans-Serif" font-size="10.00">Controllino_1</text>
</a>
</g>
</g>
<!-- Node21&#45;&gt;Node22 -->
<g id="edge17" class="edge">
<title>Node21&#45;&gt;Node22</title>
<path fill="none" stroke="midnightblue" d="M364.45,-146.47C375.95,-149.15 388.11,-153.83 397,-162 430.24,-192.56 400.6,-225.55 433,-257 437.35,-261.22 442.68,-264.51 448.3,-267.07"/>
<polygon fill="midnightblue" stroke="midnightblue" points="365.1,-143.03 354.62,-144.6 363.79,-149.91 365.1,-143.03"/>
</g>
<!-- Node23 -->
<g id="node20" class="node">
<title>Node23</title>
<g id="a_node20"><a xlink:href="classControllino__2.html" target="_top" xlink:title=" ">
<polygon fill="white" stroke="black" points="448.5,-228.5 448.5,-247.5 529.5,-247.5 529.5,-228.5 448.5,-228.5"/>
<text text-anchor="middle" x="489" y="-235.5" font-family="Helvetica,sans-Serif" font-size="10.00">Controllino_2</text>
</a>
</g>
</g>
<!-- Node21&#45;&gt;Node23 -->
<g id="edge18" class="edge">
<title>Node21&#45;&gt;Node23</title>
<path fill="none" stroke="midnightblue" d="M364.46,-147.72C375.63,-150.51 387.58,-154.95 397,-162 420.98,-179.96 409.52,-200.39 433,-219 437.83,-222.83 443.48,-225.91 449.29,-228.38"/>
<polygon fill="midnightblue" stroke="midnightblue" points="365.04,-144.26 354.52,-145.59 363.57,-151.11 365.04,-144.26"/>
</g>
<!-- Node24 -->
<g id="node21" class="node">
<title>Node24</title>
<g id="a_node21"><a xlink:href="classControllino__3.html" target="_top" xlink:title=" ">
<polygon fill="white" stroke="black" points="448.5,-190.5 448.5,-209.5 529.5,-209.5 529.5,-190.5 448.5,-190.5"/>
<text text-anchor="middle" x="489" y="-197.5" font-family="Helvetica,sans-Serif" font-size="10.00">Controllino_3</text>
</a>
</g>
</g>
<!-- Node21&#45;&gt;Node24 -->
<g id="edge19" class="edge">
<title>Node21&#45;&gt;Node24</title>
<path fill="none" stroke="midnightblue" d="M364.37,-151.22C374.98,-154.18 386.61,-157.83 397,-162 413.79,-168.74 416.4,-173.8 433,-181 440.88,-184.42 449.59,-187.66 457.71,-190.47"/>
<polygon fill="midnightblue" stroke="midnightblue" points="365.17,-147.81 354.6,-148.6 363.35,-154.57 365.17,-147.81"/>
</g>
<!-- Node25 -->
<g id="node22" class="node">
<title>Node25</title>
<g id="a_node22"><a xlink:href="classMaxiGauge.html" target="_top" xlink:title=" ">
<polygon fill="white" stroke="black" points="453,-152.5 453,-171.5 525,-171.5 525,-152.5 453,-152.5"/>
<text text-anchor="middle" x="489" y="-159.5" font-family="Helvetica,sans-Serif" font-size="10.00">MaxiGauge</text>
</a>
</g>
</g>
<!-- Node21&#45;&gt;Node25 -->
<g id="edge20" class="edge">
<title>Node21&#45;&gt;Node25</title>
<path fill="none" stroke="midnightblue" d="M364.94,-147.15C391,-150.3 426.66,-154.6 452.89,-157.76"/>
<polygon fill="midnightblue" stroke="midnightblue" points="365.11,-143.65 354.76,-145.93 364.27,-150.6 365.11,-143.65"/>
</g>
<!-- Node26 -->
<g id="node23" class="node">
<title>Node26</title>
<g id="a_node23"><a xlink:href="classRgaHidenHal201RC.html" target="_top" xlink:title=" ">
<polygon fill="white" stroke="black" points="433,-114.5 433,-133.5 545,-133.5 545,-114.5 433,-114.5"/>
<text text-anchor="middle" x="489" y="-121.5" font-family="Helvetica,sans-Serif" font-size="10.00">RgaHidenHal201RC</text>
</a>
</g>
</g>
<!-- Node21&#45;&gt;Node26 -->
<g id="edge21" class="edge">
<title>Node21&#45;&gt;Node26</title>
<path fill="none" stroke="midnightblue" d="M364.87,-138.85C384.7,-136.46 410.1,-133.4 432.68,-130.67"/>
<polygon fill="midnightblue" stroke="midnightblue" points="364.27,-135.4 354.76,-140.07 365.11,-142.35 364.27,-135.4"/>
</g>
<!-- Node27 -->
<g id="node24" class="node">
<title>Node27</title>
<g id="a_node24"><a xlink:href="classSupervisorClient.html" target="_top" xlink:title=" ">
<polygon fill="white" stroke="black" points="440.5,-76.5 440.5,-95.5 537.5,-95.5 537.5,-76.5 440.5,-76.5"/>
<text text-anchor="middle" x="489" y="-83.5" font-family="Helvetica,sans-Serif" font-size="10.00">SupervisorClient</text>
</a>
</g>
</g>
<!-- Node21&#45;&gt;Node27 -->
<g id="edge22" class="edge">
<title>Node21&#45;&gt;Node27</title>
<path fill="none" stroke="midnightblue" d="M364.45,-130.2C384.38,-122.74 410.07,-113.21 433,-105 441.75,-101.87 451.31,-98.53 459.98,-95.54"/>
<polygon fill="midnightblue" stroke="midnightblue" points="363.02,-127 354.88,-133.79 365.47,-133.55 363.02,-127"/>
</g>
<!-- Node28 -->
<g id="node25" class="node">
<title>Node28</title>
<g id="a_node25"><a xlink:href="classTCMuxShield.html" target="_top" xlink:title=" ">
<polygon fill="white" stroke="black" points="449,-38.5 449,-57.5 529,-57.5 529,-38.5 449,-38.5"/>
<text text-anchor="middle" x="489" y="-45.5" font-family="Helvetica,sans-Serif" font-size="10.00">TCMuxShield</text>
</a>
</g>
</g>
<!-- Node21&#45;&gt;Node28 -->
<g id="edge23" class="edge">
<title>Node21&#45;&gt;Node28</title>
<path fill="none" stroke="midnightblue" d="M348.7,-126.79C368.34,-109.97 401.11,-83.82 433,-67 439.88,-63.37 447.6,-60.21 455.03,-57.55"/>
<polygon fill="midnightblue" stroke="midnightblue" points="346.38,-124.17 341.12,-133.37 350.97,-129.45 346.38,-124.17"/>
</g>
<!-- Node29 -->
<g id="node26" class="node">
<title>Node29</title>
<g id="a_node26"><a xlink:href="classTurboPfeifferDCU.html" target="_top" xlink:title=" ">
<polygon fill="white" stroke="black" points="439,-0.5 439,-19.5 539,-19.5 539,-0.5 439,-0.5"/>
<text text-anchor="middle" x="489" y="-7.5" font-family="Helvetica,sans-Serif" font-size="10.00">TurboPfeifferDCU</text>
</a>
</g>
</g>
<!-- Node21&#45;&gt;Node29 -->
<g id="edge24" class="edge">
<title>Node21&#45;&gt;Node29</title>
<path fill="none" stroke="midnightblue" d="M342.44,-124.72C359.64,-99.74 393.66,-55.09 433,-29 438.73,-25.2 445.29,-22.08 451.84,-19.55"/>
<polygon fill="midnightblue" stroke="midnightblue" points="339.38,-122.99 336.7,-133.24 345.19,-126.9 339.38,-122.99"/>
</g>
<!-- Node48 -->
<g id="node28" class="node">
<title>Node48</title>
<g id="a_node28"><a xlink:title=" ">
<polygon fill="white" stroke="#bfbfbf" points="6,-285.5 6,-304.5 68,-304.5 68,-285.5 6,-285.5"/>
<text text-anchor="middle" x="37" y="-292.5" font-family="Helvetica,sans-Serif" font-size="10.00">Runnable</text>
</a>
</g>
</g>
<!-- Node48&#45;&gt;Node1 -->
<g id="edge28" class="edge">
<title>Node48&#45;&gt;Node1</title>
<path fill="none" stroke="midnightblue" d="M78.01,-306.78C96.23,-312.15 117.51,-318.42 134.69,-323.48"/>
<polygon fill="midnightblue" stroke="midnightblue" points="78.83,-303.38 68.24,-303.91 76.85,-310.09 78.83,-303.38"/>
</g>
<!-- Node48&#45;&gt;Node13 -->
<g id="edge29" class="edge">
<title>Node48&#45;&gt;Node13</title>
<path fill="none" stroke="midnightblue" d="M67.6,-309.59C69.82,-310.99 71.98,-312.47 74,-314 92.53,-328.06 90.38,-339.5 110,-352 119.94,-358.33 132.21,-362.78 142.82,-365.76"/>
<polygon fill="midnightblue" stroke="midnightblue" points="69.3,-306.53 58.89,-304.55 65.79,-312.58 69.3,-306.53"/>
</g>
<!-- Node48&#45;&gt;Node21 -->
<g id="edge27" class="edge">
<title>Node48&#45;&gt;Node21</title>
<path fill="none" stroke="midnightblue" d="M78.2,-302.69C119.87,-308.22 184.59,-309.68 226,-276 267.22,-242.47 223.91,-199.05 262,-162 273.27,-151.03 290.42,-146.31 304.48,-144.32"/>
<polygon fill="midnightblue" stroke="midnightblue" points="78.54,-299.2 68.13,-301.21 77.52,-306.12 78.54,-299.2"/>
</g>
<!-- Node48&#45;&gt;Node30 -->
<g id="edge30" class="edge">
<title>Node48&#45;&gt;Node30</title>
<path fill="none" stroke="midnightblue" d="M78.01,-283.22C96.23,-277.85 117.51,-271.58 134.69,-266.52"/>
<polygon fill="midnightblue" stroke="midnightblue" points="76.85,-279.91 68.24,-286.09 78.83,-286.62 76.85,-279.91"/>
</g>
<!-- Node56 -->
<g id="node29" class="node">
<title>Node56</title>
<g id="a_node29"><a xlink:title=" ">
<polygon fill="white" stroke="#bfbfbf" points="12,-323.5 12,-342.5 62,-342.5 62,-323.5 12,-323.5"/>
<text text-anchor="middle" x="37" y="-330.5" font-family="Helvetica,sans-Serif" font-size="10.00">JFrame</text>
</a>
</g>
</g>
<!-- Node56&#45;&gt;Node1 -->
<g id="edge31" class="edge">
<title>Node56&#45;&gt;Node1</title>
<path fill="none" stroke="midnightblue" d="M72.33,-333C90.33,-333 112.36,-333 130.65,-333"/>
<polygon fill="midnightblue" stroke="midnightblue" points="72.26,-329.5 62.26,-333 72.26,-336.5 72.26,-329.5"/>
</g>
<!-- Node56&#45;&gt;Node13 -->
<g id="edge32" class="edge">
<title>Node56&#45;&gt;Node13</title>
<path fill="none" stroke="midnightblue" d="M72,-343.02C94.29,-349.58 122.88,-358 142.84,-363.88"/>
<polygon fill="midnightblue" stroke="midnightblue" points="72.85,-339.62 62.26,-340.15 70.87,-346.33 72.85,-339.62"/>
</g>
</g>
</svg>
