<?xml version="1.0" encoding="UTF-8" standalone="no"?>
<!DOCTYPE svg PUBLIC "-//W3C//DTD SVG 1.1//EN"
 "http://www.w3.org/Graphics/SVG/1.1/DTD/svg11.dtd">
<!-- Generated by graphviz version 2.50.0 (0)
 -->
<!-- Title: Graphical Class Hierarchy Pages: 1 -->
<svg width="258pt" height="66pt"
 viewBox="0.00 0.00 258.00 66.00" xmlns="http://www.w3.org/2000/svg" xmlns:xlink="http://www.w3.org/1999/xlink">
<g id="graph0" class="graph" transform="scale(1 1) rotate(0) translate(4 62)">
<title>Graphical Class Hierarchy</title>
<polygon fill="white" stroke="transparent" points="-4,4 -4,-62 254,-62 254,4 -4,4"/>
<!-- Node50 -->
<g id="node1" class="node">
<title>Node50</title>
<g id="a_node1"><a xlink:title=" ">
<polygon fill="white" stroke="#bfbfbf" points="0,-38.5 0,-57.5 86,-57.5 86,-38.5 0,-38.5"/>
<text text-anchor="middle" x="43" y="-45.5" font-family="Helvetica,sans-Serif" font-size="10.00">ActionListener</text>
</a>
</g>
</g>
<!-- Node0 -->
<g id="node2" class="node">
<title>Node0</title>
<g id="a_node2"><a xlink:href="classDialogSetPoint_1_1Keypad.html" target="_top" xlink:title=" ">
<polygon fill="white" stroke="black" points="122,-19.5 122,-38.5 250,-38.5 250,-19.5 122,-19.5"/>
<text text-anchor="middle" x="186" y="-26.5" font-family="Helvetica,sans-Serif" font-size="10.00">DialogSetPoint.Keypad</text>
</a>
</g>
</g>
<!-- Node50&#45;&gt;Node0 -->
<g id="edge1" class="edge">
<title>Node50&#45;&gt;Node0</title>
<path fill="none" stroke="midnightblue" d="M96.26,-40.96C104.6,-39.83 113.31,-38.66 121.87,-37.51"/>
<polygon fill="midnightblue" stroke="midnightblue" points="95.75,-37.5 86.3,-42.3 96.68,-44.43 95.75,-37.5"/>
</g>
<!-- Node57 -->
<g id="node3" class="node">
<title>Node57</title>
<g id="a_node3"><a xlink:title=" ">
<polygon fill="white" stroke="#bfbfbf" points="20,-0.5 20,-19.5 66,-19.5 66,-0.5 20,-0.5"/>
<text text-anchor="middle" x="43" y="-7.5" font-family="Helvetica,sans-Serif" font-size="10.00">JPanel</text>
</a>
</g>
</g>
<!-- Node57&#45;&gt;Node0 -->
<g id="edge2" class="edge">
<title>Node57&#45;&gt;Node0</title>
<path fill="none" stroke="midnightblue" d="M76.24,-14.34C89.76,-16.17 105.98,-18.35 121.72,-20.47"/>
<polygon fill="midnightblue" stroke="midnightblue" points="76.41,-10.84 66.03,-12.97 75.47,-17.77 76.41,-10.84"/>
</g>
</g>
</svg>
