<?xml version="1.0" encoding="UTF-8" standalone="no"?>
<!DOCTYPE svg PUBLIC "-//W3C//DTD SVG 1.1//EN"
 "http://www.w3.org/Graphics/SVG/1.1/DTD/svg11.dtd">
<!-- Generated by graphviz version 2.50.0 (0)
 -->
<!-- Title: DataTypes Pages: 1 -->
<svg width="462pt" height="294pt"
 viewBox="0.00 0.00 462.00 294.00" xmlns="http://www.w3.org/2000/svg" xmlns:xlink="http://www.w3.org/1999/xlink">
<g id="graph0" class="graph" transform="scale(1 1) rotate(0) translate(4 290)">
<title>DataTypes</title>
<!-- Node1 -->
<g id="node1" class="node">
<title>Node1</title>
<g id="a_node1"><a xlink:title=" ">
<polygon fill="#bfbfbf" stroke="black" points="0,-133.5 0,-152.5 68,-152.5 68,-133.5 0,-133.5"/>
<text text-anchor="middle" x="34" y="-140.5" font-family="Helvetica,sans-Serif" font-size="10.00">DataTypes</text>
</a>
</g>
</g>
<!-- Node2 -->
<g id="node2" class="node">
<title>Node2</title>
<g id="a_node2"><a xlink:href="classDataElement.html" target="_top" xlink:title=" ">
<polygon fill="none" stroke="black" points="122,-190.5 122,-209.5 202,-209.5 202,-190.5 122,-190.5"/>
<text text-anchor="middle" x="162" y="-197.5" font-family="Helvetica,sans-Serif" font-size="10.00">DataElement</text>
</a>
</g>
</g>
<!-- Node1&#45;&gt;Node2 -->
<g id="edge1" class="edge">
<title>Node1&#45;&gt;Node2</title>
<path fill="none" stroke="midnightblue" d="M59.26,-157.78C72.24,-165.32 88.68,-174.29 104,-181 111.93,-184.47 120.71,-187.69 128.96,-190.45"/>
<polygon fill="midnightblue" stroke="midnightblue" points="60.87,-154.66 50.48,-152.59 57.31,-160.69 60.87,-154.66"/>
</g>
<!-- Node3 -->
<g id="node3" class="node">
<title>Node3</title>
<g id="a_node3"><a xlink:href="classDataManager.html" target="_top" xlink:title=" ">
<polygon fill="none" stroke="black" points="120.5,-152.5 120.5,-171.5 203.5,-171.5 203.5,-152.5 120.5,-152.5"/>
<text text-anchor="middle" x="162" y="-159.5" font-family="Helvetica,sans-Serif" font-size="10.00">DataManager</text>
</a>
</g>
</g>
<!-- Node1&#45;&gt;Node3 -->
<g id="edge2" class="edge">
<title>Node1&#45;&gt;Node3</title>
<path fill="none" stroke="midnightblue" d="M78.25,-149.52C91.93,-151.58 106.99,-153.86 120.47,-155.89"/>
<polygon fill="midnightblue" stroke="midnightblue" points="78.52,-146.02 68.11,-147.99 77.47,-152.94 78.52,-146.02"/>
</g>
<!-- Node4 -->
<g id="node4" class="node">
<title>Node4</title>
<g id="a_node4"><a xlink:href="classDevice.html" target="_top" xlink:title=" ">
<polygon fill="none" stroke="black" points="256,-133.5 256,-152.5 306,-152.5 306,-133.5 256,-133.5"/>
<text text-anchor="middle" x="281" y="-140.5" font-family="Helvetica,sans-Serif" font-size="10.00">Device</text>
</a>
</g>
</g>
<!-- Node1&#45;&gt;Node4 -->
<g id="edge12" class="edge">
<title>Node1&#45;&gt;Node4</title>
<path fill="none" stroke="midnightblue" d="M78.24,-143C129.95,-143 214.7,-143 255.94,-143"/>
<polygon fill="midnightblue" stroke="midnightblue" points="78.04,-139.5 68.04,-143 78.04,-146.5 78.04,-139.5"/>
</g>
<!-- Node13 -->
<g id="node13" class="node">
<title>Node13</title>
<g id="a_node13"><a xlink:href="classModbusSlaveThread.html" target="_top" xlink:title=" ">
<polygon fill="none" stroke="black" points="104,-76.5 104,-95.5 220,-95.5 220,-76.5 104,-76.5"/>
<text text-anchor="middle" x="162" y="-83.5" font-family="Helvetica,sans-Serif" font-size="10.00">ModbusSlaveThread</text>
</a>
</g>
</g>
<!-- Node1&#45;&gt;Node13 -->
<g id="edge13" class="edge">
<title>Node1&#45;&gt;Node13</title>
<path fill="none" stroke="midnightblue" d="M63.84,-128.83C76.15,-122.88 90.72,-115.97 104,-110 114.97,-105.07 127.25,-99.86 137.6,-95.56"/>
<polygon fill="midnightblue" stroke="midnightblue" points="61.98,-125.84 54.51,-133.36 65.04,-132.14 61.98,-125.84"/>
</g>
<!-- Node3&#45;&gt;Node4 -->
<g id="edge3" class="edge">
<title>Node3&#45;&gt;Node4</title>
<path fill="none" stroke="midnightblue" d="M213.59,-153.78C228.27,-151.4 243.61,-148.91 255.85,-146.92"/>
<polygon fill="midnightblue" stroke="midnightblue" points="212.9,-150.35 203.59,-155.41 214.02,-157.26 212.9,-150.35"/>
</g>
<!-- Node5 -->
<g id="node5" class="node">
<title>Node5</title>
<g id="a_node5"><a xlink:href="classControllino__1.html" target="_top" xlink:title=" ">
<polygon fill="none" stroke="black" points="357.5,-266.5 357.5,-285.5 438.5,-285.5 438.5,-266.5 357.5,-266.5"/>
<text text-anchor="middle" x="398" y="-273.5" font-family="Helvetica,sans-Serif" font-size="10.00">Controllino_1</text>
</a>
</g>
</g>
<!-- Node4&#45;&gt;Node5 -->
<g id="edge4" class="edge">
<title>Node4&#45;&gt;Node5</title>
<path fill="none" stroke="midnightblue" d="M287.41,-162.7C295.32,-187.98 312.44,-231.62 342,-257 346.52,-260.88 351.88,-263.99 357.45,-266.46"/>
<polygon fill="midnightblue" stroke="midnightblue" points="290.67,-161.4 284.49,-152.8 283.96,-163.38 290.67,-161.4"/>
</g>
<!-- Node6 -->
<g id="node6" class="node">
<title>Node6</title>
<g id="a_node6"><a xlink:href="classControllino__2.html" target="_top" xlink:title=" ">
<polygon fill="none" stroke="black" points="357.5,-228.5 357.5,-247.5 438.5,-247.5 438.5,-228.5 357.5,-228.5"/>
<text text-anchor="middle" x="398" y="-235.5" font-family="Helvetica,sans-Serif" font-size="10.00">Controllino_2</text>
</a>
</g>
</g>
<!-- Node4&#45;&gt;Node6 -->
<g id="edge5" class="edge">
<title>Node4&#45;&gt;Node6</title>
<path fill="none" stroke="midnightblue" d="M292.46,-161.67C302.94,-178.81 320.58,-203.78 342,-219 347.35,-222.8 353.53,-225.9 359.78,-228.4"/>
<polygon fill="midnightblue" stroke="midnightblue" points="295.23,-159.47 287.14,-152.62 289.19,-163.01 295.23,-159.47"/>
</g>
<!-- Node7 -->
<g id="node7" class="node">
<title>Node7</title>
<g id="a_node7"><a xlink:href="classControllino__3.html" target="_top" xlink:title=" ">
<polygon fill="none" stroke="black" points="357.5,-190.5 357.5,-209.5 438.5,-209.5 438.5,-190.5 357.5,-190.5"/>
<text text-anchor="middle" x="398" y="-197.5" font-family="Helvetica,sans-Serif" font-size="10.00">Controllino_3</text>
</a>
</g>
</g>
<!-- Node4&#45;&gt;Node7 -->
<g id="edge6" class="edge">
<title>Node4&#45;&gt;Node7</title>
<path fill="none" stroke="midnightblue" d="M303.87,-158.58C314.94,-166.01 328.81,-174.65 342,-181 349.37,-184.55 357.59,-187.75 365.37,-190.48"/>
<polygon fill="midnightblue" stroke="midnightblue" points="305.52,-155.47 295.3,-152.69 301.56,-161.24 305.52,-155.47"/>
</g>
<!-- Node8 -->
<g id="node8" class="node">
<title>Node8</title>
<g id="a_node8"><a xlink:href="classMaxiGauge.html" target="_top" xlink:title=" ">
<polygon fill="none" stroke="black" points="362,-152.5 362,-171.5 434,-171.5 434,-152.5 362,-152.5"/>
<text text-anchor="middle" x="398" y="-159.5" font-family="Helvetica,sans-Serif" font-size="10.00">MaxiGauge</text>
</a>
</g>
</g>
<!-- Node4&#45;&gt;Node8 -->
<g id="edge7" class="edge">
<title>Node4&#45;&gt;Node8</title>
<path fill="none" stroke="midnightblue" d="M316.07,-148.63C330.41,-151 347.09,-153.75 361.57,-156.15"/>
<polygon fill="midnightblue" stroke="midnightblue" points="316.54,-145.16 306.11,-146.98 315.4,-152.07 316.54,-145.16"/>
</g>
<!-- Node9 -->
<g id="node9" class="node">
<title>Node9</title>
<g id="a_node9"><a xlink:href="classRgaHidenHal201RC.html" target="_top" xlink:title=" ">
<polygon fill="none" stroke="black" points="342,-114.5 342,-133.5 454,-133.5 454,-114.5 342,-114.5"/>
<text text-anchor="middle" x="398" y="-121.5" font-family="Helvetica,sans-Serif" font-size="10.00">RgaHidenHal201RC</text>
</a>
</g>
</g>
<!-- Node4&#45;&gt;Node9 -->
<g id="edge8" class="edge">
<title>Node4&#45;&gt;Node9</title>
<path fill="none" stroke="midnightblue" d="M316.17,-137.35C324.2,-136.03 332.96,-134.58 341.66,-133.14"/>
<polygon fill="midnightblue" stroke="midnightblue" points="315.4,-133.93 306.11,-139.02 316.54,-140.84 315.4,-133.93"/>
</g>
<!-- Node10 -->
<g id="node10" class="node">
<title>Node10</title>
<g id="a_node10"><a xlink:href="classSupervisorClient.html" target="_top" xlink:title=" ">
<polygon fill="none" stroke="black" points="349.5,-76.5 349.5,-95.5 446.5,-95.5 446.5,-76.5 349.5,-76.5"/>
<text text-anchor="middle" x="398" y="-83.5" font-family="Helvetica,sans-Serif" font-size="10.00">SupervisorClient</text>
</a>
</g>
</g>
<!-- Node4&#45;&gt;Node10 -->
<g id="edge9" class="edge">
<title>Node4&#45;&gt;Node10</title>
<path fill="none" stroke="midnightblue" d="M303.87,-127.42C314.94,-119.99 328.81,-111.35 342,-105 349.37,-101.45 357.59,-98.25 365.37,-95.52"/>
<polygon fill="midnightblue" stroke="midnightblue" points="301.56,-124.76 295.3,-133.31 305.52,-130.53 301.56,-124.76"/>
</g>
<!-- Node11 -->
<g id="node11" class="node">
<title>Node11</title>
<g id="a_node11"><a xlink:href="classTCMuxShield.html" target="_top" xlink:title=" ">
<polygon fill="none" stroke="black" points="358,-38.5 358,-57.5 438,-57.5 438,-38.5 358,-38.5"/>
<text text-anchor="middle" x="398" y="-45.5" font-family="Helvetica,sans-Serif" font-size="10.00">TCMuxShield</text>
</a>
</g>
</g>
<!-- Node4&#45;&gt;Node11 -->
<g id="edge10" class="edge">
<title>Node4&#45;&gt;Node11</title>
<path fill="none" stroke="midnightblue" d="M292.46,-124.33C302.94,-107.19 320.58,-82.22 342,-67 347.35,-63.2 353.53,-60.1 359.78,-57.6"/>
<polygon fill="midnightblue" stroke="midnightblue" points="289.19,-122.99 287.14,-133.38 295.23,-126.53 289.19,-122.99"/>
</g>
<!-- Node12 -->
<g id="node12" class="node">
<title>Node12</title>
<g id="a_node12"><a xlink:href="classTurboPfeifferDCU.html" target="_top" xlink:title=" ">
<polygon fill="none" stroke="black" points="348,-0.5 348,-19.5 448,-19.5 448,-0.5 348,-0.5"/>
<text text-anchor="middle" x="398" y="-7.5" font-family="Helvetica,sans-Serif" font-size="10.00">TurboPfeifferDCU</text>
</a>
</g>
</g>
<!-- Node4&#45;&gt;Node12 -->
<g id="edge11" class="edge">
<title>Node4&#45;&gt;Node12</title>
<path fill="none" stroke="midnightblue" d="M287.41,-123.3C295.32,-98.02 312.44,-54.38 342,-29 346.52,-25.12 351.88,-22.01 357.45,-19.54"/>
<polygon fill="midnightblue" stroke="midnightblue" points="283.96,-122.62 284.49,-133.2 290.67,-124.6 283.96,-122.62"/>
</g>
</g>
</svg>
