<?xml version="1.0" encoding="UTF-8" standalone="no"?>
<!DOCTYPE svg PUBLIC "-//W3C//DTD SVG 1.1//EN"
 "http://www.w3.org/Graphics/SVG/1.1/DTD/svg11.dtd">
<!-- Generated by graphviz version 2.50.0 (0)
 -->
<!-- Title: DataManager Pages: 1 -->
<svg width="428pt" height="256pt"
 viewBox="0.00 0.00 428.00 256.00" xmlns="http://www.w3.org/2000/svg" xmlns:xlink="http://www.w3.org/1999/xlink">
<g id="graph0" class="graph" transform="scale(1 1) rotate(0) translate(4 252)">
<title>DataManager</title>
<polygon fill="white" stroke="transparent" points="-4,4 -4,-252 424,-252 424,4 -4,4"/>
<!-- Node1 -->
<g id="node1" class="node">
<title>Node1</title>
<g id="a_node1"><a xlink:title=" ">
<polygon fill="#bfbfbf" stroke="black" points="104,-114.5 104,-133.5 187,-133.5 187,-114.5 104,-114.5"/>
<text text-anchor="middle" x="145.5" y="-121.5" font-family="Helvetica,sans-Serif" font-size="10.00">DataManager</text>
</a>
</g>
</g>
<!-- Node3 -->
<g id="node3" class="node">
<title>Node3</title>
<g id="a_node3"><a xlink:href="classDevice.html" target="_top" xlink:title=" ">
<polygon fill="white" stroke="black" points="223,-114.5 223,-133.5 273,-133.5 273,-114.5 223,-114.5"/>
<text text-anchor="middle" x="248" y="-121.5" font-family="Helvetica,sans-Serif" font-size="10.00">Device</text>
</a>
</g>
</g>
<!-- Node1&#45;&gt;Node3 -->
<g id="edge2" class="edge">
<title>Node1&#45;&gt;Node3</title>
<path fill="none" stroke="midnightblue" d="M197.12,-124C206.06,-124 214.98,-124 222.75,-124"/>
<polygon fill="midnightblue" stroke="midnightblue" points="197.09,-120.5 187.09,-124 197.09,-127.5 197.09,-120.5"/>
</g>
<!-- Node2 -->
<g id="node2" class="node">
<title>Node2</title>
<g id="a_node2"><a xlink:href="interfaceDataTypes.html" target="_top" xlink:title=" ">
<polygon fill="white" stroke="black" points="0,-114.5 0,-133.5 68,-133.5 68,-114.5 0,-114.5"/>
<text text-anchor="middle" x="34" y="-121.5" font-family="Helvetica,sans-Serif" font-size="10.00">DataTypes</text>
</a>
</g>
</g>
<!-- Node2&#45;&gt;Node1 -->
<g id="edge1" class="edge">
<title>Node2&#45;&gt;Node1</title>
<path fill="none" stroke="midnightblue" d="M78.17,-124C86.59,-124 95.39,-124 103.72,-124"/>
<polygon fill="midnightblue" stroke="midnightblue" points="78.15,-120.5 68.15,-124 78.15,-127.5 78.15,-120.5"/>
</g>
<!-- Node4 -->
<g id="node4" class="node">
<title>Node4</title>
<g id="a_node4"><a xlink:href="classControllino__1.html" target="_top" xlink:title=" ">
<polygon fill="white" stroke="black" points="324,-228.5 324,-247.5 405,-247.5 405,-228.5 324,-228.5"/>
<text text-anchor="middle" x="364.5" y="-235.5" font-family="Helvetica,sans-Serif" font-size="10.00">Controllino_1</text>
</a>
</g>
</g>
<!-- Node3&#45;&gt;Node4 -->
<g id="edge3" class="edge">
<title>Node3&#45;&gt;Node4</title>
<path fill="none" stroke="midnightblue" d="M256.37,-142.89C265.61,-164.24 283.41,-198.66 309,-219 313.86,-222.87 319.57,-225.97 325.42,-228.46"/>
<polygon fill="midnightblue" stroke="midnightblue" points="259.58,-141.49 252.52,-133.58 253.11,-144.16 259.58,-141.49"/>
</g>
<!-- Node5 -->
<g id="node5" class="node">
<title>Node5</title>
<g id="a_node5"><a xlink:href="classControllino__2.html" target="_top" xlink:title=" ">
<polygon fill="white" stroke="black" points="324,-190.5 324,-209.5 405,-209.5 405,-190.5 324,-190.5"/>
<text text-anchor="middle" x="364.5" y="-197.5" font-family="Helvetica,sans-Serif" font-size="10.00">Controllino_2</text>
</a>
</g>
</g>
<!-- Node3&#45;&gt;Node5 -->
<g id="edge4" class="edge">
<title>Node3&#45;&gt;Node5</title>
<path fill="none" stroke="midnightblue" d="M263.56,-141.33C274.85,-153.83 291.49,-170.32 309,-181 315.16,-184.76 322.17,-187.9 329.05,-190.48"/>
<polygon fill="midnightblue" stroke="midnightblue" points="266.18,-139.01 256.95,-133.79 260.91,-143.62 266.18,-139.01"/>
</g>
<!-- Node6 -->
<g id="node6" class="node">
<title>Node6</title>
<g id="a_node6"><a xlink:href="classControllino__3.html" target="_top" xlink:title=" ">
<polygon fill="white" stroke="black" points="324,-152.5 324,-171.5 405,-171.5 405,-152.5 324,-152.5"/>
<text text-anchor="middle" x="364.5" y="-159.5" font-family="Helvetica,sans-Serif" font-size="10.00">Controllino_3</text>
</a>
</g>
</g>
<!-- Node3&#45;&gt;Node6 -->
<g id="edge5" class="edge">
<title>Node3&#45;&gt;Node6</title>
<path fill="none" stroke="midnightblue" d="M282.8,-135.22C299.28,-140.69 318.9,-147.2 334.66,-152.43"/>
<polygon fill="midnightblue" stroke="midnightblue" points="283.6,-131.79 273,-131.97 281.39,-138.44 283.6,-131.79"/>
</g>
<!-- Node7 -->
<g id="node7" class="node">
<title>Node7</title>
<g id="a_node7"><a xlink:href="classMaxiGauge.html" target="_top" xlink:title=" ">
<polygon fill="white" stroke="black" points="328.5,-114.5 328.5,-133.5 400.5,-133.5 400.5,-114.5 328.5,-114.5"/>
<text text-anchor="middle" x="364.5" y="-121.5" font-family="Helvetica,sans-Serif" font-size="10.00">MaxiGauge</text>
</a>
</g>
</g>
<!-- Node3&#45;&gt;Node7 -->
<g id="edge6" class="edge">
<title>Node3&#45;&gt;Node7</title>
<path fill="none" stroke="midnightblue" d="M283.34,-124C297.52,-124 313.95,-124 328.22,-124"/>
<polygon fill="midnightblue" stroke="midnightblue" points="283,-120.5 273,-124 283,-127.5 283,-120.5"/>
</g>
<!-- Node8 -->
<g id="node8" class="node">
<title>Node8</title>
<g id="a_node8"><a xlink:href="classRgaPfeifferQms200.html" target="_top" xlink:title=" ">
<polygon fill="white" stroke="black" points="309,-76.5 309,-95.5 420,-95.5 420,-76.5 309,-76.5"/>
<text text-anchor="middle" x="364.5" y="-83.5" font-family="Helvetica,sans-Serif" font-size="10.00">RgaPfeifferQms200</text>
</a>
</g>
</g>
<!-- Node3&#45;&gt;Node8 -->
<g id="edge7" class="edge">
<title>Node3&#45;&gt;Node8</title>
<path fill="none" stroke="midnightblue" d="M282.8,-112.78C299.28,-107.31 318.9,-100.8 334.66,-95.57"/>
<polygon fill="midnightblue" stroke="midnightblue" points="281.39,-109.56 273,-116.03 283.6,-116.21 281.39,-109.56"/>
</g>
<!-- Node9 -->
<g id="node9" class="node">
<title>Node9</title>
<g id="a_node9"><a xlink:href="classTCMuxShield.html" target="_top" xlink:title=" ">
<polygon fill="white" stroke="black" points="324.5,-38.5 324.5,-57.5 404.5,-57.5 404.5,-38.5 324.5,-38.5"/>
<text text-anchor="middle" x="364.5" y="-45.5" font-family="Helvetica,sans-Serif" font-size="10.00">TCMuxShield</text>
</a>
</g>
</g>
<!-- Node3&#45;&gt;Node9 -->
<g id="edge8" class="edge">
<title>Node3&#45;&gt;Node9</title>
<path fill="none" stroke="midnightblue" d="M263.56,-106.67C274.85,-94.17 291.49,-77.68 309,-67 315.16,-63.24 322.17,-60.1 329.05,-57.52"/>
<polygon fill="midnightblue" stroke="midnightblue" points="260.91,-104.38 256.95,-114.21 266.18,-108.99 260.91,-104.38"/>
</g>
<!-- Node10 -->
<g id="node10" class="node">
<title>Node10</title>
<g id="a_node10"><a xlink:href="classTurboPfeifferDCU.html" target="_top" xlink:title=" ">
<polygon fill="white" stroke="black" points="314.5,-0.5 314.5,-19.5 414.5,-19.5 414.5,-0.5 314.5,-0.5"/>
<text text-anchor="middle" x="364.5" y="-7.5" font-family="Helvetica,sans-Serif" font-size="10.00">TurboPfeifferDCU</text>
</a>
</g>
</g>
<!-- Node3&#45;&gt;Node10 -->
<g id="edge9" class="edge">
<title>Node3&#45;&gt;Node10</title>
<path fill="none" stroke="midnightblue" d="M256.37,-105.11C265.61,-83.76 283.41,-49.34 309,-29 313.86,-25.13 319.57,-22.03 325.42,-19.54"/>
<polygon fill="midnightblue" stroke="midnightblue" points="253.11,-103.84 252.52,-114.42 259.58,-106.51 253.11,-103.84"/>
</g>
</g>
</svg>
