<?xml version="1.0" encoding="UTF-8" standalone="no"?>
<!DOCTYPE svg PUBLIC "-//W3C//DTD SVG 1.1//EN"
 "http://www.w3.org/Graphics/SVG/1.1/DTD/svg11.dtd">
<!-- Generated by graphviz version 2.50.0 (0)
 -->
<!-- Title: Graphical Class Hierarchy Pages: 1 -->
<svg width="549pt" height="560pt"
 viewBox="0.00 0.00 549.00 560.00" xmlns="http://www.w3.org/2000/svg" xmlns:xlink="http://www.w3.org/1999/xlink">
<g id="graph0" class="graph" transform="scale(1 1) rotate(0) translate(4 556)">
<title>Graphical Class Hierarchy</title>
<!-- Node0 -->
<g id="node1" class="node">
<title>Node0</title>
<g id="a_node1"><a xlink:href="interfaceChannelList.html" target="_top" xlink:title=" ">
<polygon fill="none" stroke="black" points="0,-342.5 0,-361.5 74,-361.5 74,-342.5 0,-342.5"/>
<text text-anchor="middle" x="37" y="-349.5" font-family="Helvetica,sans-Serif" font-size="10.00">ChannelList</text>
</a>
</g>
</g>
<!-- Node1 -->
<g id="node2" class="node">
<title>Node1</title>
<g id="a_node2"><a xlink:href="classGlgChildGui.html" target="_top" xlink:title=" ">
<polygon fill="none" stroke="black" points="131,-304.5 131,-323.5 205,-323.5 205,-304.5 131,-304.5"/>
<text text-anchor="middle" x="168" y="-311.5" font-family="Helvetica,sans-Serif" font-size="10.00">GlgChildGui</text>
</a>
</g>
</g>
<!-- Node0&#45;&gt;Node1 -->
<g id="edge1" class="edge">
<title>Node0&#45;&gt;Node1</title>
<path fill="none" stroke="midnightblue" d="M80.55,-339.46C98.1,-334.3 118.11,-328.4 134.46,-323.59"/>
<polygon fill="midnightblue" stroke="midnightblue" points="79.16,-336.23 70.55,-342.41 81.13,-342.94 79.16,-336.23"/>
</g>
<!-- Node13 -->
<g id="node14" class="node">
<title>Node13</title>
<g id="a_node14"><a xlink:href="classGlgGui.html" target="_top" xlink:title=" ">
<polygon fill="none" stroke="black" points="143,-342.5 143,-361.5 193,-361.5 193,-342.5 143,-342.5"/>
<text text-anchor="middle" x="168" y="-349.5" font-family="Helvetica,sans-Serif" font-size="10.00">GlgGui</text>
</a>
</g>
</g>
<!-- Node0&#45;&gt;Node13 -->
<g id="edge13" class="edge">
<title>Node0&#45;&gt;Node13</title>
<path fill="none" stroke="midnightblue" d="M84.35,-352C104.12,-352 126.37,-352 142.8,-352"/>
<polygon fill="midnightblue" stroke="midnightblue" points="84.28,-348.5 74.28,-352 84.28,-355.5 84.28,-348.5"/>
</g>
<!-- Node2 -->
<g id="node3" class="node">
<title>Node2</title>
<g id="a_node3"><a xlink:href="classGlgDryGui.html" target="_top" xlink:title=" ">
<polygon fill="none" stroke="black" points="294.5,-418.5 294.5,-437.5 361.5,-437.5 361.5,-418.5 294.5,-418.5"/>
<text text-anchor="middle" x="328" y="-425.5" font-family="Helvetica,sans-Serif" font-size="10.00">GlgDryGui</text>
</a>
</g>
</g>
<!-- Node1&#45;&gt;Node2 -->
<g id="edge2" class="edge">
<title>Node1&#45;&gt;Node2</title>
<path fill="none" stroke="midnightblue" d="M214.48,-325.26C218.64,-327.4 222.57,-329.96 226,-333 253.97,-357.79 233.57,-384.74 262,-409 271.03,-416.71 283.06,-421.29 294.3,-424.02"/>
<polygon fill="midnightblue" stroke="midnightblue" points="215.68,-321.96 205.11,-321.17 212.88,-328.38 215.68,-321.96"/>
</g>
<!-- Node3 -->
<g id="node4" class="node">
<title>Node3</title>
<g id="a_node4"><a xlink:href="classGlgGaugeGui.html" target="_top" xlink:title=" ">
<polygon fill="none" stroke="black" points="287.5,-380.5 287.5,-399.5 368.5,-399.5 368.5,-380.5 287.5,-380.5"/>
<text text-anchor="middle" x="328" y="-387.5" font-family="Helvetica,sans-Serif" font-size="10.00">GlgGaugeGui</text>
</a>
</g>
</g>
<!-- Node1&#45;&gt;Node3 -->
<g id="edge3" class="edge">
<title>Node1&#45;&gt;Node3</title>
<path fill="none" stroke="midnightblue" d="M214.6,-326.9C218.57,-328.7 222.44,-330.73 226,-333 245.62,-345.5 242.15,-358.87 262,-371 269.73,-375.72 278.68,-379.32 287.43,-382.04"/>
<polygon fill="midnightblue" stroke="midnightblue" points="215.77,-323.6 205.19,-323.08 213.14,-330.09 215.77,-323.6"/>
</g>
<!-- Node4 -->
<g id="node5" class="node">
<title>Node4</title>
<g id="a_node5"><a xlink:href="classGlgIonicGui.html" target="_top" xlink:title=" ">
<polygon fill="none" stroke="black" points="291.5,-342.5 291.5,-361.5 364.5,-361.5 364.5,-342.5 291.5,-342.5"/>
<text text-anchor="middle" x="328" y="-349.5" font-family="Helvetica,sans-Serif" font-size="10.00">GlgIonicGui</text>
</a>
</g>
</g>
<!-- Node1&#45;&gt;Node4 -->
<g id="edge4" class="edge">
<title>Node1&#45;&gt;Node4</title>
<path fill="none" stroke="midnightblue" d="M215,-325.06C239.38,-330.93 268.87,-338.02 291.46,-343.45"/>
<polygon fill="midnightblue" stroke="midnightblue" points="215.79,-321.65 205.25,-322.72 214.15,-328.46 215.79,-321.65"/>
</g>
<!-- Node5 -->
<g id="node6" class="node">
<title>Node5</title>
<g id="a_node6"><a xlink:href="classGlgRGAGui.html" target="_top" xlink:title=" ">
<polygon fill="none" stroke="black" points="292.5,-304.5 292.5,-323.5 363.5,-323.5 363.5,-304.5 292.5,-304.5"/>
<text text-anchor="middle" x="328" y="-311.5" font-family="Helvetica,sans-Serif" font-size="10.00">GlgRGAGui</text>
</a>
</g>
</g>
<!-- Node1&#45;&gt;Node5 -->
<g id="edge5" class="edge">
<title>Node1&#45;&gt;Node5</title>
<path fill="none" stroke="midnightblue" d="M215.44,-314C240.02,-314 269.71,-314 292.28,-314"/>
<polygon fill="midnightblue" stroke="midnightblue" points="215.25,-310.5 205.25,-314 215.25,-317.5 215.25,-310.5"/>
</g>
<!-- Node6 -->
<g id="node7" class="node">
<title>Node6</title>
<g id="a_node7"><a xlink:href="classGlgSqzStatusDetailsGui.html" target="_top" xlink:title=" ">
<polygon fill="none" stroke="black" points="262,-266.5 262,-285.5 394,-285.5 394,-266.5 262,-266.5"/>
<text text-anchor="middle" x="328" y="-273.5" font-family="Helvetica,sans-Serif" font-size="10.00">GlgSqzStatusDetailsGui</text>
</a>
</g>
</g>
<!-- Node1&#45;&gt;Node6 -->
<g id="edge6" class="edge">
<title>Node1&#45;&gt;Node6</title>
<path fill="none" stroke="midnightblue" d="M215.09,-302.92C237.98,-297.41 265.37,-290.82 287.32,-285.54"/>
<polygon fill="midnightblue" stroke="midnightblue" points="214.15,-299.54 205.25,-305.28 215.79,-306.35 214.15,-299.54"/>
</g>
<!-- Node7 -->
<g id="node8" class="node">
<title>Node7</title>
<g id="a_node8"><a xlink:href="classGlgSqzTempGui.html" target="_top" xlink:title=" ">
<polygon fill="none" stroke="black" points="281.5,-228.5 281.5,-247.5 374.5,-247.5 374.5,-228.5 281.5,-228.5"/>
<text text-anchor="middle" x="328" y="-235.5" font-family="Helvetica,sans-Serif" font-size="10.00">GlgSqzTempGui</text>
</a>
</g>
</g>
<!-- Node1&#45;&gt;Node7 -->
<g id="edge7" class="edge">
<title>Node1&#45;&gt;Node7</title>
<path fill="none" stroke="midnightblue" d="M206.57,-300.36C213.25,-297.33 219.99,-293.86 226,-290 244.27,-278.28 243.09,-267.66 262,-257 268.76,-253.19 276.35,-250.08 283.9,-247.57"/>
<polygon fill="midnightblue" stroke="midnightblue" points="204.75,-297.33 196.92,-304.47 207.5,-303.77 204.75,-297.33"/>
</g>
<!-- Node8 -->
<g id="node9" class="node">
<title>Node8</title>
<g id="a_node9"><a xlink:href="classGlgTitane__22Gui.html" target="_top" xlink:title=" ">
<polygon fill="none" stroke="black" points="279,-190.5 279,-209.5 377,-209.5 377,-190.5 279,-190.5"/>
<text text-anchor="middle" x="328" y="-197.5" font-family="Helvetica,sans-Serif" font-size="10.00">GlgTitane_22Gui</text>
</a>
</g>
</g>
<!-- Node1&#45;&gt;Node8 -->
<g id="edge8" class="edge">
<title>Node1&#45;&gt;Node8</title>
<path fill="none" stroke="midnightblue" d="M211.97,-299.9C217.05,-297.12 221.88,-293.84 226,-290 251.89,-265.88 234.78,-241.6 262,-219 266.97,-214.87 272.81,-211.64 278.91,-209.11"/>
<polygon fill="midnightblue" stroke="midnightblue" points="210.17,-296.88 202.68,-304.38 213.21,-303.19 210.17,-296.88"/>
</g>
<!-- Node9 -->
<g id="node10" class="node">
<title>Node9</title>
<g id="a_node10"><a xlink:href="classGlgTitane__32Gui.html" target="_top" xlink:title=" ">
<polygon fill="none" stroke="black" points="279,-152.5 279,-171.5 377,-171.5 377,-152.5 279,-152.5"/>
<text text-anchor="middle" x="328" y="-159.5" font-family="Helvetica,sans-Serif" font-size="10.00">GlgTitane_32Gui</text>
</a>
</g>
</g>
<!-- Node1&#45;&gt;Node9 -->
<g id="edge9" class="edge">
<title>Node1&#45;&gt;Node9</title>
<path fill="none" stroke="midnightblue" d="M213.78,-299.74C218.29,-297.02 222.49,-293.8 226,-290 260.61,-252.52 225.31,-216.45 262,-181 266.82,-176.34 272.72,-172.82 278.97,-170.15"/>
<polygon fill="midnightblue" stroke="midnightblue" points="212.08,-296.67 204.81,-304.38 215.3,-302.89 212.08,-296.67"/>
</g>
<!-- Node10 -->
<g id="node11" class="node">
<title>Node10</title>
<g id="a_node11"><a xlink:href="classGlgTurboGui.html" target="_top" xlink:title=" ">
<polygon fill="none" stroke="black" points="290,-532.5 290,-551.5 366,-551.5 366,-532.5 290,-532.5"/>
<text text-anchor="middle" x="328" y="-539.5" font-family="Helvetica,sans-Serif" font-size="10.00">GlgTurboGui</text>
</a>
</g>
</g>
<!-- Node1&#45;&gt;Node10 -->
<g id="edge10" class="edge">
<title>Node1&#45;&gt;Node10</title>
<path fill="none" stroke="midnightblue" d="M214.52,-323.95C218.83,-326.34 222.78,-329.32 226,-333 282.55,-397.72 204.25,-459.35 262,-523 269.19,-530.92 279.48,-535.61 289.76,-538.37"/>
<polygon fill="midnightblue" stroke="midnightblue" points="215.84,-320.71 205.29,-319.79 212.97,-327.09 215.84,-320.71"/>
</g>
<!-- Node11 -->
<g id="node12" class="node">
<title>Node11</title>
<g id="a_node12"><a xlink:href="classGlgValveGui.html" target="_top" xlink:title=" ">
<polygon fill="none" stroke="black" points="289.5,-494.5 289.5,-513.5 366.5,-513.5 366.5,-494.5 289.5,-494.5"/>
<text text-anchor="middle" x="328" y="-501.5" font-family="Helvetica,sans-Serif" font-size="10.00">GlgValveGui</text>
</a>
</g>
</g>
<!-- Node1&#45;&gt;Node11 -->
<g id="edge11" class="edge">
<title>Node1&#45;&gt;Node11</title>
<path fill="none" stroke="midnightblue" d="M214.35,-324.09C218.69,-326.46 222.7,-329.39 226,-333 272.85,-384.23 214.2,-434.65 262,-485 269.2,-492.59 279.26,-497.2 289.3,-499.98"/>
<polygon fill="midnightblue" stroke="midnightblue" points="215.65,-320.84 205.09,-319.97 212.8,-327.23 215.65,-320.84"/>
</g>
<!-- Node12 -->
<g id="node13" class="node">
<title>Node12</title>
<g id="a_node13"><a xlink:href="classGlgXGSGaugeGui.html" target="_top" xlink:title=" ">
<polygon fill="none" stroke="black" points="277.5,-456.5 277.5,-475.5 378.5,-475.5 378.5,-456.5 277.5,-456.5"/>
<text text-anchor="middle" x="328" y="-463.5" font-family="Helvetica,sans-Serif" font-size="10.00">GlgXGSGaugeGui</text>
</a>
</g>
</g>
<!-- Node1&#45;&gt;Node12 -->
<g id="edge12" class="edge">
<title>Node1&#45;&gt;Node12</title>
<path fill="none" stroke="midnightblue" d="M214.26,-324.43C218.58,-326.74 222.61,-329.56 226,-333 263.27,-370.87 224.03,-409.84 262,-447 266.37,-451.28 271.65,-454.6 277.28,-457.18"/>
<polygon fill="midnightblue" stroke="midnightblue" points="215.63,-321.21 205.07,-320.37 212.81,-327.61 215.63,-321.21"/>
</g>
<!-- Node18 -->
<g id="node15" class="node">
<title>Node18</title>
<g id="a_node15"><a xlink:href="interfaceDataTypes.html" target="_top" xlink:title=" ">
<polygon fill="none" stroke="black" points="3,-171.5 3,-190.5 71,-190.5 71,-171.5 3,-171.5"/>
<text text-anchor="middle" x="37" y="-178.5" font-family="Helvetica,sans-Serif" font-size="10.00">DataTypes</text>
</a>
</g>
</g>
<!-- Node19 -->
<g id="node16" class="node">
<title>Node19</title>
<g id="a_node16"><a xlink:href="classDataElement.html" target="_top" xlink:title=" ">
<polygon fill="none" stroke="black" points="128,-152.5 128,-171.5 208,-171.5 208,-152.5 128,-152.5"/>
<text text-anchor="middle" x="168" y="-159.5" font-family="Helvetica,sans-Serif" font-size="10.00">DataElement</text>
</a>
</g>
</g>
<!-- Node18&#45;&gt;Node19 -->
<g id="edge14" class="edge">
<title>Node18&#45;&gt;Node19</title>
<path fill="none" stroke="midnightblue" d="M81.33,-174.62C96.41,-172.4 113.22,-169.92 127.93,-167.75"/>
<polygon fill="midnightblue" stroke="midnightblue" points="80.6,-171.19 71.22,-176.11 81.62,-178.11 80.6,-171.19"/>
</g>
<!-- Node20 -->
<g id="node17" class="node">
<title>Node20</title>
<g id="a_node17"><a xlink:href="classDataManager.html" target="_top" xlink:title=" ">
<polygon fill="none" stroke="black" points="126.5,-114.5 126.5,-133.5 209.5,-133.5 209.5,-114.5 126.5,-114.5"/>
<text text-anchor="middle" x="168" y="-121.5" font-family="Helvetica,sans-Serif" font-size="10.00">DataManager</text>
</a>
</g>
</g>
<!-- Node18&#45;&gt;Node20 -->
<g id="edge15" class="edge">
<title>Node18&#45;&gt;Node20</title>
<path fill="none" stroke="midnightblue" d="M63,-166.51C76.63,-158.94 93.95,-149.86 110,-143 118.06,-139.56 126.96,-136.33 135.3,-133.54"/>
<polygon fill="midnightblue" stroke="midnightblue" points="61.21,-163.5 54.21,-171.46 64.64,-169.6 61.21,-163.5"/>
</g>
<!-- Node21 -->
<g id="node18" class="node">
<title>Node21</title>
<g id="a_node18"><a xlink:href="classDevice.html" target="_top" xlink:title=" ">
<polygon fill="none" stroke="black" points="303,-114.5 303,-133.5 353,-133.5 353,-114.5 303,-114.5"/>
<text text-anchor="middle" x="328" y="-121.5" font-family="Helvetica,sans-Serif" font-size="10.00">Device</text>
</a>
</g>
</g>
<!-- Node18&#45;&gt;Node21 -->
<g id="edge24" class="edge">
<title>Node18&#45;&gt;Node21</title>
<path fill="none" stroke="midnightblue" d="M81.24,-190.37C120.66,-196.79 179.62,-200.95 226,-181 247.37,-171.81 242.15,-155.13 262,-143 274.44,-135.4 290.08,-130.7 302.9,-127.88"/>
<polygon fill="midnightblue" stroke="midnightblue" points="81.62,-186.89 71.17,-188.62 80.42,-193.78 81.62,-186.89"/>
</g>
<!-- Node29 -->
<g id="node26" class="node">
<title>Node29</title>
<g id="a_node26"><a xlink:href="classModbusSlaveThread.html" target="_top" xlink:title=" ">
<polygon fill="none" stroke="black" points="110,-228.5 110,-247.5 226,-247.5 226,-228.5 110,-228.5"/>
<text text-anchor="middle" x="168" y="-235.5" font-family="Helvetica,sans-Serif" font-size="10.00">ModbusSlaveThread</text>
</a>
</g>
</g>
<!-- Node18&#45;&gt;Node29 -->
<g id="edge25" class="edge">
<title>Node18&#45;&gt;Node29</title>
<path fill="none" stroke="midnightblue" d="M67.76,-194.89C80.7,-200.87 96.06,-207.87 110,-214 121.11,-218.88 133.51,-224.13 143.91,-228.47"/>
<polygon fill="midnightblue" stroke="midnightblue" points="68.95,-191.59 58.41,-190.56 66.01,-197.94 68.95,-191.59"/>
</g>
<!-- Node20&#45;&gt;Node21 -->
<g id="edge16" class="edge">
<title>Node20&#45;&gt;Node21</title>
<path fill="none" stroke="midnightblue" d="M220.02,-124C247.74,-124 280.74,-124 302.69,-124"/>
<polygon fill="midnightblue" stroke="midnightblue" points="219.69,-120.5 209.69,-124 219.69,-127.5 219.69,-120.5"/>
</g>
<!-- Node22 -->
<g id="node19" class="node">
<title>Node22</title>
<g id="a_node19"><a xlink:href="classControllino__1.html" target="_top" xlink:title=" ">
<polygon fill="none" stroke="black" points="445,-228.5 445,-247.5 526,-247.5 526,-228.5 445,-228.5"/>
<text text-anchor="middle" x="485.5" y="-235.5" font-family="Helvetica,sans-Serif" font-size="10.00">Controllino_1</text>
</a>
</g>
</g>
<!-- Node21&#45;&gt;Node22 -->
<g id="edge17" class="edge">
<title>Node21&#45;&gt;Node22</title>
<path fill="none" stroke="midnightblue" d="M363.29,-128.38C374.07,-131.15 385.39,-135.66 394,-143 422.43,-167.26 402.2,-194.02 430,-219 434.32,-222.88 439.49,-225.98 444.88,-228.45"/>
<polygon fill="midnightblue" stroke="midnightblue" points="363.74,-124.9 353.23,-126.23 362.27,-131.74 363.74,-124.9"/>
</g>
<!-- Node23 -->
<g id="node20" class="node">
<title>Node23</title>
<g id="a_node20"><a xlink:href="classControllino__2.html" target="_top" xlink:title=" ">
<polygon fill="none" stroke="black" points="445,-190.5 445,-209.5 526,-209.5 526,-190.5 445,-190.5"/>
<text text-anchor="middle" x="485.5" y="-197.5" font-family="Helvetica,sans-Serif" font-size="10.00">Controllino_2</text>
</a>
</g>
</g>
<!-- Node21&#45;&gt;Node23 -->
<g id="edge18" class="edge">
<title>Node21&#45;&gt;Node23</title>
<path fill="none" stroke="midnightblue" d="M362.83,-130.28C373.31,-133.15 384.57,-137.24 394,-143 413.85,-155.13 410.46,-168.37 430,-181 435.81,-184.75 442.44,-187.86 449.04,-190.41"/>
<polygon fill="midnightblue" stroke="midnightblue" points="363.65,-126.88 353.1,-127.88 361.97,-133.67 363.65,-126.88"/>
</g>
<!-- Node24 -->
<g id="node21" class="node">
<title>Node24</title>
<g id="a_node21"><a xlink:href="classControllino__3.html" target="_top" xlink:title=" ">
<polygon fill="none" stroke="black" points="445,-152.5 445,-171.5 526,-171.5 526,-152.5 445,-152.5"/>
<text text-anchor="middle" x="485.5" y="-159.5" font-family="Helvetica,sans-Serif" font-size="10.00">Controllino_3</text>
</a>
</g>
</g>
<!-- Node21&#45;&gt;Node24 -->
<g id="edge19" class="edge">
<title>Node21&#45;&gt;Node24</title>
<path fill="none" stroke="midnightblue" d="M363.16,-132.35C387.49,-138.29 420.22,-146.29 445.56,-152.48"/>
<polygon fill="midnightblue" stroke="midnightblue" points="363.84,-128.91 353.3,-129.94 362.18,-135.71 363.84,-128.91"/>
</g>
<!-- Node25 -->
<g id="node22" class="node">
<title>Node25</title>
<g id="a_node22"><a xlink:href="classMaxiGauge.html" target="_top" xlink:title=" ">
<polygon fill="none" stroke="black" points="449.5,-114.5 449.5,-133.5 521.5,-133.5 521.5,-114.5 449.5,-114.5"/>
<text text-anchor="middle" x="485.5" y="-121.5" font-family="Helvetica,sans-Serif" font-size="10.00">MaxiGauge</text>
</a>
</g>
</g>
<!-- Node21&#45;&gt;Node25 -->
<g id="edge20" class="edge">
<title>Node21&#45;&gt;Node25</title>
<path fill="none" stroke="midnightblue" d="M363.63,-124C389.16,-124 423.77,-124 449.41,-124"/>
<polygon fill="midnightblue" stroke="midnightblue" points="363.3,-120.5 353.3,-124 363.3,-127.5 363.3,-120.5"/>
</g>
<!-- Node26 -->
<g id="node23" class="node">
<title>Node26</title>
<g id="a_node23"><a xlink:href="classRgaPfeifferQms200.html" target="_top" xlink:title=" ">
<polygon fill="none" stroke="black" points="430,-76.5 430,-95.5 541,-95.5 541,-76.5 430,-76.5"/>
<text text-anchor="middle" x="485.5" y="-83.5" font-family="Helvetica,sans-Serif" font-size="10.00">RgaPfeifferQms200</text>
</a>
</g>
</g>
<!-- Node21&#45;&gt;Node26 -->
<g id="edge21" class="edge">
<title>Node21&#45;&gt;Node26</title>
<path fill="none" stroke="midnightblue" d="M363.16,-115.65C387.49,-109.71 420.22,-101.71 445.56,-95.52"/>
<polygon fill="midnightblue" stroke="midnightblue" points="362.18,-112.29 353.3,-118.06 363.84,-119.09 362.18,-112.29"/>
</g>
<!-- Node27 -->
<g id="node24" class="node">
<title>Node27</title>
<g id="a_node24"><a xlink:href="classTCMuxShield.html" target="_top" xlink:title=" ">
<polygon fill="none" stroke="black" points="445.5,-38.5 445.5,-57.5 525.5,-57.5 525.5,-38.5 445.5,-38.5"/>
<text text-anchor="middle" x="485.5" y="-45.5" font-family="Helvetica,sans-Serif" font-size="10.00">TCMuxShield</text>
</a>
</g>
</g>
<!-- Node21&#45;&gt;Node27 -->
<g id="edge22" class="edge">
<title>Node21&#45;&gt;Node27</title>
<path fill="none" stroke="midnightblue" d="M352.72,-109.01C372.8,-96.72 402.6,-79.39 430,-67 437.67,-63.53 446.17,-60.29 454.14,-57.51"/>
<polygon fill="midnightblue" stroke="midnightblue" points="350.62,-106.2 343.96,-114.44 354.3,-112.15 350.62,-106.2"/>
</g>
<!-- Node28 -->
<g id="node25" class="node">
<title>Node28</title>
<g id="a_node25"><a xlink:href="classTurboPfeifferDCU.html" target="_top" xlink:title=" ">
<polygon fill="none" stroke="black" points="435.5,-0.5 435.5,-19.5 535.5,-19.5 535.5,-0.5 435.5,-0.5"/>
<text text-anchor="middle" x="485.5" y="-7.5" font-family="Helvetica,sans-Serif" font-size="10.00">TurboPfeifferDCU</text>
</a>
</g>
</g>
<!-- Node21&#45;&gt;Node28 -->
<g id="edge23" class="edge">
<title>Node21&#45;&gt;Node28</title>
<path fill="none" stroke="midnightblue" d="M343.53,-106.41C361.75,-85.36 394.9,-50.28 430,-29 436.17,-25.26 443.18,-22.12 450.07,-19.54"/>
<polygon fill="midnightblue" stroke="midnightblue" points="340.68,-104.36 336.88,-114.24 346.02,-108.89 340.68,-104.36"/>
</g>
<!-- Node47 -->
<g id="node27" class="node">
<title>Node47</title>
<g id="a_node27"><a xlink:title=" ">
<polygon fill="none" stroke="#bfbfbf" points="6,-266.5 6,-285.5 68,-285.5 68,-266.5 6,-266.5"/>
<text text-anchor="middle" x="37" y="-273.5" font-family="Helvetica,sans-Serif" font-size="10.00">Runnable</text>
</a>
</g>
</g>
<!-- Node47&#45;&gt;Node1 -->
<g id="edge27" class="edge">
<title>Node47&#45;&gt;Node1</title>
<path fill="none" stroke="midnightblue" d="M78.01,-287.78C96.23,-293.15 117.51,-299.42 134.69,-304.48"/>
<polygon fill="midnightblue" stroke="midnightblue" points="78.83,-284.38 68.24,-284.91 76.85,-291.09 78.83,-284.38"/>
</g>
<!-- Node47&#45;&gt;Node13 -->
<g id="edge28" class="edge">
<title>Node47&#45;&gt;Node13</title>
<path fill="none" stroke="midnightblue" d="M67.6,-290.59C69.82,-291.99 71.98,-293.47 74,-295 92.53,-309.06 90.38,-320.5 110,-333 119.94,-339.33 132.21,-343.78 142.82,-346.76"/>
<polygon fill="midnightblue" stroke="midnightblue" points="69.3,-287.53 58.89,-285.55 65.79,-293.58 69.3,-287.53"/>
</g>
<!-- Node47&#45;&gt;Node21 -->
<g id="edge26" class="edge">
<title>Node47&#45;&gt;Node21</title>
<path fill="none" stroke="midnightblue" d="M78.2,-283.69C119.87,-289.22 184.59,-290.68 226,-257 267.22,-223.47 224.03,-180.16 262,-143 272.84,-132.39 289.26,-127.65 302.88,-125.56"/>
<polygon fill="midnightblue" stroke="midnightblue" points="78.54,-280.2 68.13,-282.21 77.52,-287.12 78.54,-280.2"/>
</g>
<!-- Node47&#45;&gt;Node29 -->
<g id="edge29" class="edge">
<title>Node47&#45;&gt;Node29</title>
<path fill="none" stroke="midnightblue" d="M78.01,-264.22C96.23,-258.85 117.51,-252.58 134.69,-247.52"/>
<polygon fill="midnightblue" stroke="midnightblue" points="76.85,-260.91 68.24,-267.09 78.83,-267.62 76.85,-260.91"/>
</g>
<!-- Node55 -->
<g id="node28" class="node">
<title>Node55</title>
<g id="a_node28"><a xlink:title=" ">
<polygon fill="none" stroke="#bfbfbf" points="12,-304.5 12,-323.5 62,-323.5 62,-304.5 12,-304.5"/>
<text text-anchor="middle" x="37" y="-311.5" font-family="Helvetica,sans-Serif" font-size="10.00">JFrame</text>
</a>
</g>
</g>
<!-- Node55&#45;&gt;Node1 -->
<g id="edge30" class="edge">
<title>Node55&#45;&gt;Node1</title>
<path fill="none" stroke="midnightblue" d="M72.33,-314C90.33,-314 112.36,-314 130.65,-314"/>
<polygon fill="midnightblue" stroke="midnightblue" points="72.26,-310.5 62.26,-314 72.26,-317.5 72.26,-310.5"/>
</g>
<!-- Node55&#45;&gt;Node13 -->
<g id="edge31" class="edge">
<title>Node55&#45;&gt;Node13</title>
<path fill="none" stroke="midnightblue" d="M72,-324.02C94.29,-330.58 122.88,-339 142.84,-344.88"/>
<polygon fill="midnightblue" stroke="midnightblue" points="72.85,-320.62 62.26,-321.15 70.87,-327.33 72.85,-320.62"/>
</g>
</g>
</svg>
