<?xml version="1.0" encoding="UTF-8" standalone="no"?>
<!DOCTYPE svg PUBLIC "-//W3C//DTD SVG 1.1//EN"
 "http://www.w3.org/Graphics/SVG/1.1/DTD/svg11.dtd">
<!-- Generated by graphviz version 2.50.0 (0)
 -->
<!-- Title: GlgChildGui Pages: 1 -->
<svg width="388pt" height="140pt"
 viewBox="0.00 0.00 388.00 140.00" xmlns="http://www.w3.org/2000/svg" xmlns:xlink="http://www.w3.org/1999/xlink">
<g id="graph0" class="graph" transform="scale(1 1) rotate(0) translate(4 136)">
<title>GlgChildGui</title>
<polygon fill="white" stroke="transparent" points="-4,4 -4,-136 384,-136 384,4 -4,4"/>
<!-- Node1 -->
<g id="node1" class="node">
<title>Node1</title>
<g id="a_node1"><a xlink:title=" ">
<polygon fill="#bfbfbf" stroke="black" points="152.5,-56.5 152.5,-75.5 226.5,-75.5 226.5,-56.5 152.5,-56.5"/>
<text text-anchor="middle" x="189.5" y="-63.5" font-family="Helvetica,sans-Serif" font-size="10.00">GlgChildGui</text>
</a>
</g>
</g>
<!-- Node6 -->
<g id="node6" class="node">
<title>Node6</title>
<g id="a_node6"><a xlink:href="classGlgDryGui.html" target="_top" xlink:title=" ">
<polygon fill="white" stroke="black" points="0,-0.5 0,-19.5 67,-19.5 67,-0.5 0,-0.5"/>
<text text-anchor="middle" x="33.5" y="-7.5" font-family="Helvetica,sans-Serif" font-size="10.00">GlgDryGui</text>
</a>
</g>
</g>
<!-- Node1&#45;&gt;Node6 -->
<g id="edge5" class="edge">
<title>Node1&#45;&gt;Node6</title>
<path fill="none" stroke="midnightblue" d="M155.33,-53.17C125.96,-43 84.3,-28.59 58.1,-19.52"/>
<polygon fill="midnightblue" stroke="midnightblue" points="154.19,-56.48 164.78,-56.44 156.48,-49.86 154.19,-56.48"/>
</g>
<!-- Node7 -->
<g id="node7" class="node">
<title>Node7</title>
<g id="a_node7"><a xlink:href="classGlgFlowMeterGui.html" target="_top" xlink:title=" ">
<polygon fill="white" stroke="black" points="85,-0.5 85,-19.5 186,-19.5 186,-0.5 85,-0.5"/>
<text text-anchor="middle" x="135.5" y="-7.5" font-family="Helvetica,sans-Serif" font-size="10.00">GlgFlowMeterGui</text>
</a>
</g>
</g>
<!-- Node1&#45;&gt;Node7 -->
<g id="edge6" class="edge">
<title>Node1&#45;&gt;Node7</title>
<path fill="none" stroke="midnightblue" d="M173.5,-49C163.93,-39.43 152.14,-27.64 144.25,-19.75"/>
<polygon fill="midnightblue" stroke="midnightblue" points="171.04,-51.49 180.58,-56.08 175.99,-46.54 171.04,-51.49"/>
</g>
<!-- Node8 -->
<g id="node8" class="node">
<title>Node8</title>
<g id="a_node8"><a xlink:href="classGlgGaugeGui.html" target="_top" xlink:title=" ">
<polygon fill="white" stroke="black" points="204,-0.5 204,-19.5 285,-19.5 285,-0.5 204,-0.5"/>
<text text-anchor="middle" x="244.5" y="-7.5" font-family="Helvetica,sans-Serif" font-size="10.00">GlgGaugeGui</text>
</a>
</g>
</g>
<!-- Node1&#45;&gt;Node8 -->
<g id="edge7" class="edge">
<title>Node1&#45;&gt;Node8</title>
<path fill="none" stroke="midnightblue" d="M205.79,-49C215.54,-39.43 227.55,-27.64 235.59,-19.75"/>
<polygon fill="midnightblue" stroke="midnightblue" points="203.27,-46.58 198.58,-56.08 208.17,-51.57 203.27,-46.58"/>
</g>
<!-- Node9 -->
<g id="node9" class="node">
<title>Node9</title>
<g id="a_node9"><a xlink:href="classGlgValveGui.html" target="_top" xlink:title=" ">
<polygon fill="white" stroke="black" points="303,-0.5 303,-19.5 380,-19.5 380,-0.5 303,-0.5"/>
<text text-anchor="middle" x="341.5" y="-7.5" font-family="Helvetica,sans-Serif" font-size="10.00">GlgValveGui</text>
</a>
</g>
</g>
<!-- Node1&#45;&gt;Node9 -->
<g id="edge8" class="edge">
<title>Node1&#45;&gt;Node9</title>
<path fill="none" stroke="midnightblue" d="M223.17,-53.04C251.77,-42.88 292.11,-28.55 317.53,-19.52"/>
<polygon fill="midnightblue" stroke="midnightblue" points="221.84,-49.8 213.58,-56.44 224.18,-56.39 221.84,-49.8"/>
</g>
<!-- Node2 -->
<g id="node2" class="node">
<title>Node2</title>
<g id="a_node2"><a xlink:title=" ">
<polygon fill="white" stroke="#bfbfbf" points="40.5,-112.5 40.5,-131.5 90.5,-131.5 90.5,-112.5 40.5,-112.5"/>
<text text-anchor="middle" x="65.5" y="-119.5" font-family="Helvetica,sans-Serif" font-size="10.00">JFrame</text>
</a>
</g>
</g>
<!-- Node2&#45;&gt;Node1 -->
<g id="edge1" class="edge">
<title>Node2&#45;&gt;Node1</title>
<path fill="none" stroke="midnightblue" d="M94.51,-108.37C117.73,-98.26 149.66,-84.35 169.94,-75.52"/>
<polygon fill="midnightblue" stroke="midnightblue" points="92.92,-105.24 85.15,-112.44 95.71,-111.66 92.92,-105.24"/>
</g>
<!-- Node3 -->
<g id="node3" class="node">
<title>Node3</title>
<g id="a_node3"><a xlink:href="interfaceChannelList.html" target="_top" xlink:title=" ">
<polygon fill="white" stroke="black" points="108.5,-112.5 108.5,-131.5 182.5,-131.5 182.5,-112.5 108.5,-112.5"/>
<text text-anchor="middle" x="145.5" y="-119.5" font-family="Helvetica,sans-Serif" font-size="10.00">ChannelList</text>
</a>
</g>
</g>
<!-- Node3&#45;&gt;Node1 -->
<g id="edge2" class="edge">
<title>Node3&#45;&gt;Node1</title>
<path fill="none" stroke="midnightblue" d="M159.23,-104.14C166.9,-94.74 176.13,-83.4 182.37,-75.75"/>
<polygon fill="midnightblue" stroke="midnightblue" points="156.37,-102.12 152.77,-112.08 161.8,-106.54 156.37,-102.12"/>
</g>
<!-- Node4 -->
<g id="node4" class="node">
<title>Node4</title>
<g id="a_node4"><a xlink:href="interfaceDataTypes.html" target="_top" xlink:title=" ">
<polygon fill="white" stroke="black" points="200.5,-112.5 200.5,-131.5 268.5,-131.5 268.5,-112.5 200.5,-112.5"/>
<text text-anchor="middle" x="234.5" y="-119.5" font-family="Helvetica,sans-Serif" font-size="10.00">DataTypes</text>
</a>
</g>
</g>
<!-- Node4&#45;&gt;Node1 -->
<g id="edge3" class="edge">
<title>Node4&#45;&gt;Node1</title>
<path fill="none" stroke="midnightblue" d="M220.45,-104.14C212.61,-94.74 203.17,-83.4 196.79,-75.75"/>
<polygon fill="midnightblue" stroke="midnightblue" points="217.98,-106.64 227.07,-112.08 223.36,-102.16 217.98,-106.64"/>
</g>
<!-- Node5 -->
<g id="node5" class="node">
<title>Node5</title>
<g id="a_node5"><a xlink:title=" ">
<polygon fill="white" stroke="#bfbfbf" points="286.5,-112.5 286.5,-131.5 348.5,-131.5 348.5,-112.5 286.5,-112.5"/>
<text text-anchor="middle" x="317.5" y="-119.5" font-family="Helvetica,sans-Serif" font-size="10.00">Runnable</text>
</a>
</g>
</g>
<!-- Node5&#45;&gt;Node1 -->
<g id="edge4" class="edge">
<title>Node5&#45;&gt;Node1</title>
<path fill="none" stroke="midnightblue" d="M287.88,-108.5C263.88,-98.38 230.72,-84.39 209.69,-75.52"/>
<polygon fill="midnightblue" stroke="midnightblue" points="286.64,-111.78 297.22,-112.44 289.36,-105.33 286.64,-111.78"/>
</g>
</g>
</svg>
