<?xml version="1.0" encoding="UTF-8" standalone="no"?>
<!DOCTYPE svg PUBLIC "-//W3C//DTD SVG 1.1//EN"
 "http://www.w3.org/Graphics/SVG/1.1/DTD/svg11.dtd">
<!-- Generated by graphviz version 2.50.0 (0)
 -->
<!-- Title: DataManager Pages: 1 -->
<svg width="505pt" height="196pt"
 viewBox="0.00 0.00 505.00 196.00" xmlns="http://www.w3.org/2000/svg" xmlns:xlink="http://www.w3.org/1999/xlink">
<g id="graph0" class="graph" transform="scale(1 1) rotate(0) translate(4 192)">
<title>DataManager</title>
<!-- Node1 -->
<g id="node1" class="node">
<title>Node1</title>
<g id="a_node1"><a xlink:title=" ">
<polygon fill="#bfbfbf" stroke="black" points="190,-112.5 190,-131.5 273,-131.5 273,-112.5 190,-112.5"/>
<text text-anchor="middle" x="231.5" y="-119.5" font-family="Helvetica,sans-Serif" font-size="10.00">DataManager</text>
</a>
</g>
</g>
<!-- Node3 -->
<g id="node3" class="node">
<title>Node3</title>
<g id="a_node3"><a xlink:href="classDevice.html" target="_top" xlink:title=" ">
<polygon fill="none" stroke="black" points="206.5,-56.5 206.5,-75.5 256.5,-75.5 256.5,-56.5 206.5,-56.5"/>
<text text-anchor="middle" x="231.5" y="-63.5" font-family="Helvetica,sans-Serif" font-size="10.00">Device</text>
</a>
</g>
</g>
<!-- Node1&#45;&gt;Node3 -->
<g id="edge2" class="edge">
<title>Node1&#45;&gt;Node3</title>
<path fill="none" stroke="midnightblue" d="M231.5,-101.8C231.5,-92.91 231.5,-82.78 231.5,-75.75"/>
<polygon fill="midnightblue" stroke="midnightblue" points="228,-102.08 231.5,-112.08 235,-102.08 228,-102.08"/>
</g>
<!-- Node2 -->
<g id="node2" class="node">
<title>Node2</title>
<g id="a_node2"><a xlink:href="interfaceDataTypes.html" target="_top" xlink:title=" ">
<polygon fill="none" stroke="black" points="197.5,-168.5 197.5,-187.5 265.5,-187.5 265.5,-168.5 197.5,-168.5"/>
<text text-anchor="middle" x="231.5" y="-175.5" font-family="Helvetica,sans-Serif" font-size="10.00">DataTypes</text>
</a>
</g>
</g>
<!-- Node2&#45;&gt;Node1 -->
<g id="edge1" class="edge">
<title>Node2&#45;&gt;Node1</title>
<path fill="none" stroke="midnightblue" d="M231.5,-157.8C231.5,-148.91 231.5,-138.78 231.5,-131.75"/>
<polygon fill="midnightblue" stroke="midnightblue" points="228,-158.08 231.5,-168.08 235,-158.08 228,-158.08"/>
</g>
<!-- Node4 -->
<g id="node4" class="node">
<title>Node4</title>
<g id="a_node4"><a xlink:href="classControllino__1.html" target="_top" xlink:title=" ">
<polygon fill="none" stroke="black" points="0,-0.5 0,-19.5 81,-19.5 81,-0.5 0,-0.5"/>
<text text-anchor="middle" x="40.5" y="-7.5" font-family="Helvetica,sans-Serif" font-size="10.00">Controllino_1</text>
</a>
</g>
</g>
<!-- Node3&#45;&gt;Node4 -->
<g id="edge3" class="edge">
<title>Node3&#45;&gt;Node4</title>
<path fill="none" stroke="midnightblue" d="M196.06,-54.98C160.01,-44.79 104.73,-29.16 70.7,-19.54"/>
<polygon fill="midnightblue" stroke="midnightblue" points="195.56,-58.48 206.14,-57.83 197.47,-51.74 195.56,-58.48"/>
</g>
<!-- Node5 -->
<g id="node5" class="node">
<title>Node5</title>
<g id="a_node5"><a xlink:href="classFlowMeterModbusMaster.html" target="_top" xlink:title=" ">
<polygon fill="none" stroke="black" points="99.5,-0.5 99.5,-19.5 239.5,-19.5 239.5,-0.5 99.5,-0.5"/>
<text text-anchor="middle" x="169.5" y="-7.5" font-family="Helvetica,sans-Serif" font-size="10.00">FlowMeterModbusMaster</text>
</a>
</g>
</g>
<!-- Node3&#45;&gt;Node5 -->
<g id="edge4" class="edge">
<title>Node3&#45;&gt;Node5</title>
<path fill="none" stroke="midnightblue" d="M213.75,-49.54C202.69,-39.91 188.87,-27.87 179.64,-19.83"/>
<polygon fill="midnightblue" stroke="midnightblue" points="211.7,-52.4 221.54,-56.32 216.3,-47.12 211.7,-52.4"/>
</g>
<!-- Node6 -->
<g id="node6" class="node">
<title>Node6</title>
<g id="a_node6"><a xlink:href="classMaxiGauge.html" target="_top" xlink:title=" ">
<polygon fill="none" stroke="black" points="257.5,-0.5 257.5,-19.5 329.5,-19.5 329.5,-0.5 257.5,-0.5"/>
<text text-anchor="middle" x="293.5" y="-7.5" font-family="Helvetica,sans-Serif" font-size="10.00">MaxiGauge</text>
</a>
</g>
</g>
<!-- Node3&#45;&gt;Node6 -->
<g id="edge5" class="edge">
<title>Node3&#45;&gt;Node6</title>
<path fill="none" stroke="midnightblue" d="M249.25,-49.54C260.31,-39.91 274.13,-27.87 283.36,-19.83"/>
<polygon fill="midnightblue" stroke="midnightblue" points="246.7,-47.12 241.46,-56.32 251.3,-52.4 246.7,-47.12"/>
</g>
<!-- Node7 -->
<g id="node7" class="node">
<title>Node7</title>
<g id="a_node7"><a xlink:href="classVentingOperationController.html" target="_top" xlink:title=" ">
<polygon fill="none" stroke="black" points="348,-0.5 348,-19.5 497,-19.5 497,-0.5 348,-0.5"/>
<text text-anchor="middle" x="422.5" y="-7.5" font-family="Helvetica,sans-Serif" font-size="10.00">VentingOperationController</text>
</a>
</g>
</g>
<!-- Node3&#45;&gt;Node7 -->
<g id="edge6" class="edge">
<title>Node3&#45;&gt;Node7</title>
<path fill="none" stroke="midnightblue" d="M266.94,-54.98C302.99,-44.79 358.27,-29.16 392.3,-19.54"/>
<polygon fill="midnightblue" stroke="midnightblue" points="265.53,-51.74 256.86,-57.83 267.44,-58.48 265.53,-51.74"/>
</g>
</g>
</svg>
