<?xml version="1.0" encoding="UTF-8" standalone="no"?>
<!DOCTYPE svg PUBLIC "-//W3C//DTD SVG 1.1//EN"
 "http://www.w3.org/Graphics/SVG/1.1/DTD/svg11.dtd">
<!-- Generated by graphviz version 2.50.0 (0)
 -->
<!-- Title: Graphical Class Hierarchy Pages: 1 -->
<svg width="556pt" height="359pt"
 viewBox="0.00 0.00 556.00 359.22" xmlns="http://www.w3.org/2000/svg" xmlns:xlink="http://www.w3.org/1999/xlink">
<g id="graph0" class="graph" transform="scale(1 1) rotate(0) translate(4 355.22)">
<title>Graphical Class Hierarchy</title>
<!-- Node0 -->
<g id="node1" class="node">
<title>Node0</title>
<g id="a_node1"><a xlink:href="interfaceChannelList.html" target="_top" xlink:title=" ">
<polygon fill="none" stroke="black" points="0,-293.72 0,-312.72 74,-312.72 74,-293.72 0,-293.72"/>
<text text-anchor="middle" x="37" y="-300.72" font-family="Helvetica,sans-Serif" font-size="10.00">ChannelList</text>
</a>
</g>
</g>
<!-- Node1 -->
<g id="node2" class="node">
<title>Node1</title>
<g id="a_node2"><a xlink:href="classGlgChildGui.html" target="_top" xlink:title=" ">
<polygon fill="none" stroke="black" points="131,-255.72 131,-274.72 205,-274.72 205,-255.72 131,-255.72"/>
<text text-anchor="middle" x="168" y="-262.72" font-family="Helvetica,sans-Serif" font-size="10.00">GlgChildGui</text>
</a>
</g>
</g>
<!-- Node0&#45;&gt;Node1 -->
<g id="edge1" class="edge">
<title>Node0&#45;&gt;Node1</title>
<path fill="none" stroke="midnightblue" d="M80.55,-290.69C98.1,-285.52 118.11,-279.63 134.46,-274.81"/>
<polygon fill="midnightblue" stroke="midnightblue" points="79.16,-287.45 70.55,-293.64 81.13,-294.17 79.16,-287.45"/>
</g>
<!-- Node6 -->
<g id="node7" class="node">
<title>Node6</title>
<g id="a_node7"><a xlink:href="classGlgGui.html" target="_top" xlink:title=" ">
<polygon fill="none" stroke="black" points="143,-293.72 143,-312.72 193,-312.72 193,-293.72 143,-293.72"/>
<text text-anchor="middle" x="168" y="-300.72" font-family="Helvetica,sans-Serif" font-size="10.00">GlgGui</text>
</a>
</g>
</g>
<!-- Node0&#45;&gt;Node6 -->
<g id="edge6" class="edge">
<title>Node0&#45;&gt;Node6</title>
<path fill="none" stroke="midnightblue" d="M84.35,-303.22C104.12,-303.22 126.37,-303.22 142.8,-303.22"/>
<polygon fill="midnightblue" stroke="midnightblue" points="84.28,-299.72 74.28,-303.22 84.28,-306.72 84.28,-299.72"/>
</g>
<!-- Node2 -->
<g id="node3" class="node">
<title>Node2</title>
<g id="a_node3"><a xlink:href="classGlgDryGui.html" target="_top" xlink:title=" ">
<polygon fill="none" stroke="black" points="279,-217.72 279,-236.72 346,-236.72 346,-217.72 279,-217.72"/>
<text text-anchor="middle" x="312.5" y="-224.72" font-family="Helvetica,sans-Serif" font-size="10.00">GlgDryGui</text>
</a>
</g>
</g>
<!-- Node1&#45;&gt;Node2 -->
<g id="edge2" class="edge">
<title>Node1&#45;&gt;Node2</title>
<path fill="none" stroke="midnightblue" d="M214.9,-252.98C235.78,-247.42 260,-240.96 278.96,-235.9"/>
<polygon fill="midnightblue" stroke="midnightblue" points="213.72,-249.68 204.96,-255.64 215.52,-256.44 213.72,-249.68"/>
</g>
<!-- Node3 -->
<g id="node4" class="node">
<title>Node3</title>
<g id="a_node4"><a xlink:href="classGlgFlowMeterGui.html" target="_top" xlink:title=" ">
<polygon fill="none" stroke="black" points="262,-331.72 262,-350.72 363,-350.72 363,-331.72 262,-331.72"/>
<text text-anchor="middle" x="312.5" y="-338.72" font-family="Helvetica,sans-Serif" font-size="10.00">GlgFlowMeterGui</text>
</a>
</g>
</g>
<!-- Node1&#45;&gt;Node3 -->
<g id="edge3" class="edge">
<title>Node1&#45;&gt;Node3</title>
<path fill="none" stroke="midnightblue" d="M214.6,-278.12C218.57,-279.93 222.44,-281.95 226,-284.22 245.62,-296.72 242.66,-309.29 262,-322.22 267.59,-325.96 274.01,-329.11 280.34,-331.7"/>
<polygon fill="midnightblue" stroke="midnightblue" points="215.77,-274.82 205.19,-274.31 213.14,-281.31 215.77,-274.82"/>
</g>
<!-- Node4 -->
<g id="node5" class="node">
<title>Node4</title>
<g id="a_node5"><a xlink:href="classGlgGaugeGui.html" target="_top" xlink:title=" ">
<polygon fill="none" stroke="black" points="272,-293.72 272,-312.72 353,-312.72 353,-293.72 272,-293.72"/>
<text text-anchor="middle" x="312.5" y="-300.72" font-family="Helvetica,sans-Serif" font-size="10.00">GlgGaugeGui</text>
</a>
</g>
</g>
<!-- Node1&#45;&gt;Node4 -->
<g id="edge4" class="edge">
<title>Node1&#45;&gt;Node4</title>
<path fill="none" stroke="midnightblue" d="M214.65,-277.4C234.36,-282.65 257.07,-288.71 275.55,-293.64"/>
<polygon fill="midnightblue" stroke="midnightblue" points="215.52,-274.01 204.96,-274.81 213.72,-280.77 215.52,-274.01"/>
</g>
<!-- Node5 -->
<g id="node6" class="node">
<title>Node5</title>
<g id="a_node6"><a xlink:href="classGlgValveGui.html" target="_top" xlink:title=" ">
<polygon fill="none" stroke="black" points="274,-255.72 274,-274.72 351,-274.72 351,-255.72 274,-255.72"/>
<text text-anchor="middle" x="312.5" y="-262.72" font-family="Helvetica,sans-Serif" font-size="10.00">GlgValveGui</text>
</a>
</g>
</g>
<!-- Node1&#45;&gt;Node5 -->
<g id="edge5" class="edge">
<title>Node1&#45;&gt;Node5</title>
<path fill="none" stroke="midnightblue" d="M215.54,-265.22C234.48,-265.22 256.09,-265.22 274,-265.22"/>
<polygon fill="midnightblue" stroke="midnightblue" points="215.33,-261.72 205.33,-265.22 215.33,-268.72 215.33,-261.72"/>
</g>
<!-- Node11 -->
<g id="node8" class="node">
<title>Node11</title>
<g id="a_node8"><a xlink:href="interfaceDataTypes.html" target="_top" xlink:title=" ">
<polygon fill="none" stroke="black" points="3,-179.72 3,-198.72 71,-198.72 71,-179.72 3,-179.72"/>
<text text-anchor="middle" x="37" y="-186.72" font-family="Helvetica,sans-Serif" font-size="10.00">DataTypes</text>
</a>
</g>
</g>
<!-- Node11&#45;&gt;Node1 -->
<g id="edge15" class="edge">
<title>Node11&#45;&gt;Node1</title>
<path fill="none" stroke="midnightblue" d="M57.62,-205.27C71.66,-216.27 91.3,-230.71 110,-241.22 119.73,-246.7 130.97,-251.68 140.87,-255.67"/>
<polygon fill="midnightblue" stroke="midnightblue" points="59.67,-202.43 49.67,-198.93 55.31,-207.9 59.67,-202.43"/>
</g>
<!-- Node11&#45;&gt;Node6 -->
<g id="edge16" class="edge">
<title>Node11&#45;&gt;Node6</title>
<path fill="none" stroke="midnightblue" d="M49.75,-207.22C65.99,-231.65 95.01,-273.48 110,-284.22 119.66,-291.15 132.02,-295.68 142.76,-298.57"/>
<polygon fill="midnightblue" stroke="midnightblue" points="52.63,-205.24 44.2,-198.82 46.79,-209.09 52.63,-205.24"/>
</g>
<!-- Node12 -->
<g id="node9" class="node">
<title>Node12</title>
<g id="a_node9"><a xlink:href="classDataElement.html" target="_top" xlink:title=" ">
<polygon fill="none" stroke="black" points="128,-141.72 128,-160.72 208,-160.72 208,-141.72 128,-141.72"/>
<text text-anchor="middle" x="168" y="-148.72" font-family="Helvetica,sans-Serif" font-size="10.00">DataElement</text>
</a>
</g>
</g>
<!-- Node11&#45;&gt;Node12 -->
<g id="edge7" class="edge">
<title>Node11&#45;&gt;Node12</title>
<path fill="none" stroke="midnightblue" d="M80.55,-176.69C98.1,-171.52 118.11,-165.63 134.46,-160.81"/>
<polygon fill="midnightblue" stroke="midnightblue" points="79.16,-173.45 70.55,-179.64 81.13,-180.17 79.16,-173.45"/>
</g>
<!-- Node13 -->
<g id="node10" class="node">
<title>Node13</title>
<g id="a_node10"><a xlink:href="classDataManager.html" target="_top" xlink:title=" ">
<polygon fill="none" stroke="black" points="126.5,-179.72 126.5,-198.72 209.5,-198.72 209.5,-179.72 126.5,-179.72"/>
<text text-anchor="middle" x="168" y="-186.72" font-family="Helvetica,sans-Serif" font-size="10.00">DataManager</text>
</a>
</g>
</g>
<!-- Node11&#45;&gt;Node13 -->
<g id="edge8" class="edge">
<title>Node11&#45;&gt;Node13</title>
<path fill="none" stroke="midnightblue" d="M81.39,-189.22C95.82,-189.22 111.82,-189.22 126.05,-189.22"/>
<polygon fill="midnightblue" stroke="midnightblue" points="81.22,-185.72 71.22,-189.22 81.22,-192.72 81.22,-185.72"/>
</g>
<!-- Node14 -->
<g id="node11" class="node">
<title>Node14</title>
<g id="a_node11"><a xlink:href="classDevice.html" target="_top" xlink:title=" ">
<polygon fill="none" stroke="black" points="287.5,-179.72 287.5,-198.72 337.5,-198.72 337.5,-179.72 287.5,-179.72"/>
<text text-anchor="middle" x="312.5" y="-186.72" font-family="Helvetica,sans-Serif" font-size="10.00">Device</text>
</a>
</g>
</g>
<!-- Node11&#45;&gt;Node14 -->
<g id="edge14" class="edge">
<title>Node11&#45;&gt;Node14</title>
<path fill="none" stroke="midnightblue" d="M76.92,-201.45C87.54,-204.25 99.12,-206.81 110,-208.22 161.13,-214.86 174.75,-213.85 226,-208.22 247.01,-205.92 270.41,-200.51 287.41,-196.06"/>
<polygon fill="midnightblue" stroke="midnightblue" points="77.66,-198.02 67.09,-198.73 75.79,-204.77 77.66,-198.02"/>
</g>
<!-- Node19 -->
<g id="node16" class="node">
<title>Node19</title>
<g id="a_node16"><a xlink:href="classModbusSlaveThread.html" target="_top" xlink:title=" ">
<polygon fill="none" stroke="black" points="110,-65.72 110,-84.72 226,-84.72 226,-65.72 110,-65.72"/>
<text text-anchor="middle" x="168" y="-72.72" font-family="Helvetica,sans-Serif" font-size="10.00">ModbusSlaveThread</text>
</a>
</g>
</g>
<!-- Node11&#45;&gt;Node19 -->
<g id="edge17" class="edge">
<title>Node11&#45;&gt;Node19</title>
<path fill="none" stroke="midnightblue" d="M47.59,-170.58C59.48,-149.2 81.69,-114.52 110,-94.22 115.34,-90.4 121.5,-87.3 127.76,-84.81"/>
<polygon fill="midnightblue" stroke="midnightblue" points="44.38,-169.15 42.73,-179.62 50.54,-172.46 44.38,-169.15"/>
</g>
<!-- Node20 -->
<g id="node17" class="node">
<title>Node20</title>
<g id="a_node17"><a xlink:href="classOperation.html" target="_top" xlink:title=" ">
<polygon fill="none" stroke="black" points="135.5,-103.72 135.5,-122.72 200.5,-122.72 200.5,-103.72 135.5,-103.72"/>
<text text-anchor="middle" x="168" y="-110.72" font-family="Helvetica,sans-Serif" font-size="10.00">Operation</text>
</a>
</g>
</g>
<!-- Node11&#45;&gt;Node20 -->
<g id="edge18" class="edge">
<title>Node11&#45;&gt;Node20</title>
<path fill="none" stroke="midnightblue" d="M55.27,-172.69C69.14,-160.15 89.6,-143.25 110,-132.22 117.89,-127.96 126.91,-124.41 135.42,-121.59"/>
<polygon fill="midnightblue" stroke="midnightblue" points="52.88,-170.13 47.92,-179.49 57.64,-175.27 52.88,-170.13"/>
</g>
<!-- Node13&#45;&gt;Node14 -->
<g id="edge9" class="edge">
<title>Node13&#45;&gt;Node14</title>
<path fill="none" stroke="midnightblue" d="M220.08,-189.22C242.94,-189.22 268.8,-189.22 287.18,-189.22"/>
<polygon fill="midnightblue" stroke="midnightblue" points="219.83,-185.72 209.83,-189.22 219.83,-192.72 219.83,-185.72"/>
</g>
<!-- Node15 -->
<g id="node12" class="node">
<title>Node15</title>
<g id="a_node12"><a xlink:href="classControllino__1.html" target="_top" xlink:title=" ">
<polygon fill="none" stroke="black" points="433,-236.72 433,-255.72 514,-255.72 514,-236.72 433,-236.72"/>
<text text-anchor="middle" x="473.5" y="-243.72" font-family="Helvetica,sans-Serif" font-size="10.00">Controllino_1</text>
</a>
</g>
</g>
<!-- Node14&#45;&gt;Node15 -->
<g id="edge10" class="edge">
<title>Node14&#45;&gt;Node15</title>
<path fill="none" stroke="midnightblue" d="M347.11,-201.5C352.47,-203.64 357.92,-205.92 363,-208.22 379.47,-215.7 382.13,-220.69 399,-227.22 409.69,-231.36 421.61,-234.88 432.68,-237.73"/>
<polygon fill="midnightblue" stroke="midnightblue" points="348.24,-198.19 337.66,-197.84 345.71,-204.72 348.24,-198.19"/>
</g>
<!-- Node16 -->
<g id="node13" class="node">
<title>Node16</title>
<g id="a_node13"><a xlink:href="classFlowMeterModbusMaster.html" target="_top" xlink:title=" ">
<polygon fill="none" stroke="black" points="403.5,-198.72 403.5,-217.72 543.5,-217.72 543.5,-198.72 403.5,-198.72"/>
<text text-anchor="middle" x="473.5" y="-205.72" font-family="Helvetica,sans-Serif" font-size="10.00">FlowMeterModbusMaster</text>
</a>
</g>
</g>
<!-- Node14&#45;&gt;Node16 -->
<g id="edge11" class="edge">
<title>Node14&#45;&gt;Node16</title>
<path fill="none" stroke="midnightblue" d="M347.75,-193.32C364.03,-195.26 384.11,-197.66 403.36,-199.96"/>
<polygon fill="midnightblue" stroke="midnightblue" points="347.99,-189.82 337.65,-192.11 347.16,-196.77 347.99,-189.82"/>
</g>
<!-- Node17 -->
<g id="node14" class="node">
<title>Node17</title>
<g id="a_node14"><a xlink:href="classMaxiGauge.html" target="_top" xlink:title=" ">
<polygon fill="none" stroke="black" points="437.5,-160.72 437.5,-179.72 509.5,-179.72 509.5,-160.72 437.5,-160.72"/>
<text text-anchor="middle" x="473.5" y="-167.72" font-family="Helvetica,sans-Serif" font-size="10.00">MaxiGauge</text>
</a>
</g>
</g>
<!-- Node14&#45;&gt;Node17 -->
<g id="edge12" class="edge">
<title>Node14&#45;&gt;Node17</title>
<path fill="none" stroke="midnightblue" d="M347.62,-185.15C374.13,-181.98 410.76,-177.6 437.49,-174.41"/>
<polygon fill="midnightblue" stroke="midnightblue" points="347.16,-181.68 337.65,-186.34 347.99,-188.63 347.16,-181.68"/>
</g>
<!-- Node18 -->
<g id="node15" class="node">
<title>Node18</title>
<g id="a_node15"><a xlink:href="classVentingOperationController.html" target="_top" xlink:title=" ">
<polygon fill="none" stroke="black" points="399,-122.72 399,-141.72 548,-141.72 548,-122.72 399,-122.72"/>
<text text-anchor="middle" x="473.5" y="-129.72" font-family="Helvetica,sans-Serif" font-size="10.00">VentingOperationController</text>
</a>
</g>
</g>
<!-- Node14&#45;&gt;Node18 -->
<g id="edge13" class="edge">
<title>Node14&#45;&gt;Node18</title>
<path fill="none" stroke="midnightblue" d="M341.57,-175.34C358.03,-167.56 379.38,-158.07 399,-151.22 409.08,-147.71 420.14,-144.52 430.55,-141.79"/>
<polygon fill="midnightblue" stroke="midnightblue" points="339.99,-172.21 332.49,-179.69 343.02,-178.53 339.99,-172.21"/>
</g>
<!-- Node34 -->
<g id="node18" class="node">
<title>Node34</title>
<g id="a_node18"><a xlink:title=" ">
<polygon fill="none" stroke="#bfbfbf" points="6,-84.72 6,-103.72 68,-103.72 68,-84.72 6,-84.72"/>
<text text-anchor="middle" x="37" y="-91.72" font-family="Helvetica,sans-Serif" font-size="10.00">Runnable</text>
</a>
</g>
</g>
<!-- Node34&#45;&gt;Node1 -->
<g id="edge20" class="edge">
<title>Node34&#45;&gt;Node1</title>
<path fill="none" stroke="midnightblue" d="M47.96,-112.68C60.9,-135.95 84.81,-176.71 110,-208.22 124.33,-226.15 143.69,-244.5 155.76,-255.38"/>
<polygon fill="midnightblue" stroke="midnightblue" points="51,-110.94 43.12,-103.86 44.87,-114.31 51,-110.94"/>
</g>
<!-- Node34&#45;&gt;Node6 -->
<g id="edge21" class="edge">
<title>Node34&#45;&gt;Node6</title>
<path fill="none" stroke="midnightblue" d="M47.87,-113.19C55.56,-128.38 66.2,-150.35 74,-170.22 93.42,-219.68 72.73,-246.36 110,-284.22 118.71,-293.07 131.64,-297.8 142.98,-300.32"/>
<polygon fill="midnightblue" stroke="midnightblue" points="50.77,-111.18 43.1,-103.87 44.54,-114.37 50.77,-111.18"/>
</g>
<!-- Node34&#45;&gt;Node14 -->
<g id="edge19" class="edge">
<title>Node34&#45;&gt;Node14</title>
<path fill="none" stroke="midnightblue" d="M48.74,-76.19C60.93,-57.67 82.72,-29.96 110,-18.22 157.36,2.15 182.14,8.88 226,-18.22 286.14,-55.39 305.39,-149.09 310.16,-179.52"/>
<polygon fill="midnightblue" stroke="midnightblue" points="45.77,-74.34 43.4,-84.67 51.69,-78.07 45.77,-74.34"/>
</g>
<!-- Node34&#45;&gt;Node19 -->
<g id="edge22" class="edge">
<title>Node34&#45;&gt;Node19</title>
<path fill="none" stroke="midnightblue" d="M78.29,-88.29C88.3,-86.82 99.21,-85.21 109.85,-83.64"/>
<polygon fill="midnightblue" stroke="midnightblue" points="77.63,-84.85 68.24,-89.77 78.65,-91.77 77.63,-84.85"/>
</g>
<!-- Node34&#45;&gt;Node20 -->
<g id="edge23" class="edge">
<title>Node34&#45;&gt;Node20</title>
<path fill="none" stroke="midnightblue" d="M78.34,-100.17C96.64,-102.86 117.99,-106.01 135.14,-108.53"/>
<polygon fill="midnightblue" stroke="midnightblue" points="78.65,-96.67 68.24,-98.68 77.63,-103.6 78.65,-96.67"/>
</g>
<!-- Node35 -->
<g id="node19" class="node">
<title>Node35</title>
<g id="a_node19"><a xlink:href="classVentingOperations.html" target="_top" xlink:title="Executes the venting sequence defined in the &#39;operations&#39; table.">
<polygon fill="none" stroke="black" points="114.5,-27.72 114.5,-46.72 221.5,-46.72 221.5,-27.72 114.5,-27.72"/>
<text text-anchor="middle" x="168" y="-34.72" font-family="Helvetica,sans-Serif" font-size="10.00">VentingOperations</text>
</a>
</g>
</g>
<!-- Node34&#45;&gt;Node35 -->
<g id="edge24" class="edge">
<title>Node34&#45;&gt;Node35</title>
<path fill="none" stroke="midnightblue" d="M63,-79.73C76.63,-72.17 93.95,-63.08 110,-56.22 118.06,-52.78 126.96,-49.55 135.3,-46.77"/>
<polygon fill="midnightblue" stroke="midnightblue" points="61.21,-76.73 54.21,-84.68 64.64,-82.82 61.21,-76.73"/>
</g>
<!-- Node51 -->
<g id="node20" class="node">
<title>Node51</title>
<g id="a_node20"><a xlink:title=" ">
<polygon fill="none" stroke="#bfbfbf" points="12,-255.72 12,-274.72 62,-274.72 62,-255.72 12,-255.72"/>
<text text-anchor="middle" x="37" y="-262.72" font-family="Helvetica,sans-Serif" font-size="10.00">JFrame</text>
</a>
</g>
</g>
<!-- Node51&#45;&gt;Node1 -->
<g id="edge25" class="edge">
<title>Node51&#45;&gt;Node1</title>
<path fill="none" stroke="midnightblue" d="M72.33,-265.22C90.33,-265.22 112.36,-265.22 130.65,-265.22"/>
<polygon fill="midnightblue" stroke="midnightblue" points="72.26,-261.72 62.26,-265.22 72.26,-268.72 72.26,-261.72"/>
</g>
<!-- Node51&#45;&gt;Node6 -->
<g id="edge26" class="edge">
<title>Node51&#45;&gt;Node6</title>
<path fill="none" stroke="midnightblue" d="M72,-275.24C94.29,-281.8 122.88,-290.23 142.84,-296.11"/>
<polygon fill="midnightblue" stroke="midnightblue" points="72.85,-271.84 62.26,-272.37 70.87,-278.55 72.85,-271.84"/>
</g>
</g>
</svg>
