<?xml version="1.0" encoding="UTF-8" standalone="no"?>
<!DOCTYPE svg PUBLIC "-//W3C//DTD SVG 1.1//EN"
 "http://www.w3.org/Graphics/SVG/1.1/DTD/svg11.dtd">
<!-- Generated by graphviz version 2.50.0 (0)
 -->
<!-- Title: Graphical Class Hierarchy Pages: 1 -->
<svg width="309pt" height="142pt"
 viewBox="0.00 0.00 309.00 142.00" xmlns="http://www.w3.org/2000/svg" xmlns:xlink="http://www.w3.org/1999/xlink">
<g id="graph0" class="graph" transform="scale(1 1) rotate(0) translate(4 138)">
<title>Graphical Class Hierarchy</title>
<polygon fill="white" stroke="transparent" points="-4,4 -4,-138 305,-138 305,4 -4,4"/>
<!-- Node24 -->
<g id="node1" class="node">
<title>Node24</title>
<g id="a_node1"><a xlink:title=" ">
<polygon fill="white" stroke="#bfbfbf" points="0,-57.5 0,-76.5 97,-76.5 97,-57.5 0,-57.5"/>
<text text-anchor="middle" x="48.5" y="-64.5" font-family="Helvetica,sans-Serif" font-size="10.00">GlgInputListener</text>
</a>
</g>
</g>
<!-- Node0 -->
<g id="node2" class="node">
<title>Node0</title>
<g id="a_node2"><a xlink:href="classGlgDryGui_1_1InputListener.html" target="_top" xlink:title=" ">
<polygon fill="white" stroke="black" points="150,-114.5 150,-133.5 284,-133.5 284,-114.5 150,-114.5"/>
<text text-anchor="middle" x="217" y="-121.5" font-family="Helvetica,sans-Serif" font-size="10.00">GlgDryGui.InputListener</text>
</a>
</g>
</g>
<!-- Node24&#45;&gt;Node0 -->
<g id="edge1" class="edge">
<title>Node24&#45;&gt;Node0</title>
<path fill="none" stroke="midnightblue" d="M76.94,-81.19C92.97,-89.04 113.76,-98.49 133,-105 143.78,-108.65 155.59,-111.82 166.83,-114.47"/>
<polygon fill="midnightblue" stroke="midnightblue" points="78.15,-77.88 67.64,-76.55 75.02,-84.14 78.15,-77.88"/>
</g>
<!-- Node26 -->
<g id="node3" class="node">
<title>Node26</title>
<g id="a_node3"><a xlink:href="classGlgFlowMeterGui_1_1InputListener.html" target="_top" xlink:title=" ">
<polygon fill="white" stroke="black" points="133,-76.5 133,-95.5 301,-95.5 301,-76.5 133,-76.5"/>
<text text-anchor="middle" x="217" y="-83.5" font-family="Helvetica,sans-Serif" font-size="10.00">GlgFlowMeterGui.InputListener</text>
</a>
</g>
</g>
<!-- Node24&#45;&gt;Node26 -->
<g id="edge2" class="edge">
<title>Node24&#45;&gt;Node26</title>
<path fill="none" stroke="midnightblue" d="M107.39,-73.61C115.6,-74.54 124.17,-75.52 132.75,-76.5"/>
<polygon fill="midnightblue" stroke="midnightblue" points="107.54,-70.1 97.21,-72.44 106.75,-77.06 107.54,-70.1"/>
</g>
<!-- Node27 -->
<g id="node4" class="node">
<title>Node27</title>
<g id="a_node4"><a xlink:href="classGlgGaugeGui_1_1InputListener.html" target="_top" xlink:title=" ">
<polygon fill="white" stroke="black" points="143,-38.5 143,-57.5 291,-57.5 291,-38.5 143,-38.5"/>
<text text-anchor="middle" x="217" y="-45.5" font-family="Helvetica,sans-Serif" font-size="10.00">GlgGaugeGui.InputListener</text>
</a>
</g>
</g>
<!-- Node24&#45;&gt;Node27 -->
<g id="edge3" class="edge">
<title>Node24&#45;&gt;Node27</title>
<path fill="none" stroke="midnightblue" d="M107.46,-60.39C118.87,-59.08 130.98,-57.7 142.82,-56.35"/>
<polygon fill="midnightblue" stroke="midnightblue" points="106.75,-56.94 97.21,-61.56 107.54,-63.9 106.75,-56.94"/>
</g>
<!-- Node28 -->
<g id="node5" class="node">
<title>Node28</title>
<g id="a_node5"><a xlink:href="classGlgValveGui_1_1InputListener.html" target="_top" xlink:title=" ">
<polygon fill="white" stroke="black" points="145.5,-0.5 145.5,-19.5 288.5,-19.5 288.5,-0.5 145.5,-0.5"/>
<text text-anchor="middle" x="217" y="-7.5" font-family="Helvetica,sans-Serif" font-size="10.00">GlgValveGui.InputListener</text>
</a>
</g>
</g>
<!-- Node24&#45;&gt;Node28 -->
<g id="edge4" class="edge">
<title>Node24&#45;&gt;Node28</title>
<path fill="none" stroke="midnightblue" d="M76.94,-52.81C92.97,-44.96 113.76,-35.51 133,-29 143.78,-25.35 155.59,-22.18 166.83,-19.53"/>
<polygon fill="midnightblue" stroke="midnightblue" points="75.02,-49.86 67.64,-57.45 78.15,-56.12 75.02,-49.86"/>
</g>
</g>
</svg>
