<?xml version="1.0" encoding="UTF-8" standalone="no"?>
<!DOCTYPE svg PUBLIC "-//W3C//DTD SVG 1.1//EN"
 "http://www.w3.org/Graphics/SVG/1.1/DTD/svg11.dtd">
<!-- Generated by graphviz version 2.50.0 (0)
 -->
<!-- Title: DataTypes Pages: 1 -->
<svg width="719pt" height="196pt"
 viewBox="0.00 0.00 719.00 196.00" xmlns="http://www.w3.org/2000/svg" xmlns:xlink="http://www.w3.org/1999/xlink">
<g id="graph0" class="graph" transform="scale(1 1) rotate(0) translate(4 192)">
<title>DataTypes</title>
<polygon fill="white" stroke="transparent" points="-4,4 -4,-192 715,-192 715,4 -4,4"/>
<!-- Node1 -->
<g id="node1" class="node">
<title>Node1</title>
<g id="a_node1"><a xlink:title=" ">
<polygon fill="#bfbfbf" stroke="black" points="354.5,-168.5 354.5,-187.5 422.5,-187.5 422.5,-168.5 354.5,-168.5"/>
<text text-anchor="middle" x="388.5" y="-175.5" font-family="Helvetica,sans-Serif" font-size="10.00">DataTypes</text>
</a>
</g>
</g>
<!-- Node2 -->
<g id="node2" class="node">
<title>Node2</title>
<g id="a_node2"><a xlink:href="classDataElement.html" target="_top" xlink:title=" ">
<polygon fill="white" stroke="black" points="113.5,-112.5 113.5,-131.5 193.5,-131.5 193.5,-112.5 113.5,-112.5"/>
<text text-anchor="middle" x="153.5" y="-119.5" font-family="Helvetica,sans-Serif" font-size="10.00">DataElement</text>
</a>
</g>
</g>
<!-- Node1&#45;&gt;Node2 -->
<g id="edge1" class="edge">
<title>Node1&#45;&gt;Node2</title>
<path fill="none" stroke="midnightblue" d="M344.42,-166.87C300.11,-156.69 232.56,-141.17 190.82,-131.58"/>
<polygon fill="midnightblue" stroke="midnightblue" points="343.8,-170.32 354.33,-169.15 345.37,-163.5 343.8,-170.32"/>
</g>
<!-- Node3 -->
<g id="node3" class="node">
<title>Node3</title>
<g id="a_node3"><a xlink:href="classDataManager.html" target="_top" xlink:title=" ">
<polygon fill="white" stroke="black" points="212,-112.5 212,-131.5 295,-131.5 295,-112.5 212,-112.5"/>
<text text-anchor="middle" x="253.5" y="-119.5" font-family="Helvetica,sans-Serif" font-size="10.00">DataManager</text>
</a>
</g>
</g>
<!-- Node1&#45;&gt;Node3 -->
<g id="edge2" class="edge">
<title>Node1&#45;&gt;Node3</title>
<path fill="none" stroke="midnightblue" d="M357.59,-164.64C332.26,-154.5 297.07,-140.43 274.79,-131.52"/>
<polygon fill="midnightblue" stroke="midnightblue" points="356.52,-167.98 367.11,-168.44 359.12,-161.48 356.52,-167.98"/>
</g>
<!-- Node4 -->
<g id="node4" class="node">
<title>Node4</title>
<g id="a_node4"><a xlink:href="classDevice.html" target="_top" xlink:title=" ">
<polygon fill="white" stroke="black" points="206.5,-56.5 206.5,-75.5 256.5,-75.5 256.5,-56.5 206.5,-56.5"/>
<text text-anchor="middle" x="231.5" y="-63.5" font-family="Helvetica,sans-Serif" font-size="10.00">Device</text>
</a>
</g>
</g>
<!-- Node1&#45;&gt;Node4 -->
<g id="edge8" class="edge">
<title>Node1&#45;&gt;Node4</title>
<path fill="none" stroke="midnightblue" d="M370.02,-162.06C353.05,-148.54 327.04,-128.3 303.5,-112 284.11,-98.57 260.83,-84.35 246.1,-75.57"/>
<polygon fill="midnightblue" stroke="midnightblue" points="368.01,-164.94 378.01,-168.46 372.39,-159.48 368.01,-164.94"/>
</g>
<!-- Node9 -->
<g id="node9" class="node">
<title>Node9</title>
<g id="a_node9"><a xlink:href="classGlgChildGui.html" target="_top" xlink:title=" ">
<polygon fill="white" stroke="black" points="351.5,-112.5 351.5,-131.5 425.5,-131.5 425.5,-112.5 351.5,-112.5"/>
<text text-anchor="middle" x="388.5" y="-119.5" font-family="Helvetica,sans-Serif" font-size="10.00">GlgChildGui</text>
</a>
</g>
</g>
<!-- Node1&#45;&gt;Node9 -->
<g id="edge9" class="edge">
<title>Node1&#45;&gt;Node9</title>
<path fill="none" stroke="midnightblue" d="M388.5,-157.8C388.5,-148.91 388.5,-138.78 388.5,-131.75"/>
<polygon fill="midnightblue" stroke="midnightblue" points="385,-158.08 388.5,-168.08 392,-158.08 385,-158.08"/>
</g>
<!-- Node14 -->
<g id="node14" class="node">
<title>Node14</title>
<g id="a_node14"><a xlink:href="classGlgGui.html" target="_top" xlink:title=" ">
<polygon fill="white" stroke="black" points="443.5,-112.5 443.5,-131.5 493.5,-131.5 493.5,-112.5 443.5,-112.5"/>
<text text-anchor="middle" x="468.5" y="-119.5" font-family="Helvetica,sans-Serif" font-size="10.00">GlgGui</text>
</a>
</g>
</g>
<!-- Node1&#45;&gt;Node14 -->
<g id="edge14" class="edge">
<title>Node1&#45;&gt;Node14</title>
<path fill="none" stroke="midnightblue" d="M409.8,-162.62C424.42,-152.76 443.33,-139.99 455.68,-131.65"/>
<polygon fill="midnightblue" stroke="midnightblue" points="407.68,-159.83 401.35,-168.32 411.6,-165.63 407.68,-159.83"/>
</g>
<!-- Node15 -->
<g id="node15" class="node">
<title>Node15</title>
<g id="a_node15"><a xlink:href="classModbusSlaveThread.html" target="_top" xlink:title=" ">
<polygon fill="white" stroke="black" points="511.5,-112.5 511.5,-131.5 627.5,-131.5 627.5,-112.5 511.5,-112.5"/>
<text text-anchor="middle" x="569.5" y="-119.5" font-family="Helvetica,sans-Serif" font-size="10.00">ModbusSlaveThread</text>
</a>
</g>
</g>
<!-- Node1&#45;&gt;Node15 -->
<g id="edge15" class="edge">
<title>Node1&#45;&gt;Node15</title>
<path fill="none" stroke="midnightblue" d="M426.82,-165.57C460.96,-155.38 510.16,-140.7 540.95,-131.52"/>
<polygon fill="midnightblue" stroke="midnightblue" points="425.76,-162.23 417.18,-168.44 427.76,-168.94 425.76,-162.23"/>
</g>
<!-- Node16 -->
<g id="node16" class="node">
<title>Node16</title>
<g id="a_node16"><a xlink:href="classOperation.html" target="_top" xlink:title=" ">
<polygon fill="white" stroke="black" points="646,-112.5 646,-131.5 711,-131.5 711,-112.5 646,-112.5"/>
<text text-anchor="middle" x="678.5" y="-119.5" font-family="Helvetica,sans-Serif" font-size="10.00">Operation</text>
</a>
</g>
</g>
<!-- Node1&#45;&gt;Node16 -->
<g id="edge16" class="edge">
<title>Node1&#45;&gt;Node16</title>
<path fill="none" stroke="midnightblue" d="M432.74,-169.41C482.41,-160.78 565.36,-146.07 636.5,-132 639.57,-131.39 642.77,-130.74 645.96,-130.08"/>
<polygon fill="midnightblue" stroke="midnightblue" points="431.92,-166 422.66,-171.15 433.11,-172.89 431.92,-166"/>
</g>
<!-- Node3&#45;&gt;Node4 -->
<g id="edge3" class="edge">
<title>Node3&#45;&gt;Node4</title>
<path fill="none" stroke="midnightblue" d="M246.04,-102.69C242.33,-93.59 238.02,-83.01 235.07,-75.75"/>
<polygon fill="midnightblue" stroke="midnightblue" points="242.85,-104.14 249.87,-112.08 249.34,-101.5 242.85,-104.14"/>
</g>
<!-- Node5 -->
<g id="node5" class="node">
<title>Node5</title>
<g id="a_node5"><a xlink:href="classControllino__1.html" target="_top" xlink:title=" ">
<polygon fill="white" stroke="black" points="0,-0.5 0,-19.5 81,-19.5 81,-0.5 0,-0.5"/>
<text text-anchor="middle" x="40.5" y="-7.5" font-family="Helvetica,sans-Serif" font-size="10.00">Controllino_1</text>
</a>
</g>
</g>
<!-- Node4&#45;&gt;Node5 -->
<g id="edge4" class="edge">
<title>Node4&#45;&gt;Node5</title>
<path fill="none" stroke="midnightblue" d="M196.06,-54.98C160.01,-44.79 104.73,-29.16 70.7,-19.54"/>
<polygon fill="midnightblue" stroke="midnightblue" points="195.56,-58.48 206.14,-57.83 197.47,-51.74 195.56,-58.48"/>
</g>
<!-- Node6 -->
<g id="node6" class="node">
<title>Node6</title>
<g id="a_node6"><a xlink:href="classFlowMeterModbusMaster.html" target="_top" xlink:title=" ">
<polygon fill="white" stroke="black" points="99.5,-0.5 99.5,-19.5 239.5,-19.5 239.5,-0.5 99.5,-0.5"/>
<text text-anchor="middle" x="169.5" y="-7.5" font-family="Helvetica,sans-Serif" font-size="10.00">FlowMeterModbusMaster</text>
</a>
</g>
</g>
<!-- Node4&#45;&gt;Node6 -->
<g id="edge5" class="edge">
<title>Node4&#45;&gt;Node6</title>
<path fill="none" stroke="midnightblue" d="M213.75,-49.54C202.69,-39.91 188.87,-27.87 179.64,-19.83"/>
<polygon fill="midnightblue" stroke="midnightblue" points="211.7,-52.4 221.54,-56.32 216.3,-47.12 211.7,-52.4"/>
</g>
<!-- Node7 -->
<g id="node7" class="node">
<title>Node7</title>
<g id="a_node7"><a xlink:href="classMaxiGauge.html" target="_top" xlink:title=" ">
<polygon fill="white" stroke="black" points="257.5,-0.5 257.5,-19.5 329.5,-19.5 329.5,-0.5 257.5,-0.5"/>
<text text-anchor="middle" x="293.5" y="-7.5" font-family="Helvetica,sans-Serif" font-size="10.00">MaxiGauge</text>
</a>
</g>
</g>
<!-- Node4&#45;&gt;Node7 -->
<g id="edge6" class="edge">
<title>Node4&#45;&gt;Node7</title>
<path fill="none" stroke="midnightblue" d="M249.25,-49.54C260.31,-39.91 274.13,-27.87 283.36,-19.83"/>
<polygon fill="midnightblue" stroke="midnightblue" points="246.7,-47.12 241.46,-56.32 251.3,-52.4 246.7,-47.12"/>
</g>
<!-- Node8 -->
<g id="node8" class="node">
<title>Node8</title>
<g id="a_node8"><a xlink:href="classVentingOperationController.html" target="_top" xlink:title=" ">
<polygon fill="white" stroke="black" points="348,-0.5 348,-19.5 497,-19.5 497,-0.5 348,-0.5"/>
<text text-anchor="middle" x="422.5" y="-7.5" font-family="Helvetica,sans-Serif" font-size="10.00">VentingOperationController</text>
</a>
</g>
</g>
<!-- Node4&#45;&gt;Node8 -->
<g id="edge7" class="edge">
<title>Node4&#45;&gt;Node8</title>
<path fill="none" stroke="midnightblue" d="M266.94,-54.98C302.99,-44.79 358.27,-29.16 392.3,-19.54"/>
<polygon fill="midnightblue" stroke="midnightblue" points="265.53,-51.74 256.86,-57.83 267.44,-58.48 265.53,-51.74"/>
</g>
<!-- Node10 -->
<g id="node10" class="node">
<title>Node10</title>
<g id="a_node10"><a xlink:href="classGlgDryGui.html" target="_top" xlink:title=" ">
<polygon fill="white" stroke="black" points="275,-56.5 275,-75.5 342,-75.5 342,-56.5 275,-56.5"/>
<text text-anchor="middle" x="308.5" y="-63.5" font-family="Helvetica,sans-Serif" font-size="10.00">GlgDryGui</text>
</a>
</g>
</g>
<!-- Node9&#45;&gt;Node10 -->
<g id="edge10" class="edge">
<title>Node9&#45;&gt;Node10</title>
<path fill="none" stroke="midnightblue" d="M367.2,-106.62C352.58,-96.76 333.67,-83.99 321.32,-75.65"/>
<polygon fill="midnightblue" stroke="midnightblue" points="365.4,-109.63 375.65,-112.32 369.32,-103.83 365.4,-109.63"/>
</g>
<!-- Node11 -->
<g id="node11" class="node">
<title>Node11</title>
<g id="a_node11"><a xlink:href="classGlgFlowMeterGui.html" target="_top" xlink:title=" ">
<polygon fill="white" stroke="black" points="360,-56.5 360,-75.5 461,-75.5 461,-56.5 360,-56.5"/>
<text text-anchor="middle" x="410.5" y="-63.5" font-family="Helvetica,sans-Serif" font-size="10.00">GlgFlowMeterGui</text>
</a>
</g>
</g>
<!-- Node9&#45;&gt;Node11 -->
<g id="edge11" class="edge">
<title>Node9&#45;&gt;Node11</title>
<path fill="none" stroke="midnightblue" d="M395.96,-102.69C399.67,-93.59 403.98,-83.01 406.93,-75.75"/>
<polygon fill="midnightblue" stroke="midnightblue" points="392.66,-101.5 392.13,-112.08 399.15,-104.14 392.66,-101.5"/>
</g>
<!-- Node12 -->
<g id="node12" class="node">
<title>Node12</title>
<g id="a_node12"><a xlink:href="classGlgGaugeGui.html" target="_top" xlink:title=" ">
<polygon fill="white" stroke="black" points="479,-56.5 479,-75.5 560,-75.5 560,-56.5 479,-56.5"/>
<text text-anchor="middle" x="519.5" y="-63.5" font-family="Helvetica,sans-Serif" font-size="10.00">GlgGaugeGui</text>
</a>
</g>
</g>
<!-- Node9&#45;&gt;Node12 -->
<g id="edge12" class="edge">
<title>Node9&#45;&gt;Node12</title>
<path fill="none" stroke="midnightblue" d="M418.82,-108.5C443.38,-98.38 477.32,-84.39 498.84,-75.52"/>
<polygon fill="midnightblue" stroke="midnightblue" points="417.17,-105.4 409.26,-112.44 419.84,-111.87 417.17,-105.4"/>
</g>
<!-- Node13 -->
<g id="node13" class="node">
<title>Node13</title>
<g id="a_node13"><a xlink:href="classGlgValveGui.html" target="_top" xlink:title=" ">
<polygon fill="white" stroke="black" points="578,-56.5 578,-75.5 655,-75.5 655,-56.5 578,-56.5"/>
<text text-anchor="middle" x="616.5" y="-63.5" font-family="Helvetica,sans-Serif" font-size="10.00">GlgValveGui</text>
</a>
</g>
</g>
<!-- Node9&#45;&gt;Node13 -->
<g id="edge13" class="edge">
<title>Node9&#45;&gt;Node13</title>
<path fill="none" stroke="midnightblue" d="M434.57,-110.09C477.65,-99.89 541.09,-84.86 580.54,-75.52"/>
<polygon fill="midnightblue" stroke="midnightblue" points="433.55,-106.73 424.63,-112.44 435.16,-113.54 433.55,-106.73"/>
</g>
</g>
</svg>
