<?xml version="1.0" encoding="UTF-8" standalone="no"?>
<!DOCTYPE svg PUBLIC "-//W3C//DTD SVG 1.1//EN"
 "http://www.w3.org/Graphics/SVG/1.1/DTD/svg11.dtd">
<!-- Generated by graphviz version 2.50.0 (0)
 -->
<!-- Title: Graphical Class Hierarchy Pages: 1 -->
<svg width="444pt" height="218pt"
 viewBox="0.00 0.00 444.00 218.00" xmlns="http://www.w3.org/2000/svg" xmlns:xlink="http://www.w3.org/1999/xlink">
<g id="graph0" class="graph" transform="scale(1 1) rotate(0) translate(4 214)">
<title>Graphical Class Hierarchy</title>
<!-- Node0 -->
<g id="node1" class="node">
<title>Node0</title>
<g id="a_node1"><a xlink:href="interfaceChannelList.html" target="_top" xlink:title=" ">
<polygon fill="none" stroke="black" points="108.5,-190.5 108.5,-209.5 182.5,-209.5 182.5,-190.5 108.5,-190.5"/>
<text text-anchor="middle" x="145.5" y="-197.5" font-family="Helvetica,sans-Serif" font-size="10.00">ChannelList</text>
</a>
</g>
</g>
<!-- Node1 -->
<g id="node2" class="node">
<title>Node1</title>
<g id="a_node2"><a xlink:href="classGlgChildGui.html" target="_top" xlink:title=" ">
<polygon fill="none" stroke="black" points="223,-152.5 223,-171.5 297,-171.5 297,-152.5 223,-152.5"/>
<text text-anchor="middle" x="260" y="-159.5" font-family="Helvetica,sans-Serif" font-size="10.00">GlgChildGui</text>
</a>
</g>
</g>
<!-- Node0&#45;&gt;Node1 -->
<g id="edge1" class="edge">
<title>Node0&#45;&gt;Node1</title>
<path fill="none" stroke="midnightblue" d="M184.47,-187.17C199.57,-182.08 216.63,-176.31 230.62,-171.59"/>
<polygon fill="midnightblue" stroke="midnightblue" points="183.24,-183.89 174.89,-190.41 185.48,-190.53 183.24,-183.89"/>
</g>
<!-- Node2 -->
<g id="node3" class="node">
<title>Node2</title>
<g id="a_node3"><a xlink:href="classGlgGui.html" target="_top" xlink:title=" ">
<polygon fill="none" stroke="black" points="235,-114.5 235,-133.5 285,-133.5 285,-114.5 235,-114.5"/>
<text text-anchor="middle" x="260" y="-121.5" font-family="Helvetica,sans-Serif" font-size="10.00">GlgGui</text>
</a>
</g>
</g>
<!-- Node0&#45;&gt;Node2 -->
<g id="edge2" class="edge">
<title>Node0&#45;&gt;Node2</title>
<path fill="none" stroke="midnightblue" d="M179.94,-185.57C182.39,-184.13 184.77,-182.61 187,-181 205.86,-167.38 204.47,-157.06 223,-143 227.62,-139.5 232.97,-136.29 238.11,-133.55"/>
<polygon fill="midnightblue" stroke="midnightblue" points="178.09,-182.59 170.89,-190.36 181.36,-188.77 178.09,-182.59"/>
</g>
<!-- Node3 -->
<g id="node4" class="node">
<title>Node3</title>
<g id="a_node4"><a xlink:href="classSupervisorClient2.html" target="_top" xlink:title=" ">
<polygon fill="none" stroke="black" points="333,-152.5 333,-171.5 436,-171.5 436,-152.5 333,-152.5"/>
<text text-anchor="middle" x="384.5" y="-159.5" font-family="Helvetica,sans-Serif" font-size="10.00">SupervisorClient2</text>
</a>
</g>
</g>
<!-- Node0&#45;&gt;Node3 -->
<g id="edge3" class="edge">
<title>Node0&#45;&gt;Node3</title>
<path fill="none" stroke="midnightblue" d="M192.65,-195.27C222.51,-191.94 262.18,-187.01 297,-181 312.3,-178.36 328.99,-174.84 343.6,-171.56"/>
<polygon fill="midnightblue" stroke="midnightblue" points="192.08,-191.81 182.52,-196.38 192.84,-198.77 192.08,-191.81"/>
</g>
<!-- Node6 -->
<g id="node5" class="node">
<title>Node6</title>
<g id="a_node5"><a xlink:href="interfaceDataTypes.html" target="_top" xlink:title=" ">
<polygon fill="none" stroke="black" points="0,-38.5 0,-57.5 68,-57.5 68,-38.5 0,-38.5"/>
<text text-anchor="middle" x="34" y="-45.5" font-family="Helvetica,sans-Serif" font-size="10.00">DataTypes</text>
</a>
</g>
</g>
<!-- Node7 -->
<g id="node6" class="node">
<title>Node7</title>
<g id="a_node6"><a xlink:href="classDataElement.html" target="_top" xlink:title=" ">
<polygon fill="none" stroke="black" points="105.5,-0.5 105.5,-19.5 185.5,-19.5 185.5,-0.5 105.5,-0.5"/>
<text text-anchor="middle" x="145.5" y="-7.5" font-family="Helvetica,sans-Serif" font-size="10.00">DataElement</text>
</a>
</g>
</g>
<!-- Node6&#45;&gt;Node7 -->
<g id="edge4" class="edge">
<title>Node6&#45;&gt;Node7</title>
<path fill="none" stroke="midnightblue" d="M72.38,-35.03C86.97,-29.97 103.39,-24.27 116.88,-19.59"/>
<polygon fill="midnightblue" stroke="midnightblue" points="70.93,-31.83 62.63,-38.41 73.23,-38.44 70.93,-31.83"/>
</g>
<!-- Node8 -->
<g id="node7" class="node">
<title>Node8</title>
<g id="a_node7"><a xlink:href="classDataManager.html" target="_top" xlink:title=" ">
<polygon fill="none" stroke="black" points="104,-38.5 104,-57.5 187,-57.5 187,-38.5 104,-38.5"/>
<text text-anchor="middle" x="145.5" y="-45.5" font-family="Helvetica,sans-Serif" font-size="10.00">DataManager</text>
</a>
</g>
</g>
<!-- Node6&#45;&gt;Node8 -->
<g id="edge5" class="edge">
<title>Node6&#45;&gt;Node8</title>
<path fill="none" stroke="midnightblue" d="M78.17,-48C86.59,-48 95.39,-48 103.72,-48"/>
<polygon fill="midnightblue" stroke="midnightblue" points="78.15,-44.5 68.15,-48 78.15,-51.5 78.15,-44.5"/>
</g>
<!-- Node9 -->
<g id="node8" class="node">
<title>Node9</title>
<g id="a_node8"><a xlink:href="classDevice.html" target="_top" xlink:title=" ">
<polygon fill="none" stroke="black" points="235,-76.5 235,-95.5 285,-95.5 285,-76.5 235,-76.5"/>
<text text-anchor="middle" x="260" y="-83.5" font-family="Helvetica,sans-Serif" font-size="10.00">Device</text>
</a>
</g>
</g>
<!-- Node6&#45;&gt;Node9 -->
<g id="edge9" class="edge">
<title>Node6&#45;&gt;Node9</title>
<path fill="none" stroke="midnightblue" d="M75.76,-60.29C84.99,-62.77 94.78,-65.18 104,-67 149.88,-76.08 204.3,-81.55 234.93,-84.15"/>
<polygon fill="midnightblue" stroke="midnightblue" points="76.6,-56.89 66.03,-57.59 74.73,-63.63 76.6,-56.89"/>
</g>
<!-- Node8&#45;&gt;Node9 -->
<g id="edge6" class="edge">
<title>Node8&#45;&gt;Node9</title>
<path fill="none" stroke="midnightblue" d="M184.37,-60.79C201.03,-66.42 220.12,-72.87 234.81,-77.83"/>
<polygon fill="midnightblue" stroke="midnightblue" points="185.48,-57.47 174.89,-57.59 183.24,-64.11 185.48,-57.47"/>
</g>
<!-- Node9&#45;&gt;Node3 -->
<g id="edge8" class="edge">
<title>Node9&#45;&gt;Node3</title>
<path fill="none" stroke="midnightblue" d="M288.75,-100.3C291.56,-101.85 294.35,-103.43 297,-105 323.47,-120.66 353.17,-140.83 369.98,-152.5"/>
<polygon fill="midnightblue" stroke="midnightblue" points="290.34,-97.18 279.87,-95.52 287.02,-103.34 290.34,-97.18"/>
</g>
<!-- Node10 -->
<g id="node9" class="node">
<title>Node10</title>
<g id="a_node9"><a xlink:href="classSupervisorClient.html" target="_top" xlink:title=" ">
<polygon fill="none" stroke="black" points="336,-76.5 336,-95.5 433,-95.5 433,-76.5 336,-76.5"/>
<text text-anchor="middle" x="384.5" y="-83.5" font-family="Helvetica,sans-Serif" font-size="10.00">SupervisorClient</text>
</a>
</g>
</g>
<!-- Node9&#45;&gt;Node10 -->
<g id="edge7" class="edge">
<title>Node9&#45;&gt;Node10</title>
<path fill="none" stroke="midnightblue" d="M295.24,-86C307.8,-86 322.25,-86 335.78,-86"/>
<polygon fill="midnightblue" stroke="midnightblue" points="295.2,-82.5 285.2,-86 295.2,-89.5 295.2,-82.5"/>
</g>
<!-- Node14 -->
<g id="node10" class="node">
<title>Node14</title>
<g id="a_node10"><a xlink:title=" ">
<polygon fill="none" stroke="#bfbfbf" points="114.5,-114.5 114.5,-133.5 176.5,-133.5 176.5,-114.5 114.5,-114.5"/>
<text text-anchor="middle" x="145.5" y="-121.5" font-family="Helvetica,sans-Serif" font-size="10.00">Runnable</text>
</a>
</g>
</g>
<!-- Node14&#45;&gt;Node1 -->
<g id="edge11" class="edge">
<title>Node14&#45;&gt;Node1</title>
<path fill="none" stroke="midnightblue" d="M184.47,-136.83C199.57,-141.92 216.63,-147.69 230.62,-152.41"/>
<polygon fill="midnightblue" stroke="midnightblue" points="185.48,-133.47 174.89,-133.59 183.24,-140.11 185.48,-133.47"/>
</g>
<!-- Node14&#45;&gt;Node2 -->
<g id="edge12" class="edge">
<title>Node14&#45;&gt;Node2</title>
<path fill="none" stroke="midnightblue" d="M186.87,-124C202.92,-124 220.85,-124 234.82,-124"/>
<polygon fill="midnightblue" stroke="midnightblue" points="186.65,-120.5 176.65,-124 186.65,-127.5 186.65,-120.5"/>
</g>
<!-- Node14&#45;&gt;Node9 -->
<g id="edge10" class="edge">
<title>Node14&#45;&gt;Node9</title>
<path fill="none" stroke="midnightblue" d="M184.37,-111.21C201.03,-105.58 220.12,-99.13 234.81,-94.17"/>
<polygon fill="midnightblue" stroke="midnightblue" points="183.24,-107.89 174.89,-114.41 185.48,-114.53 183.24,-107.89"/>
</g>
<!-- Node15 -->
<g id="node11" class="node">
<title>Node15</title>
<g id="a_node11"><a xlink:title=" ">
<polygon fill="none" stroke="#bfbfbf" points="120.5,-152.5 120.5,-171.5 170.5,-171.5 170.5,-152.5 120.5,-152.5"/>
<text text-anchor="middle" x="145.5" y="-159.5" font-family="Helvetica,sans-Serif" font-size="10.00">JFrame</text>
</a>
</g>
</g>
<!-- Node15&#45;&gt;Node1 -->
<g id="edge13" class="edge">
<title>Node15&#45;&gt;Node1</title>
<path fill="none" stroke="midnightblue" d="M180.84,-162C194.17,-162 209.44,-162 222.93,-162"/>
<polygon fill="midnightblue" stroke="midnightblue" points="180.63,-158.5 170.63,-162 180.63,-165.5 180.63,-158.5"/>
</g>
<!-- Node15&#45;&gt;Node2 -->
<g id="edge14" class="edge">
<title>Node15&#45;&gt;Node2</title>
<path fill="none" stroke="midnightblue" d="M180.5,-150.51C198.05,-144.59 219.05,-137.5 234.91,-132.14"/>
<polygon fill="midnightblue" stroke="midnightblue" points="178.99,-147.33 170.63,-153.85 181.23,-153.96 178.99,-147.33"/>
</g>
</g>
</svg>
