<?xml version="1.0" encoding="UTF-8" standalone="no"?>
<!DOCTYPE svg PUBLIC "-//W3C//DTD SVG 1.1//EN"
 "http://www.w3.org/Graphics/SVG/1.1/DTD/svg11.dtd">
<!-- Generated by graphviz version 2.50.0 (0)
 -->
<!-- Title: Device Pages: 1 -->
<svg width="654pt" height="196pt"
 viewBox="0.00 0.00 653.50 196.00" xmlns="http://www.w3.org/2000/svg" xmlns:xlink="http://www.w3.org/1999/xlink">
<g id="graph0" class="graph" transform="scale(1 1) rotate(0) translate(4 192)">
<title>Device</title>
<!-- Node1 -->
<g id="node1" class="node">
<title>Node1</title>
<g id="a_node1"><a xlink:title=" ">
<polygon fill="#bfbfbf" stroke="black" points="273,-56.5 273,-75.5 323,-75.5 323,-56.5 273,-56.5"/>
<text text-anchor="middle" x="298" y="-63.5" font-family="Helvetica,sans-Serif" font-size="10.00">Device</text>
</a>
</g>
</g>
<!-- Node5 -->
<g id="node5" class="node">
<title>Node5</title>
<g id="a_node5"><a xlink:href="classChiller.html" target="_top" xlink:title=" ">
<polygon fill="none" stroke="black" points="0,-0.5 0,-19.5 48,-19.5 48,-0.5 0,-0.5"/>
<text text-anchor="middle" x="24" y="-7.5" font-family="Helvetica,sans-Serif" font-size="10.00">Chiller</text>
</a>
</g>
</g>
<!-- Node1&#45;&gt;Node5 -->
<g id="edge5" class="edge">
<title>Node1&#45;&gt;Node5</title>
<path fill="none" stroke="midnightblue" d="M262.89,-59.37C215.8,-51.61 129.7,-36.67 57,-20 54.11,-19.34 51.08,-18.59 48.09,-17.81"/>
<polygon fill="midnightblue" stroke="midnightblue" points="262.45,-62.84 272.88,-61 263.58,-55.93 262.45,-62.84"/>
</g>
<!-- Node6 -->
<g id="node6" class="node">
<title>Node6</title>
<g id="a_node6"><a xlink:href="classControllino__1.html" target="_top" xlink:title=" ">
<polygon fill="none" stroke="black" points="66.5,-0.5 66.5,-19.5 147.5,-19.5 147.5,-0.5 66.5,-0.5"/>
<text text-anchor="middle" x="107" y="-7.5" font-family="Helvetica,sans-Serif" font-size="10.00">Controllino_1</text>
</a>
</g>
</g>
<!-- Node1&#45;&gt;Node6 -->
<g id="edge6" class="edge">
<title>Node1&#45;&gt;Node6</title>
<path fill="none" stroke="midnightblue" d="M262.56,-54.98C226.51,-44.79 171.23,-29.16 137.2,-19.54"/>
<polygon fill="midnightblue" stroke="midnightblue" points="262.06,-58.48 272.64,-57.83 263.97,-51.74 262.06,-58.48"/>
</g>
<!-- Node7 -->
<g id="node7" class="node">
<title>Node7</title>
<g id="a_node7"><a xlink:href="classControllino__2.html" target="_top" xlink:title=" ">
<polygon fill="none" stroke="black" points="165.5,-0.5 165.5,-19.5 246.5,-19.5 246.5,-0.5 165.5,-0.5"/>
<text text-anchor="middle" x="206" y="-7.5" font-family="Helvetica,sans-Serif" font-size="10.00">Controllino_2</text>
</a>
</g>
</g>
<!-- Node1&#45;&gt;Node7 -->
<g id="edge7" class="edge">
<title>Node1&#45;&gt;Node7</title>
<path fill="none" stroke="midnightblue" d="M274.45,-51.18C257.52,-41.24 235.22,-28.15 220.74,-19.65"/>
<polygon fill="midnightblue" stroke="midnightblue" points="272.82,-54.28 283.22,-56.32 276.37,-48.24 272.82,-54.28"/>
</g>
<!-- Node8 -->
<g id="node8" class="node">
<title>Node8</title>
<g id="a_node8"><a xlink:href="classLakeShore.html" target="_top" xlink:title=" ">
<polygon fill="none" stroke="black" points="264.5,-0.5 264.5,-19.5 331.5,-19.5 331.5,-0.5 264.5,-0.5"/>
<text text-anchor="middle" x="298" y="-7.5" font-family="Helvetica,sans-Serif" font-size="10.00">LakeShore</text>
</a>
</g>
</g>
<!-- Node1&#45;&gt;Node8 -->
<g id="edge8" class="edge">
<title>Node1&#45;&gt;Node8</title>
<path fill="none" stroke="midnightblue" d="M298,-45.8C298,-36.91 298,-26.78 298,-19.75"/>
<polygon fill="midnightblue" stroke="midnightblue" points="294.5,-46.08 298,-56.08 301.5,-46.08 294.5,-46.08"/>
</g>
<!-- Node9 -->
<g id="node9" class="node">
<title>Node9</title>
<g id="a_node9"><a xlink:href="classMaxiGauge.html" target="_top" xlink:title=" ">
<polygon fill="none" stroke="black" points="350,-0.5 350,-19.5 422,-19.5 422,-0.5 350,-0.5"/>
<text text-anchor="middle" x="386" y="-7.5" font-family="Helvetica,sans-Serif" font-size="10.00">MaxiGauge</text>
</a>
</g>
</g>
<!-- Node1&#45;&gt;Node9 -->
<g id="edge9" class="edge">
<title>Node1&#45;&gt;Node9</title>
<path fill="none" stroke="midnightblue" d="M320.98,-50.9C337.11,-41 358.18,-28.07 371.9,-19.65"/>
<polygon fill="midnightblue" stroke="midnightblue" points="318.83,-48.11 312.14,-56.32 322.49,-54.08 318.83,-48.11"/>
</g>
<!-- Node10 -->
<g id="node10" class="node">
<title>Node10</title>
<g id="a_node10"><a xlink:href="classTCMuxShield.html" target="_top" xlink:title=" ">
<polygon fill="none" stroke="black" points="440,-0.5 440,-19.5 520,-19.5 520,-0.5 440,-0.5"/>
<text text-anchor="middle" x="480" y="-7.5" font-family="Helvetica,sans-Serif" font-size="10.00">TCMuxShield</text>
</a>
</g>
</g>
<!-- Node1&#45;&gt;Node10 -->
<g id="edge10" class="edge">
<title>Node1&#45;&gt;Node10</title>
<path fill="none" stroke="midnightblue" d="M332.95,-54.63C367.35,-44.42 419.25,-29.02 451.31,-19.51"/>
<polygon fill="midnightblue" stroke="midnightblue" points="331.9,-51.29 323.31,-57.49 333.89,-58 331.9,-51.29"/>
</g>
<!-- Node11 -->
<g id="node11" class="node">
<title>Node11</title>
<g id="a_node11"><a xlink:href="classTurboVarianV81AG.html" target="_top" xlink:title=" ">
<polygon fill="none" stroke="black" points="538.5,-0.5 538.5,-19.5 645.5,-19.5 645.5,-0.5 538.5,-0.5"/>
<text text-anchor="middle" x="592" y="-7.5" font-family="Helvetica,sans-Serif" font-size="10.00">TurboVarianV81AG</text>
</a>
</g>
</g>
<!-- Node1&#45;&gt;Node11 -->
<g id="edge11" class="edge">
<title>Node1&#45;&gt;Node11</title>
<path fill="none" stroke="midnightblue" d="M333,-58.57C385.96,-48.84 486.52,-30.37 545.55,-19.53"/>
<polygon fill="midnightblue" stroke="midnightblue" points="332.27,-55.15 323.07,-60.4 333.53,-62.03 332.27,-55.15"/>
</g>
<!-- Node2 -->
<g id="node2" class="node">
<title>Node2</title>
<g id="a_node2"><a xlink:href="classDataManager.html" target="_top" xlink:title=" ">
<polygon fill="none" stroke="black" points="256.5,-112.5 256.5,-131.5 339.5,-131.5 339.5,-112.5 256.5,-112.5"/>
<text text-anchor="middle" x="298" y="-119.5" font-family="Helvetica,sans-Serif" font-size="10.00">DataManager</text>
</a>
</g>
</g>
<!-- Node2&#45;&gt;Node1 -->
<g id="edge1" class="edge">
<title>Node2&#45;&gt;Node1</title>
<path fill="none" stroke="midnightblue" d="M298,-101.8C298,-92.91 298,-82.78 298,-75.75"/>
<polygon fill="midnightblue" stroke="midnightblue" points="294.5,-102.08 298,-112.08 301.5,-102.08 294.5,-102.08"/>
</g>
<!-- Node3 -->
<g id="node3" class="node">
<title>Node3</title>
<g id="a_node3"><a xlink:href="interfaceDataTypes.html" target="_top" xlink:title=" ">
<polygon fill="none" stroke="black" points="229,-168.5 229,-187.5 297,-187.5 297,-168.5 229,-168.5"/>
<text text-anchor="middle" x="263" y="-175.5" font-family="Helvetica,sans-Serif" font-size="10.00">DataTypes</text>
</a>
</g>
</g>
<!-- Node3&#45;&gt;Node1 -->
<g id="edge4" class="edge">
<title>Node3&#45;&gt;Node1</title>
<path fill="none" stroke="midnightblue" d="M252.46,-159.16C245.99,-145.77 240.14,-127.19 247,-112 254.19,-96.07 270.11,-83.52 282.27,-75.76"/>
<polygon fill="midnightblue" stroke="midnightblue" points="249.53,-161.09 257.33,-168.26 255.7,-157.79 249.53,-161.09"/>
</g>
<!-- Node3&#45;&gt;Node2 -->
<g id="edge2" class="edge">
<title>Node3&#45;&gt;Node2</title>
<path fill="none" stroke="midnightblue" d="M274.3,-159.57C280.32,-150.27 287.47,-139.25 292.33,-131.75"/>
<polygon fill="midnightblue" stroke="midnightblue" points="271.28,-157.79 268.78,-168.08 277.16,-161.6 271.28,-157.79"/>
</g>
<!-- Node4 -->
<g id="node4" class="node">
<title>Node4</title>
<g id="a_node4"><a xlink:title=" ">
<polygon fill="none" stroke="#bfbfbf" points="358,-112.5 358,-131.5 420,-131.5 420,-112.5 358,-112.5"/>
<text text-anchor="middle" x="389" y="-119.5" font-family="Helvetica,sans-Serif" font-size="10.00">Runnable</text>
</a>
</g>
</g>
<!-- Node4&#45;&gt;Node1 -->
<g id="edge3" class="edge">
<title>Node4&#45;&gt;Node1</title>
<path fill="none" stroke="midnightblue" d="M365.71,-107.18C348.96,-97.24 326.9,-84.15 312.58,-75.65"/>
<polygon fill="midnightblue" stroke="midnightblue" points="363.99,-110.23 374.38,-112.32 367.57,-104.21 363.99,-110.23"/>
</g>
</g>
</svg>
