<?xml version="1.0" encoding="UTF-8" standalone="no"?>
<!DOCTYPE svg PUBLIC "-//W3C//DTD SVG 1.1//EN"
 "http://www.w3.org/Graphics/SVG/1.1/DTD/svg11.dtd">
<!-- Generated by graphviz version 2.50.0 (0)
 -->
<!-- Title: Graphical Class Hierarchy Pages: 1 -->
<svg width="583pt" height="446pt"
 viewBox="0.00 0.00 583.00 446.00" xmlns="http://www.w3.org/2000/svg" xmlns:xlink="http://www.w3.org/1999/xlink">
<g id="graph0" class="graph" transform="scale(1 1) rotate(0) translate(4 442)">
<title>Graphical Class Hierarchy</title>
<!-- Node0 -->
<g id="node1" class="node">
<title>Node0</title>
<g id="a_node1"><a xlink:href="interfaceChannelList.html" target="_top" xlink:title=" ">
<polygon fill="none" stroke="black" points="0,-304.5 0,-323.5 74,-323.5 74,-304.5 0,-304.5"/>
<text text-anchor="middle" x="37" y="-311.5" font-family="Helvetica,sans-Serif" font-size="10.00">ChannelList</text>
</a>
</g>
</g>
<!-- Node1 -->
<g id="node2" class="node">
<title>Node1</title>
<g id="a_node2"><a xlink:href="classGlgChildGui.html" target="_top" xlink:title=" ">
<polygon fill="none" stroke="black" points="131,-266.5 131,-285.5 205,-285.5 205,-266.5 131,-266.5"/>
<text text-anchor="middle" x="168" y="-273.5" font-family="Helvetica,sans-Serif" font-size="10.00">GlgChildGui</text>
</a>
</g>
</g>
<!-- Node0&#45;&gt;Node1 -->
<g id="edge1" class="edge">
<title>Node0&#45;&gt;Node1</title>
<path fill="none" stroke="midnightblue" d="M80.55,-301.46C98.1,-296.3 118.11,-290.4 134.46,-285.59"/>
<polygon fill="midnightblue" stroke="midnightblue" points="79.16,-298.23 70.55,-304.41 81.13,-304.94 79.16,-298.23"/>
</g>
<!-- Node10 -->
<g id="node11" class="node">
<title>Node10</title>
<g id="a_node11"><a xlink:href="classGlgGui.html" target="_top" xlink:title=" ">
<polygon fill="none" stroke="black" points="143,-304.5 143,-323.5 193,-323.5 193,-304.5 143,-304.5"/>
<text text-anchor="middle" x="168" y="-311.5" font-family="Helvetica,sans-Serif" font-size="10.00">GlgGui</text>
</a>
</g>
</g>
<!-- Node0&#45;&gt;Node10 -->
<g id="edge10" class="edge">
<title>Node0&#45;&gt;Node10</title>
<path fill="none" stroke="midnightblue" d="M84.35,-314C104.12,-314 126.37,-314 142.8,-314"/>
<polygon fill="midnightblue" stroke="midnightblue" points="84.28,-310.5 74.28,-314 84.28,-317.5 84.28,-310.5"/>
</g>
<!-- Node2 -->
<g id="node3" class="node">
<title>Node2</title>
<g id="a_node3"><a xlink:href="classGlgCryo1500wIntGui.html" target="_top" xlink:title=" ">
<polygon fill="none" stroke="black" points="288.5,-304.5 288.5,-323.5 405.5,-323.5 405.5,-304.5 288.5,-304.5"/>
<text text-anchor="middle" x="347" y="-311.5" font-family="Helvetica,sans-Serif" font-size="10.00">GlgCryo1500wIntGui</text>
</a>
</g>
</g>
<!-- Node1&#45;&gt;Node2 -->
<g id="edge2" class="edge">
<title>Node1&#45;&gt;Node2</title>
<path fill="none" stroke="midnightblue" d="M215.12,-285.9C241.82,-291.63 275.25,-298.81 301.65,-304.48"/>
<polygon fill="midnightblue" stroke="midnightblue" points="215.76,-282.46 205.25,-283.78 214.29,-289.3 215.76,-282.46"/>
</g>
<!-- Node3 -->
<g id="node4" class="node">
<title>Node3</title>
<g id="a_node4"><a xlink:href="classGlgCryo1500wStatusDetailsGui.html" target="_top" xlink:title=" ">
<polygon fill="none" stroke="black" points="262,-266.5 262,-285.5 432,-285.5 432,-266.5 262,-266.5"/>
<text text-anchor="middle" x="347" y="-273.5" font-family="Helvetica,sans-Serif" font-size="10.00">GlgCryo1500wStatusDetailsGui</text>
</a>
</g>
</g>
<!-- Node1&#45;&gt;Node3 -->
<g id="edge3" class="edge">
<title>Node1&#45;&gt;Node3</title>
<path fill="none" stroke="midnightblue" d="M215.31,-276C229.63,-276 245.88,-276 261.94,-276"/>
<polygon fill="midnightblue" stroke="midnightblue" points="215.25,-272.5 205.25,-276 215.25,-279.5 215.25,-272.5"/>
</g>
<!-- Node4 -->
<g id="node5" class="node">
<title>Node4</title>
<g id="a_node5"><a xlink:href="classGlgCryo1500wTempGui.html" target="_top" xlink:title=" ">
<polygon fill="none" stroke="black" points="281.5,-228.5 281.5,-247.5 412.5,-247.5 412.5,-228.5 281.5,-228.5"/>
<text text-anchor="middle" x="347" y="-235.5" font-family="Helvetica,sans-Serif" font-size="10.00">GlgCryo1500wTempGui</text>
</a>
</g>
</g>
<!-- Node1&#45;&gt;Node4 -->
<g id="edge4" class="edge">
<title>Node1&#45;&gt;Node4</title>
<path fill="none" stroke="midnightblue" d="M215.12,-266.1C241.82,-260.37 275.25,-253.19 301.65,-247.52"/>
<polygon fill="midnightblue" stroke="midnightblue" points="214.29,-262.7 205.25,-268.22 215.76,-269.54 214.29,-262.7"/>
</g>
<!-- Node5 -->
<g id="node6" class="node">
<title>Node5</title>
<g id="a_node6"><a xlink:href="classGlgDryGui.html" target="_top" xlink:title=" ">
<polygon fill="none" stroke="black" points="313.5,-190.5 313.5,-209.5 380.5,-209.5 380.5,-190.5 313.5,-190.5"/>
<text text-anchor="middle" x="347" y="-197.5" font-family="Helvetica,sans-Serif" font-size="10.00">GlgDryGui</text>
</a>
</g>
</g>
<!-- Node1&#45;&gt;Node5 -->
<g id="edge5" class="edge">
<title>Node1&#45;&gt;Node5</title>
<path fill="none" stroke="midnightblue" d="M206.57,-262.36C213.25,-259.33 219.99,-255.86 226,-252 244.27,-240.28 242.77,-229.07 262,-219 277.76,-210.75 297.02,-206.06 313.12,-203.41"/>
<polygon fill="midnightblue" stroke="midnightblue" points="204.75,-259.33 196.92,-266.47 207.5,-265.77 204.75,-259.33"/>
</g>
<!-- Node6 -->
<g id="node7" class="node">
<title>Node6</title>
<g id="a_node7"><a xlink:href="classGlgGaugeGui.html" target="_top" xlink:title=" ">
<polygon fill="none" stroke="black" points="306.5,-152.5 306.5,-171.5 387.5,-171.5 387.5,-152.5 306.5,-152.5"/>
<text text-anchor="middle" x="347" y="-159.5" font-family="Helvetica,sans-Serif" font-size="10.00">GlgGaugeGui</text>
</a>
</g>
</g>
<!-- Node1&#45;&gt;Node6 -->
<g id="edge6" class="edge">
<title>Node1&#45;&gt;Node6</title>
<path fill="none" stroke="midnightblue" d="M211.97,-261.9C217.05,-259.12 221.88,-255.84 226,-252 251.89,-227.88 234.09,-202.75 262,-181 274.5,-171.26 291.05,-166.33 306.15,-163.89"/>
<polygon fill="midnightblue" stroke="midnightblue" points="210.17,-258.88 202.68,-266.38 213.21,-265.19 210.17,-258.88"/>
</g>
<!-- Node7 -->
<g id="node8" class="node">
<title>Node7</title>
<g id="a_node8"><a xlink:href="classGlgTurboGui.html" target="_top" xlink:title=" ">
<polygon fill="none" stroke="black" points="309,-418.5 309,-437.5 385,-437.5 385,-418.5 309,-418.5"/>
<text text-anchor="middle" x="347" y="-425.5" font-family="Helvetica,sans-Serif" font-size="10.00">GlgTurboGui</text>
</a>
</g>
</g>
<!-- Node1&#45;&gt;Node7 -->
<g id="edge7" class="edge">
<title>Node1&#45;&gt;Node7</title>
<path fill="none" stroke="midnightblue" d="M214.26,-286.43C218.58,-288.74 222.61,-291.56 226,-295 263.27,-332.87 222.9,-373.03 262,-409 274.54,-420.54 292.57,-425.57 308.72,-427.6"/>
<polygon fill="midnightblue" stroke="midnightblue" points="215.63,-283.21 205.07,-282.37 212.81,-289.61 215.63,-283.21"/>
</g>
<!-- Node8 -->
<g id="node9" class="node">
<title>Node8</title>
<g id="a_node9"><a xlink:href="classGlgValveGui.html" target="_top" xlink:title=" ">
<polygon fill="none" stroke="black" points="308.5,-380.5 308.5,-399.5 385.5,-399.5 385.5,-380.5 308.5,-380.5"/>
<text text-anchor="middle" x="347" y="-387.5" font-family="Helvetica,sans-Serif" font-size="10.00">GlgValveGui</text>
</a>
</g>
</g>
<!-- Node1&#45;&gt;Node8 -->
<g id="edge8" class="edge">
<title>Node1&#45;&gt;Node8</title>
<path fill="none" stroke="midnightblue" d="M214.48,-287.26C218.64,-289.4 222.57,-291.96 226,-295 253.97,-319.79 232.83,-347.63 262,-371 274.95,-381.38 292.46,-386.33 308.15,-388.61"/>
<polygon fill="midnightblue" stroke="midnightblue" points="215.68,-283.96 205.11,-283.17 212.88,-290.38 215.68,-283.96"/>
</g>
<!-- Node9 -->
<g id="node10" class="node">
<title>Node9</title>
<g id="a_node10"><a xlink:href="classGlgXGSGaugeGui.html" target="_top" xlink:title=" ">
<polygon fill="none" stroke="black" points="296.5,-342.5 296.5,-361.5 397.5,-361.5 397.5,-342.5 296.5,-342.5"/>
<text text-anchor="middle" x="347" y="-349.5" font-family="Helvetica,sans-Serif" font-size="10.00">GlgXGSGaugeGui</text>
</a>
</g>
</g>
<!-- Node1&#45;&gt;Node9 -->
<g id="edge9" class="edge">
<title>Node1&#45;&gt;Node9</title>
<path fill="none" stroke="midnightblue" d="M214.6,-288.9C218.57,-290.7 222.44,-292.73 226,-295 245.62,-307.5 241.78,-321.49 262,-333 272.4,-338.92 284.5,-342.99 296.22,-345.8"/>
<polygon fill="midnightblue" stroke="midnightblue" points="215.77,-285.6 205.19,-285.08 213.14,-292.09 215.77,-285.6"/>
</g>
<!-- Node13 -->
<g id="node12" class="node">
<title>Node13</title>
<g id="a_node12"><a xlink:href="interfaceDataTypes.html" target="_top" xlink:title=" ">
<polygon fill="none" stroke="black" points="3,-133.5 3,-152.5 71,-152.5 71,-133.5 3,-133.5"/>
<text text-anchor="middle" x="37" y="-140.5" font-family="Helvetica,sans-Serif" font-size="10.00">DataTypes</text>
</a>
</g>
</g>
<!-- Node14 -->
<g id="node13" class="node">
<title>Node14</title>
<g id="a_node13"><a xlink:href="classDataElement.html" target="_top" xlink:title=" ">
<polygon fill="none" stroke="black" points="128,-114.5 128,-133.5 208,-133.5 208,-114.5 128,-114.5"/>
<text text-anchor="middle" x="168" y="-121.5" font-family="Helvetica,sans-Serif" font-size="10.00">DataElement</text>
</a>
</g>
</g>
<!-- Node13&#45;&gt;Node14 -->
<g id="edge11" class="edge">
<title>Node13&#45;&gt;Node14</title>
<path fill="none" stroke="midnightblue" d="M81.33,-136.62C96.41,-134.4 113.22,-131.92 127.93,-129.75"/>
<polygon fill="midnightblue" stroke="midnightblue" points="80.6,-133.19 71.22,-138.11 81.62,-140.11 80.6,-133.19"/>
</g>
<!-- Node15 -->
<g id="node14" class="node">
<title>Node15</title>
<g id="a_node14"><a xlink:href="classDataManager.html" target="_top" xlink:title=" ">
<polygon fill="none" stroke="black" points="126.5,-76.5 126.5,-95.5 209.5,-95.5 209.5,-76.5 126.5,-76.5"/>
<text text-anchor="middle" x="168" y="-83.5" font-family="Helvetica,sans-Serif" font-size="10.00">DataManager</text>
</a>
</g>
</g>
<!-- Node13&#45;&gt;Node15 -->
<g id="edge12" class="edge">
<title>Node13&#45;&gt;Node15</title>
<path fill="none" stroke="midnightblue" d="M63,-128.51C76.63,-120.94 93.95,-111.86 110,-105 118.06,-101.56 126.96,-98.33 135.3,-95.54"/>
<polygon fill="midnightblue" stroke="midnightblue" points="61.21,-125.5 54.21,-133.46 64.64,-131.6 61.21,-125.5"/>
</g>
<!-- Node16 -->
<g id="node15" class="node">
<title>Node16</title>
<g id="a_node15"><a xlink:href="classDevice.html" target="_top" xlink:title=" ">
<polygon fill="none" stroke="black" points="322,-114.5 322,-133.5 372,-133.5 372,-114.5 322,-114.5"/>
<text text-anchor="middle" x="347" y="-121.5" font-family="Helvetica,sans-Serif" font-size="10.00">Device</text>
</a>
</g>
</g>
<!-- Node13&#45;&gt;Node16 -->
<g id="edge21" class="edge">
<title>Node13&#45;&gt;Node16</title>
<path fill="none" stroke="midnightblue" d="M81.24,-144.92C119.39,-146.16 176.48,-146.9 226,-143 259.43,-140.37 297.63,-133.68 321.77,-128.98"/>
<polygon fill="midnightblue" stroke="midnightblue" points="81.12,-141.42 71,-144.56 80.87,-148.41 81.12,-141.42"/>
</g>
<!-- Node24 -->
<g id="node23" class="node">
<title>Node24</title>
<g id="a_node23"><a xlink:href="classModbusSlaveThread.html" target="_top" xlink:title=" ">
<polygon fill="none" stroke="black" points="110,-190.5 110,-209.5 226,-209.5 226,-190.5 110,-190.5"/>
<text text-anchor="middle" x="168" y="-197.5" font-family="Helvetica,sans-Serif" font-size="10.00">ModbusSlaveThread</text>
</a>
</g>
</g>
<!-- Node13&#45;&gt;Node24 -->
<g id="edge22" class="edge">
<title>Node13&#45;&gt;Node24</title>
<path fill="none" stroke="midnightblue" d="M67.76,-156.89C80.7,-162.87 96.06,-169.87 110,-176 121.11,-180.88 133.51,-186.13 143.91,-190.47"/>
<polygon fill="midnightblue" stroke="midnightblue" points="68.95,-153.59 58.41,-152.56 66.01,-159.94 68.95,-153.59"/>
</g>
<!-- Node15&#45;&gt;Node16 -->
<g id="edge13" class="edge">
<title>Node15&#45;&gt;Node16</title>
<path fill="none" stroke="midnightblue" d="M219.71,-96.89C253.28,-104.09 295.77,-113.22 321.91,-118.83"/>
<polygon fill="midnightblue" stroke="midnightblue" points="220.12,-93.4 209.61,-94.72 218.65,-100.24 220.12,-93.4"/>
</g>
<!-- Node17 -->
<g id="node16" class="node">
<title>Node17</title>
<g id="a_node16"><a xlink:href="classChiller.html" target="_top" xlink:title=" ">
<polygon fill="none" stroke="black" points="497.5,-228.5 497.5,-247.5 545.5,-247.5 545.5,-228.5 497.5,-228.5"/>
<text text-anchor="middle" x="521.5" y="-235.5" font-family="Helvetica,sans-Serif" font-size="10.00">Chiller</text>
</a>
</g>
</g>
<!-- Node16&#45;&gt;Node17 -->
<g id="edge14" class="edge">
<title>Node16&#45;&gt;Node17</title>
<path fill="none" stroke="midnightblue" d="M382.51,-124.95C399,-126.99 418.12,-131.88 432,-143 461.17,-166.37 440.34,-193.86 468,-219 476.1,-226.37 487.28,-230.93 497.24,-233.73"/>
<polygon fill="midnightblue" stroke="midnightblue" points="382.42,-121.42 372.14,-123.97 381.77,-128.39 382.42,-121.42"/>
</g>
<!-- Node18 -->
<g id="node17" class="node">
<title>Node18</title>
<g id="a_node17"><a xlink:href="classControllino__1.html" target="_top" xlink:title=" ">
<polygon fill="none" stroke="black" points="481,-190.5 481,-209.5 562,-209.5 562,-190.5 481,-190.5"/>
<text text-anchor="middle" x="521.5" y="-197.5" font-family="Helvetica,sans-Serif" font-size="10.00">Controllino_1</text>
</a>
</g>
</g>
<!-- Node16&#45;&gt;Node18 -->
<g id="edge15" class="edge">
<title>Node16&#45;&gt;Node18</title>
<path fill="none" stroke="midnightblue" d="M382.17,-127.1C398.11,-129.68 416.86,-134.38 432,-143 452.22,-154.51 448.54,-168.25 468,-181 473.76,-184.77 480.36,-187.91 486.89,-190.48"/>
<polygon fill="midnightblue" stroke="midnightblue" points="382.55,-123.62 372.16,-125.7 381.58,-130.55 382.55,-123.62"/>
</g>
<!-- Node19 -->
<g id="node18" class="node">
<title>Node19</title>
<g id="a_node18"><a xlink:href="classControllino__2.html" target="_top" xlink:title=" ">
<polygon fill="none" stroke="black" points="481,-152.5 481,-171.5 562,-171.5 562,-152.5 481,-152.5"/>
<text text-anchor="middle" x="521.5" y="-159.5" font-family="Helvetica,sans-Serif" font-size="10.00">Controllino_2</text>
</a>
</g>
</g>
<!-- Node16&#45;&gt;Node19 -->
<g id="edge16" class="edge">
<title>Node16&#45;&gt;Node19</title>
<path fill="none" stroke="midnightblue" d="M382.24,-131.54C410.69,-137.81 451.18,-146.73 480.99,-153.3"/>
<polygon fill="midnightblue" stroke="midnightblue" points="382.87,-128.1 372.35,-129.36 381.36,-134.93 382.87,-128.1"/>
</g>
<!-- Node20 -->
<g id="node19" class="node">
<title>Node20</title>
<g id="a_node19"><a xlink:href="classLakeShore.html" target="_top" xlink:title=" ">
<polygon fill="none" stroke="black" points="488,-114.5 488,-133.5 555,-133.5 555,-114.5 488,-114.5"/>
<text text-anchor="middle" x="521.5" y="-121.5" font-family="Helvetica,sans-Serif" font-size="10.00">LakeShore</text>
</a>
</g>
</g>
<!-- Node16&#45;&gt;Node20 -->
<g id="edge17" class="edge">
<title>Node16&#45;&gt;Node20</title>
<path fill="none" stroke="midnightblue" d="M382.57,-124C413.21,-124 457.64,-124 487.73,-124"/>
<polygon fill="midnightblue" stroke="midnightblue" points="382.35,-120.5 372.35,-124 382.35,-127.5 382.35,-120.5"/>
</g>
<!-- Node21 -->
<g id="node20" class="node">
<title>Node21</title>
<g id="a_node20"><a xlink:href="classMaxiGauge.html" target="_top" xlink:title=" ">
<polygon fill="none" stroke="black" points="485.5,-76.5 485.5,-95.5 557.5,-95.5 557.5,-76.5 485.5,-76.5"/>
<text text-anchor="middle" x="521.5" y="-83.5" font-family="Helvetica,sans-Serif" font-size="10.00">MaxiGauge</text>
</a>
</g>
</g>
<!-- Node16&#45;&gt;Node21 -->
<g id="edge18" class="edge">
<title>Node16&#45;&gt;Node21</title>
<path fill="none" stroke="midnightblue" d="M382.3,-116.44C412.11,-109.88 455.11,-100.4 485.21,-93.77"/>
<polygon fill="midnightblue" stroke="midnightblue" points="381.36,-113.07 372.35,-118.64 382.87,-119.9 381.36,-113.07"/>
</g>
<!-- Node22 -->
<g id="node21" class="node">
<title>Node22</title>
<g id="a_node21"><a xlink:href="classTCMuxShield.html" target="_top" xlink:title=" ">
<polygon fill="none" stroke="black" points="481.5,-38.5 481.5,-57.5 561.5,-57.5 561.5,-38.5 481.5,-38.5"/>
<text text-anchor="middle" x="521.5" y="-45.5" font-family="Helvetica,sans-Serif" font-size="10.00">TCMuxShield</text>
</a>
</g>
</g>
<!-- Node16&#45;&gt;Node22 -->
<g id="edge19" class="edge">
<title>Node16&#45;&gt;Node22</title>
<path fill="none" stroke="midnightblue" d="M376.12,-109.7C400.22,-97.67 436.01,-80.35 468,-67 475.87,-63.71 484.54,-60.44 492.52,-57.56"/>
<polygon fill="midnightblue" stroke="midnightblue" points="374.23,-106.73 366.87,-114.34 377.37,-112.99 374.23,-106.73"/>
</g>
<!-- Node23 -->
<g id="node22" class="node">
<title>Node23</title>
<g id="a_node22"><a xlink:href="classTurboVarianV81AG.html" target="_top" xlink:title=" ">
<polygon fill="none" stroke="black" points="468,-0.5 468,-19.5 575,-19.5 575,-0.5 468,-0.5"/>
<text text-anchor="middle" x="521.5" y="-7.5" font-family="Helvetica,sans-Serif" font-size="10.00">TurboVarianV81AG</text>
</a>
</g>
</g>
<!-- Node16&#45;&gt;Node23 -->
<g id="edge20" class="edge">
<title>Node16&#45;&gt;Node23</title>
<path fill="none" stroke="midnightblue" d="M365.08,-107.5C387.26,-86.81 427.9,-51.35 468,-29 474.52,-25.37 481.87,-22.2 488.95,-19.55"/>
<polygon fill="midnightblue" stroke="midnightblue" points="362.65,-104.98 357.78,-114.4 367.45,-110.07 362.65,-104.98"/>
</g>
<!-- Node39 -->
<g id="node24" class="node">
<title>Node39</title>
<g id="a_node24"><a xlink:title=" ">
<polygon fill="none" stroke="#bfbfbf" points="6,-228.5 6,-247.5 68,-247.5 68,-228.5 6,-228.5"/>
<text text-anchor="middle" x="37" y="-235.5" font-family="Helvetica,sans-Serif" font-size="10.00">Runnable</text>
</a>
</g>
</g>
<!-- Node39&#45;&gt;Node1 -->
<g id="edge24" class="edge">
<title>Node39&#45;&gt;Node1</title>
<path fill="none" stroke="midnightblue" d="M78.01,-249.78C96.23,-255.15 117.51,-261.42 134.69,-266.48"/>
<polygon fill="midnightblue" stroke="midnightblue" points="78.83,-246.38 68.24,-246.91 76.85,-253.09 78.83,-246.38"/>
</g>
<!-- Node39&#45;&gt;Node10 -->
<g id="edge25" class="edge">
<title>Node39&#45;&gt;Node10</title>
<path fill="none" stroke="midnightblue" d="M67.6,-252.59C69.82,-253.99 71.98,-255.47 74,-257 92.53,-271.06 90.38,-282.5 110,-295 119.94,-301.33 132.21,-305.78 142.82,-308.76"/>
<polygon fill="midnightblue" stroke="midnightblue" points="69.3,-249.53 58.89,-247.55 65.79,-255.58 69.3,-249.53"/>
</g>
<!-- Node39&#45;&gt;Node16 -->
<g id="edge23" class="edge">
<title>Node39&#45;&gt;Node16</title>
<path fill="none" stroke="midnightblue" d="M78.29,-244.64C119.26,-249.12 182.73,-249.54 226,-219 256.54,-197.45 232.83,-166.37 262,-143 278.92,-129.44 303.62,-125.15 321.86,-123.97"/>
<polygon fill="midnightblue" stroke="midnightblue" points="78.48,-241.13 68.12,-243.39 77.62,-248.08 78.48,-241.13"/>
</g>
<!-- Node39&#45;&gt;Node24 -->
<g id="edge26" class="edge">
<title>Node39&#45;&gt;Node24</title>
<path fill="none" stroke="midnightblue" d="M78.01,-226.22C96.23,-220.85 117.51,-214.58 134.69,-209.52"/>
<polygon fill="midnightblue" stroke="midnightblue" points="76.85,-222.91 68.24,-229.09 78.83,-229.62 76.85,-222.91"/>
</g>
<!-- Node43 -->
<g id="node25" class="node">
<title>Node43</title>
<g id="a_node25"><a xlink:title=" ">
<polygon fill="none" stroke="#bfbfbf" points="12,-266.5 12,-285.5 62,-285.5 62,-266.5 12,-266.5"/>
<text text-anchor="middle" x="37" y="-273.5" font-family="Helvetica,sans-Serif" font-size="10.00">JFrame</text>
</a>
</g>
</g>
<!-- Node43&#45;&gt;Node1 -->
<g id="edge27" class="edge">
<title>Node43&#45;&gt;Node1</title>
<path fill="none" stroke="midnightblue" d="M72.33,-276C90.33,-276 112.36,-276 130.65,-276"/>
<polygon fill="midnightblue" stroke="midnightblue" points="72.26,-272.5 62.26,-276 72.26,-279.5 72.26,-272.5"/>
</g>
<!-- Node43&#45;&gt;Node10 -->
<g id="edge28" class="edge">
<title>Node43&#45;&gt;Node10</title>
<path fill="none" stroke="midnightblue" d="M72,-286.02C94.29,-292.58 122.88,-301 142.84,-306.88"/>
<polygon fill="midnightblue" stroke="midnightblue" points="72.85,-282.62 62.26,-283.15 70.87,-289.33 72.85,-282.62"/>
</g>
</g>
</svg>
