<?xml version="1.0" encoding="UTF-8" standalone="no"?>
<!DOCTYPE svg PUBLIC "-//W3C//DTD SVG 1.1//EN"
 "http://www.w3.org/Graphics/SVG/1.1/DTD/svg11.dtd">
<!-- Generated by graphviz version 2.50.0 (0)
 -->
<!-- Title: Graphical Class Hierarchy Pages: 1 -->
<svg width="309pt" height="328pt"
 viewBox="0.00 0.00 309.00 327.50" xmlns="http://www.w3.org/2000/svg" xmlns:xlink="http://www.w3.org/1999/xlink">
<g id="graph0" class="graph" transform="scale(1 1) rotate(0) translate(4 323.5)">
<title>Graphical Class Hierarchy</title>
<polygon fill="white" stroke="transparent" points="-4,4 -4,-323.5 305,-323.5 305,4 -4,4"/>
<!-- Node26 -->
<g id="node1" class="node">
<title>Node26</title>
<g id="a_node1"><a xlink:title=" ">
<polygon fill="white" stroke="#bfbfbf" points="0,-133.5 0,-152.5 97,-152.5 97,-133.5 0,-133.5"/>
<text text-anchor="middle" x="48.5" y="-140.5" font-family="Helvetica,sans-Serif" font-size="10.00">GlgInputListener</text>
</a>
</g>
</g>
<!-- Node0 -->
<g id="node2" class="node">
<title>Node0</title>
<g id="a_node2"><a xlink:href="classGlgCryo1500wIntGui_1_1InputListener.html" target="_top" xlink:title=" ">
<polygon fill="white" stroke="black" points="144.5,-289 144.5,-319 289.5,-319 289.5,-289 144.5,-289"/>
<text text-anchor="start" x="152.5" y="-307" font-family="Helvetica,sans-Serif" font-size="10.00">GlgCryo1500wIntGui.Input</text>
<text text-anchor="middle" x="217" y="-296" font-family="Helvetica,sans-Serif" font-size="10.00">Listener</text>
</a>
</g>
</g>
<!-- Node26&#45;&gt;Node0 -->
<g id="edge1" class="edge">
<title>Node26&#45;&gt;Node0</title>
<path fill="none" stroke="midnightblue" d="M56.03,-162.29C67.1,-192.05 92.39,-248.97 133,-280 137.53,-283.46 142.54,-286.42 147.8,-288.96"/>
<polygon fill="midnightblue" stroke="midnightblue" points="59.25,-160.89 52.59,-152.65 52.66,-163.24 59.25,-160.89"/>
</g>
<!-- Node28 -->
<g id="node3" class="node">
<title>Node28</title>
<g id="a_node3"><a xlink:href="classGlgCryo1500wStatusDetailsGui_1_1InputListener.html" target="_top" xlink:title=" ">
<polygon fill="white" stroke="black" points="140.5,-240 140.5,-270 293.5,-270 293.5,-240 140.5,-240"/>
<text text-anchor="start" x="148.5" y="-258" font-family="Helvetica,sans-Serif" font-size="10.00">GlgCryo1500wStatusDetails</text>
<text text-anchor="middle" x="217" y="-247" font-family="Helvetica,sans-Serif" font-size="10.00">Gui.InputListener</text>
</a>
</g>
</g>
<!-- Node26&#45;&gt;Node28 -->
<g id="edge2" class="edge">
<title>Node26&#45;&gt;Node28</title>
<path fill="none" stroke="midnightblue" d="M61.77,-160.75C76.46,-180.7 102.89,-212.68 133,-231 138.64,-234.43 144.79,-237.39 151.11,-239.94"/>
<polygon fill="midnightblue" stroke="midnightblue" points="64.54,-158.62 55.87,-152.53 58.85,-162.69 64.54,-158.62"/>
</g>
<!-- Node29 -->
<g id="node4" class="node">
<title>Node29</title>
<g id="a_node4"><a xlink:href="classGlgCryo1500wTempGui_1_1InputListener.html" target="_top" xlink:title=" ">
<polygon fill="white" stroke="black" points="138,-191 138,-221 296,-221 296,-191 138,-191"/>
<text text-anchor="start" x="146" y="-209" font-family="Helvetica,sans-Serif" font-size="10.00">GlgCryo1500wTempGui.Input</text>
<text text-anchor="middle" x="217" y="-198" font-family="Helvetica,sans-Serif" font-size="10.00">Listener</text>
</a>
</g>
</g>
<!-- Node26&#45;&gt;Node29 -->
<g id="edge3" class="edge">
<title>Node26&#45;&gt;Node29</title>
<path fill="none" stroke="midnightblue" d="M78.06,-157.15C94.01,-164.76 114.36,-173.99 133,-181 142.3,-184.5 152.32,-187.85 162.07,-190.91"/>
<polygon fill="midnightblue" stroke="midnightblue" points="79.28,-153.86 68.76,-152.66 76.24,-160.16 79.28,-153.86"/>
</g>
<!-- Node30 -->
<g id="node5" class="node">
<title>Node30</title>
<g id="a_node5"><a xlink:href="classGlgDryGui_1_1InputListener.html" target="_top" xlink:title=" ">
<polygon fill="white" stroke="black" points="150,-152.5 150,-171.5 284,-171.5 284,-152.5 150,-152.5"/>
<text text-anchor="middle" x="217" y="-159.5" font-family="Helvetica,sans-Serif" font-size="10.00">GlgDryGui.InputListener</text>
</a>
</g>
</g>
<!-- Node26&#45;&gt;Node30 -->
<g id="edge4" class="edge">
<title>Node26&#45;&gt;Node30</title>
<path fill="none" stroke="midnightblue" d="M107.48,-149.62C121.2,-151.18 135.93,-152.86 149.98,-154.47"/>
<polygon fill="midnightblue" stroke="midnightblue" points="107.54,-146.1 97.21,-148.44 106.75,-153.06 107.54,-146.1"/>
</g>
<!-- Node31 -->
<g id="node6" class="node">
<title>Node31</title>
<g id="a_node6"><a xlink:href="classGlgGaugeGui_1_1InputListener.html" target="_top" xlink:title=" ">
<polygon fill="white" stroke="black" points="143,-114.5 143,-133.5 291,-133.5 291,-114.5 143,-114.5"/>
<text text-anchor="middle" x="217" y="-121.5" font-family="Helvetica,sans-Serif" font-size="10.00">GlgGaugeGui.InputListener</text>
</a>
</g>
</g>
<!-- Node26&#45;&gt;Node31 -->
<g id="edge5" class="edge">
<title>Node26&#45;&gt;Node31</title>
<path fill="none" stroke="midnightblue" d="M107.46,-136.39C118.87,-135.08 130.98,-133.7 142.82,-132.35"/>
<polygon fill="midnightblue" stroke="midnightblue" points="106.75,-132.94 97.21,-137.56 107.54,-139.9 106.75,-132.94"/>
</g>
<!-- Node32 -->
<g id="node7" class="node">
<title>Node32</title>
<g id="a_node7"><a xlink:href="classGlgTurboGui_1_1InputListener.html" target="_top" xlink:title=" ">
<polygon fill="white" stroke="black" points="145.5,-76.5 145.5,-95.5 288.5,-95.5 288.5,-76.5 145.5,-76.5"/>
<text text-anchor="middle" x="217" y="-83.5" font-family="Helvetica,sans-Serif" font-size="10.00">GlgTurboGui.InputListener</text>
</a>
</g>
</g>
<!-- Node26&#45;&gt;Node32 -->
<g id="edge6" class="edge">
<title>Node26&#45;&gt;Node32</title>
<path fill="none" stroke="midnightblue" d="M76.94,-128.81C92.97,-120.96 113.76,-111.51 133,-105 143.78,-101.35 155.59,-98.18 166.83,-95.53"/>
<polygon fill="midnightblue" stroke="midnightblue" points="75.02,-125.86 67.64,-133.45 78.15,-132.12 75.02,-125.86"/>
</g>
<!-- Node33 -->
<g id="node8" class="node">
<title>Node33</title>
<g id="a_node8"><a xlink:href="classGlgValveGui_1_1InputListener.html" target="_top" xlink:title=" ">
<polygon fill="white" stroke="black" points="145.5,-38.5 145.5,-57.5 288.5,-57.5 288.5,-38.5 145.5,-38.5"/>
<text text-anchor="middle" x="217" y="-45.5" font-family="Helvetica,sans-Serif" font-size="10.00">GlgValveGui.InputListener</text>
</a>
</g>
</g>
<!-- Node26&#45;&gt;Node33 -->
<g id="edge7" class="edge">
<title>Node26&#45;&gt;Node33</title>
<path fill="none" stroke="midnightblue" d="M63.75,-125.59C79.04,-108.1 104.93,-81.67 133,-67 140.47,-63.1 148.72,-59.99 157.05,-57.52"/>
<polygon fill="midnightblue" stroke="midnightblue" points="60.94,-123.49 57.13,-133.38 66.28,-128.02 60.94,-123.49"/>
</g>
<!-- Node34 -->
<g id="node9" class="node">
<title>Node34</title>
<g id="a_node9"><a xlink:href="classGlgXGSGaugeGui_1_1InputListener.html" target="_top" xlink:title=" ">
<polygon fill="white" stroke="black" points="133,-0.5 133,-19.5 301,-19.5 301,-0.5 133,-0.5"/>
<text text-anchor="middle" x="217" y="-7.5" font-family="Helvetica,sans-Serif" font-size="10.00">GlgXGSGaugeGui.InputListener</text>
</a>
</g>
</g>
<!-- Node26&#45;&gt;Node34 -->
<g id="edge8" class="edge">
<title>Node26&#45;&gt;Node34</title>
<path fill="none" stroke="midnightblue" d="M57.99,-124.14C70.56,-98.45 96.63,-52.92 133,-29 138.93,-25.1 145.55,-22 152.4,-19.52"/>
<polygon fill="midnightblue" stroke="midnightblue" points="54.8,-122.69 53.7,-133.23 61.13,-125.68 54.8,-122.69"/>
</g>
</g>
</svg>
