<?xml version="1.0" encoding="UTF-8" standalone="no"?>
<!DOCTYPE svg PUBLIC "-//W3C//DTD SVG 1.1//EN"
 "http://www.w3.org/Graphics/SVG/1.1/DTD/svg11.dtd">
<!-- Generated by graphviz version 2.50.0 (0)
 -->
<!-- Title: ChannelList Pages: 1 -->
<svg width="398pt" height="294pt"
 viewBox="0.00 0.00 398.00 294.00" xmlns="http://www.w3.org/2000/svg" xmlns:xlink="http://www.w3.org/1999/xlink">
<g id="graph0" class="graph" transform="scale(1 1) rotate(0) translate(4 290)">
<title>ChannelList</title>
<!-- Node1 -->
<g id="node1" class="node">
<title>Node1</title>
<g id="a_node1"><a xlink:title=" ">
<polygon fill="#bfbfbf" stroke="black" points="0,-114.5 0,-133.5 74,-133.5 74,-114.5 0,-114.5"/>
<text text-anchor="middle" x="37" y="-121.5" font-family="Helvetica,sans-Serif" font-size="10.00">ChannelList</text>
</a>
</g>
</g>
<!-- Node2 -->
<g id="node2" class="node">
<title>Node2</title>
<g id="a_node2"><a xlink:href="classGlgChildGui.html" target="_top" xlink:title=" ">
<polygon fill="none" stroke="black" points="110,-133.5 110,-152.5 184,-152.5 184,-133.5 110,-133.5"/>
<text text-anchor="middle" x="147" y="-140.5" font-family="Helvetica,sans-Serif" font-size="10.00">GlgChildGui</text>
</a>
</g>
</g>
<!-- Node1&#45;&gt;Node2 -->
<g id="edge1" class="edge">
<title>Node1&#45;&gt;Node2</title>
<path fill="none" stroke="midnightblue" d="M84.39,-132.16C92.84,-133.65 101.54,-135.18 109.65,-136.6"/>
<polygon fill="midnightblue" stroke="midnightblue" points="84.72,-128.67 74.26,-130.38 83.51,-135.56 84.72,-128.67"/>
</g>
<!-- Node11 -->
<g id="node11" class="node">
<title>Node11</title>
<g id="a_node11"><a xlink:href="classGlgGui.html" target="_top" xlink:title=" ">
<polygon fill="none" stroke="black" points="122,-95.5 122,-114.5 172,-114.5 172,-95.5 122,-95.5"/>
<text text-anchor="middle" x="147" y="-102.5" font-family="Helvetica,sans-Serif" font-size="10.00">GlgGui</text>
</a>
</g>
</g>
<!-- Node1&#45;&gt;Node11 -->
<g id="edge10" class="edge">
<title>Node1&#45;&gt;Node11</title>
<path fill="none" stroke="midnightblue" d="M84.43,-115.83C97.34,-113.56 110.84,-111.19 121.9,-109.24"/>
<polygon fill="midnightblue" stroke="midnightblue" points="83.51,-112.44 74.26,-117.62 84.72,-119.33 83.51,-112.44"/>
</g>
<!-- Node3 -->
<g id="node3" class="node">
<title>Node3</title>
<g id="a_node3"><a xlink:href="classGlgCryo1500wIntGui.html" target="_top" xlink:title=" ">
<polygon fill="none" stroke="black" points="246.5,-266.5 246.5,-285.5 363.5,-285.5 363.5,-266.5 246.5,-266.5"/>
<text text-anchor="middle" x="305" y="-273.5" font-family="Helvetica,sans-Serif" font-size="10.00">GlgCryo1500wIntGui</text>
</a>
</g>
</g>
<!-- Node2&#45;&gt;Node3 -->
<g id="edge2" class="edge">
<title>Node2&#45;&gt;Node3</title>
<path fill="none" stroke="midnightblue" d="M154.73,-162.19C164.78,-187.92 186.22,-233.14 220,-257 227.82,-262.52 236.97,-266.47 246.31,-269.28"/>
<polygon fill="midnightblue" stroke="midnightblue" points="157.99,-160.92 151.22,-152.77 151.43,-163.36 157.99,-160.92"/>
</g>
<!-- Node4 -->
<g id="node4" class="node">
<title>Node4</title>
<g id="a_node4"><a xlink:href="classGlgCryo1500wStatusDetailsGui.html" target="_top" xlink:title=" ">
<polygon fill="none" stroke="black" points="220,-228.5 220,-247.5 390,-247.5 390,-228.5 220,-228.5"/>
<text text-anchor="middle" x="305" y="-235.5" font-family="Helvetica,sans-Serif" font-size="10.00">GlgCryo1500wStatusDetailsGui</text>
</a>
</g>
</g>
<!-- Node2&#45;&gt;Node4 -->
<g id="edge3" class="edge">
<title>Node2&#45;&gt;Node4</title>
<path fill="none" stroke="midnightblue" d="M160.1,-160.95C172.89,-178.49 194.71,-204.61 220,-219 226.76,-222.85 234.23,-225.91 241.86,-228.36"/>
<polygon fill="midnightblue" stroke="midnightblue" points="162.88,-158.82 154.26,-152.66 157.16,-162.85 162.88,-158.82"/>
</g>
<!-- Node5 -->
<g id="node5" class="node">
<title>Node5</title>
<g id="a_node5"><a xlink:href="classGlgCryo1500wTempGui.html" target="_top" xlink:title=" ">
<polygon fill="none" stroke="black" points="239.5,-190.5 239.5,-209.5 370.5,-209.5 370.5,-190.5 239.5,-190.5"/>
<text text-anchor="middle" x="305" y="-197.5" font-family="Helvetica,sans-Serif" font-size="10.00">GlgCryo1500wTempGui</text>
</a>
</g>
</g>
<!-- Node2&#45;&gt;Node5 -->
<g id="edge4" class="edge">
<title>Node2&#45;&gt;Node5</title>
<path fill="none" stroke="midnightblue" d="M171.94,-157.68C185.61,-165.53 203.3,-174.83 220,-181 230.1,-184.73 241.16,-187.87 251.85,-190.45"/>
<polygon fill="midnightblue" stroke="midnightblue" points="173.58,-154.58 163.18,-152.53 170.03,-160.62 173.58,-154.58"/>
</g>
<!-- Node6 -->
<g id="node6" class="node">
<title>Node6</title>
<g id="a_node6"><a xlink:href="classGlgDryGui.html" target="_top" xlink:title=" ">
<polygon fill="none" stroke="black" points="271.5,-152.5 271.5,-171.5 338.5,-171.5 338.5,-152.5 271.5,-152.5"/>
<text text-anchor="middle" x="305" y="-159.5" font-family="Helvetica,sans-Serif" font-size="10.00">GlgDryGui</text>
</a>
</g>
</g>
<!-- Node2&#45;&gt;Node6 -->
<g id="edge5" class="edge">
<title>Node2&#45;&gt;Node6</title>
<path fill="none" stroke="midnightblue" d="M194.13,-148.62C218.99,-151.65 249.07,-155.31 271.46,-158.04"/>
<polygon fill="midnightblue" stroke="midnightblue" points="194.53,-145.14 184.18,-147.41 193.69,-152.09 194.53,-145.14"/>
</g>
<!-- Node7 -->
<g id="node7" class="node">
<title>Node7</title>
<g id="a_node7"><a xlink:href="classGlgGaugeGui.html" target="_top" xlink:title=" ">
<polygon fill="none" stroke="black" points="264.5,-114.5 264.5,-133.5 345.5,-133.5 345.5,-114.5 264.5,-114.5"/>
<text text-anchor="middle" x="305" y="-121.5" font-family="Helvetica,sans-Serif" font-size="10.00">GlgGaugeGui</text>
</a>
</g>
</g>
<!-- Node2&#45;&gt;Node7 -->
<g id="edge6" class="edge">
<title>Node2&#45;&gt;Node7</title>
<path fill="none" stroke="midnightblue" d="M194.12,-137.38C216.47,-134.66 243.04,-131.42 264.46,-128.82"/>
<polygon fill="midnightblue" stroke="midnightblue" points="193.69,-133.91 184.18,-138.59 194.53,-140.86 193.69,-133.91"/>
</g>
<!-- Node8 -->
<g id="node8" class="node">
<title>Node8</title>
<g id="a_node8"><a xlink:href="classGlgTurboGui.html" target="_top" xlink:title=" ">
<polygon fill="none" stroke="black" points="267,-76.5 267,-95.5 343,-95.5 343,-76.5 267,-76.5"/>
<text text-anchor="middle" x="305" y="-83.5" font-family="Helvetica,sans-Serif" font-size="10.00">GlgTurboGui</text>
</a>
</g>
</g>
<!-- Node2&#45;&gt;Node8 -->
<g id="edge7" class="edge">
<title>Node2&#45;&gt;Node8</title>
<path fill="none" stroke="midnightblue" d="M175.08,-128.7C195.43,-117.95 219.85,-105.06 220,-105 234.87,-99.51 251.82,-95.3 266.59,-92.27"/>
<polygon fill="midnightblue" stroke="midnightblue" points="173.32,-125.67 166.11,-133.43 176.59,-131.86 173.32,-125.67"/>
</g>
<!-- Node9 -->
<g id="node9" class="node">
<title>Node9</title>
<g id="a_node9"><a xlink:href="classGlgValveGui.html" target="_top" xlink:title=" ">
<polygon fill="none" stroke="black" points="266.5,-38.5 266.5,-57.5 343.5,-57.5 343.5,-38.5 266.5,-38.5"/>
<text text-anchor="middle" x="305" y="-45.5" font-family="Helvetica,sans-Serif" font-size="10.00">GlgValveGui</text>
</a>
</g>
</g>
<!-- Node2&#45;&gt;Node9 -->
<g id="edge8" class="edge">
<title>Node2&#45;&gt;Node9</title>
<path fill="none" stroke="midnightblue" d="M179.26,-127.89C180.93,-126.67 182.52,-125.37 184,-124 205.99,-103.65 195.53,-84.29 220,-67 233.43,-57.51 250.83,-52.67 266.31,-50.23"/>
<polygon fill="midnightblue" stroke="midnightblue" points="177.09,-125.13 170.52,-133.44 180.84,-131.04 177.09,-125.13"/>
</g>
<!-- Node10 -->
<g id="node10" class="node">
<title>Node10</title>
<g id="a_node10"><a xlink:href="classGlgXGSGaugeGui.html" target="_top" xlink:title=" ">
<polygon fill="none" stroke="black" points="254.5,-0.5 254.5,-19.5 355.5,-19.5 355.5,-0.5 254.5,-0.5"/>
<text text-anchor="middle" x="305" y="-7.5" font-family="Helvetica,sans-Serif" font-size="10.00">GlgXGSGaugeGui</text>
</a>
</g>
</g>
<!-- Node2&#45;&gt;Node10 -->
<g id="edge9" class="edge">
<title>Node2&#45;&gt;Node10</title>
<path fill="none" stroke="midnightblue" d="M180.69,-127.3C181.86,-126.26 182.98,-125.16 184,-124 213.9,-90.16 185.92,-58.62 220,-29 229.59,-20.66 242.08,-15.77 254.47,-12.95"/>
<polygon fill="midnightblue" stroke="midnightblue" points="178.31,-124.69 172.21,-133.36 182.38,-130.39 178.31,-124.69"/>
</g>
</g>
</svg>
