<?xml version="1.0" encoding="UTF-8" standalone="no"?>
<!DOCTYPE svg PUBLIC "-//W3C//DTD SVG 1.1//EN"
 "http://www.w3.org/Graphics/SVG/1.1/DTD/svg11.dtd">
<!-- Generated by graphviz version 2.50.0 (0)
 -->
<!-- Title: DataManager Pages: 1 -->
<svg width="264pt" height="196pt"
 viewBox="0.00 0.00 263.50 196.00" xmlns="http://www.w3.org/2000/svg" xmlns:xlink="http://www.w3.org/1999/xlink">
<g id="graph0" class="graph" transform="scale(1 1) rotate(0) translate(4 192)">
<title>DataManager</title>
<!-- Node1 -->
<g id="node1" class="node">
<title>Node1</title>
<g id="a_node1"><a xlink:title=" ">
<polygon fill="#bfbfbf" stroke="black" points="96.5,-112.5 96.5,-131.5 179.5,-131.5 179.5,-112.5 96.5,-112.5"/>
<text text-anchor="middle" x="138" y="-119.5" font-family="Helvetica,sans-Serif" font-size="10.00">DataManager</text>
</a>
</g>
</g>
<!-- Node3 -->
<g id="node3" class="node">
<title>Node3</title>
<g id="a_node3"><a xlink:href="classDevice.html" target="_top" xlink:title=" ">
<polygon fill="none" stroke="black" points="113,-56.5 113,-75.5 163,-75.5 163,-56.5 113,-56.5"/>
<text text-anchor="middle" x="138" y="-63.5" font-family="Helvetica,sans-Serif" font-size="10.00">Device</text>
</a>
</g>
</g>
<!-- Node1&#45;&gt;Node3 -->
<g id="edge2" class="edge">
<title>Node1&#45;&gt;Node3</title>
<path fill="none" stroke="midnightblue" d="M138,-101.8C138,-92.91 138,-82.78 138,-75.75"/>
<polygon fill="midnightblue" stroke="midnightblue" points="134.5,-102.08 138,-112.08 141.5,-102.08 134.5,-102.08"/>
</g>
<!-- Node2 -->
<g id="node2" class="node">
<title>Node2</title>
<g id="a_node2"><a xlink:href="interfaceDataTypes.html" target="_top" xlink:title=" ">
<polygon fill="none" stroke="black" points="104,-168.5 104,-187.5 172,-187.5 172,-168.5 104,-168.5"/>
<text text-anchor="middle" x="138" y="-175.5" font-family="Helvetica,sans-Serif" font-size="10.00">DataTypes</text>
</a>
</g>
</g>
<!-- Node2&#45;&gt;Node1 -->
<g id="edge1" class="edge">
<title>Node2&#45;&gt;Node1</title>
<path fill="none" stroke="midnightblue" d="M138,-157.8C138,-148.91 138,-138.78 138,-131.75"/>
<polygon fill="midnightblue" stroke="midnightblue" points="134.5,-158.08 138,-168.08 141.5,-158.08 134.5,-158.08"/>
</g>
<!-- Node4 -->
<g id="node4" class="node">
<title>Node4</title>
<g id="a_node4"><a xlink:href="classFlowMeterModbusMaster.html" target="_top" xlink:title=" ">
<polygon fill="none" stroke="black" points="0,-0.5 0,-19.5 140,-19.5 140,-0.5 0,-0.5"/>
<text text-anchor="middle" x="70" y="-7.5" font-family="Helvetica,sans-Serif" font-size="10.00">FlowMeterModbusMaster</text>
</a>
</g>
</g>
<!-- Node3&#45;&gt;Node4 -->
<g id="edge3" class="edge">
<title>Node3&#45;&gt;Node4</title>
<path fill="none" stroke="midnightblue" d="M119.24,-50.1C107,-40.38 91.44,-28.03 81.12,-19.83"/>
<polygon fill="midnightblue" stroke="midnightblue" points="117.07,-52.85 127.07,-56.32 121.42,-47.36 117.07,-52.85"/>
</g>
<!-- Node5 -->
<g id="node5" class="node">
<title>Node5</title>
<g id="a_node5"><a xlink:href="classSupervisorClient.html" target="_top" xlink:title=" ">
<polygon fill="none" stroke="black" points="158.5,-0.5 158.5,-19.5 255.5,-19.5 255.5,-0.5 158.5,-0.5"/>
<text text-anchor="middle" x="207" y="-7.5" font-family="Helvetica,sans-Serif" font-size="10.00">SupervisorClient</text>
</a>
</g>
</g>
<!-- Node3&#45;&gt;Node5 -->
<g id="edge4" class="edge">
<title>Node3&#45;&gt;Node5</title>
<path fill="none" stroke="midnightblue" d="M157.04,-50.1C169.46,-40.38 185.24,-28.03 195.71,-19.83"/>
<polygon fill="midnightblue" stroke="midnightblue" points="154.8,-47.4 149.09,-56.32 159.12,-52.92 154.8,-47.4"/>
</g>
</g>
</svg>
