<?xml version="1.0" encoding="UTF-8" standalone="no"?>
<!DOCTYPE svg PUBLIC "-//W3C//DTD SVG 1.1//EN"
 "http://www.w3.org/Graphics/SVG/1.1/DTD/svg11.dtd">
<!-- Generated by graphviz version 2.50.0 (0)
 -->
<!-- Title: Graphical Class Hierarchy Pages: 1 -->
<svg width="523pt" height="294pt"
 viewBox="0.00 0.00 523.00 294.00" xmlns="http://www.w3.org/2000/svg" xmlns:xlink="http://www.w3.org/1999/xlink">
<g id="graph0" class="graph" transform="scale(1 1) rotate(0) translate(4 290)">
<title>Graphical Class Hierarchy</title>
<!-- Node0 -->
<g id="node1" class="node">
<title>Node0</title>
<g id="a_node1"><a xlink:href="interfaceChannelList.html" target="_top" xlink:title=" ">
<polygon fill="none" stroke="black" points="0,-266.5 0,-285.5 74,-285.5 74,-266.5 0,-266.5"/>
<text text-anchor="middle" x="37" y="-273.5" font-family="Helvetica,sans-Serif" font-size="10.00">ChannelList</text>
</a>
</g>
</g>
<!-- Node1 -->
<g id="node2" class="node">
<title>Node1</title>
<g id="a_node2"><a xlink:href="classGlgChildGui.html" target="_top" xlink:title=" ">
<polygon fill="none" stroke="black" points="131,-266.5 131,-285.5 205,-285.5 205,-266.5 131,-266.5"/>
<text text-anchor="middle" x="168" y="-273.5" font-family="Helvetica,sans-Serif" font-size="10.00">GlgChildGui</text>
</a>
</g>
</g>
<!-- Node0&#45;&gt;Node1 -->
<g id="edge1" class="edge">
<title>Node0&#45;&gt;Node1</title>
<path fill="none" stroke="midnightblue" d="M84.58,-276C99.87,-276 116.61,-276 131,-276"/>
<polygon fill="midnightblue" stroke="midnightblue" points="84.28,-272.5 74.28,-276 84.28,-279.5 84.28,-272.5"/>
</g>
<!-- Node3 -->
<g id="node4" class="node">
<title>Node3</title>
<g id="a_node4"><a xlink:href="classGlgGui.html" target="_top" xlink:title=" ">
<polygon fill="none" stroke="black" points="143,-228.5 143,-247.5 193,-247.5 193,-228.5 143,-228.5"/>
<text text-anchor="middle" x="168" y="-235.5" font-family="Helvetica,sans-Serif" font-size="10.00">GlgGui</text>
</a>
</g>
</g>
<!-- Node0&#45;&gt;Node3 -->
<g id="edge3" class="edge">
<title>Node0&#45;&gt;Node3</title>
<path fill="none" stroke="midnightblue" d="M80.36,-263.52C101,-257.44 125.08,-250.35 142.6,-245.19"/>
<polygon fill="midnightblue" stroke="midnightblue" points="79.16,-260.23 70.55,-266.41 81.13,-266.94 79.16,-260.23"/>
</g>
<!-- Node2 -->
<g id="node3" class="node">
<title>Node2</title>
<g id="a_node3"><a xlink:href="classGlgValveGui.html" target="_top" xlink:title=" ">
<polygon fill="none" stroke="black" points="262,-266.5 262,-285.5 339,-285.5 339,-266.5 262,-266.5"/>
<text text-anchor="middle" x="300.5" y="-273.5" font-family="Helvetica,sans-Serif" font-size="10.00">GlgValveGui</text>
</a>
</g>
</g>
<!-- Node1&#45;&gt;Node2 -->
<g id="edge2" class="edge">
<title>Node1&#45;&gt;Node2</title>
<path fill="none" stroke="midnightblue" d="M215.27,-276C230.51,-276 247.27,-276 261.79,-276"/>
<polygon fill="midnightblue" stroke="midnightblue" points="215.01,-272.5 205.01,-276 215.01,-279.5 215.01,-272.5"/>
</g>
<!-- Node8 -->
<g id="node5" class="node">
<title>Node8</title>
<g id="a_node5"><a xlink:href="interfaceDataTypes.html" target="_top" xlink:title=" ">
<polygon fill="none" stroke="black" points="3,-95.5 3,-114.5 71,-114.5 71,-95.5 3,-95.5"/>
<text text-anchor="middle" x="37" y="-102.5" font-family="Helvetica,sans-Serif" font-size="10.00">DataTypes</text>
</a>
</g>
</g>
<!-- Node8&#45;&gt;Node3 -->
<g id="edge10" class="edge">
<title>Node8&#45;&gt;Node3</title>
<path fill="none" stroke="midnightblue" d="M54.09,-122.25C68.59,-137.73 90.57,-161.04 110,-181 126.4,-197.85 145.82,-217.13 157.24,-228.4"/>
<polygon fill="midnightblue" stroke="midnightblue" points="56.62,-119.83 47.24,-114.92 51.51,-124.61 56.62,-119.83"/>
</g>
<!-- Node9 -->
<g id="node6" class="node">
<title>Node9</title>
<g id="a_node6"><a xlink:href="classDataElement.html" target="_top" xlink:title=" ">
<polygon fill="none" stroke="black" points="128,-0.5 128,-19.5 208,-19.5 208,-0.5 128,-0.5"/>
<text text-anchor="middle" x="168" y="-7.5" font-family="Helvetica,sans-Serif" font-size="10.00">DataElement</text>
</a>
</g>
</g>
<!-- Node8&#45;&gt;Node9 -->
<g id="edge4" class="edge">
<title>Node8&#45;&gt;Node9</title>
<path fill="none" stroke="midnightblue" d="M50.62,-87.3C63.69,-70.16 85.59,-44.55 110,-29 115.98,-25.19 122.81,-22.06 129.61,-19.53"/>
<polygon fill="midnightblue" stroke="midnightblue" points="47.76,-85.27 44.62,-95.39 53.39,-89.44 47.76,-85.27"/>
</g>
<!-- Node10 -->
<g id="node7" class="node">
<title>Node10</title>
<g id="a_node7"><a xlink:href="classDataManager.html" target="_top" xlink:title=" ">
<polygon fill="none" stroke="black" points="126.5,-38.5 126.5,-57.5 209.5,-57.5 209.5,-38.5 126.5,-38.5"/>
<text text-anchor="middle" x="168" y="-45.5" font-family="Helvetica,sans-Serif" font-size="10.00">DataManager</text>
</a>
</g>
</g>
<!-- Node8&#45;&gt;Node10 -->
<g id="edge5" class="edge">
<title>Node8&#45;&gt;Node10</title>
<path fill="none" stroke="midnightblue" d="M67.76,-91.11C80.7,-85.13 96.06,-78.13 110,-72 121.11,-67.12 133.51,-61.87 143.91,-57.53"/>
<polygon fill="midnightblue" stroke="midnightblue" points="66.01,-88.06 58.41,-95.44 68.95,-94.41 66.01,-88.06"/>
</g>
<!-- Node11 -->
<g id="node8" class="node">
<title>Node11</title>
<g id="a_node8"><a xlink:href="classDevice.html" target="_top" xlink:title=" ">
<polygon fill="none" stroke="black" points="275.5,-76.5 275.5,-95.5 325.5,-95.5 325.5,-76.5 275.5,-76.5"/>
<text text-anchor="middle" x="300.5" y="-83.5" font-family="Helvetica,sans-Serif" font-size="10.00">Device</text>
</a>
</g>
</g>
<!-- Node8&#45;&gt;Node11 -->
<g id="edge9" class="edge">
<title>Node8&#45;&gt;Node11</title>
<path fill="none" stroke="midnightblue" d="M81.33,-101.85C136.79,-97.82 230.95,-90.98 275.18,-87.77"/>
<polygon fill="midnightblue" stroke="midnightblue" points="80.84,-98.38 71.12,-102.59 81.35,-105.36 80.84,-98.38"/>
</g>
<!-- Node14 -->
<g id="node11" class="node">
<title>Node14</title>
<g id="a_node11"><a xlink:href="classModbusSlaveThread.html" target="_top" xlink:title=" ">
<polygon fill="none" stroke="black" points="110,-152.5 110,-171.5 226,-171.5 226,-152.5 110,-152.5"/>
<text text-anchor="middle" x="168" y="-159.5" font-family="Helvetica,sans-Serif" font-size="10.00">ModbusSlaveThread</text>
</a>
</g>
</g>
<!-- Node8&#45;&gt;Node14 -->
<g id="edge11" class="edge">
<title>Node8&#45;&gt;Node14</title>
<path fill="none" stroke="midnightblue" d="M63,-119.49C76.63,-127.06 93.95,-136.14 110,-143 118.06,-146.44 126.96,-149.67 135.3,-152.46"/>
<polygon fill="midnightblue" stroke="midnightblue" points="64.64,-116.4 54.21,-114.54 61.21,-122.5 64.64,-116.4"/>
</g>
<!-- Node15 -->
<g id="node12" class="node">
<title>Node15</title>
<g id="a_node12"><a xlink:href="classOperation.html" target="_top" xlink:title=" ">
<polygon fill="none" stroke="black" points="135.5,-114.5 135.5,-133.5 200.5,-133.5 200.5,-114.5 135.5,-114.5"/>
<text text-anchor="middle" x="168" y="-121.5" font-family="Helvetica,sans-Serif" font-size="10.00">Operation</text>
</a>
</g>
</g>
<!-- Node8&#45;&gt;Node15 -->
<g id="edge12" class="edge">
<title>Node8&#45;&gt;Node15</title>
<path fill="none" stroke="midnightblue" d="M81.29,-111.38C98.94,-113.98 118.97,-116.93 135.23,-119.32"/>
<polygon fill="midnightblue" stroke="midnightblue" points="81.62,-107.89 71.22,-109.89 80.6,-114.81 81.62,-107.89"/>
</g>
<!-- Node10&#45;&gt;Node11 -->
<g id="edge6" class="edge">
<title>Node10&#45;&gt;Node11</title>
<path fill="none" stroke="midnightblue" d="M211.64,-60.42C232.72,-66.56 257.41,-73.74 275.23,-78.93"/>
<polygon fill="midnightblue" stroke="midnightblue" points="212.51,-57.02 201.93,-57.59 210.55,-63.75 212.51,-57.02"/>
</g>
<!-- Node12 -->
<g id="node9" class="node">
<title>Node12</title>
<g id="a_node9"><a xlink:href="classFlowMeterModbusMaster.html" target="_top" xlink:title=" ">
<polygon fill="none" stroke="black" points="375,-95.5 375,-114.5 515,-114.5 515,-95.5 375,-95.5"/>
<text text-anchor="middle" x="445" y="-102.5" font-family="Helvetica,sans-Serif" font-size="10.00">FlowMeterModbusMaster</text>
</a>
</g>
</g>
<!-- Node11&#45;&gt;Node12 -->
<g id="edge7" class="edge">
<title>Node11&#45;&gt;Node12</title>
<path fill="none" stroke="midnightblue" d="M335.91,-90.59C347.68,-92.16 361.31,-93.97 374.83,-95.78"/>
<polygon fill="midnightblue" stroke="midnightblue" points="336.05,-87.08 325.67,-89.22 335.12,-94.01 336.05,-87.08"/>
</g>
<!-- Node13 -->
<g id="node10" class="node">
<title>Node13</title>
<g id="a_node10"><a xlink:href="classSupervisorClient.html" target="_top" xlink:title=" ">
<polygon fill="none" stroke="black" points="396.5,-57.5 396.5,-76.5 493.5,-76.5 493.5,-57.5 396.5,-57.5"/>
<text text-anchor="middle" x="445" y="-64.5" font-family="Helvetica,sans-Serif" font-size="10.00">SupervisorClient</text>
</a>
</g>
</g>
<!-- Node11&#45;&gt;Node13 -->
<g id="edge8" class="edge">
<title>Node11&#45;&gt;Node13</title>
<path fill="none" stroke="midnightblue" d="M335.79,-81.43C353.93,-79.01 376.49,-76 396.31,-73.36"/>
<polygon fill="midnightblue" stroke="midnightblue" points="335.12,-77.99 325.67,-82.78 336.05,-84.92 335.12,-77.99"/>
</g>
<!-- Node23 -->
<g id="node13" class="node">
<title>Node23</title>
<g id="a_node13"><a xlink:title=" ">
<polygon fill="none" stroke="#bfbfbf" points="6,-190.5 6,-209.5 68,-209.5 68,-190.5 6,-190.5"/>
<text text-anchor="middle" x="37" y="-197.5" font-family="Helvetica,sans-Serif" font-size="10.00">Runnable</text>
</a>
</g>
</g>
<!-- Node23&#45;&gt;Node1 -->
<g id="edge14" class="edge">
<title>Node23&#45;&gt;Node1</title>
<path fill="none" stroke="midnightblue" d="M67.6,-214.59C69.82,-215.99 71.98,-217.47 74,-219 92.53,-233.06 90.38,-244.5 110,-257 116.33,-261.03 123.62,-264.3 130.81,-266.92"/>
<polygon fill="midnightblue" stroke="midnightblue" points="69.3,-211.53 58.89,-209.55 65.79,-217.58 69.3,-211.53"/>
</g>
<!-- Node23&#45;&gt;Node3 -->
<g id="edge15" class="edge">
<title>Node23&#45;&gt;Node3</title>
<path fill="none" stroke="midnightblue" d="M78,-211.78C99.28,-218.05 124.74,-225.55 142.97,-230.92"/>
<polygon fill="midnightblue" stroke="midnightblue" points="78.83,-208.38 68.24,-208.91 76.85,-215.09 78.83,-208.38"/>
</g>
<!-- Node23&#45;&gt;Node11 -->
<g id="edge13" class="edge">
<title>Node23&#45;&gt;Node11</title>
<path fill="none" stroke="midnightblue" d="M78.33,-204.75C118.35,-207.52 180.18,-206.42 226,-181 261.92,-161.07 286.08,-115.56 295.31,-95.64"/>
<polygon fill="midnightblue" stroke="midnightblue" points="78.4,-201.24 68.15,-203.92 77.83,-208.22 78.4,-201.24"/>
</g>
<!-- Node23&#45;&gt;Node14 -->
<g id="edge16" class="edge">
<title>Node23&#45;&gt;Node14</title>
<path fill="none" stroke="midnightblue" d="M78.01,-188.22C96.23,-182.85 117.51,-176.58 134.69,-171.52"/>
<polygon fill="midnightblue" stroke="midnightblue" points="76.85,-184.91 68.24,-191.09 78.83,-191.62 76.85,-184.91"/>
</g>
<!-- Node23&#45;&gt;Node15 -->
<g id="edge17" class="edge">
<title>Node23&#45;&gt;Node15</title>
<path fill="none" stroke="midnightblue" d="M55.27,-183.46C69.14,-170.93 89.6,-154.03 110,-143 117.89,-138.73 126.91,-135.19 135.42,-132.36"/>
<polygon fill="midnightblue" stroke="midnightblue" points="52.88,-180.9 47.92,-190.26 57.64,-186.04 52.88,-180.9"/>
</g>
<!-- Node32 -->
<g id="node14" class="node">
<title>Node32</title>
<g id="a_node14"><a xlink:title=" ">
<polygon fill="none" stroke="#bfbfbf" points="12,-228.5 12,-247.5 62,-247.5 62,-228.5 12,-228.5"/>
<text text-anchor="middle" x="37" y="-235.5" font-family="Helvetica,sans-Serif" font-size="10.00">JFrame</text>
</a>
</g>
</g>
<!-- Node32&#45;&gt;Node1 -->
<g id="edge18" class="edge">
<title>Node32&#45;&gt;Node1</title>
<path fill="none" stroke="midnightblue" d="M71.91,-247.99C91.28,-253.69 115.44,-260.81 134.56,-266.44"/>
<polygon fill="midnightblue" stroke="midnightblue" points="72.85,-244.62 62.26,-245.15 70.87,-251.33 72.85,-244.62"/>
</g>
<!-- Node32&#45;&gt;Node3 -->
<g id="edge19" class="edge">
<title>Node32&#45;&gt;Node3</title>
<path fill="none" stroke="midnightblue" d="M72.31,-238C94.54,-238 122.97,-238 142.84,-238"/>
<polygon fill="midnightblue" stroke="midnightblue" points="72.26,-234.5 62.26,-238 72.26,-241.5 72.26,-234.5"/>
</g>
</g>
</svg>
