<?xml version="1.0" encoding="UTF-8" standalone="no"?>
<!DOCTYPE svg PUBLIC "-//W3C//DTD SVG 1.1//EN"
 "http://www.w3.org/Graphics/SVG/1.1/DTD/svg11.dtd">
<!-- Generated by graphviz version 2.50.0 (0)
 -->
<!-- Title: ChannelList Pages: 1 -->
<svg width="152pt" height="140pt"
 viewBox="0.00 0.00 151.50 140.00" xmlns="http://www.w3.org/2000/svg" xmlns:xlink="http://www.w3.org/1999/xlink">
<g id="graph0" class="graph" transform="scale(1 1) rotate(0) translate(4 136)">
<title>ChannelList</title>
<polygon fill="white" stroke="transparent" points="-4,4 -4,-136 147.5,-136 147.5,4 -4,4"/>
<!-- Node1 -->
<g id="node1" class="node">
<title>Node1</title>
<g id="a_node1"><a xlink:title=" ">
<polygon fill="#bfbfbf" stroke="black" points="41.5,-112.5 41.5,-131.5 115.5,-131.5 115.5,-112.5 41.5,-112.5"/>
<text text-anchor="middle" x="78.5" y="-119.5" font-family="Helvetica,sans-Serif" font-size="10.00">ChannelList</text>
</a>
</g>
</g>
<!-- Node2 -->
<g id="node2" class="node">
<title>Node2</title>
<g id="a_node2"><a xlink:href="classGlgChildGui.html" target="_top" xlink:title=" ">
<polygon fill="white" stroke="black" points="1.5,-56.5 1.5,-75.5 75.5,-75.5 75.5,-56.5 1.5,-56.5"/>
<text text-anchor="middle" x="38.5" y="-63.5" font-family="Helvetica,sans-Serif" font-size="10.00">GlgChildGui</text>
</a>
</g>
</g>
<!-- Node1&#45;&gt;Node2 -->
<g id="edge1" class="edge">
<title>Node1&#45;&gt;Node2</title>
<path fill="none" stroke="midnightblue" d="M65.8,-103.86C58.87,-94.5 50.59,-83.33 44.98,-75.75"/>
<polygon fill="midnightblue" stroke="midnightblue" points="63.13,-106.13 71.89,-112.08 68.75,-101.96 63.13,-106.13"/>
</g>
<!-- Node4 -->
<g id="node4" class="node">
<title>Node4</title>
<g id="a_node4"><a xlink:href="classGlgGui.html" target="_top" xlink:title=" ">
<polygon fill="white" stroke="black" points="93.5,-56.5 93.5,-75.5 143.5,-75.5 143.5,-56.5 93.5,-56.5"/>
<text text-anchor="middle" x="118.5" y="-63.5" font-family="Helvetica,sans-Serif" font-size="10.00">GlgGui</text>
</a>
</g>
</g>
<!-- Node1&#45;&gt;Node4 -->
<g id="edge3" class="edge">
<title>Node1&#45;&gt;Node4</title>
<path fill="none" stroke="midnightblue" d="M91.2,-103.86C98.13,-94.5 106.41,-83.33 112.02,-75.75"/>
<polygon fill="midnightblue" stroke="midnightblue" points="88.25,-101.96 85.11,-112.08 93.87,-106.13 88.25,-101.96"/>
</g>
<!-- Node3 -->
<g id="node3" class="node">
<title>Node3</title>
<g id="a_node3"><a xlink:href="classGlgValveGui.html" target="_top" xlink:title=" ">
<polygon fill="white" stroke="black" points="0,-0.5 0,-19.5 77,-19.5 77,-0.5 0,-0.5"/>
<text text-anchor="middle" x="38.5" y="-7.5" font-family="Helvetica,sans-Serif" font-size="10.00">GlgValveGui</text>
</a>
</g>
</g>
<!-- Node2&#45;&gt;Node3 -->
<g id="edge2" class="edge">
<title>Node2&#45;&gt;Node3</title>
<path fill="none" stroke="midnightblue" d="M38.5,-45.8C38.5,-36.91 38.5,-26.78 38.5,-19.75"/>
<polygon fill="midnightblue" stroke="midnightblue" points="35,-46.08 38.5,-56.08 42,-46.08 35,-46.08"/>
</g>
</g>
</svg>
