<?xml version="1.0" encoding="UTF-8" standalone="no"?>
<!DOCTYPE svg PUBLIC "-//W3C//DTD SVG 1.1//EN"
 "http://www.w3.org/Graphics/SVG/1.1/DTD/svg11.dtd">
<!-- Generated by graphviz version 2.50.0 (0)
 -->
<!-- Title: DataTypes Pages: 1 -->
<svg width="514pt" height="196pt"
 viewBox="0.00 0.00 513.50 196.00" xmlns="http://www.w3.org/2000/svg" xmlns:xlink="http://www.w3.org/1999/xlink">
<g id="graph0" class="graph" transform="scale(1 1) rotate(0) translate(4 192)">
<title>DataTypes</title>
<!-- Node1 -->
<g id="node1" class="node">
<title>Node1</title>
<g id="a_node1"><a xlink:title=" ">
<polygon fill="#bfbfbf" stroke="black" points="202,-168.5 202,-187.5 270,-187.5 270,-168.5 202,-168.5"/>
<text text-anchor="middle" x="236" y="-175.5" font-family="Helvetica,sans-Serif" font-size="10.00">DataTypes</text>
</a>
</g>
</g>
<!-- Node2 -->
<g id="node2" class="node">
<title>Node2</title>
<g id="a_node2"><a xlink:href="classDataElement.html" target="_top" xlink:title=" ">
<polygon fill="none" stroke="black" points="0,-112.5 0,-131.5 80,-131.5 80,-112.5 0,-112.5"/>
<text text-anchor="middle" x="40" y="-119.5" font-family="Helvetica,sans-Serif" font-size="10.00">DataElement</text>
</a>
</g>
</g>
<!-- Node1&#45;&gt;Node2 -->
<g id="edge1" class="edge">
<title>Node1&#45;&gt;Node2</title>
<path fill="none" stroke="midnightblue" d="M194.98,-165.7C157.99,-155.51 104.4,-140.74 70.91,-131.52"/>
<polygon fill="midnightblue" stroke="midnightblue" points="194.37,-169.16 204.94,-168.44 196.23,-162.41 194.37,-169.16"/>
</g>
<!-- Node3 -->
<g id="node3" class="node">
<title>Node3</title>
<g id="a_node3"><a xlink:href="classDataManager.html" target="_top" xlink:title=" ">
<polygon fill="none" stroke="black" points="98.5,-112.5 98.5,-131.5 181.5,-131.5 181.5,-112.5 98.5,-112.5"/>
<text text-anchor="middle" x="140" y="-119.5" font-family="Helvetica,sans-Serif" font-size="10.00">DataManager</text>
</a>
</g>
</g>
<!-- Node1&#45;&gt;Node3 -->
<g id="edge2" class="edge">
<title>Node1&#45;&gt;Node3</title>
<path fill="none" stroke="midnightblue" d="M211.43,-163.18C193.76,-153.24 170.49,-140.15 155.39,-131.65"/>
<polygon fill="midnightblue" stroke="midnightblue" points="210.14,-166.47 220.58,-168.32 213.58,-160.37 210.14,-166.47"/>
</g>
<!-- Node4 -->
<g id="node4" class="node">
<title>Node4</title>
<g id="a_node4"><a xlink:href="classDevice.html" target="_top" xlink:title=" ">
<polygon fill="none" stroke="black" points="150,-56.5 150,-75.5 200,-75.5 200,-56.5 150,-56.5"/>
<text text-anchor="middle" x="175" y="-63.5" font-family="Helvetica,sans-Serif" font-size="10.00">Device</text>
</a>
</g>
</g>
<!-- Node1&#45;&gt;Node4 -->
<g id="edge6" class="edge">
<title>Node1&#45;&gt;Node4</title>
<path fill="none" stroke="midnightblue" d="M226.2,-159.32C212.91,-135.37 189.72,-93.55 179.76,-75.59"/>
<polygon fill="midnightblue" stroke="midnightblue" points="223.3,-161.32 231.21,-168.37 229.42,-157.93 223.3,-161.32"/>
</g>
<!-- Node7 -->
<g id="node7" class="node">
<title>Node7</title>
<g id="a_node7"><a xlink:href="classGlgGui.html" target="_top" xlink:title=" ">
<polygon fill="none" stroke="black" points="238,-112.5 238,-131.5 288,-131.5 288,-112.5 238,-112.5"/>
<text text-anchor="middle" x="263" y="-119.5" font-family="Helvetica,sans-Serif" font-size="10.00">GlgGui</text>
</a>
</g>
</g>
<!-- Node1&#45;&gt;Node7 -->
<g id="edge7" class="edge">
<title>Node1&#45;&gt;Node7</title>
<path fill="none" stroke="midnightblue" d="M245.01,-158.98C249.59,-149.82 254.95,-139.09 258.62,-131.75"/>
<polygon fill="midnightblue" stroke="midnightblue" points="241.8,-157.57 240.46,-168.08 248.06,-160.7 241.8,-157.57"/>
</g>
<!-- Node8 -->
<g id="node8" class="node">
<title>Node8</title>
<g id="a_node8"><a xlink:href="classModbusSlaveThread.html" target="_top" xlink:title=" ">
<polygon fill="none" stroke="black" points="306,-112.5 306,-131.5 422,-131.5 422,-112.5 306,-112.5"/>
<text text-anchor="middle" x="364" y="-119.5" font-family="Helvetica,sans-Serif" font-size="10.00">ModbusSlaveThread</text>
</a>
</g>
</g>
<!-- Node1&#45;&gt;Node8 -->
<g id="edge8" class="edge">
<title>Node1&#45;&gt;Node8</title>
<path fill="none" stroke="midnightblue" d="M265.62,-164.5C289.62,-154.38 322.78,-140.39 343.81,-131.52"/>
<polygon fill="midnightblue" stroke="midnightblue" points="264.14,-161.33 256.28,-168.44 266.86,-167.78 264.14,-161.33"/>
</g>
<!-- Node9 -->
<g id="node9" class="node">
<title>Node9</title>
<g id="a_node9"><a xlink:href="classOperation.html" target="_top" xlink:title=" ">
<polygon fill="none" stroke="black" points="440.5,-112.5 440.5,-131.5 505.5,-131.5 505.5,-112.5 440.5,-112.5"/>
<text text-anchor="middle" x="473" y="-119.5" font-family="Helvetica,sans-Serif" font-size="10.00">Operation</text>
</a>
</g>
</g>
<!-- Node1&#45;&gt;Node9 -->
<g id="edge9" class="edge">
<title>Node1&#45;&gt;Node9</title>
<path fill="none" stroke="midnightblue" d="M280,-166.97C326.47,-156.39 398.67,-139.94 440.33,-130.44"/>
<polygon fill="midnightblue" stroke="midnightblue" points="279.18,-163.57 270.21,-169.21 280.74,-170.4 279.18,-163.57"/>
</g>
<!-- Node3&#45;&gt;Node4 -->
<g id="edge3" class="edge">
<title>Node3&#45;&gt;Node4</title>
<path fill="none" stroke="midnightblue" d="M151.3,-103.57C157.32,-94.27 164.47,-83.25 169.33,-75.75"/>
<polygon fill="midnightblue" stroke="midnightblue" points="148.28,-101.79 145.78,-112.08 154.16,-105.6 148.28,-101.79"/>
</g>
<!-- Node5 -->
<g id="node5" class="node">
<title>Node5</title>
<g id="a_node5"><a xlink:href="classFlowMeterModbusMaster.html" target="_top" xlink:title=" ">
<polygon fill="none" stroke="black" points="37,-0.5 37,-19.5 177,-19.5 177,-0.5 37,-0.5"/>
<text text-anchor="middle" x="107" y="-7.5" font-family="Helvetica,sans-Serif" font-size="10.00">FlowMeterModbusMaster</text>
</a>
</g>
</g>
<!-- Node4&#45;&gt;Node5 -->
<g id="edge4" class="edge">
<title>Node4&#45;&gt;Node5</title>
<path fill="none" stroke="midnightblue" d="M156.24,-50.1C144,-40.38 128.44,-28.03 118.12,-19.83"/>
<polygon fill="midnightblue" stroke="midnightblue" points="154.07,-52.85 164.07,-56.32 158.42,-47.36 154.07,-52.85"/>
</g>
<!-- Node6 -->
<g id="node6" class="node">
<title>Node6</title>
<g id="a_node6"><a xlink:href="classSupervisorClient.html" target="_top" xlink:title=" ">
<polygon fill="none" stroke="black" points="195.5,-0.5 195.5,-19.5 292.5,-19.5 292.5,-0.5 195.5,-0.5"/>
<text text-anchor="middle" x="244" y="-7.5" font-family="Helvetica,sans-Serif" font-size="10.00">SupervisorClient</text>
</a>
</g>
</g>
<!-- Node4&#45;&gt;Node6 -->
<g id="edge5" class="edge">
<title>Node4&#45;&gt;Node6</title>
<path fill="none" stroke="midnightblue" d="M194.04,-50.1C206.46,-40.38 222.24,-28.03 232.71,-19.83"/>
<polygon fill="midnightblue" stroke="midnightblue" points="191.8,-47.4 186.09,-56.32 196.12,-52.92 191.8,-47.4"/>
</g>
</g>
</svg>
