<?xml version="1.0" encoding="UTF-8" standalone="no"?>
<!DOCTYPE svg PUBLIC "-//W3C//DTD SVG 1.1//EN"
 "http://www.w3.org/Graphics/SVG/1.1/DTD/svg11.dtd">
<!-- Generated by graphviz version 2.50.0 (0)
 -->
<!-- Title: GlgValveGui.InputListener Pages: 1 -->
<svg width="157pt" height="84pt"
 viewBox="0.00 0.00 156.80 84.00" xmlns="http://www.w3.org/2000/svg" xmlns:xlink="http://www.w3.org/1999/xlink">
<g id="graph0" class="graph" transform="scale(1 1) rotate(0) translate(4 80)">
<title>GlgValveGui.InputListener</title>
<!-- Node1 -->
<g id="node1" class="node">
<title>Node1</title>
<g id="a_node1"><a xlink:title=" ">
<polygon fill="#bfbfbf" stroke="black" points="2.9,-0.5 2.9,-19.5 145.9,-19.5 145.9,-0.5 2.9,-0.5"/>
<text text-anchor="middle" x="74.4" y="-7.5" font-family="Helvetica,sans-Serif" font-size="10.00">GlgValveGui.InputListener</text>
</a>
</g>
</g>
<!-- Node2 -->
<g id="node2" class="node">
<title>Node2</title>
<g id="a_node2"><a xlink:title=" ">
<polygon fill="none" stroke="#bfbfbf" points="25.9,-56.5 25.9,-75.5 122.9,-75.5 122.9,-56.5 25.9,-56.5"/>
<text text-anchor="middle" x="74.4" y="-63.5" font-family="Helvetica,sans-Serif" font-size="10.00">GlgInputListener</text>
</a>
</g>
</g>
<!-- Node2&#45;&gt;Node1 -->
<g id="edge1" class="edge">
<title>Node2&#45;&gt;Node1</title>
<path fill="none" stroke="midnightblue" d="M16.13,-55.44C-5.82,-45.31 -5.15,-29.46 18.13,-19.68"/>
<polygon fill="midnightblue" stroke="midnightblue" points="15.05,-58.77 25.64,-59.01 17.51,-52.22 15.05,-58.77"/>
</g>
<!-- Node2&#45;&gt;Node1 -->
<g id="edge2" class="edge">
<title>Node2&#45;&gt;Node1</title>
<path fill="none" stroke="midnightblue" d="M19.99,-50.62C9.32,-40.76 12.13,-27.99 28.41,-19.65"/>
<polygon fill="midnightblue" stroke="midnightblue" points="18.13,-53.59 28.37,-56.32 22.07,-47.81 18.13,-53.59"/>
</g>
<!-- Node2&#45;&gt;Node1 -->
<g id="edge3" class="edge">
<title>Node2&#45;&gt;Node1</title>
<path fill="none" stroke="midnightblue" d="M31.18,-49.49C23.96,-39.8 26.44,-27.68 38.63,-19.65"/>
<polygon fill="midnightblue" stroke="midnightblue" points="28.87,-52.12 38.6,-56.32 33.61,-46.97 28.87,-52.12"/>
</g>
<!-- Node2&#45;&gt;Node1 -->
<g id="edge4" class="edge">
<title>Node2&#45;&gt;Node1</title>
<path fill="none" stroke="midnightblue" d="M42.85,-48.1C38.59,-38.74 40.53,-27.48 48.66,-19.83"/>
<polygon fill="midnightblue" stroke="midnightblue" points="40.11,-50.3 48.83,-56.32 45.77,-46.18 40.11,-50.3"/>
</g>
<!-- Node2&#45;&gt;Node1 -->
<g id="edge5" class="edge">
<title>Node2&#45;&gt;Node1</title>
<path fill="none" stroke="midnightblue" d="M55.11,-46.69C53.03,-37.59 54.33,-27.01 59.01,-19.75"/>
<polygon fill="midnightblue" stroke="midnightblue" points="51.92,-48.12 58.9,-56.08 58.41,-45.5 51.92,-48.12"/>
</g>
<!-- Node2&#45;&gt;Node1 -->
<g id="edge6" class="edge">
<title>Node2&#45;&gt;Node1</title>
<path fill="none" stroke="midnightblue" d="M67.93,-46.1C67.3,-37.14 67.74,-26.86 69.27,-19.75"/>
<polygon fill="midnightblue" stroke="midnightblue" points="64.47,-46.62 69.24,-56.08 71.41,-45.71 64.47,-46.62"/>
</g>
<!-- Node2&#45;&gt;Node1 -->
<g id="edge7" class="edge">
<title>Node2&#45;&gt;Node1</title>
<path fill="none" stroke="midnightblue" d="M80.87,-46.1C81.51,-37.14 81.06,-26.86 79.53,-19.75"/>
<polygon fill="midnightblue" stroke="midnightblue" points="77.4,-45.71 79.57,-56.08 84.34,-46.62 77.4,-45.71"/>
</g>
<!-- Node2&#45;&gt;Node1 -->
<g id="edge8" class="edge">
<title>Node2&#45;&gt;Node1</title>
<path fill="none" stroke="midnightblue" d="M93.69,-46.69C95.77,-37.59 94.47,-27.01 89.79,-19.75"/>
<polygon fill="midnightblue" stroke="midnightblue" points="90.4,-45.5 89.9,-56.08 96.89,-48.12 90.4,-45.5"/>
</g>
<!-- Node2&#45;&gt;Node1 -->
<g id="edge9" class="edge">
<title>Node2&#45;&gt;Node1</title>
<path fill="none" stroke="midnightblue" d="M105.96,-48.1C110.22,-38.74 108.28,-27.48 100.15,-19.83"/>
<polygon fill="midnightblue" stroke="midnightblue" points="103.03,-46.18 99.98,-56.32 108.69,-50.3 103.03,-46.18"/>
</g>
<!-- Node2&#45;&gt;Node1 -->
<g id="edge10" class="edge">
<title>Node2&#45;&gt;Node1</title>
<path fill="none" stroke="midnightblue" d="M117.62,-49.49C124.84,-39.8 122.36,-27.68 110.17,-19.65"/>
<polygon fill="midnightblue" stroke="midnightblue" points="115.19,-46.97 110.21,-56.32 119.93,-52.12 115.19,-46.97"/>
</g>
<!-- Node2&#45;&gt;Node1 -->
<g id="edge11" class="edge">
<title>Node2&#45;&gt;Node1</title>
<path fill="none" stroke="midnightblue" d="M128.82,-50.62C139.49,-40.76 136.68,-27.99 120.39,-19.65"/>
<polygon fill="midnightblue" stroke="midnightblue" points="126.74,-47.81 120.44,-56.32 130.67,-53.59 126.74,-47.81"/>
</g>
<!-- Node2&#45;&gt;Node1 -->
<g id="edge12" class="edge">
<title>Node2&#45;&gt;Node1</title>
<path fill="none" stroke="midnightblue" d="M132.68,-55.44C154.62,-45.31 153.96,-29.46 130.68,-19.68"/>
<polygon fill="midnightblue" stroke="midnightblue" points="131.29,-52.22 123.16,-59.01 133.75,-58.77 131.29,-52.22"/>
</g>
</g>
</svg>
