<?xml version="1.0" encoding="UTF-8" standalone="no"?>
<!DOCTYPE svg PUBLIC "-//W3C//DTD SVG 1.1//EN"
 "http://www.w3.org/Graphics/SVG/1.1/DTD/svg11.dtd">
<!-- Generated by graphviz version 2.50.0 (0)
 -->
<!-- Title: Operation Pages: 1 -->
<svg width="156pt" height="84pt"
 viewBox="0.00 0.00 156.00 84.00" xmlns="http://www.w3.org/2000/svg" xmlns:xlink="http://www.w3.org/1999/xlink">
<g id="graph0" class="graph" transform="scale(1 1) rotate(0) translate(4 80)">
<title>Operation</title>
<!-- Node1 -->
<g id="node1" class="node">
<title>Node1</title>
<g id="a_node1"><a xlink:title=" ">
<polygon fill="#bfbfbf" stroke="black" points="42.5,-0.5 42.5,-19.5 107.5,-19.5 107.5,-0.5 42.5,-0.5"/>
<text text-anchor="middle" x="75" y="-7.5" font-family="Helvetica,sans-Serif" font-size="10.00">Operation</text>
</a>
</g>
</g>
<!-- Node2 -->
<g id="node2" class="node">
<title>Node2</title>
<g id="a_node2"><a xlink:href="interfaceDataTypes.html" target="_top" xlink:title=" ">
<polygon fill="none" stroke="black" points="0,-56.5 0,-75.5 68,-75.5 68,-56.5 0,-56.5"/>
<text text-anchor="middle" x="34" y="-63.5" font-family="Helvetica,sans-Serif" font-size="10.00">DataTypes</text>
</a>
</g>
</g>
<!-- Node2&#45;&gt;Node1 -->
<g id="edge1" class="edge">
<title>Node2&#45;&gt;Node1</title>
<path fill="none" stroke="midnightblue" d="M22.35,-46.33C26.61,-37.24 36.39,-26.75 48.12,-19.57"/>
<polygon fill="midnightblue" stroke="midnightblue" points="18.94,-45.55 20.11,-56.08 25.76,-47.12 18.94,-45.55"/>
</g>
<!-- Node2&#45;&gt;Node1 -->
<g id="edge3" class="edge">
<title>Node2&#45;&gt;Node1</title>
<path fill="none" stroke="midnightblue" d="M34.87,-46.98C40.37,-37.82 49.37,-27.09 58.09,-19.75"/>
<polygon fill="midnightblue" stroke="midnightblue" points="31.67,-45.56 30.44,-56.08 37.96,-48.62 31.67,-45.56"/>
</g>
<!-- Node2&#45;&gt;Node1 -->
<g id="edge5" class="edge">
<title>Node2&#45;&gt;Node1</title>
<path fill="none" stroke="midnightblue" d="M47.02,-47.86C54.12,-38.5 62.6,-27.33 68.36,-19.75"/>
<polygon fill="midnightblue" stroke="midnightblue" points="44.03,-46 40.77,-56.08 49.61,-50.24 44.03,-46"/>
</g>
<!-- Node2&#45;&gt;Node1 -->
<g id="edge7" class="edge">
<title>Node2&#45;&gt;Node1</title>
<path fill="none" stroke="midnightblue" d="M58.35,-49.25C67.61,-39.67 75.94,-27.79 78.59,-19.83"/>
<polygon fill="midnightblue" stroke="midnightblue" points="55.72,-46.93 50.82,-56.32 60.5,-52.03 55.72,-46.93"/>
</g>
<!-- Node2&#45;&gt;Node1 -->
<g id="edge9" class="edge">
<title>Node2&#45;&gt;Node1</title>
<path fill="none" stroke="midnightblue" d="M69.4,-50.38C81.38,-40.62 89.65,-28.11 88.89,-19.83"/>
<polygon fill="midnightblue" stroke="midnightblue" points="67.17,-47.67 61.05,-56.32 71.22,-53.38 67.17,-47.67"/>
</g>
<!-- Node3 -->
<g id="node3" class="node">
<title>Node3</title>
<g id="a_node3"><a xlink:title=" ">
<polygon fill="none" stroke="#bfbfbf" points="86,-56.5 86,-75.5 148,-75.5 148,-56.5 86,-56.5"/>
<text text-anchor="middle" x="117" y="-63.5" font-family="Helvetica,sans-Serif" font-size="10.00">Runnable</text>
</a>
</g>
</g>
<!-- Node3&#45;&gt;Node1 -->
<g id="edge2" class="edge">
<title>Node3&#45;&gt;Node1</title>
<path fill="none" stroke="midnightblue" d="M81.33,-50.38C69.17,-40.62 60.67,-28.11 61.28,-19.83"/>
<polygon fill="midnightblue" stroke="midnightblue" points="79.6,-53.44 89.79,-56.32 83.62,-47.71 79.6,-53.44"/>
</g>
<!-- Node3&#45;&gt;Node1 -->
<g id="edge4" class="edge">
<title>Node3&#45;&gt;Node1</title>
<path fill="none" stroke="midnightblue" d="M92.63,-49.54C83.09,-39.91 74.4,-27.87 71.57,-19.83"/>
<polygon fill="midnightblue" stroke="midnightblue" points="90.29,-52.14 100.02,-56.32 95.03,-46.98 90.29,-52.14"/>
</g>
<!-- Node3&#45;&gt;Node1 -->
<g id="edge6" class="edge">
<title>Node3&#45;&gt;Node1</title>
<path fill="none" stroke="midnightblue" d="M103.89,-48.14C96.57,-38.74 87.76,-27.4 81.81,-19.75"/>
<polygon fill="midnightblue" stroke="midnightblue" points="101.16,-50.34 110.06,-56.08 106.69,-46.04 101.16,-50.34"/>
</g>
<!-- Node3&#45;&gt;Node1 -->
<g id="edge8" class="edge">
<title>Node3&#45;&gt;Node1</title>
<path fill="none" stroke="midnightblue" d="M115.8,-46.98C110.12,-37.82 100.93,-27.09 92.07,-19.75"/>
<polygon fill="midnightblue" stroke="midnightblue" points="112.76,-48.74 120.4,-56.08 119.01,-45.58 112.76,-48.74"/>
</g>
<!-- Node3&#45;&gt;Node1 -->
<g id="edge10" class="edge">
<title>Node3&#45;&gt;Node1</title>
<path fill="none" stroke="midnightblue" d="M128.3,-46.33C123.88,-37.24 113.9,-26.75 102.04,-19.57"/>
<polygon fill="midnightblue" stroke="midnightblue" points="124.92,-47.22 130.73,-56.08 131.71,-45.53 124.92,-47.22"/>
</g>
</g>
</svg>
