<?xml version="1.0" encoding="UTF-8" standalone="no"?>
<!DOCTYPE svg PUBLIC "-//W3C//DTD SVG 1.1//EN"
 "http://www.w3.org/Graphics/SVG/1.1/DTD/svg11.dtd">
<!-- Generated by graphviz version 2.50.0 (0)
 -->
<!-- Title: GlgTurboGui.InputListener Pages: 1 -->
<svg width="151pt" height="84pt"
 viewBox="0.00 0.00 151.00 84.00" xmlns="http://www.w3.org/2000/svg" xmlns:xlink="http://www.w3.org/1999/xlink">
<g id="graph0" class="graph" transform="scale(1 1) rotate(0) translate(4 80)">
<title>GlgTurboGui.InputListener</title>
<!-- Node1 -->
<g id="node1" class="node">
<title>Node1</title>
<g id="a_node1"><a xlink:title=" ">
<polygon fill="#bfbfbf" stroke="black" points="0,-0.5 0,-19.5 143,-19.5 143,-0.5 0,-0.5"/>
<text text-anchor="middle" x="71.5" y="-7.5" font-family="Helvetica,sans-Serif" font-size="10.00">GlgTurboGui.InputListener</text>
</a>
</g>
</g>
<!-- Node2 -->
<g id="node2" class="node">
<title>Node2</title>
<g id="a_node2"><a xlink:title=" ">
<polygon fill="none" stroke="#bfbfbf" points="23,-56.5 23,-75.5 120,-75.5 120,-56.5 23,-56.5"/>
<text text-anchor="middle" x="71.5" y="-63.5" font-family="Helvetica,sans-Serif" font-size="10.00">GlgInputListener</text>
</a>
</g>
</g>
<!-- Node2&#45;&gt;Node1 -->
<g id="edge1" class="edge">
<title>Node2&#45;&gt;Node1</title>
<path fill="none" stroke="midnightblue" d="M17.08,-50.62C6.42,-40.76 9.22,-27.99 25.51,-19.65"/>
<polygon fill="midnightblue" stroke="midnightblue" points="15.23,-53.59 25.47,-56.32 19.17,-47.81 15.23,-53.59"/>
</g>
<!-- Node2&#45;&gt;Node1 -->
<g id="edge2" class="edge">
<title>Node2&#45;&gt;Node1</title>
<path fill="none" stroke="midnightblue" d="M28.28,-49.49C21.06,-39.8 23.54,-27.68 35.73,-19.65"/>
<polygon fill="midnightblue" stroke="midnightblue" points="25.97,-52.12 35.7,-56.32 30.71,-46.97 25.97,-52.12"/>
</g>
<!-- Node2&#45;&gt;Node1 -->
<g id="edge3" class="edge">
<title>Node2&#45;&gt;Node1</title>
<path fill="none" stroke="midnightblue" d="M39.95,-48.1C35.69,-38.74 37.62,-27.48 45.76,-19.83"/>
<polygon fill="midnightblue" stroke="midnightblue" points="37.21,-50.3 45.93,-56.32 42.87,-46.18 37.21,-50.3"/>
</g>
<!-- Node2&#45;&gt;Node1 -->
<g id="edge4" class="edge">
<title>Node2&#45;&gt;Node1</title>
<path fill="none" stroke="midnightblue" d="M52.21,-46.69C50.13,-37.59 51.43,-27.01 56.11,-19.75"/>
<polygon fill="midnightblue" stroke="midnightblue" points="49.01,-48.12 56,-56.08 55.51,-45.5 49.01,-48.12"/>
</g>
<!-- Node2&#45;&gt;Node1 -->
<g id="edge5" class="edge">
<title>Node2&#45;&gt;Node1</title>
<path fill="none" stroke="midnightblue" d="M65.03,-46.1C64.4,-37.14 64.84,-26.86 66.37,-19.75"/>
<polygon fill="midnightblue" stroke="midnightblue" points="61.57,-46.62 66.33,-56.08 68.51,-45.71 61.57,-46.62"/>
</g>
<!-- Node2&#45;&gt;Node1 -->
<g id="edge6" class="edge">
<title>Node2&#45;&gt;Node1</title>
<path fill="none" stroke="midnightblue" d="M77.97,-46.1C78.6,-37.14 78.16,-26.86 76.63,-19.75"/>
<polygon fill="midnightblue" stroke="midnightblue" points="74.49,-45.71 76.67,-56.08 81.43,-46.62 74.49,-45.71"/>
</g>
<!-- Node2&#45;&gt;Node1 -->
<g id="edge7" class="edge">
<title>Node2&#45;&gt;Node1</title>
<path fill="none" stroke="midnightblue" d="M90.79,-46.69C92.87,-37.59 91.57,-27.01 86.89,-19.75"/>
<polygon fill="midnightblue" stroke="midnightblue" points="87.49,-45.5 87,-56.08 93.99,-48.12 87.49,-45.5"/>
</g>
<!-- Node2&#45;&gt;Node1 -->
<g id="edge8" class="edge">
<title>Node2&#45;&gt;Node1</title>
<path fill="none" stroke="midnightblue" d="M103.05,-48.1C107.31,-38.74 105.38,-27.48 97.24,-19.83"/>
<polygon fill="midnightblue" stroke="midnightblue" points="100.13,-46.18 97.07,-56.32 105.79,-50.3 100.13,-46.18"/>
</g>
<!-- Node2&#45;&gt;Node1 -->
<g id="edge9" class="edge">
<title>Node2&#45;&gt;Node1</title>
<path fill="none" stroke="midnightblue" d="M114.72,-49.49C121.94,-39.8 119.46,-27.68 107.27,-19.65"/>
<polygon fill="midnightblue" stroke="midnightblue" points="112.29,-46.97 107.3,-56.32 117.03,-52.12 112.29,-46.97"/>
</g>
<!-- Node2&#45;&gt;Node1 -->
<g id="edge10" class="edge">
<title>Node2&#45;&gt;Node1</title>
<path fill="none" stroke="midnightblue" d="M125.92,-50.62C136.58,-40.76 133.78,-27.99 117.49,-19.65"/>
<polygon fill="midnightblue" stroke="midnightblue" points="123.83,-47.81 117.53,-56.32 127.77,-53.59 123.83,-47.81"/>
</g>
</g>
</svg>
