<?xml version="1.0" encoding="UTF-8" standalone="no"?>
<!DOCTYPE svg PUBLIC "-//W3C//DTD SVG 1.1//EN"
 "http://www.w3.org/Graphics/SVG/1.1/DTD/svg11.dtd">
<!-- Generated by graphviz version 2.50.0 (0)
 -->
<!-- Title: ModbusSlaveThread.ModbusSlaveDataHolder Pages: 1 -->
<svg width="225pt" height="95pt"
 viewBox="0.00 0.00 224.58 95.00" xmlns="http://www.w3.org/2000/svg" xmlns:xlink="http://www.w3.org/1999/xlink">
<g id="graph0" class="graph" transform="scale(1 1) rotate(0) translate(4 91)">
<title>ModbusSlaveThread.ModbusSlaveDataHolder</title>
<!-- Node1 -->
<g id="node1" class="node">
<title>Node1</title>
<g id="a_node1"><a xlink:title=" ">
<polygon fill="#bfbfbf" stroke="black" points="29.79,-0.5 29.79,-30.5 186.79,-30.5 186.79,-0.5 29.79,-0.5"/>
<text text-anchor="start" x="37.79" y="-18.5" font-family="Helvetica,sans-Serif" font-size="10.00">ModbusSlaveThread.Modbus</text>
<text text-anchor="middle" x="108.29" y="-7.5" font-family="Helvetica,sans-Serif" font-size="10.00">SlaveDataHolder</text>
</a>
</g>
</g>
<!-- Node2 -->
<g id="node2" class="node">
<title>Node2</title>
<g id="a_node2"><a xlink:title=" ">
<polygon fill="none" stroke="#bfbfbf" points="72.29,-67.5 72.29,-86.5 144.29,-86.5 144.29,-67.5 72.29,-67.5"/>
<text text-anchor="middle" x="108.29" y="-74.5" font-family="Helvetica,sans-Serif" font-size="10.00">DataHolder</text>
</a>
</g>
</g>
<!-- Node2&#45;&gt;Node1 -->
<g id="edge1" class="edge">
<title>Node2&#45;&gt;Node1</title>
<path fill="none" stroke="midnightblue" d="M62.07,-73.57C-7.49,-65.43 -18.31,-38.94 29.62,-25.1"/>
<polygon fill="midnightblue" stroke="midnightblue" points="61.98,-77.07 72.28,-74.59 62.68,-70.11 61.98,-77.07"/>
</g>
<!-- Node2&#45;&gt;Node1 -->
<g id="edge2" class="edge">
<title>Node2&#45;&gt;Node1</title>
<path fill="none" stroke="midnightblue" d="M62.11,-72.72C11.39,-64.54 0.6,-42.87 29.74,-28.95"/>
<polygon fill="midnightblue" stroke="midnightblue" points="61.67,-76.19 72.05,-74.09 62.62,-69.26 61.67,-76.19"/>
</g>
<!-- Node2&#45;&gt;Node1 -->
<g id="edge3" class="edge">
<title>Node2&#45;&gt;Node1</title>
<path fill="none" stroke="midnightblue" d="M62.1,-71.31C25.9,-62.64 17.94,-43.77 38.21,-30.6"/>
<polygon fill="midnightblue" stroke="midnightblue" points="61.42,-74.75 71.91,-73.29 62.8,-67.88 61.42,-74.75"/>
</g>
<!-- Node2&#45;&gt;Node1 -->
<g id="edge4" class="edge">
<title>Node2&#45;&gt;Node1</title>
<path fill="none" stroke="midnightblue" d="M62.38,-68.8C38.74,-59.4 34.51,-42.74 49.71,-30.74"/>
<polygon fill="midnightblue" stroke="midnightblue" points="61.38,-72.15 71.98,-71.91 63.54,-65.49 61.38,-72.15"/>
</g>
<!-- Node2&#45;&gt;Node1 -->
<g id="edge5" class="edge">
<title>Node2&#45;&gt;Node1</title>
<path fill="none" stroke="midnightblue" d="M63.33,-63.48C51.88,-53.86 51.31,-40.56 61.61,-30.56"/>
<polygon fill="midnightblue" stroke="midnightblue" points="61.55,-66.5 71.86,-68.94 65.32,-60.6 61.55,-66.5"/>
</g>
<!-- Node2&#45;&gt;Node1 -->
<g id="edge6" class="edge">
<title>Node2&#45;&gt;Node1</title>
<path fill="none" stroke="midnightblue" d="M71.97,-60.09C65.98,-50.88 66.43,-39.39 73.31,-30.52"/>
<polygon fill="midnightblue" stroke="midnightblue" points="69.5,-62.57 78.89,-67.48 74.61,-57.78 69.5,-62.57"/>
</g>
<!-- Node2&#45;&gt;Node1 -->
<g id="edge7" class="edge">
<title>Node2&#45;&gt;Node1</title>
<path fill="none" stroke="midnightblue" d="M83.51,-58.68C80.13,-49.73 80.62,-38.94 84.97,-30.52"/>
<polygon fill="midnightblue" stroke="midnightblue" points="80.6,-60.64 88.69,-67.48 86.63,-57.08 80.6,-60.64"/>
</g>
<!-- Node2&#45;&gt;Node1 -->
<g id="edge8" class="edge">
<title>Node2&#45;&gt;Node1</title>
<path fill="none" stroke="midnightblue" d="M95.74,-57.82C94.23,-49.04 94.52,-38.68 96.63,-30.52"/>
<polygon fill="midnightblue" stroke="midnightblue" points="92.39,-58.81 98.49,-67.48 99.12,-56.9 92.39,-58.81"/>
</g>
<!-- Node2&#45;&gt;Node1 -->
<g id="edge9" class="edge">
<title>Node2&#45;&gt;Node1</title>
<path fill="none" stroke="midnightblue" d="M108.29,-57.23C108.29,-48.59 108.29,-38.5 108.29,-30.52"/>
<polygon fill="midnightblue" stroke="midnightblue" points="104.79,-57.48 108.29,-67.48 111.79,-57.48 104.79,-57.48"/>
</g>
<!-- Node2&#45;&gt;Node1 -->
<g id="edge10" class="edge">
<title>Node2&#45;&gt;Node1</title>
<path fill="none" stroke="midnightblue" d="M120.84,-57.82C122.36,-49.04 122.06,-38.68 119.95,-30.52"/>
<polygon fill="midnightblue" stroke="midnightblue" points="117.46,-56.9 118.09,-67.48 124.2,-58.81 117.46,-56.9"/>
</g>
<!-- Node2&#45;&gt;Node1 -->
<g id="edge11" class="edge">
<title>Node2&#45;&gt;Node1</title>
<path fill="none" stroke="midnightblue" d="M133.08,-58.68C136.46,-49.73 135.97,-38.94 131.61,-30.52"/>
<polygon fill="midnightblue" stroke="midnightblue" points="129.96,-57.08 127.89,-67.48 135.99,-60.64 129.96,-57.08"/>
</g>
<!-- Node2&#45;&gt;Node1 -->
<g id="edge12" class="edge">
<title>Node2&#45;&gt;Node1</title>
<path fill="none" stroke="midnightblue" d="M144.61,-60.09C150.6,-50.88 150.15,-39.39 143.27,-30.52"/>
<polygon fill="midnightblue" stroke="midnightblue" points="141.98,-57.78 137.7,-67.48 147.09,-62.57 141.98,-57.78"/>
</g>
<!-- Node2&#45;&gt;Node1 -->
<g id="edge13" class="edge">
<title>Node2&#45;&gt;Node1</title>
<path fill="none" stroke="midnightblue" d="M153.26,-63.48C164.7,-53.86 165.27,-40.56 154.97,-30.56"/>
<polygon fill="midnightblue" stroke="midnightblue" points="151.27,-60.6 144.73,-68.94 155.04,-66.5 151.27,-60.6"/>
</g>
<!-- Node2&#45;&gt;Node1 -->
<g id="edge14" class="edge">
<title>Node2&#45;&gt;Node1</title>
<path fill="none" stroke="midnightblue" d="M154.2,-68.8C177.85,-59.4 182.07,-42.74 166.87,-30.74"/>
<polygon fill="midnightblue" stroke="midnightblue" points="153.04,-65.49 144.61,-71.91 155.2,-72.15 153.04,-65.49"/>
</g>
<!-- Node2&#45;&gt;Node1 -->
<g id="edge15" class="edge">
<title>Node2&#45;&gt;Node1</title>
<path fill="none" stroke="midnightblue" d="M154.49,-71.31C190.68,-62.64 198.65,-43.77 178.38,-30.6"/>
<polygon fill="midnightblue" stroke="midnightblue" points="153.79,-67.88 144.67,-73.29 155.17,-74.75 153.79,-67.88"/>
</g>
<!-- Node2&#45;&gt;Node1 -->
<g id="edge16" class="edge">
<title>Node2&#45;&gt;Node1</title>
<path fill="none" stroke="midnightblue" d="M154.47,-72.72C205.19,-64.54 215.98,-42.87 186.85,-28.95"/>
<polygon fill="midnightblue" stroke="midnightblue" points="153.97,-69.26 144.54,-74.09 154.92,-76.19 153.97,-69.26"/>
</g>
<!-- Node2&#45;&gt;Node1 -->
<g id="edge17" class="edge">
<title>Node2&#45;&gt;Node1</title>
<path fill="none" stroke="midnightblue" d="M154.51,-73.57C224.07,-65.43 234.89,-38.94 186.97,-25.1"/>
<polygon fill="midnightblue" stroke="midnightblue" points="153.91,-70.11 144.31,-74.59 154.61,-77.07 153.91,-70.11"/>
</g>
</g>
</svg>
