<?xml version="1.0" encoding="UTF-8" standalone="no"?>
<!DOCTYPE svg PUBLIC "-//W3C//DTD SVG 1.1//EN"
 "http://www.w3.org/Graphics/SVG/1.1/DTD/svg11.dtd">
<!-- Generated by graphviz version 2.50.0 (0)
 -->
<!-- Title: ModbusSlaveThread Pages: 1 -->
<svg width="271pt" height="84pt"
 viewBox="0.00 0.00 270.71 84.00" xmlns="http://www.w3.org/2000/svg" xmlns:xlink="http://www.w3.org/1999/xlink">
<g id="graph0" class="graph" transform="scale(1 1) rotate(0) translate(4 80)">
<title>ModbusSlaveThread</title>
<!-- Node1 -->
<g id="node1" class="node">
<title>Node1</title>
<g id="a_node1"><a xlink:title=" ">
<polygon fill="#bfbfbf" stroke="black" points="73.03,-0.5 73.03,-19.5 189.03,-19.5 189.03,-0.5 73.03,-0.5"/>
<text text-anchor="middle" x="131.03" y="-7.5" font-family="Helvetica,sans-Serif" font-size="10.00">ModbusSlaveThread</text>
</a>
</g>
</g>
<!-- Node2 -->
<g id="node2" class="node">
<title>Node2</title>
<g id="a_node2"><a xlink:title=" ">
<polygon fill="none" stroke="#bfbfbf" points="59.03,-56.5 59.03,-75.5 121.03,-75.5 121.03,-56.5 59.03,-56.5"/>
<text text-anchor="middle" x="90.03" y="-63.5" font-family="Helvetica,sans-Serif" font-size="10.00">Runnable</text>
</a>
</g>
</g>
<!-- Node2&#45;&gt;Node1 -->
<g id="edge1" class="edge">
<title>Node2&#45;&gt;Node1</title>
<path fill="none" stroke="midnightblue" d="M48.62,-63.13C-27.79,-55.25 -8.79,-24.6 72.85,-14.36"/>
<polygon fill="midnightblue" stroke="midnightblue" points="48.69,-66.65 58.95,-64.02 49.29,-59.68 48.69,-66.65"/>
</g>
<!-- Node2&#45;&gt;Node1 -->
<g id="edge3" class="edge">
<title>Node2&#45;&gt;Node1</title>
<path fill="none" stroke="midnightblue" d="M48.98,-62.47C-8.97,-53.97 7.95,-26.37 72.57,-15.48"/>
<polygon fill="midnightblue" stroke="midnightblue" points="48.58,-65.95 58.93,-63.67 49.42,-59 48.58,-65.95"/>
</g>
<!-- Node2&#45;&gt;Node1 -->
<g id="edge5" class="edge">
<title>Node2&#45;&gt;Node1</title>
<path fill="none" stroke="midnightblue" d="M48.64,-61.14C10.11,-51.88 24.87,-28.34 72.71,-17.12"/>
<polygon fill="midnightblue" stroke="midnightblue" points="48.47,-64.67 58.94,-63.08 49.76,-57.79 48.47,-64.67"/>
</g>
<!-- Node2&#45;&gt;Node1 -->
<g id="edge7" class="edge">
<title>Node2&#45;&gt;Node1</title>
<path fill="none" stroke="midnightblue" d="M49.31,-58.57C29.38,-48.86 41.6,-30.43 73.58,-19.58"/>
<polygon fill="midnightblue" stroke="midnightblue" points="48.37,-61.95 58.97,-61.94 50.68,-55.34 48.37,-61.95"/>
</g>
<!-- Node2&#45;&gt;Node1 -->
<g id="edge9" class="edge">
<title>Node2&#45;&gt;Node1</title>
<path fill="none" stroke="midnightblue" d="M52.6,-50.76C50.46,-40.86 62.72,-27.98 83.7,-19.6"/>
<polygon fill="midnightblue" stroke="midnightblue" points="49.91,-53.01 58.78,-58.81 55.47,-48.74 49.91,-53.01"/>
</g>
<!-- Node2&#45;&gt;Node1 -->
<g id="edge11" class="edge">
<title>Node2&#45;&gt;Node1</title>
<path fill="none" stroke="midnightblue" d="M65.57,-46.04C68.64,-37.01 79.26,-26.67 93.96,-19.57"/>
<polygon fill="midnightblue" stroke="midnightblue" points="62.07,-46.17 65.8,-56.08 69.07,-46 62.07,-46.17"/>
</g>
<!-- Node2&#45;&gt;Node1 -->
<g id="edge13" class="edge">
<title>Node2&#45;&gt;Node1</title>
<path fill="none" stroke="midnightblue" d="M78.38,-46.33C82.64,-37.24 92.42,-26.75 104.15,-19.57"/>
<polygon fill="midnightblue" stroke="midnightblue" points="74.97,-45.55 76.13,-56.08 81.79,-47.12 74.97,-45.55"/>
</g>
<!-- Node2&#45;&gt;Node1 -->
<g id="edge15" class="edge">
<title>Node2&#45;&gt;Node1</title>
<path fill="none" stroke="midnightblue" d="M90.9,-46.98C96.4,-37.82 105.4,-27.09 114.12,-19.75"/>
<polygon fill="midnightblue" stroke="midnightblue" points="87.7,-45.56 86.47,-56.08 93.99,-48.62 87.7,-45.56"/>
</g>
<!-- Node2&#45;&gt;Node1 -->
<g id="edge17" class="edge">
<title>Node2&#45;&gt;Node1</title>
<path fill="none" stroke="midnightblue" d="M103.05,-47.86C110.15,-38.5 118.63,-27.33 124.38,-19.75"/>
<polygon fill="midnightblue" stroke="midnightblue" points="100.06,-46 96.8,-56.08 105.63,-50.24 100.06,-46"/>
</g>
<!-- Node2&#45;&gt;Node1 -->
<g id="edge19" class="edge">
<title>Node2&#45;&gt;Node1</title>
<path fill="none" stroke="midnightblue" d="M114.38,-49.25C123.64,-39.67 131.97,-27.79 134.62,-19.83"/>
<polygon fill="midnightblue" stroke="midnightblue" points="111.74,-46.93 106.85,-56.32 116.53,-52.03 111.74,-46.93"/>
</g>
<!-- Node2&#45;&gt;Node1 -->
<g id="edge21" class="edge">
<title>Node2&#45;&gt;Node1</title>
<path fill="none" stroke="midnightblue" d="M125.43,-50.38C137.41,-40.62 145.68,-28.11 144.92,-19.83"/>
<polygon fill="midnightblue" stroke="midnightblue" points="123.19,-47.67 117.08,-56.32 127.25,-53.38 123.19,-47.67"/>
</g>
<!-- Node2&#45;&gt;Node1 -->
<g id="edge23" class="edge">
<title>Node2&#45;&gt;Node1</title>
<path fill="none" stroke="midnightblue" d="M130.36,-54.76C149.24,-44.61 160.29,-29.25 155.13,-19.68"/>
<polygon fill="midnightblue" stroke="midnightblue" points="128.77,-51.64 121.17,-59.01 131.71,-57.99 128.77,-51.64"/>
</g>
<!-- Node2&#45;&gt;Node1 -->
<g id="edge25" class="edge">
<title>Node2&#45;&gt;Node1</title>
<path fill="none" stroke="midnightblue" d="M131.11,-58.66C160.24,-49.06 175.77,-30.79 165.55,-19.87"/>
<polygon fill="midnightblue" stroke="midnightblue" points="129.87,-55.38 121.2,-61.46 131.77,-62.12 129.87,-55.38"/>
</g>
<!-- Node2&#45;&gt;Node1 -->
<g id="edge27" class="edge">
<title>Node2&#45;&gt;Node1</title>
<path fill="none" stroke="midnightblue" d="M131.27,-60.85C172.23,-52.06 192.23,-31.39 175.51,-19.62"/>
<polygon fill="midnightblue" stroke="midnightblue" points="130.52,-57.43 121.32,-62.68 131.79,-64.31 130.52,-57.43"/>
</g>
<!-- Node2&#45;&gt;Node1 -->
<g id="edge29" class="edge">
<title>Node2&#45;&gt;Node1</title>
<path fill="none" stroke="midnightblue" d="M130.98,-62.16C184.4,-54.29 208.78,-31.99 185.65,-19.58"/>
<polygon fill="midnightblue" stroke="midnightblue" points="130.53,-58.69 121.05,-63.41 131.41,-65.63 130.53,-58.69"/>
</g>
<!-- Node2&#45;&gt;Node1 -->
<g id="edge31" class="edge">
<title>Node2&#45;&gt;Node1</title>
<path fill="none" stroke="midnightblue" d="M131.39,-62.87C201.47,-55.26 228.94,-29.18 189.11,-17.16"/>
<polygon fill="midnightblue" stroke="midnightblue" points="130.86,-59.41 121.23,-63.82 131.51,-66.38 130.86,-59.41"/>
</g>
<!-- Node2&#45;&gt;Node1 -->
<g id="edge33" class="edge">
<title>Node2&#45;&gt;Node1</title>
<path fill="none" stroke="midnightblue" d="M131.29,-63.39C219.64,-56.13 249.37,-26.34 189.19,-15.22"/>
<polygon fill="midnightblue" stroke="midnightblue" points="130.83,-59.91 121.11,-64.11 131.33,-66.89 130.83,-59.91"/>
</g>
<!-- Node3 -->
<g id="node3" class="node">
<title>Node3</title>
<g id="a_node3"><a xlink:href="interfaceDataTypes.html" target="_top" xlink:title=" ">
<polygon fill="none" stroke="black" points="139.03,-56.5 139.03,-75.5 207.03,-75.5 207.03,-56.5 139.03,-56.5"/>
<text text-anchor="middle" x="173.03" y="-63.5" font-family="Helvetica,sans-Serif" font-size="10.00">DataTypes</text>
</a>
</g>
</g>
<!-- Node3&#45;&gt;Node1 -->
<g id="edge2" class="edge">
<title>Node3&#45;&gt;Node1</title>
<path fill="none" stroke="midnightblue" d="M128.74,-63.13C42.61,-55.46 13.68,-26.24 72.87,-15.23"/>
<polygon fill="midnightblue" stroke="midnightblue" points="128.72,-66.64 138.96,-63.92 129.26,-59.66 128.72,-66.64"/>
</g>
<!-- Node3&#45;&gt;Node1 -->
<g id="edge4" class="edge">
<title>Node3&#45;&gt;Node1</title>
<path fill="none" stroke="midnightblue" d="M128.61,-62.53C60.77,-54.53 34.15,-29.12 72.79,-17.24"/>
<polygon fill="midnightblue" stroke="midnightblue" points="128.61,-66.05 138.92,-63.58 129.32,-59.09 128.61,-66.05"/>
</g>
<!-- Node3&#45;&gt;Node1 -->
<g id="edge6" class="edge">
<title>Node3&#45;&gt;Node1</title>
<path fill="none" stroke="midnightblue" d="M129.06,-61.7C77.59,-53.47 54.13,-31.79 76.52,-19.61"/>
<polygon fill="midnightblue" stroke="midnightblue" points="128.6,-65.17 138.99,-63.08 129.56,-58.24 128.6,-65.17"/>
</g>
<!-- Node3&#45;&gt;Node1 -->
<g id="edge8" class="edge">
<title>Node3&#45;&gt;Node1</title>
<path fill="none" stroke="midnightblue" d="M129.16,-60.28C89.75,-51.2 70.55,-31.15 86.71,-19.62"/>
<polygon fill="midnightblue" stroke="midnightblue" points="128.53,-63.73 139.02,-62.25 129.9,-56.86 128.53,-63.73"/>
</g>
<!-- Node3&#45;&gt;Node1 -->
<g id="edge10" class="edge">
<title>Node3&#45;&gt;Node1</title>
<path fill="none" stroke="midnightblue" d="M129.07,-57.72C101.28,-47.82 86.7,-30.12 96.95,-19.58"/>
<polygon fill="midnightblue" stroke="midnightblue" points="128.4,-61.18 138.99,-60.76 130.45,-54.49 128.4,-61.18"/>
</g>
<!-- Node3&#45;&gt;Node1 -->
<g id="edge12" class="edge">
<title>Node3&#45;&gt;Node1</title>
<path fill="none" stroke="midnightblue" d="M129.77,-53.24C112.34,-43.11 102.31,-28.72 107.11,-19.63"/>
<polygon fill="midnightblue" stroke="midnightblue" points="128.39,-56.46 138.89,-57.83 131.53,-50.21 128.39,-56.46"/>
</g>
<!-- Node3&#45;&gt;Node1 -->
<g id="edge14" class="edge">
<title>Node3&#45;&gt;Node1</title>
<path fill="none" stroke="midnightblue" d="M137.36,-50.38C125.19,-40.62 116.7,-28.11 117.3,-19.83"/>
<polygon fill="midnightblue" stroke="midnightblue" points="135.63,-53.44 145.82,-56.32 139.65,-47.71 135.63,-53.44"/>
</g>
<!-- Node3&#45;&gt;Node1 -->
<g id="edge16" class="edge">
<title>Node3&#45;&gt;Node1</title>
<path fill="none" stroke="midnightblue" d="M148.66,-49.54C139.11,-39.91 130.43,-27.87 127.6,-19.83"/>
<polygon fill="midnightblue" stroke="midnightblue" points="146.32,-52.14 156.05,-56.32 151.05,-46.98 146.32,-52.14"/>
</g>
<!-- Node3&#45;&gt;Node1 -->
<g id="edge18" class="edge">
<title>Node3&#45;&gt;Node1</title>
<path fill="none" stroke="midnightblue" d="M159.92,-48.14C152.6,-38.74 143.79,-27.4 137.84,-19.75"/>
<polygon fill="midnightblue" stroke="midnightblue" points="157.19,-50.34 166.09,-56.08 162.72,-46.04 157.19,-50.34"/>
</g>
<!-- Node3&#45;&gt;Node1 -->
<g id="edge20" class="edge">
<title>Node3&#45;&gt;Node1</title>
<path fill="none" stroke="midnightblue" d="M171.83,-46.98C166.15,-37.82 156.96,-27.09 148.1,-19.75"/>
<polygon fill="midnightblue" stroke="midnightblue" points="168.79,-48.74 176.43,-56.08 175.04,-45.58 168.79,-48.74"/>
</g>
<!-- Node3&#45;&gt;Node1 -->
<g id="edge22" class="edge">
<title>Node3&#45;&gt;Node1</title>
<path fill="none" stroke="midnightblue" d="M184.33,-46.33C179.91,-37.24 169.93,-26.75 158.07,-19.57"/>
<polygon fill="midnightblue" stroke="midnightblue" points="180.95,-47.22 186.76,-56.08 187.74,-45.53 180.95,-47.22"/>
</g>
<!-- Node3&#45;&gt;Node1 -->
<g id="edge24" class="edge">
<title>Node3&#45;&gt;Node1</title>
<path fill="none" stroke="midnightblue" d="M197.14,-46.04C193.9,-37.01 183.09,-26.67 168.25,-19.57"/>
<polygon fill="midnightblue" stroke="midnightblue" points="193.64,-46.07 197.09,-56.08 200.64,-46.1 193.64,-46.07"/>
</g>
<!-- Node3&#45;&gt;Node1 -->
<g id="edge26" class="edge">
<title>Node3&#45;&gt;Node1</title>
<path fill="none" stroke="midnightblue" d="M210.16,-46.33C208.38,-37.24 196.58,-26.75 178.44,-19.57"/>
<polygon fill="midnightblue" stroke="midnightblue" points="206.75,-45.51 207.42,-56.08 213.49,-47.4 206.75,-45.51"/>
</g>
<!-- Node3&#45;&gt;Node1 -->
<g id="edge28" class="edge">
<title>Node3&#45;&gt;Node1</title>
<path fill="none" stroke="midnightblue" d="M216.34,-57.06C232.1,-47.03 219.17,-29.83 188.48,-19.52"/>
<polygon fill="midnightblue" stroke="midnightblue" points="214.81,-53.91 207.04,-61.12 217.6,-60.33 214.81,-53.91"/>
</g>
<!-- Node3&#45;&gt;Node1 -->
<g id="edge30" class="edge">
<title>Node3&#45;&gt;Node1</title>
<path fill="none" stroke="midnightblue" d="M217.07,-60.43C252.03,-50.71 236.25,-27.95 189.11,-17.04"/>
<polygon fill="midnightblue" stroke="midnightblue" points="216.11,-57.06 207.08,-62.61 217.6,-63.9 216.11,-57.06"/>
</g>
<!-- Node3&#45;&gt;Node1 -->
<g id="edge32" class="edge">
<title>Node3&#45;&gt;Node1</title>
<path fill="none" stroke="midnightblue" d="M217.21,-61.97C271.18,-52.93 253.15,-26.13 189.48,-15.46"/>
<polygon fill="midnightblue" stroke="midnightblue" points="216.55,-58.53 207.12,-63.35 217.5,-65.46 216.55,-58.53"/>
</g>
<!-- Node3&#45;&gt;Node1 -->
<g id="edge34" class="edge">
<title>Node3&#45;&gt;Node1</title>
<path fill="none" stroke="midnightblue" d="M217.44,-62.8C290.18,-54.42 269.96,-24.42 189.08,-14.33"/>
<polygon fill="midnightblue" stroke="midnightblue" points="216.69,-59.36 207.07,-63.8 217.36,-66.32 216.69,-59.36"/>
</g>
</g>
</svg>
