<?xml version="1.0" encoding="UTF-8" standalone="no"?>
<!DOCTYPE svg PUBLIC "-//W3C//DTD SVG 1.1//EN"
 "http://www.w3.org/Graphics/SVG/1.1/DTD/svg11.dtd">
<!-- Generated by graphviz version 2.50.0 (0)
 -->
<!-- Title: DialogOp.Keypad Pages: 1 -->
<svg width="158pt" height="84pt"
 viewBox="0.00 0.00 158.00 84.00" xmlns="http://www.w3.org/2000/svg" xmlns:xlink="http://www.w3.org/1999/xlink">
<g id="graph0" class="graph" transform="scale(1 1) rotate(0) translate(4 80)">
<title>DialogOp.Keypad</title>
<!-- Node1 -->
<g id="node1" class="node">
<title>Node1</title>
<g id="a_node1"><a xlink:title=" ">
<polygon fill="#bfbfbf" stroke="black" points="14.5,-0.5 14.5,-19.5 115.5,-19.5 115.5,-0.5 14.5,-0.5"/>
<text text-anchor="middle" x="65" y="-7.5" font-family="Helvetica,sans-Serif" font-size="10.00">DialogOp.Keypad</text>
</a>
</g>
</g>
<!-- Node2 -->
<g id="node2" class="node">
<title>Node2</title>
<g id="a_node2"><a xlink:title=" ">
<polygon fill="none" stroke="#bfbfbf" points="0,-56.5 0,-75.5 46,-75.5 46,-56.5 0,-56.5"/>
<text text-anchor="middle" x="23" y="-63.5" font-family="Helvetica,sans-Serif" font-size="10.00">JPanel</text>
</a>
</g>
</g>
<!-- Node2&#45;&gt;Node1 -->
<g id="edge1" class="edge">
<title>Node2&#45;&gt;Node1</title>
<path fill="none" stroke="midnightblue" d="M17.99,-46.63C23.03,-37.47 32.65,-26.82 43.05,-19.57"/>
<polygon fill="midnightblue" stroke="midnightblue" points="14.68,-45.49 14.44,-56.08 21.23,-47.95 14.68,-45.49"/>
</g>
<!-- Node2&#45;&gt;Node1 -->
<g id="edge3" class="edge">
<title>Node2&#45;&gt;Node1</title>
<path fill="none" stroke="midnightblue" d="M30.2,-47.57C36.64,-38.27 45.62,-27.25 53.06,-19.75"/>
<polygon fill="midnightblue" stroke="midnightblue" points="27.2,-45.77 24.77,-56.08 33.1,-49.53 27.2,-45.77"/>
</g>
<!-- Node2&#45;&gt;Node1 -->
<g id="edge5" class="edge">
<title>Node2&#45;&gt;Node1</title>
<path fill="none" stroke="midnightblue" d="M41.92,-48.72C50.25,-39.2 58.93,-27.56 63.32,-19.75"/>
<polygon fill="midnightblue" stroke="midnightblue" points="39.32,-46.37 35.1,-56.08 44.46,-51.12 39.32,-46.37"/>
</g>
<!-- Node2&#45;&gt;Node1 -->
<g id="edge7" class="edge">
<title>Node2&#45;&gt;Node1</title>
<path fill="none" stroke="midnightblue" d="M53.22,-49.82C63.95,-40.15 72.45,-27.95 73.58,-19.83"/>
<polygon fill="midnightblue" stroke="midnightblue" points="50.71,-47.34 45.09,-56.32 55.09,-52.81 50.71,-47.34"/>
</g>
<!-- Node3 -->
<g id="node3" class="node">
<title>Node3</title>
<g id="a_node3"><a xlink:title=" ">
<polygon fill="none" stroke="#bfbfbf" points="64,-56.5 64,-75.5 150,-75.5 150,-56.5 64,-56.5"/>
<text text-anchor="middle" x="107" y="-63.5" font-family="Helvetica,sans-Serif" font-size="10.00">ActionListener</text>
</a>
</g>
</g>
<!-- Node3&#45;&gt;Node1 -->
<g id="edge2" class="edge">
<title>Node3&#45;&gt;Node1</title>
<path fill="none" stroke="midnightblue" d="M76.78,-49.82C66.05,-40.15 57.55,-27.95 56.42,-19.83"/>
<polygon fill="midnightblue" stroke="midnightblue" points="74.91,-52.81 84.91,-56.32 79.29,-47.34 74.91,-52.81"/>
</g>
<!-- Node3&#45;&gt;Node1 -->
<g id="edge4" class="edge">
<title>Node3&#45;&gt;Node1</title>
<path fill="none" stroke="midnightblue" d="M88.08,-48.72C79.75,-39.2 71.07,-27.56 66.68,-19.75"/>
<polygon fill="midnightblue" stroke="midnightblue" points="85.54,-51.12 94.9,-56.08 90.68,-46.37 85.54,-51.12"/>
</g>
<!-- Node3&#45;&gt;Node1 -->
<g id="edge6" class="edge">
<title>Node3&#45;&gt;Node1</title>
<path fill="none" stroke="midnightblue" d="M99.8,-47.57C93.36,-38.27 84.38,-27.25 76.94,-19.75"/>
<polygon fill="midnightblue" stroke="midnightblue" points="96.9,-49.53 105.23,-56.08 102.8,-45.77 96.9,-49.53"/>
</g>
<!-- Node3&#45;&gt;Node1 -->
<g id="edge8" class="edge">
<title>Node3&#45;&gt;Node1</title>
<path fill="none" stroke="midnightblue" d="M112.01,-46.63C106.97,-37.47 97.35,-26.82 86.95,-19.57"/>
<polygon fill="midnightblue" stroke="midnightblue" points="108.77,-47.95 115.56,-56.08 115.32,-45.49 108.77,-47.95"/>
</g>
</g>
</svg>
