<?xml version="1.0" encoding="UTF-8" standalone="no"?>
<!DOCTYPE svg PUBLIC "-//W3C//DTD SVG 1.1//EN"
 "http://www.w3.org/Graphics/SVG/1.1/DTD/svg11.dtd">
<!-- Generated by graphviz version 2.50.0 (0)
 -->
<!-- Title: TitaneVarianTSP_32 Pages: 1 -->
<svg width="529pt" height="196pt"
 viewBox="0.00 0.00 528.51 196.00" xmlns="http://www.w3.org/2000/svg" xmlns:xlink="http://www.w3.org/1999/xlink">
<g id="graph0" class="graph" transform="scale(1 1) rotate(0) translate(4 192)">
<title>TitaneVarianTSP_32</title>
<!-- Node1 -->
<g id="node1" class="node">
<title>Node1</title>
<g id="a_node1"><a xlink:title=" ">
<polygon fill="#bfbfbf" stroke="black" points="20.66,-0.5 20.66,-19.5 133.66,-19.5 133.66,-0.5 20.66,-0.5"/>
<text text-anchor="middle" x="77.16" y="-7.5" font-family="Helvetica,sans-Serif" font-size="10.00">TitaneVarianTSP_32</text>
</a>
</g>
</g>
<!-- Node2 -->
<g id="node2" class="node">
<title>Node2</title>
<g id="a_node2"><a xlink:href="classDevice.html" target="_top" xlink:title=" ">
<polygon fill="none" stroke="black" points="300.16,-56.5 300.16,-75.5 350.16,-75.5 350.16,-56.5 300.16,-56.5"/>
<text text-anchor="middle" x="325.16" y="-63.5" font-family="Helvetica,sans-Serif" font-size="10.00">Device</text>
</a>
</g>
</g>
<!-- Node2&#45;&gt;Node1 -->
<g id="edge1" class="edge">
<title>Node2&#45;&gt;Node1</title>
<path fill="none" stroke="midnightblue" d="M290.18,-58.39C242.61,-48.61 158.37,-30.31 111.25,-19.53"/>
<polygon fill="midnightblue" stroke="midnightblue" points="289.54,-61.83 300.03,-60.4 290.93,-54.97 289.54,-61.83"/>
</g>
<!-- Node2&#45;&gt;Node1 -->
<g id="edge91" class="edge">
<title>Node2&#45;&gt;Node1</title>
<path fill="none" stroke="midnightblue" d="M289.81,-56.18C245.52,-46.07 169.86,-29.6 121.67,-19.58"/>
<polygon fill="midnightblue" stroke="midnightblue" points="289.3,-59.66 299.83,-58.49 290.87,-52.83 289.3,-59.66"/>
</g>
<!-- Node3 -->
<g id="node3" class="node">
<title>Node3</title>
<g id="a_node3"><a xlink:href="classDataManager.html" target="_top" xlink:title=" ">
<polygon fill="none" stroke="black" points="283.66,-112.5 283.66,-131.5 366.66,-131.5 366.66,-112.5 283.66,-112.5"/>
<text text-anchor="middle" x="325.16" y="-119.5" font-family="Helvetica,sans-Serif" font-size="10.00">DataManager</text>
</a>
</g>
</g>
<!-- Node3&#45;&gt;Node2 -->
<g id="edge2" class="edge">
<title>Node3&#45;&gt;Node2</title>
<path fill="none" stroke="midnightblue" d="M273.11,-119.42C145.16,-110.98 154.09,-71.44 299.91,-67.34"/>
<polygon fill="midnightblue" stroke="midnightblue" points="273.2,-122.93 283.39,-120.02 273.61,-115.94 273.2,-122.93"/>
</g>
<!-- Node3&#45;&gt;Node2 -->
<g id="edge27" class="edge">
<title>Node3&#45;&gt;Node2</title>
<path fill="none" stroke="midnightblue" d="M273.32,-119.05C163.19,-109.95 172.1,-71.83 300.05,-67.42"/>
<polygon fill="midnightblue" stroke="midnightblue" points="273.39,-122.57 283.62,-119.8 273.9,-115.59 273.39,-122.57"/>
</g>
<!-- Node3&#45;&gt;Node2 -->
<g id="edge30" class="edge">
<title>Node3&#45;&gt;Node2</title>
<path fill="none" stroke="midnightblue" d="M273.47,-118.52C181.29,-108.64 190.17,-72.32 300.09,-67.52"/>
<polygon fill="midnightblue" stroke="midnightblue" points="273.35,-122.03 283.63,-119.47 274,-115.06 273.35,-122.03"/>
</g>
<!-- Node3&#45;&gt;Node2 -->
<g id="edge33" class="edge">
<title>Node3&#45;&gt;Node2</title>
<path fill="none" stroke="midnightblue" d="M273.59,-117.73C199.47,-106.95 208.28,-72.94 300.03,-67.68"/>
<polygon fill="midnightblue" stroke="midnightblue" points="273.2,-121.21 283.56,-118.98 274.08,-114.26 273.2,-121.21"/>
</g>
<!-- Node3&#45;&gt;Node2 -->
<g id="edge36" class="edge">
<title>Node3&#45;&gt;Node2</title>
<path fill="none" stroke="midnightblue" d="M273.35,-116.38C217.74,-104.54 226.66,-73.65 300.1,-67.92"/>
<polygon fill="midnightblue" stroke="midnightblue" points="272.77,-119.83 283.23,-118.17 274.02,-112.94 272.77,-119.83"/>
</g>
<!-- Node3&#45;&gt;Node2 -->
<g id="edge39" class="edge">
<title>Node3&#45;&gt;Node2</title>
<path fill="none" stroke="midnightblue" d="M273.74,-114.16C236.24,-101.39 244.93,-74.65 299.8,-68.35"/>
<polygon fill="midnightblue" stroke="midnightblue" points="273.08,-117.61 283.65,-116.94 274.97,-110.87 273.08,-117.61"/>
</g>
<!-- Node3&#45;&gt;Node2 -->
<g id="edge42" class="edge">
<title>Node3&#45;&gt;Node2</title>
<path fill="none" stroke="midnightblue" d="M274.72,-109.75C255.08,-96.55 263.49,-75.65 299.96,-69.06"/>
<polygon fill="midnightblue" stroke="midnightblue" points="273.14,-112.87 283.63,-114.38 276.37,-106.66 273.14,-112.87"/>
</g>
<!-- Node3&#45;&gt;Node2 -->
<g id="edge45" class="edge">
<title>Node3&#45;&gt;Node2</title>
<path fill="none" stroke="midnightblue" d="M281.88,-105.41C272.97,-93.35 279.05,-77.57 300.09,-70.59"/>
<polygon fill="midnightblue" stroke="midnightblue" points="279.64,-108.1 289.35,-112.32 284.39,-102.96 279.64,-108.1"/>
</g>
<!-- Node3&#45;&gt;Node2 -->
<g id="edge48" class="edge">
<title>Node3&#45;&gt;Node2</title>
<path fill="none" stroke="midnightblue" d="M293.55,-104C289.29,-94.51 291.38,-83.09 299.8,-75.48"/>
<polygon fill="midnightblue" stroke="midnightblue" points="290.88,-106.28 299.58,-112.32 296.55,-102.17 290.88,-106.28"/>
</g>
<!-- Node3&#45;&gt;Node2 -->
<g id="edge51" class="edge">
<title>Node3&#45;&gt;Node2</title>
<path fill="none" stroke="midnightblue" d="M305.87,-102.69C303.79,-93.59 305.08,-83.01 309.76,-75.75"/>
<polygon fill="midnightblue" stroke="midnightblue" points="302.67,-104.12 309.66,-112.08 309.16,-101.5 302.67,-104.12"/>
</g>
<!-- Node3&#45;&gt;Node2 -->
<g id="edge54" class="edge">
<title>Node3&#45;&gt;Node2</title>
<path fill="none" stroke="midnightblue" d="M318.68,-102.1C318.05,-93.14 318.5,-82.86 320.03,-75.75"/>
<polygon fill="midnightblue" stroke="midnightblue" points="315.22,-102.62 319.99,-112.08 322.16,-101.71 315.22,-102.62"/>
</g>
<!-- Node3&#45;&gt;Node2 -->
<g id="edge57" class="edge">
<title>Node3&#45;&gt;Node2</title>
<path fill="none" stroke="midnightblue" d="M331.63,-102.1C332.26,-93.14 331.81,-82.86 330.29,-75.75"/>
<polygon fill="midnightblue" stroke="midnightblue" points="328.15,-101.71 330.32,-112.08 335.09,-102.62 328.15,-101.71"/>
</g>
<!-- Node3&#45;&gt;Node2 -->
<g id="edge60" class="edge">
<title>Node3&#45;&gt;Node2</title>
<path fill="none" stroke="midnightblue" d="M344.44,-102.69C346.53,-93.59 345.23,-83.01 340.55,-75.75"/>
<polygon fill="midnightblue" stroke="midnightblue" points="341.15,-101.5 340.66,-112.08 347.64,-104.12 341.15,-101.5"/>
</g>
<!-- Node3&#45;&gt;Node2 -->
<g id="edge63" class="edge">
<title>Node3&#45;&gt;Node2</title>
<path fill="none" stroke="midnightblue" d="M356.76,-104C361.02,-94.51 358.94,-83.09 350.51,-75.48"/>
<polygon fill="midnightblue" stroke="midnightblue" points="353.76,-102.17 350.73,-112.32 359.43,-106.28 353.76,-102.17"/>
</g>
<!-- Node3&#45;&gt;Node2 -->
<g id="edge66" class="edge">
<title>Node3&#45;&gt;Node2</title>
<path fill="none" stroke="midnightblue" d="M368.44,-105.41C377.34,-93.35 371.27,-77.57 350.22,-70.59"/>
<polygon fill="midnightblue" stroke="midnightblue" points="365.93,-102.96 360.96,-112.32 370.68,-108.1 365.93,-102.96"/>
</g>
<!-- Node3&#45;&gt;Node2 -->
<g id="edge69" class="edge">
<title>Node3&#45;&gt;Node2</title>
<path fill="none" stroke="midnightblue" d="M375.59,-109.75C395.24,-96.55 386.82,-75.65 350.35,-69.06"/>
<polygon fill="midnightblue" stroke="midnightblue" points="373.94,-106.66 366.69,-114.38 377.17,-112.87 373.94,-106.66"/>
</g>
<!-- Node3&#45;&gt;Node2 -->
<g id="edge72" class="edge">
<title>Node3&#45;&gt;Node2</title>
<path fill="none" stroke="midnightblue" d="M376.57,-114.16C414.07,-101.39 405.38,-74.65 350.51,-68.35"/>
<polygon fill="midnightblue" stroke="midnightblue" points="375.34,-110.87 366.66,-116.94 377.24,-117.61 375.34,-110.87"/>
</g>
<!-- Node3&#45;&gt;Node2 -->
<g id="edge75" class="edge">
<title>Node3&#45;&gt;Node2</title>
<path fill="none" stroke="midnightblue" d="M376.97,-116.38C432.57,-104.54 423.65,-73.65 350.22,-67.92"/>
<polygon fill="midnightblue" stroke="midnightblue" points="376.3,-112.94 367.08,-118.17 377.55,-119.83 376.3,-112.94"/>
</g>
<!-- Node3&#45;&gt;Node2 -->
<g id="edge78" class="edge">
<title>Node3&#45;&gt;Node2</title>
<path fill="none" stroke="midnightblue" d="M376.72,-117.73C450.85,-106.95 442.03,-72.94 350.28,-67.68"/>
<polygon fill="midnightblue" stroke="midnightblue" points="376.24,-114.26 366.75,-118.98 377.11,-121.21 376.24,-114.26"/>
</g>
<!-- Node3&#45;&gt;Node2 -->
<g id="edge81" class="edge">
<title>Node3&#45;&gt;Node2</title>
<path fill="none" stroke="midnightblue" d="M376.85,-118.52C469.02,-108.64 460.15,-72.32 350.22,-67.52"/>
<polygon fill="midnightblue" stroke="midnightblue" points="376.31,-115.06 366.68,-119.47 376.96,-122.03 376.31,-115.06"/>
</g>
<!-- Node3&#45;&gt;Node2 -->
<g id="edge84" class="edge">
<title>Node3&#45;&gt;Node2</title>
<path fill="none" stroke="midnightblue" d="M376.99,-119.05C487.12,-109.95 478.21,-71.83 350.27,-67.42"/>
<polygon fill="midnightblue" stroke="midnightblue" points="376.42,-115.59 366.69,-119.8 376.92,-122.57 376.42,-115.59"/>
</g>
<!-- Node3&#45;&gt;Node2 -->
<g id="edge87" class="edge">
<title>Node3&#45;&gt;Node2</title>
<path fill="none" stroke="midnightblue" d="M377.2,-119.42C505.16,-110.98 496.22,-71.44 350.41,-67.34"/>
<polygon fill="midnightblue" stroke="midnightblue" points="376.71,-115.94 366.93,-120.02 377.11,-122.93 376.71,-115.94"/>
</g>
<!-- Node4 -->
<g id="node4" class="node">
<title>Node4</title>
<g id="a_node4"><a xlink:href="interfaceDataTypes.html" target="_top" xlink:title=" ">
<polygon fill="none" stroke="black" points="32.16,-168.5 32.16,-187.5 100.16,-187.5 100.16,-168.5 32.16,-168.5"/>
<text text-anchor="middle" x="66.16" y="-175.5" font-family="Helvetica,sans-Serif" font-size="10.00">DataTypes</text>
</a>
</g>
</g>
<!-- Node4&#45;&gt;Node1 -->
<g id="edge90" class="edge">
<title>Node4&#45;&gt;Node1</title>
<path fill="none" stroke="midnightblue" d="M62.92,-157.93C61.92,-121.92 67.44,-45.23 73.38,-19.57"/>
<polygon fill="midnightblue" stroke="midnightblue" points="59.44,-158.28 63.49,-168.08 66.43,-157.9 59.44,-158.28"/>
</g>
<!-- Node4&#45;&gt;Node1 -->
<g id="edge92" class="edge">
<title>Node4&#45;&gt;Node1</title>
<path fill="none" stroke="midnightblue" d="M71.92,-157.93C77.69,-121.92 82.34,-45.23 79.79,-19.57"/>
<polygon fill="midnightblue" stroke="midnightblue" points="68.42,-157.6 70.01,-168.08 75.3,-158.89 68.42,-157.6"/>
</g>
<!-- Node4&#45;&gt;Node2 -->
<g id="edge26" class="edge">
<title>Node4&#45;&gt;Node2</title>
<path fill="none" stroke="midnightblue" d="M21.87,-173.82C-66.43,-156.65 134.2,-75.43 300.15,-67.61"/>
<polygon fill="midnightblue" stroke="midnightblue" points="21.59,-177.32 32.01,-175.36 22.64,-170.4 21.59,-177.32"/>
</g>
<!-- Node4&#45;&gt;Node2 -->
<g id="edge29" class="edge">
<title>Node4&#45;&gt;Node2</title>
<path fill="none" stroke="midnightblue" d="M21.99,-172.54C-39.73,-153.07 151.76,-76.14 299.82,-67.75"/>
<polygon fill="midnightblue" stroke="midnightblue" points="21.34,-175.98 31.87,-174.8 22.9,-169.16 21.34,-175.98"/>
</g>
<!-- Node4&#45;&gt;Node2 -->
<g id="edge32" class="edge">
<title>Node4&#45;&gt;Node2</title>
<path fill="none" stroke="midnightblue" d="M22.48,-169.66C-5.88,-146.61 171.29,-76.7 299.76,-67.91"/>
<polygon fill="midnightblue" stroke="midnightblue" points="21.19,-172.92 31.75,-173.83 24.06,-166.53 21.19,-172.92"/>
</g>
<!-- Node4&#45;&gt;Node2 -->
<g id="edge35" class="edge">
<title>Node4&#45;&gt;Node2</title>
<path fill="none" stroke="midnightblue" d="M29.46,-161.77C44.25,-133.91 195.41,-76.79 299.95,-68.11"/>
<polygon fill="midnightblue" stroke="midnightblue" points="26.13,-162.88 32,-171.69 32.91,-161.14 26.13,-162.88"/>
</g>
<!-- Node4&#45;&gt;Node2 -->
<g id="edge38" class="edge">
<title>Node4&#45;&gt;Node2</title>
<path fill="none" stroke="midnightblue" d="M41.42,-159.18C69.3,-130.84 209.2,-77.76 299.83,-68.42"/>
<polygon fill="midnightblue" stroke="midnightblue" points="38.14,-157.9 36.52,-168.37 44.32,-161.19 38.14,-157.9"/>
</g>
<!-- Node4&#45;&gt;Node2 -->
<g id="edge41" class="edge">
<title>Node4&#45;&gt;Node2</title>
<path fill="none" stroke="midnightblue" d="M50.29,-160.39C81.15,-132.75 218.37,-79.3 300.03,-68.81"/>
<polygon fill="midnightblue" stroke="midnightblue" points="47.48,-158.29 44.21,-168.37 53.05,-162.53 47.48,-158.29"/>
</g>
<!-- Node4&#45;&gt;Node2 -->
<g id="edge44" class="edge">
<title>Node4&#45;&gt;Node2</title>
<path fill="none" stroke="midnightblue" d="M59.17,-161.23C93.96,-134.33 226.96,-81.32 299.94,-69.41"/>
<polygon fill="midnightblue" stroke="midnightblue" points="56.58,-158.87 51.89,-168.37 61.48,-163.87 56.58,-158.87"/>
</g>
<!-- Node4&#45;&gt;Node2 -->
<g id="edge47" class="edge">
<title>Node4&#45;&gt;Node2</title>
<path fill="none" stroke="midnightblue" d="M67.71,-162.07C106.46,-136.05 234.66,-83.87 299.87,-70.29"/>
<polygon fill="midnightblue" stroke="midnightblue" points="65.34,-159.48 59.58,-168.37 69.63,-165.01 65.34,-159.48"/>
</g>
<!-- Node4&#45;&gt;Node2 -->
<g id="edge50" class="edge">
<title>Node4&#45;&gt;Node2</title>
<path fill="none" stroke="midnightblue" d="M75.9,-162.89C118.52,-137.91 241.21,-87.06 299.82,-71.58"/>
<polygon fill="midnightblue" stroke="midnightblue" points="73.83,-160.05 67.27,-168.37 77.58,-165.97 73.83,-160.05"/>
</g>
<!-- Node4&#45;&gt;Node2 -->
<g id="edge53" class="edge">
<title>Node4&#45;&gt;Node2</title>
<path fill="none" stroke="midnightblue" d="M84,-163.55C130.45,-139.72 246.47,-90.97 299.81,-73.45"/>
<polygon fill="midnightblue" stroke="midnightblue" points="82.13,-160.58 74.95,-168.37 85.42,-166.76 82.13,-160.58"/>
</g>
<!-- Node4&#45;&gt;Node2 -->
<g id="edge56" class="edge">
<title>Node4&#45;&gt;Node2</title>
<path fill="none" stroke="midnightblue" d="M91.86,-164.16C142.12,-141.47 252.15,-94.83 301.09,-75.59"/>
<polygon fill="midnightblue" stroke="midnightblue" points="90.28,-161.03 82.64,-168.37 93.19,-167.4 90.28,-161.03"/>
</g>
<!-- Node4&#45;&gt;Node2 -->
<g id="edge59" class="edge">
<title>Node4&#45;&gt;Node2</title>
<path fill="none" stroke="midnightblue" d="M99.85,-164.59C156.16,-142.05 266.84,-94.95 308.76,-75.59"/>
<polygon fill="midnightblue" stroke="midnightblue" points="98.33,-161.43 90.32,-168.37 100.91,-167.93 98.33,-161.43"/>
</g>
<!-- Node4&#45;&gt;Node2 -->
<g id="edge62" class="edge">
<title>Node4&#45;&gt;Node2</title>
<path fill="none" stroke="midnightblue" d="M107.33,-165.1C169.85,-142.79 281.5,-95.13 316.4,-75.61"/>
<polygon fill="midnightblue" stroke="midnightblue" points="106.02,-161.85 97.74,-168.46 108.34,-168.46 106.02,-161.85"/>
</g>
<!-- Node4&#45;&gt;Node2 -->
<g id="edge65" class="edge">
<title>Node4&#45;&gt;Node2</title>
<path fill="none" stroke="midnightblue" d="M110.11,-167.01C178.62,-145.63 295.7,-95.73 324.06,-75.62"/>
<polygon fill="midnightblue" stroke="midnightblue" points="108.93,-163.71 100.37,-169.95 110.95,-170.41 108.93,-163.71"/>
</g>
<!-- Node4&#45;&gt;Node2 -->
<g id="edge68" class="edge">
<title>Node4&#45;&gt;Node2</title>
<path fill="none" stroke="midnightblue" d="M110.22,-169.22C185.36,-149.3 309.85,-96.61 331.65,-75.71"/>
<polygon fill="midnightblue" stroke="midnightblue" points="109.25,-165.85 100.42,-171.69 110.97,-172.64 109.25,-165.85"/>
</g>
<!-- Node4&#45;&gt;Node2 -->
<g id="edge71" class="edge">
<title>Node4&#45;&gt;Node2</title>
<path fill="none" stroke="midnightblue" d="M110.33,-170.89C193.33,-152.44 324.97,-97.23 339.36,-75.72"/>
<polygon fill="midnightblue" stroke="midnightblue" points="109.53,-167.48 100.46,-172.95 110.96,-174.33 109.53,-167.48"/>
</g>
<!-- Node4&#45;&gt;Node2 -->
<g id="edge74" class="edge">
<title>Node4&#45;&gt;Node2</title>
<path fill="none" stroke="midnightblue" d="M110.22,-172.19C202.23,-155.17 340.85,-97.66 347.1,-75.66"/>
<polygon fill="midnightblue" stroke="midnightblue" points="109.62,-168.74 100.36,-173.89 110.81,-175.64 109.62,-168.74"/>
</g>
<!-- Node4&#45;&gt;Node2 -->
<g id="edge77" class="edge">
<title>Node4&#45;&gt;Node2</title>
<path fill="none" stroke="midnightblue" d="M110.27,-173.14C221.44,-156 383.68,-86.88 350.41,-70.49"/>
<polygon fill="midnightblue" stroke="midnightblue" points="109.76,-169.68 100.35,-174.55 110.74,-176.61 109.76,-169.68"/>
</g>
<!-- Node4&#45;&gt;Node2 -->
<g id="edge80" class="edge">
<title>Node4&#45;&gt;Node2</title>
<path fill="none" stroke="midnightblue" d="M110.44,-173.85C237.04,-157.47 411.49,-82.43 350.47,-69.05"/>
<polygon fill="midnightblue" stroke="midnightblue" points="109.79,-170.4 100.26,-175.04 110.61,-177.35 109.79,-170.4"/>
</g>
<!-- Node4&#45;&gt;Node2 -->
<g id="edge83" class="edge">
<title>Node4&#45;&gt;Node2</title>
<path fill="none" stroke="midnightblue" d="M110.42,-174.41C251.98,-159 435.11,-79.84 350.28,-68.38"/>
<polygon fill="midnightblue" stroke="midnightblue" points="109.92,-170.94 100.31,-175.4 110.6,-177.9 109.92,-170.94"/>
</g>
<!-- Node4&#45;&gt;Node2 -->
<g id="edge86" class="edge">
<title>Node4&#45;&gt;Node2</title>
<path fill="none" stroke="midnightblue" d="M110.44,-174.84C267.03,-160.38 456.77,-78.13 350.17,-68.02"/>
<polygon fill="midnightblue" stroke="midnightblue" points="109.86,-171.37 100.18,-175.69 110.43,-178.35 109.86,-171.37"/>
</g>
<!-- Node4&#45;&gt;Node2 -->
<g id="edge89" class="edge">
<title>Node4&#45;&gt;Node2</title>
<path fill="none" stroke="midnightblue" d="M110.51,-175.17C282.21,-161.6 477.07,-77.03 350.45,-67.81"/>
<polygon fill="midnightblue" stroke="midnightblue" points="110.01,-171.7 100.28,-175.89 110.51,-178.68 110.01,-171.7"/>
</g>
<!-- Node4&#45;&gt;Node3 -->
<g id="edge3" class="edge">
<title>Node4&#45;&gt;Node3</title>
<path fill="none" stroke="midnightblue" d="M21.91,-175.44C-63.53,-167.3 121.11,-129.77 283.42,-123.8"/>
<polygon fill="midnightblue" stroke="midnightblue" points="21.77,-178.94 32.01,-176.19 22.29,-171.96 21.77,-178.94"/>
</g>
<!-- Node4&#45;&gt;Node3 -->
<g id="edge4" class="edge">
<title>Node4&#45;&gt;Node3</title>
<path fill="none" stroke="midnightblue" d="M21.92,-174.8C-37.32,-165.57 138.13,-130.21 283.39,-123.95"/>
<polygon fill="midnightblue" stroke="midnightblue" points="21.54,-178.28 31.87,-175.92 22.32,-171.32 21.54,-178.28"/>
</g>
<!-- Node4&#45;&gt;Node3 -->
<g id="edge5" class="edge">
<title>Node4&#45;&gt;Node3</title>
<path fill="none" stroke="midnightblue" d="M21.75,-173.08C-1.57,-161.95 157.9,-130.56 283.23,-124.15"/>
<polygon fill="midnightblue" stroke="midnightblue" points="21.21,-176.55 31.75,-175.44 22.82,-169.73 21.21,-176.55"/>
</g>
<!-- Node4&#45;&gt;Node3 -->
<g id="edge6" class="edge">
<title>Node4&#45;&gt;Node3</title>
<path fill="none" stroke="midnightblue" d="M36.82,-165.43C69.58,-151.73 190.17,-130.05 283.45,-124.39"/>
<polygon fill="midnightblue" stroke="midnightblue" points="33.65,-163.93 32,-174.4 39.82,-167.24 33.65,-163.93"/>
</g>
<!-- Node4&#45;&gt;Node3 -->
<g id="edge7" class="edge">
<title>Node4&#45;&gt;Node3</title>
<path fill="none" stroke="midnightblue" d="M50.59,-164.55C89.56,-151.07 201.32,-130.68 283.62,-124.7"/>
<polygon fill="midnightblue" stroke="midnightblue" points="49.23,-161.33 41.28,-168.32 51.86,-167.82 49.23,-161.33"/>
</g>
<!-- Node4&#45;&gt;Node3 -->
<g id="edge8" class="edge">
<title>Node4&#45;&gt;Node3</title>
<path fill="none" stroke="midnightblue" d="M60.72,-165.01C101.63,-151.85 208.82,-131.69 283.58,-125.14"/>
<polygon fill="midnightblue" stroke="midnightblue" points="59.44,-161.76 51.22,-168.44 61.81,-168.34 59.44,-161.76"/>
</g>
<!-- Node4&#45;&gt;Node3 -->
<g id="edge9" class="edge">
<title>Node4&#45;&gt;Node3</title>
<path fill="none" stroke="midnightblue" d="M71.02,-165.35C114.08,-152.56 215.97,-132.88 283.58,-125.72"/>
<polygon fill="midnightblue" stroke="midnightblue" points="69.85,-162.05 61.4,-168.44 71.99,-168.72 69.85,-162.05"/>
</g>
<!-- Node4&#45;&gt;Node3 -->
<g id="edge10" class="edge">
<title>Node4&#45;&gt;Node3</title>
<path fill="none" stroke="midnightblue" d="M81.38,-165.62C126.41,-153.29 222.07,-134.35 283.22,-126.55"/>
<polygon fill="midnightblue" stroke="midnightblue" points="80.21,-162.31 71.57,-168.44 82.15,-169.04 80.21,-162.31"/>
</g>
<!-- Node4&#45;&gt;Node3 -->
<g id="edge11" class="edge">
<title>Node4&#45;&gt;Node3</title>
<path fill="none" stroke="midnightblue" d="M91.61,-165.87C138.42,-154.05 228.1,-135.92 283.63,-127.54"/>
<polygon fill="midnightblue" stroke="midnightblue" points="90.55,-162.53 81.75,-168.44 92.31,-169.31 90.55,-162.53"/>
</g>
<!-- Node4&#45;&gt;Node3 -->
<g id="edge12" class="edge">
<title>Node4&#45;&gt;Node3</title>
<path fill="none" stroke="midnightblue" d="M101.91,-166.08C149.9,-154.87 232.66,-137.85 283.46,-128.93"/>
<polygon fill="midnightblue" stroke="midnightblue" points="100.85,-162.73 91.93,-168.44 102.47,-169.54 100.85,-162.73"/>
</g>
<!-- Node4&#45;&gt;Node3 -->
<g id="edge13" class="edge">
<title>Node4&#45;&gt;Node3</title>
<path fill="none" stroke="midnightblue" d="M110.1,-166.7C158.58,-156.2 235.83,-140.13 283.42,-130.68"/>
<polygon fill="midnightblue" stroke="midnightblue" points="109.24,-163.31 100.22,-168.86 110.73,-170.15 109.24,-163.31"/>
</g>
<!-- Node4&#45;&gt;Node3 -->
<g id="edge14" class="edge">
<title>Node4&#45;&gt;Node3</title>
<path fill="none" stroke="midnightblue" d="M110.36,-168.83C160.95,-158.76 242.64,-141.73 289.42,-131.51"/>
<polygon fill="midnightblue" stroke="midnightblue" points="109.49,-165.43 100.36,-170.81 110.85,-172.3 109.49,-165.43"/>
</g>
<!-- Node4&#45;&gt;Node3 -->
<g id="edge15" class="edge">
<title>Node4&#45;&gt;Node3</title>
<path fill="none" stroke="midnightblue" d="M110.33,-170.63C165.15,-160.92 254.55,-142.4 299.49,-131.53"/>
<polygon fill="midnightblue" stroke="midnightblue" points="109.43,-167.24 100.18,-172.4 110.63,-174.13 109.43,-167.24"/>
</g>
<!-- Node4&#45;&gt;Node3 -->
<g id="edge16" class="edge">
<title>Node4&#45;&gt;Node3</title>
<path fill="none" stroke="midnightblue" d="M110.41,-172.05C170.48,-162.83 267.6,-142.92 309.76,-131.5"/>
<polygon fill="midnightblue" stroke="midnightblue" points="109.75,-168.61 100.37,-173.54 110.77,-175.53 109.75,-168.61"/>
</g>
<!-- Node4&#45;&gt;Node3 -->
<g id="edge17" class="edge">
<title>Node4&#45;&gt;Node3</title>
<path fill="none" stroke="midnightblue" d="M110.69,-173.12C176.85,-164.47 280.83,-143.47 319.66,-131.58"/>
<polygon fill="midnightblue" stroke="midnightblue" points="109.91,-169.69 100.42,-174.4 110.77,-176.63 109.91,-169.69"/>
</g>
<!-- Node4&#45;&gt;Node3 -->
<g id="edge18" class="edge">
<title>Node4&#45;&gt;Node3</title>
<path fill="none" stroke="midnightblue" d="M110.55,-173.98C183.91,-165.95 295.07,-143.88 329.86,-131.58"/>
<polygon fill="midnightblue" stroke="midnightblue" points="110.05,-170.51 100.46,-175.01 110.76,-177.47 110.05,-170.51"/>
</g>
<!-- Node4&#45;&gt;Node3 -->
<g id="edge19" class="edge">
<title>Node4&#45;&gt;Node3</title>
<path fill="none" stroke="midnightblue" d="M110.6,-174.6C192,-167.18 309.59,-144.27 339.95,-131.62"/>
<polygon fill="midnightblue" stroke="midnightblue" points="110.03,-171.14 100.36,-175.47 110.62,-178.12 110.03,-171.14"/>
</g>
<!-- Node4&#45;&gt;Node3 -->
<g id="edge20" class="edge">
<title>Node4&#45;&gt;Node3</title>
<path fill="none" stroke="midnightblue" d="M110.37,-175.1C200.75,-168.25 324.83,-144.55 350.18,-131.6"/>
<polygon fill="midnightblue" stroke="midnightblue" points="110.08,-171.61 100.35,-175.8 110.57,-178.59 110.08,-171.61"/>
</g>
<!-- Node4&#45;&gt;Node3 -->
<g id="edge21" class="edge">
<title>Node4&#45;&gt;Node3</title>
<path fill="none" stroke="midnightblue" d="M110.47,-175.45C210.61,-169.09 340.68,-144.71 360.46,-131.55"/>
<polygon fill="midnightblue" stroke="midnightblue" points="110.05,-171.97 100.26,-176.04 110.45,-178.96 110.05,-171.97"/>
</g>
<!-- Node4&#45;&gt;Node3 -->
<g id="edge22" class="edge">
<title>Node4&#45;&gt;Node3</title>
<path fill="none" stroke="midnightblue" d="M110.31,-175.73C239.23,-168.86 402.72,-136 366.82,-125.94"/>
<polygon fill="midnightblue" stroke="midnightblue" points="110.13,-172.24 100.31,-176.22 110.46,-179.23 110.13,-172.24"/>
</g>
<!-- Node4&#45;&gt;Node3 -->
<g id="edge23" class="edge">
<title>Node4&#45;&gt;Node3</title>
<path fill="none" stroke="midnightblue" d="M110.24,-175.95C256.88,-169.33 432.75,-133.48 367.03,-124.86"/>
<polygon fill="midnightblue" stroke="midnightblue" points="110.03,-172.45 100.18,-176.36 110.31,-179.45 110.03,-172.45"/>
</g>
<!-- Node4&#45;&gt;Node3 -->
<g id="edge24" class="edge">
<title>Node4&#45;&gt;Node3</title>
<path fill="none" stroke="midnightblue" d="M110.5,-176.1C273.71,-169.77 457.85,-131.95 366.92,-124.33"/>
<polygon fill="midnightblue" stroke="midnightblue" points="110.15,-172.61 100.28,-176.46 110.4,-179.61 110.15,-172.61"/>
</g>
<!-- Node5 -->
<g id="node5" class="node">
<title>Node5</title>
<g id="a_node5"><a xlink:title=" ">
<polygon fill="none" stroke="#bfbfbf" points="385.16,-112.5 385.16,-131.5 447.16,-131.5 447.16,-112.5 385.16,-112.5"/>
<text text-anchor="middle" x="416.16" y="-119.5" font-family="Helvetica,sans-Serif" font-size="10.00">Runnable</text>
</a>
</g>
</g>
<!-- Node5&#45;&gt;Node2 -->
<g id="edge25" class="edge">
<title>Node5&#45;&gt;Node2</title>
<path fill="none" stroke="midnightblue" d="M374.91,-120.11C223.25,-113.48 157.44,-71.68 299.9,-67.36"/>
<polygon fill="midnightblue" stroke="midnightblue" points="374.89,-123.62 385.02,-120.5 375.16,-116.62 374.89,-123.62"/>
</g>
<!-- Node5&#45;&gt;Node2 -->
<g id="edge28" class="edge">
<title>Node5&#45;&gt;Node2</title>
<path fill="none" stroke="midnightblue" d="M374.82,-119.92C240,-112.74 176.13,-72.13 300.11,-67.44"/>
<polygon fill="midnightblue" stroke="midnightblue" points="374.93,-123.43 385.08,-120.39 375.25,-116.43 374.93,-123.43"/>
</g>
<!-- Node5&#45;&gt;Node2 -->
<g id="edge31" class="edge">
<title>Node5&#45;&gt;Node2</title>
<path fill="none" stroke="midnightblue" d="M374.78,-119.66C256.69,-111.88 195.12,-72.79 299.9,-67.58"/>
<polygon fill="midnightblue" stroke="midnightblue" points="374.68,-123.16 384.87,-120.24 375.08,-116.17 374.68,-123.16"/>
</g>
<!-- Node5&#45;&gt;Node2 -->
<g id="edge34" class="edge">
<title>Node5&#45;&gt;Node2</title>
<path fill="none" stroke="midnightblue" d="M375.04,-119.32C273.12,-110.9 214.15,-73.57 300.02,-67.76"/>
<polygon fill="midnightblue" stroke="midnightblue" points="374.81,-122.81 385.04,-120.04 375.32,-115.83 374.81,-122.81"/>
</g>
<!-- Node5&#45;&gt;Node2 -->
<g id="edge37" class="edge">
<title>Node5&#45;&gt;Node2</title>
<path fill="none" stroke="midnightblue" d="M375,-118.8C289.13,-109.64 233.68,-74.63 300.1,-68.07"/>
<polygon fill="midnightblue" stroke="midnightblue" points="374.78,-122.3 385.06,-119.74 375.43,-115.33 374.78,-122.3"/>
</g>
<!-- Node5&#45;&gt;Node2 -->
<g id="edge40" class="edge">
<title>Node5&#45;&gt;Node2</title>
<path fill="none" stroke="midnightblue" d="M375.02,-118.05C304.9,-108.14 253.99,-76.28 300.1,-68.65"/>
<polygon fill="midnightblue" stroke="midnightblue" points="374.68,-121.53 385.03,-119.29 375.54,-114.59 374.68,-121.53"/>
</g>
<!-- Node5&#45;&gt;Node2 -->
<g id="edge43" class="edge">
<title>Node5&#45;&gt;Node2</title>
<path fill="none" stroke="midnightblue" d="M374.55,-116.79C320.59,-106.32 276.5,-79.33 300.08,-70.13"/>
<polygon fill="midnightblue" stroke="midnightblue" points="374.27,-120.29 384.72,-118.54 375.46,-113.39 374.27,-120.29"/>
</g>
<!-- Node5&#45;&gt;Node2 -->
<g id="edge46" class="edge">
<title>Node5&#45;&gt;Node2</title>
<path fill="none" stroke="midnightblue" d="M374.75,-114.94C339.03,-105.4 306.16,-86.85 304,-75.83"/>
<polygon fill="midnightblue" stroke="midnightblue" points="374.33,-118.44 384.87,-117.37 375.97,-111.63 374.33,-118.44"/>
</g>
<!-- Node5&#45;&gt;Node2 -->
<g id="edge49" class="edge">
<title>Node5&#45;&gt;Node2</title>
<path fill="none" stroke="midnightblue" d="M375.19,-112.04C347.69,-101.99 320.44,-85.78 314.28,-75.8"/>
<polygon fill="midnightblue" stroke="midnightblue" points="374.3,-115.44 384.9,-115.32 376.54,-108.81 374.3,-115.44"/>
</g>
<!-- Node5&#45;&gt;Node2 -->
<g id="edge52" class="edge">
<title>Node5&#45;&gt;Node2</title>
<path fill="none" stroke="midnightblue" d="M377.13,-108.23C355.81,-98.13 333.27,-84.31 324.27,-75.52"/>
<polygon fill="midnightblue" stroke="midnightblue" points="375.92,-111.52 386.47,-112.44 378.79,-105.14 375.92,-111.52"/>
</g>
<!-- Node5&#45;&gt;Node2 -->
<g id="edge55" class="edge">
<title>Node5&#45;&gt;Node2</title>
<path fill="none" stroke="midnightblue" d="M387.38,-107.45C369.28,-97.48 347.22,-84.23 334.63,-75.65"/>
<polygon fill="midnightblue" stroke="midnightblue" points="385.96,-110.66 396.42,-112.32 389.28,-104.5 385.96,-110.66"/>
</g>
<!-- Node5&#45;&gt;Node2 -->
<g id="edge58" class="edge">
<title>Node5&#45;&gt;Node2</title>
<path fill="none" stroke="midnightblue" d="M397.97,-106.62C382.54,-96.76 360.71,-83.99 344.85,-75.65"/>
<polygon fill="midnightblue" stroke="midnightblue" points="396.37,-109.76 406.65,-112.32 400.22,-103.91 396.37,-109.76"/>
</g>
<!-- Node5&#45;&gt;Node2 -->
<g id="edge61" class="edge">
<title>Node5&#45;&gt;Node2</title>
<path fill="none" stroke="midnightblue" d="M409.13,-105.92C394.88,-95.37 370.52,-81.79 350.54,-73.77"/>
<polygon fill="midnightblue" stroke="midnightblue" points="406.94,-108.65 416.88,-112.32 411.4,-103.26 406.94,-108.65"/>
</g>
<!-- Node5&#45;&gt;Node2 -->
<g id="edge64" class="edge">
<title>Node5&#45;&gt;Node2</title>
<path fill="none" stroke="midnightblue" d="M419.84,-104.6C405.69,-92.85 376.3,-77.92 350.41,-70.94"/>
<polygon fill="midnightblue" stroke="midnightblue" points="417.53,-107.25 426.96,-112.08 422.6,-102.43 417.53,-107.25"/>
</g>
<!-- Node5&#45;&gt;Node2 -->
<g id="edge67" class="edge">
<title>Node5&#45;&gt;Node2</title>
<path fill="none" stroke="midnightblue" d="M431.43,-103.7C417.88,-91.14 383.48,-75.36 350.26,-69.41"/>
<polygon fill="midnightblue" stroke="midnightblue" points="428.69,-105.89 437.29,-112.08 434.43,-101.88 428.69,-105.89"/>
</g>
<!-- Node5&#45;&gt;Node2 -->
<g id="edge70" class="edge">
<title>Node5&#45;&gt;Node2</title>
<path fill="none" stroke="midnightblue" d="M443.96,-103.52C431.84,-90.38 392.33,-73.8 350.45,-68.62"/>
<polygon fill="midnightblue" stroke="midnightblue" points="440.69,-104.77 447.33,-113.03 447.29,-102.44 440.69,-104.77"/>
</g>
<!-- Node5&#45;&gt;Node2 -->
<g id="edge73" class="edge">
<title>Node5&#45;&gt;Node2</title>
<path fill="none" stroke="midnightblue" d="M456.72,-113.57C470.57,-100.41 415.87,-73.86 350.23,-68.11"/>
<polygon fill="midnightblue" stroke="midnightblue" points="454.94,-110.54 447.44,-118.02 457.97,-116.85 454.94,-110.54"/>
</g>
<!-- Node5&#45;&gt;Node2 -->
<g id="edge76" class="edge">
<title>Node5&#45;&gt;Node2</title>
<path fill="none" stroke="midnightblue" d="M457.17,-117.27C499.27,-106.12 436.33,-73.43 350.31,-67.82"/>
<polygon fill="midnightblue" stroke="midnightblue" points="456.46,-113.85 447.32,-119.2 457.81,-120.72 456.46,-113.85"/>
</g>
<!-- Node5&#45;&gt;Node2 -->
<g id="edge79" class="edge">
<title>Node5&#45;&gt;Node2</title>
<path fill="none" stroke="midnightblue" d="M457.24,-118.58C522.04,-108.85 454.43,-72.86 350.49,-67.64"/>
<polygon fill="midnightblue" stroke="midnightblue" points="456.72,-115.11 447.2,-119.77 457.55,-122.07 456.72,-115.11"/>
</g>
<!-- Node5&#45;&gt;Node2 -->
<g id="edge82" class="edge">
<title>Node5&#45;&gt;Node2</title>
<path fill="none" stroke="midnightblue" d="M457.31,-119.26C543.12,-110.58 471.9,-72.25 350.19,-67.49"/>
<polygon fill="midnightblue" stroke="midnightblue" points="456.97,-115.77 447.29,-120.09 457.55,-122.75 456.97,-115.77"/>
</g>
<!-- Node5&#45;&gt;Node2 -->
<g id="edge85" class="edge">
<title>Node5&#45;&gt;Node2</title>
<path fill="none" stroke="midnightblue" d="M457.3,-119.68C563.29,-111.86 489.46,-71.8 350.23,-67.39"/>
<polygon fill="midnightblue" stroke="midnightblue" points="456.98,-116.19 447.21,-120.3 457.41,-123.18 456.98,-116.19"/>
</g>
<!-- Node5&#45;&gt;Node2 -->
<g id="edge88" class="edge">
<title>Node5&#45;&gt;Node2</title>
<path fill="none" stroke="midnightblue" d="M457.64,-119.94C582.74,-112.76 506.97,-71.45 350.53,-67.33"/>
<polygon fill="midnightblue" stroke="midnightblue" points="457.27,-116.45 447.45,-120.43 457.6,-123.45 457.27,-116.45"/>
</g>
</g>
</svg>
