<?xml version="1.0" encoding="UTF-8" standalone="no"?>
<!DOCTYPE svg PUBLIC "-//W3C//DTD SVG 1.1//EN"
 "http://www.w3.org/Graphics/SVG/1.1/DTD/svg11.dtd">
<!-- Generated by graphviz version 2.50.0 (0)
 -->
<!-- Title: GlgGaugeGui.InputListener Pages: 1 -->
<svg width="156pt" height="84pt"
 viewBox="0.00 0.00 156.00 84.00" xmlns="http://www.w3.org/2000/svg" xmlns:xlink="http://www.w3.org/1999/xlink">
<g id="graph0" class="graph" transform="scale(1 1) rotate(0) translate(4 80)">
<title>GlgGaugeGui.InputListener</title>
<!-- Node1 -->
<g id="node1" class="node">
<title>Node1</title>
<g id="a_node1"><a xlink:title=" ">
<polygon fill="#bfbfbf" stroke="black" points="0,-0.5 0,-19.5 148,-19.5 148,-0.5 0,-0.5"/>
<text text-anchor="middle" x="74" y="-7.5" font-family="Helvetica,sans-Serif" font-size="10.00">GlgGaugeGui.InputListener</text>
</a>
</g>
</g>
<!-- Node2 -->
<g id="node2" class="node">
<title>Node2</title>
<g id="a_node2"><a xlink:title=" ">
<polygon fill="none" stroke="#bfbfbf" points="25.5,-56.5 25.5,-75.5 122.5,-75.5 122.5,-56.5 25.5,-56.5"/>
<text text-anchor="middle" x="74" y="-63.5" font-family="Helvetica,sans-Serif" font-size="10.00">GlgInputListener</text>
</a>
</g>
</g>
<!-- Node2&#45;&gt;Node1 -->
<g id="edge1" class="edge">
<title>Node2&#45;&gt;Node1</title>
<path fill="none" stroke="midnightblue" d="M16.04,-52.51C1.34,-42.44 3.63,-28.53 22.9,-19.65"/>
<polygon fill="midnightblue" stroke="midnightblue" points="14.79,-55.81 25.27,-57.38 18.06,-49.62 14.79,-55.81"/>
</g>
<!-- Node2&#45;&gt;Node1 -->
<g id="edge2" class="edge">
<title>Node2&#45;&gt;Node1</title>
<path fill="none" stroke="midnightblue" d="M25.11,-50.06C16.25,-40.28 18.92,-27.83 33.12,-19.65"/>
<polygon fill="midnightblue" stroke="midnightblue" points="23.05,-52.9 33.08,-56.32 27.38,-47.4 23.05,-52.9"/>
</g>
<!-- Node2&#45;&gt;Node1 -->
<g id="edge3" class="edge">
<title>Node2&#45;&gt;Node1</title>
<path fill="none" stroke="midnightblue" d="M36.46,-48.68C30.93,-39.2 33.15,-27.63 43.11,-19.83"/>
<polygon fill="midnightblue" stroke="midnightblue" points="34.03,-51.21 43.31,-56.32 39.24,-46.54 34.03,-51.21"/>
</g>
<!-- Node2&#45;&gt;Node1 -->
<g id="edge4" class="edge">
<title>Node2&#45;&gt;Node1</title>
<path fill="none" stroke="midnightblue" d="M48.47,-47.27C45.43,-38.05 47.1,-27.17 53.48,-19.75"/>
<polygon fill="midnightblue" stroke="midnightblue" points="45.44,-49.02 53.33,-56.08 51.56,-45.64 45.44,-49.02"/>
</g>
<!-- Node2&#45;&gt;Node1 -->
<g id="edge5" class="edge">
<title>Node2&#45;&gt;Node1</title>
<path fill="none" stroke="midnightblue" d="M61.1,-46.4C59.77,-37.36 60.65,-26.94 63.74,-19.75"/>
<polygon fill="midnightblue" stroke="midnightblue" points="57.72,-47.31 63.67,-56.08 64.49,-45.52 57.72,-47.31"/>
</g>
<!-- Node2&#45;&gt;Node1 -->
<g id="edge6" class="edge">
<title>Node2&#45;&gt;Node1</title>
<path fill="none" stroke="midnightblue" d="M74,-45.8C74,-36.91 74,-26.78 74,-19.75"/>
<polygon fill="midnightblue" stroke="midnightblue" points="70.5,-46.08 74,-56.08 77.5,-46.08 70.5,-46.08"/>
</g>
<!-- Node2&#45;&gt;Node1 -->
<g id="edge7" class="edge">
<title>Node2&#45;&gt;Node1</title>
<path fill="none" stroke="midnightblue" d="M86.9,-46.4C88.23,-37.36 87.35,-26.94 84.26,-19.75"/>
<polygon fill="midnightblue" stroke="midnightblue" points="83.51,-45.52 84.33,-56.08 90.28,-47.31 83.51,-45.52"/>
</g>
<!-- Node2&#45;&gt;Node1 -->
<g id="edge8" class="edge">
<title>Node2&#45;&gt;Node1</title>
<path fill="none" stroke="midnightblue" d="M99.53,-47.27C102.57,-38.05 100.9,-27.17 94.52,-19.75"/>
<polygon fill="midnightblue" stroke="midnightblue" points="96.44,-45.64 94.67,-56.08 102.56,-49.02 96.44,-45.64"/>
</g>
<!-- Node2&#45;&gt;Node1 -->
<g id="edge9" class="edge">
<title>Node2&#45;&gt;Node1</title>
<path fill="none" stroke="midnightblue" d="M111.54,-48.68C117.07,-39.2 114.85,-27.63 104.89,-19.83"/>
<polygon fill="midnightblue" stroke="midnightblue" points="108.76,-46.54 104.69,-56.32 113.97,-51.21 108.76,-46.54"/>
</g>
<!-- Node2&#45;&gt;Node1 -->
<g id="edge10" class="edge">
<title>Node2&#45;&gt;Node1</title>
<path fill="none" stroke="midnightblue" d="M122.89,-50.06C131.75,-40.28 129.08,-27.83 114.88,-19.65"/>
<polygon fill="midnightblue" stroke="midnightblue" points="120.62,-47.4 114.92,-56.32 124.95,-52.9 120.62,-47.4"/>
</g>
<!-- Node2&#45;&gt;Node1 -->
<g id="edge11" class="edge">
<title>Node2&#45;&gt;Node1</title>
<path fill="none" stroke="midnightblue" d="M131.96,-52.51C146.66,-42.44 144.37,-28.53 125.1,-19.65"/>
<polygon fill="midnightblue" stroke="midnightblue" points="129.94,-49.62 122.73,-57.38 133.21,-55.81 129.94,-49.62"/>
</g>
</g>
</svg>
