<?xml version="1.0" encoding="UTF-8" standalone="no"?>
<!DOCTYPE svg PUBLIC "-//W3C//DTD SVG 1.1//EN"
 "http://www.w3.org/Graphics/SVG/1.1/DTD/svg11.dtd">
<!-- Generated by graphviz version 2.50.0 (0)
 -->
<!-- Title: GlgXGSGaugeGui.InputListener Pages: 1 -->
<svg width="176pt" height="84pt"
 viewBox="0.00 0.00 176.00 84.00" xmlns="http://www.w3.org/2000/svg" xmlns:xlink="http://www.w3.org/1999/xlink">
<g id="graph0" class="graph" transform="scale(1 1) rotate(0) translate(4 80)">
<title>GlgXGSGaugeGui.InputListener</title>
<!-- Node1 -->
<g id="node1" class="node">
<title>Node1</title>
<g id="a_node1"><a xlink:title=" ">
<polygon fill="#bfbfbf" stroke="black" points="0,-0.5 0,-19.5 168,-19.5 168,-0.5 0,-0.5"/>
<text text-anchor="middle" x="84" y="-7.5" font-family="Helvetica,sans-Serif" font-size="10.00">GlgXGSGaugeGui.InputListener</text>
</a>
</g>
</g>
<!-- Node2 -->
<g id="node2" class="node">
<title>Node2</title>
<g id="a_node2"><a xlink:title=" ">
<polygon fill="none" stroke="#bfbfbf" points="35.5,-56.5 35.5,-75.5 132.5,-75.5 132.5,-56.5 35.5,-56.5"/>
<text text-anchor="middle" x="84" y="-63.5" font-family="Helvetica,sans-Serif" font-size="10.00">GlgInputListener</text>
</a>
</g>
</g>
<!-- Node2&#45;&gt;Node1 -->
<g id="edge1" class="edge">
<title>Node2&#45;&gt;Node1</title>
<path fill="none" stroke="midnightblue" d="M29.58,-50.62C18.92,-40.76 21.72,-27.99 38.01,-19.65"/>
<polygon fill="midnightblue" stroke="midnightblue" points="27.73,-53.59 37.97,-56.32 31.67,-47.81 27.73,-53.59"/>
</g>
<!-- Node2&#45;&gt;Node1 -->
<g id="edge2" class="edge">
<title>Node2&#45;&gt;Node1</title>
<path fill="none" stroke="midnightblue" d="M40.78,-49.49C33.56,-39.8 36.04,-27.68 48.23,-19.65"/>
<polygon fill="midnightblue" stroke="midnightblue" points="38.47,-52.12 48.2,-56.32 43.21,-46.97 38.47,-52.12"/>
</g>
<!-- Node2&#45;&gt;Node1 -->
<g id="edge3" class="edge">
<title>Node2&#45;&gt;Node1</title>
<path fill="none" stroke="midnightblue" d="M52.45,-48.1C48.19,-38.74 50.12,-27.48 58.26,-19.83"/>
<polygon fill="midnightblue" stroke="midnightblue" points="49.71,-50.3 58.43,-56.32 55.37,-46.18 49.71,-50.3"/>
</g>
<!-- Node2&#45;&gt;Node1 -->
<g id="edge4" class="edge">
<title>Node2&#45;&gt;Node1</title>
<path fill="none" stroke="midnightblue" d="M64.71,-46.69C62.63,-37.59 63.93,-27.01 68.61,-19.75"/>
<polygon fill="midnightblue" stroke="midnightblue" points="61.51,-48.12 68.5,-56.08 68.01,-45.5 61.51,-48.12"/>
</g>
<!-- Node2&#45;&gt;Node1 -->
<g id="edge5" class="edge">
<title>Node2&#45;&gt;Node1</title>
<path fill="none" stroke="midnightblue" d="M77.53,-46.1C76.9,-37.14 77.34,-26.86 78.87,-19.75"/>
<polygon fill="midnightblue" stroke="midnightblue" points="74.07,-46.62 78.83,-56.08 81.01,-45.71 74.07,-46.62"/>
</g>
<!-- Node2&#45;&gt;Node1 -->
<g id="edge6" class="edge">
<title>Node2&#45;&gt;Node1</title>
<path fill="none" stroke="midnightblue" d="M90.47,-46.1C91.1,-37.14 90.66,-26.86 89.13,-19.75"/>
<polygon fill="midnightblue" stroke="midnightblue" points="86.99,-45.71 89.17,-56.08 93.93,-46.62 86.99,-45.71"/>
</g>
<!-- Node2&#45;&gt;Node1 -->
<g id="edge7" class="edge">
<title>Node2&#45;&gt;Node1</title>
<path fill="none" stroke="midnightblue" d="M103.29,-46.69C105.37,-37.59 104.07,-27.01 99.39,-19.75"/>
<polygon fill="midnightblue" stroke="midnightblue" points="99.99,-45.5 99.5,-56.08 106.49,-48.12 99.99,-45.5"/>
</g>
<!-- Node2&#45;&gt;Node1 -->
<g id="edge8" class="edge">
<title>Node2&#45;&gt;Node1</title>
<path fill="none" stroke="midnightblue" d="M115.55,-48.1C119.81,-38.74 117.88,-27.48 109.74,-19.83"/>
<polygon fill="midnightblue" stroke="midnightblue" points="112.63,-46.18 109.57,-56.32 118.29,-50.3 112.63,-46.18"/>
</g>
<!-- Node2&#45;&gt;Node1 -->
<g id="edge9" class="edge">
<title>Node2&#45;&gt;Node1</title>
<path fill="none" stroke="midnightblue" d="M127.22,-49.49C134.44,-39.8 131.96,-27.68 119.77,-19.65"/>
<polygon fill="midnightblue" stroke="midnightblue" points="124.79,-46.97 119.8,-56.32 129.53,-52.12 124.79,-46.97"/>
</g>
<!-- Node2&#45;&gt;Node1 -->
<g id="edge10" class="edge">
<title>Node2&#45;&gt;Node1</title>
<path fill="none" stroke="midnightblue" d="M138.42,-50.62C149.08,-40.76 146.28,-27.99 129.99,-19.65"/>
<polygon fill="midnightblue" stroke="midnightblue" points="136.33,-47.81 130.03,-56.32 140.27,-53.59 136.33,-47.81"/>
</g>
</g>
</svg>
