<?xml version="1.0" encoding="UTF-8" standalone="no"?>
<!DOCTYPE svg PUBLIC "-//W3C//DTD SVG 1.1//EN"
 "http://www.w3.org/Graphics/SVG/1.1/DTD/svg11.dtd">
<!-- Generated by graphviz version 2.50.0 (0)
 -->
<!-- Title: GlgSqzStatusDetailsGui.InputListener Pages: 1 -->
<svg width="168pt" height="95pt"
 viewBox="0.00 0.00 168.00 95.00" xmlns="http://www.w3.org/2000/svg" xmlns:xlink="http://www.w3.org/1999/xlink">
<g id="graph0" class="graph" transform="scale(1 1) rotate(0) translate(4 91)">
<title>GlgSqzStatusDetailsGui.InputListener</title>
<!-- Node1 -->
<g id="node1" class="node">
<title>Node1</title>
<g id="a_node1"><a xlink:title=" ">
<polygon fill="#bfbfbf" stroke="black" points="0,-0.5 0,-30.5 160,-30.5 160,-0.5 0,-0.5"/>
<text text-anchor="start" x="8" y="-18.5" font-family="Helvetica,sans-Serif" font-size="10.00">GlgSqzStatusDetailsGui.Input</text>
<text text-anchor="middle" x="80" y="-7.5" font-family="Helvetica,sans-Serif" font-size="10.00">Listener</text>
</a>
</g>
</g>
<!-- Node2 -->
<g id="node2" class="node">
<title>Node2</title>
<g id="a_node2"><a xlink:title=" ">
<polygon fill="none" stroke="#bfbfbf" points="31.5,-67.5 31.5,-86.5 128.5,-86.5 128.5,-67.5 31.5,-67.5"/>
<text text-anchor="middle" x="80" y="-74.5" font-family="Helvetica,sans-Serif" font-size="10.00">GlgInputListener</text>
</a>
</g>
</g>
<!-- Node2&#45;&gt;Node1 -->
<g id="edge1" class="edge">
<title>Node2&#45;&gt;Node1</title>
<path fill="none" stroke="midnightblue" d="M61.25,-58.1C58.89,-49.27 59.31,-38.77 62.51,-30.52"/>
<polygon fill="midnightblue" stroke="midnightblue" points="58.12,-59.68 65.3,-67.48 64.55,-56.91 58.12,-59.68"/>
</g>
<!-- Node2&#45;&gt;Node1 -->
<g id="edge2" class="edge">
<title>Node2&#45;&gt;Node1</title>
<path fill="none" stroke="midnightblue" d="M73.7,-57.53C72.97,-48.81 73.13,-38.59 74.17,-30.52"/>
<polygon fill="midnightblue" stroke="midnightblue" points="70.24,-58.06 75.1,-67.48 77.17,-57.09 70.24,-58.06"/>
</g>
<!-- Node2&#45;&gt;Node1 -->
<g id="edge3" class="edge">
<title>Node2&#45;&gt;Node1</title>
<path fill="none" stroke="midnightblue" d="M86.3,-57.53C87.03,-48.81 86.87,-38.59 85.83,-30.52"/>
<polygon fill="midnightblue" stroke="midnightblue" points="82.83,-57.09 84.9,-67.48 89.76,-58.06 82.83,-57.09"/>
</g>
<!-- Node2&#45;&gt;Node1 -->
<g id="edge4" class="edge">
<title>Node2&#45;&gt;Node1</title>
<path fill="none" stroke="midnightblue" d="M98.75,-58.1C101.11,-49.27 100.69,-38.77 97.49,-30.52"/>
<polygon fill="midnightblue" stroke="midnightblue" points="95.45,-56.91 94.7,-67.48 101.88,-59.68 95.45,-56.91"/>
</g>
</g>
</svg>
