<?xml version="1.0" encoding="UTF-8" standalone="no"?>
<!DOCTYPE svg PUBLIC "-//W3C//DTD SVG 1.1//EN"
 "http://www.w3.org/Graphics/SVG/1.1/DTD/svg11.dtd">
<!-- Generated by graphviz version 2.50.0 (0)
 -->
<!-- Title: RoundedBorder Pages: 1 -->
<svg width="184pt" height="84pt"
 viewBox="0.00 0.00 184.10 84.00" xmlns="http://www.w3.org/2000/svg" xmlns:xlink="http://www.w3.org/1999/xlink">
<g id="graph0" class="graph" transform="scale(1 1) rotate(0) translate(4 80)">
<title>RoundedBorder</title>
<!-- Node1 -->
<g id="node1" class="node">
<title>Node1</title>
<g id="a_node1"><a xlink:title=" ">
<polygon fill="#bfbfbf" stroke="black" points="42.05,-0.5 42.05,-19.5 134.05,-19.5 134.05,-0.5 42.05,-0.5"/>
<text text-anchor="middle" x="88.05" y="-7.5" font-family="Helvetica,sans-Serif" font-size="10.00">RoundedBorder</text>
</a>
</g>
</g>
<!-- Node2 -->
<g id="node2" class="node">
<title>Node2</title>
<g id="a_node2"><a xlink:title=" ">
<polygon fill="none" stroke="#bfbfbf" points="63.55,-56.5 63.55,-75.5 112.55,-75.5 112.55,-56.5 63.55,-56.5"/>
<text text-anchor="middle" x="88.05" y="-63.5" font-family="Helvetica,sans-Serif" font-size="10.00">Border</text>
</a>
</g>
</g>
<!-- Node2&#45;&gt;Node1 -->
<g id="edge1" class="edge">
<title>Node2&#45;&gt;Node1</title>
<path fill="none" stroke="midnightblue" d="M53.08,-63.11C-13.4,-55.23 -17.08,-24.87 42.03,-14.5"/>
<polygon fill="midnightblue" stroke="midnightblue" points="53.06,-66.63 63.35,-64.11 53.73,-59.66 53.06,-66.63"/>
</g>
<!-- Node2&#45;&gt;Node1 -->
<g id="edge2" class="edge">
<title>Node2&#45;&gt;Node1</title>
<path fill="none" stroke="midnightblue" d="M53.35,-62.31C4.83,-53.84 0.95,-27.59 41.73,-16.28"/>
<polygon fill="midnightblue" stroke="midnightblue" points="52.9,-65.78 63.29,-63.72 53.88,-58.85 52.9,-65.78"/>
</g>
<!-- Node2&#45;&gt;Node1 -->
<g id="edge3" class="edge">
<title>Node2&#45;&gt;Node1</title>
<path fill="none" stroke="midnightblue" d="M53.43,-60.75C22.85,-51.9 19.11,-31.31 42.21,-19.58"/>
<polygon fill="midnightblue" stroke="midnightblue" points="52.74,-64.19 63.27,-63.01 54.31,-57.36 52.74,-64.19"/>
</g>
<!-- Node2&#45;&gt;Node1 -->
<g id="edge4" class="edge">
<title>Node2&#45;&gt;Node1</title>
<path fill="none" stroke="midnightblue" d="M53.78,-57.28C36.91,-47.28 36.48,-29.88 52.51,-19.5"/>
<polygon fill="midnightblue" stroke="midnightblue" points="52.83,-60.69 63.39,-61.54 55.66,-54.29 52.83,-60.69"/>
</g>
<!-- Node2&#45;&gt;Node1 -->
<g id="edge5" class="edge">
<title>Node2&#45;&gt;Node1</title>
<path fill="none" stroke="midnightblue" d="M57.07,-49.28C52.08,-39.68 53.83,-27.76 62.34,-19.8"/>
<polygon fill="midnightblue" stroke="midnightblue" points="54.53,-51.7 63.55,-57.26 59.96,-47.29 54.53,-51.7"/>
</g>
<!-- Node2&#45;&gt;Node1 -->
<g id="edge6" class="edge">
<title>Node2&#45;&gt;Node1</title>
<path fill="none" stroke="midnightblue" d="M68.76,-46.69C66.68,-37.59 67.98,-27.01 72.66,-19.75"/>
<polygon fill="midnightblue" stroke="midnightblue" points="65.56,-48.12 72.55,-56.08 72.05,-45.5 65.56,-48.12"/>
</g>
<!-- Node2&#45;&gt;Node1 -->
<g id="edge7" class="edge">
<title>Node2&#45;&gt;Node1</title>
<path fill="none" stroke="midnightblue" d="M81.58,-46.1C80.94,-37.14 81.39,-26.86 82.92,-19.75"/>
<polygon fill="midnightblue" stroke="midnightblue" points="78.11,-46.62 82.88,-56.08 85.06,-45.71 78.11,-46.62"/>
</g>
<!-- Node2&#45;&gt;Node1 -->
<g id="edge8" class="edge">
<title>Node2&#45;&gt;Node1</title>
<path fill="none" stroke="midnightblue" d="M94.52,-46.1C95.15,-37.14 94.71,-26.86 93.18,-19.75"/>
<polygon fill="midnightblue" stroke="midnightblue" points="91.04,-45.71 93.21,-56.08 97.98,-46.62 91.04,-45.71"/>
</g>
<!-- Node2&#45;&gt;Node1 -->
<g id="edge9" class="edge">
<title>Node2&#45;&gt;Node1</title>
<path fill="none" stroke="midnightblue" d="M107.34,-46.69C109.42,-37.59 108.12,-27.01 103.44,-19.75"/>
<polygon fill="midnightblue" stroke="midnightblue" points="104.04,-45.5 103.55,-56.08 110.53,-48.12 104.04,-45.5"/>
</g>
<!-- Node2&#45;&gt;Node1 -->
<g id="edge10" class="edge">
<title>Node2&#45;&gt;Node1</title>
<path fill="none" stroke="midnightblue" d="M119.03,-49.28C124.02,-39.68 122.26,-27.76 113.75,-19.8"/>
<polygon fill="midnightblue" stroke="midnightblue" points="116.14,-47.29 112.55,-57.26 121.57,-51.7 116.14,-47.29"/>
</g>
<!-- Node2&#45;&gt;Node1 -->
<g id="edge11" class="edge">
<title>Node2&#45;&gt;Node1</title>
<path fill="none" stroke="midnightblue" d="M122.32,-57.28C139.19,-47.28 139.61,-29.88 123.59,-19.5"/>
<polygon fill="midnightblue" stroke="midnightblue" points="120.44,-54.29 112.71,-61.54 123.27,-60.69 120.44,-54.29"/>
</g>
<!-- Node2&#45;&gt;Node1 -->
<g id="edge12" class="edge">
<title>Node2&#45;&gt;Node1</title>
<path fill="none" stroke="midnightblue" d="M122.66,-60.75C153.25,-51.9 156.99,-31.31 133.89,-19.58"/>
<polygon fill="midnightblue" stroke="midnightblue" points="121.79,-57.36 112.82,-63.01 123.35,-64.19 121.79,-57.36"/>
</g>
<!-- Node2&#45;&gt;Node1 -->
<g id="edge13" class="edge">
<title>Node2&#45;&gt;Node1</title>
<path fill="none" stroke="midnightblue" d="M122.75,-62.31C171.27,-53.84 175.15,-27.59 134.37,-16.28"/>
<polygon fill="midnightblue" stroke="midnightblue" points="122.22,-58.85 112.81,-63.72 123.2,-65.78 122.22,-58.85"/>
</g>
<!-- Node2&#45;&gt;Node1 -->
<g id="edge14" class="edge">
<title>Node2&#45;&gt;Node1</title>
<path fill="none" stroke="midnightblue" d="M123.01,-63.11C189.49,-55.23 193.18,-24.87 134.06,-14.5"/>
<polygon fill="midnightblue" stroke="midnightblue" points="122.36,-59.66 112.75,-64.11 123.04,-66.63 122.36,-59.66"/>
</g>
</g>
</svg>
