<?xml version="1.0" encoding="UTF-8" standalone="no"?>
<!DOCTYPE svg PUBLIC "-//W3C//DTD SVG 1.1//EN"
 "http://www.w3.org/Graphics/SVG/1.1/DTD/svg11.dtd">
<!-- Generated by graphviz version 2.50.0 (0)
 -->
<!-- Title: DialogSetPoint.Keypad Pages: 1 -->
<svg width="231pt" height="84pt"
 viewBox="0.00 0.00 231.46 84.00" xmlns="http://www.w3.org/2000/svg" xmlns:xlink="http://www.w3.org/1999/xlink">
<g id="graph0" class="graph" transform="scale(1 1) rotate(0) translate(4 80)">
<title>DialogSetPoint.Keypad</title>
<!-- Node1 -->
<g id="node1" class="node">
<title>Node1</title>
<g id="a_node1"><a xlink:title=" ">
<polygon fill="#bfbfbf" stroke="black" points="47.79,-0.5 47.79,-19.5 175.79,-19.5 175.79,-0.5 47.79,-0.5"/>
<text text-anchor="middle" x="111.79" y="-7.5" font-family="Helvetica,sans-Serif" font-size="10.00">DialogSetPoint.Keypad</text>
</a>
</g>
</g>
<!-- Node2 -->
<g id="node2" class="node">
<title>Node2</title>
<g id="a_node2"><a xlink:title=" ">
<polygon fill="none" stroke="#bfbfbf" points="46.79,-56.5 46.79,-75.5 92.79,-75.5 92.79,-56.5 46.79,-56.5"/>
<text text-anchor="middle" x="69.79" y="-63.5" font-family="Helvetica,sans-Serif" font-size="10.00">JPanel</text>
</a>
</g>
</g>
<!-- Node2&#45;&gt;Node1 -->
<g id="edge1" class="edge">
<title>Node2&#45;&gt;Node1</title>
<path fill="none" stroke="midnightblue" d="M36.65,-63.16C-19.15,-55.99 -6.98,-29.74 47.47,-17.44"/>
<polygon fill="midnightblue" stroke="midnightblue" points="36.31,-66.64 46.61,-64.17 37.02,-59.68 36.31,-66.64"/>
</g>
<!-- Node2&#45;&gt;Node1 -->
<g id="edge3" class="edge">
<title>Node2&#45;&gt;Node1</title>
<path fill="none" stroke="midnightblue" d="M36.52,-62.17C-0.94,-54.32 9.57,-32 49.07,-19.59"/>
<polygon fill="midnightblue" stroke="midnightblue" points="36.03,-65.64 46.46,-63.77 37.14,-58.73 36.03,-65.64"/>
</g>
<!-- Node2&#45;&gt;Node1 -->
<g id="edge5" class="edge">
<title>Node2&#45;&gt;Node1</title>
<path fill="none" stroke="midnightblue" d="M36.72,-60.05C15.43,-50.84 27.89,-31 59.28,-19.58"/>
<polygon fill="midnightblue" stroke="midnightblue" points="35.98,-63.48 46.56,-63.01 38,-56.78 35.98,-63.48"/>
</g>
<!-- Node2&#45;&gt;Node1 -->
<g id="edge7" class="edge">
<title>Node2&#45;&gt;Node1</title>
<path fill="none" stroke="midnightblue" d="M39.31,-53.71C35.49,-43.56 48.07,-28.89 69.3,-19.65"/>
<polygon fill="midnightblue" stroke="midnightblue" points="36.99,-56.34 46.53,-60.94 41.94,-51.39 36.99,-56.34"/>
</g>
<!-- Node2&#45;&gt;Node1 -->
<g id="edge9" class="edge">
<title>Node2&#45;&gt;Node1</title>
<path fill="none" stroke="midnightblue" d="M52.16,-46.04C56.02,-37.01 66.38,-26.67 79.66,-19.57"/>
<polygon fill="midnightblue" stroke="midnightblue" points="48.67,-45.72 50.9,-56.08 55.61,-46.6 48.67,-45.72"/>
</g>
<!-- Node2&#45;&gt;Node1 -->
<g id="edge11" class="edge">
<title>Node2&#45;&gt;Node1</title>
<path fill="none" stroke="midnightblue" d="M64.78,-46.63C69.82,-37.47 79.44,-26.82 89.85,-19.57"/>
<polygon fill="midnightblue" stroke="midnightblue" points="61.47,-45.49 61.23,-56.08 68.02,-47.95 61.47,-45.49"/>
</g>
<!-- Node2&#45;&gt;Node1 -->
<g id="edge13" class="edge">
<title>Node2&#45;&gt;Node1</title>
<path fill="none" stroke="midnightblue" d="M76.99,-47.57C83.43,-38.27 92.41,-27.25 99.85,-19.75"/>
<polygon fill="midnightblue" stroke="midnightblue" points="73.99,-45.77 71.56,-56.08 79.89,-49.53 73.99,-45.77"/>
</g>
<!-- Node2&#45;&gt;Node1 -->
<g id="edge15" class="edge">
<title>Node2&#45;&gt;Node1</title>
<path fill="none" stroke="midnightblue" d="M88.71,-48.72C97.04,-39.2 105.72,-27.56 110.12,-19.75"/>
<polygon fill="midnightblue" stroke="midnightblue" points="86.12,-46.37 81.89,-56.08 91.25,-51.12 86.12,-46.37"/>
</g>
<!-- Node2&#45;&gt;Node1 -->
<g id="edge17" class="edge">
<title>Node2&#45;&gt;Node1</title>
<path fill="none" stroke="midnightblue" d="M100.01,-49.82C110.74,-40.15 119.24,-27.95 120.37,-19.83"/>
<polygon fill="midnightblue" stroke="midnightblue" points="97.51,-47.34 91.88,-56.32 101.88,-52.81 97.51,-47.34"/>
</g>
<!-- Node2&#45;&gt;Node1 -->
<g id="edge19" class="edge">
<title>Node2&#45;&gt;Node1</title>
<path fill="none" stroke="midnightblue" d="M102.44,-56.15C120.9,-46.11 133.54,-29.85 130.66,-19.83"/>
<polygon fill="midnightblue" stroke="midnightblue" points="100.87,-53.02 93.27,-60.4 103.82,-59.37 100.87,-53.02"/>
</g>
<!-- Node2&#45;&gt;Node1 -->
<g id="edge21" class="edge">
<title>Node2&#45;&gt;Node1</title>
<path fill="none" stroke="midnightblue" d="M102.76,-59.92C131.83,-50.66 149.38,-30.92 140.75,-19.55"/>
<polygon fill="midnightblue" stroke="midnightblue" points="101.69,-56.58 92.93,-62.54 103.49,-63.35 101.69,-56.58"/>
</g>
<!-- Node2&#45;&gt;Node1 -->
<g id="edge23" class="edge">
<title>Node2&#45;&gt;Node1</title>
<path fill="none" stroke="midnightblue" d="M103.22,-61.74C143.55,-53.53 165.46,-31.79 150.99,-19.6"/>
<polygon fill="midnightblue" stroke="midnightblue" points="102.45,-58.32 93.18,-63.44 103.62,-65.22 102.45,-58.32"/>
</g>
<!-- Node2&#45;&gt;Node1 -->
<g id="edge25" class="edge">
<title>Node2&#45;&gt;Node1</title>
<path fill="none" stroke="midnightblue" d="M103.05,-62.82C155.5,-55.65 181.76,-32.52 161.37,-19.72"/>
<polygon fill="midnightblue" stroke="midnightblue" points="102.5,-59.36 92.96,-63.97 103.29,-66.32 102.5,-59.36"/>
</g>
<!-- Node2&#45;&gt;Node1 -->
<g id="edge27" class="edge">
<title>Node2&#45;&gt;Node1</title>
<path fill="none" stroke="midnightblue" d="M103.27,-63.42C168.08,-57.04 198.31,-32.89 171.61,-19.71"/>
<polygon fill="midnightblue" stroke="midnightblue" points="102.7,-59.95 93.02,-64.26 103.27,-66.93 102.7,-59.95"/>
</g>
<!-- Node3 -->
<g id="node3" class="node">
<title>Node3</title>
<g id="a_node3"><a xlink:title=" ">
<polygon fill="none" stroke="#bfbfbf" points="110.79,-56.5 110.79,-75.5 196.79,-75.5 196.79,-56.5 110.79,-56.5"/>
<text text-anchor="middle" x="153.79" y="-63.5" font-family="Helvetica,sans-Serif" font-size="10.00">ActionListener</text>
</a>
</g>
</g>
<!-- Node3&#45;&gt;Node1 -->
<g id="edge2" class="edge">
<title>Node3&#45;&gt;Node1</title>
<path fill="none" stroke="midnightblue" d="M100.87,-60.82C49.64,-52.02 28.03,-31.42 52.1,-19.65"/>
<polygon fill="midnightblue" stroke="midnightblue" points="100.37,-64.28 110.78,-62.32 101.42,-57.36 100.37,-64.28"/>
</g>
<!-- Node3&#45;&gt;Node1 -->
<g id="edge4" class="edge">
<title>Node3&#45;&gt;Node1</title>
<path fill="none" stroke="midnightblue" d="M100.69,-59.09C61.63,-49.52 44.42,-30.6 62.46,-19.56"/>
<polygon fill="midnightblue" stroke="midnightblue" points="99.98,-62.52 110.5,-61.2 101.46,-55.68 99.98,-62.52"/>
</g>
<!-- Node3&#45;&gt;Node1 -->
<g id="edge6" class="edge">
<title>Node3&#45;&gt;Node1</title>
<path fill="none" stroke="midnightblue" d="M100.91,-56.29C73.67,-46.27 60.87,-29.91 72.32,-19.84"/>
<polygon fill="midnightblue" stroke="midnightblue" points="100.1,-59.7 110.69,-59.42 102.24,-53.04 100.1,-59.7"/>
</g>
<!-- Node3&#45;&gt;Node1 -->
<g id="edge8" class="edge">
<title>Node3&#45;&gt;Node1</title>
<path fill="none" stroke="midnightblue" d="M102.29,-51.82C84.88,-41.76 76.23,-28.19 82.86,-19.52"/>
<polygon fill="midnightblue" stroke="midnightblue" points="101.01,-55.09 111.52,-56.44 104.14,-48.83 101.01,-55.09"/>
</g>
<!-- Node3&#45;&gt;Node1 -->
<g id="edge10" class="edge">
<title>Node3&#45;&gt;Node1</title>
<path fill="none" stroke="midnightblue" d="M112.81,-50.94C99.05,-41.1 90.5,-28.26 92.92,-19.83"/>
<polygon fill="midnightblue" stroke="midnightblue" points="111.13,-54.01 121.47,-56.32 114.83,-48.07 111.13,-54.01"/>
</g>
<!-- Node3&#45;&gt;Node1 -->
<g id="edge12" class="edge">
<title>Node3&#45;&gt;Node1</title>
<path fill="none" stroke="midnightblue" d="M123.57,-49.82C112.84,-40.15 104.35,-27.95 103.22,-19.83"/>
<polygon fill="midnightblue" stroke="midnightblue" points="121.7,-52.81 131.7,-56.32 126.08,-47.34 121.7,-52.81"/>
</g>
<!-- Node3&#45;&gt;Node1 -->
<g id="edge14" class="edge">
<title>Node3&#45;&gt;Node1</title>
<path fill="none" stroke="midnightblue" d="M134.87,-48.72C126.54,-39.2 117.86,-27.56 113.47,-19.75"/>
<polygon fill="midnightblue" stroke="midnightblue" points="132.33,-51.12 141.69,-56.08 137.47,-46.37 132.33,-51.12"/>
</g>
<!-- Node3&#45;&gt;Node1 -->
<g id="edge16" class="edge">
<title>Node3&#45;&gt;Node1</title>
<path fill="none" stroke="midnightblue" d="M146.59,-47.57C140.16,-38.27 131.17,-27.25 123.73,-19.75"/>
<polygon fill="midnightblue" stroke="midnightblue" points="143.69,-49.53 152.02,-56.08 149.6,-45.77 143.69,-49.53"/>
</g>
<!-- Node3&#45;&gt;Node1 -->
<g id="edge18" class="edge">
<title>Node3&#45;&gt;Node1</title>
<path fill="none" stroke="midnightblue" d="M158.8,-46.63C153.76,-37.47 144.14,-26.82 133.74,-19.57"/>
<polygon fill="midnightblue" stroke="midnightblue" points="155.56,-47.95 162.36,-56.08 162.12,-45.49 155.56,-47.95"/>
</g>
<!-- Node3&#45;&gt;Node1 -->
<g id="edge20" class="edge">
<title>Node3&#45;&gt;Node1</title>
<path fill="none" stroke="midnightblue" d="M171.43,-46.04C167.56,-37.01 157.21,-26.67 143.92,-19.57"/>
<polygon fill="midnightblue" stroke="midnightblue" points="167.97,-46.6 172.69,-56.08 174.91,-45.72 167.97,-46.6"/>
</g>
<!-- Node3&#45;&gt;Node1 -->
<g id="edge22" class="edge">
<title>Node3&#45;&gt;Node1</title>
<path fill="none" stroke="midnightblue" d="M184.38,-46.04C181.77,-37.01 170.5,-26.67 154.11,-19.57"/>
<polygon fill="midnightblue" stroke="midnightblue" points="180.89,-45.7 183.02,-56.08 187.83,-46.64 180.89,-45.7"/>
</g>
<!-- Node3&#45;&gt;Node1 -->
<g id="edge24" class="edge">
<title>Node3&#45;&gt;Node1</title>
<path fill="none" stroke="midnightblue" d="M197.45,-47.17C197.01,-37.92 184.71,-27.05 164.51,-19.65"/>
<polygon fill="midnightblue" stroke="midnightblue" points="194.23,-45.79 193.08,-56.32 200.54,-48.81 194.23,-45.79"/>
</g>
<!-- Node3&#45;&gt;Node1 -->
<g id="edge26" class="edge">
<title>Node3&#45;&gt;Node1</title>
<path fill="none" stroke="midnightblue" d="M205.69,-54.62C218.06,-44.43 204.77,-29.06 174.39,-19.55"/>
<polygon fill="midnightblue" stroke="midnightblue" points="203.96,-51.58 196.84,-59.42 207.29,-57.73 203.96,-51.58"/>
</g>
<!-- Node3&#45;&gt;Node1 -->
<g id="edge28" class="edge">
<title>Node3&#45;&gt;Node1</title>
<path fill="none" stroke="midnightblue" d="M206.6,-59.07C238.48,-48.83 222.82,-27.95 175.96,-17.4"/>
<polygon fill="midnightblue" stroke="midnightblue" points="205.73,-55.68 196.9,-61.54 207.46,-62.46 205.73,-55.68"/>
</g>
</g>
</svg>
