<?xml version="1.0" encoding="UTF-8" standalone="no"?>
<!DOCTYPE svg PUBLIC "-//W3C//DTD SVG 1.1//EN"
 "http://www.w3.org/Graphics/SVG/1.1/DTD/svg11.dtd">
<!-- Generated by graphviz version 2.50.0 (0)
 -->
<!-- Title: GlgIonicGui.InputListener Pages: 1 -->
<svg width="148pt" height="84pt"
 viewBox="0.00 0.00 148.00 84.00" xmlns="http://www.w3.org/2000/svg" xmlns:xlink="http://www.w3.org/1999/xlink">
<g id="graph0" class="graph" transform="scale(1 1) rotate(0) translate(4 80)">
<title>GlgIonicGui.InputListener</title>
<!-- Node1 -->
<g id="node1" class="node">
<title>Node1</title>
<g id="a_node1"><a xlink:title=" ">
<polygon fill="#bfbfbf" stroke="black" points="0,-0.5 0,-19.5 140,-19.5 140,-0.5 0,-0.5"/>
<text text-anchor="middle" x="70" y="-7.5" font-family="Helvetica,sans-Serif" font-size="10.00">GlgIonicGui.InputListener</text>
</a>
</g>
</g>
<!-- Node2 -->
<g id="node2" class="node">
<title>Node2</title>
<g id="a_node2"><a xlink:title=" ">
<polygon fill="none" stroke="#bfbfbf" points="21.5,-56.5 21.5,-75.5 118.5,-75.5 118.5,-56.5 21.5,-56.5"/>
<text text-anchor="middle" x="70" y="-63.5" font-family="Helvetica,sans-Serif" font-size="10.00">GlgInputListener</text>
</a>
</g>
</g>
<!-- Node2&#45;&gt;Node1 -->
<g id="edge1" class="edge">
<title>Node2&#45;&gt;Node1</title>
<path fill="none" stroke="midnightblue" d="M21.11,-50.06C12.25,-40.28 14.92,-27.83 29.12,-19.65"/>
<polygon fill="midnightblue" stroke="midnightblue" points="19.05,-52.9 29.08,-56.32 23.38,-47.4 19.05,-52.9"/>
</g>
<!-- Node2&#45;&gt;Node1 -->
<g id="edge2" class="edge">
<title>Node2&#45;&gt;Node1</title>
<path fill="none" stroke="midnightblue" d="M32.46,-48.68C26.93,-39.2 29.15,-27.63 39.11,-19.83"/>
<polygon fill="midnightblue" stroke="midnightblue" points="30.03,-51.21 39.31,-56.32 35.24,-46.54 30.03,-51.21"/>
</g>
<!-- Node2&#45;&gt;Node1 -->
<g id="edge3" class="edge">
<title>Node2&#45;&gt;Node1</title>
<path fill="none" stroke="midnightblue" d="M44.47,-47.27C41.43,-38.05 43.1,-27.17 49.48,-19.75"/>
<polygon fill="midnightblue" stroke="midnightblue" points="41.44,-49.02 49.33,-56.08 47.56,-45.64 41.44,-49.02"/>
</g>
<!-- Node2&#45;&gt;Node1 -->
<g id="edge4" class="edge">
<title>Node2&#45;&gt;Node1</title>
<path fill="none" stroke="midnightblue" d="M57.1,-46.4C55.77,-37.36 56.65,-26.94 59.74,-19.75"/>
<polygon fill="midnightblue" stroke="midnightblue" points="53.72,-47.31 59.67,-56.08 60.49,-45.52 53.72,-47.31"/>
</g>
<!-- Node2&#45;&gt;Node1 -->
<g id="edge5" class="edge">
<title>Node2&#45;&gt;Node1</title>
<path fill="none" stroke="midnightblue" d="M70,-45.8C70,-36.91 70,-26.78 70,-19.75"/>
<polygon fill="midnightblue" stroke="midnightblue" points="66.5,-46.08 70,-56.08 73.5,-46.08 66.5,-46.08"/>
</g>
<!-- Node2&#45;&gt;Node1 -->
<g id="edge6" class="edge">
<title>Node2&#45;&gt;Node1</title>
<path fill="none" stroke="midnightblue" d="M82.9,-46.4C84.23,-37.36 83.35,-26.94 80.26,-19.75"/>
<polygon fill="midnightblue" stroke="midnightblue" points="79.51,-45.52 80.33,-56.08 86.28,-47.31 79.51,-45.52"/>
</g>
<!-- Node2&#45;&gt;Node1 -->
<g id="edge7" class="edge">
<title>Node2&#45;&gt;Node1</title>
<path fill="none" stroke="midnightblue" d="M95.53,-47.27C98.57,-38.05 96.9,-27.17 90.52,-19.75"/>
<polygon fill="midnightblue" stroke="midnightblue" points="92.44,-45.64 90.67,-56.08 98.56,-49.02 92.44,-45.64"/>
</g>
<!-- Node2&#45;&gt;Node1 -->
<g id="edge8" class="edge">
<title>Node2&#45;&gt;Node1</title>
<path fill="none" stroke="midnightblue" d="M107.54,-48.68C113.07,-39.2 110.85,-27.63 100.89,-19.83"/>
<polygon fill="midnightblue" stroke="midnightblue" points="104.76,-46.54 100.69,-56.32 109.97,-51.21 104.76,-46.54"/>
</g>
<!-- Node2&#45;&gt;Node1 -->
<g id="edge9" class="edge">
<title>Node2&#45;&gt;Node1</title>
<path fill="none" stroke="midnightblue" d="M118.89,-50.06C127.75,-40.28 125.08,-27.83 110.88,-19.65"/>
<polygon fill="midnightblue" stroke="midnightblue" points="116.62,-47.4 110.92,-56.32 120.95,-52.9 116.62,-47.4"/>
</g>
</g>
</svg>
