<?xml version="1.0" encoding="UTF-8" standalone="no"?>
<!DOCTYPE svg PUBLIC "-//W3C//DTD SVG 1.1//EN"
 "http://www.w3.org/Graphics/SVG/1.1/DTD/svg11.dtd">
<!-- Generated by graphviz version 2.50.0 (0)
 -->
<!-- Title: DialogSetPoint Pages: 1 -->
<svg width="184pt" height="84pt"
 viewBox="0.00 0.00 184.03 84.00" xmlns="http://www.w3.org/2000/svg" xmlns:xlink="http://www.w3.org/1999/xlink">
<g id="graph0" class="graph" transform="scale(1 1) rotate(0) translate(4 80)">
<title>DialogSetPoint</title>
<!-- Node1 -->
<g id="node1" class="node">
<title>Node1</title>
<g id="a_node1"><a xlink:title=" ">
<polygon fill="#bfbfbf" stroke="black" points="43.51,-0.5 43.51,-19.5 132.51,-19.5 132.51,-0.5 43.51,-0.5"/>
<text text-anchor="middle" x="88.01" y="-7.5" font-family="Helvetica,sans-Serif" font-size="10.00">DialogSetPoint</text>
</a>
</g>
</g>
<!-- Node2 -->
<g id="node2" class="node">
<title>Node2</title>
<g id="a_node2"><a xlink:title=" ">
<polygon fill="none" stroke="#bfbfbf" points="62.51,-56.5 62.51,-75.5 113.51,-75.5 113.51,-56.5 62.51,-56.5"/>
<text text-anchor="middle" x="88.01" y="-63.5" font-family="Helvetica,sans-Serif" font-size="10.00">JDialog</text>
</a>
</g>
</g>
<!-- Node2&#45;&gt;Node1 -->
<g id="edge1" class="edge">
<title>Node2&#45;&gt;Node1</title>
<path fill="none" stroke="midnightblue" d="M52.22,-63.01C-13.99,-54.91 -16.92,-24.34 43.44,-14.25"/>
<polygon fill="midnightblue" stroke="midnightblue" points="52.15,-66.52 62.45,-64.04 52.85,-59.56 52.15,-66.52"/>
</g>
<!-- Node2&#45;&gt;Node1 -->
<g id="edge2" class="edge">
<title>Node2&#45;&gt;Node1</title>
<path fill="none" stroke="midnightblue" d="M52.4,-62.15C4.05,-53.38 1.08,-26.76 43.48,-15.8"/>
<polygon fill="midnightblue" stroke="midnightblue" points="51.91,-65.61 62.31,-63.61 52.93,-58.69 51.91,-65.61"/>
</g>
<!-- Node2&#45;&gt;Node1 -->
<g id="edge3" class="edge">
<title>Node2&#45;&gt;Node1</title>
<path fill="none" stroke="midnightblue" d="M52.72,-60.56C22.34,-51.47 19.15,-30.65 43.15,-19.09"/>
<polygon fill="midnightblue" stroke="midnightblue" points="51.97,-63.97 62.51,-62.88 53.59,-57.16 51.97,-63.97"/>
</g>
<!-- Node2&#45;&gt;Node1 -->
<g id="edge4" class="edge">
<title>Node2&#45;&gt;Node1</title>
<path fill="none" stroke="midnightblue" d="M52.93,-56.79C36.87,-46.72 36.71,-29.74 52.44,-19.52"/>
<polygon fill="midnightblue" stroke="midnightblue" points="51.56,-60.01 62.09,-61.12 54.55,-53.68 51.56,-60.01"/>
</g>
<!-- Node2&#45;&gt;Node1 -->
<g id="edge5" class="edge">
<title>Node2&#45;&gt;Node1</title>
<path fill="none" stroke="midnightblue" d="M56.46,-48.1C52.2,-38.74 54.14,-27.48 62.27,-19.83"/>
<polygon fill="midnightblue" stroke="midnightblue" points="53.73,-50.3 62.44,-56.32 59.39,-46.18 53.73,-50.3"/>
</g>
<!-- Node2&#45;&gt;Node1 -->
<g id="edge6" class="edge">
<title>Node2&#45;&gt;Node1</title>
<path fill="none" stroke="midnightblue" d="M68.73,-46.69C66.64,-37.59 67.94,-27.01 72.62,-19.75"/>
<polygon fill="midnightblue" stroke="midnightblue" points="65.53,-48.12 72.52,-56.08 72.02,-45.5 65.53,-48.12"/>
</g>
<!-- Node2&#45;&gt;Node1 -->
<g id="edge7" class="edge">
<title>Node2&#45;&gt;Node1</title>
<path fill="none" stroke="midnightblue" d="M81.54,-46.1C80.91,-37.14 81.36,-26.86 82.88,-19.75"/>
<polygon fill="midnightblue" stroke="midnightblue" points="78.08,-46.62 82.85,-56.08 85.02,-45.71 78.08,-46.62"/>
</g>
<!-- Node2&#45;&gt;Node1 -->
<g id="edge8" class="edge">
<title>Node2&#45;&gt;Node1</title>
<path fill="none" stroke="midnightblue" d="M94.49,-46.1C95.12,-37.14 94.67,-26.86 93.15,-19.75"/>
<polygon fill="midnightblue" stroke="midnightblue" points="91.01,-45.71 93.18,-56.08 97.95,-46.62 91.01,-45.71"/>
</g>
<!-- Node2&#45;&gt;Node1 -->
<g id="edge9" class="edge">
<title>Node2&#45;&gt;Node1</title>
<path fill="none" stroke="midnightblue" d="M107.3,-46.69C109.38,-37.59 108.09,-27.01 103.41,-19.75"/>
<polygon fill="midnightblue" stroke="midnightblue" points="104.01,-45.5 103.51,-56.08 110.5,-48.12 104.01,-45.5"/>
</g>
<!-- Node2&#45;&gt;Node1 -->
<g id="edge10" class="edge">
<title>Node2&#45;&gt;Node1</title>
<path fill="none" stroke="midnightblue" d="M119.57,-48.1C123.83,-38.74 121.89,-27.48 113.76,-19.83"/>
<polygon fill="midnightblue" stroke="midnightblue" points="116.64,-46.18 113.59,-56.32 122.3,-50.3 116.64,-46.18"/>
</g>
<!-- Node2&#45;&gt;Node1 -->
<g id="edge11" class="edge">
<title>Node2&#45;&gt;Node1</title>
<path fill="none" stroke="midnightblue" d="M123.1,-56.79C139.16,-46.72 139.32,-29.74 123.59,-19.52"/>
<polygon fill="midnightblue" stroke="midnightblue" points="121.48,-53.68 113.93,-61.12 124.47,-60.01 121.48,-53.68"/>
</g>
<!-- Node2&#45;&gt;Node1 -->
<g id="edge12" class="edge">
<title>Node2&#45;&gt;Node1</title>
<path fill="none" stroke="midnightblue" d="M123.31,-60.56C153.69,-51.47 156.88,-30.65 132.88,-19.09"/>
<polygon fill="midnightblue" stroke="midnightblue" points="122.44,-57.16 113.52,-62.88 124.05,-63.97 122.44,-57.16"/>
</g>
<!-- Node2&#45;&gt;Node1 -->
<g id="edge13" class="edge">
<title>Node2&#45;&gt;Node1</title>
<path fill="none" stroke="midnightblue" d="M123.63,-62.15C171.98,-53.38 174.95,-26.76 132.55,-15.8"/>
<polygon fill="midnightblue" stroke="midnightblue" points="123.1,-58.69 113.72,-63.61 124.12,-65.61 123.1,-58.69"/>
</g>
<!-- Node2&#45;&gt;Node1 -->
<g id="edge14" class="edge">
<title>Node2&#45;&gt;Node1</title>
<path fill="none" stroke="midnightblue" d="M123.81,-63.01C190.02,-54.91 192.95,-24.34 132.59,-14.25"/>
<polygon fill="midnightblue" stroke="midnightblue" points="123.18,-59.56 113.58,-64.04 123.88,-66.52 123.18,-59.56"/>
</g>
</g>
</svg>
