<?xml version="1.0" encoding="UTF-8" standalone="no"?>
<!DOCTYPE svg PUBLIC "-//W3C//DTD SVG 1.1//EN"
 "http://www.w3.org/Graphics/SVG/1.1/DTD/svg11.dtd">
<!-- Generated by graphviz version 2.50.0 (0)
 -->
<!-- Title: GlgDryGui.InputListener Pages: 1 -->
<svg width="144pt" height="84pt"
 viewBox="0.00 0.00 143.68 84.00" xmlns="http://www.w3.org/2000/svg" xmlns:xlink="http://www.w3.org/1999/xlink">
<g id="graph0" class="graph" transform="scale(1 1) rotate(0) translate(4 80)">
<title>GlgDryGui.InputListener</title>
<!-- Node1 -->
<g id="node1" class="node">
<title>Node1</title>
<g id="a_node1"><a xlink:title=" ">
<polygon fill="#bfbfbf" stroke="black" points="0.84,-0.5 0.84,-19.5 134.84,-19.5 134.84,-0.5 0.84,-0.5"/>
<text text-anchor="middle" x="67.84" y="-7.5" font-family="Helvetica,sans-Serif" font-size="10.00">GlgDryGui.InputListener</text>
</a>
</g>
</g>
<!-- Node2 -->
<g id="node2" class="node">
<title>Node2</title>
<g id="a_node2"><a xlink:title=" ">
<polygon fill="none" stroke="#bfbfbf" points="19.34,-56.5 19.34,-75.5 116.34,-75.5 116.34,-56.5 19.34,-56.5"/>
<text text-anchor="middle" x="67.84" y="-63.5" font-family="Helvetica,sans-Serif" font-size="10.00">GlgInputListener</text>
</a>
</g>
</g>
<!-- Node2&#45;&gt;Node1 -->
<g id="edge1" class="edge">
<title>Node2&#45;&gt;Node1</title>
<path fill="none" stroke="midnightblue" d="M9.88,-52.51C-4.82,-42.44 -2.53,-28.53 16.74,-19.65"/>
<polygon fill="midnightblue" stroke="midnightblue" points="8.63,-55.81 19.11,-57.38 11.9,-49.62 8.63,-55.81"/>
</g>
<!-- Node2&#45;&gt;Node1 -->
<g id="edge2" class="edge">
<title>Node2&#45;&gt;Node1</title>
<path fill="none" stroke="midnightblue" d="M18.95,-50.06C10.09,-40.28 12.76,-27.83 26.96,-19.65"/>
<polygon fill="midnightblue" stroke="midnightblue" points="16.9,-52.9 26.92,-56.32 21.22,-47.4 16.9,-52.9"/>
</g>
<!-- Node2&#45;&gt;Node1 -->
<g id="edge3" class="edge">
<title>Node2&#45;&gt;Node1</title>
<path fill="none" stroke="midnightblue" d="M30.3,-48.68C24.77,-39.2 26.99,-27.63 36.95,-19.83"/>
<polygon fill="midnightblue" stroke="midnightblue" points="27.87,-51.21 37.15,-56.32 33.08,-46.54 27.87,-51.21"/>
</g>
<!-- Node2&#45;&gt;Node1 -->
<g id="edge4" class="edge">
<title>Node2&#45;&gt;Node1</title>
<path fill="none" stroke="midnightblue" d="M42.31,-47.27C39.27,-38.05 40.94,-27.17 47.32,-19.75"/>
<polygon fill="midnightblue" stroke="midnightblue" points="39.28,-49.02 47.18,-56.08 45.4,-45.64 39.28,-49.02"/>
</g>
<!-- Node2&#45;&gt;Node1 -->
<g id="edge5" class="edge">
<title>Node2&#45;&gt;Node1</title>
<path fill="none" stroke="midnightblue" d="M54.94,-46.4C53.61,-37.36 54.49,-26.94 57.58,-19.75"/>
<polygon fill="midnightblue" stroke="midnightblue" points="51.56,-47.31 57.51,-56.08 58.33,-45.52 51.56,-47.31"/>
</g>
<!-- Node2&#45;&gt;Node1 -->
<g id="edge6" class="edge">
<title>Node2&#45;&gt;Node1</title>
<path fill="none" stroke="midnightblue" d="M67.84,-45.8C67.84,-36.91 67.84,-26.78 67.84,-19.75"/>
<polygon fill="midnightblue" stroke="midnightblue" points="64.34,-46.08 67.84,-56.08 71.34,-46.08 64.34,-46.08"/>
</g>
<!-- Node2&#45;&gt;Node1 -->
<g id="edge7" class="edge">
<title>Node2&#45;&gt;Node1</title>
<path fill="none" stroke="midnightblue" d="M80.74,-46.4C82.07,-37.36 81.19,-26.94 78.1,-19.75"/>
<polygon fill="midnightblue" stroke="midnightblue" points="77.35,-45.52 78.17,-56.08 84.12,-47.31 77.35,-45.52"/>
</g>
<!-- Node2&#45;&gt;Node1 -->
<g id="edge8" class="edge">
<title>Node2&#45;&gt;Node1</title>
<path fill="none" stroke="midnightblue" d="M93.37,-47.27C96.41,-38.05 94.74,-27.17 88.36,-19.75"/>
<polygon fill="midnightblue" stroke="midnightblue" points="90.28,-45.64 88.51,-56.08 96.41,-49.02 90.28,-45.64"/>
</g>
<!-- Node2&#45;&gt;Node1 -->
<g id="edge9" class="edge">
<title>Node2&#45;&gt;Node1</title>
<path fill="none" stroke="midnightblue" d="M105.38,-48.68C110.91,-39.2 108.69,-27.63 98.73,-19.83"/>
<polygon fill="midnightblue" stroke="midnightblue" points="102.6,-46.54 98.53,-56.32 107.81,-51.21 102.6,-46.54"/>
</g>
<!-- Node2&#45;&gt;Node1 -->
<g id="edge10" class="edge">
<title>Node2&#45;&gt;Node1</title>
<path fill="none" stroke="midnightblue" d="M116.74,-50.06C125.59,-40.28 122.92,-27.83 108.72,-19.65"/>
<polygon fill="midnightblue" stroke="midnightblue" points="114.46,-47.4 108.76,-56.32 118.79,-52.9 114.46,-47.4"/>
</g>
<!-- Node2&#45;&gt;Node1 -->
<g id="edge11" class="edge">
<title>Node2&#45;&gt;Node1</title>
<path fill="none" stroke="midnightblue" d="M125.8,-52.51C140.5,-42.44 138.21,-28.53 118.94,-19.65"/>
<polygon fill="midnightblue" stroke="midnightblue" points="123.78,-49.62 116.57,-57.38 127.05,-55.81 123.78,-49.62"/>
</g>
</g>
</svg>
