<?xml version="1.0" encoding="UTF-8" standalone="no"?>
<!DOCTYPE svg PUBLIC "-//W3C//DTD SVG 1.1//EN"
 "http://www.w3.org/Graphics/SVG/1.1/DTD/svg11.dtd">
<!-- Generated by graphviz version 2.50.0 (0)
 -->
<!-- Title: RgaPfeifferQms200 Pages: 1 -->
<svg width="426pt" height="196pt"
 viewBox="0.00 0.00 425.96 196.00" xmlns="http://www.w3.org/2000/svg" xmlns:xlink="http://www.w3.org/1999/xlink">
<g id="graph0" class="graph" transform="scale(1 1) rotate(0) translate(4 192)">
<title>RgaPfeifferQms200</title>
<!-- Node1 -->
<g id="node1" class="node">
<title>Node1</title>
<g id="a_node1"><a xlink:title=" ">
<polygon fill="#bfbfbf" stroke="black" points="167.1,-0.5 167.1,-19.5 278.1,-19.5 278.1,-0.5 167.1,-0.5"/>
<text text-anchor="middle" x="222.6" y="-7.5" font-family="Helvetica,sans-Serif" font-size="10.00">RgaPfeifferQms200</text>
</a>
</g>
</g>
<!-- Node2 -->
<g id="node2" class="node">
<title>Node2</title>
<g id="a_node2"><a xlink:href="classDevice.html" target="_top" xlink:title=" ">
<polygon fill="none" stroke="black" points="197.6,-56.5 197.6,-75.5 247.6,-75.5 247.6,-56.5 197.6,-56.5"/>
<text text-anchor="middle" x="222.6" y="-63.5" font-family="Helvetica,sans-Serif" font-size="10.00">Device</text>
</a>
</g>
</g>
<!-- Node2&#45;&gt;Node1 -->
<g id="edge1" class="edge">
<title>Node2&#45;&gt;Node1</title>
<path fill="none" stroke="midnightblue" d="M203.32,-46.69C201.23,-37.59 202.53,-27.01 207.21,-19.75"/>
<polygon fill="midnightblue" stroke="midnightblue" points="200.12,-48.12 207.1,-56.08 206.61,-45.5 200.12,-48.12"/>
</g>
<!-- Node2&#45;&gt;Node1 -->
<g id="edge90" class="edge">
<title>Node2&#45;&gt;Node1</title>
<path fill="none" stroke="midnightblue" d="M216.13,-46.1C215.5,-37.14 215.95,-26.86 217.47,-19.75"/>
<polygon fill="midnightblue" stroke="midnightblue" points="212.67,-46.62 217.44,-56.08 219.61,-45.71 212.67,-46.62"/>
</g>
<!-- Node2&#45;&gt;Node1 -->
<g id="edge91" class="edge">
<title>Node2&#45;&gt;Node1</title>
<path fill="none" stroke="midnightblue" d="M229.08,-46.1C229.71,-37.14 229.26,-26.86 227.73,-19.75"/>
<polygon fill="midnightblue" stroke="midnightblue" points="225.6,-45.71 227.77,-56.08 232.54,-46.62 225.6,-45.71"/>
</g>
<!-- Node2&#45;&gt;Node1 -->
<g id="edge92" class="edge">
<title>Node2&#45;&gt;Node1</title>
<path fill="none" stroke="midnightblue" d="M241.89,-46.69C243.97,-37.59 242.68,-27.01 238,-19.75"/>
<polygon fill="midnightblue" stroke="midnightblue" points="238.6,-45.5 238.1,-56.08 245.09,-48.12 238.6,-45.5"/>
</g>
<!-- Node3 -->
<g id="node3" class="node">
<title>Node3</title>
<g id="a_node3"><a xlink:href="classDataManager.html" target="_top" xlink:title=" ">
<polygon fill="none" stroke="black" points="181.1,-112.5 181.1,-131.5 264.1,-131.5 264.1,-112.5 181.1,-112.5"/>
<text text-anchor="middle" x="222.6" y="-119.5" font-family="Helvetica,sans-Serif" font-size="10.00">DataManager</text>
</a>
</g>
</g>
<!-- Node3&#45;&gt;Node2 -->
<g id="edge2" class="edge">
<title>Node3&#45;&gt;Node2</title>
<path fill="none" stroke="midnightblue" d="M170.56,-119.42C42.6,-110.98 51.54,-71.44 197.35,-67.34"/>
<polygon fill="midnightblue" stroke="midnightblue" points="170.65,-122.93 180.84,-120.02 171.05,-115.94 170.65,-122.93"/>
</g>
<!-- Node3&#45;&gt;Node2 -->
<g id="edge27" class="edge">
<title>Node3&#45;&gt;Node2</title>
<path fill="none" stroke="midnightblue" d="M170.77,-119.05C60.64,-109.95 69.55,-71.83 197.5,-67.42"/>
<polygon fill="midnightblue" stroke="midnightblue" points="170.84,-122.57 181.07,-119.8 171.34,-115.59 170.84,-122.57"/>
</g>
<!-- Node3&#45;&gt;Node2 -->
<g id="edge30" class="edge">
<title>Node3&#45;&gt;Node2</title>
<path fill="none" stroke="midnightblue" d="M170.91,-118.52C78.74,-108.64 87.61,-72.32 197.54,-67.52"/>
<polygon fill="midnightblue" stroke="midnightblue" points="170.8,-122.03 181.08,-119.47 171.45,-115.06 170.8,-122.03"/>
</g>
<!-- Node3&#45;&gt;Node2 -->
<g id="edge33" class="edge">
<title>Node3&#45;&gt;Node2</title>
<path fill="none" stroke="midnightblue" d="M171.04,-117.73C96.92,-106.95 105.73,-72.94 197.48,-67.68"/>
<polygon fill="midnightblue" stroke="midnightblue" points="170.65,-121.21 181.01,-118.98 171.52,-114.26 170.65,-121.21"/>
</g>
<!-- Node3&#45;&gt;Node2 -->
<g id="edge36" class="edge">
<title>Node3&#45;&gt;Node2</title>
<path fill="none" stroke="midnightblue" d="M170.79,-116.38C115.19,-104.54 124.11,-73.65 197.54,-67.92"/>
<polygon fill="midnightblue" stroke="midnightblue" points="170.22,-119.83 180.68,-118.17 171.46,-112.94 170.22,-119.83"/>
</g>
<!-- Node3&#45;&gt;Node2 -->
<g id="edge39" class="edge">
<title>Node3&#45;&gt;Node2</title>
<path fill="none" stroke="midnightblue" d="M171.19,-114.16C133.69,-101.39 142.38,-74.65 197.25,-68.35"/>
<polygon fill="midnightblue" stroke="midnightblue" points="170.52,-117.61 181.1,-116.94 172.42,-110.87 170.52,-117.61"/>
</g>
<!-- Node3&#45;&gt;Node2 -->
<g id="edge42" class="edge">
<title>Node3&#45;&gt;Node2</title>
<path fill="none" stroke="midnightblue" d="M172.17,-109.75C152.52,-96.55 160.94,-75.65 197.41,-69.06"/>
<polygon fill="midnightblue" stroke="midnightblue" points="170.59,-112.87 181.08,-114.38 173.82,-106.66 170.59,-112.87"/>
</g>
<!-- Node3&#45;&gt;Node2 -->
<g id="edge45" class="edge">
<title>Node3&#45;&gt;Node2</title>
<path fill="none" stroke="midnightblue" d="M179.32,-105.41C170.42,-93.35 176.49,-77.57 197.54,-70.59"/>
<polygon fill="midnightblue" stroke="midnightblue" points="177.08,-108.1 186.8,-112.32 181.83,-102.96 177.08,-108.1"/>
</g>
<!-- Node3&#45;&gt;Node2 -->
<g id="edge48" class="edge">
<title>Node3&#45;&gt;Node2</title>
<path fill="none" stroke="midnightblue" d="M191,-104C186.74,-94.51 188.82,-83.09 197.25,-75.48"/>
<polygon fill="midnightblue" stroke="midnightblue" points="188.33,-106.28 197.03,-112.32 194,-102.17 188.33,-106.28"/>
</g>
<!-- Node3&#45;&gt;Node2 -->
<g id="edge51" class="edge">
<title>Node3&#45;&gt;Node2</title>
<path fill="none" stroke="midnightblue" d="M203.32,-102.69C201.23,-93.59 202.53,-83.01 207.21,-75.75"/>
<polygon fill="midnightblue" stroke="midnightblue" points="200.12,-104.12 207.1,-112.08 206.61,-101.5 200.12,-104.12"/>
</g>
<!-- Node3&#45;&gt;Node2 -->
<g id="edge54" class="edge">
<title>Node3&#45;&gt;Node2</title>
<path fill="none" stroke="midnightblue" d="M216.13,-102.1C215.5,-93.14 215.95,-82.86 217.47,-75.75"/>
<polygon fill="midnightblue" stroke="midnightblue" points="212.67,-102.62 217.44,-112.08 219.61,-101.71 212.67,-102.62"/>
</g>
<!-- Node3&#45;&gt;Node2 -->
<g id="edge57" class="edge">
<title>Node3&#45;&gt;Node2</title>
<path fill="none" stroke="midnightblue" d="M229.08,-102.1C229.71,-93.14 229.26,-82.86 227.73,-75.75"/>
<polygon fill="midnightblue" stroke="midnightblue" points="225.6,-101.71 227.77,-112.08 232.54,-102.62 225.6,-101.71"/>
</g>
<!-- Node3&#45;&gt;Node2 -->
<g id="edge60" class="edge">
<title>Node3&#45;&gt;Node2</title>
<path fill="none" stroke="midnightblue" d="M241.89,-102.69C243.97,-93.59 242.68,-83.01 238,-75.75"/>
<polygon fill="midnightblue" stroke="midnightblue" points="238.6,-101.5 238.1,-112.08 245.09,-104.12 238.6,-101.5"/>
</g>
<!-- Node3&#45;&gt;Node2 -->
<g id="edge63" class="edge">
<title>Node3&#45;&gt;Node2</title>
<path fill="none" stroke="midnightblue" d="M254.21,-104C258.47,-94.51 256.39,-83.09 247.96,-75.48"/>
<polygon fill="midnightblue" stroke="midnightblue" points="251.21,-102.17 248.18,-112.32 256.88,-106.28 251.21,-102.17"/>
</g>
<!-- Node3&#45;&gt;Node2 -->
<g id="edge66" class="edge">
<title>Node3&#45;&gt;Node2</title>
<path fill="none" stroke="midnightblue" d="M265.88,-105.41C274.79,-93.35 268.71,-77.57 247.67,-70.59"/>
<polygon fill="midnightblue" stroke="midnightblue" points="263.37,-102.96 258.41,-112.32 268.13,-108.1 263.37,-102.96"/>
</g>
<!-- Node3&#45;&gt;Node2 -->
<g id="edge69" class="edge">
<title>Node3&#45;&gt;Node2</title>
<path fill="none" stroke="midnightblue" d="M273.04,-109.75C292.68,-96.55 284.27,-75.65 247.8,-69.06"/>
<polygon fill="midnightblue" stroke="midnightblue" points="271.39,-106.66 264.13,-114.38 274.62,-112.87 271.39,-106.66"/>
</g>
<!-- Node3&#45;&gt;Node2 -->
<g id="edge72" class="edge">
<title>Node3&#45;&gt;Node2</title>
<path fill="none" stroke="midnightblue" d="M274.02,-114.16C311.52,-101.39 302.83,-74.65 247.96,-68.35"/>
<polygon fill="midnightblue" stroke="midnightblue" points="272.79,-110.87 264.11,-116.94 274.68,-117.61 272.79,-110.87"/>
</g>
<!-- Node3&#45;&gt;Node2 -->
<g id="edge75" class="edge">
<title>Node3&#45;&gt;Node2</title>
<path fill="none" stroke="midnightblue" d="M274.41,-116.38C330.02,-104.54 321.1,-73.65 247.66,-67.92"/>
<polygon fill="midnightblue" stroke="midnightblue" points="273.74,-112.94 264.53,-118.17 274.99,-119.83 273.74,-112.94"/>
</g>
<!-- Node3&#45;&gt;Node2 -->
<g id="edge78" class="edge">
<title>Node3&#45;&gt;Node2</title>
<path fill="none" stroke="midnightblue" d="M274.17,-117.73C348.29,-106.95 339.48,-72.94 247.73,-67.68"/>
<polygon fill="midnightblue" stroke="midnightblue" points="273.69,-114.26 264.2,-118.98 274.56,-121.21 273.69,-114.26"/>
</g>
<!-- Node3&#45;&gt;Node2 -->
<g id="edge81" class="edge">
<title>Node3&#45;&gt;Node2</title>
<path fill="none" stroke="midnightblue" d="M274.29,-118.52C366.47,-108.64 357.59,-72.32 247.67,-67.52"/>
<polygon fill="midnightblue" stroke="midnightblue" points="273.76,-115.06 264.13,-119.47 274.41,-122.03 273.76,-115.06"/>
</g>
<!-- Node3&#45;&gt;Node2 -->
<g id="edge84" class="edge">
<title>Node3&#45;&gt;Node2</title>
<path fill="none" stroke="midnightblue" d="M274.44,-119.05C384.57,-109.95 375.66,-71.83 247.71,-67.42"/>
<polygon fill="midnightblue" stroke="midnightblue" points="273.86,-115.59 264.14,-119.8 274.37,-122.57 273.86,-115.59"/>
</g>
<!-- Node3&#45;&gt;Node2 -->
<g id="edge87" class="edge">
<title>Node3&#45;&gt;Node2</title>
<path fill="none" stroke="midnightblue" d="M274.65,-119.42C402.6,-110.98 393.67,-71.44 247.85,-67.34"/>
<polygon fill="midnightblue" stroke="midnightblue" points="274.15,-115.94 264.37,-120.02 274.56,-122.93 274.15,-115.94"/>
</g>
<!-- Node4 -->
<g id="node4" class="node">
<title>Node4</title>
<g id="a_node4"><a xlink:href="interfaceDataTypes.html" target="_top" xlink:title=" ">
<polygon fill="none" stroke="black" points="58.6,-168.5 58.6,-187.5 126.6,-187.5 126.6,-168.5 58.6,-168.5"/>
<text text-anchor="middle" x="92.6" y="-175.5" font-family="Helvetica,sans-Serif" font-size="10.00">DataTypes</text>
</a>
</g>
</g>
<!-- Node4&#45;&gt;Node2 -->
<g id="edge26" class="edge">
<title>Node4&#45;&gt;Node2</title>
<path fill="none" stroke="midnightblue" d="M48.1,-174.35C-65.81,-158.41 39.39,-75.9 197.2,-67.66"/>
<polygon fill="midnightblue" stroke="midnightblue" points="47.89,-177.84 58.23,-175.53 48.71,-170.89 47.89,-177.84"/>
</g>
<!-- Node4&#45;&gt;Node2 -->
<g id="edge29" class="edge">
<title>Node4&#45;&gt;Node2</title>
<path fill="none" stroke="midnightblue" d="M48.3,-173.6C-45.09,-156.08 56.97,-76.54 197.51,-67.78"/>
<polygon fill="midnightblue" stroke="midnightblue" points="47.87,-177.07 58.28,-175.14 48.93,-170.15 47.87,-177.07"/>
</g>
<!-- Node4&#45;&gt;Node2 -->
<g id="edge32" class="edge">
<title>Node4&#45;&gt;Node2</title>
<path fill="none" stroke="midnightblue" d="M48.25,-172.35C-23.02,-152.73 74.68,-77.38 197.54,-67.97"/>
<polygon fill="midnightblue" stroke="midnightblue" points="47.82,-175.83 58.34,-174.55 49.31,-169 47.82,-175.83"/>
</g>
<!-- Node4&#45;&gt;Node2 -->
<g id="edge35" class="edge">
<title>Node4&#45;&gt;Node2</title>
<path fill="none" stroke="midnightblue" d="M48.69,-170.24C0.8,-148.07 92.43,-78.44 197.25,-68.25"/>
<polygon fill="midnightblue" stroke="midnightblue" points="47.83,-173.64 58.43,-173.59 50.11,-167.02 47.83,-173.64"/>
</g>
<!-- Node4&#45;&gt;Node2 -->
<g id="edge38" class="edge">
<title>Node4&#45;&gt;Node2</title>
<path fill="none" stroke="midnightblue" d="M50.13,-165.76C28.69,-140.22 111.64,-79.21 197.53,-68.59"/>
<polygon fill="midnightblue" stroke="midnightblue" points="48.27,-168.74 58.45,-171.69 52.34,-163.04 48.27,-168.74"/>
</g>
<!-- Node4&#45;&gt;Node2 -->
<g id="edge41" class="edge">
<title>Node4&#45;&gt;Node2</title>
<path fill="none" stroke="midnightblue" d="M57.25,-158.68C58.69,-130.94 129.88,-80.33 197.12,-69.2"/>
<polygon fill="midnightblue" stroke="midnightblue" points="54.01,-160.02 60.53,-168.37 60.64,-157.77 54.01,-160.02"/>
</g>
<!-- Node4&#45;&gt;Node2 -->
<g id="edge44" class="edge">
<title>Node4&#45;&gt;Node2</title>
<path fill="none" stroke="midnightblue" d="M67.75,-158.17C75.42,-130.95 141.19,-82.49 197.45,-70"/>
<polygon fill="midnightblue" stroke="midnightblue" points="64.26,-158.54 68.22,-168.37 71.26,-158.22 64.26,-158.54"/>
</g>
<!-- Node4&#45;&gt;Node2 -->
<g id="edge47" class="edge">
<title>Node4&#45;&gt;Node2</title>
<path fill="none" stroke="midnightblue" d="M78.06,-158.5C90.39,-132.24 150.86,-85.72 197.55,-71.35"/>
<polygon fill="midnightblue" stroke="midnightblue" points="74.62,-157.85 75.9,-168.37 81.46,-159.35 74.62,-157.85"/>
</g>
<!-- Node4&#45;&gt;Node2 -->
<g id="edge50" class="edge">
<title>Node4&#45;&gt;Node2</title>
<path fill="none" stroke="midnightblue" d="M87.92,-159.32C104.07,-134.5 158.88,-90.46 197.41,-73.72"/>
<polygon fill="midnightblue" stroke="midnightblue" points="84.75,-157.84 83.59,-168.37 91.06,-160.86 84.75,-157.84"/>
</g>
<!-- Node4&#45;&gt;Node2 -->
<g id="edge53" class="edge">
<title>Node4&#45;&gt;Node2</title>
<path fill="none" stroke="midnightblue" d="M97.34,-160.27C117.46,-136.49 169.11,-93.79 200.94,-75.59"/>
<polygon fill="midnightblue" stroke="midnightblue" points="94.47,-158.27 91.28,-168.37 100.07,-162.46 94.47,-158.27"/>
</g>
<!-- Node4&#45;&gt;Node2 -->
<g id="edge56" class="edge">
<title>Node4&#45;&gt;Node2</title>
<path fill="none" stroke="midnightblue" d="M106.37,-161.21C131.45,-137.63 183.34,-94.03 208.61,-75.59"/>
<polygon fill="midnightblue" stroke="midnightblue" points="103.71,-158.9 98.96,-168.37 108.58,-163.93 103.71,-158.9"/>
</g>
<!-- Node4&#45;&gt;Node2 -->
<g id="edge59" class="edge">
<title>Node4&#45;&gt;Node2</title>
<path fill="none" stroke="midnightblue" d="M114.99,-162.12C145.48,-138.77 197.75,-94.27 216.29,-75.59"/>
<polygon fill="midnightblue" stroke="midnightblue" points="112.55,-159.57 106.65,-168.37 116.75,-165.17 112.55,-159.57"/>
</g>
<!-- Node4&#45;&gt;Node2 -->
<g id="edge62" class="edge">
<title>Node4&#45;&gt;Node2</title>
<path fill="none" stroke="midnightblue" d="M123.18,-163.01C159.52,-139.92 212.34,-94.51 223.96,-75.59"/>
<polygon fill="midnightblue" stroke="midnightblue" points="121.07,-160.19 114.33,-168.37 124.7,-166.18 121.07,-160.19"/>
</g>
<!-- Node4&#45;&gt;Node2 -->
<g id="edge65" class="edge">
<title>Node4&#45;&gt;Node2</title>
<path fill="none" stroke="midnightblue" d="M131.2,-163.73C173.8,-140.88 227.12,-94.71 231.63,-75.59"/>
<polygon fill="midnightblue" stroke="midnightblue" points="129.37,-160.74 122.02,-168.37 132.52,-166.99 129.37,-160.74"/>
</g>
<!-- Node4&#45;&gt;Node2 -->
<g id="edge68" class="edge">
<title>Node4&#45;&gt;Node2</title>
<path fill="none" stroke="midnightblue" d="M136.21,-165.63C186.23,-143.5 242.26,-95.12 239.29,-75.51"/>
<polygon fill="midnightblue" stroke="midnightblue" points="134.87,-162.39 126.96,-169.44 137.54,-168.87 134.87,-162.39"/>
</g>
<!-- Node4&#45;&gt;Node2 -->
<g id="edge71" class="edge">
<title>Node4&#45;&gt;Node2</title>
<path fill="none" stroke="midnightblue" d="M136.73,-168.6C196.03,-148.23 257.46,-96.4 247.03,-75.71"/>
<polygon fill="midnightblue" stroke="midnightblue" points="135.35,-165.36 126.86,-171.69 137.45,-172.04 135.35,-165.36"/>
</g>
<!-- Node4&#45;&gt;Node2 -->
<g id="edge74" class="edge">
<title>Node4&#45;&gt;Node2</title>
<path fill="none" stroke="midnightblue" d="M136.55,-170.81C212.76,-150.64 285.39,-87.23 247.72,-70.88"/>
<polygon fill="midnightblue" stroke="midnightblue" points="135.67,-167.42 126.76,-173.15 137.3,-174.23 135.67,-167.42"/>
</g>
<!-- Node4&#45;&gt;Node2 -->
<g id="edge77" class="edge">
<title>Node4&#45;&gt;Node2</title>
<path fill="none" stroke="midnightblue" d="M136.7,-172.25C228.06,-153.28 307.31,-83.33 247.98,-69.42"/>
<polygon fill="midnightblue" stroke="midnightblue" points="135.86,-168.84 126.67,-174.11 137.14,-175.73 135.86,-168.84"/>
</g>
<!-- Node4&#45;&gt;Node2 -->
<g id="edge80" class="edge">
<title>Node4&#45;&gt;Node2</title>
<path fill="none" stroke="midnightblue" d="M136.81,-173.27C243.63,-155.6 327.93,-80.72 247.85,-68.65"/>
<polygon fill="midnightblue" stroke="midnightblue" points="136.13,-169.83 126.74,-174.75 137.15,-176.76 136.13,-169.83"/>
</g>
<!-- Node4&#45;&gt;Node2 -->
<g id="edge83" class="edge">
<title>Node4&#45;&gt;Node2</title>
<path fill="none" stroke="midnightblue" d="M136.66,-174.04C259.39,-157.7 347.87,-78.85 247.65,-68.19"/>
<polygon fill="midnightblue" stroke="midnightblue" points="136.14,-170.58 126.62,-175.23 136.96,-177.53 136.14,-170.58"/>
</g>
<!-- Node4&#45;&gt;Node2 -->
<g id="edge86" class="edge">
<title>Node4&#45;&gt;Node2</title>
<path fill="none" stroke="midnightblue" d="M137.06,-174.55C275.52,-159.28 366.94,-77.67 247.96,-67.95"/>
<polygon fill="midnightblue" stroke="midnightblue" points="136.63,-171.07 127.01,-175.53 137.31,-178.04 136.63,-171.07"/>
</g>
<!-- Node4&#45;&gt;Node2 -->
<g id="edge89" class="edge">
<title>Node4&#45;&gt;Node2</title>
<path fill="none" stroke="midnightblue" d="M137.04,-174.97C291.86,-160.77 386.04,-76.61 247.92,-67.75"/>
<polygon fill="midnightblue" stroke="midnightblue" points="136.44,-171.51 126.76,-175.8 137.01,-178.48 136.44,-171.51"/>
</g>
<!-- Node4&#45;&gt;Node3 -->
<g id="edge3" class="edge">
<title>Node4&#45;&gt;Node3</title>
<path fill="none" stroke="midnightblue" d="M48.1,-175.7C-61.83,-168.15 32.33,-130.15 180.91,-123.88"/>
<polygon fill="midnightblue" stroke="midnightblue" points="48.05,-179.2 58.23,-176.28 48.45,-172.21 48.05,-179.2"/>
</g>
<!-- Node4&#45;&gt;Node3 -->
<g id="edge4" class="edge">
<title>Node4&#45;&gt;Node3</title>
<path fill="none" stroke="midnightblue" d="M48.11,-175.31C-41.28,-167.02 49.31,-130.71 181.06,-124.05"/>
<polygon fill="midnightblue" stroke="midnightblue" points="48.05,-178.82 58.28,-176.09 48.58,-171.84 48.05,-178.82"/>
</g>
<!-- Node4&#45;&gt;Node3 -->
<g id="edge5" class="edge">
<title>Node4&#45;&gt;Node3</title>
<path fill="none" stroke="midnightblue" d="M48.24,-174.71C-19.76,-165.52 66.14,-131.41 180.93,-124.3"/>
<polygon fill="midnightblue" stroke="midnightblue" points="48.02,-178.21 58.34,-175.8 48.77,-171.25 48.02,-178.21"/>
</g>
<!-- Node4&#45;&gt;Node3 -->
<g id="edge6" class="edge">
<title>Node4&#45;&gt;Node3</title>
<path fill="none" stroke="midnightblue" d="M48.54,-173.65C3.48,-163.3 83.35,-132.12 180.96,-124.63"/>
<polygon fill="midnightblue" stroke="midnightblue" points="47.98,-177.1 58.43,-175.32 49.15,-170.2 47.98,-177.1"/>
</g>
<!-- Node4&#45;&gt;Node3 -->
<g id="edge7" class="edge">
<title>Node4&#45;&gt;Node3</title>
<path fill="none" stroke="midnightblue" d="M48.83,-170.6C33.54,-158.46 103.25,-132.62 180.87,-125.1"/>
<polygon fill="midnightblue" stroke="midnightblue" points="47.86,-173.98 58.45,-174.4 50.43,-167.47 47.86,-173.98"/>
</g>
<!-- Node4&#45;&gt;Node3 -->
<g id="edge8" class="edge">
<title>Node4&#45;&gt;Node3</title>
<path fill="none" stroke="midnightblue" d="M61.9,-161.59C77.3,-149.01 128.47,-132.28 180.85,-125.76"/>
<polygon fill="midnightblue" stroke="midnightblue" points="58.53,-160.63 58.44,-171.22 65.12,-162.99 58.53,-160.63"/>
</g>
<!-- Node4&#45;&gt;Node3 -->
<g id="edge9" class="edge">
<title>Node4&#45;&gt;Node3</title>
<path fill="none" stroke="midnightblue" d="M75.03,-161.04C92.86,-149.12 137.64,-133.73 180.78,-126.74"/>
<polygon fill="midnightblue" stroke="midnightblue" points="72.44,-158.67 67.57,-168.08 77.25,-163.76 72.44,-158.67"/>
</g>
<!-- Node4&#45;&gt;Node3 -->
<g id="edge10" class="edge">
<title>Node4&#45;&gt;Node3</title>
<path fill="none" stroke="midnightblue" d="M86.02,-161.92C104.38,-150.63 144.47,-135.87 180.9,-128.17"/>
<polygon fill="midnightblue" stroke="midnightblue" points="83.75,-159.25 77.91,-168.08 87.99,-164.82 83.75,-159.25"/>
</g>
<!-- Node4&#45;&gt;Node3 -->
<g id="edge11" class="edge">
<title>Node4&#45;&gt;Node3</title>
<path fill="none" stroke="midnightblue" d="M96.43,-162.93C115.07,-152.5 150.3,-138.7 180.87,-130.35"/>
<polygon fill="midnightblue" stroke="midnightblue" points="94.49,-160.02 87.92,-168.32 98.24,-165.93 94.49,-160.02"/>
</g>
<!-- Node4&#45;&gt;Node3 -->
<g id="edge12" class="edge">
<title>Node4&#45;&gt;Node3</title>
<path fill="none" stroke="midnightblue" d="M107.15,-163.57C127.27,-153.56 160.34,-140.17 186.71,-131.57"/>
<polygon fill="midnightblue" stroke="midnightblue" points="105.36,-160.56 98.15,-168.32 108.62,-166.75 105.36,-160.56"/>
</g>
<!-- Node4&#45;&gt;Node3 -->
<g id="edge13" class="edge">
<title>Node4&#45;&gt;Node3</title>
<path fill="none" stroke="midnightblue" d="M117.51,-164.23C140.39,-154.13 173.92,-140.31 197.02,-131.52"/>
<polygon fill="midnightblue" stroke="midnightblue" points="115.81,-161.16 108.11,-168.44 118.67,-167.55 115.81,-161.16"/>
</g>
<!-- Node4&#45;&gt;Node3 -->
<g id="edge14" class="edge">
<title>Node4&#45;&gt;Node3</title>
<path fill="none" stroke="midnightblue" d="M127.8,-164.77C153.74,-154.63 187.61,-140.47 207.18,-131.52"/>
<polygon fill="midnightblue" stroke="midnightblue" points="126.36,-161.58 118.29,-168.44 128.88,-168.11 126.36,-161.58"/>
</g>
<!-- Node4&#45;&gt;Node3 -->
<g id="edge15" class="edge">
<title>Node4&#45;&gt;Node3</title>
<path fill="none" stroke="midnightblue" d="M136.44,-165.77C166.03,-155.58 201.14,-140.78 217.31,-131.54"/>
<polygon fill="midnightblue" stroke="midnightblue" points="135.03,-162.55 126.65,-169.03 137.25,-169.19 135.03,-162.55"/>
</g>
<!-- Node4&#45;&gt;Node3 -->
<g id="edge16" class="edge">
<title>Node4&#45;&gt;Node3</title>
<path fill="none" stroke="midnightblue" d="M136.7,-168.99C172.58,-158.95 214.05,-141.81 227.49,-131.53"/>
<polygon fill="midnightblue" stroke="midnightblue" points="135.53,-165.68 126.76,-171.62 137.32,-172.45 135.53,-165.68"/>
</g>
<!-- Node4&#45;&gt;Node3 -->
<g id="edge17" class="edge">
<title>Node4&#45;&gt;Node3</title>
<path fill="none" stroke="midnightblue" d="M136.92,-171.26C179.98,-161.82 227.25,-142.94 237.41,-131.8"/>
<polygon fill="midnightblue" stroke="midnightblue" points="136.06,-167.87 126.96,-173.29 137.46,-174.72 136.06,-167.87"/>
</g>
<!-- Node4&#45;&gt;Node3 -->
<g id="edge18" class="edge">
<title>Node4&#45;&gt;Node3</title>
<path fill="none" stroke="midnightblue" d="M136.81,-172.86C188.45,-164.14 241.68,-143.72 247.64,-131.89"/>
<polygon fill="midnightblue" stroke="midnightblue" points="136.21,-169.41 126.86,-174.4 137.28,-176.33 136.21,-169.41"/>
</g>
<!-- Node4&#45;&gt;Node3 -->
<g id="edge19" class="edge">
<title>Node4&#45;&gt;Node3</title>
<path fill="none" stroke="midnightblue" d="M137.01,-173.9C198.3,-165.87 257.13,-144.16 257.97,-131.84"/>
<polygon fill="midnightblue" stroke="midnightblue" points="136.28,-170.46 126.76,-175.11 137.1,-177.41 136.28,-170.46"/>
</g>
<!-- Node4&#45;&gt;Node3 -->
<g id="edge20" class="edge">
<title>Node4&#45;&gt;Node3</title>
<path fill="none" stroke="midnightblue" d="M136.9,-174.65C216.29,-166.52 286.47,-139.52 264.38,-128.13"/>
<polygon fill="midnightblue" stroke="midnightblue" points="136.31,-171.19 126.67,-175.58 136.94,-178.16 136.31,-171.19"/>
</g>
<!-- Node4&#45;&gt;Node3 -->
<g id="edge21" class="edge">
<title>Node4&#45;&gt;Node3</title>
<path fill="none" stroke="midnightblue" d="M136.91,-175.16C234.92,-167.19 313.94,-135.57 264.32,-125.86"/>
<polygon fill="midnightblue" stroke="midnightblue" points="136.47,-171.68 126.74,-175.9 136.97,-178.67 136.47,-171.68"/>
</g>
<!-- Node4&#45;&gt;Node3 -->
<g id="edge22" class="edge">
<title>Node4&#45;&gt;Node3</title>
<path fill="none" stroke="midnightblue" d="M136.75,-175.54C251.79,-168.01 336.69,-133.52 264.22,-124.94"/>
<polygon fill="midnightblue" stroke="midnightblue" points="136.4,-172.06 126.62,-176.13 136.8,-179.04 136.4,-172.06"/>
</g>
<!-- Node4&#45;&gt;Node3 -->
<g id="edge23" class="edge">
<title>Node4&#45;&gt;Node3</title>
<path fill="none" stroke="midnightblue" d="M137.37,-175.78C268.74,-168.62 357.62,-132.15 264.23,-124.44"/>
<polygon fill="midnightblue" stroke="midnightblue" points="136.83,-172.3 127.01,-176.28 137.17,-179.29 136.83,-172.3"/>
</g>
<!-- Node4&#45;&gt;Node3 -->
<g id="edge24" class="edge">
<title>Node4&#45;&gt;Node3</title>
<path fill="none" stroke="midnightblue" d="M137.06,-176C285.35,-169.32 378,-131.13 264.14,-124.11"/>
<polygon fill="midnightblue" stroke="midnightblue" points="136.61,-172.52 126.76,-176.41 136.89,-179.51 136.61,-172.52"/>
</g>
<!-- Node5 -->
<g id="node5" class="node">
<title>Node5</title>
<g id="a_node5"><a xlink:title=" ">
<polygon fill="none" stroke="#bfbfbf" points="282.6,-112.5 282.6,-131.5 344.6,-131.5 344.6,-112.5 282.6,-112.5"/>
<text text-anchor="middle" x="313.6" y="-119.5" font-family="Helvetica,sans-Serif" font-size="10.00">Runnable</text>
</a>
</g>
</g>
<!-- Node5&#45;&gt;Node2 -->
<g id="edge25" class="edge">
<title>Node5&#45;&gt;Node2</title>
<path fill="none" stroke="midnightblue" d="M272.35,-120.11C120.7,-113.48 54.88,-71.68 197.35,-67.36"/>
<polygon fill="midnightblue" stroke="midnightblue" points="272.34,-123.62 282.46,-120.5 272.61,-116.62 272.34,-123.62"/>
</g>
<!-- Node5&#45;&gt;Node2 -->
<g id="edge28" class="edge">
<title>Node5&#45;&gt;Node2</title>
<path fill="none" stroke="midnightblue" d="M272.27,-119.92C137.45,-112.74 73.58,-72.13 197.55,-67.44"/>
<polygon fill="midnightblue" stroke="midnightblue" points="272.37,-123.43 282.52,-120.39 272.7,-116.43 272.37,-123.43"/>
</g>
<!-- Node5&#45;&gt;Node2 -->
<g id="edge31" class="edge">
<title>Node5&#45;&gt;Node2</title>
<path fill="none" stroke="midnightblue" d="M272.22,-119.66C154.14,-111.88 92.57,-72.79 197.35,-67.58"/>
<polygon fill="midnightblue" stroke="midnightblue" points="272.13,-123.16 282.31,-120.24 272.53,-116.17 272.13,-123.16"/>
</g>
<!-- Node5&#45;&gt;Node2 -->
<g id="edge34" class="edge">
<title>Node5&#45;&gt;Node2</title>
<path fill="none" stroke="midnightblue" d="M272.49,-119.32C170.57,-110.9 111.6,-73.57 197.47,-67.76"/>
<polygon fill="midnightblue" stroke="midnightblue" points="272.26,-122.81 282.48,-120.04 272.76,-115.83 272.26,-122.81"/>
</g>
<!-- Node5&#45;&gt;Node2 -->
<g id="edge37" class="edge">
<title>Node5&#45;&gt;Node2</title>
<path fill="none" stroke="midnightblue" d="M272.45,-118.8C186.58,-109.64 131.12,-74.63 197.55,-68.07"/>
<polygon fill="midnightblue" stroke="midnightblue" points="272.22,-122.3 282.51,-119.74 272.87,-115.33 272.22,-122.3"/>
</g>
<!-- Node5&#45;&gt;Node2 -->
<g id="edge40" class="edge">
<title>Node5&#45;&gt;Node2</title>
<path fill="none" stroke="midnightblue" d="M272.47,-118.05C202.35,-108.14 151.43,-76.28 197.54,-68.65"/>
<polygon fill="midnightblue" stroke="midnightblue" points="272.12,-121.53 282.48,-119.29 272.99,-114.59 272.12,-121.53"/>
</g>
<!-- Node5&#45;&gt;Node2 -->
<g id="edge43" class="edge">
<title>Node5&#45;&gt;Node2</title>
<path fill="none" stroke="midnightblue" d="M271.99,-116.79C218.04,-106.32 173.94,-79.33 197.53,-70.13"/>
<polygon fill="midnightblue" stroke="midnightblue" points="271.72,-120.29 282.17,-118.54 272.91,-113.39 271.72,-120.29"/>
</g>
<!-- Node5&#45;&gt;Node2 -->
<g id="edge46" class="edge">
<title>Node5&#45;&gt;Node2</title>
<path fill="none" stroke="midnightblue" d="M272.19,-114.94C236.47,-105.4 203.6,-86.85 201.45,-75.83"/>
<polygon fill="midnightblue" stroke="midnightblue" points="271.78,-118.44 282.32,-117.37 273.42,-111.63 271.78,-118.44"/>
</g>
<!-- Node5&#45;&gt;Node2 -->
<g id="edge49" class="edge">
<title>Node5&#45;&gt;Node2</title>
<path fill="none" stroke="midnightblue" d="M272.64,-112.04C245.14,-101.99 217.88,-85.78 211.72,-75.8"/>
<polygon fill="midnightblue" stroke="midnightblue" points="271.75,-115.44 282.34,-115.32 273.99,-108.81 271.75,-115.44"/>
</g>
<!-- Node5&#45;&gt;Node2 -->
<g id="edge52" class="edge">
<title>Node5&#45;&gt;Node2</title>
<path fill="none" stroke="midnightblue" d="M274.58,-108.23C253.26,-98.13 230.72,-84.31 221.72,-75.52"/>
<polygon fill="midnightblue" stroke="midnightblue" points="273.36,-111.52 283.92,-112.44 276.24,-105.14 273.36,-111.52"/>
</g>
<!-- Node5&#45;&gt;Node2 -->
<g id="edge55" class="edge">
<title>Node5&#45;&gt;Node2</title>
<path fill="none" stroke="midnightblue" d="M284.83,-107.45C266.73,-97.48 244.66,-84.23 232.08,-75.65"/>
<polygon fill="midnightblue" stroke="midnightblue" points="283.4,-110.66 293.87,-112.32 286.73,-104.5 283.4,-110.66"/>
</g>
<!-- Node5&#45;&gt;Node2 -->
<g id="edge58" class="edge">
<title>Node5&#45;&gt;Node2</title>
<path fill="none" stroke="midnightblue" d="M295.42,-106.62C279.98,-96.76 258.16,-83.99 242.3,-75.65"/>
<polygon fill="midnightblue" stroke="midnightblue" points="293.82,-109.76 304.1,-112.32 297.66,-103.91 293.82,-109.76"/>
</g>
<!-- Node5&#45;&gt;Node2 -->
<g id="edge61" class="edge">
<title>Node5&#45;&gt;Node2</title>
<path fill="none" stroke="midnightblue" d="M306.57,-105.92C292.33,-95.37 267.96,-81.79 247.99,-73.77"/>
<polygon fill="midnightblue" stroke="midnightblue" points="304.39,-108.65 314.33,-112.32 308.85,-103.26 304.39,-108.65"/>
</g>
<!-- Node5&#45;&gt;Node2 -->
<g id="edge64" class="edge">
<title>Node5&#45;&gt;Node2</title>
<path fill="none" stroke="midnightblue" d="M317.28,-104.6C303.14,-92.85 273.75,-77.92 247.86,-70.94"/>
<polygon fill="midnightblue" stroke="midnightblue" points="314.98,-107.25 324.41,-112.08 320.05,-102.43 314.98,-107.25"/>
</g>
<!-- Node5&#45;&gt;Node2 -->
<g id="edge67" class="edge">
<title>Node5&#45;&gt;Node2</title>
<path fill="none" stroke="midnightblue" d="M328.87,-103.7C315.33,-91.14 280.93,-75.36 247.7,-69.41"/>
<polygon fill="midnightblue" stroke="midnightblue" points="326.14,-105.89 334.74,-112.08 331.88,-101.88 326.14,-105.89"/>
</g>
<!-- Node5&#45;&gt;Node2 -->
<g id="edge70" class="edge">
<title>Node5&#45;&gt;Node2</title>
<path fill="none" stroke="midnightblue" d="M341.41,-103.52C329.29,-90.38 289.77,-73.8 247.9,-68.62"/>
<polygon fill="midnightblue" stroke="midnightblue" points="338.14,-104.77 344.77,-113.03 344.74,-102.44 338.14,-104.77"/>
</g>
<!-- Node5&#45;&gt;Node2 -->
<g id="edge73" class="edge">
<title>Node5&#45;&gt;Node2</title>
<path fill="none" stroke="midnightblue" d="M354.16,-113.57C368.02,-100.41 313.32,-73.86 247.68,-68.11"/>
<polygon fill="midnightblue" stroke="midnightblue" points="352.39,-110.54 344.89,-118.02 355.42,-116.85 352.39,-110.54"/>
</g>
<!-- Node5&#45;&gt;Node2 -->
<g id="edge76" class="edge">
<title>Node5&#45;&gt;Node2</title>
<path fill="none" stroke="midnightblue" d="M354.61,-117.27C396.71,-106.12 333.78,-73.43 247.76,-67.82"/>
<polygon fill="midnightblue" stroke="midnightblue" points="353.91,-113.85 344.77,-119.2 355.25,-120.72 353.91,-113.85"/>
</g>
<!-- Node5&#45;&gt;Node2 -->
<g id="edge79" class="edge">
<title>Node5&#45;&gt;Node2</title>
<path fill="none" stroke="midnightblue" d="M354.68,-118.58C419.48,-108.85 351.88,-72.86 247.93,-67.64"/>
<polygon fill="midnightblue" stroke="midnightblue" points="354.17,-115.11 344.65,-119.77 354.99,-122.07 354.17,-115.11"/>
</g>
<!-- Node5&#45;&gt;Node2 -->
<g id="edge82" class="edge">
<title>Node5&#45;&gt;Node2</title>
<path fill="none" stroke="midnightblue" d="M354.75,-119.26C440.56,-110.58 369.35,-72.25 247.64,-67.49"/>
<polygon fill="midnightblue" stroke="midnightblue" points="354.42,-115.77 344.74,-120.09 355,-122.75 354.42,-115.77"/>
</g>
<!-- Node5&#45;&gt;Node2 -->
<g id="edge85" class="edge">
<title>Node5&#45;&gt;Node2</title>
<path fill="none" stroke="midnightblue" d="M354.75,-119.68C460.74,-111.86 386.91,-71.8 247.68,-67.39"/>
<polygon fill="midnightblue" stroke="midnightblue" points="354.42,-116.19 344.66,-120.3 354.85,-123.18 354.42,-116.19"/>
</g>
<!-- Node5&#45;&gt;Node2 -->
<g id="edge88" class="edge">
<title>Node5&#45;&gt;Node2</title>
<path fill="none" stroke="midnightblue" d="M355.08,-119.94C480.19,-112.76 404.41,-71.45 247.98,-67.33"/>
<polygon fill="midnightblue" stroke="midnightblue" points="354.71,-116.45 344.89,-120.43 355.05,-123.45 354.71,-116.45"/>
</g>
</g>
</svg>
