<?xml version="1.0" encoding="UTF-8" standalone="no"?>
<!DOCTYPE svg PUBLIC "-//W3C//DTD SVG 1.1//EN"
 "http://www.w3.org/Graphics/SVG/1.1/DTD/svg11.dtd">
<!-- Generated by graphviz version 2.50.0 (0)
 -->
<!-- Title: GlgIonicGui Pages: 1 -->
<svg width="399pt" height="140pt"
 viewBox="0.00 0.00 399.16 140.00" xmlns="http://www.w3.org/2000/svg" xmlns:xlink="http://www.w3.org/1999/xlink">
<g id="graph0" class="graph" transform="scale(1 1) rotate(0) translate(4 136)">
<title>GlgIonicGui</title>
<!-- Node1 -->
<g id="node1" class="node">
<title>Node1</title>
<g id="a_node1"><a xlink:title=" ">
<polygon fill="#bfbfbf" stroke="black" points="151.66,-0.5 151.66,-19.5 224.66,-19.5 224.66,-0.5 151.66,-0.5"/>
<text text-anchor="middle" x="188.16" y="-7.5" font-family="Helvetica,sans-Serif" font-size="10.00">GlgIonicGui</text>
</a>
</g>
</g>
<!-- Node2 -->
<g id="node2" class="node">
<title>Node2</title>
<g id="a_node2"><a xlink:href="classGlgChildGui.html" target="_top" xlink:title=" ">
<polygon fill="none" stroke="black" points="151.16,-56.5 151.16,-75.5 225.16,-75.5 225.16,-56.5 151.16,-56.5"/>
<text text-anchor="middle" x="188.16" y="-63.5" font-family="Helvetica,sans-Serif" font-size="10.00">GlgChildGui</text>
</a>
</g>
</g>
<!-- Node2&#45;&gt;Node1 -->
<g id="edge1" class="edge">
<title>Node2&#45;&gt;Node1</title>
<path fill="none" stroke="midnightblue" d="M141.93,-52.62C128.99,-41.66 132.22,-26.1 151.64,-17.45"/>
<polygon fill="midnightblue" stroke="midnightblue" points="140.44,-55.82 150.78,-58.16 144.16,-49.89 140.44,-55.82"/>
</g>
<!-- Node2&#45;&gt;Node1 -->
<g id="edge70" class="edge">
<title>Node2&#45;&gt;Node1</title>
<path fill="none" stroke="midnightblue" d="M150.62,-48.68C145.09,-39.2 147.31,-27.63 157.27,-19.83"/>
<polygon fill="midnightblue" stroke="midnightblue" points="148.19,-51.21 157.47,-56.32 153.41,-46.54 148.19,-51.21"/>
</g>
<!-- Node2&#45;&gt;Node1 -->
<g id="edge71" class="edge">
<title>Node2&#45;&gt;Node1</title>
<path fill="none" stroke="midnightblue" d="M162.63,-47.27C159.6,-38.05 161.27,-27.17 167.64,-19.75"/>
<polygon fill="midnightblue" stroke="midnightblue" points="159.6,-49.02 167.5,-56.08 165.73,-45.64 159.6,-49.02"/>
</g>
<!-- Node2&#45;&gt;Node1 -->
<g id="edge72" class="edge">
<title>Node2&#45;&gt;Node1</title>
<path fill="none" stroke="midnightblue" d="M175.26,-46.4C173.94,-37.36 174.82,-26.94 177.9,-19.75"/>
<polygon fill="midnightblue" stroke="midnightblue" points="171.88,-47.31 177.83,-56.08 178.65,-45.52 171.88,-47.31"/>
</g>
<!-- Node2&#45;&gt;Node1 -->
<g id="edge73" class="edge">
<title>Node2&#45;&gt;Node1</title>
<path fill="none" stroke="midnightblue" d="M188.16,-45.8C188.16,-36.91 188.16,-26.78 188.16,-19.75"/>
<polygon fill="midnightblue" stroke="midnightblue" points="184.66,-46.08 188.16,-56.08 191.66,-46.08 184.66,-46.08"/>
</g>
<!-- Node2&#45;&gt;Node1 -->
<g id="edge74" class="edge">
<title>Node2&#45;&gt;Node1</title>
<path fill="none" stroke="midnightblue" d="M201.07,-46.4C202.39,-37.36 201.51,-26.94 198.43,-19.75"/>
<polygon fill="midnightblue" stroke="midnightblue" points="197.68,-45.52 198.5,-56.08 204.44,-47.31 197.68,-45.52"/>
</g>
<!-- Node2&#45;&gt;Node1 -->
<g id="edge75" class="edge">
<title>Node2&#45;&gt;Node1</title>
<path fill="none" stroke="midnightblue" d="M213.69,-47.27C216.73,-38.05 215.06,-27.17 208.69,-19.75"/>
<polygon fill="midnightblue" stroke="midnightblue" points="210.6,-45.64 208.83,-56.08 216.73,-49.02 210.6,-45.64"/>
</g>
<!-- Node2&#45;&gt;Node1 -->
<g id="edge76" class="edge">
<title>Node2&#45;&gt;Node1</title>
<path fill="none" stroke="midnightblue" d="M225.7,-48.68C231.23,-39.2 229.02,-27.63 219.06,-19.83"/>
<polygon fill="midnightblue" stroke="midnightblue" points="222.92,-46.54 218.85,-56.32 228.13,-51.21 222.92,-46.54"/>
</g>
<!-- Node2&#45;&gt;Node1 -->
<g id="edge77" class="edge">
<title>Node2&#45;&gt;Node1</title>
<path fill="none" stroke="midnightblue" d="M234.4,-52.62C247.34,-41.66 244.1,-26.1 224.69,-17.45"/>
<polygon fill="midnightblue" stroke="midnightblue" points="232.17,-49.89 225.55,-58.16 235.88,-55.82 232.17,-49.89"/>
</g>
<!-- Node3 -->
<g id="node3" class="node">
<title>Node3</title>
<g id="a_node3"><a xlink:title=" ">
<polygon fill="none" stroke="#bfbfbf" points="83.16,-112.5 83.16,-131.5 133.16,-131.5 133.16,-112.5 83.16,-112.5"/>
<text text-anchor="middle" x="108.16" y="-119.5" font-family="Helvetica,sans-Serif" font-size="10.00">JFrame</text>
</a>
</g>
</g>
<!-- Node3&#45;&gt;Node2 -->
<g id="edge2" class="edge">
<title>Node3&#45;&gt;Node2</title>
<path fill="none" stroke="midnightblue" d="M72.64,-120.26C-58.72,-114.24 1.45,-73.7 150.75,-67.73"/>
<polygon fill="midnightblue" stroke="midnightblue" points="72.74,-123.76 82.86,-120.64 73,-116.77 72.74,-123.76"/>
</g>
<!-- Node3&#45;&gt;Node2 -->
<g id="edge5" class="edge">
<title>Node3&#45;&gt;Node2</title>
<path fill="none" stroke="midnightblue" d="M72.51,-120.06C-39.69,-113.46 18.73,-74.28 150.93,-67.88"/>
<polygon fill="midnightblue" stroke="midnightblue" points="72.6,-123.57 82.76,-120.55 72.94,-116.57 72.6,-123.57"/>
</g>
<!-- Node3&#45;&gt;Node2 -->
<g id="edge8" class="edge">
<title>Node3&#45;&gt;Node2</title>
<path fill="none" stroke="midnightblue" d="M72.76,-119.79C-20.51,-112.56 35.73,-74.99 151.08,-68.09"/>
<polygon fill="midnightblue" stroke="midnightblue" points="72.7,-123.3 82.9,-120.43 73.14,-116.31 72.7,-123.3"/>
</g>
<!-- Node3&#45;&gt;Node2 -->
<g id="edge11" class="edge">
<title>Node3&#45;&gt;Node2</title>
<path fill="none" stroke="midnightblue" d="M72.95,-119.38C-0.88,-111.35 52.6,-75.85 151.16,-68.38"/>
<polygon fill="midnightblue" stroke="midnightblue" points="72.87,-122.89 83.13,-120.26 73.47,-115.91 72.87,-122.89"/>
</g>
<!-- Node3&#45;&gt;Node2 -->
<g id="edge14" class="edge">
<title>Node3&#45;&gt;Node2</title>
<path fill="none" stroke="midnightblue" d="M72.76,-118.6C19.76,-109.46 69.52,-76.89 151.06,-68.82"/>
<polygon fill="midnightblue" stroke="midnightblue" points="72.64,-122.12 83.01,-119.95 73.55,-115.18 72.64,-122.12"/>
</g>
<!-- Node3&#45;&gt;Node2 -->
<g id="edge17" class="edge">
<title>Node3&#45;&gt;Node2</title>
<path fill="none" stroke="midnightblue" d="M72.87,-117.01C42,-106.46 86.65,-78.06 150.99,-69.48"/>
<polygon fill="midnightblue" stroke="midnightblue" points="72.46,-120.51 83,-119.38 74.06,-113.69 72.46,-120.51"/>
</g>
<!-- Node3&#45;&gt;Node2 -->
<g id="edge20" class="edge">
<title>Node3&#45;&gt;Node2</title>
<path fill="none" stroke="midnightblue" d="M74.92,-112.19C69.6,-100.1 105.77,-78.9 150.91,-70.54"/>
<polygon fill="midnightblue" stroke="midnightblue" points="72.94,-115.08 83.1,-118.1 77.04,-109.4 72.94,-115.08"/>
</g>
<!-- Node3&#45;&gt;Node2 -->
<g id="edge23" class="edge">
<title>Node3&#45;&gt;Node2</title>
<path fill="none" stroke="midnightblue" d="M89.97,-103.03C99.92,-92.26 124.22,-79.32 150.98,-72.25"/>
<polygon fill="midnightblue" stroke="midnightblue" points="86.76,-101.6 85.21,-112.08 92.96,-104.86 86.76,-101.6"/>
</g>
<!-- Node3&#45;&gt;Node2 -->
<g id="edge26" class="edge">
<title>Node3&#45;&gt;Node2</title>
<path fill="none" stroke="midnightblue" d="M101.76,-103.99C111.67,-94.39 130.97,-82.83 150.91,-75.22"/>
<polygon fill="midnightblue" stroke="midnightblue" points="98.86,-102.02 95.54,-112.08 104.41,-106.28 98.86,-102.02"/>
</g>
<!-- Node3&#45;&gt;Node2 -->
<g id="edge29" class="edge">
<title>Node3&#45;&gt;Node2</title>
<path fill="none" stroke="midnightblue" d="M113.24,-104.96C124.62,-95.32 143.35,-83.45 160.18,-75.57"/>
<polygon fill="midnightblue" stroke="midnightblue" points="110.63,-102.61 105.87,-112.08 115.5,-107.65 110.63,-102.61"/>
</g>
<!-- Node3&#45;&gt;Node2 -->
<g id="edge32" class="edge">
<title>Node3&#45;&gt;Node2</title>
<path fill="none" stroke="midnightblue" d="M124.18,-106.06C137.57,-96.28 156.34,-83.83 170.23,-75.65"/>
<polygon fill="midnightblue" stroke="midnightblue" points="121.77,-103.5 115.9,-112.32 125.99,-109.08 121.77,-103.5"/>
</g>
<!-- Node3&#45;&gt;Node2 -->
<g id="edge35" class="edge">
<title>Node3&#45;&gt;Node2</title>
<path fill="none" stroke="midnightblue" d="M135.01,-106.94C150.8,-97.1 169.53,-84.26 180.22,-75.83"/>
<polygon fill="midnightblue" stroke="midnightblue" points="132.86,-104.14 126.13,-112.32 136.5,-110.13 132.86,-104.14"/>
</g>
<!-- Node3&#45;&gt;Node2 -->
<g id="edge38" class="edge">
<title>Node3&#45;&gt;Node2</title>
<path fill="none" stroke="midnightblue" d="M142.34,-109.39C162.24,-99.24 183.18,-84.73 190.73,-75.59"/>
<polygon fill="midnightblue" stroke="midnightblue" points="140.82,-106.24 133.32,-113.72 143.85,-112.55 140.82,-106.24"/>
</g>
<!-- Node3&#45;&gt;Node2 -->
<g id="edge42" class="edge">
<title>Node3&#45;&gt;Node2</title>
<path fill="none" stroke="midnightblue" d="M142.95,-113.7C170.12,-103.8 196.78,-86.15 200.91,-75.62"/>
<polygon fill="midnightblue" stroke="midnightblue" points="141.76,-110.41 133.35,-116.85 143.94,-117.06 141.76,-110.41"/>
</g>
<!-- Node3&#45;&gt;Node2 -->
<g id="edge45" class="edge">
<title>Node3&#45;&gt;Node2</title>
<path fill="none" stroke="midnightblue" d="M143.2,-116.31C179.44,-107.2 211.81,-87.04 211.11,-75.51"/>
<polygon fill="midnightblue" stroke="midnightblue" points="142.42,-112.89 133.41,-118.47 143.93,-119.73 142.42,-112.89"/>
</g>
<!-- Node3&#45;&gt;Node2 -->
<g id="edge48" class="edge">
<title>Node3&#45;&gt;Node2</title>
<path fill="none" stroke="midnightblue" d="M143.58,-117.79C189.91,-109.61 227.35,-87.74 221.27,-75.53"/>
<polygon fill="midnightblue" stroke="midnightblue" points="142.93,-114.35 133.57,-119.32 143.99,-121.27 142.93,-114.35"/>
</g>
<!-- Node3&#45;&gt;Node2 -->
<g id="edge51" class="edge">
<title>Node3&#45;&gt;Node2</title>
<path fill="none" stroke="midnightblue" d="M143.17,-118.8C207.23,-110.76 252.64,-82.92 225.41,-71.72"/>
<polygon fill="midnightblue" stroke="midnightblue" points="142.73,-115.32 133.16,-119.87 143.48,-122.28 142.73,-115.32"/>
</g>
<!-- Node3&#45;&gt;Node2 -->
<g id="edge54" class="edge">
<title>Node3&#45;&gt;Node2</title>
<path fill="none" stroke="midnightblue" d="M143.33,-119.37C225.09,-111.71 275.84,-79.35 225.32,-69.72"/>
<polygon fill="midnightblue" stroke="midnightblue" points="142.9,-115.89 133.21,-120.17 143.46,-122.87 142.9,-115.89"/>
</g>
<!-- Node3&#45;&gt;Node2 -->
<g id="edge57" class="edge">
<title>Node3&#45;&gt;Node2</title>
<path fill="none" stroke="midnightblue" d="M143.18,-119.76C242.02,-112.7 296.61,-77.41 225.54,-68.87"/>
<polygon fill="midnightblue" stroke="midnightblue" points="142.93,-116.27 133.17,-120.37 143.36,-123.26 142.93,-116.27"/>
</g>
<!-- Node3&#45;&gt;Node2 -->
<g id="edge60" class="edge">
<title>Node3&#45;&gt;Node2</title>
<path fill="none" stroke="midnightblue" d="M143.69,-120C259.39,-113.39 316.56,-75.93 225.26,-68.34"/>
<polygon fill="midnightblue" stroke="midnightblue" points="143.25,-116.52 133.43,-120.5 143.59,-123.51 143.25,-116.52"/>
</g>
<!-- Node3&#45;&gt;Node2 -->
<g id="edge63" class="edge">
<title>Node3&#45;&gt;Node2</title>
<path fill="none" stroke="midnightblue" d="M143.6,-120.2C276.42,-114.1 335.94,-74.95 225.45,-68.04"/>
<polygon fill="midnightblue" stroke="midnightblue" points="143.34,-116.71 133.49,-120.6 143.62,-123.7 143.34,-116.71"/>
</g>
<!-- Node3&#45;&gt;Node2 -->
<g id="edge67" class="edge">
<title>Node3&#45;&gt;Node2</title>
<path fill="none" stroke="midnightblue" d="M143.26,-120.36C293.67,-114.75 355.25,-74.1 225.19,-67.82"/>
<polygon fill="midnightblue" stroke="midnightblue" points="143.11,-116.86 133.22,-120.68 143.33,-123.86 143.11,-116.86"/>
</g>
<!-- Node4 -->
<g id="node4" class="node">
<title>Node4</title>
<g id="a_node4"><a xlink:href="interfaceChannelList.html" target="_top" xlink:title=" ">
<polygon fill="none" stroke="black" points="151.16,-112.5 151.16,-131.5 225.16,-131.5 225.16,-112.5 151.16,-112.5"/>
<text text-anchor="middle" x="188.16" y="-119.5" font-family="Helvetica,sans-Serif" font-size="10.00">ChannelList</text>
</a>
</g>
</g>
<!-- Node4&#45;&gt;Node2 -->
<g id="edge3" class="edge">
<title>Node4&#45;&gt;Node2</title>
<path fill="none" stroke="midnightblue" d="M140.74,-119.71C11.69,-112.15 15.06,-73.72 150.85,-67.77"/>
<polygon fill="midnightblue" stroke="midnightblue" points="140.93,-123.22 151.1,-120.24 141.29,-116.23 140.93,-123.22"/>
</g>
<!-- Node4&#45;&gt;Node2 -->
<g id="edge6" class="edge">
<title>Node4&#45;&gt;Node2</title>
<path fill="none" stroke="midnightblue" d="M140.79,-119.4C29.72,-111.24 33.05,-74.4 150.78,-67.96"/>
<polygon fill="midnightblue" stroke="midnightblue" points="140.59,-122.9 150.79,-120.04 141.04,-115.91 140.59,-122.9"/>
</g>
<!-- Node4&#45;&gt;Node2 -->
<g id="edge9" class="edge">
<title>Node4&#45;&gt;Node2</title>
<path fill="none" stroke="midnightblue" d="M140.75,-118.96C47.69,-110.1 51.09,-75.16 150.96,-68.21"/>
<polygon fill="midnightblue" stroke="midnightblue" points="140.75,-122.47 151,-119.8 141.32,-115.49 140.75,-122.47"/>
</g>
<!-- Node4&#45;&gt;Node2 -->
<g id="edge12" class="edge">
<title>Node4&#45;&gt;Node2</title>
<path fill="none" stroke="midnightblue" d="M140.83,-118.31C65.73,-108.69 69.09,-76.16 150.89,-68.59"/>
<polygon fill="midnightblue" stroke="midnightblue" points="140.57,-121.8 150.89,-119.41 141.34,-114.84 140.57,-121.8"/>
</g>
<!-- Node4&#45;&gt;Node2 -->
<g id="edge15" class="edge">
<title>Node4&#45;&gt;Node2</title>
<path fill="none" stroke="midnightblue" d="M140.95,-117.29C83.73,-106.83 87.09,-77.38 151.02,-69.16"/>
<polygon fill="midnightblue" stroke="midnightblue" points="140.65,-120.78 151.07,-118.85 141.72,-113.86 140.65,-120.78"/>
</g>
<!-- Node4&#45;&gt;Node2 -->
<g id="edge18" class="edge">
<title>Node4&#45;&gt;Node2</title>
<path fill="none" stroke="midnightblue" d="M140.83,-115.44C101.83,-104.18 105.21,-78.99 150.99,-70.15"/>
<polygon fill="midnightblue" stroke="midnightblue" points="140.49,-118.96 151.03,-117.86 142.11,-112.15 140.49,-118.96"/>
</g>
<!-- Node4&#45;&gt;Node2 -->
<g id="edge21" class="edge">
<title>Node4&#45;&gt;Node2</title>
<path fill="none" stroke="midnightblue" d="M141.65,-112.07C120.02,-100.67 123.04,-81.31 150.7,-72.13"/>
<polygon fill="midnightblue" stroke="midnightblue" points="140.57,-115.41 151.14,-116.02 143.25,-108.95 140.57,-115.41"/>
</g>
<!-- Node4&#45;&gt;Node2 -->
<g id="edge24" class="edge">
<title>Node4&#45;&gt;Node2</title>
<path fill="none" stroke="midnightblue" d="M144.94,-105.49C137.72,-95.8 140.2,-83.68 152.39,-75.65"/>
<polygon fill="midnightblue" stroke="midnightblue" points="142.63,-108.12 152.36,-112.32 147.38,-102.97 142.63,-108.12"/>
</g>
<!-- Node4&#45;&gt;Node2 -->
<g id="edge27" class="edge">
<title>Node4&#45;&gt;Node2</title>
<path fill="none" stroke="midnightblue" d="M156.61,-104.1C152.35,-94.74 154.29,-83.48 162.42,-75.83"/>
<polygon fill="midnightblue" stroke="midnightblue" points="153.88,-106.3 162.59,-112.32 159.54,-102.18 153.88,-106.3"/>
</g>
<!-- Node4&#45;&gt;Node2 -->
<g id="edge30" class="edge">
<title>Node4&#45;&gt;Node2</title>
<path fill="none" stroke="midnightblue" d="M168.88,-102.69C166.79,-93.59 168.09,-83.01 172.77,-75.75"/>
<polygon fill="midnightblue" stroke="midnightblue" points="165.68,-104.12 172.66,-112.08 172.17,-101.5 165.68,-104.12"/>
</g>
<!-- Node4&#45;&gt;Node2 -->
<g id="edge33" class="edge">
<title>Node4&#45;&gt;Node2</title>
<path fill="none" stroke="midnightblue" d="M181.69,-102.1C181.06,-93.14 181.51,-82.86 183.03,-75.75"/>
<polygon fill="midnightblue" stroke="midnightblue" points="178.23,-102.62 183,-112.08 185.17,-101.71 178.23,-102.62"/>
</g>
<!-- Node4&#45;&gt;Node2 -->
<g id="edge36" class="edge">
<title>Node4&#45;&gt;Node2</title>
<path fill="none" stroke="midnightblue" d="M194.64,-102.1C195.27,-93.14 194.82,-82.86 193.29,-75.75"/>
<polygon fill="midnightblue" stroke="midnightblue" points="191.16,-101.71 193.33,-112.08 198.1,-102.62 191.16,-101.71"/>
</g>
<!-- Node4&#45;&gt;Node2 -->
<g id="edge39" class="edge">
<title>Node4&#45;&gt;Node2</title>
<path fill="none" stroke="midnightblue" d="M207.45,-102.69C209.53,-93.59 208.24,-83.01 203.56,-75.75"/>
<polygon fill="midnightblue" stroke="midnightblue" points="204.16,-101.5 203.66,-112.08 210.65,-104.12 204.16,-101.5"/>
</g>
<!-- Node4&#45;&gt;Node2 -->
<g id="edge43" class="edge">
<title>Node4&#45;&gt;Node2</title>
<path fill="none" stroke="midnightblue" d="M219.72,-104.1C223.98,-94.74 222.04,-83.48 213.91,-75.83"/>
<polygon fill="midnightblue" stroke="midnightblue" points="216.79,-102.18 213.74,-112.32 222.45,-106.3 216.79,-102.18"/>
</g>
<!-- Node4&#45;&gt;Node2 -->
<g id="edge46" class="edge">
<title>Node4&#45;&gt;Node2</title>
<path fill="none" stroke="midnightblue" d="M231.38,-105.49C238.6,-95.8 236.12,-83.68 223.93,-75.65"/>
<polygon fill="midnightblue" stroke="midnightblue" points="228.95,-102.97 223.97,-112.32 233.69,-108.12 228.95,-102.97"/>
</g>
<!-- Node4&#45;&gt;Node2 -->
<g id="edge49" class="edge">
<title>Node4&#45;&gt;Node2</title>
<path fill="none" stroke="midnightblue" d="M234.68,-112.07C256.31,-100.67 253.29,-81.31 225.63,-72.13"/>
<polygon fill="midnightblue" stroke="midnightblue" points="233.08,-108.95 225.18,-116.02 235.76,-115.41 233.08,-108.95"/>
</g>
<!-- Node4&#45;&gt;Node2 -->
<g id="edge52" class="edge">
<title>Node4&#45;&gt;Node2</title>
<path fill="none" stroke="midnightblue" d="M235.49,-115.44C274.5,-104.18 271.12,-78.99 225.34,-70.15"/>
<polygon fill="midnightblue" stroke="midnightblue" points="234.22,-112.15 225.3,-117.86 235.83,-118.96 234.22,-112.15"/>
</g>
<!-- Node4&#45;&gt;Node2 -->
<g id="edge55" class="edge">
<title>Node4&#45;&gt;Node2</title>
<path fill="none" stroke="midnightblue" d="M235.38,-117.29C292.6,-106.83 289.24,-77.38 225.31,-69.16"/>
<polygon fill="midnightblue" stroke="midnightblue" points="234.61,-113.86 225.26,-118.85 235.68,-120.78 234.61,-113.86"/>
</g>
<!-- Node4&#45;&gt;Node2 -->
<g id="edge58" class="edge">
<title>Node4&#45;&gt;Node2</title>
<path fill="none" stroke="midnightblue" d="M235.5,-118.31C310.6,-108.69 307.24,-76.16 225.43,-68.59"/>
<polygon fill="midnightblue" stroke="midnightblue" points="234.99,-114.84 225.43,-119.41 235.76,-121.8 234.99,-114.84"/>
</g>
<!-- Node4&#45;&gt;Node2 -->
<g id="edge61" class="edge">
<title>Node4&#45;&gt;Node2</title>
<path fill="none" stroke="midnightblue" d="M235.57,-118.96C328.64,-110.1 325.24,-75.16 225.37,-68.21"/>
<polygon fill="midnightblue" stroke="midnightblue" points="235.01,-115.49 225.33,-119.8 235.58,-122.47 235.01,-115.49"/>
</g>
<!-- Node4&#45;&gt;Node2 -->
<g id="edge64" class="edge">
<title>Node4&#45;&gt;Node2</title>
<path fill="none" stroke="midnightblue" d="M235.54,-119.4C346.6,-111.24 343.28,-74.4 225.55,-67.96"/>
<polygon fill="midnightblue" stroke="midnightblue" points="235.29,-115.91 225.53,-120.04 235.74,-122.9 235.29,-115.91"/>
</g>
<!-- Node4&#45;&gt;Node2 -->
<g id="edge68" class="edge">
<title>Node4&#45;&gt;Node2</title>
<path fill="none" stroke="midnightblue" d="M235.58,-119.71C364.64,-112.15 361.27,-73.72 225.47,-67.77"/>
<polygon fill="midnightblue" stroke="midnightblue" points="235.04,-116.23 225.23,-120.24 235.39,-123.22 235.04,-116.23"/>
</g>
<!-- Node5 -->
<g id="node5" class="node">
<title>Node5</title>
<g id="a_node5"><a xlink:title=" ">
<polygon fill="none" stroke="#bfbfbf" points="243.16,-112.5 243.16,-131.5 305.16,-131.5 305.16,-112.5 243.16,-112.5"/>
<text text-anchor="middle" x="274.16" y="-119.5" font-family="Helvetica,sans-Serif" font-size="10.00">Runnable</text>
</a>
</g>
</g>
<!-- Node5&#45;&gt;Node2 -->
<g id="edge4" class="edge">
<title>Node5&#45;&gt;Node2</title>
<path fill="none" stroke="midnightblue" d="M232.84,-120.11C86.36,-113.65 23.78,-74.1 150.79,-67.84"/>
<polygon fill="midnightblue" stroke="midnightblue" points="232.94,-123.61 243.07,-120.5 233.21,-116.62 232.94,-123.61"/>
</g>
<!-- Node5&#45;&gt;Node2 -->
<g id="edge7" class="edge">
<title>Node5&#45;&gt;Node2</title>
<path fill="none" stroke="midnightblue" d="M232.87,-119.92C103.31,-112.97 42.84,-74.84 151.03,-68.04"/>
<polygon fill="midnightblue" stroke="midnightblue" points="232.99,-123.42 243.14,-120.39 233.31,-116.43 232.99,-123.42"/>
</g>
<!-- Node5&#45;&gt;Node2 -->
<g id="edge10" class="edge">
<title>Node5&#45;&gt;Node2</title>
<path fill="none" stroke="midnightblue" d="M232.95,-119.66C120.23,-112.2 62.28,-75.85 151.07,-68.35"/>
<polygon fill="midnightblue" stroke="midnightblue" points="232.76,-123.15 242.94,-120.24 233.16,-116.17 232.76,-123.15"/>
</g>
<!-- Node5&#45;&gt;Node2 -->
<g id="edge13" class="edge">
<title>Node5&#45;&gt;Node2</title>
<path fill="none" stroke="midnightblue" d="M233.1,-119.31C137.1,-111.3 82.26,-77.24 151.01,-68.86"/>
<polygon fill="midnightblue" stroke="midnightblue" points="232.9,-122.8 243.13,-120.04 233.41,-115.82 232.9,-122.8"/>
</g>
<!-- Node5&#45;&gt;Node2 -->
<g id="edge16" class="edge">
<title>Node5&#45;&gt;Node2</title>
<path fill="none" stroke="midnightblue" d="M232.57,-118.73C153.6,-110.09 103.23,-79.17 151.14,-69.75"/>
<polygon fill="midnightblue" stroke="midnightblue" points="232.57,-122.25 242.86,-119.72 233.24,-115.28 232.57,-122.25"/>
</g>
<!-- Node5&#45;&gt;Node2 -->
<g id="edge19" class="edge">
<title>Node5&#45;&gt;Node2</title>
<path fill="none" stroke="midnightblue" d="M232.89,-117.99C171.26,-109.08 126.62,-82.78 151.15,-71.85"/>
<polygon fill="midnightblue" stroke="midnightblue" points="232.56,-121.47 242.92,-119.26 233.44,-114.53 232.56,-121.47"/>
</g>
<!-- Node5&#45;&gt;Node2 -->
<g id="edge22" class="edge">
<title>Node5&#45;&gt;Node2</title>
<path fill="none" stroke="midnightblue" d="M232.98,-116.79C188.16,-107.95 151.49,-87.29 155.99,-75.55"/>
<polygon fill="midnightblue" stroke="midnightblue" points="232.5,-120.26 242.96,-118.54 233.71,-113.37 232.5,-120.26"/>
</g>
<!-- Node5&#45;&gt;Node2 -->
<g id="edge25" class="edge">
<title>Node5&#45;&gt;Node2</title>
<path fill="none" stroke="midnightblue" d="M232.96,-114.84C198.23,-105.26 167.25,-86.77 166.19,-75.8"/>
<polygon fill="midnightblue" stroke="midnightblue" points="232.28,-118.28 242.83,-117.29 233.97,-111.48 232.28,-118.28"/>
</g>
<!-- Node5&#45;&gt;Node2 -->
<g id="edge28" class="edge">
<title>Node5&#45;&gt;Node2</title>
<path fill="none" stroke="midnightblue" d="M233.38,-111.8C207.01,-101.72 181.6,-85.66 176.45,-75.76"/>
<polygon fill="midnightblue" stroke="midnightblue" points="232.51,-115.2 243.11,-115.22 234.84,-108.6 232.51,-115.2"/>
</g>
<!-- Node5&#45;&gt;Node2 -->
<g id="edge31" class="edge">
<title>Node5&#45;&gt;Node2</title>
<path fill="none" stroke="midnightblue" d="M236.05,-108.1C215.75,-98.01 194.64,-84.27 186.49,-75.52"/>
<polygon fill="midnightblue" stroke="midnightblue" points="234.73,-111.35 245.27,-112.44 237.72,-105.01 234.73,-111.35"/>
</g>
<!-- Node5&#45;&gt;Node2 -->
<g id="edge34" class="edge">
<title>Node5&#45;&gt;Node2</title>
<path fill="none" stroke="midnightblue" d="M246.23,-107.21C229.25,-97.34 208.82,-84.34 197.08,-75.83"/>
<polygon fill="midnightblue" stroke="midnightblue" points="244.81,-110.43 255.23,-112.32 248.26,-104.34 244.81,-110.43"/>
</g>
<!-- Node5&#45;&gt;Node2 -->
<g id="edge37" class="edge">
<title>Node5&#45;&gt;Node2</title>
<path fill="none" stroke="midnightblue" d="M256.9,-106.34C242.4,-96.52 222,-83.91 207.06,-75.65"/>
<polygon fill="midnightblue" stroke="midnightblue" points="255.26,-109.47 265.46,-112.32 259.27,-103.73 255.26,-109.47"/>
</g>
<!-- Node5&#45;&gt;Node2 -->
<g id="edge41" class="edge">
<title>Node5&#45;&gt;Node2</title>
<path fill="none" stroke="midnightblue" d="M267.67,-105.24C255.25,-95.56 234.98,-83.53 217.09,-75.57"/>
<polygon fill="midnightblue" stroke="midnightblue" points="265.64,-108.12 275.46,-112.08 270.26,-102.86 265.64,-108.12"/>
</g>
<!-- Node5&#45;&gt;Node2 -->
<g id="edge44" class="edge">
<title>Node5&#45;&gt;Node2</title>
<path fill="none" stroke="midnightblue" d="M279.23,-104.48C268.24,-94.64 246.84,-82.61 225.37,-74.88"/>
<polygon fill="midnightblue" stroke="midnightblue" points="276.61,-106.8 285.79,-112.08 281.91,-102.23 276.61,-106.8"/>
</g>
<!-- Node5&#45;&gt;Node2 -->
<g id="edge47" class="edge">
<title>Node5&#45;&gt;Node2</title>
<path fill="none" stroke="midnightblue" d="M290.65,-103.31C279.59,-92.41 253.36,-79.2 225.36,-72.1"/>
<polygon fill="midnightblue" stroke="midnightblue" points="287.86,-105.45 296.13,-112.08 293.8,-101.75 287.86,-105.45"/>
</g>
<!-- Node5&#45;&gt;Node2 -->
<g id="edge50" class="edge">
<title>Node5&#45;&gt;Node2</title>
<path fill="none" stroke="midnightblue" d="M303.81,-103.8C294.24,-91.9 262.16,-77.06 225.33,-70.45"/>
<polygon fill="midnightblue" stroke="midnightblue" points="300.41,-104.65 305.5,-113.94 307.31,-103.5 300.41,-104.65"/>
</g>
<!-- Node5&#45;&gt;Node2 -->
<g id="edge53" class="edge">
<title>Node5&#45;&gt;Node2</title>
<path fill="none" stroke="midnightblue" d="M314.94,-113.96C330.48,-101.78 285.32,-77.31 225.53,-69.47"/>
<polygon fill="midnightblue" stroke="midnightblue" points="313.21,-110.9 305.43,-118.1 316,-117.32 313.21,-110.9"/>
</g>
<!-- Node5&#45;&gt;Node2 -->
<g id="edge56" class="edge">
<title>Node5&#45;&gt;Node2</title>
<path fill="none" stroke="midnightblue" d="M315.39,-117.31C356.71,-106.72 304.3,-76.5 225.29,-68.8"/>
<polygon fill="midnightblue" stroke="midnightblue" points="314.66,-113.88 305.49,-119.2 315.97,-120.76 314.66,-113.88"/>
</g>
<!-- Node5&#45;&gt;Node2 -->
<g id="edge59" class="edge">
<title>Node5&#45;&gt;Node2</title>
<path fill="none" stroke="midnightblue" d="M315.51,-118.57C378.61,-109.2 321.63,-75.59 225.2,-68.37"/>
<polygon fill="midnightblue" stroke="midnightblue" points="314.85,-115.12 305.32,-119.77 315.66,-122.08 314.85,-115.12"/>
</g>
<!-- Node5&#45;&gt;Node2 -->
<g id="edge62" class="edge">
<title>Node5&#45;&gt;Node2</title>
<path fill="none" stroke="midnightblue" d="M315.41,-119.26C399.13,-110.9 338.93,-74.86 225.5,-68.1"/>
<polygon fill="midnightblue" stroke="midnightblue" points="315.07,-115.78 305.39,-120.09 315.64,-122.76 315.07,-115.78"/>
</g>
<!-- Node5&#45;&gt;Node2 -->
<g id="edge66" class="edge">
<title>Node5&#45;&gt;Node2</title>
<path fill="none" stroke="midnightblue" d="M315.46,-119.68C418.96,-112.08 356.03,-74.15 225.41,-67.88"/>
<polygon fill="midnightblue" stroke="midnightblue" points="315.05,-116.2 305.28,-120.3 315.48,-123.18 315.05,-116.2"/>
</g>
<!-- Node5&#45;&gt;Node2 -->
<g id="edge69" class="edge">
<title>Node5&#45;&gt;Node2</title>
<path fill="none" stroke="midnightblue" d="M315.5,-119.95C438.42,-113 373.17,-73.52 225.18,-67.71"/>
<polygon fill="midnightblue" stroke="midnightblue" points="315.33,-116.46 305.51,-120.43 315.66,-123.45 315.33,-116.46"/>
</g>
<!-- Node6 -->
<g id="node6" class="node">
<title>Node6</title>
<g id="a_node6"><a xlink:href="interfaceDataTypes.html" target="_top" xlink:title=" ">
<polygon fill="none" stroke="black" points="323.16,-112.5 323.16,-131.5 391.16,-131.5 391.16,-112.5 323.16,-112.5"/>
<text text-anchor="middle" x="357.16" y="-119.5" font-family="Helvetica,sans-Serif" font-size="10.00">DataTypes</text>
</a>
</g>
</g>
<!-- Node6&#45;&gt;Node2 -->
<g id="edge40" class="edge">
<title>Node6&#45;&gt;Node2</title>
<path fill="none" stroke="midnightblue" d="M315.32,-109.44C281.82,-99.26 236.35,-84.66 209.74,-75.52"/>
<polygon fill="midnightblue" stroke="midnightblue" points="314.71,-112.91 325.3,-112.44 316.73,-106.21 314.71,-112.91"/>
</g>
<!-- Node6&#45;&gt;Node2 -->
<g id="edge65" class="edge">
<title>Node6&#45;&gt;Node2</title>
<path fill="none" stroke="midnightblue" d="M325.84,-109.17C295.61,-99 250.28,-84.59 219.9,-75.52"/>
<polygon fill="midnightblue" stroke="midnightblue" points="324.88,-112.54 335.47,-112.44 327.13,-105.91 324.88,-112.54"/>
</g>
</g>
</svg>
