<?xml version="1.0" encoding="UTF-8" standalone="no"?>
<!DOCTYPE svg PUBLIC "-//W3C//DTD SVG 1.1//EN"
 "http://www.w3.org/Graphics/SVG/1.1/DTD/svg11.dtd">
<!-- Generated by graphviz version 2.50.0 (0)
 -->
<!-- Title: GlgTitane_32Gui.InputListener Pages: 1 -->
<svg width="172pt" height="84pt"
 viewBox="0.00 0.00 172.00 84.00" xmlns="http://www.w3.org/2000/svg" xmlns:xlink="http://www.w3.org/1999/xlink">
<g id="graph0" class="graph" transform="scale(1 1) rotate(0) translate(4 80)">
<title>GlgTitane_32Gui.InputListener</title>
<!-- Node1 -->
<g id="node1" class="node">
<title>Node1</title>
<g id="a_node1"><a xlink:title=" ">
<polygon fill="#bfbfbf" stroke="black" points="0,-0.5 0,-19.5 164,-19.5 164,-0.5 0,-0.5"/>
<text text-anchor="middle" x="82" y="-7.5" font-family="Helvetica,sans-Serif" font-size="10.00">GlgTitane_32Gui.InputListener</text>
</a>
</g>
</g>
<!-- Node2 -->
<g id="node2" class="node">
<title>Node2</title>
<g id="a_node2"><a xlink:title=" ">
<polygon fill="none" stroke="#bfbfbf" points="33.5,-56.5 33.5,-75.5 130.5,-75.5 130.5,-56.5 33.5,-56.5"/>
<text text-anchor="middle" x="82" y="-63.5" font-family="Helvetica,sans-Serif" font-size="10.00">GlgInputListener</text>
</a>
</g>
</g>
<!-- Node2&#45;&gt;Node1 -->
<g id="edge1" class="edge">
<title>Node2&#45;&gt;Node1</title>
<path fill="none" stroke="midnightblue" d="M33.11,-50.06C24.25,-40.28 26.92,-27.83 41.12,-19.65"/>
<polygon fill="midnightblue" stroke="midnightblue" points="31.05,-52.9 41.08,-56.32 35.38,-47.4 31.05,-52.9"/>
</g>
<!-- Node2&#45;&gt;Node1 -->
<g id="edge2" class="edge">
<title>Node2&#45;&gt;Node1</title>
<path fill="none" stroke="midnightblue" d="M44.46,-48.68C38.93,-39.2 41.15,-27.63 51.11,-19.83"/>
<polygon fill="midnightblue" stroke="midnightblue" points="42.03,-51.21 51.31,-56.32 47.24,-46.54 42.03,-51.21"/>
</g>
<!-- Node2&#45;&gt;Node1 -->
<g id="edge3" class="edge">
<title>Node2&#45;&gt;Node1</title>
<path fill="none" stroke="midnightblue" d="M56.47,-47.27C53.43,-38.05 55.1,-27.17 61.48,-19.75"/>
<polygon fill="midnightblue" stroke="midnightblue" points="53.44,-49.02 61.33,-56.08 59.56,-45.64 53.44,-49.02"/>
</g>
<!-- Node2&#45;&gt;Node1 -->
<g id="edge4" class="edge">
<title>Node2&#45;&gt;Node1</title>
<path fill="none" stroke="midnightblue" d="M69.1,-46.4C67.77,-37.36 68.65,-26.94 71.74,-19.75"/>
<polygon fill="midnightblue" stroke="midnightblue" points="65.72,-47.31 71.67,-56.08 72.49,-45.52 65.72,-47.31"/>
</g>
<!-- Node2&#45;&gt;Node1 -->
<g id="edge5" class="edge">
<title>Node2&#45;&gt;Node1</title>
<path fill="none" stroke="midnightblue" d="M82,-45.8C82,-36.91 82,-26.78 82,-19.75"/>
<polygon fill="midnightblue" stroke="midnightblue" points="78.5,-46.08 82,-56.08 85.5,-46.08 78.5,-46.08"/>
</g>
<!-- Node2&#45;&gt;Node1 -->
<g id="edge6" class="edge">
<title>Node2&#45;&gt;Node1</title>
<path fill="none" stroke="midnightblue" d="M94.9,-46.4C96.23,-37.36 95.35,-26.94 92.26,-19.75"/>
<polygon fill="midnightblue" stroke="midnightblue" points="91.51,-45.52 92.33,-56.08 98.28,-47.31 91.51,-45.52"/>
</g>
<!-- Node2&#45;&gt;Node1 -->
<g id="edge7" class="edge">
<title>Node2&#45;&gt;Node1</title>
<path fill="none" stroke="midnightblue" d="M107.53,-47.27C110.57,-38.05 108.9,-27.17 102.52,-19.75"/>
<polygon fill="midnightblue" stroke="midnightblue" points="104.44,-45.64 102.67,-56.08 110.56,-49.02 104.44,-45.64"/>
</g>
<!-- Node2&#45;&gt;Node1 -->
<g id="edge8" class="edge">
<title>Node2&#45;&gt;Node1</title>
<path fill="none" stroke="midnightblue" d="M119.54,-48.68C125.07,-39.2 122.85,-27.63 112.89,-19.83"/>
<polygon fill="midnightblue" stroke="midnightblue" points="116.76,-46.54 112.69,-56.32 121.97,-51.21 116.76,-46.54"/>
</g>
<!-- Node2&#45;&gt;Node1 -->
<g id="edge9" class="edge">
<title>Node2&#45;&gt;Node1</title>
<path fill="none" stroke="midnightblue" d="M130.89,-50.06C139.75,-40.28 137.08,-27.83 122.88,-19.65"/>
<polygon fill="midnightblue" stroke="midnightblue" points="128.62,-47.4 122.92,-56.32 132.95,-52.9 128.62,-47.4"/>
</g>
</g>
</svg>
