<?xml version="1.0" encoding="UTF-8" standalone="no"?>
<!DOCTYPE svg PUBLIC "-//W3C//DTD SVG 1.1//EN"
 "http://www.w3.org/Graphics/SVG/1.1/DTD/svg11.dtd">
<!-- Generated by graphviz version 2.50.0 (0)
 -->
<!-- Title: GlgRGAGui.InputListener Pages: 1 -->
<svg width="145pt" height="84pt"
 viewBox="0.00 0.00 145.00 84.00" xmlns="http://www.w3.org/2000/svg" xmlns:xlink="http://www.w3.org/1999/xlink">
<g id="graph0" class="graph" transform="scale(1 1) rotate(0) translate(4 80)">
<title>GlgRGAGui.InputListener</title>
<!-- Node1 -->
<g id="node1" class="node">
<title>Node1</title>
<g id="a_node1"><a xlink:title=" ">
<polygon fill="#bfbfbf" stroke="black" points="0,-0.5 0,-19.5 137,-19.5 137,-0.5 0,-0.5"/>
<text text-anchor="middle" x="68.5" y="-7.5" font-family="Helvetica,sans-Serif" font-size="10.00">GlgRGAGui.InputListener</text>
</a>
</g>
</g>
<!-- Node2 -->
<g id="node2" class="node">
<title>Node2</title>
<g id="a_node2"><a xlink:title=" ">
<polygon fill="none" stroke="#bfbfbf" points="20,-56.5 20,-75.5 117,-75.5 117,-56.5 20,-56.5"/>
<text text-anchor="middle" x="68.5" y="-63.5" font-family="Helvetica,sans-Serif" font-size="10.00">GlgInputListener</text>
</a>
</g>
</g>
<!-- Node2&#45;&gt;Node1 -->
<g id="edge1" class="edge">
<title>Node2&#45;&gt;Node1</title>
<path fill="none" stroke="midnightblue" d="M30.96,-48.68C25.43,-39.2 27.65,-27.63 37.61,-19.83"/>
<polygon fill="midnightblue" stroke="midnightblue" points="28.53,-51.21 37.81,-56.32 33.74,-46.54 28.53,-51.21"/>
</g>
<!-- Node2&#45;&gt;Node1 -->
<g id="edge2" class="edge">
<title>Node2&#45;&gt;Node1</title>
<path fill="none" stroke="midnightblue" d="M42.97,-47.27C39.93,-38.05 41.6,-27.17 47.98,-19.75"/>
<polygon fill="midnightblue" stroke="midnightblue" points="39.94,-49.02 47.83,-56.08 46.06,-45.64 39.94,-49.02"/>
</g>
<!-- Node2&#45;&gt;Node1 -->
<g id="edge3" class="edge">
<title>Node2&#45;&gt;Node1</title>
<path fill="none" stroke="midnightblue" d="M55.6,-46.4C54.27,-37.36 55.15,-26.94 58.24,-19.75"/>
<polygon fill="midnightblue" stroke="midnightblue" points="52.22,-47.31 58.17,-56.08 58.99,-45.52 52.22,-47.31"/>
</g>
<!-- Node2&#45;&gt;Node1 -->
<g id="edge4" class="edge">
<title>Node2&#45;&gt;Node1</title>
<path fill="none" stroke="midnightblue" d="M68.5,-45.8C68.5,-36.91 68.5,-26.78 68.5,-19.75"/>
<polygon fill="midnightblue" stroke="midnightblue" points="65,-46.08 68.5,-56.08 72,-46.08 65,-46.08"/>
</g>
<!-- Node2&#45;&gt;Node1 -->
<g id="edge5" class="edge">
<title>Node2&#45;&gt;Node1</title>
<path fill="none" stroke="midnightblue" d="M81.4,-46.4C82.73,-37.36 81.85,-26.94 78.76,-19.75"/>
<polygon fill="midnightblue" stroke="midnightblue" points="78.01,-45.52 78.83,-56.08 84.78,-47.31 78.01,-45.52"/>
</g>
<!-- Node2&#45;&gt;Node1 -->
<g id="edge6" class="edge">
<title>Node2&#45;&gt;Node1</title>
<path fill="none" stroke="midnightblue" d="M94.03,-47.27C97.07,-38.05 95.4,-27.17 89.02,-19.75"/>
<polygon fill="midnightblue" stroke="midnightblue" points="90.94,-45.64 89.17,-56.08 97.06,-49.02 90.94,-45.64"/>
</g>
<!-- Node2&#45;&gt;Node1 -->
<g id="edge7" class="edge">
<title>Node2&#45;&gt;Node1</title>
<path fill="none" stroke="midnightblue" d="M106.04,-48.68C111.57,-39.2 109.35,-27.63 99.39,-19.83"/>
<polygon fill="midnightblue" stroke="midnightblue" points="103.26,-46.54 99.19,-56.32 108.47,-51.21 103.26,-46.54"/>
</g>
</g>
</svg>
