<?xml version="1.0" encoding="UTF-8" standalone="no"?>
<!DOCTYPE svg PUBLIC "-//W3C//DTD SVG 1.1//EN"
 "http://www.w3.org/Graphics/SVG/1.1/DTD/svg11.dtd">
<!-- Generated by graphviz version 2.50.0 (0)
 -->
<!-- Title: RoundJTextField Pages: 1 -->
<svg width="184pt" height="84pt"
 viewBox="0.00 0.00 183.86 84.00" xmlns="http://www.w3.org/2000/svg" xmlns:xlink="http://www.w3.org/1999/xlink">
<g id="graph0" class="graph" transform="scale(1 1) rotate(0) translate(4 80)">
<title>RoundJTextField</title>
<!-- Node1 -->
<g id="node1" class="node">
<title>Node1</title>
<g id="a_node1"><a xlink:title=" ">
<polygon fill="#bfbfbf" stroke="black" points="40.93,-0.5 40.93,-19.5 134.93,-19.5 134.93,-0.5 40.93,-0.5"/>
<text text-anchor="middle" x="87.93" y="-7.5" font-family="Helvetica,sans-Serif" font-size="10.00">RoundJTextField</text>
</a>
</g>
</g>
<!-- Node2 -->
<g id="node2" class="node">
<title>Node2</title>
<g id="a_node2"><a xlink:title=" ">
<polygon fill="none" stroke="#bfbfbf" points="56.43,-56.5 56.43,-75.5 119.43,-75.5 119.43,-56.5 56.43,-56.5"/>
<text text-anchor="middle" x="87.93" y="-63.5" font-family="Helvetica,sans-Serif" font-size="10.00">JTextField</text>
</a>
</g>
</g>
<!-- Node2&#45;&gt;Node1 -->
<g id="edge1" class="edge">
<title>Node2&#45;&gt;Node1</title>
<path fill="none" stroke="midnightblue" d="M46.14,-62.19C-13.3,-53.17 -15.08,-24.88 40.79,-14.7"/>
<polygon fill="midnightblue" stroke="midnightblue" points="45.82,-65.68 56.18,-63.47 46.7,-58.74 45.82,-65.68"/>
</g>
<!-- Node2&#45;&gt;Node1 -->
<g id="edge2" class="edge">
<title>Node2&#45;&gt;Node1</title>
<path fill="none" stroke="midnightblue" d="M46.48,-60.95C4.7,-51.38 2.84,-27.35 40.87,-16.48"/>
<polygon fill="midnightblue" stroke="midnightblue" points="45.85,-64.4 56.32,-62.82 47.15,-57.52 45.85,-64.4"/>
</g>
<!-- Node2&#45;&gt;Node1 -->
<g id="edge3" class="edge">
<title>Node2&#45;&gt;Node1</title>
<path fill="none" stroke="midnightblue" d="M46.64,-58.47C22.26,-48.71 20.79,-30.3 42.24,-19.5"/>
<polygon fill="midnightblue" stroke="midnightblue" points="45.63,-61.83 56.22,-61.54 47.76,-55.16 45.63,-61.83"/>
</g>
<!-- Node2&#45;&gt;Node1 -->
<g id="edge4" class="edge">
<title>Node2&#45;&gt;Node1</title>
<path fill="none" stroke="midnightblue" d="M47.75,-52.89C36.98,-42.74 38.52,-28.51 52.35,-19.53"/>
<polygon fill="midnightblue" stroke="midnightblue" points="45.83,-55.81 56.05,-58.59 49.79,-50.04 45.83,-55.81"/>
</g>
<!-- Node2&#45;&gt;Node1 -->
<g id="edge5" class="edge">
<title>Node2&#45;&gt;Node1</title>
<path fill="none" stroke="midnightblue" d="M56.38,-48.1C52.12,-38.74 54.06,-27.48 62.19,-19.83"/>
<polygon fill="midnightblue" stroke="midnightblue" points="53.64,-50.3 62.36,-56.32 59.3,-46.18 53.64,-50.3"/>
</g>
<!-- Node2&#45;&gt;Node1 -->
<g id="edge6" class="edge">
<title>Node2&#45;&gt;Node1</title>
<path fill="none" stroke="midnightblue" d="M68.64,-46.69C66.56,-37.59 67.86,-27.01 72.54,-19.75"/>
<polygon fill="midnightblue" stroke="midnightblue" points="65.45,-48.12 72.43,-56.08 71.94,-45.5 65.45,-48.12"/>
</g>
<!-- Node2&#45;&gt;Node1 -->
<g id="edge7" class="edge">
<title>Node2&#45;&gt;Node1</title>
<path fill="none" stroke="midnightblue" d="M81.46,-46.1C80.83,-37.14 81.27,-26.86 82.8,-19.75"/>
<polygon fill="midnightblue" stroke="midnightblue" points="78,-46.62 82.77,-56.08 84.94,-45.71 78,-46.62"/>
</g>
<!-- Node2&#45;&gt;Node1 -->
<g id="edge8" class="edge">
<title>Node2&#45;&gt;Node1</title>
<path fill="none" stroke="midnightblue" d="M94.4,-46.1C95.04,-37.14 94.59,-26.86 93.06,-19.75"/>
<polygon fill="midnightblue" stroke="midnightblue" points="90.92,-45.71 93.1,-56.08 97.87,-46.62 90.92,-45.71"/>
</g>
<!-- Node2&#45;&gt;Node1 -->
<g id="edge9" class="edge">
<title>Node2&#45;&gt;Node1</title>
<path fill="none" stroke="midnightblue" d="M107.22,-46.69C109.3,-37.59 108,-27.01 103.32,-19.75"/>
<polygon fill="midnightblue" stroke="midnightblue" points="103.93,-45.5 103.43,-56.08 110.42,-48.12 103.93,-45.5"/>
</g>
<!-- Node2&#45;&gt;Node1 -->
<g id="edge10" class="edge">
<title>Node2&#45;&gt;Node1</title>
<path fill="none" stroke="midnightblue" d="M119.49,-48.1C123.74,-38.74 121.81,-27.48 113.68,-19.83"/>
<polygon fill="midnightblue" stroke="midnightblue" points="116.56,-46.18 113.51,-56.32 122.22,-50.3 116.56,-46.18"/>
</g>
<!-- Node2&#45;&gt;Node1 -->
<g id="edge11" class="edge">
<title>Node2&#45;&gt;Node1</title>
<path fill="none" stroke="midnightblue" d="M128.11,-52.89C138.88,-42.74 137.35,-28.51 123.51,-19.53"/>
<polygon fill="midnightblue" stroke="midnightblue" points="126.07,-50.04 119.81,-58.59 130.04,-55.81 126.07,-50.04"/>
</g>
<!-- Node2&#45;&gt;Node1 -->
<g id="edge12" class="edge">
<title>Node2&#45;&gt;Node1</title>
<path fill="none" stroke="midnightblue" d="M129.22,-58.47C153.61,-48.71 155.07,-30.3 133.62,-19.5"/>
<polygon fill="midnightblue" stroke="midnightblue" points="128.1,-55.16 119.64,-61.54 130.23,-61.83 128.1,-55.16"/>
</g>
<!-- Node2&#45;&gt;Node1 -->
<g id="edge13" class="edge">
<title>Node2&#45;&gt;Node1</title>
<path fill="none" stroke="midnightblue" d="M129.38,-60.95C171.16,-51.38 173.03,-27.35 134.99,-16.48"/>
<polygon fill="midnightblue" stroke="midnightblue" points="128.72,-57.52 119.54,-62.82 130.02,-64.4 128.72,-57.52"/>
</g>
<!-- Node2&#45;&gt;Node1 -->
<g id="edge14" class="edge">
<title>Node2&#45;&gt;Node1</title>
<path fill="none" stroke="midnightblue" d="M129.72,-62.19C189.16,-53.17 190.95,-24.88 135.07,-14.7"/>
<polygon fill="midnightblue" stroke="midnightblue" points="129.16,-58.74 119.69,-63.47 130.05,-65.68 129.16,-58.74"/>
</g>
</g>
</svg>
