<?xml version="1.0" encoding="UTF-8" standalone="no"?>
<!DOCTYPE svg PUBLIC "-//W3C//DTD SVG 1.1//EN"
 "http://www.w3.org/Graphics/SVG/1.1/DTD/svg11.dtd">
<!-- Generated by graphviz version 2.50.0 (0)
 -->
<!-- Title: DataElement Pages: 1 -->
<svg width="292pt" height="84pt"
 viewBox="0.00 0.00 291.82 84.00" xmlns="http://www.w3.org/2000/svg" xmlns:xlink="http://www.w3.org/1999/xlink">
<g id="graph0" class="graph" transform="scale(1 1) rotate(0) translate(4 80)">
<title>DataElement</title>
<!-- Node1 -->
<g id="node1" class="node">
<title>Node1</title>
<g id="a_node1"><a xlink:title=" ">
<polygon fill="#bfbfbf" stroke="black" points="101.91,-0.5 101.91,-19.5 181.91,-19.5 181.91,-0.5 101.91,-0.5"/>
<text text-anchor="middle" x="141.91" y="-7.5" font-family="Helvetica,sans-Serif" font-size="10.00">DataElement</text>
</a>
</g>
</g>
<!-- Node2 -->
<g id="node2" class="node">
<title>Node2</title>
<g id="a_node2"><a xlink:href="interfaceDataTypes.html" target="_top" xlink:title=" ">
<polygon fill="none" stroke="black" points="107.91,-56.5 107.91,-75.5 175.91,-75.5 175.91,-56.5 107.91,-56.5"/>
<text text-anchor="middle" x="141.91" y="-63.5" font-family="Helvetica,sans-Serif" font-size="10.00">DataTypes</text>
</a>
</g>
</g>
<!-- Node2&#45;&gt;Node1 -->
<g id="edge1" class="edge">
<title>Node2&#45;&gt;Node1</title>
<path fill="none" stroke="midnightblue" d="M97.62,-63.89C-33.68,-56.82 -32.31,-18.32 101.74,-11.91"/>
<polygon fill="midnightblue" stroke="midnightblue" points="97.57,-67.39 107.72,-64.36 97.9,-60.39 97.57,-67.39"/>
</g>
<!-- Node2&#45;&gt;Node1 -->
<g id="edge2" class="edge">
<title>Node2&#45;&gt;Node1</title>
<path fill="none" stroke="midnightblue" d="M97.35,-63.6C-15.62,-55.93 -14.22,-19.08 101.56,-12.13"/>
<polygon fill="midnightblue" stroke="midnightblue" points="97.33,-67.1 107.52,-64.19 97.74,-60.12 97.33,-67.1"/>
</g>
<!-- Node2&#45;&gt;Node1 -->
<g id="edge3" class="edge">
<title>Node2&#45;&gt;Node1</title>
<path fill="none" stroke="midnightblue" d="M97.57,-63.24C2.32,-54.94 3.71,-19.94 101.74,-12.42"/>
<polygon fill="midnightblue" stroke="midnightblue" points="97.49,-66.74 107.72,-63.99 98.01,-59.76 97.49,-66.74"/>
</g>
<!-- Node2&#45;&gt;Node1 -->
<g id="edge4" class="edge">
<title>Node2&#45;&gt;Node1</title>
<path fill="none" stroke="midnightblue" d="M97.49,-62.67C20.32,-53.63 21.74,-21.04 101.75,-12.87"/>
<polygon fill="midnightblue" stroke="midnightblue" points="97.53,-66.19 107.82,-63.69 98.22,-59.22 97.53,-66.19"/>
</g>
<!-- Node2&#45;&gt;Node1 -->
<g id="edge5" class="edge">
<title>Node2&#45;&gt;Node1</title>
<path fill="none" stroke="midnightblue" d="M97.68,-61.81C38.36,-52.01 39.68,-22.5 101.64,-13.58"/>
<polygon fill="midnightblue" stroke="midnightblue" points="97.33,-65.29 107.72,-63.2 98.3,-58.36 97.33,-65.29"/>
</g>
<!-- Node2&#45;&gt;Node1 -->
<g id="edge6" class="edge">
<title>Node2&#45;&gt;Node1</title>
<path fill="none" stroke="midnightblue" d="M97.87,-60.33C56.32,-49.79 57.63,-24.34 101.81,-14.74"/>
<polygon fill="midnightblue" stroke="midnightblue" points="97.2,-63.76 107.7,-62.4 98.64,-56.91 97.2,-63.76"/>
</g>
<!-- Node2&#45;&gt;Node1 -->
<g id="edge7" class="edge">
<title>Node2&#45;&gt;Node1</title>
<path fill="none" stroke="midnightblue" d="M98.19,-57.44C74.43,-46.68 75.53,-27.14 101.49,-17.19"/>
<polygon fill="midnightblue" stroke="midnightblue" points="97.04,-60.75 107.64,-60.85 99.42,-54.16 97.04,-60.75"/>
</g>
<!-- Node2&#45;&gt;Node1 -->
<g id="edge8" class="edge">
<title>Node2&#45;&gt;Node1</title>
<path fill="none" stroke="midnightblue" d="M99.64,-50.69C91.27,-40.8 93.45,-27.97 106.2,-19.62"/>
<polygon fill="midnightblue" stroke="midnightblue" points="97.67,-53.6 107.61,-57.26 102.12,-48.2 97.67,-53.6"/>
</g>
<!-- Node2&#45;&gt;Node1 -->
<g id="edge9" class="edge">
<title>Node2&#45;&gt;Node1</title>
<path fill="none" stroke="midnightblue" d="M110.36,-48.1C106.1,-38.74 108.04,-27.48 116.17,-19.83"/>
<polygon fill="midnightblue" stroke="midnightblue" points="107.62,-50.3 116.34,-56.32 113.28,-46.18 107.62,-50.3"/>
</g>
<!-- Node2&#45;&gt;Node1 -->
<g id="edge10" class="edge">
<title>Node2&#45;&gt;Node1</title>
<path fill="none" stroke="midnightblue" d="M122.62,-46.69C120.54,-37.59 121.84,-27.01 126.52,-19.75"/>
<polygon fill="midnightblue" stroke="midnightblue" points="119.43,-48.12 126.41,-56.08 125.92,-45.5 119.43,-48.12"/>
</g>
<!-- Node2&#45;&gt;Node1 -->
<g id="edge11" class="edge">
<title>Node2&#45;&gt;Node1</title>
<path fill="none" stroke="midnightblue" d="M135.44,-46.1C134.81,-37.14 135.25,-26.86 136.78,-19.75"/>
<polygon fill="midnightblue" stroke="midnightblue" points="131.98,-46.62 136.74,-56.08 138.92,-45.71 131.98,-46.62"/>
</g>
<!-- Node2&#45;&gt;Node1 -->
<g id="edge12" class="edge">
<title>Node2&#45;&gt;Node1</title>
<path fill="none" stroke="midnightblue" d="M148.38,-46.1C149.02,-37.14 148.57,-26.86 147.04,-19.75"/>
<polygon fill="midnightblue" stroke="midnightblue" points="144.9,-45.71 147.08,-56.08 151.85,-46.62 144.9,-45.71"/>
</g>
<!-- Node2&#45;&gt;Node1 -->
<g id="edge13" class="edge">
<title>Node2&#45;&gt;Node1</title>
<path fill="none" stroke="midnightblue" d="M161.2,-46.69C163.28,-37.59 161.98,-27.01 157.3,-19.75"/>
<polygon fill="midnightblue" stroke="midnightblue" points="157.9,-45.5 157.41,-56.08 164.4,-48.12 157.9,-45.5"/>
</g>
<!-- Node2&#45;&gt;Node1 -->
<g id="edge14" class="edge">
<title>Node2&#45;&gt;Node1</title>
<path fill="none" stroke="midnightblue" d="M173.47,-48.1C177.72,-38.74 175.79,-27.48 167.65,-19.83"/>
<polygon fill="midnightblue" stroke="midnightblue" points="170.54,-46.18 167.49,-56.32 176.2,-50.3 170.54,-46.18"/>
</g>
<!-- Node2&#45;&gt;Node1 -->
<g id="edge15" class="edge">
<title>Node2&#45;&gt;Node1</title>
<path fill="none" stroke="midnightblue" d="M184.18,-50.69C192.55,-40.8 190.37,-27.97 177.62,-19.62"/>
<polygon fill="midnightblue" stroke="midnightblue" points="181.7,-48.2 176.22,-57.26 186.16,-53.6 181.7,-48.2"/>
</g>
<!-- Node2&#45;&gt;Node1 -->
<g id="edge16" class="edge">
<title>Node2&#45;&gt;Node1</title>
<path fill="none" stroke="midnightblue" d="M185.63,-57.44C209.39,-46.68 208.29,-27.14 182.33,-17.19"/>
<polygon fill="midnightblue" stroke="midnightblue" points="184.4,-54.16 176.19,-60.85 186.78,-60.75 184.4,-54.16"/>
</g>
<!-- Node2&#45;&gt;Node1 -->
<g id="edge17" class="edge">
<title>Node2&#45;&gt;Node1</title>
<path fill="none" stroke="midnightblue" d="M185.96,-60.33C227.5,-49.79 226.19,-24.34 182.01,-14.74"/>
<polygon fill="midnightblue" stroke="midnightblue" points="185.18,-56.91 176.12,-62.4 186.62,-63.76 185.18,-56.91"/>
</g>
<!-- Node2&#45;&gt;Node1 -->
<g id="edge18" class="edge">
<title>Node2&#45;&gt;Node1</title>
<path fill="none" stroke="midnightblue" d="M186.14,-61.81C245.46,-52.01 244.14,-22.5 182.18,-13.58"/>
<polygon fill="midnightblue" stroke="midnightblue" points="185.52,-58.36 176.1,-63.2 186.49,-65.29 185.52,-58.36"/>
</g>
<!-- Node2&#45;&gt;Node1 -->
<g id="edge19" class="edge">
<title>Node2&#45;&gt;Node1</title>
<path fill="none" stroke="midnightblue" d="M186.33,-62.67C263.5,-53.63 262.08,-21.04 182.07,-12.87"/>
<polygon fill="midnightblue" stroke="midnightblue" points="185.6,-59.22 176,-63.69 186.3,-66.19 185.6,-59.22"/>
</g>
<!-- Node2&#45;&gt;Node1 -->
<g id="edge20" class="edge">
<title>Node2&#45;&gt;Node1</title>
<path fill="none" stroke="midnightblue" d="M186.25,-63.24C281.5,-54.94 280.11,-19.94 182.09,-12.42"/>
<polygon fill="midnightblue" stroke="midnightblue" points="185.81,-59.76 176.1,-63.99 186.33,-66.74 185.81,-59.76"/>
</g>
<!-- Node2&#45;&gt;Node1 -->
<g id="edge21" class="edge">
<title>Node2&#45;&gt;Node1</title>
<path fill="none" stroke="midnightblue" d="M186.47,-63.6C299.44,-55.93 298.04,-19.08 182.26,-12.13"/>
<polygon fill="midnightblue" stroke="midnightblue" points="186.08,-60.12 176.3,-64.19 186.49,-67.1 186.08,-60.12"/>
</g>
<!-- Node2&#45;&gt;Node1 -->
<g id="edge22" class="edge">
<title>Node2&#45;&gt;Node1</title>
<path fill="none" stroke="midnightblue" d="M186.21,-63.89C317.51,-56.82 316.13,-18.32 182.09,-11.91"/>
<polygon fill="midnightblue" stroke="midnightblue" points="185.93,-60.39 176.1,-64.36 186.25,-67.39 185.93,-60.39"/>
</g>
</g>
</svg>
