<?xml version="1.0" encoding="UTF-8" standalone="no"?>
<!DOCTYPE svg PUBLIC "-//W3C//DTD SVG 1.1//EN"
 "http://www.w3.org/Graphics/SVG/1.1/DTD/svg11.dtd">
<!-- Generated by graphviz version 2.50.0 (0)
 -->
<!-- Title: DialogOp Pages: 1 -->
<svg width="70pt" height="84pt"
 viewBox="0.00 0.00 70.00 84.00" xmlns="http://www.w3.org/2000/svg" xmlns:xlink="http://www.w3.org/1999/xlink">
<g id="graph0" class="graph" transform="scale(1 1) rotate(0) translate(4 80)">
<title>DialogOp</title>
<!-- Node1 -->
<g id="node1" class="node">
<title>Node1</title>
<g id="a_node1"><a xlink:title=" ">
<polygon fill="#bfbfbf" stroke="black" points="0,-0.5 0,-19.5 62,-19.5 62,-0.5 0,-0.5"/>
<text text-anchor="middle" x="31" y="-7.5" font-family="Helvetica,sans-Serif" font-size="10.00">DialogOp</text>
</a>
</g>
</g>
<!-- Node2 -->
<g id="node2" class="node">
<title>Node2</title>
<g id="a_node2"><a xlink:title=" ">
<polygon fill="none" stroke="#bfbfbf" points="5.5,-56.5 5.5,-75.5 56.5,-75.5 56.5,-56.5 5.5,-56.5"/>
<text text-anchor="middle" x="31" y="-63.5" font-family="Helvetica,sans-Serif" font-size="10.00">JDialog</text>
</a>
</g>
</g>
<!-- Node2&#45;&gt;Node1 -->
<g id="edge1" class="edge">
<title>Node2&#45;&gt;Node1</title>
<path fill="none" stroke="midnightblue" d="M11.71,-46.69C9.63,-37.59 10.93,-27.01 15.61,-19.75"/>
<polygon fill="midnightblue" stroke="midnightblue" points="8.51,-48.12 15.5,-56.08 15.01,-45.5 8.51,-48.12"/>
</g>
<!-- Node2&#45;&gt;Node1 -->
<g id="edge2" class="edge">
<title>Node2&#45;&gt;Node1</title>
<path fill="none" stroke="midnightblue" d="M24.53,-46.1C23.9,-37.14 24.34,-26.86 25.87,-19.75"/>
<polygon fill="midnightblue" stroke="midnightblue" points="21.07,-46.62 25.83,-56.08 28.01,-45.71 21.07,-46.62"/>
</g>
<!-- Node2&#45;&gt;Node1 -->
<g id="edge3" class="edge">
<title>Node2&#45;&gt;Node1</title>
<path fill="none" stroke="midnightblue" d="M37.47,-46.1C38.1,-37.14 37.66,-26.86 36.13,-19.75"/>
<polygon fill="midnightblue" stroke="midnightblue" points="33.99,-45.71 36.17,-56.08 40.93,-46.62 33.99,-45.71"/>
</g>
<!-- Node2&#45;&gt;Node1 -->
<g id="edge4" class="edge">
<title>Node2&#45;&gt;Node1</title>
<path fill="none" stroke="midnightblue" d="M50.29,-46.69C52.37,-37.59 51.07,-27.01 46.39,-19.75"/>
<polygon fill="midnightblue" stroke="midnightblue" points="46.99,-45.5 46.5,-56.08 53.49,-48.12 46.99,-45.5"/>
</g>
</g>
</svg>
