<?xml version="1.0" encoding="UTF-8" standalone="no"?>
<!DOCTYPE svg PUBLIC "-//W3C//DTD SVG 1.1//EN"
 "http://www.w3.org/Graphics/SVG/1.1/DTD/svg11.dtd">
<!-- Generated by graphviz version 2.50.0 (0)
 -->
<!-- Title: GlgSqzTempGui.InputListener Pages: 1 -->
<svg width="168pt" height="84pt"
 viewBox="0.00 0.00 168.00 84.00" xmlns="http://www.w3.org/2000/svg" xmlns:xlink="http://www.w3.org/1999/xlink">
<g id="graph0" class="graph" transform="scale(1 1) rotate(0) translate(4 80)">
<title>GlgSqzTempGui.InputListener</title>
<!-- Node1 -->
<g id="node1" class="node">
<title>Node1</title>
<g id="a_node1"><a xlink:title=" ">
<polygon fill="#bfbfbf" stroke="black" points="0,-0.5 0,-19.5 160,-19.5 160,-0.5 0,-0.5"/>
<text text-anchor="middle" x="80" y="-7.5" font-family="Helvetica,sans-Serif" font-size="10.00">GlgSqzTempGui.InputListener</text>
</a>
</g>
</g>
<!-- Node2 -->
<g id="node2" class="node">
<title>Node2</title>
<g id="a_node2"><a xlink:title=" ">
<polygon fill="none" stroke="#bfbfbf" points="31.5,-56.5 31.5,-75.5 128.5,-75.5 128.5,-56.5 31.5,-56.5"/>
<text text-anchor="middle" x="80" y="-63.5" font-family="Helvetica,sans-Serif" font-size="10.00">GlgInputListener</text>
</a>
</g>
</g>
<!-- Node2&#45;&gt;Node1 -->
<g id="edge1" class="edge">
<title>Node2&#45;&gt;Node1</title>
<path fill="none" stroke="midnightblue" d="M60.71,-46.69C58.63,-37.59 59.93,-27.01 64.61,-19.75"/>
<polygon fill="midnightblue" stroke="midnightblue" points="57.51,-48.12 64.5,-56.08 64.01,-45.5 57.51,-48.12"/>
</g>
<!-- Node2&#45;&gt;Node1 -->
<g id="edge2" class="edge">
<title>Node2&#45;&gt;Node1</title>
<path fill="none" stroke="midnightblue" d="M73.53,-46.1C72.9,-37.14 73.34,-26.86 74.87,-19.75"/>
<polygon fill="midnightblue" stroke="midnightblue" points="70.07,-46.62 74.83,-56.08 77.01,-45.71 70.07,-46.62"/>
</g>
<!-- Node2&#45;&gt;Node1 -->
<g id="edge3" class="edge">
<title>Node2&#45;&gt;Node1</title>
<path fill="none" stroke="midnightblue" d="M86.47,-46.1C87.1,-37.14 86.66,-26.86 85.13,-19.75"/>
<polygon fill="midnightblue" stroke="midnightblue" points="82.99,-45.71 85.17,-56.08 89.93,-46.62 82.99,-45.71"/>
</g>
<!-- Node2&#45;&gt;Node1 -->
<g id="edge4" class="edge">
<title>Node2&#45;&gt;Node1</title>
<path fill="none" stroke="midnightblue" d="M99.29,-46.69C101.37,-37.59 100.07,-27.01 95.39,-19.75"/>
<polygon fill="midnightblue" stroke="midnightblue" points="95.99,-45.5 95.5,-56.08 102.49,-48.12 95.99,-45.5"/>
</g>
</g>
</svg>
