<?xml version="1.0" encoding="UTF-8" standalone="no"?>
<!DOCTYPE svg PUBLIC "-//W3C//DTD SVG 1.1//EN"
 "http://www.w3.org/Graphics/SVG/1.1/DTD/svg11.dtd">
<!-- Generated by graphviz version 2.50.0 (0)
 -->
<!-- Title: Graphical Class Hierarchy Pages: 1 -->
<svg width="348pt" height="88pt"
 viewBox="0.00 0.00 348.00 88.00" xmlns="http://www.w3.org/2000/svg" xmlns:xlink="http://www.w3.org/1999/xlink">
<g id="graph0" class="graph" transform="scale(1 1) rotate(0) translate(4 84)">
<title>Graphical Class Hierarchy</title>
<!-- Node129 -->
<g id="node1" class="node">
<title>Node129</title>
<g id="a_node1"><a xlink:title=" ">
<polygon fill="none" stroke="#bfbfbf" points="0,-30 0,-49 141,-49 141,-30 0,-30"/>
<text text-anchor="middle" x="70.5" y="-37" font-family="Helvetica,sans-Serif" font-size="10.00">DefaultTableCellRenderer</text>
</a>
</g>
</g>
<!-- Node0 -->
<g id="node2" class="node">
<title>Node0</title>
<g id="a_node2"><a xlink:href="classVentingLookAndFeel_1_1HighlightRenderer.html" target="_top" xlink:title="Renderer that colors the active step row based on table client property.">
<polygon fill="none" stroke="black" points="177,-49.5 177,-79.5 340,-79.5 340,-49.5 177,-49.5"/>
<text text-anchor="start" x="185" y="-67.5" font-family="Helvetica,sans-Serif" font-size="10.00">VentingLookAndFeel.Highlight</text>
<text text-anchor="middle" x="258.5" y="-56.5" font-family="Helvetica,sans-Serif" font-size="10.00">Renderer</text>
</a>
</g>
</g>
<!-- Node129&#45;&gt;Node0 -->
<g id="edge1" class="edge">
<title>Node129&#45;&gt;Node0</title>
<path fill="none" stroke="midnightblue" d="M150.97,-50.18C159.52,-51.33 168.22,-52.5 176.78,-53.65"/>
<polygon fill="midnightblue" stroke="midnightblue" points="151.4,-46.71 141.02,-48.84 150.47,-53.65 151.4,-46.71"/>
</g>
<!-- Node131 -->
<g id="node3" class="node">
<title>Node131</title>
<g id="a_node3"><a xlink:href="classVentingLookAndFeel_1_1ScientificRenderer.html" target="_top" xlink:title=" ">
<polygon fill="none" stroke="black" points="177,-0.5 177,-30.5 340,-30.5 340,-0.5 177,-0.5"/>
<text text-anchor="start" x="185" y="-18.5" font-family="Helvetica,sans-Serif" font-size="10.00">VentingLookAndFeel.Scientific</text>
<text text-anchor="middle" x="258.5" y="-7.5" font-family="Helvetica,sans-Serif" font-size="10.00">Renderer</text>
</a>
</g>
</g>
<!-- Node129&#45;&gt;Node131 -->
<g id="edge2" class="edge">
<title>Node129&#45;&gt;Node131</title>
<path fill="none" stroke="midnightblue" d="M150.97,-29.25C159.52,-28.14 168.22,-27.02 176.78,-25.92"/>
<polygon fill="midnightblue" stroke="midnightblue" points="150.49,-25.78 141.02,-30.53 151.39,-32.72 150.49,-25.78"/>
</g>
</g>
</svg>
