<?xml version="1.0" encoding="UTF-8" standalone="no"?>
<!DOCTYPE svg PUBLIC "-//W3C//DTD SVG 1.1//EN"
 "http://www.w3.org/Graphics/SVG/1.1/DTD/svg11.dtd">
<!-- Generated by graphviz version 2.50.0 (0)
 -->
<!-- Title: Graphical Class Hierarchy Pages: 1 -->
<svg width="317pt" height="1345pt"
 viewBox="0.00 0.00 317.00 1345.00" xmlns="http://www.w3.org/2000/svg" xmlns:xlink="http://www.w3.org/1999/xlink">
<g id="graph0" class="graph" transform="scale(1 1) rotate(0) translate(4 1341)">
<title>Graphical Class Hierarchy</title>
<!-- Node76 -->
<g id="node1" class="node">
<title>Node76</title>
<g id="a_node1"><a xlink:title=" ">
<polygon fill="none" stroke="#bfbfbf" points="0,-648.5 0,-667.5 97,-667.5 97,-648.5 0,-648.5"/>
<text text-anchor="middle" x="48.5" y="-655.5" font-family="Helvetica,sans-Serif" font-size="10.00">GlgInputListener</text>
</a>
</g>
</g>
<!-- Node0 -->
<g id="node2" class="node">
<title>Node0</title>
<g id="a_node2"><a xlink:href="classGlg2Gui_1_1InputListener.html" target="_top" xlink:title=" ">
<polygon fill="none" stroke="black" points="160,-1317.5 160,-1336.5 282,-1336.5 282,-1317.5 160,-1317.5"/>
<text text-anchor="middle" x="221" y="-1324.5" font-family="Helvetica,sans-Serif" font-size="10.00">Glg2Gui.InputListener</text>
</a>
</g>
</g>
<!-- Node76&#45;&gt;Node0 -->
<g id="edge1" class="edge">
<title>Node76&#45;&gt;Node0</title>
<path fill="none" stroke="midnightblue" d="M49.1,-678.08C47.57,-777.16 45.94,-1212.99 133,-1308 140.1,-1315.75 149.57,-1320.72 159.65,-1323.85"/>
<polygon fill="midnightblue" stroke="midnightblue" points="52.61,-678 49.28,-667.94 45.61,-677.87 52.61,-678"/>
</g>
<!-- Node78 -->
<g id="node3" class="node">
<title>Node78</title>
<g id="a_node3"><a xlink:href="classGlgCryo1500wIntGui_1_1InputListener.html" target="_top" xlink:title=" ">
<polygon fill="none" stroke="black" points="148.5,-1268 148.5,-1298 293.5,-1298 293.5,-1268 148.5,-1268"/>
<text text-anchor="start" x="156.5" y="-1286" font-family="Helvetica,sans-Serif" font-size="10.00">GlgCryo1500wIntGui.Input</text>
<text text-anchor="middle" x="221" y="-1275" font-family="Helvetica,sans-Serif" font-size="10.00">Listener</text>
</a>
</g>
</g>
<!-- Node76&#45;&gt;Node78 -->
<g id="edge2" class="edge">
<title>Node76&#45;&gt;Node78</title>
<path fill="none" stroke="midnightblue" d="M49.44,-677.64C49.55,-771.08 54.67,-1169.66 133,-1259 137.34,-1263.95 142.6,-1267.92 148.35,-1271.1"/>
<polygon fill="midnightblue" stroke="midnightblue" points="52.94,-677.59 49.45,-667.59 45.94,-677.59 52.94,-677.59"/>
</g>
<!-- Node79 -->
<g id="node4" class="node">
<title>Node79</title>
<g id="a_node4"><a xlink:href="classGlgCryo1500wStatusDetailsGui_1_1InputListener.html" target="_top" xlink:title=" ">
<polygon fill="none" stroke="black" points="144.5,-1219 144.5,-1249 297.5,-1249 297.5,-1219 144.5,-1219"/>
<text text-anchor="start" x="152.5" y="-1237" font-family="Helvetica,sans-Serif" font-size="10.00">GlgCryo1500wStatusDetails</text>
<text text-anchor="middle" x="221" y="-1226" font-family="Helvetica,sans-Serif" font-size="10.00">Gui.InputListener</text>
</a>
</g>
</g>
<!-- Node76&#45;&gt;Node79 -->
<g id="edge3" class="edge">
<title>Node76&#45;&gt;Node79</title>
<path fill="none" stroke="midnightblue" d="M49.71,-677.71C51.04,-766.52 60.89,-1128.75 133,-1210 136.33,-1213.75 140.18,-1216.94 144.38,-1219.64"/>
<polygon fill="midnightblue" stroke="midnightblue" points="53.21,-677.6 49.58,-667.65 46.21,-677.69 53.21,-677.6"/>
</g>
<!-- Node80 -->
<g id="node5" class="node">
<title>Node80</title>
<g id="a_node5"><a xlink:href="classGlgCryo1500wTempGui_1_1InputListener.html" target="_top" xlink:title=" ">
<polygon fill="none" stroke="black" points="142,-1170 142,-1200 300,-1200 300,-1170 142,-1170"/>
<text text-anchor="start" x="150" y="-1188" font-family="Helvetica,sans-Serif" font-size="10.00">GlgCryo1500wTempGui.Input</text>
<text text-anchor="middle" x="221" y="-1177" font-family="Helvetica,sans-Serif" font-size="10.00">Listener</text>
</a>
</g>
</g>
<!-- Node76&#45;&gt;Node80 -->
<g id="edge4" class="edge">
<title>Node76&#45;&gt;Node80</title>
<path fill="none" stroke="midnightblue" d="M50.03,-677.79C52.67,-761.78 67.09,-1087.81 133,-1161 136.04,-1164.38 139.51,-1167.3 143.27,-1169.82"/>
<polygon fill="midnightblue" stroke="midnightblue" points="53.52,-677.49 49.73,-667.6 46.52,-677.69 53.52,-677.49"/>
</g>
<!-- Node81 -->
<g id="node6" class="node">
<title>Node81</title>
<g id="a_node6"><a xlink:href="classGlgCryoIbDetStatusDetailsGui_1_1InputListener.html" target="_top" xlink:title=" ">
<polygon fill="none" stroke="black" points="147.5,-1121 147.5,-1151 294.5,-1151 294.5,-1121 147.5,-1121"/>
<text text-anchor="start" x="155.5" y="-1139" font-family="Helvetica,sans-Serif" font-size="10.00">GlgCryoIbDetStatusDetails</text>
<text text-anchor="middle" x="221" y="-1128" font-family="Helvetica,sans-Serif" font-size="10.00">Gui.InputListener</text>
</a>
</g>
</g>
<!-- Node76&#45;&gt;Node81 -->
<g id="edge5" class="edge">
<title>Node76&#45;&gt;Node81</title>
<path fill="none" stroke="midnightblue" d="M50.45,-677.79C54.6,-756.42 73.73,-1045.65 133,-1111 137.12,-1115.54 142,-1119.28 147.32,-1122.35"/>
<polygon fill="midnightblue" stroke="midnightblue" points="53.94,-677.58 49.94,-667.77 46.95,-677.93 53.94,-677.58"/>
</g>
<!-- Node82 -->
<g id="node7" class="node">
<title>Node82</title>
<g id="a_node7"><a xlink:href="classGlgDryGui_1_1InputListener.html" target="_top" xlink:title=" ">
<polygon fill="none" stroke="black" points="154,-1082.5 154,-1101.5 288,-1101.5 288,-1082.5 154,-1082.5"/>
<text text-anchor="middle" x="221" y="-1089.5" font-family="Helvetica,sans-Serif" font-size="10.00">GlgDryGui.InputListener</text>
</a>
</g>
</g>
<!-- Node76&#45;&gt;Node82 -->
<g id="edge6" class="edge">
<title>Node76&#45;&gt;Node82</title>
<path fill="none" stroke="midnightblue" d="M50.71,-678.12C55.62,-753.2 76.62,-1015.68 133,-1073 138.85,-1078.95 146.11,-1083.24 153.92,-1086.3"/>
<polygon fill="midnightblue" stroke="midnightblue" points="54.17,-677.5 50.05,-667.74 47.19,-677.94 54.17,-677.5"/>
</g>
<!-- Node83 -->
<g id="node8" class="node">
<title>Node83</title>
<g id="a_node8"><a xlink:href="classGlgFlowMeterGui_1_1InputListener.html" target="_top" xlink:title=" ">
<polygon fill="none" stroke="black" points="137,-1044.5 137,-1063.5 305,-1063.5 305,-1044.5 137,-1044.5"/>
<text text-anchor="middle" x="221" y="-1051.5" font-family="Helvetica,sans-Serif" font-size="10.00">GlgFlowMeterGui.InputListener</text>
</a>
</g>
</g>
<!-- Node76&#45;&gt;Node83 -->
<g id="edge7" class="edge">
<title>Node76&#45;&gt;Node83</title>
<path fill="none" stroke="midnightblue" d="M51.1,-677.62C57.22,-747.61 81.4,-983.55 133,-1035 136.72,-1038.71 140.99,-1041.77 145.59,-1044.29"/>
<polygon fill="midnightblue" stroke="midnightblue" points="54.58,-677.21 50.25,-667.54 47.61,-677.8 54.58,-677.21"/>
</g>
<!-- Node84 -->
<g id="node9" class="node">
<title>Node84</title>
<g id="a_node9"><a xlink:href="classGlgGaugeGui_1_1InputListener.html" target="_top" xlink:title=" ">
<polygon fill="none" stroke="black" points="147,-1006.5 147,-1025.5 295,-1025.5 295,-1006.5 147,-1006.5"/>
<text text-anchor="middle" x="221" y="-1013.5" font-family="Helvetica,sans-Serif" font-size="10.00">GlgGaugeGui.InputListener</text>
</a>
</g>
</g>
<!-- Node76&#45;&gt;Node84 -->
<g id="edge8" class="edge">
<title>Node76&#45;&gt;Node84</title>
<path fill="none" stroke="midnightblue" d="M51.64,-677.72C59.13,-743.16 86.3,-951.52 133,-997 137.1,-1000.99 141.83,-1004.23 146.92,-1006.84"/>
<polygon fill="midnightblue" stroke="midnightblue" points="55.09,-677.1 50.5,-667.55 48.13,-677.88 55.09,-677.1"/>
</g>
<!-- Node85 -->
<g id="node10" class="node">
<title>Node85</title>
<g id="a_node10"><a xlink:href="classGlgIonicGui_1_1InputListener.html" target="_top" xlink:title=" ">
<polygon fill="none" stroke="black" points="151,-968.5 151,-987.5 291,-987.5 291,-968.5 151,-968.5"/>
<text text-anchor="middle" x="221" y="-975.5" font-family="Helvetica,sans-Serif" font-size="10.00">GlgIonicGui.InputListener</text>
</a>
</g>
</g>
<!-- Node76&#45;&gt;Node85 -->
<g id="edge9" class="edge">
<title>Node76&#45;&gt;Node85</title>
<path fill="none" stroke="midnightblue" d="M52.31,-677.85C61.29,-738.46 91.18,-919.44 133,-959 138.17,-963.89 144.29,-967.63 150.85,-970.49"/>
<polygon fill="midnightblue" stroke="midnightblue" points="55.74,-677.09 50.84,-667.7 48.81,-678.1 55.74,-677.09"/>
</g>
<!-- Node86 -->
<g id="node11" class="node">
<title>Node86</title>
<g id="a_node11"><a xlink:href="classGlgLinkStatusDetailsGui_1_1InputListener.html" target="_top" xlink:title=" ">
<polygon fill="none" stroke="black" points="152,-919 152,-949 290,-949 290,-919 152,-919"/>
<text text-anchor="start" x="160" y="-937" font-family="Helvetica,sans-Serif" font-size="10.00">GlgLinkStatusDetailsGui.</text>
<text text-anchor="middle" x="221" y="-926" font-family="Helvetica,sans-Serif" font-size="10.00">InputListener</text>
</a>
</g>
</g>
<!-- Node76&#45;&gt;Node86 -->
<g id="edge10" class="edge">
<title>Node76&#45;&gt;Node86</title>
<path fill="none" stroke="midnightblue" d="M50.11,-677.67C52.67,-724.71 65.8,-844.53 133,-909 138.44,-914.22 144.9,-918.37 151.81,-921.65"/>
<polygon fill="midnightblue" stroke="midnightblue" points="53.61,-677.43 49.67,-667.6 46.61,-677.74 53.61,-677.43"/>
</g>
<!-- Node87 -->
<g id="node12" class="node">
<title>Node87</title>
<g id="a_node12"><a xlink:href="classGlgLinkTempGui_1_1InputListener.html" target="_top" xlink:title=" ">
<polygon fill="none" stroke="black" points="139.5,-880.5 139.5,-899.5 302.5,-899.5 302.5,-880.5 139.5,-880.5"/>
<text text-anchor="middle" x="221" y="-887.5" font-family="Helvetica,sans-Serif" font-size="10.00">GlgLinkTempGui.InputListener</text>
</a>
</g>
</g>
<!-- Node76&#45;&gt;Node87 -->
<g id="edge11" class="edge">
<title>Node76&#45;&gt;Node87</title>
<path fill="none" stroke="midnightblue" d="M51.21,-678.08C55.96,-720.6 73.2,-820.01 133,-871 137.47,-874.81 142.53,-877.91 147.91,-880.42"/>
<polygon fill="midnightblue" stroke="midnightblue" points="54.67,-677.5 50.2,-667.9 47.71,-678.2 54.67,-677.5"/>
</g>
<!-- Node88 -->
<g id="node13" class="node">
<title>Node88</title>
<g id="a_node13"><a xlink:href="classGlgPCounter2Gui_1_1InputListener.html" target="_top" xlink:title=" ">
<polygon fill="none" stroke="black" points="137.5,-842.5 137.5,-861.5 304.5,-861.5 304.5,-842.5 137.5,-842.5"/>
<text text-anchor="middle" x="221" y="-849.5" font-family="Helvetica,sans-Serif" font-size="10.00">GlgPCounter2Gui.InputListener</text>
</a>
</g>
</g>
<!-- Node76&#45;&gt;Node88 -->
<g id="edge12" class="edge">
<title>Node76&#45;&gt;Node88</title>
<path fill="none" stroke="midnightblue" d="M53.04,-677.74C60.68,-714.38 82.32,-792.82 133,-833 137.85,-836.84 143.3,-839.95 149.06,-842.45"/>
<polygon fill="midnightblue" stroke="midnightblue" points="56.45,-676.95 51.1,-667.8 49.58,-678.29 56.45,-676.95"/>
</g>
<!-- Node89 -->
<g id="node14" class="node">
<title>Node89</title>
<g id="a_node14"><a xlink:href="classGlgPCounterStatusDetailsGui_1_1InputListener.html" target="_top" xlink:title=" ">
<polygon fill="none" stroke="black" points="149.5,-793 149.5,-823 292.5,-823 292.5,-793 149.5,-793"/>
<text text-anchor="start" x="157.5" y="-811" font-family="Helvetica,sans-Serif" font-size="10.00">GlgPCounterStatusDetails</text>
<text text-anchor="middle" x="221" y="-800" font-family="Helvetica,sans-Serif" font-size="10.00">Gui.InputListener</text>
</a>
</g>
</g>
<!-- Node76&#45;&gt;Node89 -->
<g id="edge13" class="edge">
<title>Node76&#45;&gt;Node89</title>
<path fill="none" stroke="midnightblue" d="M56.92,-676.98C68.76,-704.74 94.57,-756.13 133,-784 137.95,-787.59 143.41,-790.64 149.11,-793.23"/>
<polygon fill="midnightblue" stroke="midnightblue" points="60.11,-675.52 53.07,-667.59 53.63,-678.17 60.11,-675.52"/>
</g>
<!-- Node90 -->
<g id="node15" class="node">
<title>Node90</title>
<g id="a_node15"><a xlink:href="classGlgPCounterTempGui_1_1InputListener.html" target="_top" xlink:title=" ">
<polygon fill="none" stroke="black" points="147,-744 147,-774 295,-774 295,-744 147,-744"/>
<text text-anchor="start" x="155" y="-762" font-family="Helvetica,sans-Serif" font-size="10.00">GlgPCounterTempGui.Input</text>
<text text-anchor="middle" x="221" y="-751" font-family="Helvetica,sans-Serif" font-size="10.00">Listener</text>
</a>
</g>
</g>
<!-- Node76&#45;&gt;Node90 -->
<g id="edge14" class="edge">
<title>Node76&#45;&gt;Node90</title>
<path fill="none" stroke="midnightblue" d="M64.16,-675.37C79.62,-692.62 105.49,-718.65 133,-734 139.86,-737.83 147.36,-741.12 154.99,-743.93"/>
<polygon fill="midnightblue" stroke="midnightblue" points="66.67,-672.92 57.45,-667.69 61.4,-677.53 66.67,-672.92"/>
</g>
<!-- Node91 -->
<g id="node16" class="node">
<title>Node91</title>
<g id="a_node16"><a xlink:href="classGlgPropsGui_1_1InputListener.html" target="_top" xlink:title=" ">
<polygon fill="none" stroke="black" points="149.5,-705.5 149.5,-724.5 292.5,-724.5 292.5,-705.5 149.5,-705.5"/>
<text text-anchor="middle" x="221" y="-712.5" font-family="Helvetica,sans-Serif" font-size="10.00">GlgPropsGui.InputListener</text>
</a>
</g>
</g>
<!-- Node76&#45;&gt;Node91 -->
<g id="edge15" class="edge">
<title>Node76&#45;&gt;Node91</title>
<path fill="none" stroke="midnightblue" d="M76.92,-672.26C92.93,-680.14 113.73,-689.59 133,-696 144,-699.66 156.03,-702.8 167.53,-705.42"/>
<polygon fill="midnightblue" stroke="midnightblue" points="78.13,-668.95 67.62,-667.6 74.99,-675.21 78.13,-668.95"/>
</g>
<!-- Node92 -->
<g id="node17" class="node">
<title>Node92</title>
<g id="a_node17"><a xlink:href="classGlgRGA3Gui_1_1InputListener.html" target="_top" xlink:title=" ">
<polygon fill="none" stroke="black" points="149.5,-667.5 149.5,-686.5 292.5,-686.5 292.5,-667.5 149.5,-667.5"/>
<text text-anchor="middle" x="221" y="-674.5" font-family="Helvetica,sans-Serif" font-size="10.00">GlgRGA3Gui.InputListener</text>
</a>
</g>
</g>
<!-- Node76&#45;&gt;Node92 -->
<g id="edge16" class="edge">
<title>Node76&#45;&gt;Node92</title>
<path fill="none" stroke="midnightblue" d="M107.48,-664.46C120.88,-665.95 135.3,-667.56 149.18,-669.11"/>
<polygon fill="midnightblue" stroke="midnightblue" points="107.77,-660.97 97.45,-663.34 107,-667.93 107.77,-660.97"/>
</g>
<!-- Node93 -->
<g id="node18" class="node">
<title>Node93</title>
<g id="a_node18"><a xlink:href="classGlgRGAGui_1_1InputListener.html" target="_top" xlink:title=" ">
<polygon fill="none" stroke="black" points="152.5,-629.5 152.5,-648.5 289.5,-648.5 289.5,-629.5 152.5,-629.5"/>
<text text-anchor="middle" x="221" y="-636.5" font-family="Helvetica,sans-Serif" font-size="10.00">GlgRGAGui.InputListener</text>
</a>
</g>
</g>
<!-- Node76&#45;&gt;Node93 -->
<g id="edge17" class="edge">
<title>Node76&#45;&gt;Node93</title>
<path fill="none" stroke="midnightblue" d="M107.69,-651.52C122.07,-649.91 137.59,-648.18 152.38,-646.54"/>
<polygon fill="midnightblue" stroke="midnightblue" points="107,-648.07 97.45,-652.66 107.77,-655.03 107,-648.07"/>
</g>
<!-- Node94 -->
<g id="node19" class="node">
<title>Node94</title>
<g id="a_node19"><a xlink:href="classGlgRgaStatusDetailsGui_1_1InputListener.html" target="_top" xlink:title=" ">
<polygon fill="none" stroke="black" points="140.5,-580 140.5,-610 301.5,-610 301.5,-580 140.5,-580"/>
<text text-anchor="start" x="148.5" y="-598" font-family="Helvetica,sans-Serif" font-size="10.00">GlgRgaStatusDetailsGui.Input</text>
<text text-anchor="middle" x="221" y="-587" font-family="Helvetica,sans-Serif" font-size="10.00">Listener</text>
</a>
</g>
</g>
<!-- Node76&#45;&gt;Node94 -->
<g id="edge18" class="edge">
<title>Node76&#45;&gt;Node94</title>
<path fill="none" stroke="midnightblue" d="M77.71,-643.91C93.69,-636.24 114.19,-626.94 133,-620 142.58,-616.46 152.91,-613.11 162.98,-610.08"/>
<polygon fill="midnightblue" stroke="midnightblue" points="75.86,-640.91 68.4,-648.43 78.92,-647.21 75.86,-640.91"/>
</g>
<!-- Node95 -->
<g id="node20" class="node">
<title>Node95</title>
<g id="a_node20"><a xlink:href="classGlgRgaTempGui_1_1InputListener.html" target="_top" xlink:title=" ">
<polygon fill="none" stroke="black" points="140.5,-541.5 140.5,-560.5 301.5,-560.5 301.5,-541.5 140.5,-541.5"/>
<text text-anchor="middle" x="221" y="-548.5" font-family="Helvetica,sans-Serif" font-size="10.00">GlgRgaTempGui.InputListener</text>
</a>
</g>
</g>
<!-- Node76&#45;&gt;Node95 -->
<g id="edge19" class="edge">
<title>Node76&#45;&gt;Node95</title>
<path fill="none" stroke="midnightblue" d="M61.64,-640.15C76.21,-620.16 102.52,-588.29 133,-571 140.68,-566.64 149.26,-563.23 157.95,-560.57"/>
<polygon fill="midnightblue" stroke="midnightblue" points="58.71,-638.22 55.8,-648.41 64.43,-642.27 58.71,-638.22"/>
</g>
<!-- Node96 -->
<g id="node21" class="node">
<title>Node96</title>
<g id="a_node21"><a xlink:href="classGlgSqzStatusDetailsGui_1_1InputListener.html" target="_top" xlink:title=" ">
<polygon fill="none" stroke="black" points="141,-492 141,-522 301,-522 301,-492 141,-492"/>
<text text-anchor="start" x="149" y="-510" font-family="Helvetica,sans-Serif" font-size="10.00">GlgSqzStatusDetailsGui.Input</text>
<text text-anchor="middle" x="221" y="-499" font-family="Helvetica,sans-Serif" font-size="10.00">Listener</text>
</a>
</g>
</g>
<!-- Node76&#45;&gt;Node96 -->
<g id="edge20" class="edge">
<title>Node76&#45;&gt;Node96</title>
<path fill="none" stroke="midnightblue" d="M56.96,-639.07C68.85,-611.38 94.72,-560.07 133,-532 138.32,-528.1 144.24,-524.8 150.42,-522.02"/>
<polygon fill="midnightblue" stroke="midnightblue" points="53.68,-637.86 53.09,-648.43 60.15,-640.53 53.68,-637.86"/>
</g>
<!-- Node97 -->
<g id="node22" class="node">
<title>Node97</title>
<g id="a_node22"><a xlink:href="classGlgSqzTempGui_1_1InputListener.html" target="_top" xlink:title=" ">
<polygon fill="none" stroke="black" points="141,-453.5 141,-472.5 301,-472.5 301,-453.5 141,-453.5"/>
<text text-anchor="middle" x="221" y="-460.5" font-family="Helvetica,sans-Serif" font-size="10.00">GlgSqzTempGui.InputListener</text>
</a>
</g>
</g>
<!-- Node76&#45;&gt;Node97 -->
<g id="edge21" class="edge">
<title>Node76&#45;&gt;Node97</title>
<path fill="none" stroke="midnightblue" d="M53.08,-638.31C60.79,-601.75 82.54,-523.45 133,-483 138.32,-478.73 144.38,-475.34 150.77,-472.66"/>
<polygon fill="midnightblue" stroke="midnightblue" points="49.62,-637.74 51.12,-648.22 56.49,-639.09 49.62,-637.74"/>
</g>
<!-- Node98 -->
<g id="node23" class="node">
<title>Node98</title>
<g id="a_node23"><a xlink:href="classGlgSqzVacuumGui_1_1InputListener.html" target="_top" xlink:title=" ">
<polygon fill="none" stroke="black" points="134.5,-415.5 134.5,-434.5 307.5,-434.5 307.5,-415.5 134.5,-415.5"/>
<text text-anchor="middle" x="221" y="-422.5" font-family="Helvetica,sans-Serif" font-size="10.00">GlgSqzVacuumGui.InputListener</text>
</a>
</g>
</g>
<!-- Node76&#45;&gt;Node98 -->
<g id="edge22" class="edge">
<title>Node76&#45;&gt;Node98</title>
<path fill="none" stroke="midnightblue" d="M51.15,-638.1C55.79,-595.54 72.87,-495.36 133,-444 137.47,-440.18 142.53,-437.08 147.9,-434.57"/>
<polygon fill="midnightblue" stroke="midnightblue" points="47.67,-637.76 50.18,-648.06 54.63,-638.44 47.67,-637.76"/>
</g>
<!-- Node99 -->
<g id="node24" class="node">
<title>Node99</title>
<g id="a_node24"><a xlink:href="classGlgTCMuxTempGui_1_1InputListener.html" target="_top" xlink:title=" ">
<polygon fill="none" stroke="black" points="133,-377.5 133,-396.5 309,-396.5 309,-377.5 133,-377.5"/>
<text text-anchor="middle" x="221" y="-384.5" font-family="Helvetica,sans-Serif" font-size="10.00">GlgTCMuxTempGui.InputListener</text>
</a>
</g>
</g>
<!-- Node76&#45;&gt;Node99 -->
<g id="edge23" class="edge">
<title>Node76&#45;&gt;Node99</title>
<path fill="none" stroke="midnightblue" d="M49.81,-638.29C51.67,-590.67 63.38,-468.67 133,-406 137.25,-402.17 142.09,-399.06 147.26,-396.52"/>
<polygon fill="midnightblue" stroke="midnightblue" points="46.3,-638.38 49.52,-648.48 53.3,-638.58 46.3,-638.38"/>
</g>
<!-- Node100 -->
<g id="node25" class="node">
<title>Node100</title>
<g id="a_node25"><a xlink:href="classGlgTitaneGui_1_1InputListener.html" target="_top" xlink:title=" ">
<polygon fill="none" stroke="black" points="147.5,-339.5 147.5,-358.5 294.5,-358.5 294.5,-339.5 147.5,-339.5"/>
<text text-anchor="middle" x="221" y="-346.5" font-family="Helvetica,sans-Serif" font-size="10.00">GlgTitaneGui.InputListener</text>
</a>
</g>
</g>
<!-- Node76&#45;&gt;Node100 -->
<g id="edge24" class="edge">
<title>Node76&#45;&gt;Node100</title>
<path fill="none" stroke="midnightblue" d="M48.81,-638.23C48.11,-585.79 53.9,-442.09 133,-368 137.17,-364.09 141.96,-360.91 147.09,-358.34"/>
<polygon fill="midnightblue" stroke="midnightblue" points="45.31,-638.58 49.04,-648.5 52.31,-638.42 45.31,-638.58"/>
</g>
<!-- Node101 -->
<g id="node26" class="node">
<title>Node101</title>
<g id="a_node26"><a xlink:href="classGlgTitane__22Gui_1_1InputListener.html" target="_top" xlink:title=" ">
<polygon fill="none" stroke="black" points="139,-301.5 139,-320.5 303,-320.5 303,-301.5 139,-301.5"/>
<text text-anchor="middle" x="221" y="-308.5" font-family="Helvetica,sans-Serif" font-size="10.00">GlgTitane_22Gui.InputListener</text>
</a>
</g>
</g>
<!-- Node76&#45;&gt;Node101 -->
<g id="edge25" class="edge">
<title>Node76&#45;&gt;Node101</title>
<path fill="none" stroke="midnightblue" d="M51.79,-638.49C59.65,-574.69 87.66,-373.82 133,-330 136.89,-326.24 141.34,-323.15 146.13,-320.62"/>
<polygon fill="midnightblue" stroke="midnightblue" points="48.31,-638.09 50.59,-648.44 55.26,-638.93 48.31,-638.09"/>
</g>
<!-- Node102 -->
<g id="node27" class="node">
<title>Node102</title>
<g id="a_node27"><a xlink:href="classGlgTitane__32Gui_1_1InputListener.html" target="_top" xlink:title=" ">
<polygon fill="none" stroke="black" points="139,-263.5 139,-282.5 303,-282.5 303,-263.5 139,-263.5"/>
<text text-anchor="middle" x="221" y="-270.5" font-family="Helvetica,sans-Serif" font-size="10.00">GlgTitane_32Gui.InputListener</text>
</a>
</g>
</g>
<!-- Node76&#45;&gt;Node102 -->
<g id="edge26" class="edge">
<title>Node76&#45;&gt;Node102</title>
<path fill="none" stroke="midnightblue" d="M51.27,-638.07C57.82,-569.04 82.89,-341.65 133,-292 136.84,-288.19 141.26,-285.07 146.03,-282.52"/>
<polygon fill="midnightblue" stroke="midnightblue" points="47.75,-638.12 50.32,-648.4 54.72,-638.76 47.75,-638.12"/>
</g>
<!-- Node103 -->
<g id="node28" class="node">
<title>Node103</title>
<g id="a_node28"><a xlink:href="classGlgTube1500wStatusDetailsGui_1_1InputListener.html" target="_top" xlink:title=" ">
<polygon fill="none" stroke="black" points="144.5,-214 144.5,-244 297.5,-244 297.5,-214 144.5,-214"/>
<text text-anchor="start" x="152.5" y="-232" font-family="Helvetica,sans-Serif" font-size="10.00">GlgTube1500wStatusDetails</text>
<text text-anchor="middle" x="221" y="-221" font-family="Helvetica,sans-Serif" font-size="10.00">Gui.InputListener</text>
</a>
</g>
</g>
<!-- Node76&#45;&gt;Node103 -->
<g id="edge27" class="edge">
<title>Node76&#45;&gt;Node103</title>
<path fill="none" stroke="midnightblue" d="M50.94,-638.05C56.63,-564.71 79.86,-311.34 133,-254 136.53,-250.2 140.59,-246.96 144.99,-244.2"/>
<polygon fill="midnightblue" stroke="midnightblue" points="47.44,-637.98 50.18,-648.21 54.42,-638.5 47.44,-637.98"/>
</g>
<!-- Node104 -->
<g id="node29" class="node">
<title>Node104</title>
<g id="a_node29"><a xlink:href="classGlgTubeStatusDetailsGui_1_1InputListener.html" target="_top" xlink:title=" ">
<polygon fill="none" stroke="black" points="151,-165 151,-195 291,-195 291,-165 151,-165"/>
<text text-anchor="start" x="159" y="-183" font-family="Helvetica,sans-Serif" font-size="10.00">GlgTubeStatusDetailsGui.</text>
<text text-anchor="middle" x="221" y="-172" font-family="Helvetica,sans-Serif" font-size="10.00">InputListener</text>
</a>
</g>
</g>
<!-- Node76&#45;&gt;Node104 -->
<g id="edge28" class="edge">
<title>Node76&#45;&gt;Node104</title>
<path fill="none" stroke="midnightblue" d="M50.45,-638.21C54.6,-559.58 73.73,-270.35 133,-205 137.96,-199.53 144.03,-195.22 150.64,-191.84"/>
<polygon fill="midnightblue" stroke="midnightblue" points="46.95,-638.07 49.94,-648.23 53.94,-638.42 46.95,-638.07"/>
</g>
<!-- Node105 -->
<g id="node30" class="node">
<title>Node105</title>
<g id="a_node30"><a xlink:href="classGlgTurboGui_1_1InputListener.html" target="_top" xlink:title=" ">
<polygon fill="none" stroke="black" points="149.5,-126.5 149.5,-145.5 292.5,-145.5 292.5,-126.5 149.5,-126.5"/>
<text text-anchor="middle" x="221" y="-133.5" font-family="Helvetica,sans-Serif" font-size="10.00">GlgTurboGui.InputListener</text>
</a>
</g>
</g>
<!-- Node76&#45;&gt;Node105 -->
<g id="edge29" class="edge">
<title>Node76&#45;&gt;Node105</title>
<path fill="none" stroke="midnightblue" d="M49.95,-638.18C52.29,-554.05 65.65,-227.6 133,-156 137.67,-151.03 143.31,-147.18 149.44,-144.21"/>
<polygon fill="midnightblue" stroke="midnightblue" points="46.45,-638.3 49.69,-648.39 53.45,-638.48 46.45,-638.3"/>
</g>
<!-- Node106 -->
<g id="node31" class="node">
<title>Node106</title>
<g id="a_node31"><a xlink:href="classGlgTurboPfeifferDCUGui_1_1InputListener.html" target="_top" xlink:title=" ">
<polygon fill="none" stroke="black" points="140.5,-77 140.5,-107 301.5,-107 301.5,-77 140.5,-77"/>
<text text-anchor="start" x="148.5" y="-95" font-family="Helvetica,sans-Serif" font-size="10.00">GlgTurboPfeifferDCUGui.Input</text>
<text text-anchor="middle" x="221" y="-84" font-family="Helvetica,sans-Serif" font-size="10.00">Listener</text>
</a>
</g>
</g>
<!-- Node76&#45;&gt;Node106 -->
<g id="edge30" class="edge">
<title>Node76&#45;&gt;Node106</title>
<path fill="none" stroke="midnightblue" d="M49.8,-637.87C51.54,-549.49 62.82,-196.69 133,-117 136.43,-113.11 140.42,-109.8 144.77,-107"/>
<polygon fill="midnightblue" stroke="midnightblue" points="46.3,-638.07 49.62,-648.13 53.3,-638.19 46.3,-638.07"/>
</g>
<!-- Node107 -->
<g id="node32" class="node">
<title>Node107</title>
<g id="a_node32"><a xlink:href="classGlgValveGui_1_1InputListener.html" target="_top" xlink:title=" ">
<polygon fill="none" stroke="black" points="149.5,-38.5 149.5,-57.5 292.5,-57.5 292.5,-38.5 149.5,-38.5"/>
<text text-anchor="middle" x="221" y="-45.5" font-family="Helvetica,sans-Serif" font-size="10.00">GlgValveGui.InputListener</text>
</a>
</g>
</g>
<!-- Node76&#45;&gt;Node107 -->
<g id="edge31" class="edge">
<title>Node76&#45;&gt;Node107</title>
<path fill="none" stroke="midnightblue" d="M49.41,-638.05C49.43,-544.91 54.25,-153.77 133,-68 137.61,-62.98 143.21,-59.09 149.31,-56.1"/>
<polygon fill="midnightblue" stroke="midnightblue" points="45.91,-638.11 49.43,-648.11 52.91,-638.1 45.91,-638.11"/>
</g>
<!-- Node108 -->
<g id="node33" class="node">
<title>Node108</title>
<g id="a_node33"><a xlink:href="classGlgXGSGaugeGui_1_1InputListener.html" target="_top" xlink:title=" ">
<polygon fill="none" stroke="black" points="137,-0.5 137,-19.5 305,-19.5 305,-0.5 137,-0.5"/>
<text text-anchor="middle" x="221" y="-7.5" font-family="Helvetica,sans-Serif" font-size="10.00">GlgXGSGaugeGui.InputListener</text>
</a>
</g>
</g>
<!-- Node76&#45;&gt;Node108 -->
<g id="edge32" class="edge">
<title>Node76&#45;&gt;Node108</title>
<path fill="none" stroke="midnightblue" d="M49.2,-638.27C48.17,-541.8 48.6,-120.72 133,-29 136.45,-25.25 140.46,-22.14 144.83,-19.59"/>
<polygon fill="midnightblue" stroke="midnightblue" points="45.7,-638.43 49.33,-648.38 52.7,-638.34 45.7,-638.43"/>
</g>
</g>
</svg>
