<?xml version="1.0" encoding="UTF-8" standalone="no"?>
<!DOCTYPE svg PUBLIC "-//W3C//DTD SVG 1.1//EN"
 "http://www.w3.org/Graphics/SVG/1.1/DTD/svg11.dtd">
<!-- Generated by graphviz version 2.50.0 (0)
 -->
<!-- Title: Graphical Class Hierarchy Pages: 1 -->
<svg width="459pt" height="256pt"
 viewBox="0.00 0.00 459.00 256.00" xmlns="http://www.w3.org/2000/svg" xmlns:xlink="http://www.w3.org/1999/xlink">
<g id="graph0" class="graph" transform="scale(1 1) rotate(0) translate(4 252)">
<title>Graphical Class Hierarchy</title>
<polygon fill="white" stroke="transparent" points="-4,4 -4,-252 455,-252 455,4 -4,4"/>
<!-- Node0 -->
<g id="node1" class="node">
<title>Node0</title>
<g id="a_node1"><a xlink:href="interfaceChannelList.html" target="_top" xlink:title=" ">
<polygon fill="white" stroke="black" points="0,-228.5 0,-247.5 74,-247.5 74,-228.5 0,-228.5"/>
<text text-anchor="middle" x="37" y="-235.5" font-family="Helvetica,sans-Serif" font-size="10.00">ChannelList</text>
</a>
</g>
</g>
<!-- Node1 -->
<g id="node2" class="node">
<title>Node1</title>
<g id="a_node2"><a xlink:href="classGlgChildGui.html" target="_top" xlink:title=" ">
<polygon fill="white" stroke="black" points="131,-190.5 131,-209.5 205,-209.5 205,-190.5 131,-190.5"/>
<text text-anchor="middle" x="168" y="-197.5" font-family="Helvetica,sans-Serif" font-size="10.00">GlgChildGui</text>
</a>
</g>
</g>
<!-- Node0&#45;&gt;Node1 -->
<g id="edge1" class="edge">
<title>Node0&#45;&gt;Node1</title>
<path fill="none" stroke="midnightblue" d="M80.55,-225.46C98.1,-220.3 118.11,-214.4 134.46,-209.59"/>
<polygon fill="midnightblue" stroke="midnightblue" points="79.16,-222.23 70.55,-228.41 81.13,-228.94 79.16,-222.23"/>
</g>
<!-- Node3 -->
<g id="node4" class="node">
<title>Node3</title>
<g id="a_node4"><a xlink:href="classGlgGui.html" target="_top" xlink:title=" ">
<polygon fill="white" stroke="black" points="143,-228.5 143,-247.5 193,-247.5 193,-228.5 143,-228.5"/>
<text text-anchor="middle" x="168" y="-235.5" font-family="Helvetica,sans-Serif" font-size="10.00">GlgGui</text>
</a>
</g>
</g>
<!-- Node0&#45;&gt;Node3 -->
<g id="edge3" class="edge">
<title>Node0&#45;&gt;Node3</title>
<path fill="none" stroke="midnightblue" d="M84.35,-238C104.12,-238 126.37,-238 142.8,-238"/>
<polygon fill="midnightblue" stroke="midnightblue" points="84.28,-234.5 74.28,-238 84.28,-241.5 84.28,-234.5"/>
</g>
<!-- Node2 -->
<g id="node3" class="node">
<title>Node2</title>
<g id="a_node3"><a xlink:href="classGlg2Gui.html" target="_top" xlink:title=" ">
<polygon fill="white" stroke="black" points="262,-190.5 262,-209.5 318,-209.5 318,-190.5 262,-190.5"/>
<text text-anchor="middle" x="290" y="-197.5" font-family="Helvetica,sans-Serif" font-size="10.00">Glg2Gui</text>
</a>
</g>
</g>
<!-- Node1&#45;&gt;Node2 -->
<g id="edge2" class="edge">
<title>Node1&#45;&gt;Node2</title>
<path fill="none" stroke="midnightblue" d="M215.12,-200C230.89,-200 248.01,-200 261.8,-200"/>
<polygon fill="midnightblue" stroke="midnightblue" points="215,-196.5 205,-200 215,-203.5 215,-196.5"/>
</g>
<!-- Node6 -->
<g id="node5" class="node">
<title>Node6</title>
<g id="a_node5"><a xlink:href="interfaceDataTypes.html" target="_top" xlink:title=" ">
<polygon fill="white" stroke="black" points="3,-57.5 3,-76.5 71,-76.5 71,-57.5 3,-57.5"/>
<text text-anchor="middle" x="37" y="-64.5" font-family="Helvetica,sans-Serif" font-size="10.00">DataTypes</text>
</a>
</g>
</g>
<!-- Node7 -->
<g id="node6" class="node">
<title>Node7</title>
<g id="a_node6"><a xlink:href="classDataElement.html" target="_top" xlink:title=" ">
<polygon fill="white" stroke="black" points="128,-38.5 128,-57.5 208,-57.5 208,-38.5 128,-38.5"/>
<text text-anchor="middle" x="168" y="-45.5" font-family="Helvetica,sans-Serif" font-size="10.00">DataElement</text>
</a>
</g>
</g>
<!-- Node6&#45;&gt;Node7 -->
<g id="edge4" class="edge">
<title>Node6&#45;&gt;Node7</title>
<path fill="none" stroke="midnightblue" d="M81.33,-60.62C96.41,-58.4 113.22,-55.92 127.93,-53.75"/>
<polygon fill="midnightblue" stroke="midnightblue" points="80.6,-57.19 71.22,-62.11 81.62,-64.11 80.6,-57.19"/>
</g>
<!-- Node8 -->
<g id="node7" class="node">
<title>Node8</title>
<g id="a_node7"><a xlink:href="classDataManager.html" target="_top" xlink:title=" ">
<polygon fill="white" stroke="black" points="126.5,-0.5 126.5,-19.5 209.5,-19.5 209.5,-0.5 126.5,-0.5"/>
<text text-anchor="middle" x="168" y="-7.5" font-family="Helvetica,sans-Serif" font-size="10.00">DataManager</text>
</a>
</g>
</g>
<!-- Node6&#45;&gt;Node8 -->
<g id="edge5" class="edge">
<title>Node6&#45;&gt;Node8</title>
<path fill="none" stroke="midnightblue" d="M63,-52.51C76.63,-44.94 93.95,-35.86 110,-29 118.06,-25.56 126.96,-22.33 135.3,-19.54"/>
<polygon fill="midnightblue" stroke="midnightblue" points="61.21,-49.5 54.21,-57.46 64.64,-55.6 61.21,-49.5"/>
</g>
<!-- Node9 -->
<g id="node8" class="node">
<title>Node9</title>
<g id="a_node8"><a xlink:href="classDevice.html" target="_top" xlink:title=" ">
<polygon fill="white" stroke="black" points="265,-76.5 265,-95.5 315,-95.5 315,-76.5 265,-76.5"/>
<text text-anchor="middle" x="290" y="-83.5" font-family="Helvetica,sans-Serif" font-size="10.00">Device</text>
</a>
</g>
</g>
<!-- Node6&#45;&gt;Node9 -->
<g id="edge8" class="edge">
<title>Node6&#45;&gt;Node9</title>
<path fill="none" stroke="midnightblue" d="M81.2,-70.27C134.29,-74.29 222.54,-80.97 264.89,-84.17"/>
<polygon fill="midnightblue" stroke="midnightblue" points="81.31,-66.77 71.07,-69.5 80.78,-73.75 81.31,-66.77"/>
</g>
<!-- Node11 -->
<g id="node10" class="node">
<title>Node11</title>
<g id="a_node10"><a xlink:href="classModbusSlaveThread.html" target="_top" xlink:title=" ">
<polygon fill="white" stroke="black" points="110,-114.5 110,-133.5 226,-133.5 226,-114.5 110,-114.5"/>
<text text-anchor="middle" x="168" y="-121.5" font-family="Helvetica,sans-Serif" font-size="10.00">ModbusSlaveThread</text>
</a>
</g>
</g>
<!-- Node6&#45;&gt;Node11 -->
<g id="edge9" class="edge">
<title>Node6&#45;&gt;Node11</title>
<path fill="none" stroke="midnightblue" d="M67.76,-80.89C80.7,-86.87 96.06,-93.87 110,-100 121.11,-104.88 133.51,-110.13 143.91,-114.47"/>
<polygon fill="midnightblue" stroke="midnightblue" points="68.95,-77.59 58.41,-76.56 66.01,-83.94 68.95,-77.59"/>
</g>
<!-- Node8&#45;&gt;Node9 -->
<g id="edge6" class="edge">
<title>Node8&#45;&gt;Node9</title>
<path fill="none" stroke="midnightblue" d="M214.58,-23.27C218.54,-24.99 222.4,-26.9 226,-29 248.16,-41.94 269.3,-63.62 280.57,-76.19"/>
<polygon fill="midnightblue" stroke="midnightblue" points="215.85,-20 205.26,-19.57 213.27,-26.51 215.85,-20"/>
</g>
<!-- Node10 -->
<g id="node9" class="node">
<title>Node10</title>
<g id="a_node9"><a xlink:href="classSupervisorClient.html" target="_top" xlink:title=" ">
<polygon fill="white" stroke="black" points="354,-76.5 354,-95.5 451,-95.5 451,-76.5 354,-76.5"/>
<text text-anchor="middle" x="402.5" y="-83.5" font-family="Helvetica,sans-Serif" font-size="10.00">SupervisorClient</text>
</a>
</g>
</g>
<!-- Node9&#45;&gt;Node10 -->
<g id="edge7" class="edge">
<title>Node9&#45;&gt;Node10</title>
<path fill="none" stroke="midnightblue" d="M325.33,-86C334.31,-86 344.16,-86 353.71,-86"/>
<polygon fill="midnightblue" stroke="midnightblue" points="325.25,-82.5 315.25,-86 325.25,-89.5 325.25,-82.5"/>
</g>
<!-- Node18 -->
<g id="node11" class="node">
<title>Node18</title>
<g id="a_node11"><a xlink:title=" ">
<polygon fill="white" stroke="#bfbfbf" points="6,-152.5 6,-171.5 68,-171.5 68,-152.5 6,-152.5"/>
<text text-anchor="middle" x="37" y="-159.5" font-family="Helvetica,sans-Serif" font-size="10.00">Runnable</text>
</a>
</g>
</g>
<!-- Node18&#45;&gt;Node1 -->
<g id="edge11" class="edge">
<title>Node18&#45;&gt;Node1</title>
<path fill="none" stroke="midnightblue" d="M78.01,-173.78C96.23,-179.15 117.51,-185.42 134.69,-190.48"/>
<polygon fill="midnightblue" stroke="midnightblue" points="78.83,-170.38 68.24,-170.91 76.85,-177.09 78.83,-170.38"/>
</g>
<!-- Node18&#45;&gt;Node3 -->
<g id="edge12" class="edge">
<title>Node18&#45;&gt;Node3</title>
<path fill="none" stroke="midnightblue" d="M67.6,-176.59C69.82,-177.99 71.98,-179.47 74,-181 92.53,-195.06 90.38,-206.5 110,-219 119.94,-225.33 132.21,-229.78 142.82,-232.76"/>
<polygon fill="midnightblue" stroke="midnightblue" points="69.3,-173.53 58.89,-171.55 65.79,-179.58 69.3,-173.53"/>
</g>
<!-- Node18&#45;&gt;Node9 -->
<g id="edge10" class="edge">
<title>Node18&#45;&gt;Node9</title>
<path fill="none" stroke="midnightblue" d="M78.13,-165.01C117.5,-166.37 178.39,-164.15 226,-143 249.99,-132.34 271.08,-108.95 281.7,-95.68"/>
<polygon fill="midnightblue" stroke="midnightblue" points="78.26,-161.51 68.12,-164.57 77.95,-168.51 78.26,-161.51"/>
</g>
<!-- Node18&#45;&gt;Node11 -->
<g id="edge13" class="edge">
<title>Node18&#45;&gt;Node11</title>
<path fill="none" stroke="midnightblue" d="M78.01,-150.22C96.23,-144.85 117.51,-138.58 134.69,-133.52"/>
<polygon fill="midnightblue" stroke="midnightblue" points="76.85,-146.91 68.24,-153.09 78.83,-153.62 76.85,-146.91"/>
</g>
<!-- Node21 -->
<g id="node12" class="node">
<title>Node21</title>
<g id="a_node12"><a xlink:title=" ">
<polygon fill="white" stroke="#bfbfbf" points="12,-190.5 12,-209.5 62,-209.5 62,-190.5 12,-190.5"/>
<text text-anchor="middle" x="37" y="-197.5" font-family="Helvetica,sans-Serif" font-size="10.00">JFrame</text>
</a>
</g>
</g>
<!-- Node21&#45;&gt;Node1 -->
<g id="edge14" class="edge">
<title>Node21&#45;&gt;Node1</title>
<path fill="none" stroke="midnightblue" d="M72.33,-200C90.33,-200 112.36,-200 130.65,-200"/>
<polygon fill="midnightblue" stroke="midnightblue" points="72.26,-196.5 62.26,-200 72.26,-203.5 72.26,-196.5"/>
</g>
<!-- Node21&#45;&gt;Node3 -->
<g id="edge15" class="edge">
<title>Node21&#45;&gt;Node3</title>
<path fill="none" stroke="midnightblue" d="M72,-210.02C94.29,-216.58 122.88,-225 142.84,-230.88"/>
<polygon fill="midnightblue" stroke="midnightblue" points="72.85,-206.62 62.26,-207.15 70.87,-213.33 72.85,-206.62"/>
</g>
</g>
</svg>
